<svg width="1728" height="1128" viewBox="0 0 1728 1128" fill="none" xmlns="http://www.w3.org/2000/svg">
<rect y="96" width="1728" height="1032" fill="url(#paint0_linear_485_4)"/>
<path d="M-24 548.193C-24 548.193 95.4094 492.639 174.59 557.771C174.59 557.771 210.349 579.482 216.734 643.337C216.734 643.337 295.915 616.518 340.614 685.482C385.312 754.445 350.831 782.542 350.831 782.542C350.831 782.542 423.626 779.987 426.18 856.614C426.18 856.614 578.155 808.084 585.818 966.445C585.818 966.445 622.854 917.915 661.167 928.132C661.167 928.132 696.926 933.24 714.806 961.336C714.806 961.336 814.42 819.578 958.733 903.867C958.733 903.867 979.167 765.939 1124.76 817.023C1124.76 817.023 1119.65 792.758 1143.91 797.867C1143.91 797.867 1191.17 605.024 1396.78 740.397C1396.78 740.397 1410.83 722.518 1424.88 723.795C1424.88 723.795 1408.27 680.373 1446.59 671.433C1446.59 671.433 1472.13 610.132 1541.09 640.783C1541.09 640.783 1594.73 579.482 1639.43 651C1639.43 651 1686.68 643.337 1676.47 689.313C1676.47 689.313 1713.5 681.65 1722.44 731.457C1731.38 781.264 1726.85 1128 1726.85 1128H-24V548.193Z" fill="white"/>
<g filter="url(#filter0_f_485_4)">
<circle cx="144.5" cy="293.5" r="213.5" fill="white"/>
</g>
<defs>
<filter id="filter0_f_485_4" x="-149" y="0" width="587" height="587" filterUnits="userSpaceOnUse" color-interpolation-filters="sRGB">
<feFlood flood-opacity="0" result="BackgroundImageFix"/>
<feBlend mode="normal" in="SourceGraphic" in2="BackgroundImageFix" result="shape"/>
<feGaussianBlur stdDeviation="40" result="effect1_foregroundBlur_485_4"/>
</filter>
<linearGradient id="paint0_linear_485_4" x1="864" y1="757.519" x2="864" y2="95.9999" gradientUnits="userSpaceOnUse">
<stop offset="0.474817" stop-color="#8CC8EC"/>
<stop offset="1" stop-color="#D9D9D9" stop-opacity="0"/>
</linearGradient>
</defs>
</svg>
