<svg width="269" height="269" viewBox="0 0 269 269" fill="none" xmlns="http://www.w3.org/2000/svg">
<path d="M85.5287 143L78.1847 126.2H81.5687L88.1207 141.392H86.1767L92.8007 126.2H95.9207L88.6007 143H85.5287ZM100.574 133.184H108.926V135.752H100.574V133.184ZM100.814 140.384H110.294V143H97.6935V126.2H109.958V128.816H100.814V140.384ZM113.772 143V126.2H120.684C122.172 126.2 123.444 126.44 124.5 126.92C125.572 127.4 126.396 128.088 126.972 128.984C127.548 129.88 127.836 130.944 127.836 132.176C127.836 133.408 127.548 134.472 126.972 135.368C126.396 136.248 125.572 136.928 124.5 137.408C123.444 137.872 122.172 138.104 120.684 138.104H115.5L116.892 136.688V143H113.772ZM124.764 143L120.516 136.904H123.852L128.124 143H124.764ZM116.892 137.024L115.5 135.536H120.54C121.916 135.536 122.948 135.24 123.636 134.648C124.34 134.056 124.692 133.232 124.692 132.176C124.692 131.104 124.34 130.28 123.636 129.704C122.948 129.128 121.916 128.84 120.54 128.84H115.5L116.892 127.304V137.024ZM137.959 143V126.2H140.527L147.871 138.464H146.527L153.751 126.2H156.319L156.343 143H153.391L153.367 130.832H153.991L147.847 141.08H146.455L140.215 130.832H140.935V143H137.959ZM158.505 143L166.065 126.2H169.137L176.721 143H173.457L166.953 127.856H168.201L161.721 143H158.505ZM161.985 139.112L162.825 136.664H171.897L172.737 139.112H161.985ZM165.585 124.832L168.825 121.544H172.353L168.177 124.832H165.585ZM184.066 143.24C182.754 143.24 181.498 143.056 180.298 142.688C179.098 142.304 178.146 141.816 177.442 141.224L178.522 138.8C179.194 139.328 180.026 139.768 181.018 140.12C182.01 140.472 183.026 140.648 184.066 140.648C184.946 140.648 185.658 140.552 186.202 140.36C186.746 140.168 187.146 139.912 187.402 139.592C187.658 139.256 187.786 138.88 187.786 138.464C187.786 137.952 187.602 137.544 187.234 137.24C186.866 136.92 186.386 136.672 185.794 136.496C185.218 136.304 184.57 136.128 183.85 135.968C183.146 135.808 182.434 135.624 181.714 135.416C181.01 135.192 180.362 134.912 179.77 134.576C179.194 134.224 178.722 133.76 178.354 133.184C177.986 132.608 177.802 131.872 177.802 130.976C177.802 130.064 178.042 129.232 178.522 128.48C179.018 127.712 179.762 127.104 180.754 126.656C181.762 126.192 183.034 125.96 184.57 125.96C185.578 125.96 186.578 126.088 187.57 126.344C188.562 126.6 189.426 126.968 190.162 127.448L189.178 129.872C188.426 129.424 187.65 129.096 186.85 128.888C186.05 128.664 185.282 128.552 184.546 128.552C183.682 128.552 182.978 128.656 182.434 128.864C181.906 129.072 181.514 129.344 181.258 129.68C181.018 130.016 180.898 130.4 180.898 130.832C180.898 131.344 181.074 131.76 181.426 132.08C181.794 132.384 182.266 132.624 182.842 132.8C183.434 132.976 184.09 133.152 184.81 133.328C185.53 133.488 186.242 133.672 186.946 133.88C187.666 134.088 188.314 134.36 188.89 134.696C189.482 135.032 189.954 135.488 190.306 136.064C190.674 136.64 190.858 137.368 190.858 138.248C190.858 139.144 190.61 139.976 190.114 140.744C189.634 141.496 188.89 142.104 187.882 142.568C186.874 143.016 185.602 143.24 184.066 143.24Z" fill="white"/>
<circle cx="134.5" cy="134.5" r="134" stroke="white"/>
<circle cx="134.5" cy="134.5" r="117" stroke="white"/>
</svg>
