<svg width="269" height="353" viewBox="0 0 269 353" fill="none" xmlns="http://www.w3.org/2000/svg">
<path opacity="0.2" d="M92.7332 273.039C91.7028 271.847 90.5108 270.776 89.6825 269.463C85.0357 262.109 79.9243 254.957 76.025 247.219C69.3781 233.966 63.2364 220.43 57.438 206.792C55.1955 201.539 54.0035 195.681 53.2155 189.983C52.1852 182.326 53.761 174.811 57.0743 167.82C60.0442 161.557 60.7311 154.809 62.206 148.223C62.8121 145.516 61.1958 144.788 59.034 144.526C57.0743 144.283 55.2156 144.041 54.6297 141.556C54.0236 138.97 54.3469 138.202 56.9531 137.354C57.8623 137.051 58.7512 136.707 59.62 136.343C59.7412 136.303 59.822 136.101 60.4483 135.313C59.62 131.495 59.1755 126.929 57.64 122.787C55.2964 116.564 54.6904 110.241 55.0742 103.756C55.3369 99.331 54.3671 95.7752 50.9326 92.4821C48.3465 90.0173 46.7706 86.3807 45.1544 83.0673C42.9926 78.5822 40.3056 75.087 34.8709 74.6829C33.6183 74.6021 32.4061 73.9758 31.1737 73.5718C26.1229 71.9151 21.0519 71.7737 15.9404 73.4102C10.8896 75.0264 5.81855 75.1072 0 72.9455C3.0911 71.8747 5.51555 71.1474 7.87934 70.218C11.6574 68.723 12.2028 67.3088 10.829 63.4701C9.91985 60.9043 8.70763 58.3385 8.34397 55.6918C7.53584 49.7925 10.0613 46.1357 15.7384 44.3578C17.1122 43.9336 18.5467 43.6507 19.9811 43.4891C26.0623 42.7415 26.2845 42.5193 26.0421 36.1957C26.0017 35.2259 25.9613 34.2561 25.9411 33.2864C25.9209 31.1044 26.7492 29.5084 29.012 28.9831C31.1939 28.4578 32.2647 29.771 33.1335 31.4883C33.5981 32.4379 34.2446 33.3066 35.2548 34.9431C35.8609 32.0944 36.2852 30.0741 36.7296 28.0537C37.1539 26.094 38.2449 24.8818 40.3864 24.902C40.7097 24.902 41.0329 24.8818 41.3562 24.8616C56.4278 24.0535 55.4581 23.71 64.1253 34.9431C67.5801 39.4282 71.1157 43.8325 74.5502 48.3177C75.9038 50.0753 77.3989 51.2269 79.7829 51.2673C84.9145 51.3684 89.5815 53.1463 93.9252 55.7525C97.5214 57.9142 100.996 60.278 104.552 62.5206C105.865 63.3489 107.219 64.0964 109.583 65.5107C107.3 59.5709 105.421 54.7423 103.441 49.5702C102.39 49.8127 101.198 50.1158 99.9862 50.3784C96.592 51.0855 94.9556 49.5299 95.8849 46.1761C96.3496 44.5194 97.2183 42.8628 98.2891 41.4889C100.895 38.1756 103.097 37.8523 106.613 40.1959C111.987 43.7921 117.341 47.4085 122.553 51.2067C129.038 55.9343 129.624 61.6518 124.17 67.6926C124.978 68.2179 125.705 68.8038 126.513 69.1876C131.584 71.5918 133.16 70.905 135.322 65.6319C136.231 63.3893 137.362 61.2478 138.211 59.0052C138.736 57.591 138.918 56.0555 139.403 53.9544C137.766 54.3585 136.898 54.5201 136.029 54.7827C131.827 56.0353 127.281 52.4593 127.927 48.1964C128.069 47.2671 129.059 45.9539 129.887 45.7518C133.625 44.8225 137.403 43.9335 141.221 43.6103C143.787 43.388 144.878 45.2063 143.666 47.4287C142.13 50.2572 141.12 52.722 142.696 56.0353C145.1 61.0862 147.525 65.8743 153.323 67.8946C155.485 68.6422 156.717 68.036 157.586 66.1571C159.788 61.47 158.778 59.2678 153.707 57.6314C148.636 55.9949 147.08 53.4897 148.07 48.5803C148.919 44.3578 151.969 41.8122 156.576 42.6405C163.384 43.8527 170.132 45.5498 176.779 47.4489C179.001 48.0752 181.284 49.5905 182.799 51.3481C185.527 54.4999 188.941 55.9141 192.8 56.7424C193.265 56.8434 193.75 56.9243 194.214 57.0455C197.669 58.0557 198.275 58.7426 197.507 62.1569C196.659 65.9147 197.346 68.622 200.861 70.8039C202.437 71.7737 203.73 73.9354 204.195 75.7941C205.104 79.4509 202.801 82.1986 199.003 82.1784C196.619 82.1784 194.235 81.5925 191.851 81.2086C187.891 80.5621 183.951 79.7944 179.991 79.2287C177.264 78.8448 176.355 77.7337 177.203 74.9658C177.728 73.2889 178.577 71.713 179.284 70.0766C180.335 67.6522 180.395 64.9854 178.577 63.2277C175.688 60.48 172.354 58.1769 169.001 55.9949C168.374 55.5908 166.415 56.2778 165.728 57.0455C163.869 59.1466 163.849 61.6114 164.94 64.2782C167.506 70.5009 166.758 72.9051 160.96 76.2184C156.01 79.0671 153.04 83.2088 151.646 88.6233C150.595 92.6841 149.565 96.745 148.535 100.806C146.636 108.281 149.504 114.766 156.495 118.08C159.242 119.373 162.273 120.1 165.202 120.949C167.687 121.656 170.193 122.302 172.738 122.747C179.082 123.898 183.406 127.09 184.557 133.778C184.699 134.566 185.002 135.333 185.385 136.04C186.315 137.778 187.608 138.808 189.709 137.94C191.911 137.01 192.881 134.97 192.113 132.868C192.053 132.727 192.012 132.545 191.911 132.444C187.325 127.373 187.689 120.969 186.82 114.766C186.052 109.392 184.072 104.18 182.597 98.9067C182.113 97.2096 181.365 95.553 181.022 93.8357C180.072 88.9465 181.688 86.5019 186.557 85.4109C192.356 84.0977 197.023 85.916 200.7 90.5628C201.892 92.078 203.063 93.6942 204.579 94.8256C206.781 96.4621 208.518 95.6742 209.266 93.0073C209.488 92.2396 209.427 91.3911 209.65 90.6234C209.872 89.8758 210.276 89.1889 210.862 87.9161C212.539 88.8657 214.094 89.5728 215.468 90.5628C218.479 92.7447 221.388 95.0479 224.337 97.3309C227.59 99.8361 231.146 101.089 235.207 99.7351C238.783 98.5431 241.429 99.7148 243.733 102.523C245.47 104.644 247.511 106.503 249.39 108.523C253.43 112.867 258.218 116.059 263.815 118.019C266.098 118.827 269.229 119.676 268.987 122.262C268.805 124.161 266.34 125.999 264.603 127.555C263.572 128.484 262.077 129.01 260.703 129.414C254.582 131.212 251.632 129.555 249.874 123.434C249.208 121.13 248.561 118.807 247.733 115.938C244.783 119.534 242.52 123.11 239.49 125.797C236.581 128.383 232.863 130.06 229.489 132.141C229.449 132.06 229.611 132.485 229.712 132.464C234.338 131.717 237.025 133.535 237.874 138.222C238.278 140.424 239.995 141.334 242.177 141.354C242.662 141.354 243.147 141.354 243.632 141.414C248.48 141.94 249.592 143.617 248.157 148.122C248.016 148.587 247.834 149.031 247.672 149.496C245.228 156.324 245.228 156.324 238.702 153.698C238.056 154.668 237.247 155.638 236.682 156.749C232.56 164.608 228.52 172.507 224.358 180.366C220.479 187.72 218.539 195.357 220.155 203.721C220.761 206.914 219.65 209.823 217.63 212.288C215.791 214.53 213.711 216.591 211.811 218.773C206.437 224.955 205.912 230.188 209.67 237.461C211.751 241.461 213.812 245.502 215.448 249.704C216.802 253.159 214.862 256.129 211.67 255.725C210.316 255.563 208.66 254.371 207.973 253.179C205.973 249.684 204.154 246.047 202.76 242.29C201.508 238.936 199.467 237.36 195.952 237.259C192.073 237.138 188.214 236.794 184.335 236.612C181.102 236.451 178.193 237.259 176.112 239.865C173.769 242.815 170.637 243.542 167.081 243.542C163.202 243.542 159.323 243.603 155.485 243.946C148.333 244.552 144.07 248.835 143.181 255.907C142.433 261.826 141.504 267.725 140.918 273.665C140.251 280.413 142.373 286.434 146.656 291.646C150.919 296.859 157.586 298.677 163.687 296.515C166.819 295.404 168.92 293.444 169.607 290.091C169.869 288.838 170.152 287.545 170.698 286.393C172.375 282.858 176.011 281.484 179.648 282.838C182.395 283.868 183.284 285.222 182.496 288.05C181.426 291.929 180.072 295.747 178.86 299.586C178.476 300.818 177.991 302.031 177.749 303.283C177.143 306.475 178.213 307.93 181.405 308.011C183.486 308.051 185.588 307.627 187.689 307.566C194.194 307.364 197.972 309.87 197.507 316.921C197.285 320.294 197.103 323.689 196.821 327.063C196.376 332.881 198.114 337.892 202.296 341.993C203.872 343.549 205.367 343.852 207.387 342.377C211.428 339.447 213.286 339.75 216.398 343.286C219.347 346.619 219.186 348.559 215.408 352.6C214.094 350.438 212.822 348.337 211.124 345.589C209.71 347.145 208.518 348.155 207.69 349.407C206.256 351.61 204.659 351.711 202.336 350.741C196.922 348.458 192.699 344.882 189.648 339.932C187.285 336.073 185.022 332.174 182.799 328.214C180.112 323.426 176.314 320.436 170.778 319.365C168.556 318.941 166.213 317.587 164.556 315.991C158.273 310.011 151.02 306.879 142.292 306.9C137.019 306.92 132.069 305.324 127.604 302.576C124.028 300.394 120.674 297.849 117.159 295.545C115.139 294.212 114.027 292.414 113.583 290.05C112.088 281.908 108.108 274.918 103.138 268.453C99.8851 264.23 96.5112 260.089 93.0565 256.048C88.6925 250.937 85.5004 245.219 83.3185 238.875C82.2275 235.723 80.8739 232.673 79.5404 229.319C76.6312 232.774 76.2675 236.814 78.3282 240.188C79.1566 241.562 80.2273 242.795 81.1567 244.108C87.1571 252.795 90.9149 262.473 92.7332 273.039Z" fill="#034638"/>
<path opacity="0.2" d="M154.555 18.9824C154.555 23.4877 154.677 27.9931 154.515 32.4984C154.333 37.8523 152.777 39.2059 147.363 39.2261C146.07 39.2261 144.797 39.3069 143.504 39.2665C141.666 39.2261 139.423 40.0949 138.413 37.7109C137.383 35.2663 137.08 32.66 138.878 30.3771C139.868 29.1245 141.181 28.1345 142.312 27.0031C145.888 23.4473 146.252 20.9825 143.787 16.7196C143.141 15.6085 142.393 14.5579 141.706 13.4669C139.504 9.93134 139.484 9.04239 142.433 5.89068C144.171 4.03198 146.009 2.09246 148.171 0.839856C151.828 -1.28149 154.919 0.799465 154.919 5.02195C154.919 9.66871 154.919 14.3155 154.919 18.9622C154.818 18.9824 154.677 18.9824 154.555 18.9824Z" fill="#034638"/>
<path opacity="0.2" d="M194.153 279.605C196.457 275.766 199.79 274.392 203.609 275.504C206.78 276.433 209.912 277.908 212.66 279.746C217.569 282.999 222.155 286.696 226.984 290.292C221.65 292.151 216.498 291.404 212.639 287.201C207.609 281.666 201.891 278.676 194.153 279.605Z" fill="#034638"/>
<path opacity="0.2" d="M249.147 297.667C243.47 298.435 238.015 301.728 231.509 299.101C232.378 297.364 232.944 295.869 233.812 294.576C235.934 291.424 238.702 290.474 242.197 292.091C244.783 293.283 247.106 295.04 249.551 296.556C249.409 296.919 249.288 297.283 249.147 297.667Z" fill="#034638"/>
<path opacity="0.2" d="M110.451 32.7207C114.209 32.7207 117.866 32.6399 121.543 32.7611C123.543 32.8217 124.978 33.9126 124.856 36.0946C124.755 38.0947 123.2 38.8625 121.482 38.8423C118.755 38.8018 115.987 38.7412 113.34 38.1553C111.199 37.7109 109.623 36.236 110.451 32.7207Z" fill="#034638"/>
<path opacity="0.2" d="M160.414 81.8753C160.454 79.6934 161.606 78.5014 163.545 78.6428C166.636 78.865 170.172 81.3298 170.172 83.2693C170.172 85.0876 167.323 87.0272 164.737 86.9868C161.848 86.9464 160.353 85.1887 160.414 81.8753Z" fill="#034638"/>
<path opacity="0.2" d="M135.907 13.2245C139.483 14.3761 141.261 16.4773 141.625 19.528C141.746 20.5381 141.039 21.9726 140.231 22.6393C139.827 22.9827 138.089 22.2756 137.403 21.6089C135.14 19.3865 135.221 16.5783 135.907 13.2245Z" fill="#034638"/>
</svg>
