<svg width="362" height="328" viewBox="0 0 362 328" fill="none" xmlns="http://www.w3.org/2000/svg">
<path opacity="0.2" d="M29.2859 180.858C29.9363 179.479 30.7378 178.139 31.175 176.687C31.5098 175.578 31.5022 174.314 31.4715 173.144C31.3692 167.8 33.0839 163.457 37.4369 159.966C41.277 156.893 41.0584 154.55 38.7679 150.209C36.186 145.316 33.955 140.211 31.9031 135.068C30.6339 131.904 32.0616 130.007 35.488 129.646C37.9896 129.379 40.5082 129.279 43.0074 129.117C46.5203 128.867 49.5437 129.844 51.8217 132.68C52.0716 132.985 52.2922 133.42 52.6249 133.543C53.4414 133.829 54.4992 134.335 55.1193 134.04C55.6018 133.805 55.7843 132.483 55.7293 131.685C55.6229 129.932 54.2407 128.259 55.5611 126.014C56.7858 126.556 57.9484 127.065 59.0891 127.616C60.4223 128.228 61.731 128.311 62.6921 127.096C66.7535 121.926 72.7226 119.966 78.4565 117.524C81.1248 116.391 83.6395 114.871 86.2334 113.552C88.0001 112.643 88.7077 111.281 88.3284 109.317C87.7965 106.463 88.3978 103.798 89.7096 101.244C90.4343 99.824 91.5929 98.6869 93.11 99.0521C94.1787 99.3126 95.2963 100.408 95.9022 101.418C96.7603 102.853 97.1506 104.571 98.2318 106.111C98.1119 103.807 97.9871 101.487 97.8794 99.335C98.5775 99.0679 98.8224 98.9058 99.0637 98.9009C100.458 98.9225 102.143 99.4961 103.158 98.9061C105.028 97.8273 107.159 96.5815 107.651 94.1237C108.178 91.4988 110.041 90.0581 112.139 88.8745C114.885 87.3178 116.589 85.2497 116.436 81.8805C116.319 79.2461 117.615 77.3729 120.011 76.2014C123.58 74.4435 127.073 72.5528 130.661 70.8583C134.7 68.9382 134.981 67.8805 132.462 64.3729C131.517 63.051 130.999 61.4244 130.133 59.6273C129.451 59.8894 128.358 60.226 127.32 60.6844C123.888 62.2095 120.834 61.1902 117.953 59.268C117.38 58.8722 116.785 58.0668 116.754 57.4003C116.606 55.1741 117.982 53.675 119.676 52.5292C121.14 51.5407 122.689 51.6708 124.105 52.7781C125.774 54.0852 127.522 55.3155 129.073 56.7457C130.711 58.2356 132.268 58.6752 134.478 57.8558C138.174 56.5098 138.297 56.6279 140.171 60.1783C141.095 61.9401 142.6 62.6038 144.352 62.7753C146.585 62.9892 148.841 62.9364 151.087 63.0772C155.626 63.3443 157.024 65.2376 155.896 69.5733C155.51 71.0795 155.01 72.5516 154.362 74.728C160.199 74.1967 165.564 73.8799 170.856 73.1001C172.549 72.856 174.148 71.5141 175.666 70.4744C180.342 67.3003 183.093 67.7883 186.277 72.496C188.442 75.6966 188.809 75.705 192.266 73.7559C198.029 70.5072 203.817 67.3378 209.615 64.1477C211.394 63.1664 213.348 62.5299 215.339 63.252C222.806 65.9299 230.448 65.5188 238.126 64.7154C241.941 64.3209 245.771 63.9741 249.599 63.6796C251.936 63.4975 253.881 62.8293 255.528 60.9695C258.617 57.4863 262.598 56.5033 267.083 57.5502C269.664 58.1602 272.216 58.848 274.774 59.5518C278.223 60.5015 281.617 61.3293 285.304 61.0263C289.28 60.7038 290.621 63.0309 288.805 66.5382C288.316 67.4863 287.719 68.3638 287.185 69.2741C286.241 70.8828 284.893 71.3497 283.124 70.7847C281.87 70.3732 280.589 69.9872 279.329 69.6121C277.46 69.0605 275.938 69.5812 274.795 71.1643C273.637 72.7523 272.689 74.7436 274.127 76.2603C277.434 79.7336 275.142 82.0346 273.021 84.6647C268.704 90.0174 263.785 94.4283 257.096 96.6962C253.186 98.0216 252.511 99.7727 254.175 103.318C256.15 107.479 255.934 111.846 254.347 116.098C253.196 119.175 251.78 122.178 250.461 125.272C247.209 122.597 245.089 116.556 245.358 111.236C245.637 105.947 247.878 101.286 250.475 96.4283C249.173 96.3092 248.186 96.1449 247.19 96.122C241.076 95.9759 241.748 96.1329 240.332 100.488C239.102 104.266 236.366 106.531 232.424 106.739C225.664 107.086 221.425 110.611 218.709 116.546C217.517 119.15 216.065 121.643 214.689 124.27C217.249 125.77 219.386 124.939 221.512 124.353C226.123 123.107 227.359 123.628 229.427 127.812C229.948 128.883 230.447 129.996 230.693 131.134C231.537 135.001 232.286 138.898 232.987 142.809C233.123 143.53 232.864 144.321 232.803 145.138C229.154 144.891 230.394 140.469 227.262 139.422C227.048 140.753 226.736 141.994 226.687 143.241C226.428 148.765 224.275 153.486 220.74 157.662C219.29 159.374 217.85 161.118 216.539 162.944C214.433 165.847 214.453 168.841 216.413 171.827C216.773 172.375 217.196 172.904 217.524 173.462C219.697 177.197 219.221 178.974 215.159 181.664C213.284 180.698 213.32 178.676 212.735 177C211.093 172.234 203.853 170.232 199.924 173.523C199.453 173.911 199.249 174.598 198.91 175.188C200.526 177.621 203.232 176.215 205.339 177.37C204.089 181.813 205.997 185.474 208.6 188.973C210.691 191.763 211.486 194.796 210.587 198.298C209.828 201.237 209.37 204.257 208.824 207.269C208.222 210.611 206.454 213.201 203.569 214.87C201.125 216.282 199.785 218.012 200.23 220.979C200.329 221.695 199.581 222.532 198.837 224.114C197.865 222.592 197.331 221.647 196.701 220.783C195.71 219.423 194.567 219.428 193.453 220.708C191.762 222.651 191.934 225.407 194.386 226.386C199.981 228.617 200.929 233.667 202.36 238.428C203.115 240.936 200.457 245.483 197.985 246.07C197.242 246.247 196.246 245.774 195.506 245.342C194.26 244.616 193.194 243.522 191.909 242.895C189.954 241.954 188.31 243.205 188.854 245.31C189.24 246.786 190.06 248.268 191.05 249.455C192.999 251.785 195.156 253.948 197.313 256.11C202.418 261.197 207.454 266.289 208.096 273.894C215.69 274.452 222.86 274.984 230.009 275.505C230.415 276.993 229.8 277.755 228.535 277.815C222.992 278.117 217.441 278.335 211.888 278.606C209.579 278.71 208.754 276.987 207.845 275.22C203.865 275.527 200.745 273.279 197.724 271.296C193.98 268.825 190.562 265.837 187.171 262.875C186.292 262.105 185.601 260.705 185.502 259.539C185.314 257.239 186.789 256.455 188.775 257.612C190.213 258.452 191.466 259.818 193.78 258.828C193.183 258.128 192.772 257.526 192.248 257.063C188.366 253.749 186.148 249.473 184.817 244.645C184.436 243.237 184.086 241.818 183.625 240.434C182.752 237.824 180.948 236.021 178.239 235.728C175.875 235.485 174.389 234.208 172.916 232.633C171.565 231.176 170.194 229.708 168.693 228.436C166.893 226.927 165.478 226.894 164.339 228.771C161.669 233.166 158.925 237.601 156.981 242.326C155.17 246.751 156.64 251.189 159.101 255.183C159.935 256.539 161.035 257.743 161.715 259.164C162.35 260.495 162.593 262.015 163.204 264.168C161.369 263.728 160.36 263.605 159.435 263.248C155.007 261.542 151.172 258.942 148.458 255.026C145.9 251.34 143.376 247.591 141.196 243.667C136.283 234.861 128.096 231.365 118.368 234.239C116.399 234.828 114.49 235.555 111.837 236.458C113.591 237.479 114.611 238.032 115.582 238.652C118.372 240.446 119.147 242.739 117.855 245.808C117.245 247.262 116.482 248.728 115.5 249.932C110.938 255.447 106.299 260.881 101.645 266.32C101.149 266.906 100.432 267.283 99.5832 267.961C98.7739 267.135 97.95 266.487 97.3869 265.672C93.4559 259.945 88.5552 255.125 83.3974 250.539C81.6095 248.957 79.7838 247.421 78.0763 245.762C72.9221 240.794 69.788 234.839 69.4367 227.56C69.4146 226.925 69.2402 226.303 69.1304 225.608C61.8968 229.205 52.113 222.212 50.4144 216.527C49.9083 214.827 50.3857 213.674 52.0257 213.031C55.6018 211.635 59.1242 210.064 62.7831 208.938C64.6047 208.377 66.686 208.603 68.6478 208.554C69.424 208.54 70.3355 209.022 70.9703 208.775C71.9707 208.363 73.15 207.688 73.6214 206.797C74.3071 205.476 73.1104 204.63 72.0172 204.065C68.4587 202.196 64.6813 202.093 60.7919 202.527C58.5791 202.775 56.2859 202.874 54.0791 202.635C52.7509 202.489 51.2726 201.8 50.2976 200.886C48.9277 199.591 47.6495 199.551 45.9643 199.879C41.3451 200.816 39.7011 199.588 39.0128 194.875C38.6687 192.518 38.5244 190.135 38.1802 187.779C37.542 183.397 36.7973 182.724 32.4093 182.272C31.5149 182.183 30.601 182.257 29.6993 182.257C29.5981 181.872 29.442 181.365 29.2859 180.858ZM91.9555 207.654C92.8197 203.365 92.3077 202.603 87.8329 200.912C89.197 203.145 90.4049 205.097 91.9555 207.654Z" fill="#034638"/>
<path opacity="0.2" d="M225.108 256.378C227.933 255.473 229.965 252.16 233.726 253.898C232.571 256.23 232.822 258.564 233.578 261.019C235.012 265.676 233.847 267.075 228.404 267.364C227.467 264.322 226.507 261.202 225.482 257.876C223.005 258.898 223.12 260.736 223.209 262.547C223.451 267.554 223.033 267.942 218.044 267.398C215.623 267.137 213.379 266.441 211.601 264.665C209.167 262.223 209.142 260.115 211.115 257.34C212.469 255.432 213.504 253.275 214.554 251.165C215.147 249.994 215.451 248.669 216.007 247.492C216.806 245.807 218.322 245.323 220.001 245.707C221.529 246.052 221.897 247.361 221.927 248.808C221.955 249.857 222.057 250.919 222.137 251.969C222.317 253.96 223.37 255.352 225.108 256.378Z" fill="#034638"/>
<path opacity="0.2" d="M244.482 143.813C243.406 145.445 242.377 147.114 241.26 148.724C237.578 154.055 235.838 159.949 236.534 166.377C236.992 170.623 235.559 173.631 232.391 176.462C230.094 178.522 228.528 181.432 226.789 184.066C226.023 185.238 225.634 186.676 225.045 188.089C221.154 184.969 220.434 181.843 222.721 178.174C223.973 176.158 225.546 174.339 227.056 172.486C231.004 167.681 232.782 162.416 230.843 156.233C230.541 155.251 230.514 154.149 230.502 153.095C230.469 151.076 231.604 149.409 233.502 149.605C238.105 150.078 240.453 147.117 242.979 144.224C243.237 143.936 243.557 143.682 243.841 143.421C244.042 143.567 244.254 143.692 244.482 143.813Z" fill="#034638"/>
<path opacity="0.2" d="M73.1575 113.156C71.174 113.923 69.679 114.869 68.0974 115.026C64.4139 115.397 62.4455 113.003 63.0954 109.37C63.5165 107.02 64.0156 104.699 64.4001 102.343C65.9516 92.796 71.8919 86.8568 80.3927 83.0946C81.2455 82.7106 82.3617 82.9565 83.1964 82.9076C84.229 84.9654 83.7784 86.3181 82.3676 87.4809C80.6413 88.9142 78.9454 90.3902 77.2544 91.8821C74.439 94.3965 72.3511 97.4152 71.1151 101.004C69.6769 105.175 69.0113 109.265 73.1575 113.156Z" fill="#034638"/>
<path opacity="0.2" d="M233.368 244.851C231.161 243.259 228.803 241.853 226.774 240.05C222.479 236.239 219.113 231.674 217.115 226.254C216.488 224.557 216.191 222.689 215.981 220.881C215.816 219.388 216.604 218.4 218.489 218.27C219.212 219.886 219.656 221.778 220.742 223.109C222.389 225.133 224.37 226.951 226.447 228.514C231.724 232.473 233.876 237.828 234.139 244.146C233.903 244.392 233.641 244.611 233.368 244.851Z" fill="#034638"/>
<path opacity="0.2" d="M246.772 253.297C251.204 252.313 255.308 251.449 259.387 250.505C261.279 250.061 262.593 250.835 263.216 252.464C264.404 255.532 265.49 258.666 266.382 261.843C266.943 263.89 266.169 265.151 264.497 265.579C262.746 266.031 261.2 265.571 260.59 263.817C259.03 259.424 255.856 258.355 251.537 258.575C247.763 258.766 246.569 257.14 246.772 253.297Z" fill="#034638"/>
<path opacity="0.2" d="M194.038 52.3655C197.051 49.9291 200.464 49.9186 203.659 49.3683C205.091 49.1182 206.34 50.1902 206.422 51.639C206.472 52.6467 206.008 54.1249 205.257 54.6685C203.567 55.8826 201.591 56.7859 199.639 57.543C197.036 58.5525 195.385 57.639 194.493 54.9134C194.248 54.1738 194.209 53.3708 194.038 52.3655Z" fill="#034638"/>
<path opacity="0.2" d="M250.811 263.204C251.89 265.525 251.214 267.103 249.918 268.3C247.031 270.975 243.995 273.505 240.995 276.042C240.637 276.343 240.05 276.35 239.321 276.574C239.168 275.963 238.801 275.278 238.979 275.067C242.508 270.928 245.429 266.11 250.811 263.204Z" fill="#034638"/>
<path opacity="0.2" d="M72.7271 67.4372C70.2503 69.5872 67.804 71.7799 65.276 73.8763C61.6845 76.8551 60.4769 76.7067 56.7461 72.7571C59.5973 71.8791 62.3071 71.2181 64.8889 70.1976C67.444 69.2028 69.86 67.8692 72.3358 66.6733C72.4821 66.923 72.5966 67.1826 72.7271 67.4372Z" fill="#034638"/>
<path opacity="0.2" d="M275.008 252.631C275.836 251.492 277.013 250.47 277.372 249.215C277.708 248.054 277.164 246.626 277.012 245.286C279.528 244.615 281.112 245.029 281.778 246.627C282.438 248.21 281.331 251.43 279.478 252.451C278.321 253.085 276.892 253.23 275.583 253.599C275.396 253.275 275.194 252.955 275.008 252.631Z" fill="#034638"/>
<path opacity="0.2" d="M42.0582 78.1644C44.0051 76.9406 45.6474 75.7412 47.4348 74.844C49.1052 74.0174 50.8112 74.602 51.0857 75.8874C51.4541 77.6469 50.3905 78.5294 48.8943 79.0768C47.1812 79.7084 45.8164 79.5563 42.0582 78.1644Z" fill="#034638"/>
<path opacity="0.2" d="M309.098 97.2442C310.055 93.0303 311.181 91.5045 314.907 89.074C315.302 93.0621 313.881 95.1473 309.098 97.2442Z" fill="#034638"/>
<path opacity="0.2" d="M214.334 212.266C212.598 210.685 211.488 209.275 212.259 207.443C212.58 206.685 213.691 205.788 214.452 205.779C215.836 205.769 216.506 206.932 216.077 208.296C215.692 209.524 215.041 210.678 214.334 212.266Z" fill="#034638"/>
</svg>
