<svg width="275" height="693" viewBox="0 0 275 693" fill="none" xmlns="http://www.w3.org/2000/svg">
<g clip-path="url(#clip0_245_2)" filter="url(#filter0_d_245_2)">
<path d="M4 241.438C4 241.438 20.394 201.198 96.4024 169.901C96.4024 169.901 102.364 168.411 81.4988 165.43C60.6337 162.449 54.6723 153.507 54.6723 153.507C54.6723 153.507 50.2012 137.113 90.441 135.623C90.441 135.623 105.345 134.132 115.777 132.642L114.615 113.968C114.41 110.617 115.148 107.277 116.746 104.325C127.178 84.9503 167.746 9.13558 166.449 -0.000332003C166.449 -0.000332003 178.372 -1.49069 173.901 23.8455C169.43 49.1816 160.488 99.8539 144.094 129.661C144.094 129.661 227.554 132.642 242.458 146.055C242.458 146.055 253.636 153.507 236.496 160.959C236.496 160.959 214.141 168.411 202.218 166.92C202.218 166.92 269.284 226.535 270.775 232.496C270.775 232.496 258.852 235.477 252.89 232.496C246.929 229.515 179.863 196.727 154.527 171.391H136.642C136.642 171.391 134.138 190.557 120.248 196.727C106.835 202.689 15.9229 242.929 4 241.438Z" fill="#CFD0EA"/>
<path d="M89.3383 135.623C89.3383 135.623 93.7051 162.703 87.222 166.28C87.222 166.28 59.8888 165.385 54.6725 153.463C49.4563 141.54 78.5183 135.727 89.3383 135.623Z" fill="#619E52"/>
<path d="M91.1861 157.978L140.368 160.959L154.526 171.392H136.642C130.151 180.724 121.091 187.972 110.561 192.257C110.561 192.257 20.3939 232.213 10.334 230.872C10.334 230.872 40.5138 190.781 96.4024 169.916C96.4024 169.916 96.6855 167.233 87.2217 166.339C87.2217 166.339 88.2054 165.43 91.1861 157.978Z" fill="#B6BCE1"/>
<path d="M115.211 123.521L143.349 68.5566C143.349 68.5566 182.098 4.47102 166.45 -6.10352e-05C166.45 -6.10352e-05 125.584 93.4754 115.092 108.588L115.211 123.521Z" fill="#B6BCE1"/>
<path d="M152.291 141.584C152.291 141.584 177.627 138.603 186.569 152.017C186.569 152.017 189.55 160.959 207.434 156.488C207.434 156.488 241.713 147.546 242.458 146.055C242.458 146.055 251.475 152.27 240.625 158.857C229.775 165.445 202.963 166.92 202.218 166.92C201.473 166.92 271.52 228.025 270.775 232.496C270.775 232.496 258.107 236.967 252.145 229.515C246.184 222.064 176.137 156.488 176.137 156.488C176.137 156.488 171.666 146.055 152.291 141.584Z" fill="#B7BDE2"/>
<path d="M177.225 189.514L170.175 645.326V684.985H203.455L194.289 200.513C194.289 200.513 178.626 189.931 177.374 189.604" fill="#CFD0EA"/>
<path d="M185.392 194.939L192.292 685H203.455L194.289 200.528L185.392 194.939Z" fill="#B7C5E3"/>
<path d="M58.1451 149.036C63.868 150.705 80.0832 153.79 87.1177 155.102C87.6827 155.208 88.2193 155.431 88.6928 155.757C89.1663 156.083 89.5662 156.505 89.8668 156.995C90.1673 157.485 90.3617 158.032 90.4376 158.602C90.5134 159.172 90.4689 159.752 90.307 160.303C89.8538 161.766 89.2232 163.167 88.4292 164.476C88.0742 165.066 87.5774 165.558 86.9839 165.906C86.3904 166.255 85.7192 166.45 85.0312 166.473C72.0799 166.98 59.1734 158.768 59.1734 158.768C59.1734 158.768 51.7216 154.297 54.7023 148.336L55.522 146.771C55.7697 147.315 56.1325 147.8 56.5853 148.191C57.0381 148.582 57.5702 148.87 58.1451 149.036Z" fill="#4A833B"/>
</g>
<defs>
<filter id="filter0_d_245_2" x="0" y="0" width="274.775" height="693" filterUnits="userSpaceOnUse" color-interpolation-filters="sRGB">
<feFlood flood-opacity="0" result="BackgroundImageFix"/>
<feColorMatrix in="SourceAlpha" type="matrix" values="0 0 0 0 0 0 0 0 0 0 0 0 0 0 0 0 0 0 127 0" result="hardAlpha"/>
<feOffset dy="4"/>
<feGaussianBlur stdDeviation="2"/>
<feComposite in2="hardAlpha" operator="out"/>
<feColorMatrix type="matrix" values="0 0 0 0 0 0 0 0 0 0 0 0 0 0 0 0 0 0 0.25 0"/>
<feBlend mode="normal" in2="BackgroundImageFix" result="effect1_dropShadow_245_2"/>
<feBlend mode="normal" in="SourceGraphic" in2="effect1_dropShadow_245_2" result="shape"/>
</filter>
<clipPath id="clip0_245_2">
<rect width="266.775" height="685" fill="white" transform="translate(4)"/>
</clipPath>
</defs>
</svg>
