<svg width="522" height="1341" viewBox="0 0 522 1341" fill="none" xmlns="http://www.w3.org/2000/svg">
<g clip-path="url(#clip0_235_487)">
<path d="M0 472.424C0 472.424 32.0782 393.687 180.804 332.447C180.804 332.447 192.469 329.53 151.642 323.698C110.816 317.866 99.1508 300.368 99.1508 300.368C99.1508 300.368 90.4022 268.29 169.14 265.374C169.14 265.374 198.302 262.458 218.715 259.542L216.44 223.002C216.04 216.446 217.485 209.91 220.611 204.134C241.024 166.223 320.403 17.8761 317.866 -0.000243463C317.866 -0.000243463 341.196 -2.91645 332.447 46.659C323.698 96.2344 306.201 195.385 274.123 253.709C274.123 253.709 437.43 259.542 466.592 285.787C466.592 285.787 488.464 300.368 454.927 314.949C454.927 314.949 411.184 329.53 387.855 326.614C387.855 326.614 519.084 443.262 522 454.927C522 454.927 498.67 460.76 487.006 454.927C475.341 449.095 344.112 384.938 294.536 335.363H259.542C259.542 335.363 254.643 372.865 227.464 384.938C201.218 396.603 23.3296 475.341 0 472.424Z" fill="#CFD0EA"/>
<path d="M166.982 265.374C166.982 265.374 175.526 318.362 162.841 325.361C162.841 325.361 109.358 323.611 99.1512 300.281C88.9445 276.952 145.81 265.578 166.982 265.374Z" fill="#619E52"/>
<path d="M170.598 309.117L266.833 314.95L294.536 335.363H259.542C246.84 353.624 229.112 367.806 208.509 376.19C208.509 376.19 32.0784 454.373 12.394 451.749C12.394 451.749 71.4471 373.303 180.805 332.476C180.805 332.476 181.359 327.227 162.841 325.477C162.841 325.477 164.766 323.698 170.598 309.117Z" fill="#B6BCE1"/>
<path d="M217.607 241.695L272.665 134.145C272.665 134.145 348.486 8.7485 317.866 -0.000106573C317.866 -0.000106573 237.904 182.904 217.374 212.474L217.607 241.695Z" fill="#B6BCE1"/>
<path d="M290.162 277.039C290.162 277.039 339.737 271.206 357.234 297.452C357.234 297.452 363.067 314.949 398.061 306.201C398.061 306.201 465.134 288.704 466.592 285.787C466.592 285.787 484.235 297.948 463.005 310.837C441.775 323.727 389.312 326.614 387.854 326.614C386.396 326.614 523.458 446.178 522 454.927C522 454.927 497.212 463.676 485.547 449.095C473.882 434.514 336.821 306.201 336.821 306.201C336.821 306.201 328.072 285.787 290.162 277.039Z" fill="#B7BDE2"/>
<path d="M338.95 370.824L325.156 1262.71V1340.31H390.275L372.34 392.345C372.34 392.345 341.691 371.64 339.242 370.999" fill="#CFD0EA"/>
<path d="M354.931 381.439L368.433 1340.34H390.275L372.34 392.375L354.931 381.439Z" fill="#B7C5E3"/>
<path d="M105.946 291.62C117.144 294.886 148.873 300.923 162.637 303.489C163.743 303.696 164.793 304.133 165.719 304.771C166.646 305.409 167.428 306.234 168.016 307.193C168.604 308.152 168.985 309.223 169.133 310.338C169.281 311.453 169.194 312.587 168.878 313.667C167.991 316.528 166.757 319.27 165.203 321.832C164.509 322.986 163.536 323.948 162.375 324.63C161.214 325.313 159.9 325.694 158.554 325.74C133.213 326.731 107.958 310.663 107.958 310.663C107.958 310.663 93.3772 301.914 99.2096 290.249L100.814 287.187C101.298 288.253 102.008 289.201 102.894 289.966C103.78 290.731 104.821 291.296 105.946 291.62Z" fill="#4A833B"/>
<path d="M497.5 876C497.5 876 500.838 875.773 502.203 887.605C503.417 888.894 506.754 890.336 505.995 898.527C508.119 899.968 513.504 901.789 510.091 912.256C513.125 916.2 515.401 919.006 508.953 925.15C504.771 927.669 503.341 929.397 499.245 930.838C495.149 932.28 484.72 923.633 483.506 922.495C482.52 921.244 480.131 915.1 484.72 912.256C484.094 908.937 482.103 901.372 489.271 898.243C489.043 895 488.19 891.075 493.025 887.378C493.879 883.964 493.101 881.803 497.5 876Z" fill="#295D29"/>
<path d="M503.409 899.32C504.033 892.69 501.225 890.35 499.82 888.479C500.999 883.035 499.118 878.805 497.338 876.218C493.125 881.856 493.867 884.009 493.025 887.377C488.19 891.075 489.043 895 489.271 898.243C482.103 901.371 484.094 908.937 484.72 912.256C481.116 914.49 481.816 918.758 482.76 921.094C487.721 925.558 492.374 926.66 495.843 926.932C507.231 924.982 506.684 915.778 505.826 911.955C509.258 903.064 504.734 900.335 503.409 899.32Z" fill="#3D732F"/>
<path d="M35.419 954C35.419 954 40.0306 953.686 41.9171 970.036C43.5941 971.818 48.2056 973.809 47.1575 985.128C50.0922 987.12 57.5336 989.635 52.8172 1004.1C57.0095 1009.55 60.1538 1013.43 51.2451 1021.92C45.4653 1025.4 43.4893 1027.79 37.8296 1029.78C32.17 1031.77 17.7588 1019.82 16.0819 1018.25C14.7194 1016.52 11.4179 1008.03 17.7588 1004.1C16.8941 999.513 14.1429 989.059 24.0473 984.735C23.7329 980.255 22.5538 974.831 29.2353 969.722C30.4144 965.005 29.3401 962.018 35.419 954Z" fill="#295D29"/>
<path d="M43.5827 986.225C44.4452 977.063 40.5651 973.829 38.6239 971.244C40.2528 963.721 37.6545 957.876 35.1937 954.302C29.3724 962.092 30.3987 965.066 29.2349 969.722C22.5533 974.831 23.7324 980.255 24.0469 984.735C14.1425 989.059 16.8937 999.513 17.7584 1004.1C12.7778 1007.19 13.7451 1013.08 15.0508 1016.31C21.9048 1022.48 28.3353 1024 33.1281 1024.38C48.8646 1021.68 48.1091 1008.97 46.9235 1003.68C51.666 991.397 45.4147 987.626 43.5827 986.225Z" fill="#3D732F"/>
<path d="M80.3715 924C80.3715 924 83.7088 923.773 85.0741 935.605C86.2876 936.894 89.625 938.336 88.8665 946.527C90.9902 947.968 96.3754 949.789 92.9623 960.256C95.9962 964.2 98.2716 967.006 91.8245 973.15C87.6418 975.669 86.2118 977.397 82.116 978.838C78.0202 980.28 67.5911 971.633 66.3775 970.495C65.3915 969.244 63.0023 963.1 67.5911 960.256C66.9653 956.937 64.9743 949.372 72.142 946.243C71.9144 943 71.0611 939.075 75.8964 935.378C76.7497 931.964 75.9723 929.803 80.3715 924Z" fill="#295D29"/>
<path d="M86.2796 947.32C86.9038 940.69 84.0958 938.35 82.6911 936.479C83.8699 931.035 81.9895 926.805 80.2086 924.218C75.9959 929.856 76.7386 932.009 75.8963 935.377C71.061 939.075 71.9143 943 72.1418 946.243C64.9742 949.371 66.9652 956.937 67.591 960.256C63.9866 962.49 64.6866 966.758 65.6316 969.094C70.5917 973.558 75.2453 974.66 78.7138 974.932C90.102 972.982 89.5553 963.778 88.6973 959.955C92.1294 951.064 87.6054 948.335 86.2796 947.32Z" fill="#3D732F"/>
</g>
<defs>
<clipPath id="clip0_235_487">
<rect width="522" height="1340.34" fill="white"/>
</clipPath>
</defs>
</svg>
