<svg width="349" height="896" viewBox="0 0 349 896" fill="none" xmlns="http://www.w3.org/2000/svg">
<g clip-path="url(#clip0_235_478)">
<path d="M0 315.808C0 315.808 21.4438 263.174 120.865 222.235C120.865 222.235 128.663 220.286 101.371 216.387C74.0786 212.488 66.2808 200.792 66.2808 200.792C66.2808 200.792 60.4325 179.348 113.067 177.398C113.067 177.398 132.562 175.449 146.208 173.5L144.687 149.073C144.419 144.691 145.385 140.321 147.475 136.46C161.121 111.118 214.185 11.9498 212.489 -0.000280701C212.489 -0.000280701 228.084 -1.94972 222.236 31.1907C216.387 64.3311 204.691 130.612 183.247 169.601C183.247 169.601 292.415 173.5 311.91 191.044C311.91 191.044 326.531 200.792 304.112 210.539C304.112 210.539 274.871 220.286 259.275 218.337C259.275 218.337 347 296.314 348.949 304.112C348.949 304.112 333.354 308.011 325.556 304.112C317.758 300.213 230.033 257.325 196.893 224.185H173.5C173.5 224.185 170.225 249.255 152.056 257.325C134.511 265.123 15.5955 317.758 0 315.808Z" fill="#CFD0EA"/>
<path d="M111.625 177.399C111.625 177.399 117.337 212.82 108.857 217.499C108.857 217.499 73.1042 216.329 66.2812 200.733C59.4582 185.138 97.4722 177.535 111.625 177.399Z" fill="#619E52"/>
<path d="M114.042 206.64L178.373 210.539L196.893 224.185H173.5C165.009 236.392 153.158 245.873 139.385 251.477C139.385 251.477 21.4439 303.742 8.28516 301.987C8.28516 301.987 47.7612 249.547 120.865 222.255C120.865 222.255 121.236 218.746 108.857 217.577C108.857 217.577 110.143 216.387 114.042 206.64Z" fill="#B6BCE1"/>
<path d="M145.467 161.569L182.272 89.674C182.272 89.674 232.958 5.84825 212.489 -6.10352e-05C212.489 -6.10352e-05 159.035 122.269 145.311 142.036L145.467 161.569Z" fill="#B6BCE1"/>
<path d="M193.969 185.196C193.969 185.196 227.109 181.297 238.806 198.842C238.806 198.842 242.705 210.539 266.098 204.691C266.098 204.691 310.935 192.994 311.91 191.045C311.91 191.045 323.704 199.174 309.512 207.79C295.32 216.407 260.25 218.337 259.275 218.337C258.3 218.337 349.924 298.264 348.949 304.112C348.949 304.112 332.379 309.96 324.581 300.213C316.783 290.466 225.16 204.691 225.16 204.691C225.16 204.691 219.311 191.045 193.969 185.196Z" fill="#B7BDE2"/>
<path d="M226.583 247.89L217.362 844.106V895.98H260.893L248.904 262.277C248.904 262.277 228.416 248.436 226.778 248.007" fill="#CFD0EA"/>
<path d="M237.266 254.986L246.292 896H260.893L248.904 262.297L237.266 254.986Z" fill="#B7C5E3"/>
<path d="M70.8232 194.944C78.309 197.127 99.5189 201.162 108.72 202.878C109.459 203.016 110.161 203.308 110.781 203.735C111.4 204.161 111.923 204.713 112.316 205.354C112.709 205.995 112.964 206.711 113.063 207.456C113.162 208.202 113.104 208.96 112.892 209.681C112.299 211.594 111.474 213.427 110.436 215.14C109.971 215.911 109.322 216.554 108.545 217.011C107.769 217.467 106.891 217.722 105.991 217.752C89.0504 218.415 72.1683 207.673 72.1683 207.673C72.1683 207.673 62.4211 201.825 66.32 194.027L67.3922 191.98C67.7162 192.693 68.1907 193.327 68.783 193.838C69.3752 194.35 70.0713 194.727 70.8232 194.944Z" fill="#4A833B"/>
</g>
<defs>
<clipPath id="clip0_235_478">
<rect width="348.949" height="896" fill="white"/>
</clipPath>
</defs>
</svg>
