<svg width="145" height="145" viewBox="0 0 145 145" fill="none" xmlns="http://www.w3.org/2000/svg">
<path d="M68.2801 6.20436C42.8768 6.16188 19.2888 6.90387 19.5861 8.54645L25.8393 18.7814C42.6502 17.3371 58.6795 16.8131 74.7371 16.9208C89.8035 17.0199 104.898 17.6769 120.644 18.6455L129.48 9.22047C128.206 7.31168 97.0818 6.2525 68.2801 6.20436V6.20436ZM69.3562 22.0099C55.451 22.0439 41.5174 22.5735 26.9636 23.7998C20.7926 58.8207 17.3743 101.556 25.406 127.922L17.9209 136.701C54.2049 139.42 91.1346 140.298 126.28 138.486L117.812 128.404C123.278 98.3275 121.579 57.263 117.869 23.5845C103.369 22.7179 89.4637 22.1402 75.5867 22.0297L113.593 56.9232H93.4002C94.4764 63.4652 99.1775 72.3011 104.134 80.4857C106.937 85.1302 109.798 89.6331 111.978 93.598C114.159 97.5628 115.83 100.876 115.83 104.218C115.83 112.148 110.477 118.661 102.604 122.881C94.7312 127.129 84.1678 129.423 72.4998 129.423C60.8318 129.423 50.2684 127.129 42.3953 122.881C34.5223 118.661 29.1697 112.148 29.1697 104.218C29.1697 100.82 30.9256 97.5062 33.2195 93.4847C35.5135 89.4632 38.4871 84.932 41.3758 80.2308C46.4734 71.9896 51.118 63.097 51.7693 56.9232H29.4529L69.3562 22.0099ZM72.4715 26.0795L43.0467 51.8255H56.7254L56.9236 54.1478C57.6883 63.182 51.5711 73.4056 45.7088 82.9212C42.7635 87.679 39.8182 92.182 37.6658 96.0052C35.4852 99.8001 34.2674 103.085 34.2674 104.218C34.2674 108.353 36.2498 112.006 39.9598 115.15C55.3094 113.224 63.1824 112.148 70.0926 111.921C70.2625 109.514 70.574 107.107 70.9705 104.785C60.6053 105.436 51.0613 102.66 41.659 99.3187C45.8787 91.1624 53.6385 85.4701 60.6336 85.4984C61.9363 85.4984 63.2107 85.6683 64.4285 86.0931C67.6004 87.1126 70.4607 92.805 72.3582 97.5912C72.9813 94.6175 73.576 92.0687 73.8309 90.1996V90.1712C74.0857 88.4154 73.3777 83.3744 72.4715 79.2113C71.8201 76.2093 71.1404 73.5755 70.8006 72.3294C69.0164 72.3294 67.4305 71.9896 66.3826 70.9134C59.1893 63.4369 63.8621 49.6166 70.0359 41.9134C74.4256 49.2201 80.1463 57.0931 85.8953 62.5306C84.6492 66.722 82.3836 70.0921 77.9939 71.5931C77.3992 71.6498 76.6629 71.7347 75.9266 71.848C76.323 73.3207 76.8895 75.5296 77.4559 78.1068C77.824 79.721 78.1639 81.3919 78.4471 83.0628C79.948 81.6751 81.6756 80.4007 83.0916 80.3441H83.4031C91.3328 81.0804 100.31 88.7269 102.576 99.8851C94.7879 96.3167 85.867 98.3841 78.8152 91.3324C78.0223 96.5999 75.8133 104.53 75.2186 111.95C82.0438 112.176 89.9168 113.252 105.04 115.15C108.75 112.006 110.732 108.353 110.732 104.218C110.732 103.029 109.571 99.8001 107.504 96.0619C105.436 92.2953 102.633 87.849 99.7723 83.1195C94.0799 73.7171 88.076 63.4935 88.076 54.3744V51.8255H100.509L72.4715 26.0795ZM72.4998 116.934C66.1844 116.934 59.5008 117.784 46.8133 119.398C53.5252 122.485 62.5311 124.326 72.4998 124.326C82.4686 124.326 91.4744 122.485 98.1863 119.398C85.4988 117.784 78.8152 116.934 72.4998 116.934V116.934Z" fill="#034638"/>
</svg>
