<svg width="145" height="145" viewBox="0 0 145 145" fill="none" xmlns="http://www.w3.org/2000/svg">
<path d="M105.503 6.2207L102.718 11.1932L109.763 21.5641L107.36 34.1533L117.024 48.3797L122.412 44.7199L121.591 62.2592L121.619 62.2601L118.994 111.411C118.631 116.273 116.525 117.616 114.994 117.621C113.467 117.627 111.149 116.19 110.477 111.291L105.949 47.9057L105.94 47.8394C105.467 44.032 103.955 40.8259 101.095 38.9488C98.6474 37.3422 95.6012 36.7248 91.7995 36.5798V34.5606C91.7995 28.0424 90.7007 24.2641 88.5988 22.1438C86.4974 20.0235 82.7866 18.9198 76.2488 18.9844H39.9736C33.46 18.9844 29.7268 20.0917 27.6158 22.2024C25.5045 24.3137 24.3975 28.0469 24.3975 34.5606V125.186H17.3174V138.779H98.8799V125.186H91.7998V41.6896C94.9796 41.8511 97.0753 42.4084 98.2976 43.2104C99.7527 44.166 100.505 45.4891 100.876 48.4401L105.406 111.853L105.417 111.932C106.299 118.481 110.345 122.736 115.013 122.719C119.68 122.702 123.595 118.305 124.078 111.78L124.08 111.754L126.745 61.8854L126.713 61.8837L127.683 41.1391L127.306 38.3144L105.503 6.2207H105.503ZM113.815 27.5278L121.657 39.07L118.376 41.2988L112.763 33.0349L113.815 27.5278ZM30.9111 30.029H85.2861V52.6853H30.9111V30.029ZM35.4424 59.1989H80.7549V64.2966H35.4424V59.1989ZM35.4424 68.2614H80.7549V73.3591H35.4424V68.2614Z" fill="#034638"/>
</svg>
