<svg width="339" height="312" viewBox="0 0 339 312" fill="none" xmlns="http://www.w3.org/2000/svg">
<path d="M61.9142 182.567L61.9138 182.568C61.6715 183.453 61.6636 184.051 61.8008 184.542C61.9392 185.036 62.26 185.547 62.9126 186.193L62.9134 186.193C94.0241 217.046 125.096 247.934 156.113 278.883C156.77 279.538 157.289 279.836 157.784 279.958C158.286 280.081 158.888 280.052 159.774 279.817C202.021 268.569 244.281 257.382 286.549 246.227L286.549 246.227C287.372 246.01 287.886 245.746 288.246 245.405C288.599 245.071 288.889 244.58 289.109 243.749L289.11 243.748C299.331 205.363 309.617 166.996 319.946 128.641C320.156 127.86 320.156 127.332 320.035 126.903C319.912 126.469 319.631 126.016 319.057 125.445C287.951 94.5946 256.89 63.7093 225.858 32.7797L225.857 32.7788C225.246 32.1686 224.768 31.8597 224.304 31.7212C223.849 31.5853 223.29 31.5787 222.455 31.7994C180.118 43.0811 137.769 54.3016 95.3969 65.458L95.3968 65.4581C94.4482 65.7077 93.8769 66.0018 93.4818 66.3836C93.0913 66.7609 92.779 67.3151 92.5289 68.2677C88.6262 83.1358 84.6411 97.9824 80.6569 112.826C79.5411 116.983 78.4253 121.14 77.3114 125.297C76.1743 129.541 75.0388 133.785 73.9031 138.03C69.9296 152.881 65.9556 167.735 61.9142 182.567ZM290.07 244.003L290.076 244.005L290.07 244.003Z" stroke="#034638" stroke-opacity="0.2" stroke-width="2"/>
<path d="M1.00565 231.007L1.00564 231.008C1.00343 231.411 1.06903 231.599 1.13601 231.711C1.20544 231.828 1.34546 231.979 1.70586 232.183L1.70679 232.184C20.7809 243.016 39.8412 253.872 58.8822 264.763C59.2387 264.966 59.4395 265.003 59.5752 265C59.7184 264.997 59.9229 264.947 60.2853 264.741C79.2899 253.883 98.3083 243.053 117.335 232.237L117.335 232.237C117.667 232.048 117.803 231.906 117.872 231.795C117.936 231.692 118.001 231.519 118 231.153L118 231.152C117.969 211.367 117.972 191.582 117.997 171.797C117.997 171.451 117.939 171.297 117.886 171.209C117.831 171.118 117.716 170.989 117.405 170.812C98.3334 159.979 79.2786 149.124 60.2323 138.244L60.2311 138.243C59.892 138.049 59.7026 138.004 59.5743 138C59.4554 137.997 59.2744 138.026 58.9489 138.211C39.9055 149.096 20.848 159.954 1.77092 170.784L1.77081 170.784C1.3799 171.006 1.22358 171.169 1.14439 171.3C1.06895 171.425 0.997818 171.629 1.00006 172.066C1.03937 179.724 1.03603 187.383 1.03268 195.038C1.03175 197.181 1.03081 199.324 1.03081 201.467C1.03081 203.655 1.03164 205.842 1.03246 208.03C1.03536 215.688 1.03826 223.349 1.00565 231.007Z" stroke="#034638" stroke-opacity="0.2" stroke-width="2"/>
</svg>
