<svg width="142" height="161" viewBox="0 0 142 161" fill="none" xmlns="http://www.w3.org/2000/svg">
<path d="M135.113 97.1039C134.019 96.42 132.777 95.857 130.803 95.1468C126.015 93.4413 122.577 92.6447 119.6 92.5468C116.889 92.4532 111.611 92.816 110.269 93.1897C108.782 93.6032 103.829 95.9986 102.343 97.0249C101.648 97.5093 101.443 97.8335 101.678 98.0725C102.066 98.4328 103.383 98.4436 116.231 98.1835C122.253 98.0707 123.847 98.0844 124.076 98.2663C124.241 98.3977 124.083 98.4274 122.949 98.4997C120.282 98.6901 111.015 99.5915 107.382 100.008C102.372 100.595 102.372 100.595 105.367 101.454C107.884 102.171 110.962 102.847 112.279 102.962C114.692 103.171 119.168 102.958 124.387 102.382C127.919 101.988 128.054 101.961 128.857 101.615C130.734 100.775 134.975 98.3109 135.532 97.7381L135.748 97.5052L135.113 97.1039Z" fill="#7E9D93"/>
<path d="M125.122 130.41C124.554 127.573 123.674 125.129 122.51 123.135C121.475 121.357 119.823 119.327 118.602 118.345C117.966 117.828 115.495 116.204 114.609 115.727C113.354 115.05 111.402 114.627 111.013 114.96C110.812 115.122 110.911 115.377 114.354 122.857C119.48 134.041 119.667 134.459 120.16 135.94C120.658 137.467 120.631 137.436 118.369 133.613C117.064 131.392 116.38 130.153 112.853 123.549C109.25 116.793 109.18 116.686 108.554 116.757C108.166 116.802 108.159 116.837 108.238 118.933C108.455 124.748 108.807 127.518 109.626 129.621C110.318 131.426 112.425 135.313 113.61 136.992C114.932 138.853 118.468 142.518 120.698 144.355C121.806 145.257 124.57 146.917 125.829 147.432L126.629 147.768L126.595 146.87C126.447 142.458 125.569 132.695 125.122 130.41Z" fill="#7E9D93"/>
<path d="M116.76 75.3412C115.873 74.7491 113.802 73.7957 112.033 73.166C108.532 71.9142 104.678 71.4196 99.8643 71.602C94.6817 71.7919 88.9885 73.5669 83.6423 76.6551C81.1322 78.1111 79.4426 79.2763 79.921 79.2214C80.0235 79.2097 81.1335 79.1285 82.3829 79.0546C83.6309 78.9692 87.4902 78.7114 90.9482 78.4765C98.8035 77.9452 105.622 77.5328 106.534 77.5323L107.228 77.5452L106.332 77.7867C105.84 77.9241 104.724 78.1562 103.855 78.3253C102.262 78.6237 101.425 78.7661 93.2144 80.1245C85.5582 81.3846 81.0999 82.2547 80.7301 82.5515C80.518 82.7146 81.202 83.145 82.1744 83.4728C83.3039 83.8636 86.9342 84.6266 88.8799 84.889C91.6832 85.2843 95.0925 85.2285 99.4447 84.7406C102.487 84.4031 103.308 84.2164 105.787 83.2959C107.513 82.6469 108.884 82.0269 110.457 81.1526C112.106 80.2349 114.405 78.7454 115.288 77.9964C116.108 77.301 117.377 75.9874 117.361 75.8504C117.355 75.7934 117.087 75.5697 116.76 75.3412Z" fill="#7E9D93"/>
<path d="M107.5 110.09C107.397 109.893 107.071 109.468 106.779 109.132C106.486 108.795 105.514 107.565 104.596 106.399C101.188 102.048 100.558 101.381 96.098 97.5097C94.726 96.3141 93.2473 94.992 92.8317 94.5887C91.2711 93.0563 91.0819 92.9161 90.0155 92.4718C88.7664 91.9445 86.2031 90.423 82.9308 88.2544C80.4951 86.6374 77.7899 85.086 74.739 83.5396C71.933 82.1154 71.1982 81.6446 66.7025 78.3675C65.1789 77.2587 63.3432 75.9429 62.6184 75.4594C61.1802 74.4912 59.2329 72.8065 56.9568 70.5699C56.1397 69.7848 54.9338 68.628 54.273 67.9984C52.747 66.5661 51.0744 64.5608 48.8841 61.5627C45.8689 57.4102 45.4359 56.7545 42.5196 51.654C39.936 47.1398 38.3032 43.2682 36.2706 36.8174C34.3814 30.8128 33.6026 27.4445 32.2229 19.242C31.6036 15.5547 31.1257 13.4008 30.6692 12.239C30.2268 11.0987 30.0972 10.9748 29.2667 10.9776C28.2854 10.9745 27.8316 11.1422 27.7026 11.5271C27.1496 13.2442 29.2278 25.3214 31.5273 33.6959C32.5622 37.4858 34.1698 42.0426 36.162 46.8328C38.0315 51.3595 41.3002 56.9168 45.3031 62.4361C47.1932 65.0293 47.6371 65.5797 49.2134 67.2491C49.8847 67.97 50.9579 69.1767 51.5976 69.9243C53.1199 71.7271 53.8468 72.43 56.7496 74.9995C58.0861 76.1876 59.6931 77.6222 60.3132 78.1986C60.9332 78.7751 61.788 79.4865 62.2146 79.7844C65.8349 82.2716 68.3658 83.9124 69.9454 84.8066C70.6724 85.2089 72.1255 86.106 73.1752 86.8066C74.2237 87.4958 75.8861 88.5077 76.8719 89.0537C77.8577 89.5998 79.105 90.3124 79.6507 90.6429C80.1964 90.9735 81.3066 91.5978 82.1185 92.0365C85.5503 93.8862 88.0444 95.5081 92.2852 98.6757C95.7198 101.254 96.191 101.639 97.9043 103.397C100.493 106.048 101.887 107.831 103.653 110.751C104.248 111.712 104.782 112.552 104.846 112.603C105.036 112.755 106.66 112.117 107.13 111.693C107.813 111.106 107.889 110.762 107.5 110.09Z" fill="#7E9D93"/>
<path d="M97.4273 51.7718C96.8492 51.5606 95.5554 50.9459 94.5368 50.4152C91.9222 49.05 90.6805 48.487 88.2094 47.5679C85.8702 46.6915 83.9959 46.2474 81.7414 46.0088C77.6655 45.5861 71.3268 46.059 68.4108 46.9949C63.6272 48.5499 60.4206 49.9702 57.4512 51.8489C55.203 53.2749 54.6281 53.8959 55.3179 54.1752C55.7769 54.3539 59.7421 54.3152 67.3756 54.0637C77.5257 53.7201 78.7448 53.6843 86.0685 53.5493C86.8636 53.539 87.5802 53.5493 87.6639 53.5744C87.7489 53.6109 82.5328 54.3135 76.0713 55.1243C53.3461 58.0095 53.5625 57.9847 53.7175 58.1288C54.0809 58.4802 59.9599 60.9395 62.0933 61.6314C62.9452 61.9153 64.2671 62.2724 65.0235 62.4284C67.7681 63.0155 73.3956 63.2833 76.837 63.0041C78.9861 62.8269 79.8325 62.6604 83.0271 61.7387C87.4724 60.4539 89.5592 59.5321 93.8452 56.9588C97.569 54.716 97.8604 54.4397 98.3122 52.7457L98.4645 52.1616L97.4273 51.7718Z" fill="#7E9D93"/>
<path d="M98.6407 109.916C98.3061 108.508 97.4795 106.233 97.3087 106.252C97.2062 106.264 96.3343 109.024 95.8403 110.954C95.6407 111.728 95.0246 114.505 94.4598 117.126C93.4237 121.974 93.1297 123.234 92.408 125.895L92.0023 127.387L91.8962 126.463C91.7534 125.219 91.8322 124.296 92.4696 119.794C93.2805 113.988 94.1041 106.886 93.9772 106.785C93.8108 106.642 93.0803 107.316 92.3484 108.278C90.654 110.508 89.374 112.829 88.4053 115.45C87.042 119.156 86.8037 121.404 87.143 127.378C87.3419 130.721 88.1193 136.691 88.6048 138.509C89.03 140.102 88.9284 140.021 90.021 139.688C90.8911 139.426 91.0904 139.253 91.5652 138.261C91.8467 137.697 92.1263 137.318 92.4444 137.073C93.7725 136.077 95.7798 132.25 97.5024 127.45C98.7074 124.074 99.1687 121.858 99.3675 118.563C99.468 117.025 99.438 116.462 99.1657 113.787C98.9859 112.119 98.7513 110.377 98.6407 109.916Z" fill="#7E9D93"/>
<path d="M88.5545 24.227C88.4577 24.0877 88.1389 23.8236 87.8293 23.6394C87.5197 23.4553 86.4573 22.7446 85.4671 22.0603C81.9926 19.6373 80.659 18.8768 77.4101 17.515C73.3471 15.7956 69.843 14.9256 66.566 14.8275C64.5388 14.7594 61.7414 14.9185 57.737 15.3202L53.4011 15.7483L52.2392 16.1823C48.3037 17.6862 45.8138 18.8161 42.7753 20.4946C41.2554 21.3282 40.6858 21.6942 40.8075 21.7496C40.9052 21.7962 41.8097 21.9353 42.818 22.074C45.5377 22.4442 49.0254 22.6685 62.7509 23.3138C68.7962 23.6031 75.5056 24.0475 75.658 24.1687C75.6961 24.1991 75.3316 24.2409 74.8594 24.2488C74.3872 24.2567 72.3682 24.3612 70.3834 24.4618C68.3985 24.5623 66.0225 24.673 65.1048 24.7205C56.1882 25.1539 39.2604 26.0671 39.2201 26.118C39.1697 26.1816 42.2199 28.2253 43.2171 28.7701C45.4362 30.0072 49.551 31.6744 51.5785 32.1471C53.9039 32.7014 56.953 33.1263 59.2133 33.2138C62.7005 33.3341 69.6787 32.9034 71.7697 32.4206C73.1195 32.1154 76.2625 30.9453 79.7056 29.4748C82.3449 28.3393 83.0652 27.9791 86.4752 26.1192C88.8732 24.7917 88.9047 24.765 88.5545 24.227Z" fill="#7E9D93"/>
<path d="M76.9723 100.086C76.3612 96.872 74.8435 92.9987 73.6775 91.687L73.3991 91.372L73.3472 91.7249C73.2568 92.2441 72.4193 98.7235 72.1319 101.046C70.9032 111.155 70.1547 116.399 69.8826 116.742C69.7616 116.895 69.6149 115.617 69.5796 114.002C69.544 112.283 69.5981 110.542 69.9124 103.325C70.1833 97.0374 70.2687 93.859 70.177 93.06C70.1194 92.5578 69.8883 92.0524 69.7288 92.0707C69.6605 92.0786 69.2972 92.4325 68.9063 92.8474C68.5167 93.2737 67.9655 93.7995 67.6688 94.0301C67.2876 94.3283 67.0987 94.5928 66.9785 94.9535C66.8961 95.2405 66.5077 95.9789 66.1303 96.612C65.1388 98.2291 64.1573 101.14 63.7152 103.723C63.0131 107.863 63.2624 113.455 64.3409 117.725C65.0595 120.568 66.2036 124.103 66.9713 125.865C67.3761 126.778 68.2883 128.593 68.3798 128.687C68.5729 128.861 71.4157 124.673 72.8114 122.154C74.1015 119.82 75.7019 115.866 76.3534 113.398C77.5155 109.044 77.7399 104.161 76.9723 100.086Z" fill="#7E9D93"/>
<path d="M46.6455 74.1356C46.0196 70.692 44.7535 66.6973 44.4926 67.3402C44.4461 67.438 43.6614 71.1592 42.7315 75.6255C38.3129 96.8553 38.14 97.6615 37.9464 97.6837C37.8439 97.6955 37.9474 93.9715 38.084 91.9437C38.1421 91.2432 38.3698 89.2049 38.6048 87.4318C39.8473 77.9455 40.8139 68.4677 40.6724 67.235C40.6279 66.8469 40.6279 66.8469 40.3387 67.042C39.5456 67.5725 35.0312 72.9821 34.1681 74.411C33.2007 76.0369 32.4556 78.1923 31.3716 82.4219C30.4498 86.0547 30.2793 88.4912 30.6087 93.1715C31.0566 99.3878 32.3014 104.102 34.7076 108.579C35.1055 109.331 35.4789 109.97 35.531 110.022C35.5818 110.063 36.6682 108.77 37.9357 107.144C40.4202 103.957 41.5164 102.247 43.8047 98.0523C45.2065 95.4861 45.6266 94.4202 46.4355 91.4133C47.448 87.666 47.7446 85.4232 47.613 82.4664C47.5196 80.5459 47.0206 76.1973 46.6455 74.1356Z" fill="#7E9D93"/>
<path d="M27.3582 31.7578C27.2646 31.4448 27.1263 31.0443 27.0384 30.881C26.8891 30.5859 26.8777 30.5872 26.6735 30.8188C26.3154 31.2183 25.8231 32.2578 24.4477 35.4569C23.7401 37.134 22.7422 39.3994 22.2577 40.5073C21.7618 41.6165 20.7315 44.0013 19.98 45.799C19.2184 47.6095 18.292 49.6932 17.9176 50.4531C17.5419 51.2017 16.4208 53.7009 15.4383 55.9993C13.5245 60.4397 13.3574 60.7943 12.5321 62.1495L11.9973 63.0203L11.9888 62.4431C11.9876 62.131 12.1175 61.3529 12.2886 60.7319C12.6619 59.3592 14.5745 53.6006 16.0186 49.4915C18.074 43.6702 21.8935 32.0033 22.1459 30.7832C22.31 30.0012 22.3144 29.8388 22.1594 29.6946C21.9383 29.4772 21.3451 29.6378 20.4382 30.1813C19.4567 30.7796 18.5317 31.568 16.7635 33.3552C15.1377 34.9756 14.8138 35.3713 14.457 36.083C14.325 36.3409 14.098 36.5751 13.8781 36.6698C13.6139 36.781 13.5017 36.9095 13.4749 37.1786C13.4353 37.4375 13.3245 37.5775 13.0388 37.7027C12.7759 37.8254 12.6234 38.0048 12.5195 38.3058C12.4305 38.5358 11.7966 39.6493 11.0944 40.7706C9.35781 43.5371 9.01235 44.2475 7.96384 47.1778C6.68114 50.7827 5.91253 53.7387 5.72292 55.8073C5.53463 57.8873 5.69176 61.5698 6.23378 67.9025C6.60486 72.2427 6.89481 74.5685 7.0599 74.6999C7.239 74.8528 8.03953 74.2868 9.61178 72.9038C10.5557 72.0785 11.7344 71.0875 12.2545 70.6924C13.1874 69.9725 13.481 69.615 13.4391 69.2498C13.426 69.1356 13.6592 68.8545 14.029 68.5576C14.7989 67.9258 19.3349 62.2015 19.9043 61.1301C20.2173 60.5391 20.4303 60.2834 20.7046 60.1594C20.9902 60.0341 21.1528 59.842 21.3046 59.4545C21.4326 59.1623 21.7241 58.5853 21.9656 58.176C22.2071 57.7667 22.9606 56.4891 23.6361 55.3361C26.3998 50.6594 27.5579 46.5716 27.9283 40.1457C28.0849 37.3871 27.8162 33.3358 27.3582 31.7578Z" fill="#7E9D93"/>
</svg>
