<svg width="131" height="99" viewBox="0 0 131 99" fill="none" xmlns="http://www.w3.org/2000/svg">
<path d="M48.0132 0.00102063C48.1171 0.0702538 47.8401 2.38957 47.4247 5.12428C47.0093 7.82437 46.5593 11.9437 46.3862 14.2284C46.0747 18.9363 45.2785 21.5325 41.9899 28.8713L40.0514 33.1291L40.8476 34.8599C41.2976 35.7946 41.7822 36.4523 41.9207 36.3138C42.0245 36.1407 43.1323 33.0599 44.3092 29.4597C46.1785 23.7134 53.3095 4.95119 53.5519 5.15889C53.5865 5.22813 52.998 7.65129 52.2364 10.5937C51.5095 13.5361 50.5748 17.2747 50.2287 18.9017C49.7787 20.9441 48.4632 24.2326 45.9016 29.7367L42.2669 37.6639L43.4092 39.9486C44.5515 42.1986 44.5862 42.2333 44.9669 41.4025C45.1746 40.9178 46.8016 36.8331 48.6017 32.3329C51.4056 25.3404 59.8175 6.8551 60.579 5.98969C60.7175 5.85122 59.7482 9.27827 58.4674 13.6053C57.152 17.9324 56.0096 22.1556 55.8712 22.9518C55.7327 23.9211 53.8634 27.6943 50.5056 33.7868C47.667 38.9447 45.3477 43.3064 45.3477 43.4448C45.3477 44.2064 47.3901 48.0835 47.5286 47.6334C50.3325 39.0831 50.9902 37.4562 54.9019 29.8059C59.0213 21.671 61.0983 17.1362 62.656 12.7399C63.106 11.563 63.4868 10.6283 63.5561 10.6975C63.6253 10.7668 62.7945 14.09 61.6521 18.0709C60.5444 22.0518 59.1251 27.1058 58.5367 29.2867C57.602 32.6791 56.7712 34.5138 52.9634 41.6794C50.471 46.318 48.4632 50.1951 48.4632 50.3335C48.4632 50.9566 51.0595 56.5991 51.2325 56.3568C51.371 56.2184 52.2018 54.2452 53.1365 51.9605C55.6635 45.6257 58.2251 40.8486 62.6906 34.1676C67.26 27.2789 69.8563 22.7441 72.7641 16.4785C73.8718 14.09 74.7718 12.2899 74.7718 12.4284C74.7718 12.6015 73.6987 15.717 72.3833 19.3517C71.0679 23.0211 69.2332 28.4212 68.2639 31.3636C67.2946 34.3061 66.2215 37.4215 65.8407 38.287C65.46 39.1524 62.2752 44.1718 58.7097 49.4681C55.1788 54.7991 52.271 59.2646 52.271 59.4377C52.271 59.8877 54.348 65.0802 54.6596 65.3918C54.8327 65.5648 56.3212 63.1417 57.9828 60.0262C59.6444 56.9107 61.9637 52.8259 63.106 50.922C65.46 47.045 81.9721 22.3633 82.249 22.3633C82.3529 22.3633 82.3529 22.5018 82.249 22.6403C82.1452 22.8134 80.172 27.3827 77.8527 32.7829C71.3794 47.9104 71.4486 47.8065 61.9983 59.7492L55.4904 67.9534L57.0481 72.1766L58.6059 76.4344L59.1944 75.4306C59.5059 74.9113 61.4444 71.5535 63.4522 67.988C68.4716 59.1262 71.5525 54.3837 79.9297 42.6487C83.876 37.11 88.4108 30.7059 90.0031 28.4212C94.2956 22.2595 94.261 22.1903 90.3493 30.8444C88.9646 33.8907 86.4376 39.4985 84.7414 43.3064C79.8605 54.2798 79.0989 55.4568 66.5331 70.4458L59.4367 78.8922L60.3713 81.8C60.8906 83.3924 61.4444 84.6732 61.5829 84.604C61.756 84.5347 63.7984 82.1462 66.1177 79.3076C73.3179 70.5496 76.9527 66.638 85.4684 58.4684C89.9685 54.1414 96.3033 48.0142 99.5227 44.8641C102.777 41.714 105.788 38.8062 106.238 38.46L107.069 37.7677L106.204 39.1524C105.719 39.9139 102.846 44.3103 99.8342 48.9143C96.788 53.5183 93.6032 58.4338 92.7032 59.8185C90.5916 63.1417 86.1261 67.988 82.0413 71.415C79.5835 73.4574 63.106 86.7502 62.3791 87.3041C62.1714 87.4425 64.1792 93.3273 64.4215 93.3273C65.01 93.3273 80.8297 77.4383 84.776 72.9035C87.1646 70.1342 91.6301 65.3225 94.6764 62.1724C98.865 57.8107 101.219 55.0068 104.334 50.6451C106.584 47.4604 108.488 44.8641 108.558 44.8641C109.111 44.8641 104.507 53.6567 98.8996 63.2801C90.7301 77.3345 87.8569 80.3461 70.3755 92.9465C67.6408 94.8851 65.4253 96.6851 65.4253 96.8928C65.4253 97.6198 67.6754 105.097 67.8831 105.097C68.0216 105.097 68.5062 104.508 68.9909 103.782C72.5218 98.3814 79.9643 90.2465 83.426 87.9618C86.7838 85.7463 120.327 69.165 120.708 69.5457C120.743 69.615 118.735 70.7919 116.208 72.2112C109.977 75.6729 101.738 80.623 99.0381 82.527C97.8265 83.3578 93.9494 86.6463 90.3839 89.8311C82.1798 97.1352 82.0413 97.2736 74.5987 102.328C69.5793 105.72 68.4024 106.689 68.4716 107.243C68.5062 107.659 68.9562 109.286 69.4409 110.878L70.3063 113.751L78.1642 106.17C90.3839 94.3658 94.3994 91.0773 99.8689 88.2387C109.181 83.427 113.439 80.5884 118.285 75.9498C120.431 73.8728 122.266 72.2112 122.404 72.2112C122.508 72.2112 120.5 74.4267 117.973 77.1614C112.781 82.7347 106.896 89.3118 102.188 94.7466C100.457 96.789 98.2073 99.1775 97.2034 100.078C95.0571 102.016 90.107 105.374 84.4645 108.732C81.1413 110.705 71.8294 116.417 71.3448 116.763C71.1371 116.901 72.0717 119.982 72.3833 120.155C72.5218 120.259 75.9142 117.94 79.9297 114.997C93.2917 105.132 97.1341 102.812 104.438 100.043C112.054 97.1352 116.727 94.8159 121.158 91.6311C125.831 88.3079 125.07 89.0349 117.316 95.4043C114.2 97.966 109.077 102.328 105.927 105.097C102.777 107.832 99.4535 110.601 98.4842 111.224C96.1303 112.782 90.9032 115.447 86.7145 117.213C78.5796 120.64 73.3872 123.167 73.3872 123.755C73.4218 124.413 75.568 131.648 75.8449 131.925C75.9488 132.029 77.4719 130.54 79.2027 128.671C84.4645 122.994 86.6799 121.401 95.5418 117.109L103.331 113.336L111.05 105.685C115.273 101.462 118.735 98.139 118.735 98.2775C118.735 98.5891 109.319 111.397 106.619 114.79C103.746 118.355 98.4842 122.475 91.0416 126.905C86.0568 129.882 76.8488 135.594 76.8488 135.698C76.8488 135.767 76.9873 136.252 77.1604 136.806C77.3681 137.36 77.8181 138.917 78.2335 140.302L78.9604 142.794L86.8184 136.46C100.388 125.521 103.607 123.34 110.288 120.467C118.043 117.109 122.473 114.651 126.524 111.466C132.858 106.447 132.685 106.724 124.62 113.959C121.677 116.59 116.277 121.609 112.608 125.105C108.8 128.705 104.75 132.167 103.227 133.171C101.773 134.14 95.9226 137.256 90.2801 140.094C84.6029 142.933 79.9643 145.46 79.9643 145.702C79.9643 146.187 80.9682 149.752 81.1067 149.752C81.1413 149.752 83.426 149.268 86.1953 148.714C90.7301 147.779 91.8724 147.675 97.7919 147.675C101.427 147.675 105.373 147.537 106.619 147.364C108.385 147.122 122.093 143.106 125.07 141.964C125.381 141.825 125.658 141.825 125.658 141.929C125.658 142.067 121.885 144.041 117.281 146.325C108.142 150.825 107.692 150.964 99.2804 152.002C96.1649 152.383 93.3955 152.452 88.3761 152.279C82.699 152.106 81.6951 152.141 81.8336 152.556C82.4567 154.287 88.2723 174.503 88.2723 174.919C88.2723 175.472 85.8837 179.315 85.676 179.107C85.6068 179.038 85.2953 177.757 84.9837 176.234C84.0491 171.665 80.9336 158.96 80.6566 158.649C80.5182 158.51 77.5065 158.926 73.941 159.618C69.8909 160.38 66.4292 160.83 64.6292 160.83C60.4059 160.83 56.0789 161.903 51.821 163.945L50.3671 164.672L51.4056 163.876C52.6518 162.941 53.2403 162.318 55.6635 159.514C57.8789 156.953 58.6751 156.503 62.5868 155.637C66.1523 154.841 73.1102 154.737 77.2988 155.429C78.7527 155.672 79.9643 155.776 79.9643 155.672C79.9643 155.568 79.8259 154.91 79.6528 154.253C79.4451 153.595 79.1681 152.418 78.9604 151.656L78.6143 150.272H72.4525C66.9831 150.272 65.9446 150.168 63.1753 149.441C60.7867 148.783 59.1944 148.575 56.425 148.575C51.9249 148.575 50.9556 148.922 43.6169 153.249C40.6745 154.979 37.6975 156.71 37.0397 157.091L35.8282 157.783L36.8667 156.849C39.1167 154.876 46.2478 149.683 49.0517 147.987C53.8288 145.079 54.8327 144.802 60.579 144.629C65.5292 144.491 65.7023 144.525 71.2756 145.91C74.391 146.706 77.1258 147.329 77.3681 147.329C77.7142 147.329 77.6796 146.879 77.2642 145.287C76.6065 142.829 76.6411 142.829 70.2371 142.829C62.7599 142.829 42.613 141.825 39.2898 141.271C31.1895 139.956 28.7318 139.714 22.7777 139.679C15.2659 139.644 15.6813 139.402 25.6163 138.156C37.5936 136.667 43.8938 136.252 54.4173 136.252H64.3868L67.6408 137.29C69.4409 137.879 72.0025 138.779 73.3525 139.367C74.7026 139.921 75.8103 140.337 75.8103 140.302C75.8103 140.06 74.1141 134.071 74.0103 134.002C73.941 133.933 70.4794 133.794 66.2908 133.656C50.7479 133.24 45.2785 132.375 34.305 128.602C29.5279 126.94 24.0931 125.382 21.2892 124.828C18.9353 124.344 6.8887 120.744 6.57715 120.432C6.4733 120.328 6.81947 120.328 7.3041 120.432C9.10416 120.882 19.0045 122.405 24.5778 123.098C27.7279 123.513 34.2704 123.963 39.1167 124.136C48.844 124.482 51.0941 124.794 60.4059 127.079C63.833 127.909 68.0216 128.913 69.6832 129.294L72.7641 129.952L72.5218 128.74C72.0025 125.971 72.0371 126.005 68.1254 125.521C51.7518 123.582 44.5862 122.024 36.9013 118.597C27.7625 114.547 21.7738 112.92 14.539 112.54C12.3581 112.436 10.0042 112.193 9.34648 112.02C8.58491 111.813 13.362 111.743 22.3277 111.847C37.7321 111.986 38.2513 112.02 49.4671 114.305C56.0096 115.62 58.3289 116.382 65.5292 119.601C68.1601 120.744 70.3409 121.713 70.4101 121.713C70.4794 121.713 70.1332 120.294 69.614 118.528L68.6793 115.343L61.6175 114.063C45.7285 111.155 41.3668 109.632 33.1973 104.162C29.0433 101.393 21.9469 98.5544 10.5581 95.0928C8.10028 94.3312 6.23098 93.7081 6.43868 93.6735C6.61177 93.6735 10.7658 94.5389 15.6121 95.5774C20.4238 96.6159 27.1394 97.9313 30.4626 98.5198C38.8398 100.008 38.7706 99.9737 53.6557 105.616C60.9598 108.351 67.0177 110.566 67.0869 110.497C67.2254 110.324 65.7369 105.028 65.46 104.682C65.3561 104.578 62.3445 104.128 58.779 103.747C47.1824 102.431 45.9362 102.12 33.7512 97.3775C25.4086 94.1581 19.4199 92.2196 13.0505 90.6965C6.85408 89.208 6.78485 89.1733 6.95793 89.0349C7.02717 89.0003 12.1504 89.3118 18.3468 89.7272C33.1627 90.8003 36.9705 91.4927 45.7977 94.7466C61.8598 100.701 64.2138 101.531 64.3176 101.289C64.3869 101.116 63.8676 99.2122 63.1753 97.0313L61.8945 93.085L54.5557 92.8773C46.7324 92.6696 43.8938 92.2196 41.3668 90.7657C37.7321 88.6887 34.8935 87.9618 28.0394 87.3041C21.9469 86.7156 19.3161 86.0232 15.5082 83.9116C11.6658 81.7654 4.32707 75.7421 4.88094 75.1882C4.95017 75.0844 6.50792 76.019 8.30798 77.2652C12.0812 79.8269 16.8237 82.2154 20.2161 83.2539C22.1546 83.8424 24.1624 84.0501 31.1203 84.327C35.7935 84.5347 40.9514 84.9501 42.5784 85.2271C45.7631 85.8155 52.2018 87.5117 57.4635 89.1733C59.2636 89.7272 60.7521 90.1426 60.8213 90.0734C60.8906 90.0388 60.5098 88.7926 60.0252 87.3387C59.1944 84.8809 59.0559 84.6732 58.052 84.5001C38.8052 81.2115 34.582 79.9307 27.3817 75.1882C25.4086 73.9074 22.2931 72.2805 20.4584 71.5535C17.066 70.2035 7.40795 66.9841 4.63862 66.2918C3.77321 66.0495 3.15011 65.8418 3.21934 65.7725C3.28858 65.6687 6.681 66.3264 10.7658 67.1572C14.8505 68.0226 19.6622 68.9573 21.4623 69.2688C30.878 70.8266 32.2627 71.242 44.3092 75.6729C50.8864 78.096 56.5981 80.2077 57.0135 80.3115C57.7751 80.5538 57.7751 80.5538 56.8058 77.8537C56.252 76.3652 55.5942 75.0498 55.3519 74.9113C55.075 74.7728 52.0633 74.1844 48.6363 73.5613C40.1206 72.0728 36.0705 71.0343 32.2973 69.4419C29.1818 68.0918 25.4778 66.0149 23.3316 64.3879C22.7431 63.9379 20.6661 62.8647 18.6583 61.9993C14.3659 60.0954 10.7311 58.1569 7.44257 55.9414C6.12714 55.0414 3.87706 53.6567 2.52701 52.8259C1.14235 52.0298 0 51.3028 0 51.2336C0 51.0951 0.865415 51.4759 7.78873 54.5568C18.4853 59.3339 20.6661 60.0954 25.9624 60.9954C30.8088 61.8609 31.3626 62.0339 42.5438 66.6726C48.9132 69.338 54.2096 71.4497 54.2788 71.3458C54.3827 71.2766 53.898 69.7534 53.2749 67.988L52.098 64.8033L43.6169 62.1378C34.5127 59.2992 29.5972 57.4992 17.1352 52.3759C12.7735 50.5759 7.65027 48.4989 5.81559 47.7719C3.94629 47.045 2.49239 46.3872 2.56163 46.318C2.63086 46.2488 4.46554 46.6296 6.61177 47.1142C8.79261 47.5988 14.0543 48.7758 18.3468 49.7104C29.3895 52.1336 31.5703 52.8952 41.4361 57.7761C44.6208 59.3685 48.1517 61.0647 49.2248 61.5839L51.1979 62.484L50.3325 60.1646C49.8479 58.8838 49.294 57.4646 49.1209 56.9799C48.844 56.1837 48.2209 55.9414 42.9938 54.5568C39.8091 53.726 33.4742 51.7528 28.9049 50.1951C19.7315 47.0796 1.0385 40.2601 1.21158 40.087C1.48851 39.7755 24.8893 44.7256 28.0394 45.7641C30.0472 46.4219 35.2743 48.5681 39.636 50.5412C44.0323 52.5144 47.667 54.0721 47.7363 54.0029C47.9094 53.8298 45.6593 48.2219 45.2093 47.7719C45.0016 47.5296 42.2669 46.9411 39.1167 46.4219C32.8858 45.418 26.1009 43.9641 20.4238 42.441C18.416 41.8871 13.362 40.5717 9.1734 39.4985C4.98479 38.4254 1.48851 37.4562 1.41928 37.3869C1.21158 37.1792 1.48851 37.2139 7.13102 37.7331C9.96958 38.01 14.4005 38.4254 16.9621 38.6331C23.6777 39.187 27.5202 40.0524 36.2782 42.9948C40.536 44.4487 44.1015 45.5218 44.2054 45.4526C44.2746 45.3487 44.0323 44.518 43.6169 43.5487L42.8899 41.8525L40.6399 41.6102C34.3397 40.9524 27.5548 39.0485 22.6739 36.5215C20.77 35.5523 17.6545 34.2022 15.7852 33.5445C11.4581 32.056 7.78873 30.1867 4.67324 27.9366C3.35781 26.9673 2.35393 26.1712 2.45778 26.1712C2.56163 26.1712 4.43092 27.002 6.61177 28.0405C13.5697 31.329 16.5467 32.2637 23.0546 33.2329C29.6318 34.2022 31.2588 34.6522 37.3167 37.3523C39.636 38.3908 41.5399 39.0831 41.5399 38.8408C41.4707 37.3523 40.536 36.7985 34.582 34.6522C31.2588 33.4753 27.174 31.8829 25.4432 31.1213C17.5506 27.6597 8.72338 23.5749 8.82723 23.4711C9.03493 23.2287 24.1278 27.175 26.4471 28.0405C27.6933 28.5251 31.1203 30.2559 34.0627 31.8829C37.0051 33.5099 39.4975 34.8253 39.6014 34.8253C39.7052 34.8253 39.2206 33.683 38.5283 32.2637L37.2821 29.7367L34.6512 29.1136C33.1973 28.802 30.9472 28.1443 29.5972 27.6943C25.9971 26.4827 14.262 21.3595 15.0582 21.3248C16.2698 21.3248 21.8777 22.3287 25.5817 23.2288C29.251 24.1288 32.1242 25.375 34.8589 27.2443C35.6897 27.8328 36.3474 28.1443 36.3474 27.9366C36.3474 27.1404 34.4435 25.4442 32.6088 24.6134C29.1472 23.0211 25.7547 20.7017 23.6777 18.4517C21.4969 16.1324 14.4005 7.13204 14.6082 6.95895C14.8505 6.75126 26.6894 15.2323 29.251 17.4478C30.7741 18.7978 32.0203 19.8709 32.055 19.8363C32.0896 19.8017 31.6742 18.4517 31.1549 16.8247C29.9087 13.1553 29.4241 10.1783 29.4587 6.61279C29.4933 2.59726 29.9087 1.45492 30.2203 4.53579C30.3934 6.30124 30.7395 7.51282 31.5703 9.03595C34.7204 14.9208 34.6858 14.8169 34.9628 20.3556C35.1358 24.198 35.3435 25.6519 35.7935 26.3442C36.1051 26.8289 36.4167 27.2097 36.4513 27.2097C36.5205 27.2097 36.4166 25.9981 36.2436 24.5096C35.7243 19.9748 36.1397 14.1246 37.3859 8.34362C38.009 5.47044 38.5283 3.11651 38.5629 3.0819C38.6321 3.01266 38.6321 5.74737 38.6321 9.1398C38.6321 12.4976 38.6667 16.9631 38.736 19.0748C38.8398 22.0864 38.7013 23.5057 38.1129 25.9288L37.3859 28.9405L38.3898 30.5675L39.3937 32.1598L40.5014 27.3481C42.613 18.2786 43.3053 15.6131 45.59 7.75514C46.8709 3.39345 47.944 -0.0682125 48.0132 0.00102063Z" fill="#F9F5EE" fill-opacity="0.5"/>
</svg>
