<svg width="131" height="164" viewBox="0 0 131 164" fill="none" xmlns="http://www.w3.org/2000/svg">
<path d="M82.9868 0.00102063C82.8829 0.0702538 83.1599 2.38957 83.5753 5.12428C83.9907 7.82437 84.4407 11.9437 84.6138 14.2284C84.9253 18.9363 85.7215 21.5325 89.0101 28.8713L90.9486 33.1291L90.1524 34.8599C89.7024 35.7946 89.2178 36.4523 89.0793 36.3138C88.9755 36.1407 87.8677 33.0599 86.6908 29.4597C84.8215 23.7134 77.6905 4.95119 77.4481 5.15889C77.4135 5.22813 78.002 7.65129 78.7636 10.5937C79.4905 13.5361 80.4252 17.2747 80.7713 18.9017C81.2213 20.9441 82.5368 24.2326 85.0984 29.7367L88.7331 37.6639L87.5908 39.9486C86.4485 42.1986 86.4138 42.2333 86.0331 41.4025C85.8254 40.9178 84.1984 36.8331 82.3983 32.3329C79.5944 25.3404 71.1825 6.8551 70.421 5.98969C70.2825 5.85122 71.2518 9.27827 72.5326 13.6053C73.848 17.9324 74.9904 22.1556 75.1288 22.9518C75.2673 23.9211 77.1366 27.6943 80.4944 33.7868C83.333 38.9447 85.6523 43.3064 85.6523 43.4448C85.6523 44.2064 83.6099 48.0835 83.4714 47.6334C80.6675 39.0831 80.0098 37.4562 76.0981 29.8059C71.9787 21.671 69.9017 17.1362 68.344 12.7399C67.894 11.563 67.5132 10.6283 67.4439 10.6975C67.3747 10.7668 68.2055 14.09 69.3479 18.0709C70.4556 22.0518 71.8749 27.1058 72.4633 29.2867C73.398 32.6791 74.2288 34.5138 78.0366 41.6794C80.529 46.318 82.5368 50.1951 82.5368 50.3335C82.5368 50.9566 79.9405 56.5991 79.7675 56.3568C79.629 56.2184 78.7982 54.2452 77.8635 51.9605C75.3365 45.6257 72.7749 40.8486 68.3094 34.1676C63.74 27.2789 61.1437 22.7441 58.2359 16.4785C57.1282 14.09 56.2282 12.2899 56.2282 12.4284C56.2282 12.6015 57.3013 15.717 58.6167 19.3517C59.9321 23.021 61.7668 28.4212 62.7361 31.3636C63.7054 34.3061 64.7785 37.4216 65.1593 38.287C65.54 39.1524 68.7248 44.1718 72.2903 49.4681C75.8212 54.7991 78.729 59.2646 78.729 59.4377C78.729 59.8877 76.652 65.0802 76.3404 65.3918C76.1673 65.5648 74.6788 63.1417 73.0172 60.0262C71.3556 56.9107 69.0363 52.8259 67.894 50.922C65.54 47.045 49.0279 22.3633 48.751 22.3633C48.6471 22.3633 48.6471 22.5018 48.751 22.6403C48.8548 22.8134 50.828 27.3827 53.1473 32.7829C59.6206 47.9104 59.5514 47.8065 69.0017 59.7492L75.5096 67.9534L73.9519 72.1766L72.3941 76.4344L71.8056 75.4306C71.4941 74.9113 69.5556 71.5535 67.5478 67.988C62.5284 59.1262 59.4475 54.3837 51.0703 42.6487C47.124 37.11 42.5892 30.7059 40.9969 28.4212C36.7044 22.2595 36.739 22.1903 40.6507 30.8444C42.0354 33.8907 44.5624 39.4985 46.2586 43.3064C51.1395 54.2798 51.9011 55.4568 64.4669 70.4458L71.5633 78.8922L70.6287 81.8C70.1094 83.3924 69.5556 84.6732 69.4171 84.604C69.244 84.5347 67.2016 82.1462 64.8823 79.3076C57.6821 70.5496 54.0473 66.638 45.5316 58.4684C41.0315 54.1414 34.6967 48.0142 31.4773 44.8641C28.2234 41.714 25.2117 38.8062 24.7617 38.46L23.9309 37.7677L24.7963 39.1524C25.281 39.9139 28.1541 44.3102 31.1658 48.9143C34.212 53.5183 37.3968 58.4338 38.2968 59.8185C40.4084 63.1417 44.8739 67.988 48.9587 71.415C51.4165 73.4574 67.894 86.7502 68.6209 87.3041C68.8286 87.4425 66.8208 93.3273 66.5785 93.3273C65.9901 93.3273 50.1703 77.4383 46.224 72.9035C43.8354 70.1342 39.3699 65.3225 36.3236 62.1724C32.135 57.8107 29.7811 55.0068 26.6656 50.6451C24.4155 47.4604 22.5116 44.8641 22.4424 44.8641C21.8885 44.8641 26.4925 53.6567 32.1004 63.2801C40.2699 77.3345 43.1431 80.3461 60.6245 92.9465C63.3592 94.8851 65.5747 96.6851 65.5747 96.8928C65.5747 97.6198 63.3246 105.097 63.1169 105.097C62.9784 105.097 62.4938 104.508 62.0091 103.782C58.4782 98.3814 51.0357 90.2465 47.574 87.9618C44.2162 85.7463 10.6727 69.165 10.292 69.5457C10.2573 69.615 12.2651 70.7919 14.7921 72.2112C21.0231 75.6729 29.2618 80.6231 31.9619 82.527C33.1735 83.3578 37.0506 86.6463 40.6161 89.8311C48.8202 97.1352 48.9587 97.2736 56.4013 102.328C61.4207 105.72 62.5976 106.689 62.5284 107.243C62.4938 107.659 62.0438 109.286 61.5591 110.878L60.6937 113.751L52.8358 106.17C40.6161 94.3658 36.6006 91.0773 31.1311 88.2387C21.8193 83.427 17.5614 80.5884 12.7151 75.9498C10.5689 73.8728 8.73421 72.2112 8.59575 72.2112C8.4919 72.2112 10.4997 74.4267 13.0267 77.1614C18.2192 82.7347 24.104 89.3118 28.8118 94.7466C30.5427 96.789 32.7927 99.1775 33.7966 100.078C35.9429 102.016 40.893 105.374 46.5355 108.732C49.8587 110.705 59.1706 116.417 59.6552 116.763C59.8629 116.901 58.9283 119.982 58.6167 120.155C58.4782 120.259 55.0858 117.94 51.0703 114.997C37.7083 105.132 33.8659 102.812 26.5618 100.043C18.9461 97.1352 14.2729 94.8158 9.84195 91.6311C5.16871 88.3079 5.93027 89.0349 13.6844 95.4043C16.7999 97.966 21.9231 102.328 25.0732 105.097C28.2234 107.832 31.5465 110.601 32.5158 111.224C34.8697 112.782 40.0968 115.447 44.2855 117.213C52.4203 120.64 57.6128 123.167 57.6128 123.755C57.5782 124.413 55.432 131.648 55.1551 131.925C55.0512 132.029 53.5281 130.54 51.7973 128.671C46.5355 122.994 44.3201 121.401 35.4582 117.109L27.6695 113.336L19.95 105.685C15.7268 101.462 12.2651 98.139 12.2651 98.2775C12.2651 98.5891 21.6808 111.397 24.3809 114.79C27.2541 118.355 32.5158 122.475 39.9584 126.905C44.9432 129.882 54.1512 135.594 54.1512 135.698C54.1512 135.767 54.0127 136.252 53.8396 136.806C53.6319 137.36 53.1819 138.917 52.7665 140.302L52.0396 142.794L44.1816 136.46C30.6119 125.521 27.3926 123.34 20.7116 120.467C12.9574 117.109 8.52652 114.651 4.47638 111.466C-1.85846 106.447 -1.68538 106.724 6.38029 113.959C9.3227 116.59 14.7229 121.609 18.3923 125.105C22.2001 128.705 26.2502 132.167 27.7733 133.171C29.2272 134.14 35.0774 137.256 40.7199 140.094C46.3971 142.933 51.0357 145.46 51.0357 145.702C51.0357 146.187 50.0318 149.752 49.8933 149.752C49.8587 149.752 47.574 149.268 44.8047 148.714C40.2699 147.779 39.1276 147.675 33.2081 147.675C29.5734 147.675 25.6271 147.537 24.3809 147.364C22.6155 147.122 8.9073 143.106 5.93027 141.964C5.61873 141.825 5.34179 141.825 5.34179 141.929C5.34179 142.067 9.11501 144.041 13.719 146.325C22.8578 150.825 23.3078 150.964 31.7196 152.002C34.8351 152.383 37.6045 152.452 42.6239 152.279C48.301 152.106 49.3049 152.141 49.1664 152.556C48.5433 154.287 42.7277 174.503 42.7277 174.919C42.7277 175.473 45.1162 179.315 45.324 179.107C45.3932 179.038 45.7047 177.757 46.0163 176.234C46.9509 171.665 50.0664 158.96 50.3434 158.649C50.4818 158.51 53.4935 158.926 57.059 159.618C61.1091 160.38 64.5708 160.83 66.3708 160.83C70.5941 160.83 74.9211 161.903 79.179 163.945L80.6329 164.672L79.5944 163.876C78.3482 162.941 77.7597 162.318 75.3365 159.514C73.1211 156.953 72.3249 156.503 68.4132 155.637C64.8477 154.841 57.8898 154.737 53.7012 155.429C52.2473 155.672 51.0357 155.776 51.0357 155.672C51.0357 155.568 51.1741 154.91 51.3472 154.253C51.5549 153.595 51.8319 152.418 52.0396 151.656L52.3857 150.272H58.5475C64.0169 150.272 65.0554 150.168 67.8247 149.441C70.2133 148.783 71.8056 148.575 74.575 148.575C79.0751 148.575 80.0444 148.922 87.3831 153.249C90.3255 154.979 93.3025 156.71 93.9603 157.091L95.1718 157.783L94.1333 156.849C91.8833 154.876 84.7522 149.683 81.9483 147.987C77.1712 145.079 76.1673 144.802 70.421 144.629C65.4708 144.491 65.2977 144.525 59.7244 145.91C56.609 146.706 53.8742 147.329 53.6319 147.329C53.2858 147.329 53.3204 146.879 53.7358 145.287C54.3935 142.829 54.3589 142.829 60.7629 142.829C68.2401 142.829 88.387 141.825 91.7102 141.271C99.8105 139.956 102.268 139.714 108.222 139.679C115.734 139.644 115.319 139.402 105.384 138.156C93.4064 136.667 87.1062 136.252 76.5827 136.252H66.6132L63.3592 137.29C61.5591 137.879 58.9975 138.779 57.6475 139.367C56.2974 139.921 55.1897 140.337 55.1897 140.302C55.1897 140.06 56.8859 134.071 56.9897 134.002C57.059 133.933 60.5206 133.794 64.7092 133.656C80.2521 133.24 85.7215 132.375 96.695 128.602C101.472 126.94 106.907 125.382 109.711 124.828C112.065 124.344 124.111 120.744 124.423 120.432C124.527 120.328 124.181 120.328 123.696 120.432C121.896 120.882 111.995 122.405 106.422 123.098C103.272 123.513 96.7296 123.963 91.8833 124.136C82.156 124.482 79.9059 124.794 70.5941 127.079C67.167 127.909 62.9784 128.913 61.3168 129.294L58.2359 129.952L58.4782 128.74C58.9975 125.971 58.9629 126.005 62.8746 125.521C79.2482 123.582 86.4138 122.024 94.0987 118.597C103.237 114.547 109.226 112.92 116.461 112.54C118.642 112.436 120.996 112.193 121.654 112.02C122.415 111.813 117.638 111.743 108.672 111.847C93.2679 111.986 92.7487 112.02 81.5329 114.305C74.9904 115.62 72.6711 116.382 65.4708 119.601C62.8399 120.744 60.6591 121.713 60.5899 121.713C60.5206 121.713 60.8668 120.294 61.386 118.528L62.3207 115.343L69.3825 114.063C85.2715 111.155 89.6332 109.632 97.8027 104.162C101.957 101.393 109.053 98.5544 120.442 95.0928C122.9 94.3312 124.769 93.7081 124.561 93.6735C124.388 93.6735 120.234 94.5389 115.388 95.5774C110.576 96.6159 103.861 97.9313 100.537 98.5198C92.1602 100.008 92.2294 99.9737 77.3443 105.616C70.0402 108.351 63.9823 110.566 63.9131 110.497C63.7746 110.324 65.2631 105.028 65.54 104.682C65.6439 104.578 68.6555 104.128 72.221 103.747C83.8176 102.431 85.0638 102.12 97.2488 97.3775C105.591 94.1581 111.58 92.2196 117.95 90.6965C124.146 89.208 124.215 89.1733 124.042 89.0349C123.973 89.0003 118.85 89.3118 112.653 89.7272C97.8373 90.8003 94.0295 91.4927 85.2023 94.7466C69.1402 100.701 66.7862 101.531 66.6824 101.289C66.6132 101.116 67.1324 99.2122 67.8247 97.0313L69.1055 93.085L76.4443 92.8773C84.2676 92.6696 87.1062 92.2196 89.6332 90.7657C93.2679 88.6887 96.1065 87.9618 102.961 87.3041C109.053 86.7156 111.684 86.0232 115.492 83.9116C119.334 81.7654 126.673 75.7421 126.119 75.1882C126.05 75.0844 124.492 76.0191 122.692 77.2652C118.919 79.8269 114.176 82.2154 110.784 83.2539C108.845 83.8424 106.838 84.0501 99.8797 84.327C95.2065 84.5347 90.0486 84.9501 88.4216 85.2271C85.2369 85.8155 78.7982 87.5117 73.5365 89.1733C71.7364 89.7272 70.2479 90.1426 70.1787 90.0734C70.1094 90.0388 70.4902 88.7926 70.9748 87.3387C71.8056 84.8809 71.9441 84.6732 72.948 84.5001C92.1948 81.2115 96.418 79.9307 103.618 75.1882C105.591 73.9074 108.707 72.2805 110.542 71.5535C113.934 70.2035 123.592 66.9841 126.361 66.2918C127.227 66.0495 127.85 65.8418 127.781 65.7725C127.711 65.6687 124.319 66.3264 120.234 67.1572C116.149 68.0226 111.338 68.9573 109.538 69.2688C100.122 70.8266 98.7373 71.242 86.6908 75.6729C80.1136 78.096 74.4019 80.2076 73.9865 80.3115C73.2249 80.5538 73.2249 80.5538 74.1942 77.8537C74.748 76.3652 75.4058 75.0498 75.6481 74.9113C75.925 74.7729 78.9367 74.1844 82.3637 73.5613C90.8794 72.0728 94.9295 71.0343 98.7027 69.4419C101.818 68.0919 105.522 66.0148 107.668 64.3879C108.257 63.9379 110.334 62.8647 112.342 61.9993C116.634 60.0954 120.269 58.1569 123.557 55.9414C124.873 55.0414 127.123 53.6567 128.473 52.8259C129.858 52.0298 131 51.3028 131 51.2336C131 51.0951 130.135 51.4759 123.211 54.5568C112.515 59.3339 110.334 60.0954 105.038 60.9954C100.191 61.8609 99.6374 62.0339 88.4562 66.6726C82.0868 69.338 76.7904 71.4497 76.7212 71.3458C76.6173 71.2766 77.102 69.7534 77.7251 67.988L78.902 64.8033L87.3831 62.1378C96.4873 59.2992 101.403 57.4992 113.865 52.3759C118.226 50.5759 123.35 48.4989 125.184 47.7719C127.054 47.045 128.508 46.3872 128.438 46.318C128.369 46.2488 126.534 46.6296 124.388 47.1142C122.207 47.5988 116.946 48.7758 112.653 49.7104C101.611 52.1336 99.4297 52.8952 89.5639 57.7761C86.3792 59.3685 82.8483 61.0647 81.7752 61.5839L79.8021 62.484L80.6675 60.1646C81.1521 58.8838 81.706 57.4646 81.8791 56.9799C82.156 56.1837 82.7791 55.9414 88.0062 54.5568C91.1909 53.726 97.5258 51.7528 102.095 50.1951C111.269 47.0796 129.962 40.2601 129.788 40.087C129.511 39.7755 106.111 44.7256 102.961 45.7641C100.953 46.4219 95.7257 48.5681 91.364 50.5412C86.9677 52.5144 83.333 54.0721 83.2637 54.0029C83.0906 53.8298 85.3407 48.2219 85.7907 47.7719C85.9984 47.5296 88.7331 46.9411 91.8833 46.4219C98.1142 45.418 104.899 43.9641 110.576 42.441C112.584 41.8871 117.638 40.5717 121.827 39.4985C126.015 38.4254 129.511 37.4562 129.581 37.3869C129.788 37.1792 129.511 37.2139 123.869 37.7331C121.03 38.01 116.599 38.4254 114.038 38.6331C107.322 39.187 103.48 40.0524 94.7218 42.9948C90.464 44.4487 86.8985 45.5218 86.7946 45.4526C86.7254 45.3487 86.9677 44.518 87.3831 43.5487L88.1101 41.8525L90.3601 41.6102C96.6603 40.9524 103.445 39.0485 108.326 36.5215C110.23 35.5523 113.346 34.2022 115.215 33.5445C119.542 32.056 123.211 30.1867 126.327 27.9366C127.642 26.9673 128.646 26.1712 128.542 26.1712C128.438 26.1712 126.569 27.002 124.388 28.0405C117.43 31.329 114.453 32.2637 107.945 33.2329C101.368 34.2022 99.7412 34.6522 93.6833 37.3523C91.364 38.3908 89.4601 39.0831 89.4601 38.8408C89.5293 37.3523 90.464 36.7985 96.418 34.6522C99.7412 33.4753 103.826 31.8829 105.557 31.1213C113.449 27.6597 122.277 23.5749 122.173 23.4711C121.965 23.2288 106.872 27.175 104.553 28.0405C103.307 28.5251 99.8797 30.2559 96.9373 31.8829C93.9949 33.5099 91.5025 34.8253 91.3986 34.8253C91.2948 34.8253 91.7794 33.683 92.4717 32.2637L93.7179 29.7367L96.3488 29.1136C97.8027 28.802 100.053 28.1443 101.403 27.6943C105.003 26.4827 116.738 21.3595 115.942 21.3248C114.73 21.3248 109.122 22.3287 105.418 23.2288C101.749 24.1288 98.8758 25.375 96.1411 27.2443C95.3103 27.8328 94.6526 28.1443 94.6526 27.9366C94.6526 27.1404 96.5565 25.4442 98.3912 24.6134C101.853 23.0211 105.245 20.7017 107.322 18.4517C109.503 16.1323 116.6 7.13204 116.392 6.95895C116.149 6.75126 104.311 15.2323 101.749 17.4478C100.226 18.7978 98.9797 19.8709 98.945 19.8363C98.9104 19.8017 99.3258 18.4517 99.8451 16.8247C101.091 13.1553 101.576 10.1783 101.541 6.61279C101.507 2.59726 101.091 1.45492 100.78 4.53579C100.607 6.30124 100.26 7.51282 99.4297 9.03595C96.2796 14.9208 96.3142 14.8169 96.0372 20.3556C95.8642 24.198 95.6565 25.6519 95.2065 26.3442C94.8949 26.8289 94.5834 27.2097 94.5487 27.2097C94.4795 27.2097 94.5834 25.9981 94.7564 24.5096C95.2757 19.9748 94.8603 14.1246 93.6141 8.34362C92.991 5.47044 92.4717 3.11651 92.4371 3.0819C92.3679 3.01266 92.3679 5.74737 92.3679 9.1398C92.3679 12.4976 92.3333 16.9631 92.264 19.0748C92.1602 22.0864 92.2987 23.5057 92.8871 25.9288L93.6141 28.9405L92.6102 30.5675L91.6063 32.1598L90.4986 27.3481C88.387 18.2786 87.6947 15.6131 85.41 7.75514C84.1291 3.39345 83.056 -0.0682125 82.9868 0.00102063Z" fill="#F9F5EE" fill-opacity="0.5"/>
</svg>
