<svg width="139" height="159" viewBox="0 0 139 159" fill="none" xmlns="http://www.w3.org/2000/svg">
<path fill-rule="evenodd" clip-rule="evenodd" d="M89.6589 131.605C89.6692 131.569 89.172 130.944 88.5191 130.254C85.7931 127.289 84.1494 124.054 82.4005 118.353C80.3639 111.7 80.5603 108.587 82.8718 109.558C83.8899 109.985 84.4608 110.961 85.1759 113.659C86.1939 117.391 87.6972 120.644 89.7545 123.65C90.7589 125.136 92.0286 126.775 92.605 127.327C93.5257 128.229 93.717 128.303 94.6258 128.099C96.1038 127.731 100.904 125.008 100.552 124.753C94.984 120.509 91.3203 115.42 89.6073 109.459C88.7698 106.648 88.407 103.935 88.6759 102.794C88.8731 101.904 89.7284 101.55 90.6622 101.933C91.693 102.383 92.6564 104.012 94.307 108.235C94.954 109.889 96.414 112.956 97.5507 115.06C99.8215 119.209 100.852 120.471 102.332 120.972C103.107 121.233 103.34 121.164 105.04 120.221C106.12 119.622 107.775 118.434 108.965 117.384C111.072 115.494 113.077 114.232 114.174 114.044C114.641 113.965 114.744 113.879 114.578 113.58C114.208 112.914 114.292 111.005 114.752 109.667C115.003 108.928 115.828 107.328 116.6 106.119C118.294 103.376 118.556 102.33 117.829 101.02C117.141 99.7794 114.427 97.9192 111.771 96.8681C110.191 96.2416 108.959 96.0237 106.721 95.9428C101.537 95.7524 95.5882 95.2654 94.2434 94.8994C92.5669 94.477 92.3121 94.0173 93.1373 92.9588C95.1913 90.3775 101.102 90.5251 111.391 93.4733C115.106 94.538 116.619 95.2615 118.56 96.9194C119.317 97.581 119.468 97.257 119.687 94.4012C119.888 91.9461 119.637 89.6514 119.051 88.5943C118.121 86.9167 113.829 85.5709 107.964 85.1273C104.471 84.8413 101.903 84.2216 101.508 83.5092C101.164 82.8888 101.545 81.8962 102.304 81.4757C104.729 80.1606 108.792 81.3634 116.05 85.5114L116.93 86.0149L116.734 84.7411C116.645 84.0392 116.66 82.1684 116.791 80.5631C117.175 75.5125 116.582 73.7382 113.898 72.0414C112.508 71.1598 111.868 71.0343 110.247 71.3622C107.354 71.9444 104.81 71.5826 104.237 70.5485C104.033 70.1808 104.038 69.4866 104.22 68.7848C104.668 67.1543 105.646 66.642 108.053 66.8098C110.401 66.9801 112.587 67.7807 114.898 69.2934C115.868 69.9578 116.748 70.4613 116.817 70.423C116.909 70.3721 116.688 68.7818 116.325 66.8801C115.776 63.9395 115.516 63.0919 114.621 61.4246C113.319 59.0219 112.212 58.1635 109.344 57.3803C107.129 56.7456 105.22 56.6624 102.874 57.0919C99.6884 57.6866 96.4884 57.1175 95.762 55.8076C95.4179 55.1872 96.0727 53.4419 96.8899 52.7484C98.1745 51.7055 99.4073 51.6529 103.677 52.4704C105.894 52.8932 107.778 53.201 107.846 53.1627C107.984 53.0863 106.926 49.2264 106.093 46.8037C105.787 45.9816 105.074 44.4242 104.462 43.3211C102.92 40.5405 101.867 39.8327 99.3782 39.9507C97.0887 40.0485 94.6278 40.8122 89.7998 42.8885C84.0476 45.3572 79.7257 46.6121 77.4594 46.4265C76.4564 46.3517 75.8575 45.2717 76.1851 44.1285C76.5127 42.9853 77.7334 42.0981 81.7522 40.0799C85.3549 38.2323 87.9512 37.3334 91.4534 36.7134L93.7176 36.2991L92.996 35.3772C90.9282 32.6778 86.6151 29.1804 84.1861 28.2138C81.997 27.3545 80.8151 27.4991 77.6491 29.1045C75.2209 30.3609 74.6387 30.7739 71.7373 33.3443C62.691 41.3053 56.6313 45.3868 55.8539 43.985C55.5226 43.3875 56.0804 41.5758 57.0207 40.183C59.6449 36.3541 64.1852 33.3256 69.3392 31.9999C70.1306 31.8015 70.779 31.562 70.7995 31.4906C70.8916 31.1691 67.8591 28.4639 66.0556 27.2706C63.6348 25.6684 61.295 24.8626 59.3578 24.9453C58.0306 24.9902 57.5327 25.1761 55.6483 26.2211C53.0745 27.6483 51.2741 29.0073 50.4412 30.1603C50.132 30.6322 49.6254 32.2652 49.3051 33.855C48.708 36.9505 47.7723 39.0017 46.7382 39.5752C46.2556 39.8428 45.8064 39.7914 44.8701 39.3491C43.4898 38.7023 43.1788 38.3039 43.1339 36.9767C43.0518 34.2279 44.0771 31.7964 46.3633 29.4169L47.7248 27.9709L46.0606 28.1125C42.4387 28.4082 39.9391 29.6441 38.4008 31.9093C36.7937 34.2128 36.526 37.0354 37.2876 42.2017C37.6839 44.596 39.1164 50.3219 40.1375 53.3012L40.4634 54.3223L38.3283 52.8021C35.502 50.7938 31.656 47.2176 29.7946 44.9446C27.2601 41.783 25.1324 37.4042 24.5659 34.0526C24.4109 33.1771 24.2277 32.4674 24.192 32.4572C23.1328 32.4436 21.3435 32.6846 21.328 32.8735C21.3121 33.6034 23.5464 38.8245 25.0628 41.5592C27.535 46.0174 31.1026 49.9583 36.4208 54.1303L38.2343 55.5584L35.4198 54.6553C29.4695 52.7568 22.1478 51.7991 16.53 52.1801C11.3103 52.5206 9.07123 53.5219 7.51732 56.2465C6.70716 57.6572 4.50182 64.4088 4.82333 64.5009C4.90753 64.5444 5.8422 63.8458 6.92248 62.9763C10.3115 60.2557 14.2202 58.6891 18.1993 58.4957C20.0651 58.3925 20.1365 58.413 20.5723 59.253C21.138 60.3816 21.0478 61.5734 20.312 62.5223C19.1061 64.0323 13.7214 66.5676 9.10346 67.7763C5.84612 68.6211 4.70212 69.3756 3.51883 71.414C1.96492 74.1386 1.82994 77.0378 3.07228 81.0663C3.85129 83.6089 6.65919 89.5936 6.92743 89.2646C7.01685 89.1549 7.92667 87.5987 8.95662 85.8257C9.98656 84.0527 11.4636 81.7313 12.2531 80.6625C14.0084 78.2469 18.5704 73.5237 20.2507 72.3816C21.3819 71.604 21.5913 71.5481 22.4129 71.7835C23.6989 72.152 24.0863 72.9589 23.5391 74.1937C23.0891 75.2245 14.4888 87.295 11.2544 91.4323C8.1988 95.3501 7.97775 97.3356 10.267 100.814C11.4498 102.622 14.6168 106.274 16.3435 107.87L17.2871 108.759L17.7515 105.587C18.211 102.298 19.542 97.383 20.4905 95.3547C21.3853 93.4463 26.747 84.3134 27.9044 82.7702C29.4042 80.7066 30.0426 80.2323 31.0149 80.4143L31.8086 80.5451L31.4043 81.8209C31.1868 82.5124 30.131 84.7805 29.0906 86.8598C28.0374 88.9161 26.8078 91.521 26.35 92.6462C24.1458 98.0451 20.7707 109.081 20.3854 112.179C20.1646 113.894 20.7247 115.717 21.8645 117.068C23.6876 119.272 28.0599 122.226 30.6702 123.032L32.1119 123.464L31.88 119.687C31.5427 113.714 32.4622 106.323 33.873 103.828C34.834 102.094 36.4829 101.87 37.0177 103.377C37.1654 103.805 37.2711 105.73 37.2696 107.624C37.2282 111.613 38.056 120.258 38.7302 123.099C38.9999 124.182 39.5831 125.721 40.0928 126.64C41.5201 129.214 42.9564 130.07 47.746 131.23C51.3823 132.098 53.4597 132.268 54.4147 131.769C54.8053 131.552 54.6679 131.088 53.0704 127.556C51.7302 124.544 50.9055 121.756 50.3697 118.297C49.7398 114.29 49.7484 113.113 50.3921 112.486C51.0715 111.869 53.0087 111.786 53.4447 112.356C53.6308 112.583 53.8105 114.586 53.893 116.794C54.1089 124.607 56.2238 132.268 58.5962 133.837C59.6982 134.578 63.4803 135.004 68.8554 134.998L70.8665 134.995L68.9678 131.571C67.9228 129.686 66.8806 127.59 66.6514 126.906C65.9742 124.818 65.7335 122.487 66.0613 121.074C66.3302 119.933 66.5295 119.642 67.2879 119.222C68.6437 118.47 69.7181 118.565 71.1364 119.551C73.246 121.026 74.7041 123.222 76.6505 127.761C77.5778 129.921 78.4569 131.777 78.5921 131.913C78.74 132.071 79.0843 132.421 79.3444 132.727C80.1604 133.657 82.6949 133.514 87.2669 132.33C88.5816 131.992 89.6384 131.676 89.6589 131.605ZM67.309 115.033C65.0885 115.093 63.3619 113.496 62.6443 110.739C61.8427 107.668 62.0544 104.637 63.1863 103.047C64.6963 100.948 67.2818 100.897 68.4032 102.919C69.308 104.55 70.0378 111.177 69.5615 113.244C69.2005 114.706 68.8021 115.017 67.309 115.033ZM79.4996 107.162C76.7084 105.975 76.1584 97.7769 78.7552 96.3369C79.0539 96.1713 79.664 96.1335 80.0569 96.2461C80.6999 96.4303 80.9091 96.6449 81.3294 97.6738C81.9866 99.2924 82.4167 104.132 82.02 105.584C81.6002 107.048 80.6376 107.642 79.4996 107.162ZM50.0351 108.808C48.9009 106.763 48.7002 102.337 49.4824 97.5161C50.0593 94.2216 50.5864 92.5171 51.276 91.8643C51.9094 91.2727 53.2239 91.2048 54.058 91.7338C54.6626 92.1196 54.7518 92.2805 54.9194 93.4496C55.0081 94.1515 54.8272 97.0762 54.5136 99.9243C53.7683 106.437 53.5427 107.764 52.9191 108.861C52.0118 110.476 50.9526 110.462 50.0351 108.808ZM91.9616 85.2577C89.8483 85.3479 85.8543 84.9186 83.596 84.3681C82.0267 83.9764 81.7256 83.8128 81.3051 83.0544C80.9355 82.388 80.918 81.9771 81.1712 81.2958C81.8132 79.5276 82.7015 79.3956 90.4855 79.8866C98.0934 80.3852 100.227 81.0351 99.6408 82.7421C99.2033 84.0664 95.9432 85.123 91.9616 85.2577ZM64.581 98.2477C63.2394 97.1288 62.8513 94.0989 63.7467 91.3789C64.6294 88.6359 66.3633 87.3739 68.1263 88.1691C68.7616 88.4478 68.912 88.6648 69.1257 89.5379C69.4667 90.9112 69.2861 96.6001 68.8975 97.4165C68.2278 98.8095 65.79 99.29 64.581 98.2477ZM100.697 70.2879C99.1295 70.7665 96.858 70.7341 95.0004 70.2018C93.1427 69.6695 92.7882 69.3552 93.0441 68.4622C93.2976 67.5104 94.0764 67.0184 95.9883 66.6192C99.5902 65.8538 103.111 67.0561 102.469 68.8243C102.152 69.6612 101.79 69.9825 100.697 70.2879ZM37.4995 100.886C36.6033 101.383 35.1984 99.608 35.3373 98.1789C35.3657 97.7425 35.901 95.4025 36.5256 92.9528C38.0439 86.9128 38.8822 85.3361 39.9303 86.4676C41.3227 87.949 40.5158 94.9467 38.4398 99.4932C38.1611 100.128 37.7293 100.759 37.4995 100.886ZM83.4835 71.5404C79.438 71.8307 77.1895 71.7856 76.396 71.3842C75.7837 71.0928 75.5113 70.2223 75.864 69.6661C76.858 68.1534 81.7899 66.8607 86.6494 66.9003C90.7202 66.9264 91.7892 67.4454 91.479 69.27C91.2276 70.8216 90.518 71.0048 83.4835 71.5404ZM83.7387 58.5087C82.2634 58.6658 80.2061 58.9654 79.1569 59.1866C74.0031 60.2417 72.0965 60.2173 71.8576 59.0277C71.4279 56.9524 78.3923 54.5026 86.1592 54.0416C91.555 53.6936 93.0426 54.1006 92.5487 55.7566C92.2032 57.0299 89.3363 57.9286 83.7387 58.5087ZM41.5578 81.0581C41.2647 80.5295 41.2651 79.9885 41.6284 78.8555C42.3116 76.6739 44.5027 71.7931 45.0339 71.2882C47.0926 69.3654 46.9791 74.1457 44.8546 78.659C43.2671 81.9731 42.4243 82.6208 41.5578 81.0581ZM60.9929 65.1727C60.5469 64.3684 61.1755 63.3888 62.8226 62.2952C65.2817 60.6611 68.3573 60.5181 68.7389 62.0191C68.8509 62.4378 68.7178 62.9022 68.3474 63.3179C66.618 65.2384 61.7193 66.4826 60.9929 65.1727ZM72.039 48.9516C70.267 49.8741 65.4903 51.7718 64.625 51.8911C63.5963 52.0409 63.4258 51.3542 64.1898 50.2394C65.2757 48.6757 71.5874 45.5363 73.2309 45.7367C73.9888 45.8572 74.2585 46.9396 73.6913 47.7048C73.4588 48.0441 72.7054 48.582 72.039 48.9516ZM31.8797 67.886C30.677 68.643 30.2838 68.801 29.6791 68.6857C29.133 68.5678 28.9366 68.3762 28.8706 67.9321C28.6498 66.3419 32.4244 63.2872 33.9758 63.8091C34.8356 64.1135 34.8505 64.7363 33.9868 65.9964C33.6317 66.4938 32.6918 67.3455 31.8797 67.886ZM47.4938 55.6218C46.3563 54.6 49.2558 51.1593 51.0652 51.3879C51.9635 51.4907 52.0036 52.4299 51.1657 53.4655C50.3047 54.5138 47.8841 55.9463 47.4938 55.6218Z" fill="#F9F5EE" fill-opacity="0.5"/>
</svg>
