<svg width="629" height="215" viewBox="0 0 629 215" fill="none" xmlns="http://www.w3.org/2000/svg">
<circle cx="53" cy="53" r="53" fill="#034638"/>
<path d="M47.1887 64.9093H51.3423V40.4699L46.895 44.3928L44.5454 41.6447L52.6849 33.1696H56.7337L56.7127 33.2115L56.7337 33.1905V64.9093H60.8663V69H47.1887V64.9093Z" fill="white"/>
<path d="M55 104V211H629" stroke="#034638" stroke-width="7"/>
<path d="M145.566 52.9766H151.508L154.391 64.5957C154.695 65.8848 154.936 67.1152 155.111 68.2871C155.287 69.4473 155.457 70.543 155.621 71.5742H155.762C155.926 70.543 156.096 69.4473 156.271 68.2871C156.447 67.1152 156.688 65.8848 156.992 64.5957L159.963 52.9766H165.781V83H161.527V73.0684C161.527 71.5449 161.539 70.0801 161.562 68.6738C161.598 67.2676 161.639 65.9785 161.686 64.8066C161.732 63.623 161.785 62.5801 161.844 61.6777C161.902 60.7754 161.955 60.0605 162.002 59.5332H161.668L157.133 79.1328H154.25L149.68 59.5332H149.346C149.393 60.0605 149.445 60.7754 149.504 61.6777C149.562 62.5801 149.615 63.623 149.662 64.8066C149.709 65.9785 149.744 67.2676 149.768 68.6738C149.803 70.0801 149.82 71.5449 149.82 73.0684V83H145.566V52.9766ZM173.973 83.2637C173.223 83.2637 172.555 83.1172 171.969 82.8242C171.395 82.5195 170.908 82.1094 170.51 81.5938C170.111 81.0781 169.807 80.4688 169.596 79.7656C169.396 79.0508 169.297 78.2773 169.297 77.4453C169.297 76.4492 169.42 75.5645 169.666 74.791C169.912 74.0176 170.27 73.3203 170.738 72.6992C171.219 72.0781 171.811 71.5156 172.514 71.0117C173.217 70.4961 174.031 70.0098 174.957 69.5527C175.402 69.3301 175.9 69.1074 176.451 68.8848C177.014 68.6504 177.512 68.4512 177.945 68.2871V65.0879C177.945 64.6191 177.928 64.1855 177.893 63.7871C177.857 63.377 177.77 63.0254 177.629 62.7324C177.5 62.4277 177.301 62.1934 177.031 62.0293C176.762 61.8535 176.393 61.7656 175.924 61.7656C175.607 61.7656 175.297 61.8242 174.992 61.9414C174.699 62.0586 174.436 62.2578 174.201 62.5391C173.979 62.8203 173.797 63.1953 173.656 63.6641C173.527 64.1328 173.463 64.7129 173.463 65.4043V66.459H170.07C169.965 66.002 169.883 65.5859 169.824 65.2109C169.777 64.8242 169.754 64.4434 169.754 64.0684C169.754 63.166 169.906 62.3691 170.211 61.6777C170.527 60.9863 170.961 60.4062 171.512 59.9375C172.074 59.4688 172.742 59.1172 173.516 58.8828C174.289 58.6367 175.139 58.5137 176.064 58.5137C177.271 58.5137 178.273 58.6484 179.07 58.918C179.867 59.1758 180.5 59.5684 180.969 60.0957C181.449 60.623 181.783 61.2852 181.971 62.082C182.17 62.8789 182.27 63.8105 182.27 64.877V83H178.965L178.648 80.9258C178.168 81.6172 177.523 82.1797 176.715 82.6133C175.918 83.0469 175.004 83.2637 173.973 83.2637ZM175.941 79.8359C176.316 79.8359 176.68 79.7422 177.031 79.5547C177.395 79.3555 177.699 79.1152 177.945 78.834V71.2578C177.711 71.3516 177.447 71.4629 177.154 71.5918C176.861 71.7207 176.545 71.8906 176.205 72.1016C175.889 72.3008 175.578 72.541 175.273 72.8223C174.969 73.1035 174.693 73.4375 174.447 73.8242C174.213 74.2109 174.02 74.6504 173.867 75.1426C173.727 75.623 173.656 76.1621 173.656 76.7598C173.656 77.6855 173.838 78.4297 174.201 78.9922C174.564 79.5547 175.145 79.8359 175.941 79.8359ZM187.385 61.959H185.504V58.7949H187.771L188.668 52.5195H191.832V58.7949H195.699V61.959H191.832V77.3574C191.832 77.8848 191.879 78.3125 191.973 78.6406C192.078 78.957 192.219 79.209 192.395 79.3965C192.57 79.5723 192.775 79.6895 193.01 79.748C193.244 79.8066 193.49 79.8359 193.748 79.8359C194.182 79.8359 194.562 79.7832 194.891 79.6777C195.23 79.5723 195.553 79.4258 195.857 79.2383V81.6992C195.6 82.0156 195.318 82.2734 195.014 82.4727C194.721 82.6719 194.416 82.8359 194.1 82.9648C193.783 83.082 193.461 83.1641 193.133 83.2109C192.805 83.2578 192.482 83.2812 192.166 83.2812C191.545 83.2812 190.947 83.1992 190.373 83.0352C189.799 82.8711 189.289 82.5605 188.844 82.1035C188.398 81.6348 188.041 80.9902 187.771 80.1699C187.514 79.3496 187.385 78.2832 187.385 76.9707V61.959ZM204.594 83.2637C203.551 83.2637 202.625 83.0703 201.816 82.6836C201.02 82.2969 200.346 81.6934 199.795 80.873C199.244 80.0527 198.828 79.0039 198.547 77.7266C198.266 76.4375 198.125 74.8906 198.125 73.0859V68.5156C198.125 66.9805 198.236 65.668 198.459 64.5781C198.693 63.4766 198.992 62.5566 199.355 61.8184C199.73 61.0684 200.158 60.4766 200.639 60.043C201.131 59.6094 201.635 59.2812 202.15 59.0586C202.666 58.8242 203.176 58.6777 203.68 58.6191C204.195 58.5488 204.67 58.5137 205.104 58.5137C205.9 58.5137 206.668 58.6367 207.406 58.8828C208.145 59.1172 208.795 59.5273 209.357 60.1133C209.92 60.6875 210.365 61.4609 210.693 62.4336C211.033 63.4062 211.203 64.6191 211.203 66.0723C211.203 66.5645 211.186 67.0625 211.15 67.5664C211.127 68.0703 211.092 68.5684 211.045 69.0605C210.998 69.541 210.934 70.0098 210.852 70.4668C210.781 70.9238 210.705 71.3457 210.623 71.7324H202.59V74.1934C202.59 75.248 202.631 76.1387 202.713 76.8652C202.795 77.5801 202.93 78.1602 203.117 78.6055C203.316 79.0391 203.58 79.3555 203.908 79.5547C204.248 79.7422 204.67 79.8359 205.174 79.8359C205.443 79.8359 205.707 79.7832 205.965 79.6777C206.223 79.5605 206.445 79.373 206.633 79.1152C206.832 78.8574 206.99 78.5176 207.107 78.0957C207.225 77.6621 207.283 77.1289 207.283 76.4961V75.7402H210.992V76.6719C210.992 78.9688 210.441 80.6445 209.34 81.6992C208.25 82.7422 206.668 83.2637 204.594 83.2637ZM207.055 68.7441C207.066 68.6152 207.078 68.4453 207.09 68.2344C207.102 68.0117 207.107 67.7832 207.107 67.5488C207.119 67.3145 207.125 67.0859 207.125 66.8633C207.125 66.6289 207.125 66.4297 207.125 66.2656C207.125 64.6719 206.938 63.5234 206.562 62.8203C206.188 62.1172 205.631 61.7656 204.893 61.7656C204.506 61.7656 204.166 61.8594 203.873 62.0469C203.58 62.2227 203.34 62.5273 203.152 62.9609C202.965 63.3828 202.824 63.9453 202.73 64.6484C202.637 65.3516 202.59 66.2246 202.59 67.2676V68.7441H207.055ZM214.965 58.7949H218.217L218.604 61.2559C219.096 60.3418 219.658 59.6562 220.291 59.1992C220.936 58.7422 221.592 58.5137 222.26 58.5137C223.537 58.5137 224.48 58.9062 225.09 59.6914C225.699 60.4766 226.004 61.6543 226.004 63.2246C226.004 63.4238 225.986 63.6641 225.951 63.9453C225.928 64.2148 225.887 64.502 225.828 64.8066C225.781 65.0996 225.717 65.3984 225.635 65.7031C225.564 65.9961 225.488 66.2656 225.406 66.5117H222.312V64.2617C222.312 63.7695 222.277 63.3652 222.207 63.0488C222.148 62.7324 222.066 62.4805 221.961 62.293C221.855 62.0938 221.732 61.959 221.592 61.8887C221.451 61.8066 221.299 61.7656 221.135 61.7656C220.783 61.7656 220.455 61.8828 220.15 62.1172C219.857 62.3398 219.611 62.6562 219.412 63.0664V83H214.965V58.7949ZM231.189 55.332C230.369 55.332 229.719 55.0859 229.238 54.5938C228.77 54.1016 228.535 53.3809 228.535 52.4316C228.535 51.9043 228.594 51.4648 228.711 51.1133C228.84 50.75 229.016 50.4629 229.238 50.252C229.473 50.0293 229.754 49.8711 230.082 49.7773C230.41 49.6719 230.785 49.6191 231.207 49.6191C232.086 49.6191 232.754 49.8418 233.211 50.2871C233.668 50.7324 233.896 51.4473 233.896 52.4316C233.896 53.3457 233.662 54.0605 233.193 54.5762C232.736 55.0801 232.068 55.332 231.189 55.332ZM228.887 58.7949H233.334V83H228.887V58.7949ZM241.332 83.2637C240.582 83.2637 239.914 83.1172 239.328 82.8242C238.754 82.5195 238.268 82.1094 237.869 81.5938C237.471 81.0781 237.166 80.4688 236.955 79.7656C236.756 79.0508 236.656 78.2773 236.656 77.4453C236.656 76.4492 236.779 75.5645 237.025 74.791C237.271 74.0176 237.629 73.3203 238.098 72.6992C238.578 72.0781 239.17 71.5156 239.873 71.0117C240.576 70.4961 241.391 70.0098 242.316 69.5527C242.762 69.3301 243.26 69.1074 243.811 68.8848C244.373 68.6504 244.871 68.4512 245.305 68.2871V65.0879C245.305 64.6191 245.287 64.1855 245.252 63.7871C245.217 63.377 245.129 63.0254 244.988 62.7324C244.859 62.4277 244.66 62.1934 244.391 62.0293C244.121 61.8535 243.752 61.7656 243.283 61.7656C242.967 61.7656 242.656 61.8242 242.352 61.9414C242.059 62.0586 241.795 62.2578 241.561 62.5391C241.338 62.8203 241.156 63.1953 241.016 63.6641C240.887 64.1328 240.822 64.7129 240.822 65.4043V66.459H237.43C237.324 66.002 237.242 65.5859 237.184 65.2109C237.137 64.8242 237.113 64.4434 237.113 64.0684C237.113 63.166 237.266 62.3691 237.57 61.6777C237.887 60.9863 238.32 60.4062 238.871 59.9375C239.434 59.4688 240.102 59.1172 240.875 58.8828C241.648 58.6367 242.498 58.5137 243.424 58.5137C244.631 58.5137 245.633 58.6484 246.43 58.918C247.227 59.1758 247.859 59.5684 248.328 60.0957C248.809 60.623 249.143 61.2852 249.33 62.082C249.529 62.8789 249.629 63.8105 249.629 64.877V83H246.324L246.008 80.9258C245.527 81.6172 244.883 82.1797 244.074 82.6133C243.277 83.0469 242.363 83.2637 241.332 83.2637ZM243.301 79.8359C243.676 79.8359 244.039 79.7422 244.391 79.5547C244.754 79.3555 245.059 79.1152 245.305 78.834V71.2578C245.07 71.3516 244.807 71.4629 244.514 71.5918C244.221 71.7207 243.904 71.8906 243.564 72.1016C243.248 72.3008 242.938 72.541 242.633 72.8223C242.328 73.1035 242.053 73.4375 241.807 73.8242C241.572 74.2109 241.379 74.6504 241.227 75.1426C241.086 75.623 241.016 76.1621 241.016 76.7598C241.016 77.6855 241.197 78.4297 241.561 78.9922C241.924 79.5547 242.504 79.8359 243.301 79.8359ZM266.381 84.3711V90.8223H261.934V58.7949H265.414L265.818 61.3438C266.018 61.0156 266.252 60.6816 266.521 60.3418C266.803 60.002 267.125 59.7031 267.488 59.4453C267.863 59.1758 268.279 58.959 268.736 58.7949C269.205 58.6191 269.727 58.5312 270.301 58.5312C270.547 58.5312 270.84 58.5547 271.18 58.6016C271.531 58.6484 271.889 58.7656 272.252 58.9531C272.627 59.1406 272.996 59.4219 273.359 59.7969C273.734 60.1602 274.062 60.6641 274.344 61.3086C274.637 61.9531 274.871 62.7559 275.047 63.7168C275.234 64.6777 275.328 65.8438 275.328 67.2148V74.5449C275.328 75.916 275.234 77.082 275.047 78.043C274.871 79.0039 274.637 79.8066 274.344 80.4512C274.051 81.0957 273.717 81.6055 273.342 81.9805C272.967 82.3555 272.586 82.6367 272.199 82.8242C271.812 83.0117 271.438 83.1289 271.074 83.1758C270.711 83.2344 270.395 83.2637 270.125 83.2637C269.188 83.2637 268.402 83.082 267.77 82.7188C267.148 82.3555 266.639 81.916 266.24 81.4004L266.381 84.3711ZM266.381 78.0605C266.475 78.2949 266.586 78.5176 266.715 78.7285C266.855 78.9395 267.014 79.127 267.189 79.291C267.377 79.4551 267.582 79.5898 267.805 79.6953C268.039 79.7891 268.309 79.8359 268.613 79.8359C268.941 79.8359 269.24 79.7773 269.51 79.6602C269.779 79.5312 270.014 79.3086 270.213 78.9922C270.412 78.6641 270.564 78.2129 270.67 77.6387C270.787 77.0645 270.846 76.3262 270.846 75.4238V66.1602C270.846 65.2578 270.787 64.5254 270.67 63.9629C270.564 63.3887 270.412 62.9375 270.213 62.6094C270.025 62.2812 269.797 62.0586 269.527 61.9414C269.258 61.8242 268.959 61.7656 268.631 61.7656C268.068 61.7656 267.605 61.9355 267.242 62.2754C266.891 62.6035 266.604 62.9902 266.381 63.4355V78.0605ZM279.336 58.7949H282.588L282.975 61.2559C283.467 60.3418 284.029 59.6562 284.662 59.1992C285.307 58.7422 285.963 58.5137 286.631 58.5137C287.908 58.5137 288.852 58.9062 289.461 59.6914C290.07 60.4766 290.375 61.6543 290.375 63.2246C290.375 63.4238 290.357 63.6641 290.322 63.9453C290.299 64.2148 290.258 64.502 290.199 64.8066C290.152 65.0996 290.088 65.3984 290.006 65.7031C289.936 65.9961 289.859 66.2656 289.777 66.5117H286.684V64.2617C286.684 63.7695 286.648 63.3652 286.578 63.0488C286.52 62.7324 286.438 62.4805 286.332 62.293C286.227 62.0938 286.104 61.959 285.963 61.8887C285.822 61.8066 285.67 61.7656 285.506 61.7656C285.154 61.7656 284.826 61.8828 284.521 62.1172C284.229 62.3398 283.982 62.6562 283.783 63.0664V83H279.336V58.7949ZM295.561 55.332C294.74 55.332 294.09 55.0859 293.609 54.5938C293.141 54.1016 292.906 53.3809 292.906 52.4316C292.906 51.9043 292.965 51.4648 293.082 51.1133C293.211 50.75 293.387 50.4629 293.609 50.252C293.844 50.0293 294.125 49.8711 294.453 49.7773C294.781 49.6719 295.156 49.6191 295.578 49.6191C296.457 49.6191 297.125 49.8418 297.582 50.2871C298.039 50.7324 298.268 51.4473 298.268 52.4316C298.268 53.3457 298.033 54.0605 297.564 54.5762C297.107 55.0801 296.439 55.332 295.561 55.332ZM293.258 58.7949H297.705V83H293.258V58.7949ZM302.363 58.7949H305.809L306.195 61.3789V61.3965C306.547 60.8457 306.922 60.3887 307.32 60.0254C307.719 59.6504 308.129 59.3516 308.551 59.1289C308.984 58.9062 309.424 58.748 309.869 58.6543C310.326 58.5605 310.777 58.5137 311.223 58.5137C312.172 58.5137 312.975 58.7422 313.631 59.1992C314.287 59.6562 314.785 60.3418 315.125 61.2559C315.477 60.7285 315.846 60.2891 316.232 59.9375C316.631 59.5859 317.041 59.3047 317.463 59.0938C317.885 58.8828 318.312 58.7363 318.746 58.6543C319.18 58.5605 319.619 58.5137 320.064 58.5137C321.471 58.5137 322.555 59.0117 323.316 60.0078C324.09 60.9922 324.477 62.4746 324.477 64.4551V83H320.029V64.6133C320.029 64.0859 319.988 63.6406 319.906 63.2773C319.824 62.9141 319.701 62.6211 319.537 62.3984C319.373 62.1758 319.162 62.0176 318.904 61.9238C318.646 61.8184 318.336 61.7656 317.973 61.7656C317.562 61.7656 317.152 61.918 316.742 62.2227C316.332 62.5156 315.957 62.9258 315.617 63.4531C315.629 63.5586 315.635 63.6641 315.635 63.7695C315.635 63.875 315.635 63.9805 315.635 64.0859V83H311.188V64.6133C311.188 64.0859 311.146 63.6406 311.064 63.2773C310.982 62.9141 310.859 62.6211 310.695 62.3984C310.531 62.1758 310.32 62.0176 310.062 61.9238C309.805 61.8184 309.494 61.7656 309.131 61.7656C308.732 61.7656 308.328 61.9121 307.918 62.2051C307.508 62.498 307.139 62.9023 306.811 63.418V83H302.363V58.7949ZM332.422 83.2637C331.672 83.2637 331.004 83.1172 330.418 82.8242C329.844 82.5195 329.357 82.1094 328.959 81.5938C328.561 81.0781 328.256 80.4688 328.045 79.7656C327.846 79.0508 327.746 78.2773 327.746 77.4453C327.746 76.4492 327.869 75.5645 328.115 74.791C328.361 74.0176 328.719 73.3203 329.188 72.6992C329.668 72.0781 330.26 71.5156 330.963 71.0117C331.666 70.4961 332.48 70.0098 333.406 69.5527C333.852 69.3301 334.35 69.1074 334.9 68.8848C335.463 68.6504 335.961 68.4512 336.395 68.2871V65.0879C336.395 64.6191 336.377 64.1855 336.342 63.7871C336.307 63.377 336.219 63.0254 336.078 62.7324C335.949 62.4277 335.75 62.1934 335.48 62.0293C335.211 61.8535 334.842 61.7656 334.373 61.7656C334.057 61.7656 333.746 61.8242 333.441 61.9414C333.148 62.0586 332.885 62.2578 332.65 62.5391C332.428 62.8203 332.246 63.1953 332.105 63.6641C331.977 64.1328 331.912 64.7129 331.912 65.4043V66.459H328.52C328.414 66.002 328.332 65.5859 328.273 65.2109C328.227 64.8242 328.203 64.4434 328.203 64.0684C328.203 63.166 328.355 62.3691 328.66 61.6777C328.977 60.9863 329.41 60.4062 329.961 59.9375C330.523 59.4688 331.191 59.1172 331.965 58.8828C332.738 58.6367 333.588 58.5137 334.514 58.5137C335.721 58.5137 336.723 58.6484 337.52 58.918C338.316 59.1758 338.949 59.5684 339.418 60.0957C339.898 60.623 340.232 61.2852 340.42 62.082C340.619 62.8789 340.719 63.8105 340.719 64.877V83H337.414L337.098 80.9258C336.617 81.6172 335.973 82.1797 335.164 82.6133C334.367 83.0469 333.453 83.2637 332.422 83.2637ZM334.391 79.8359C334.766 79.8359 335.129 79.7422 335.48 79.5547C335.844 79.3555 336.148 79.1152 336.395 78.834V71.2578C336.16 71.3516 335.896 71.4629 335.604 71.5918C335.311 71.7207 334.994 71.8906 334.654 72.1016C334.338 72.3008 334.027 72.541 333.723 72.8223C333.418 73.1035 333.143 73.4375 332.896 73.8242C332.662 74.2109 332.469 74.6504 332.316 75.1426C332.176 75.623 332.105 76.1621 332.105 76.7598C332.105 77.6855 332.287 78.4297 332.65 78.9922C333.014 79.5547 333.594 79.8359 334.391 79.8359Z" fill="black"/>
<path d="M143.04 129L149.44 115H150.9L157.3 129H155.74L149.86 115.86H150.46L144.58 129H143.04ZM145.56 125.26L146 124.06H154.14L154.58 125.26H145.56ZM167.87 129.1C166.884 129.1 166.124 128.833 165.59 128.3C165.057 127.767 164.79 127.013 164.79 126.04V116.18H166.21V125.96C166.21 126.573 166.364 127.047 166.67 127.38C166.99 127.713 167.444 127.88 168.03 127.88C168.657 127.88 169.177 127.7 169.59 127.34L170.09 128.36C169.81 128.613 169.47 128.8 169.07 128.92C168.684 129.04 168.284 129.1 167.87 129.1ZM162.91 119.68V118.5H169.41V119.68H162.91ZM172.675 129V118.5H174.035V121.36L173.895 120.86C174.189 120.06 174.682 119.453 175.375 119.04C176.069 118.613 176.929 118.4 177.955 118.4V119.78C177.902 119.78 177.849 119.78 177.795 119.78C177.742 119.767 177.689 119.76 177.635 119.76C176.529 119.76 175.662 120.1 175.035 120.78C174.409 121.447 174.095 122.4 174.095 123.64V129H172.675ZM186.345 129V126.68L186.285 126.3V122.42C186.285 121.527 186.032 120.84 185.525 120.36C185.032 119.88 184.292 119.64 183.305 119.64C182.625 119.64 181.978 119.753 181.365 119.98C180.752 120.207 180.232 120.507 179.805 120.88L179.165 119.82C179.698 119.367 180.338 119.02 181.085 118.78C181.832 118.527 182.618 118.4 183.445 118.4C184.805 118.4 185.852 118.74 186.585 119.42C187.332 120.087 187.705 121.107 187.705 122.48V129H186.345ZM182.725 129.1C181.938 129.1 181.252 128.973 180.665 128.72C180.092 128.453 179.652 128.093 179.345 127.64C179.038 127.173 178.885 126.64 178.885 126.04C178.885 125.493 179.012 125 179.265 124.56C179.532 124.107 179.958 123.747 180.545 123.48C181.145 123.2 181.945 123.06 182.945 123.06H186.565V124.12H182.985C181.972 124.12 181.265 124.3 180.865 124.66C180.478 125.02 180.285 125.467 180.285 126C180.285 126.6 180.518 127.08 180.985 127.44C181.452 127.8 182.105 127.98 182.945 127.98C183.745 127.98 184.432 127.8 185.005 127.44C185.592 127.067 186.018 126.533 186.285 125.84L186.605 126.82C186.338 127.513 185.872 128.067 185.205 128.48C184.552 128.893 183.725 129.1 182.725 129.1ZM194.067 129L189.407 118.5H190.887L195.167 128.24H194.467L198.807 118.5H200.207L195.527 129H194.067ZM206.374 129.1C205.28 129.1 204.32 128.873 203.494 128.42C202.667 127.953 202.02 127.32 201.554 126.52C201.087 125.707 200.854 124.78 200.854 123.74C200.854 122.7 201.074 121.78 201.514 120.98C201.967 120.18 202.58 119.553 203.354 119.1C204.14 118.633 205.02 118.4 205.994 118.4C206.98 118.4 207.854 118.627 208.614 119.08C209.387 119.52 209.994 120.147 210.434 120.96C210.874 121.76 211.094 122.687 211.094 123.74C211.094 123.807 211.087 123.88 211.074 123.96C211.074 124.027 211.074 124.1 211.074 124.18H201.934V123.12H210.314L209.754 123.54C209.754 122.78 209.587 122.107 209.254 121.52C208.934 120.92 208.494 120.453 207.934 120.12C207.374 119.787 206.727 119.62 205.994 119.62C205.274 119.62 204.627 119.787 204.054 120.12C203.48 120.453 203.034 120.92 202.714 121.52C202.394 122.12 202.234 122.807 202.234 123.58V123.8C202.234 124.6 202.407 125.307 202.754 125.92C203.114 126.52 203.607 126.993 204.234 127.34C204.874 127.673 205.6 127.84 206.414 127.84C207.054 127.84 207.647 127.727 208.194 127.5C208.754 127.273 209.234 126.927 209.634 126.46L210.434 127.38C209.967 127.94 209.38 128.367 208.674 128.66C207.98 128.953 207.214 129.1 206.374 129.1ZM204.674 116.86L207.414 114.38H209.314L206.074 116.86H204.674ZM216.804 129.1C215.937 129.1 215.117 128.98 214.344 128.74C213.571 128.487 212.964 128.173 212.524 127.8L213.164 126.68C213.591 127 214.137 127.28 214.804 127.52C215.471 127.747 216.171 127.86 216.904 127.86C217.904 127.86 218.624 127.707 219.064 127.4C219.504 127.08 219.724 126.66 219.724 126.14C219.724 125.753 219.597 125.453 219.344 125.24C219.104 125.013 218.784 124.847 218.384 124.74C217.984 124.62 217.537 124.52 217.044 124.44C216.551 124.36 216.057 124.267 215.564 124.16C215.084 124.053 214.644 123.9 214.244 123.7C213.844 123.487 213.517 123.2 213.264 122.84C213.024 122.48 212.904 122 212.904 121.4C212.904 120.827 213.064 120.313 213.384 119.86C213.704 119.407 214.171 119.053 214.784 118.8C215.411 118.533 216.171 118.4 217.064 118.4C217.744 118.4 218.424 118.493 219.104 118.68C219.784 118.853 220.344 119.087 220.784 119.38L220.164 120.52C219.697 120.2 219.197 119.973 218.664 119.84C218.131 119.693 217.597 119.62 217.064 119.62C216.117 119.62 215.417 119.787 214.964 120.12C214.524 120.44 214.304 120.853 214.304 121.36C214.304 121.76 214.424 122.073 214.664 122.3C214.917 122.527 215.244 122.707 215.644 122.84C216.057 122.96 216.504 123.06 216.984 123.14C217.477 123.22 217.964 123.32 218.444 123.44C218.937 123.547 219.384 123.7 219.784 123.9C220.197 124.087 220.524 124.36 220.764 124.72C221.017 125.067 221.144 125.527 221.144 126.1C221.144 126.713 220.971 127.247 220.624 127.7C220.291 128.14 219.797 128.487 219.144 128.74C218.504 128.98 217.724 129.1 216.804 129.1ZM233.164 129.1C232.164 129.1 231.264 128.873 230.464 128.42C229.677 127.967 229.057 127.34 228.604 126.54C228.151 125.727 227.924 124.793 227.924 123.74C227.924 122.673 228.151 121.74 228.604 120.94C229.057 120.14 229.677 119.52 230.464 119.08C231.264 118.627 232.164 118.4 233.164 118.4C234.084 118.4 234.904 118.607 235.624 119.02C236.357 119.433 236.937 120.04 237.364 120.84C237.804 121.627 238.024 122.593 238.024 123.74C238.024 124.873 237.811 125.84 237.384 126.64C236.957 127.44 236.377 128.053 235.644 128.48C234.924 128.893 234.097 129.1 233.164 129.1ZM233.264 127.84C234.011 127.84 234.677 127.673 235.264 127.34C235.864 126.993 236.331 126.513 236.664 125.9C237.011 125.273 237.184 124.553 237.184 123.74C237.184 122.913 237.011 122.193 236.664 121.58C236.331 120.967 235.864 120.493 235.264 120.16C234.677 119.813 234.011 119.64 233.264 119.64C232.531 119.64 231.871 119.813 231.284 120.16C230.697 120.493 230.231 120.967 229.884 121.58C229.537 122.193 229.364 122.913 229.364 123.74C229.364 124.553 229.537 125.273 229.884 125.9C230.231 126.513 230.697 126.993 231.284 127.34C231.871 127.673 232.531 127.84 233.264 127.84ZM237.224 129V125.84L237.364 123.72L237.164 121.6V114.16H238.584V129H237.224ZM246.999 129.1C245.905 129.1 244.945 128.873 244.119 128.42C243.292 127.953 242.645 127.32 242.179 126.52C241.712 125.707 241.479 124.78 241.479 123.74C241.479 122.7 241.699 121.78 242.139 120.98C242.592 120.18 243.205 119.553 243.979 119.1C244.765 118.633 245.645 118.4 246.619 118.4C247.605 118.4 248.479 118.627 249.239 119.08C250.012 119.52 250.619 120.147 251.059 120.96C251.499 121.76 251.719 122.687 251.719 123.74C251.719 123.807 251.712 123.88 251.699 123.96C251.699 124.027 251.699 124.1 251.699 124.18H242.559V123.12H250.939L250.379 123.54C250.379 122.78 250.212 122.107 249.879 121.52C249.559 120.92 249.119 120.453 248.559 120.12C247.999 119.787 247.352 119.62 246.619 119.62C245.899 119.62 245.252 119.787 244.679 120.12C244.105 120.453 243.659 120.92 243.339 121.52C243.019 122.12 242.859 122.807 242.859 123.58V123.8C242.859 124.6 243.032 125.307 243.379 125.92C243.739 126.52 244.232 126.993 244.859 127.34C245.499 127.673 246.225 127.84 247.039 127.84C247.679 127.84 248.272 127.727 248.819 127.5C249.379 127.273 249.859 126.927 250.259 126.46L251.059 127.38C250.592 127.94 250.005 128.367 249.299 128.66C248.605 128.953 247.839 129.1 246.999 129.1ZM254.609 129V114.16H256.029V129H254.609ZM271.794 129V126.68L271.734 126.3V122.42C271.734 121.527 271.481 120.84 270.974 120.36C270.481 119.88 269.741 119.64 268.754 119.64C268.074 119.64 267.428 119.753 266.814 119.98C266.201 120.207 265.681 120.507 265.254 120.88L264.614 119.82C265.148 119.367 265.788 119.02 266.534 118.78C267.281 118.527 268.068 118.4 268.894 118.4C270.254 118.4 271.301 118.74 272.034 119.42C272.781 120.087 273.154 121.107 273.154 122.48V129H271.794ZM268.174 129.1C267.388 129.1 266.701 128.973 266.114 128.72C265.541 128.453 265.101 128.093 264.794 127.64C264.488 127.173 264.334 126.64 264.334 126.04C264.334 125.493 264.461 125 264.714 124.56C264.981 124.107 265.408 123.747 265.994 123.48C266.594 123.2 267.394 123.06 268.394 123.06H272.014V124.12H268.434C267.421 124.12 266.714 124.3 266.314 124.66C265.928 125.02 265.734 125.467 265.734 126C265.734 126.6 265.968 127.08 266.434 127.44C266.901 127.8 267.554 127.98 268.394 127.98C269.194 127.98 269.881 127.8 270.454 127.44C271.041 127.067 271.468 126.533 271.734 125.84L272.054 126.82C271.788 127.513 271.321 128.067 270.654 128.48C270.001 128.893 269.174 129.1 268.174 129.1ZM281.491 132.98C280.531 132.98 279.611 132.84 278.731 132.56C277.851 132.28 277.138 131.88 276.591 131.36L277.311 130.28C277.805 130.72 278.411 131.067 279.131 131.32C279.865 131.587 280.638 131.72 281.451 131.72C282.785 131.72 283.765 131.407 284.391 130.78C285.018 130.167 285.331 129.207 285.331 127.9V125.28L285.531 123.48L285.391 121.68V118.5H286.751V127.72C286.751 129.533 286.305 130.86 285.411 131.7C284.531 132.553 283.225 132.98 281.491 132.98ZM281.231 128.6C280.231 128.6 279.331 128.387 278.531 127.96C277.731 127.52 277.098 126.913 276.631 126.14C276.178 125.367 275.951 124.48 275.951 123.48C275.951 122.48 276.178 121.6 276.631 120.84C277.098 120.067 277.731 119.467 278.531 119.04C279.331 118.613 280.231 118.4 281.231 118.4C282.165 118.4 283.005 118.593 283.751 118.98C284.498 119.367 285.091 119.94 285.531 120.7C285.971 121.46 286.191 122.387 286.191 123.48C286.191 124.573 285.971 125.5 285.531 126.26C285.091 127.02 284.498 127.6 283.751 128C283.005 128.4 282.165 128.6 281.231 128.6ZM281.371 127.34C282.145 127.34 282.831 127.18 283.431 126.86C284.031 126.527 284.505 126.073 284.851 125.5C285.198 124.913 285.371 124.24 285.371 123.48C285.371 122.72 285.198 122.053 284.851 121.48C284.505 120.907 284.031 120.46 283.431 120.14C282.831 119.807 282.145 119.64 281.371 119.64C280.611 119.64 279.925 119.807 279.311 120.14C278.711 120.46 278.238 120.907 277.891 121.48C277.558 122.053 277.391 122.72 277.391 123.48C277.391 124.24 277.558 124.913 277.891 125.5C278.238 126.073 278.711 126.527 279.311 126.86C279.925 127.18 280.611 127.34 281.371 127.34ZM295.043 129.1C294.149 129.1 293.369 128.933 292.703 128.6C292.036 128.267 291.516 127.767 291.143 127.1C290.783 126.433 290.603 125.6 290.603 124.6V118.5H292.023V124.44C292.023 125.56 292.296 126.407 292.843 126.98C293.403 127.54 294.183 127.82 295.183 127.82C295.916 127.82 296.549 127.673 297.083 127.38C297.629 127.073 298.043 126.633 298.323 126.06C298.616 125.487 298.763 124.8 298.763 124V118.5H300.183V129H298.823V126.12L299.043 126.64C298.709 127.413 298.189 128.02 297.483 128.46C296.789 128.887 295.976 129.1 295.043 129.1ZM310.72 129V126.68L310.66 126.3V122.42C310.66 121.527 310.407 120.84 309.9 120.36C309.407 119.88 308.667 119.64 307.68 119.64C307 119.64 306.353 119.753 305.74 119.98C305.127 120.207 304.607 120.507 304.18 120.88L303.54 119.82C304.073 119.367 304.713 119.02 305.46 118.78C306.207 118.527 306.993 118.4 307.82 118.4C309.18 118.4 310.227 118.74 310.96 119.42C311.707 120.087 312.08 121.107 312.08 122.48V129H310.72ZM307.1 129.1C306.313 129.1 305.627 128.973 305.04 128.72C304.467 128.453 304.027 128.093 303.72 127.64C303.413 127.173 303.26 126.64 303.26 126.04C303.26 125.493 303.387 125 303.64 124.56C303.907 124.107 304.333 123.747 304.92 123.48C305.52 123.2 306.32 123.06 307.32 123.06H310.94V124.12H307.36C306.347 124.12 305.64 124.3 305.24 124.66C304.853 125.02 304.66 125.467 304.66 126C304.66 126.6 304.893 127.08 305.36 127.44C305.827 127.8 306.48 127.98 307.32 127.98C308.12 127.98 308.807 127.8 309.38 127.44C309.967 127.067 310.393 126.533 310.66 125.84L310.98 126.82C310.713 127.513 310.247 128.067 309.58 128.48C308.927 128.893 308.1 129.1 307.1 129.1ZM325.351 129.1C324.351 129.1 323.451 128.873 322.651 128.42C321.865 127.967 321.245 127.34 320.791 126.54C320.338 125.727 320.111 124.793 320.111 123.74C320.111 122.673 320.338 121.74 320.791 120.94C321.245 120.14 321.865 119.52 322.651 119.08C323.451 118.627 324.351 118.4 325.351 118.4C326.271 118.4 327.091 118.607 327.811 119.02C328.545 119.433 329.125 120.04 329.551 120.84C329.991 121.627 330.211 122.593 330.211 123.74C330.211 124.873 329.998 125.84 329.571 126.64C329.145 127.44 328.565 128.053 327.831 128.48C327.111 128.893 326.285 129.1 325.351 129.1ZM325.451 127.84C326.198 127.84 326.865 127.673 327.451 127.34C328.051 126.993 328.518 126.513 328.851 125.9C329.198 125.273 329.371 124.553 329.371 123.74C329.371 122.913 329.198 122.193 328.851 121.58C328.518 120.967 328.051 120.493 327.451 120.16C326.865 119.813 326.198 119.64 325.451 119.64C324.718 119.64 324.058 119.813 323.471 120.16C322.885 120.493 322.418 120.967 322.071 121.58C321.725 122.193 321.551 122.913 321.551 123.74C321.551 124.553 321.725 125.273 322.071 125.9C322.418 126.513 322.885 126.993 323.471 127.34C324.058 127.673 324.718 127.84 325.451 127.84ZM329.411 129V125.84L329.551 123.72L329.351 121.6V114.16H330.771V129H329.411ZM339.186 129.1C338.093 129.1 337.133 128.873 336.306 128.42C335.479 127.953 334.833 127.32 334.366 126.52C333.899 125.707 333.666 124.78 333.666 123.74C333.666 122.7 333.886 121.78 334.326 120.98C334.779 120.18 335.393 119.553 336.166 119.1C336.953 118.633 337.833 118.4 338.806 118.4C339.793 118.4 340.666 118.627 341.426 119.08C342.199 119.52 342.806 120.147 343.246 120.96C343.686 121.76 343.906 122.687 343.906 123.74C343.906 123.807 343.899 123.88 343.886 123.96C343.886 124.027 343.886 124.1 343.886 124.18H334.746V123.12H343.126L342.566 123.54C342.566 122.78 342.399 122.107 342.066 121.52C341.746 120.92 341.306 120.453 340.746 120.12C340.186 119.787 339.539 119.62 338.806 119.62C338.086 119.62 337.439 119.787 336.866 120.12C336.293 120.453 335.846 120.92 335.526 121.52C335.206 122.12 335.046 122.807 335.046 123.58V123.8C335.046 124.6 335.219 125.307 335.566 125.92C335.926 126.52 336.419 126.993 337.046 127.34C337.686 127.673 338.413 127.84 339.226 127.84C339.866 127.84 340.459 127.727 341.006 127.5C341.566 127.273 342.046 126.927 342.446 126.46L343.246 127.38C342.779 127.94 342.193 128.367 341.486 128.66C340.793 128.953 340.026 129.1 339.186 129.1ZM365.151 118.4C366.004 118.4 366.744 118.567 367.371 118.9C368.011 119.22 368.504 119.713 368.851 120.38C369.211 121.047 369.391 121.887 369.391 122.9V129H367.971V123.04C367.971 121.933 367.704 121.1 367.171 120.54C366.651 119.967 365.911 119.68 364.951 119.68C364.231 119.68 363.604 119.833 363.071 120.14C362.551 120.433 362.144 120.867 361.851 121.44C361.571 122 361.431 122.68 361.431 123.48V129H360.011V123.04C360.011 121.933 359.744 121.1 359.211 120.54C358.677 119.967 357.931 119.68 356.971 119.68C356.264 119.68 355.644 119.833 355.111 120.14C354.577 120.433 354.164 120.867 353.871 121.44C353.591 122 353.451 122.68 353.451 123.48V129H352.031V118.5H353.391V121.34L353.171 120.84C353.491 120.08 354.004 119.487 354.711 119.06C355.431 118.62 356.277 118.4 357.251 118.4C358.277 118.4 359.151 118.66 359.871 119.18C360.591 119.687 361.057 120.453 361.271 121.48L360.711 121.26C361.017 120.407 361.557 119.72 362.331 119.2C363.117 118.667 364.057 118.4 365.151 118.4ZM379.822 129V126.68L379.762 126.3V122.42C379.762 121.527 379.508 120.84 379.002 120.36C378.508 119.88 377.768 119.64 376.782 119.64C376.102 119.64 375.455 119.753 374.842 119.98C374.228 120.207 373.708 120.507 373.282 120.88L372.642 119.82C373.175 119.367 373.815 119.02 374.562 118.78C375.308 118.527 376.095 118.4 376.922 118.4C378.282 118.4 379.328 118.74 380.062 119.42C380.808 120.087 381.182 121.107 381.182 122.48V129H379.822ZM376.202 129.1C375.415 129.1 374.728 128.973 374.142 128.72C373.568 128.453 373.128 128.093 372.822 127.64C372.515 127.173 372.362 126.64 372.362 126.04C372.362 125.493 372.488 125 372.742 124.56C373.008 124.107 373.435 123.747 374.022 123.48C374.622 123.2 375.422 123.06 376.422 123.06H380.042V124.12H376.462C375.448 124.12 374.742 124.3 374.342 124.66C373.955 125.02 373.762 125.467 373.762 126C373.762 126.6 373.995 127.08 374.462 127.44C374.928 127.8 375.582 127.98 376.422 127.98C377.222 127.98 377.908 127.8 378.482 127.44C379.068 127.067 379.495 126.533 379.762 125.84L380.082 126.82C379.815 127.513 379.348 128.067 378.682 128.48C378.028 128.893 377.202 129.1 376.202 129.1ZM385.039 129V118.5H386.399V121.36L386.259 120.86C386.552 120.06 387.045 119.453 387.739 119.04C388.432 118.613 389.292 118.4 390.319 118.4V119.78C390.265 119.78 390.212 119.78 390.159 119.78C390.105 119.767 390.052 119.76 389.999 119.76C388.892 119.76 388.025 120.1 387.399 120.78C386.772 121.447 386.459 122.4 386.459 123.64V129H385.039ZM401.12 129.1C400.254 129.1 399.434 128.98 398.66 128.74C397.887 128.487 397.28 128.173 396.84 127.8L397.48 126.68C397.907 127 398.454 127.28 399.12 127.52C399.787 127.747 400.487 127.86 401.22 127.86C402.22 127.86 402.94 127.707 403.38 127.4C403.82 127.08 404.04 126.66 404.04 126.14C404.04 125.753 403.914 125.453 403.66 125.24C403.42 125.013 403.1 124.847 402.7 124.74C402.3 124.62 401.854 124.52 401.36 124.44C400.867 124.36 400.374 124.267 399.88 124.16C399.4 124.053 398.96 123.9 398.56 123.7C398.16 123.487 397.834 123.2 397.58 122.84C397.34 122.48 397.22 122 397.22 121.4C397.22 120.827 397.38 120.313 397.7 119.86C398.02 119.407 398.487 119.053 399.1 118.8C399.727 118.533 400.487 118.4 401.38 118.4C402.06 118.4 402.74 118.493 403.42 118.68C404.1 118.853 404.66 119.087 405.1 119.38L404.48 120.52C404.014 120.2 403.514 119.973 402.98 119.84C402.447 119.693 401.914 119.62 401.38 119.62C400.434 119.62 399.734 119.787 399.28 120.12C398.84 120.44 398.62 120.853 398.62 121.36C398.62 121.76 398.74 122.073 398.98 122.3C399.234 122.527 399.56 122.707 399.96 122.84C400.374 122.96 400.82 123.06 401.3 123.14C401.794 123.22 402.28 123.32 402.76 123.44C403.254 123.547 403.7 123.7 404.1 123.9C404.514 124.087 404.84 124.36 405.08 124.72C405.334 125.067 405.46 125.527 405.46 126.1C405.46 126.713 405.287 127.247 404.94 127.7C404.607 128.14 404.114 128.487 403.46 128.74C402.82 128.98 402.04 129.1 401.12 129.1ZM412.526 129.1C411.433 129.1 410.473 128.873 409.646 128.42C408.819 127.953 408.173 127.32 407.706 126.52C407.239 125.707 407.006 124.78 407.006 123.74C407.006 122.7 407.226 121.78 407.666 120.98C408.119 120.18 408.733 119.553 409.506 119.1C410.293 118.633 411.173 118.4 412.146 118.4C413.133 118.4 414.006 118.627 414.766 119.08C415.539 119.52 416.146 120.147 416.586 120.96C417.026 121.76 417.246 122.687 417.246 123.74C417.246 123.807 417.239 123.88 417.226 123.96C417.226 124.027 417.226 124.1 417.226 124.18H408.086V123.12H416.466L415.906 123.54C415.906 122.78 415.739 122.107 415.406 121.52C415.086 120.92 414.646 120.453 414.086 120.12C413.526 119.787 412.879 119.62 412.146 119.62C411.426 119.62 410.779 119.787 410.206 120.12C409.633 120.453 409.186 120.92 408.866 121.52C408.546 122.12 408.386 122.807 408.386 123.58V123.8C408.386 124.6 408.559 125.307 408.906 125.92C409.266 126.52 409.759 126.993 410.386 127.34C411.026 127.673 411.753 127.84 412.566 127.84C413.206 127.84 413.799 127.727 414.346 127.5C414.906 127.273 415.386 126.927 415.786 126.46L416.586 127.38C416.119 127.94 415.533 128.367 414.826 128.66C414.133 128.953 413.366 129.1 412.526 129.1ZM430.791 129.1C429.884 129.1 429.064 128.893 428.331 128.48C427.597 128.053 427.011 127.447 426.571 126.66C426.144 125.86 425.931 124.887 425.931 123.74C425.931 122.593 426.144 121.627 426.571 120.84C426.997 120.04 427.577 119.433 428.311 119.02C429.044 118.607 429.871 118.4 430.791 118.4C431.791 118.4 432.684 118.627 433.471 119.08C434.271 119.52 434.897 120.147 435.351 120.96C435.804 121.76 436.031 122.687 436.031 123.74C436.031 124.807 435.804 125.74 435.351 126.54C434.897 127.34 434.271 127.967 433.471 128.42C432.684 128.873 431.791 129.1 430.791 129.1ZM425.371 132.88V118.5H426.731V121.66L426.591 123.76L426.791 125.88V132.88H425.371ZM430.691 127.84C431.437 127.84 432.104 127.673 432.691 127.34C433.277 126.993 433.744 126.513 434.091 125.9C434.437 125.273 434.611 124.553 434.611 123.74C434.611 122.927 434.437 122.213 434.091 121.6C433.744 120.987 433.277 120.507 432.691 120.16C432.104 119.813 431.437 119.64 430.691 119.64C429.944 119.64 429.271 119.813 428.671 120.16C428.084 120.507 427.617 120.987 427.271 121.6C426.937 122.213 426.771 122.927 426.771 123.74C426.771 124.553 426.937 125.273 427.271 125.9C427.617 126.513 428.084 126.993 428.671 127.34C429.271 127.673 429.944 127.84 430.691 127.84ZM438.925 129V118.5H440.285V121.36L440.145 120.86C440.439 120.06 440.932 119.453 441.625 119.04C442.319 118.613 443.179 118.4 444.205 118.4V119.78C444.152 119.78 444.099 119.78 444.045 119.78C443.992 119.767 443.939 119.76 443.885 119.76C442.779 119.76 441.912 120.1 441.285 120.78C440.659 121.447 440.345 122.4 440.345 123.64V129H438.925ZM450.979 129.1C449.965 129.1 449.052 128.873 448.239 128.42C447.439 127.953 446.805 127.32 446.339 126.52C445.872 125.707 445.639 124.78 445.639 123.74C445.639 122.687 445.872 121.76 446.339 120.96C446.805 120.16 447.439 119.533 448.239 119.08C449.039 118.627 449.952 118.4 450.979 118.4C452.019 118.4 452.939 118.627 453.739 119.08C454.552 119.533 455.185 120.16 455.639 120.96C456.105 121.76 456.339 122.687 456.339 123.74C456.339 124.78 456.105 125.707 455.639 126.52C455.185 127.32 454.552 127.953 453.739 128.42C452.925 128.873 452.005 129.1 450.979 129.1ZM450.979 127.84C451.739 127.84 452.412 127.673 452.999 127.34C453.585 126.993 454.045 126.513 454.379 125.9C454.725 125.273 454.899 124.553 454.899 123.74C454.899 122.913 454.725 122.193 454.379 121.58C454.045 120.967 453.585 120.493 452.999 120.16C452.412 119.813 451.745 119.64 450.999 119.64C450.252 119.64 449.585 119.813 448.999 120.16C448.412 120.493 447.945 120.967 447.599 121.58C447.252 122.193 447.079 122.913 447.079 123.74C447.079 124.553 447.252 125.273 447.599 125.9C447.945 126.513 448.412 126.993 448.999 127.34C449.585 127.673 450.245 127.84 450.979 127.84ZM463.418 129.1C462.418 129.1 461.518 128.873 460.718 128.42C459.931 127.967 459.311 127.34 458.858 126.54C458.404 125.727 458.178 124.793 458.178 123.74C458.178 122.673 458.404 121.74 458.858 120.94C459.311 120.14 459.931 119.52 460.718 119.08C461.518 118.627 462.418 118.4 463.418 118.4C464.338 118.4 465.158 118.607 465.878 119.02C466.611 119.433 467.191 120.04 467.618 120.84C468.058 121.627 468.278 122.593 468.278 123.74C468.278 124.873 468.064 125.84 467.638 126.64C467.211 127.44 466.631 128.053 465.898 128.48C465.178 128.893 464.351 129.1 463.418 129.1ZM463.518 127.84C464.264 127.84 464.931 127.673 465.518 127.34C466.118 126.993 466.584 126.513 466.918 125.9C467.264 125.273 467.438 124.553 467.438 123.74C467.438 122.913 467.264 122.193 466.918 121.58C466.584 120.967 466.118 120.493 465.518 120.16C464.931 119.813 464.264 119.64 463.518 119.64C462.784 119.64 462.124 119.813 461.538 120.16C460.951 120.493 460.484 120.967 460.138 121.58C459.791 122.193 459.618 122.913 459.618 123.74C459.618 124.553 459.791 125.273 460.138 125.9C460.484 126.513 460.951 126.993 461.538 127.34C462.124 127.673 462.784 127.84 463.518 127.84ZM467.478 129V125.84L467.618 123.72L467.418 121.6V114.16H468.838V129H467.478ZM477.133 129.1C476.239 129.1 475.459 128.933 474.793 128.6C474.126 128.267 473.606 127.767 473.233 127.1C472.873 126.433 472.693 125.6 472.693 124.6V118.5H474.113V124.44C474.113 125.56 474.386 126.407 474.933 126.98C475.493 127.54 476.273 127.82 477.273 127.82C478.006 127.82 478.639 127.673 479.173 127.38C479.719 127.073 480.133 126.633 480.413 126.06C480.706 125.487 480.853 124.8 480.853 124V118.5H482.273V129H480.912V126.12L481.133 126.64C480.799 127.413 480.279 128.02 479.573 128.46C478.879 128.887 478.066 129.1 477.133 129.1ZM490.59 129.1C489.55 129.1 488.617 128.873 487.79 128.42C486.977 127.953 486.337 127.32 485.87 126.52C485.403 125.707 485.17 124.78 485.17 123.74C485.17 122.687 485.403 121.76 485.87 120.96C486.337 120.16 486.977 119.533 487.79 119.08C488.617 118.627 489.55 118.4 490.59 118.4C491.483 118.4 492.29 118.573 493.01 118.92C493.73 119.267 494.297 119.787 494.71 120.48L493.65 121.2C493.29 120.667 492.843 120.273 492.31 120.02C491.777 119.767 491.197 119.64 490.57 119.64C489.823 119.64 489.15 119.813 488.55 120.16C487.95 120.493 487.477 120.967 487.13 121.58C486.783 122.193 486.61 122.913 486.61 123.74C486.61 124.567 486.783 125.287 487.13 125.9C487.477 126.513 487.95 126.993 488.55 127.34C489.15 127.673 489.823 127.84 490.57 127.84C491.197 127.84 491.777 127.713 492.31 127.46C492.843 127.207 493.29 126.82 493.65 126.3L494.71 127.02C494.297 127.7 493.73 128.22 493.01 128.58C492.29 128.927 491.483 129.1 490.59 129.1ZM501.784 129.1C500.69 129.1 499.73 128.873 498.904 128.42C498.077 127.953 497.43 127.32 496.964 126.52C496.497 125.707 496.264 124.78 496.264 123.74C496.264 122.7 496.484 121.78 496.924 120.98C497.377 120.18 497.99 119.553 498.764 119.1C499.55 118.633 500.43 118.4 501.404 118.4C502.39 118.4 503.264 118.627 504.024 119.08C504.797 119.52 505.404 120.147 505.844 120.96C506.284 121.76 506.504 122.687 506.504 123.74C506.504 123.807 506.497 123.88 506.484 123.96C506.484 124.027 506.484 124.1 506.484 124.18H497.344V123.12H505.724L505.164 123.54C505.164 122.78 504.997 122.107 504.664 121.52C504.344 120.92 503.904 120.453 503.344 120.12C502.784 119.787 502.137 119.62 501.404 119.62C500.684 119.62 500.037 119.787 499.464 120.12C498.89 120.453 498.444 120.92 498.124 121.52C497.804 122.12 497.644 122.807 497.644 123.58V123.8C497.644 124.6 497.817 125.307 498.164 125.92C498.524 126.52 499.017 126.993 499.644 127.34C500.284 127.673 501.01 127.84 501.824 127.84C502.464 127.84 503.057 127.727 503.604 127.5C504.164 127.273 504.644 126.927 505.044 126.46L505.844 127.38C505.377 127.94 504.79 128.367 504.084 128.66C503.39 128.953 502.624 129.1 501.784 129.1ZM150.34 142.4C151.193 142.4 151.94 142.567 152.58 142.9C153.233 143.22 153.74 143.713 154.1 144.38C154.473 145.047 154.66 145.887 154.66 146.9V153H153.24V147.04C153.24 145.933 152.96 145.1 152.4 144.54C151.853 143.967 151.08 143.68 150.08 143.68C149.333 143.68 148.68 143.833 148.12 144.14C147.573 144.433 147.147 144.867 146.84 145.44C146.547 146 146.4 146.68 146.4 147.48V153H144.98V138.16H146.4V145.38L146.12 144.84C146.453 144.08 146.987 143.487 147.72 143.06C148.453 142.62 149.327 142.4 150.34 142.4ZM158.496 153V142.5H159.916V153H158.496ZM159.216 140.18C158.922 140.18 158.676 140.08 158.476 139.88C158.276 139.68 158.176 139.44 158.176 139.16C158.176 138.88 158.276 138.647 158.476 138.46C158.676 138.26 158.922 138.16 159.216 138.16C159.509 138.16 159.756 138.253 159.956 138.44C160.156 138.627 160.256 138.86 160.256 139.14C160.256 139.433 160.156 139.68 159.956 139.88C159.769 140.08 159.522 140.18 159.216 140.18ZM168.047 153.1C167.047 153.1 166.147 152.873 165.347 152.42C164.56 151.967 163.94 151.34 163.487 150.54C163.033 149.727 162.807 148.793 162.807 147.74C162.807 146.673 163.033 145.74 163.487 144.94C163.94 144.14 164.56 143.52 165.347 143.08C166.147 142.627 167.047 142.4 168.047 142.4C168.967 142.4 169.787 142.607 170.507 143.02C171.24 143.433 171.82 144.04 172.247 144.84C172.687 145.627 172.907 146.593 172.907 147.74C172.907 148.873 172.693 149.84 172.267 150.64C171.84 151.44 171.26 152.053 170.527 152.48C169.807 152.893 168.98 153.1 168.047 153.1ZM168.147 151.84C168.893 151.84 169.56 151.673 170.147 151.34C170.747 150.993 171.213 150.513 171.547 149.9C171.893 149.273 172.067 148.553 172.067 147.74C172.067 146.913 171.893 146.193 171.547 145.58C171.213 144.967 170.747 144.493 170.147 144.16C169.56 143.813 168.893 143.64 168.147 143.64C167.413 143.64 166.753 143.813 166.167 144.16C165.58 144.493 165.113 144.967 164.767 145.58C164.42 146.193 164.247 146.913 164.247 147.74C164.247 148.553 164.42 149.273 164.767 149.9C165.113 150.513 165.58 150.993 166.167 151.34C166.753 151.673 167.413 151.84 168.147 151.84ZM172.107 153V149.84L172.247 147.72L172.047 145.6V138.16H173.467V153H172.107ZM177.421 153V142.5H178.781V145.36L178.641 144.86C178.935 144.06 179.428 143.453 180.121 143.04C180.815 142.613 181.675 142.4 182.701 142.4V143.78C182.648 143.78 182.595 143.78 182.541 143.78C182.488 143.767 182.435 143.76 182.381 143.76C181.275 143.76 180.408 144.1 179.781 144.78C179.155 145.447 178.841 146.4 178.841 147.64V153H177.421ZM189.475 153.1C188.462 153.1 187.548 152.873 186.735 152.42C185.935 151.953 185.302 151.32 184.835 150.52C184.368 149.707 184.135 148.78 184.135 147.74C184.135 146.687 184.368 145.76 184.835 144.96C185.302 144.16 185.935 143.533 186.735 143.08C187.535 142.627 188.448 142.4 189.475 142.4C190.515 142.4 191.435 142.627 192.235 143.08C193.048 143.533 193.682 144.16 194.135 144.96C194.602 145.76 194.835 146.687 194.835 147.74C194.835 148.78 194.602 149.707 194.135 150.52C193.682 151.32 193.048 151.953 192.235 152.42C191.422 152.873 190.502 153.1 189.475 153.1ZM189.475 151.84C190.235 151.84 190.908 151.673 191.495 151.34C192.082 150.993 192.542 150.513 192.875 149.9C193.222 149.273 193.395 148.553 193.395 147.74C193.395 146.913 193.222 146.193 192.875 145.58C192.542 144.967 192.082 144.493 191.495 144.16C190.908 143.813 190.242 143.64 189.495 143.64C188.748 143.64 188.082 143.813 187.495 144.16C186.908 144.493 186.442 144.967 186.095 145.58C185.748 146.193 185.575 146.913 185.575 147.74C185.575 148.553 185.748 149.273 186.095 149.9C186.442 150.513 186.908 150.993 187.495 151.34C188.082 151.673 188.742 151.84 189.475 151.84ZM188.175 140.86L190.915 138.38H192.815L189.575 140.86H188.175ZM202.214 156.98C201.254 156.98 200.334 156.84 199.454 156.56C198.574 156.28 197.861 155.88 197.314 155.36L198.034 154.28C198.527 154.72 199.134 155.067 199.854 155.32C200.587 155.587 201.361 155.72 202.174 155.72C203.507 155.72 204.487 155.407 205.114 154.78C205.741 154.167 206.054 153.207 206.054 151.9V149.28L206.254 147.48L206.114 145.68V142.5H207.474V151.72C207.474 153.533 207.027 154.86 206.134 155.7C205.254 156.553 203.947 156.98 202.214 156.98ZM201.954 152.6C200.954 152.6 200.054 152.387 199.254 151.96C198.454 151.52 197.821 150.913 197.354 150.14C196.901 149.367 196.674 148.48 196.674 147.48C196.674 146.48 196.901 145.6 197.354 144.84C197.821 144.067 198.454 143.467 199.254 143.04C200.054 142.613 200.954 142.4 201.954 142.4C202.887 142.4 203.727 142.593 204.474 142.98C205.221 143.367 205.814 143.94 206.254 144.7C206.694 145.46 206.914 146.387 206.914 147.48C206.914 148.573 206.694 149.5 206.254 150.26C205.814 151.02 205.221 151.6 204.474 152C203.727 152.4 202.887 152.6 201.954 152.6ZM202.094 151.34C202.867 151.34 203.554 151.18 204.154 150.86C204.754 150.527 205.227 150.073 205.574 149.5C205.921 148.913 206.094 148.24 206.094 147.48C206.094 146.72 205.921 146.053 205.574 145.48C205.227 144.907 204.754 144.46 204.154 144.14C203.554 143.807 202.867 143.64 202.094 143.64C201.334 143.64 200.647 143.807 200.034 144.14C199.434 144.46 198.961 144.907 198.614 145.48C198.281 146.053 198.114 146.72 198.114 147.48C198.114 148.24 198.281 148.913 198.614 149.5C198.961 150.073 199.434 150.527 200.034 150.86C200.647 151.18 201.334 151.34 202.094 151.34ZM215.885 153.1C214.792 153.1 213.832 152.873 213.005 152.42C212.179 151.953 211.532 151.32 211.065 150.52C210.599 149.707 210.365 148.78 210.365 147.74C210.365 146.7 210.585 145.78 211.025 144.98C211.479 144.18 212.092 143.553 212.865 143.1C213.652 142.633 214.532 142.4 215.505 142.4C216.492 142.4 217.365 142.627 218.125 143.08C218.899 143.52 219.505 144.147 219.945 144.96C220.385 145.76 220.605 146.687 220.605 147.74C220.605 147.807 220.599 147.88 220.585 147.96C220.585 148.027 220.585 148.1 220.585 148.18H211.445V147.12H219.825L219.265 147.54C219.265 146.78 219.099 146.107 218.765 145.52C218.445 144.92 218.005 144.453 217.445 144.12C216.885 143.787 216.239 143.62 215.505 143.62C214.785 143.62 214.139 143.787 213.565 144.12C212.992 144.453 212.545 144.92 212.225 145.52C211.905 146.12 211.745 146.807 211.745 147.58V147.8C211.745 148.6 211.919 149.307 212.265 149.92C212.625 150.52 213.119 150.993 213.745 151.34C214.385 151.673 215.112 151.84 215.925 151.84C216.565 151.84 217.159 151.727 217.705 151.5C218.265 151.273 218.745 150.927 219.145 150.46L219.945 151.38C219.479 151.94 218.892 152.367 218.185 152.66C217.492 152.953 216.725 153.1 215.885 153.1ZM228.856 142.4C229.709 142.4 230.456 142.567 231.096 142.9C231.749 143.22 232.256 143.713 232.616 144.38C232.989 145.047 233.176 145.887 233.176 146.9V153H231.756V147.04C231.756 145.933 231.476 145.1 230.916 144.54C230.369 143.967 229.596 143.68 228.596 143.68C227.849 143.68 227.196 143.833 226.636 144.14C226.089 144.433 225.662 144.867 225.356 145.44C225.062 146 224.916 146.68 224.916 147.48V153H223.496V142.5H224.856V145.38L224.636 144.84C224.969 144.08 225.502 143.487 226.236 143.06C226.969 142.62 227.842 142.4 228.856 142.4ZM241.291 153.1C240.278 153.1 239.365 152.873 238.551 152.42C237.751 151.953 237.118 151.32 236.651 150.52C236.185 149.707 235.951 148.78 235.951 147.74C235.951 146.687 236.185 145.76 236.651 144.96C237.118 144.16 237.751 143.533 238.551 143.08C239.351 142.627 240.265 142.4 241.291 142.4C242.331 142.4 243.251 142.627 244.051 143.08C244.865 143.533 245.498 144.16 245.951 144.96C246.418 145.76 246.651 146.687 246.651 147.74C246.651 148.78 246.418 149.707 245.951 150.52C245.498 151.32 244.865 151.953 244.051 152.42C243.238 152.873 242.318 153.1 241.291 153.1ZM241.291 151.84C242.051 151.84 242.725 151.673 243.311 151.34C243.898 150.993 244.358 150.513 244.691 149.9C245.038 149.273 245.211 148.553 245.211 147.74C245.211 146.913 245.038 146.193 244.691 145.58C244.358 144.967 243.898 144.493 243.311 144.16C242.725 143.813 242.058 143.64 241.311 143.64C240.565 143.64 239.898 143.813 239.311 144.16C238.725 144.493 238.258 144.967 237.911 145.58C237.565 146.193 237.391 146.913 237.391 147.74C237.391 148.553 237.565 149.273 237.911 149.9C238.258 150.513 238.725 150.993 239.311 151.34C239.898 151.673 240.558 151.84 241.291 151.84ZM260.205 153.1C259.298 153.1 258.478 152.893 257.745 152.48C257.011 152.053 256.425 151.447 255.985 150.66C255.558 149.86 255.345 148.887 255.345 147.74C255.345 146.593 255.558 145.627 255.985 144.84C256.411 144.04 256.991 143.433 257.725 143.02C258.458 142.607 259.285 142.4 260.205 142.4C261.205 142.4 262.098 142.627 262.885 143.08C263.685 143.52 264.311 144.147 264.765 144.96C265.218 145.76 265.445 146.687 265.445 147.74C265.445 148.807 265.218 149.74 264.765 150.54C264.311 151.34 263.685 151.967 262.885 152.42C262.098 152.873 261.205 153.1 260.205 153.1ZM254.785 156.88V142.5H256.145V145.66L256.005 147.76L256.205 149.88V156.88H254.785ZM260.105 151.84C260.851 151.84 261.518 151.673 262.105 151.34C262.691 150.993 263.158 150.513 263.505 149.9C263.851 149.273 264.025 148.553 264.025 147.74C264.025 146.927 263.851 146.213 263.505 145.6C263.158 144.987 262.691 144.507 262.105 144.16C261.518 143.813 260.851 143.64 260.105 143.64C259.358 143.64 258.685 143.813 258.085 144.16C257.498 144.507 257.031 144.987 256.685 145.6C256.351 146.213 256.185 146.927 256.185 147.74C256.185 148.553 256.351 149.273 256.685 149.9C257.031 150.513 257.498 150.993 258.085 151.34C258.685 151.673 259.358 151.84 260.105 151.84ZM272.619 153.1C271.606 153.1 270.693 152.873 269.879 152.42C269.079 151.953 268.446 151.32 267.979 150.52C267.513 149.707 267.279 148.78 267.279 147.74C267.279 146.687 267.513 145.76 267.979 144.96C268.446 144.16 269.079 143.533 269.879 143.08C270.679 142.627 271.593 142.4 272.619 142.4C273.659 142.4 274.579 142.627 275.379 143.08C276.193 143.533 276.826 144.16 277.279 144.96C277.746 145.76 277.979 146.687 277.979 147.74C277.979 148.78 277.746 149.707 277.279 150.52C276.826 151.32 276.193 151.953 275.379 152.42C274.566 152.873 273.646 153.1 272.619 153.1ZM272.619 151.84C273.379 151.84 274.053 151.673 274.639 151.34C275.226 150.993 275.686 150.513 276.019 149.9C276.366 149.273 276.539 148.553 276.539 147.74C276.539 146.913 276.366 146.193 276.019 145.58C275.686 144.967 275.226 144.493 274.639 144.16C274.053 143.813 273.386 143.64 272.639 143.64C271.893 143.64 271.226 143.813 270.639 144.16C270.053 144.493 269.586 144.967 269.239 145.58C268.893 146.193 268.719 146.913 268.719 147.74C268.719 148.553 268.893 149.273 269.239 149.9C269.586 150.513 270.053 150.993 270.639 151.34C271.226 151.673 271.886 151.84 272.619 151.84ZM280.878 153V142.5H282.238V145.36L282.098 144.86C282.392 144.06 282.885 143.453 283.578 143.04C284.272 142.613 285.132 142.4 286.158 142.4V143.78C286.105 143.78 286.052 143.78 285.998 143.78C285.945 143.767 285.892 143.76 285.838 143.76C284.732 143.76 283.865 144.1 283.238 144.78C282.612 145.447 282.298 146.4 282.298 147.64V153H280.878ZM307.26 142.4C308.113 142.4 308.853 142.567 309.48 142.9C310.12 143.22 310.613 143.713 310.96 144.38C311.32 145.047 311.5 145.887 311.5 146.9V153H310.08V147.04C310.08 145.933 309.813 145.1 309.28 144.54C308.76 143.967 308.02 143.68 307.06 143.68C306.34 143.68 305.713 143.833 305.18 144.14C304.66 144.433 304.253 144.867 303.96 145.44C303.68 146 303.54 146.68 303.54 147.48V153H302.12V147.04C302.12 145.933 301.853 145.1 301.32 144.54C300.787 143.967 300.04 143.68 299.08 143.68C298.373 143.68 297.753 143.833 297.22 144.14C296.687 144.433 296.273 144.867 295.98 145.44C295.7 146 295.56 146.68 295.56 147.48V153H294.14V142.5H295.5V145.34L295.28 144.84C295.6 144.08 296.113 143.487 296.82 143.06C297.54 142.62 298.387 142.4 299.36 142.4C300.387 142.4 301.26 142.66 301.98 143.18C302.7 143.687 303.167 144.453 303.38 145.48L302.82 145.26C303.127 144.407 303.667 143.72 304.44 143.2C305.227 142.667 306.167 142.4 307.26 142.4ZM319.811 153.1C318.718 153.1 317.758 152.873 316.931 152.42C316.104 151.953 315.458 151.32 314.991 150.52C314.524 149.707 314.291 148.78 314.291 147.74C314.291 146.7 314.511 145.78 314.951 144.98C315.404 144.18 316.018 143.553 316.791 143.1C317.578 142.633 318.458 142.4 319.431 142.4C320.418 142.4 321.291 142.627 322.051 143.08C322.824 143.52 323.431 144.147 323.871 144.96C324.311 145.76 324.531 146.687 324.531 147.74C324.531 147.807 324.524 147.88 324.511 147.96C324.511 148.027 324.511 148.1 324.511 148.18H315.371V147.12H323.751L323.191 147.54C323.191 146.78 323.024 146.107 322.691 145.52C322.371 144.92 321.931 144.453 321.371 144.12C320.811 143.787 320.164 143.62 319.431 143.62C318.711 143.62 318.064 143.787 317.491 144.12C316.918 144.453 316.471 144.92 316.151 145.52C315.831 146.12 315.671 146.807 315.671 147.58V147.8C315.671 148.6 315.844 149.307 316.191 149.92C316.551 150.52 317.044 150.993 317.671 151.34C318.311 151.673 319.038 151.84 319.851 151.84C320.491 151.84 321.084 151.727 321.631 151.5C322.191 151.273 322.671 150.927 323.071 150.46L323.871 151.38C323.404 151.94 322.818 152.367 322.111 152.66C321.418 152.953 320.651 153.1 319.811 153.1ZM331.601 153.1C330.601 153.1 329.701 152.873 328.901 152.42C328.115 151.967 327.495 151.34 327.041 150.54C326.588 149.727 326.361 148.793 326.361 147.74C326.361 146.673 326.588 145.74 327.041 144.94C327.495 144.14 328.115 143.52 328.901 143.08C329.701 142.627 330.601 142.4 331.601 142.4C332.521 142.4 333.341 142.607 334.061 143.02C334.795 143.433 335.375 144.04 335.801 144.84C336.241 145.627 336.461 146.593 336.461 147.74C336.461 148.873 336.248 149.84 335.821 150.64C335.395 151.44 334.815 152.053 334.081 152.48C333.361 152.893 332.535 153.1 331.601 153.1ZM331.701 151.84C332.448 151.84 333.115 151.673 333.701 151.34C334.301 150.993 334.768 150.513 335.101 149.9C335.448 149.273 335.621 148.553 335.621 147.74C335.621 146.913 335.448 146.193 335.101 145.58C334.768 144.967 334.301 144.493 333.701 144.16C333.115 143.813 332.448 143.64 331.701 143.64C330.968 143.64 330.308 143.813 329.721 144.16C329.135 144.493 328.668 144.967 328.321 145.58C327.975 146.193 327.801 146.913 327.801 147.74C327.801 148.553 327.975 149.273 328.321 149.9C328.668 150.513 329.135 150.993 329.721 151.34C330.308 151.673 330.968 151.84 331.701 151.84ZM335.661 153V149.84L335.801 147.72L335.601 145.6V138.16H337.021V153H335.661ZM340.976 153V142.5H342.396V153H340.976ZM341.696 140.18C341.403 140.18 341.156 140.08 340.956 139.88C340.756 139.68 340.656 139.44 340.656 139.16C340.656 138.88 340.756 138.647 340.956 138.46C341.156 138.26 341.403 138.16 341.696 138.16C341.989 138.16 342.236 138.253 342.436 138.44C342.636 138.627 342.736 138.86 342.736 139.14C342.736 139.433 342.636 139.68 342.436 139.88C342.249 140.08 342.003 140.18 341.696 140.18ZM350.627 153.1C349.614 153.1 348.701 152.873 347.887 152.42C347.087 151.953 346.454 151.32 345.987 150.52C345.521 149.707 345.287 148.78 345.287 147.74C345.287 146.687 345.521 145.76 345.987 144.96C346.454 144.16 347.087 143.533 347.887 143.08C348.687 142.627 349.601 142.4 350.627 142.4C351.667 142.4 352.587 142.627 353.387 143.08C354.201 143.533 354.834 144.16 355.287 144.96C355.754 145.76 355.987 146.687 355.987 147.74C355.987 148.78 355.754 149.707 355.287 150.52C354.834 151.32 354.201 151.953 353.387 152.42C352.574 152.873 351.654 153.1 350.627 153.1ZM350.627 151.84C351.387 151.84 352.061 151.673 352.647 151.34C353.234 150.993 353.694 150.513 354.027 149.9C354.374 149.273 354.547 148.553 354.547 147.74C354.547 146.913 354.374 146.193 354.027 145.58C353.694 144.967 353.234 144.493 352.647 144.16C352.061 143.813 351.394 143.64 350.647 143.64C349.901 143.64 349.234 143.813 348.647 144.16C348.061 144.493 347.594 144.967 347.247 145.58C346.901 146.193 346.727 146.913 346.727 147.74C346.727 148.553 346.901 149.273 347.247 149.9C347.594 150.513 348.061 150.993 348.647 151.34C349.234 151.673 349.894 151.84 350.627 151.84ZM368.301 153.1C367.301 153.1 366.401 152.873 365.601 152.42C364.814 151.967 364.194 151.34 363.741 150.54C363.287 149.727 363.061 148.793 363.061 147.74C363.061 146.673 363.287 145.74 363.741 144.94C364.194 144.14 364.814 143.52 365.601 143.08C366.401 142.627 367.301 142.4 368.301 142.4C369.221 142.4 370.041 142.607 370.761 143.02C371.494 143.433 372.074 144.04 372.501 144.84C372.941 145.627 373.161 146.593 373.161 147.74C373.161 148.873 372.947 149.84 372.521 150.64C372.094 151.44 371.514 152.053 370.781 152.48C370.061 152.893 369.234 153.1 368.301 153.1ZM368.401 151.84C369.147 151.84 369.814 151.673 370.401 151.34C371.001 150.993 371.467 150.513 371.801 149.9C372.147 149.273 372.321 148.553 372.321 147.74C372.321 146.913 372.147 146.193 371.801 145.58C371.467 144.967 371.001 144.493 370.401 144.16C369.814 143.813 369.147 143.64 368.401 143.64C367.667 143.64 367.007 143.813 366.421 144.16C365.834 144.493 365.367 144.967 365.021 145.58C364.674 146.193 364.501 146.913 364.501 147.74C364.501 148.553 364.674 149.273 365.021 149.9C365.367 150.513 365.834 150.993 366.421 151.34C367.007 151.673 367.667 151.84 368.401 151.84ZM372.361 153V149.84L372.501 147.72L372.301 145.6V138.16H373.721V153H372.361ZM382.135 153.1C381.042 153.1 380.082 152.873 379.255 152.42C378.429 151.953 377.782 151.32 377.315 150.52C376.849 149.707 376.615 148.78 376.615 147.74C376.615 146.7 376.835 145.78 377.275 144.98C377.729 144.18 378.342 143.553 379.115 143.1C379.902 142.633 380.782 142.4 381.755 142.4C382.742 142.4 383.615 142.627 384.375 143.08C385.149 143.52 385.755 144.147 386.195 144.96C386.635 145.76 386.855 146.687 386.855 147.74C386.855 147.807 386.849 147.88 386.835 147.96C386.835 148.027 386.835 148.1 386.835 148.18H377.695V147.12H386.075L385.515 147.54C385.515 146.78 385.349 146.107 385.015 145.52C384.695 144.92 384.255 144.453 383.695 144.12C383.135 143.787 382.489 143.62 381.755 143.62C381.035 143.62 380.389 143.787 379.815 144.12C379.242 144.453 378.795 144.92 378.475 145.52C378.155 146.12 377.995 146.807 377.995 147.58V147.8C377.995 148.6 378.169 149.307 378.515 149.92C378.875 150.52 379.369 150.993 379.995 151.34C380.635 151.673 381.362 151.84 382.175 151.84C382.815 151.84 383.409 151.727 383.955 151.5C384.515 151.273 384.995 150.927 385.395 150.46L386.195 151.38C385.729 151.94 385.142 152.367 384.435 152.66C383.742 152.953 382.975 153.1 382.135 153.1ZM394.98 153V138.16H396.4V153H394.98ZM406.931 153V150.68L406.871 150.3V146.42C406.871 145.527 406.618 144.84 406.111 144.36C405.618 143.88 404.878 143.64 403.891 143.64C403.211 143.64 402.564 143.753 401.951 143.98C401.338 144.207 400.818 144.507 400.391 144.88L399.751 143.82C400.284 143.367 400.924 143.02 401.671 142.78C402.418 142.527 403.204 142.4 404.031 142.4C405.391 142.4 406.438 142.74 407.171 143.42C407.918 144.087 408.291 145.107 408.291 146.48V153H406.931ZM403.311 153.1C402.524 153.1 401.838 152.973 401.251 152.72C400.678 152.453 400.238 152.093 399.931 151.64C399.624 151.173 399.471 150.64 399.471 150.04C399.471 149.493 399.598 149 399.851 148.56C400.118 148.107 400.544 147.747 401.131 147.48C401.731 147.2 402.531 147.06 403.531 147.06H407.151V148.12H403.571C402.558 148.12 401.851 148.3 401.451 148.66C401.064 149.02 400.871 149.467 400.871 150C400.871 150.6 401.104 151.08 401.571 151.44C402.038 151.8 402.691 151.98 403.531 151.98C404.331 151.98 405.018 151.8 405.591 151.44C406.178 151.067 406.604 150.533 406.871 149.84L407.191 150.82C406.924 151.513 406.458 152.067 405.791 152.48C405.138 152.893 404.311 153.1 403.311 153.1ZM421.842 153.1C420.749 153.1 419.789 152.873 418.962 152.42C418.136 151.953 417.489 151.32 417.022 150.52C416.556 149.707 416.322 148.78 416.322 147.74C416.322 146.7 416.542 145.78 416.982 144.98C417.436 144.18 418.049 143.553 418.822 143.1C419.609 142.633 420.489 142.4 421.462 142.4C422.449 142.4 423.322 142.627 424.082 143.08C424.856 143.52 425.462 144.147 425.902 144.96C426.342 145.76 426.562 146.687 426.562 147.74C426.562 147.807 426.556 147.88 426.542 147.96C426.542 148.027 426.542 148.1 426.542 148.18H417.402V147.12H425.782L425.222 147.54C425.222 146.78 425.056 146.107 424.722 145.52C424.402 144.92 423.962 144.453 423.402 144.12C422.842 143.787 422.196 143.62 421.462 143.62C420.742 143.62 420.096 143.787 419.522 144.12C418.949 144.453 418.502 144.92 418.182 145.52C417.862 146.12 417.702 146.807 417.702 147.58V147.8C417.702 148.6 417.876 149.307 418.222 149.92C418.582 150.52 419.076 150.993 419.702 151.34C420.342 151.673 421.069 151.84 421.882 151.84C422.522 151.84 423.116 151.727 423.662 151.5C424.222 151.273 424.702 150.927 425.102 150.46L425.902 151.38C425.436 151.94 424.849 152.367 424.142 152.66C423.449 152.953 422.682 153.1 421.842 153.1ZM429.453 153V138.16H430.873V153H429.453ZM439.284 153.1C438.19 153.1 437.23 152.873 436.404 152.42C435.577 151.953 434.93 151.32 434.464 150.52C433.997 149.707 433.764 148.78 433.764 147.74C433.764 146.7 433.984 145.78 434.424 144.98C434.877 144.18 435.49 143.553 436.264 143.1C437.05 142.633 437.93 142.4 438.904 142.4C439.89 142.4 440.764 142.627 441.524 143.08C442.297 143.52 442.904 144.147 443.344 144.96C443.784 145.76 444.004 146.687 444.004 147.74C444.004 147.807 443.997 147.88 443.984 147.96C443.984 148.027 443.984 148.1 443.984 148.18H434.844V147.12H443.224L442.664 147.54C442.664 146.78 442.497 146.107 442.164 145.52C441.844 144.92 441.404 144.453 440.844 144.12C440.284 143.787 439.637 143.62 438.904 143.62C438.184 143.62 437.537 143.787 436.964 144.12C436.39 144.453 435.944 144.92 435.624 145.52C435.304 146.12 435.144 146.807 435.144 147.58V147.8C435.144 148.6 435.317 149.307 435.664 149.92C436.024 150.52 436.517 150.993 437.144 151.34C437.784 151.673 438.51 151.84 439.324 151.84C439.964 151.84 440.557 151.727 441.104 151.5C441.664 151.273 442.144 150.927 442.544 150.46L443.344 151.38C442.877 151.94 442.29 152.367 441.584 152.66C440.89 152.953 440.124 153.1 439.284 153.1ZM451.254 153.1C450.214 153.1 449.281 152.873 448.454 152.42C447.641 151.953 447.001 151.32 446.534 150.52C446.067 149.707 445.834 148.78 445.834 147.74C445.834 146.687 446.067 145.76 446.534 144.96C447.001 144.16 447.641 143.533 448.454 143.08C449.281 142.627 450.214 142.4 451.254 142.4C452.147 142.4 452.954 142.573 453.674 142.92C454.394 143.267 454.961 143.787 455.374 144.48L454.314 145.2C453.954 144.667 453.507 144.273 452.974 144.02C452.441 143.767 451.861 143.64 451.234 143.64C450.487 143.64 449.814 143.813 449.214 144.16C448.614 144.493 448.141 144.967 447.794 145.58C447.447 146.193 447.274 146.913 447.274 147.74C447.274 148.567 447.447 149.287 447.794 149.9C448.141 150.513 448.614 150.993 449.214 151.34C449.814 151.673 450.487 151.84 451.234 151.84C451.861 151.84 452.441 151.713 452.974 151.46C453.507 151.207 453.954 150.82 454.314 150.3L455.374 151.02C454.961 151.7 454.394 152.22 453.674 152.58C452.954 152.927 452.147 153.1 451.254 153.1ZM461.601 153.1C460.614 153.1 459.854 152.833 459.321 152.3C458.787 151.767 458.521 151.013 458.521 150.04V140.18H459.941V149.96C459.941 150.573 460.094 151.047 460.401 151.38C460.721 151.713 461.174 151.88 461.761 151.88C462.387 151.88 462.907 151.7 463.321 151.34L463.821 152.36C463.541 152.613 463.201 152.8 462.801 152.92C462.414 153.04 462.014 153.1 461.601 153.1ZM456.641 143.68V142.5H463.141V143.68H456.641ZM466.406 153V142.5H467.766V145.36L467.626 144.86C467.919 144.06 468.412 143.453 469.106 143.04C469.799 142.613 470.659 142.4 471.686 142.4V143.78C471.632 143.78 471.579 143.78 471.526 143.78C471.472 143.767 471.419 143.76 471.366 143.76C470.259 143.76 469.392 144.1 468.766 144.78C468.139 145.447 467.826 146.4 467.826 147.64V153H466.406ZM478.459 153.1C477.446 153.1 476.533 152.873 475.719 152.42C474.919 151.953 474.286 151.32 473.819 150.52C473.353 149.707 473.119 148.78 473.119 147.74C473.119 146.687 473.353 145.76 473.819 144.96C474.286 144.16 474.919 143.533 475.719 143.08C476.519 142.627 477.433 142.4 478.459 142.4C479.499 142.4 480.419 142.627 481.219 143.08C482.033 143.533 482.666 144.16 483.119 144.96C483.586 145.76 483.819 146.687 483.819 147.74C483.819 148.78 483.586 149.707 483.119 150.52C482.666 151.32 482.033 151.953 481.219 152.42C480.406 152.873 479.486 153.1 478.459 153.1ZM478.459 151.84C479.219 151.84 479.893 151.673 480.479 151.34C481.066 150.993 481.526 150.513 481.859 149.9C482.206 149.273 482.379 148.553 482.379 147.74C482.379 146.913 482.206 146.193 481.859 145.58C481.526 144.967 481.066 144.493 480.479 144.16C479.893 143.813 479.226 143.64 478.479 143.64C477.733 143.64 477.066 143.813 476.479 144.16C475.893 144.493 475.426 144.967 475.079 145.58C474.733 146.193 474.559 146.913 474.559 147.74C474.559 148.553 474.733 149.273 475.079 149.9C475.426 150.513 475.893 150.993 476.479 151.34C477.066 151.673 477.726 151.84 478.459 151.84ZM477.159 140.86L479.899 138.38H481.799L478.559 140.86H477.159ZM486.718 153V138.16H488.138V153H486.718ZM492.089 153V142.5H493.509V153H492.089ZM492.809 140.18C492.516 140.18 492.269 140.08 492.069 139.88C491.869 139.68 491.769 139.44 491.769 139.16C491.769 138.88 491.869 138.647 492.069 138.46C492.269 138.26 492.516 138.16 492.809 138.16C493.103 138.16 493.349 138.253 493.549 138.44C493.749 138.627 493.849 138.86 493.849 139.14C493.849 139.433 493.749 139.68 493.549 139.88C493.363 140.08 493.116 140.18 492.809 140.18ZM500.28 153.1C499.414 153.1 498.594 152.98 497.82 152.74C497.047 152.487 496.44 152.173 496 151.8L496.64 150.68C497.067 151 497.614 151.28 498.28 151.52C498.947 151.747 499.647 151.86 500.38 151.86C501.38 151.86 502.1 151.707 502.54 151.4C502.98 151.08 503.2 150.66 503.2 150.14C503.2 149.753 503.074 149.453 502.82 149.24C502.58 149.013 502.26 148.847 501.86 148.74C501.46 148.62 501.014 148.52 500.52 148.44C500.027 148.36 499.534 148.267 499.04 148.16C498.56 148.053 498.12 147.9 497.72 147.7C497.32 147.487 496.994 147.2 496.74 146.84C496.5 146.48 496.38 146 496.38 145.4C496.38 144.827 496.54 144.313 496.86 143.86C497.18 143.407 497.647 143.053 498.26 142.8C498.887 142.533 499.647 142.4 500.54 142.4C501.22 142.4 501.9 142.493 502.58 142.68C503.26 142.853 503.82 143.087 504.26 143.38L503.64 144.52C503.174 144.2 502.674 143.973 502.14 143.84C501.607 143.693 501.074 143.62 500.54 143.62C499.594 143.62 498.894 143.787 498.44 144.12C498 144.44 497.78 144.853 497.78 145.36C497.78 145.76 497.9 146.073 498.14 146.3C498.394 146.527 498.72 146.707 499.12 146.84C499.534 146.96 499.98 147.06 500.46 147.14C500.954 147.22 501.44 147.32 501.92 147.44C502.414 147.547 502.86 147.7 503.26 147.9C503.674 148.087 504 148.36 504.24 148.72C504.494 149.067 504.62 149.527 504.62 150.1C504.62 150.713 504.447 151.247 504.1 151.7C503.767 152.14 503.274 152.487 502.62 152.74C501.98 152.98 501.2 153.1 500.28 153.1ZM507.226 153V142.5H508.646V153H507.226ZM507.946 140.18C507.653 140.18 507.406 140.08 507.206 139.88C507.006 139.68 506.906 139.44 506.906 139.16C506.906 138.88 507.006 138.647 507.206 138.46C507.406 138.26 507.653 138.16 507.946 138.16C508.239 138.16 508.486 138.253 508.686 138.44C508.886 138.627 508.986 138.86 508.986 139.14C508.986 139.433 508.886 139.68 508.686 139.88C508.499 140.08 508.253 140.18 507.946 140.18ZM515.417 153.1C514.551 153.1 513.731 152.98 512.957 152.74C512.184 152.487 511.577 152.173 511.137 151.8L511.777 150.68C512.204 151 512.751 151.28 513.417 151.52C514.084 151.747 514.784 151.86 515.517 151.86C516.517 151.86 517.237 151.707 517.677 151.4C518.117 151.08 518.337 150.66 518.337 150.14C518.337 149.753 518.211 149.453 517.957 149.24C517.717 149.013 517.397 148.847 516.997 148.74C516.597 148.62 516.151 148.52 515.657 148.44C515.164 148.36 514.671 148.267 514.177 148.16C513.697 148.053 513.257 147.9 512.857 147.7C512.457 147.487 512.131 147.2 511.877 146.84C511.637 146.48 511.517 146 511.517 145.4C511.517 144.827 511.677 144.313 511.997 143.86C512.317 143.407 512.784 143.053 513.397 142.8C514.024 142.533 514.784 142.4 515.677 142.4C516.357 142.4 517.037 142.493 517.717 142.68C518.397 142.853 518.957 143.087 519.397 143.38L518.777 144.52C518.311 144.2 517.811 143.973 517.277 143.84C516.744 143.693 516.211 143.62 515.677 143.62C514.731 143.62 514.031 143.787 513.577 144.12C513.137 144.44 512.917 144.853 512.917 145.36C512.917 145.76 513.037 146.073 513.277 146.3C513.531 146.527 513.857 146.707 514.257 146.84C514.671 146.96 515.117 147.06 515.597 147.14C516.091 147.22 516.577 147.32 517.057 147.44C517.551 147.547 517.997 147.7 518.397 147.9C518.811 148.087 519.137 148.36 519.377 148.72C519.631 149.067 519.757 149.527 519.757 150.1C519.757 150.713 519.584 151.247 519.237 151.7C518.904 152.14 518.411 152.487 517.757 152.74C517.117 152.98 516.337 153.1 515.417 153.1ZM149.46 180.98C148.5 180.98 147.58 180.84 146.7 180.56C145.82 180.28 145.107 179.88 144.56 179.36L145.28 178.28C145.773 178.72 146.38 179.067 147.1 179.32C147.833 179.587 148.607 179.72 149.42 179.72C150.753 179.72 151.733 179.407 152.36 178.78C152.987 178.167 153.3 177.207 153.3 175.9V173.28L153.5 171.48L153.36 169.68V166.5H154.72V175.72C154.72 177.533 154.273 178.86 153.38 179.7C152.5 180.553 151.193 180.98 149.46 180.98ZM149.2 176.6C148.2 176.6 147.3 176.387 146.5 175.96C145.7 175.52 145.067 174.913 144.6 174.14C144.147 173.367 143.92 172.48 143.92 171.48C143.92 170.48 144.147 169.6 144.6 168.84C145.067 168.067 145.7 167.467 146.5 167.04C147.3 166.613 148.2 166.4 149.2 166.4C150.133 166.4 150.973 166.593 151.72 166.98C152.467 167.367 153.06 167.94 153.5 168.7C153.94 169.46 154.16 170.387 154.16 171.48C154.16 172.573 153.94 173.5 153.5 174.26C153.06 175.02 152.467 175.6 151.72 176C150.973 176.4 150.133 176.6 149.2 176.6ZM149.34 175.34C150.113 175.34 150.8 175.18 151.4 174.86C152 174.527 152.473 174.073 152.82 173.5C153.167 172.913 153.34 172.24 153.34 171.48C153.34 170.72 153.167 170.053 152.82 169.48C152.473 168.907 152 168.46 151.4 168.14C150.8 167.807 150.113 167.64 149.34 167.64C148.58 167.64 147.893 167.807 147.28 168.14C146.68 168.46 146.207 168.907 145.86 169.48C145.527 170.053 145.36 170.72 145.36 171.48C145.36 172.24 145.527 172.913 145.86 173.5C146.207 174.073 146.68 174.527 147.28 174.86C147.893 175.18 148.58 175.34 149.34 175.34ZM163.131 177.1C162.038 177.1 161.078 176.873 160.251 176.42C159.425 175.953 158.778 175.32 158.311 174.52C157.845 173.707 157.611 172.78 157.611 171.74C157.611 170.7 157.831 169.78 158.271 168.98C158.725 168.18 159.338 167.553 160.111 167.1C160.898 166.633 161.778 166.4 162.751 166.4C163.738 166.4 164.611 166.627 165.371 167.08C166.145 167.52 166.751 168.147 167.191 168.96C167.631 169.76 167.851 170.687 167.851 171.74C167.851 171.807 167.845 171.88 167.831 171.96C167.831 172.027 167.831 172.1 167.831 172.18H158.691V171.12H167.071L166.511 171.54C166.511 170.78 166.345 170.107 166.011 169.52C165.691 168.92 165.251 168.453 164.691 168.12C164.131 167.787 163.485 167.62 162.751 167.62C162.031 167.62 161.385 167.787 160.811 168.12C160.238 168.453 159.791 168.92 159.471 169.52C159.151 170.12 158.991 170.807 158.991 171.58V171.8C158.991 172.6 159.165 173.307 159.511 173.92C159.871 174.52 160.365 174.993 160.991 175.34C161.631 175.673 162.358 175.84 163.171 175.84C163.811 175.84 164.405 175.727 164.951 175.5C165.511 175.273 165.991 174.927 166.391 174.46L167.191 175.38C166.725 175.94 166.138 176.367 165.431 176.66C164.738 176.953 163.971 177.1 163.131 177.1ZM176.102 166.4C176.955 166.4 177.702 166.567 178.342 166.9C178.995 167.22 179.502 167.713 179.862 168.38C180.235 169.047 180.422 169.887 180.422 170.9V177H179.002V171.04C179.002 169.933 178.722 169.1 178.162 168.54C177.615 167.967 176.842 167.68 175.842 167.68C175.095 167.68 174.442 167.833 173.882 168.14C173.335 168.433 172.908 168.867 172.602 169.44C172.308 170 172.162 170.68 172.162 171.48V177H170.742V166.5H172.102V169.38L171.882 168.84C172.215 168.08 172.748 167.487 173.482 167.06C174.215 166.62 175.088 166.4 176.102 166.4ZM188.717 177.1C187.624 177.1 186.664 176.873 185.837 176.42C185.011 175.953 184.364 175.32 183.897 174.52C183.431 173.707 183.197 172.78 183.197 171.74C183.197 170.7 183.417 169.78 183.857 168.98C184.311 168.18 184.924 167.553 185.697 167.1C186.484 166.633 187.364 166.4 188.337 166.4C189.324 166.4 190.197 166.627 190.957 167.08C191.731 167.52 192.337 168.147 192.777 168.96C193.217 169.76 193.437 170.687 193.437 171.74C193.437 171.807 193.431 171.88 193.417 171.96C193.417 172.027 193.417 172.1 193.417 172.18H184.277V171.12H192.657L192.097 171.54C192.097 170.78 191.931 170.107 191.597 169.52C191.277 168.92 190.837 168.453 190.277 168.12C189.717 167.787 189.071 167.62 188.337 167.62C187.617 167.62 186.971 167.787 186.397 168.12C185.824 168.453 185.377 168.92 185.057 169.52C184.737 170.12 184.577 170.807 184.577 171.58V171.8C184.577 172.6 184.751 173.307 185.097 173.92C185.457 174.52 185.951 174.993 186.577 175.34C187.217 175.673 187.944 175.84 188.757 175.84C189.397 175.84 189.991 175.727 190.537 175.5C191.097 175.273 191.577 174.927 191.977 174.46L192.777 175.38C192.311 175.94 191.724 176.367 191.017 176.66C190.324 176.953 189.557 177.1 188.717 177.1ZM196.328 177V166.5H197.688V169.36L197.548 168.86C197.841 168.06 198.334 167.453 199.028 167.04C199.721 166.613 200.581 166.4 201.608 166.4V167.78C201.554 167.78 201.501 167.78 201.448 167.78C201.394 167.767 201.341 167.76 201.288 167.76C200.181 167.76 199.314 168.1 198.688 168.78C198.061 169.447 197.748 170.4 197.748 171.64V177H196.328ZM209.998 177V174.68L209.938 174.3V170.42C209.938 169.527 209.684 168.84 209.178 168.36C208.684 167.88 207.944 167.64 206.958 167.64C206.278 167.64 205.631 167.753 205.018 167.98C204.404 168.207 203.884 168.507 203.458 168.88L202.818 167.82C203.351 167.367 203.991 167.02 204.738 166.78C205.484 166.527 206.271 166.4 207.098 166.4C208.458 166.4 209.504 166.74 210.238 167.42C210.984 168.087 211.358 169.107 211.358 170.48V177H209.998ZM206.378 177.1C205.591 177.1 204.904 176.973 204.318 176.72C203.744 176.453 203.304 176.093 202.998 175.64C202.691 175.173 202.538 174.64 202.538 174.04C202.538 173.493 202.664 173 202.918 172.56C203.184 172.107 203.611 171.747 204.198 171.48C204.798 171.2 205.598 171.06 206.598 171.06H210.218V172.12H206.638C205.624 172.12 204.918 172.3 204.518 172.66C204.131 173.02 203.938 173.467 203.938 174C203.938 174.6 204.171 175.08 204.638 175.44C205.104 175.8 205.758 175.98 206.598 175.98C207.398 175.98 208.084 175.8 208.658 175.44C209.244 175.067 209.671 174.533 209.938 173.84L210.258 174.82C209.991 175.513 209.524 176.067 208.858 176.48C208.204 176.893 207.378 177.1 206.378 177.1ZM220.574 166.4C221.428 166.4 222.174 166.567 222.814 166.9C223.468 167.22 223.974 167.713 224.334 168.38C224.708 169.047 224.894 169.887 224.894 170.9V177H223.474V171.04C223.474 169.933 223.194 169.1 222.634 168.54C222.088 167.967 221.314 167.68 220.314 167.68C219.568 167.68 218.914 167.833 218.354 168.14C217.808 168.433 217.381 168.867 217.074 169.44C216.781 170 216.634 170.68 216.634 171.48V177H215.214V166.5H216.574V169.38L216.354 168.84C216.688 168.08 217.221 167.487 217.954 167.06C218.688 166.62 219.561 166.4 220.574 166.4ZM232.91 177.1C231.91 177.1 231.01 176.873 230.21 176.42C229.423 175.967 228.803 175.34 228.35 174.54C227.897 173.727 227.67 172.793 227.67 171.74C227.67 170.673 227.897 169.74 228.35 168.94C228.803 168.14 229.423 167.52 230.21 167.08C231.01 166.627 231.91 166.4 232.91 166.4C233.83 166.4 234.65 166.607 235.37 167.02C236.103 167.433 236.683 168.04 237.11 168.84C237.55 169.627 237.77 170.593 237.77 171.74C237.77 172.873 237.557 173.84 237.13 174.64C236.703 175.44 236.123 176.053 235.39 176.48C234.67 176.893 233.843 177.1 232.91 177.1ZM233.01 175.84C233.757 175.84 234.423 175.673 235.01 175.34C235.61 174.993 236.077 174.513 236.41 173.9C236.757 173.273 236.93 172.553 236.93 171.74C236.93 170.913 236.757 170.193 236.41 169.58C236.077 168.967 235.61 168.493 235.01 168.16C234.423 167.813 233.757 167.64 233.01 167.64C232.277 167.64 231.617 167.813 231.03 168.16C230.443 168.493 229.977 168.967 229.63 169.58C229.283 170.193 229.11 170.913 229.11 171.74C229.11 172.553 229.283 173.273 229.63 173.9C229.977 174.513 230.443 174.993 231.03 175.34C231.617 175.673 232.277 175.84 233.01 175.84ZM236.97 177V173.84L237.11 171.72L236.91 169.6V162.16H238.33V177H236.97ZM246.565 177.1C245.551 177.1 244.638 176.873 243.825 176.42C243.025 175.953 242.391 175.32 241.925 174.52C241.458 173.707 241.225 172.78 241.225 171.74C241.225 170.687 241.458 169.76 241.925 168.96C242.391 168.16 243.025 167.533 243.825 167.08C244.625 166.627 245.538 166.4 246.565 166.4C247.605 166.4 248.525 166.627 249.325 167.08C250.138 167.533 250.771 168.16 251.225 168.96C251.691 169.76 251.925 170.687 251.925 171.74C251.925 172.78 251.691 173.707 251.225 174.52C250.771 175.32 250.138 175.953 249.325 176.42C248.511 176.873 247.591 177.1 246.565 177.1ZM246.565 175.84C247.325 175.84 247.998 175.673 248.585 175.34C249.171 174.993 249.631 174.513 249.965 173.9C250.311 173.273 250.485 172.553 250.485 171.74C250.485 170.913 250.311 170.193 249.965 169.58C249.631 168.967 249.171 168.493 248.585 168.16C247.998 167.813 247.331 167.64 246.585 167.64C245.838 167.64 245.171 167.813 244.585 168.16C243.998 168.493 243.531 168.967 243.185 169.58C242.838 170.193 242.665 170.913 242.665 171.74C242.665 172.553 242.838 173.273 243.185 173.9C243.531 174.513 243.998 174.993 244.585 175.34C245.171 175.673 245.831 175.84 246.565 175.84ZM264.518 177.1C263.425 177.1 262.465 176.873 261.638 176.42C260.811 175.953 260.165 175.32 259.698 174.52C259.231 173.707 258.998 172.78 258.998 171.74C258.998 170.7 259.218 169.78 259.658 168.98C260.111 168.18 260.725 167.553 261.498 167.1C262.285 166.633 263.165 166.4 264.138 166.4C265.125 166.4 265.998 166.627 266.758 167.08C267.531 167.52 268.138 168.147 268.578 168.96C269.018 169.76 269.238 170.687 269.238 171.74C269.238 171.807 269.231 171.88 269.218 171.96C269.218 172.027 269.218 172.1 269.218 172.18H260.078V171.12H268.458L267.898 171.54C267.898 170.78 267.731 170.107 267.398 169.52C267.078 168.92 266.638 168.453 266.078 168.12C265.518 167.787 264.871 167.62 264.138 167.62C263.418 167.62 262.771 167.787 262.198 168.12C261.625 168.453 261.178 168.92 260.858 169.52C260.538 170.12 260.378 170.807 260.378 171.58V171.8C260.378 172.6 260.551 173.307 260.898 173.92C261.258 174.52 261.751 174.993 262.378 175.34C263.018 175.673 263.745 175.84 264.558 175.84C265.198 175.84 265.791 175.727 266.338 175.5C266.898 175.273 267.378 174.927 267.778 174.46L268.578 175.38C268.111 175.94 267.525 176.367 266.818 176.66C266.125 176.953 265.358 177.1 264.518 177.1ZM274.948 177.1C274.082 177.1 273.262 176.98 272.488 176.74C271.715 176.487 271.108 176.173 270.668 175.8L271.308 174.68C271.735 175 272.282 175.28 272.948 175.52C273.615 175.747 274.315 175.86 275.048 175.86C276.048 175.86 276.768 175.707 277.208 175.4C277.648 175.08 277.868 174.66 277.868 174.14C277.868 173.753 277.742 173.453 277.488 173.24C277.248 173.013 276.928 172.847 276.528 172.74C276.128 172.62 275.682 172.52 275.188 172.44C274.695 172.36 274.202 172.267 273.708 172.16C273.228 172.053 272.788 171.9 272.388 171.7C271.988 171.487 271.662 171.2 271.408 170.84C271.168 170.48 271.048 170 271.048 169.4C271.048 168.827 271.208 168.313 271.528 167.86C271.848 167.407 272.315 167.053 272.928 166.8C273.555 166.533 274.315 166.4 275.208 166.4C275.888 166.4 276.568 166.493 277.248 166.68C277.928 166.853 278.488 167.087 278.928 167.38L278.308 168.52C277.842 168.2 277.342 167.973 276.808 167.84C276.275 167.693 275.742 167.62 275.208 167.62C274.262 167.62 273.562 167.787 273.108 168.12C272.668 168.44 272.448 168.853 272.448 169.36C272.448 169.76 272.568 170.073 272.808 170.3C273.062 170.527 273.388 170.707 273.788 170.84C274.202 170.96 274.648 171.06 275.128 171.14C275.622 171.22 276.108 171.32 276.588 171.44C277.082 171.547 277.528 171.7 277.928 171.9C278.342 172.087 278.668 172.36 278.908 172.72C279.162 173.067 279.288 173.527 279.288 174.1C279.288 174.713 279.115 175.247 278.768 175.7C278.435 176.14 277.942 176.487 277.288 176.74C276.648 176.98 275.868 177.1 274.948 177.1ZM285.214 177.1C284.227 177.1 283.467 176.833 282.934 176.3C282.401 175.767 282.134 175.013 282.134 174.04V164.18H283.554V173.96C283.554 174.573 283.707 175.047 284.014 175.38C284.334 175.713 284.787 175.88 285.374 175.88C286.001 175.88 286.521 175.7 286.934 175.34L287.434 176.36C287.154 176.613 286.814 176.8 286.414 176.92C286.027 177.04 285.627 177.1 285.214 177.1ZM280.254 167.68V166.5H286.754V167.68H280.254ZM296.599 177V174.68L296.539 174.3V170.42C296.539 169.527 296.286 168.84 295.779 168.36C295.286 167.88 294.546 167.64 293.559 167.64C292.879 167.64 292.232 167.753 291.619 167.98C291.006 168.207 290.486 168.507 290.059 168.88L289.419 167.82C289.952 167.367 290.592 167.02 291.339 166.78C292.086 166.527 292.872 166.4 293.699 166.4C295.059 166.4 296.106 166.74 296.839 167.42C297.586 168.087 297.959 169.107 297.959 170.48V177H296.599ZM292.979 177.1C292.192 177.1 291.506 176.973 290.919 176.72C290.346 176.453 289.906 176.093 289.599 175.64C289.292 175.173 289.139 174.64 289.139 174.04C289.139 173.493 289.266 173 289.519 172.56C289.786 172.107 290.212 171.747 290.799 171.48C291.399 171.2 292.199 171.06 293.199 171.06H296.819V172.12H293.239C292.226 172.12 291.519 172.3 291.119 172.66C290.732 173.02 290.539 173.467 290.539 174C290.539 174.6 290.772 175.08 291.239 175.44C291.706 175.8 292.359 175.98 293.199 175.98C293.999 175.98 294.686 175.8 295.259 175.44C295.846 175.067 296.272 174.533 296.539 173.84L296.859 174.82C296.592 175.513 296.126 176.067 295.459 176.48C294.806 176.893 293.979 177.1 292.979 177.1ZM311.53 180.98C310.57 180.98 309.65 180.84 308.77 180.56C307.89 180.28 307.177 179.88 306.63 179.36L307.35 178.28C307.844 178.72 308.45 179.067 309.17 179.32C309.904 179.587 310.677 179.72 311.49 179.72C312.824 179.72 313.804 179.407 314.43 178.78C315.057 178.167 315.37 177.207 315.37 175.9V173.28L315.57 171.48L315.43 169.68V166.5H316.79V175.72C316.79 177.533 316.344 178.86 315.45 179.7C314.57 180.553 313.264 180.98 311.53 180.98ZM311.27 176.6C310.27 176.6 309.37 176.387 308.57 175.96C307.77 175.52 307.137 174.913 306.67 174.14C306.217 173.367 305.99 172.48 305.99 171.48C305.99 170.48 306.217 169.6 306.67 168.84C307.137 168.067 307.77 167.467 308.57 167.04C309.37 166.613 310.27 166.4 311.27 166.4C312.204 166.4 313.044 166.593 313.79 166.98C314.537 167.367 315.13 167.94 315.57 168.7C316.01 169.46 316.23 170.387 316.23 171.48C316.23 172.573 316.01 173.5 315.57 174.26C315.13 175.02 314.537 175.6 313.79 176C313.044 176.4 312.204 176.6 311.27 176.6ZM311.41 175.34C312.184 175.34 312.87 175.18 313.47 174.86C314.07 174.527 314.544 174.073 314.89 173.5C315.237 172.913 315.41 172.24 315.41 171.48C315.41 170.72 315.237 170.053 314.89 169.48C314.544 168.907 314.07 168.46 313.47 168.14C312.87 167.807 312.184 167.64 311.41 167.64C310.65 167.64 309.964 167.807 309.35 168.14C308.75 168.46 308.277 168.907 307.93 169.48C307.597 170.053 307.43 170.72 307.43 171.48C307.43 172.24 307.597 172.913 307.93 173.5C308.277 174.073 308.75 174.527 309.35 174.86C309.964 175.18 310.65 175.34 311.41 175.34ZM327.322 177V174.68L327.262 174.3V170.42C327.262 169.527 327.008 168.84 326.502 168.36C326.008 167.88 325.268 167.64 324.282 167.64C323.602 167.64 322.955 167.753 322.342 167.98C321.728 168.207 321.208 168.507 320.782 168.88L320.142 167.82C320.675 167.367 321.315 167.02 322.062 166.78C322.808 166.527 323.595 166.4 324.422 166.4C325.782 166.4 326.828 166.74 327.562 167.42C328.308 168.087 328.682 169.107 328.682 170.48V177H327.322ZM323.702 177.1C322.915 177.1 322.228 176.973 321.642 176.72C321.068 176.453 320.628 176.093 320.322 175.64C320.015 175.173 319.862 174.64 319.862 174.04C319.862 173.493 319.988 173 320.242 172.56C320.508 172.107 320.935 171.747 321.522 171.48C322.122 171.2 322.922 171.06 323.922 171.06H327.542V172.12H323.962C322.948 172.12 322.242 172.3 321.842 172.66C321.455 173.02 321.262 173.467 321.262 174C321.262 174.6 321.495 175.08 321.962 175.44C322.428 175.8 323.082 175.98 323.922 175.98C324.722 175.98 325.408 175.8 325.982 175.44C326.568 175.067 326.995 174.533 327.262 173.84L327.582 174.82C327.315 175.513 326.848 176.067 326.182 176.48C325.528 176.893 324.702 177.1 323.702 177.1ZM335.359 177.1C334.492 177.1 333.672 176.98 332.899 176.74C332.125 176.487 331.519 176.173 331.079 175.8L331.719 174.68C332.145 175 332.692 175.28 333.359 175.52C334.025 175.747 334.725 175.86 335.459 175.86C336.459 175.86 337.179 175.707 337.619 175.4C338.059 175.08 338.279 174.66 338.279 174.14C338.279 173.753 338.152 173.453 337.899 173.24C337.659 173.013 337.339 172.847 336.939 172.74C336.539 172.62 336.092 172.52 335.599 172.44C335.105 172.36 334.612 172.267 334.119 172.16C333.639 172.053 333.199 171.9 332.799 171.7C332.399 171.487 332.072 171.2 331.819 170.84C331.579 170.48 331.459 170 331.459 169.4C331.459 168.827 331.619 168.313 331.939 167.86C332.259 167.407 332.725 167.053 333.339 166.8C333.965 166.533 334.725 166.4 335.619 166.4C336.299 166.4 336.979 166.493 337.659 166.68C338.339 166.853 338.899 167.087 339.339 167.38L338.719 168.52C338.252 168.2 337.752 167.973 337.219 167.84C336.685 167.693 336.152 167.62 335.619 167.62C334.672 167.62 333.972 167.787 333.519 168.12C333.079 168.44 332.859 168.853 332.859 169.36C332.859 169.76 332.979 170.073 333.219 170.3C333.472 170.527 333.799 170.707 334.199 170.84C334.612 170.96 335.059 171.06 335.539 171.14C336.032 171.22 336.519 171.32 336.999 171.44C337.492 171.547 337.939 171.7 338.339 171.9C338.752 172.087 339.079 172.36 339.319 172.72C339.572 173.067 339.699 173.527 339.699 174.1C339.699 174.713 339.525 175.247 339.179 175.7C338.845 176.14 338.352 176.487 337.699 176.74C337.059 176.98 336.279 177.1 335.359 177.1ZM354.119 177V174.68L354.059 174.3V170.42C354.059 169.527 353.805 168.84 353.299 168.36C352.805 167.88 352.065 167.64 351.079 167.64C350.399 167.64 349.752 167.753 349.139 167.98C348.525 168.207 348.005 168.507 347.579 168.88L346.939 167.82C347.472 167.367 348.112 167.02 348.859 166.78C349.605 166.527 350.392 166.4 351.219 166.4C352.579 166.4 353.625 166.74 354.359 167.42C355.105 168.087 355.479 169.107 355.479 170.48V177H354.119ZM350.499 177.1C349.712 177.1 349.025 176.973 348.439 176.72C347.865 176.453 347.425 176.093 347.119 175.64C346.812 175.173 346.659 174.64 346.659 174.04C346.659 173.493 346.785 173 347.039 172.56C347.305 172.107 347.732 171.747 348.319 171.48C348.919 171.2 349.719 171.06 350.719 171.06H354.339V172.12H350.759C349.745 172.12 349.039 172.3 348.639 172.66C348.252 173.02 348.059 173.467 348.059 174C348.059 174.6 348.292 175.08 348.759 175.44C349.225 175.8 349.879 175.98 350.719 175.98C351.519 175.98 352.205 175.8 352.779 175.44C353.365 175.067 353.792 174.533 354.059 173.84L354.379 174.82C354.112 175.513 353.645 176.067 352.979 176.48C352.325 176.893 351.499 177.1 350.499 177.1ZM369.05 180.98C368.09 180.98 367.17 180.84 366.29 180.56C365.41 180.28 364.697 179.88 364.15 179.36L364.87 178.28C365.363 178.72 365.97 179.067 366.69 179.32C367.423 179.587 368.197 179.72 369.01 179.72C370.343 179.72 371.323 179.407 371.95 178.78C372.577 178.167 372.89 177.207 372.89 175.9V173.28L373.09 171.48L372.95 169.68V166.5H374.31V175.72C374.31 177.533 373.863 178.86 372.97 179.7C372.09 180.553 370.783 180.98 369.05 180.98ZM368.79 176.6C367.79 176.6 366.89 176.387 366.09 175.96C365.29 175.52 364.657 174.913 364.19 174.14C363.737 173.367 363.51 172.48 363.51 171.48C363.51 170.48 363.737 169.6 364.19 168.84C364.657 168.067 365.29 167.467 366.09 167.04C366.89 166.613 367.79 166.4 368.79 166.4C369.723 166.4 370.563 166.593 371.31 166.98C372.057 167.367 372.65 167.94 373.09 168.7C373.53 169.46 373.75 170.387 373.75 171.48C373.75 172.573 373.53 173.5 373.09 174.26C372.65 175.02 372.057 175.6 371.31 176C370.563 176.4 369.723 176.6 368.79 176.6ZM368.93 175.34C369.703 175.34 370.39 175.18 370.99 174.86C371.59 174.527 372.063 174.073 372.41 173.5C372.757 172.913 372.93 172.24 372.93 171.48C372.93 170.72 372.757 170.053 372.41 169.48C372.063 168.907 371.59 168.46 370.99 168.14C370.39 167.807 369.703 167.64 368.93 167.64C368.17 167.64 367.483 167.807 366.87 168.14C366.27 168.46 365.797 168.907 365.45 169.48C365.117 170.053 364.95 170.72 364.95 171.48C364.95 172.24 365.117 172.913 365.45 173.5C365.797 174.073 366.27 174.527 366.87 174.86C367.483 175.18 368.17 175.34 368.93 175.34ZM378.261 177V166.5H379.621V169.36L379.481 168.86C379.775 168.06 380.268 167.453 380.961 167.04C381.655 166.613 382.515 166.4 383.541 166.4V167.78C383.488 167.78 383.435 167.78 383.381 167.78C383.328 167.767 383.275 167.76 383.221 167.76C382.115 167.76 381.248 168.1 380.621 168.78C379.995 169.447 379.681 170.4 379.681 171.64V177H378.261ZM391.931 177V174.68L391.871 174.3V170.42C391.871 169.527 391.618 168.84 391.111 168.36C390.618 167.88 389.878 167.64 388.891 167.64C388.211 167.64 387.564 167.753 386.951 167.98C386.338 168.207 385.818 168.507 385.391 168.88L384.751 167.82C385.284 167.367 385.924 167.02 386.671 166.78C387.418 166.527 388.204 166.4 389.031 166.4C390.391 166.4 391.438 166.74 392.171 167.42C392.918 168.087 393.291 169.107 393.291 170.48V177H391.931ZM388.311 177.1C387.524 177.1 386.838 176.973 386.251 176.72C385.678 176.453 385.238 176.093 384.931 175.64C384.624 175.173 384.471 174.64 384.471 174.04C384.471 173.493 384.598 173 384.851 172.56C385.118 172.107 385.544 171.747 386.131 171.48C386.731 171.2 387.531 171.06 388.531 171.06H392.151V172.12H388.571C387.558 172.12 386.851 172.3 386.451 172.66C386.064 173.02 385.871 173.467 385.871 174C385.871 174.6 386.104 175.08 386.571 175.44C387.038 175.8 387.691 175.98 388.531 175.98C389.331 175.98 390.018 175.8 390.591 175.44C391.178 175.067 391.604 174.533 391.871 173.84L392.191 174.82C391.924 175.513 391.458 176.067 390.791 176.48C390.138 176.893 389.311 177.1 388.311 177.1ZM402.508 166.4C403.361 166.4 404.108 166.567 404.748 166.9C405.401 167.22 405.908 167.713 406.268 168.38C406.641 169.047 406.828 169.887 406.828 170.9V177H405.408V171.04C405.408 169.933 405.128 169.1 404.568 168.54C404.021 167.967 403.248 167.68 402.248 167.68C401.501 167.68 400.848 167.833 400.288 168.14C399.741 168.433 399.315 168.867 399.008 169.44C398.715 170 398.568 170.68 398.568 171.48V177H397.148V166.5H398.508V169.38L398.288 168.84C398.621 168.08 399.155 167.487 399.888 167.06C400.621 166.62 401.495 166.4 402.508 166.4ZM420.358 177.1C419.265 177.1 418.305 176.873 417.478 176.42C416.651 175.953 416.005 175.32 415.538 174.52C415.071 173.707 414.838 172.78 414.838 171.74C414.838 170.7 415.058 169.78 415.498 168.98C415.951 168.18 416.565 167.553 417.338 167.1C418.125 166.633 419.005 166.4 419.978 166.4C420.965 166.4 421.838 166.627 422.598 167.08C423.371 167.52 423.978 168.147 424.418 168.96C424.858 169.76 425.078 170.687 425.078 171.74C425.078 171.807 425.071 171.88 425.058 171.96C425.058 172.027 425.058 172.1 425.058 172.18H415.918V171.12H424.298L423.738 171.54C423.738 170.78 423.571 170.107 423.238 169.52C422.918 168.92 422.478 168.453 421.918 168.12C421.358 167.787 420.711 167.62 419.978 167.62C419.258 167.62 418.611 167.787 418.038 168.12C417.465 168.453 417.018 168.92 416.698 169.52C416.378 170.12 416.218 170.807 416.218 171.58V171.8C416.218 172.6 416.391 173.307 416.738 173.92C417.098 174.52 417.591 174.993 418.218 175.34C418.858 175.673 419.585 175.84 420.398 175.84C421.038 175.84 421.631 175.727 422.178 175.5C422.738 175.273 423.218 174.927 423.618 174.46L424.418 175.38C423.951 175.94 423.365 176.367 422.658 176.66C421.965 176.953 421.198 177.1 420.358 177.1ZM430.788 177.1C429.922 177.1 429.102 176.98 428.328 176.74C427.555 176.487 426.948 176.173 426.508 175.8L427.148 174.68C427.575 175 428.122 175.28 428.788 175.52C429.455 175.747 430.155 175.86 430.888 175.86C431.888 175.86 432.608 175.707 433.048 175.4C433.488 175.08 433.708 174.66 433.708 174.14C433.708 173.753 433.582 173.453 433.328 173.24C433.088 173.013 432.768 172.847 432.368 172.74C431.968 172.62 431.522 172.52 431.028 172.44C430.535 172.36 430.042 172.267 429.548 172.16C429.068 172.053 428.628 171.9 428.228 171.7C427.828 171.487 427.502 171.2 427.248 170.84C427.008 170.48 426.888 170 426.888 169.4C426.888 168.827 427.048 168.313 427.368 167.86C427.688 167.407 428.155 167.053 428.768 166.8C429.395 166.533 430.155 166.4 431.048 166.4C431.728 166.4 432.408 166.493 433.088 166.68C433.768 166.853 434.328 167.087 434.768 167.38L434.148 168.52C433.682 168.2 433.182 167.973 432.648 167.84C432.115 167.693 431.582 167.62 431.048 167.62C430.102 167.62 429.402 167.787 428.948 168.12C428.508 168.44 428.288 168.853 428.288 169.36C428.288 169.76 428.408 170.073 428.648 170.3C428.902 170.527 429.228 170.707 429.628 170.84C430.042 170.96 430.488 171.06 430.968 171.14C431.462 171.22 431.948 171.32 432.428 171.44C432.922 171.547 433.368 171.7 433.768 171.9C434.182 172.087 434.508 172.36 434.748 172.72C435.002 173.067 435.128 173.527 435.128 174.1C435.128 174.713 434.955 175.247 434.608 175.7C434.275 176.14 433.782 176.487 433.128 176.74C432.488 176.98 431.708 177.1 430.788 177.1ZM442.094 177.1C441.054 177.1 440.121 176.873 439.294 176.42C438.481 175.953 437.841 175.32 437.374 174.52C436.907 173.707 436.674 172.78 436.674 171.74C436.674 170.687 436.907 169.76 437.374 168.96C437.841 168.16 438.481 167.533 439.294 167.08C440.121 166.627 441.054 166.4 442.094 166.4C442.987 166.4 443.794 166.573 444.514 166.92C445.234 167.267 445.801 167.787 446.214 168.48L445.154 169.2C444.794 168.667 444.347 168.273 443.814 168.02C443.281 167.767 442.701 167.64 442.074 167.64C441.327 167.64 440.654 167.813 440.054 168.16C439.454 168.493 438.981 168.967 438.634 169.58C438.287 170.193 438.114 170.913 438.114 171.74C438.114 172.567 438.287 173.287 438.634 173.9C438.981 174.513 439.454 174.993 440.054 175.34C440.654 175.673 441.327 175.84 442.074 175.84C442.701 175.84 443.281 175.713 443.814 175.46C444.347 175.207 444.794 174.82 445.154 174.3L446.214 175.02C445.801 175.7 445.234 176.22 444.514 176.58C443.794 176.927 442.987 177.1 442.094 177.1ZM455.583 177V174.68L455.523 174.3V170.42C455.523 169.527 455.27 168.84 454.763 168.36C454.27 167.88 453.53 167.64 452.543 167.64C451.863 167.64 451.217 167.753 450.603 167.98C449.99 168.207 449.47 168.507 449.043 168.88L448.403 167.82C448.937 167.367 449.577 167.02 450.323 166.78C451.07 166.527 451.857 166.4 452.683 166.4C454.043 166.4 455.09 166.74 455.823 167.42C456.57 168.087 456.943 169.107 456.943 170.48V177H455.583ZM451.963 177.1C451.177 177.1 450.49 176.973 449.903 176.72C449.33 176.453 448.89 176.093 448.583 175.64C448.277 175.173 448.123 174.64 448.123 174.04C448.123 173.493 448.25 173 448.503 172.56C448.77 172.107 449.197 171.747 449.783 171.48C450.383 171.2 451.183 171.06 452.183 171.06H455.803V172.12H452.223C451.21 172.12 450.503 172.3 450.103 172.66C449.717 173.02 449.523 173.467 449.523 174C449.523 174.6 449.757 175.08 450.223 175.44C450.69 175.8 451.343 175.98 452.183 175.98C452.983 175.98 453.67 175.8 454.243 175.44C454.83 175.067 455.257 174.533 455.523 173.84L455.843 174.82C455.577 175.513 455.11 176.067 454.443 176.48C453.79 176.893 452.963 177.1 451.963 177.1ZM460.8 177V162.16H462.22V177H460.8ZM472.751 177V174.68L472.691 174.3V170.42C472.691 169.527 472.438 168.84 471.931 168.36C471.438 167.88 470.698 167.64 469.711 167.64C469.031 167.64 468.385 167.753 467.771 167.98C467.158 168.207 466.638 168.507 466.211 168.88L465.571 167.82C466.105 167.367 466.745 167.02 467.491 166.78C468.238 166.527 469.025 166.4 469.851 166.4C471.211 166.4 472.258 166.74 472.991 167.42C473.738 168.087 474.111 169.107 474.111 170.48V177H472.751ZM469.131 177.1C468.345 177.1 467.658 176.973 467.071 176.72C466.498 176.453 466.058 176.093 465.751 175.64C465.445 175.173 465.291 174.64 465.291 174.04C465.291 173.493 465.418 173 465.671 172.56C465.938 172.107 466.365 171.747 466.951 171.48C467.551 171.2 468.351 171.06 469.351 171.06H472.971V172.12H469.391C468.378 172.12 467.671 172.3 467.271 172.66C466.885 173.02 466.691 173.467 466.691 174C466.691 174.6 466.925 175.08 467.391 175.44C467.858 175.8 468.511 175.98 469.351 175.98C470.151 175.98 470.838 175.8 471.411 175.44C471.998 175.067 472.425 174.533 472.691 173.84L473.011 174.82C472.745 175.513 472.278 176.067 471.611 176.48C470.958 176.893 470.131 177.1 469.131 177.1Z" fill="black"/>
</svg>
