<svg width="627" height="191" viewBox="0 0 627 191" fill="none" xmlns="http://www.w3.org/2000/svg">
<path d="M125.566 11.9766H136.693V15.5625H130.119V24.5449H135.199V28.1309H130.119V38.4141H136.869V42H125.566V11.9766ZM139.875 17.7949H143.303L143.707 20.3789V20.3965C144.059 19.8457 144.434 19.3887 144.832 19.0254C145.242 18.6504 145.664 18.3516 146.098 18.1289C146.531 17.9062 146.971 17.748 147.416 17.6543C147.873 17.5605 148.324 17.5137 148.77 17.5137C150.188 17.5137 151.277 18.0117 152.039 19.0078C152.812 19.9922 153.199 21.4746 153.199 23.4551V42H148.752V23.6133C148.752 22.5469 148.588 21.8086 148.26 21.3984C147.932 20.9766 147.451 20.7656 146.818 20.7656C146.373 20.7656 145.928 20.9121 145.482 21.2051C145.049 21.498 144.662 21.9023 144.322 22.418V42H139.875V17.7949ZM163.641 42.2637C162.598 42.2637 161.672 42.0703 160.863 41.6836C160.066 41.2969 159.393 40.6934 158.842 39.873C158.291 39.0527 157.875 38.0039 157.594 36.7266C157.312 35.4375 157.172 33.8906 157.172 32.0859V27.5156C157.172 25.9805 157.283 24.668 157.506 23.5781C157.74 22.4766 158.039 21.5566 158.402 20.8184C158.777 20.0684 159.205 19.4766 159.686 19.043C160.178 18.6094 160.682 18.2812 161.197 18.0586C161.713 17.8242 162.223 17.6777 162.727 17.6191C163.242 17.5488 163.717 17.5137 164.15 17.5137C164.947 17.5137 165.715 17.6367 166.453 17.8828C167.191 18.1172 167.842 18.5273 168.404 19.1133C168.967 19.6875 169.412 20.4609 169.74 21.4336C170.08 22.4062 170.25 23.6191 170.25 25.0723C170.25 25.5645 170.232 26.0625 170.197 26.5664C170.174 27.0703 170.139 27.5684 170.092 28.0605C170.045 28.541 169.98 29.0098 169.898 29.4668C169.828 29.9238 169.752 30.3457 169.67 30.7324H161.637V33.1934C161.637 34.248 161.678 35.1387 161.76 35.8652C161.842 36.5801 161.977 37.1602 162.164 37.6055C162.363 38.0391 162.627 38.3555 162.955 38.5547C163.295 38.7422 163.717 38.8359 164.221 38.8359C164.49 38.8359 164.754 38.7832 165.012 38.6777C165.27 38.5605 165.492 38.373 165.68 38.1152C165.879 37.8574 166.037 37.5176 166.154 37.0957C166.271 36.6621 166.33 36.1289 166.33 35.4961V34.7402H170.039V35.6719C170.039 37.9688 169.488 39.6445 168.387 40.6992C167.297 41.7422 165.715 42.2637 163.641 42.2637ZM166.102 27.7441C166.113 27.6152 166.125 27.4453 166.137 27.2344C166.148 27.0117 166.154 26.7832 166.154 26.5488C166.166 26.3145 166.172 26.0859 166.172 25.8633C166.172 25.6289 166.172 25.4297 166.172 25.2656C166.172 23.6719 165.984 22.5234 165.609 21.8203C165.234 21.1172 164.678 20.7656 163.939 20.7656C163.553 20.7656 163.213 20.8594 162.92 21.0469C162.627 21.2227 162.387 21.5273 162.199 21.9609C162.012 22.3828 161.871 22.9453 161.777 23.6484C161.684 24.3516 161.637 25.2246 161.637 26.2676V27.7441H166.102ZM174.012 17.7949H177.264L177.65 20.2559C178.143 19.3418 178.705 18.6562 179.338 18.1992C179.982 17.7422 180.639 17.5137 181.307 17.5137C182.584 17.5137 183.527 17.9062 184.137 18.6914C184.746 19.4766 185.051 20.6543 185.051 22.2246C185.051 22.4238 185.033 22.6641 184.998 22.9453C184.975 23.2148 184.934 23.502 184.875 23.8066C184.828 24.0996 184.764 24.3984 184.682 24.7031C184.611 24.9961 184.535 25.2656 184.453 25.5117H181.359V23.2617C181.359 22.7695 181.324 22.3652 181.254 22.0488C181.195 21.7324 181.113 21.4805 181.008 21.293C180.902 21.0938 180.779 20.959 180.639 20.8887C180.498 20.8066 180.346 20.7656 180.182 20.7656C179.83 20.7656 179.502 20.8828 179.197 21.1172C178.904 21.3398 178.658 21.6562 178.459 22.0664V42H174.012V17.7949ZM191.484 43.6523C191.484 44.6953 191.678 45.4336 192.064 45.8672C192.451 46.3008 193.049 46.5176 193.857 46.5176C194.186 46.5176 194.502 46.4648 194.807 46.3594C195.111 46.2656 195.375 46.084 195.598 45.8145C195.832 45.5566 196.02 45.1934 196.16 44.7246C196.301 44.2559 196.371 43.6523 196.371 42.9141V39.0996C195.973 39.6152 195.457 40.0605 194.824 40.4355C194.203 40.7988 193.43 40.9805 192.504 40.9805C192.234 40.9805 191.918 40.957 191.555 40.9102C191.191 40.8516 190.816 40.7285 190.43 40.541C190.043 40.3535 189.662 40.0723 189.287 39.6973C188.912 39.3105 188.578 38.7949 188.285 38.1504C187.992 37.5059 187.752 36.7031 187.564 35.7422C187.389 34.7695 187.301 33.5977 187.301 32.2266V25.8633C187.301 24.5508 187.389 23.4375 187.564 22.5234C187.752 21.5977 187.992 20.8242 188.285 20.2031C188.578 19.582 188.912 19.0957 189.287 18.7441C189.674 18.3926 190.061 18.1289 190.447 17.9531C190.846 17.7656 191.232 17.6484 191.607 17.6016C191.982 17.5547 192.316 17.5312 192.609 17.5312C193.195 17.5312 193.711 17.6074 194.156 17.7598C194.613 17.9121 195.006 18.1172 195.334 18.375C195.674 18.6211 195.961 18.9023 196.195 19.2188C196.43 19.5352 196.629 19.8516 196.793 20.168L197.197 17.7773H200.66V41.0156C200.66 42.3633 200.531 43.5762 200.273 44.6543C200.016 45.7441 199.611 46.6699 199.061 47.4316C198.51 48.2051 197.807 48.7969 196.951 49.207C196.107 49.6172 195.094 49.8223 193.91 49.8223C193.113 49.8223 192.363 49.752 191.66 49.6113C190.957 49.4707 190.342 49.2188 189.814 48.8555C189.287 48.5039 188.871 48.0176 188.566 47.3965C188.262 46.7871 188.109 46.0078 188.109 45.0586C188.109 44.8945 188.127 44.6895 188.162 44.4434C188.197 44.1973 188.256 43.9336 188.338 43.6523H191.484ZM194.016 37.5352C194.309 37.5352 194.566 37.4883 194.789 37.3945C195.023 37.2891 195.229 37.1543 195.404 36.9902C195.592 36.8262 195.75 36.6387 195.879 36.4277C196.02 36.2168 196.137 36 196.23 35.7773V22.541C196.008 22.0488 195.709 21.6328 195.334 21.293C194.971 20.9414 194.525 20.7656 193.998 20.7656C193.67 20.7656 193.371 20.8242 193.102 20.9414C192.832 21.0586 192.598 21.2812 192.398 21.6094C192.199 21.9258 192.041 22.3711 191.924 22.9453C191.818 23.5078 191.766 24.2402 191.766 25.1426V33.1055C191.766 34.0078 191.818 34.7461 191.924 35.3203C192.041 35.8945 192.199 36.3457 192.398 36.6738C192.598 37.002 192.832 37.2305 193.102 37.3594C193.383 37.4766 193.688 37.5352 194.016 37.5352ZM205.406 17.7949H209.854V42H205.406V17.7949ZM205.441 14.4551L210.539 7.14258L213.51 9.55078L207.639 16.3008L205.441 14.4551ZM217.852 42.2637C217.102 42.2637 216.434 42.1172 215.848 41.8242C215.273 41.5195 214.787 41.1094 214.389 40.5938C213.99 40.0781 213.686 39.4688 213.475 38.7656C213.275 38.0508 213.176 37.2773 213.176 36.4453C213.176 35.4492 213.299 34.5645 213.545 33.791C213.791 33.0176 214.148 32.3203 214.617 31.6992C215.098 31.0781 215.689 30.5156 216.393 30.0117C217.096 29.4961 217.91 29.0098 218.836 28.5527C219.281 28.3301 219.779 28.1074 220.33 27.8848C220.893 27.6504 221.391 27.4512 221.824 27.2871V24.0879C221.824 23.6191 221.807 23.1855 221.771 22.7871C221.736 22.377 221.648 22.0254 221.508 21.7324C221.379 21.4277 221.18 21.1934 220.91 21.0293C220.641 20.8535 220.271 20.7656 219.803 20.7656C219.486 20.7656 219.176 20.8242 218.871 20.9414C218.578 21.0586 218.314 21.2578 218.08 21.5391C217.857 21.8203 217.676 22.1953 217.535 22.6641C217.406 23.1328 217.342 23.7129 217.342 24.4043V25.459H213.949C213.844 25.002 213.762 24.5859 213.703 24.2109C213.656 23.8242 213.633 23.4434 213.633 23.0684C213.633 22.166 213.785 21.3691 214.09 20.6777C214.406 19.9863 214.84 19.4062 215.391 18.9375C215.953 18.4688 216.621 18.1172 217.395 17.8828C218.168 17.6367 219.018 17.5137 219.943 17.5137C221.15 17.5137 222.152 17.6484 222.949 17.918C223.746 18.1758 224.379 18.5684 224.848 19.0957C225.328 19.623 225.662 20.2852 225.85 21.082C226.049 21.8789 226.148 22.8105 226.148 23.877V42H222.844L222.527 39.9258C222.047 40.6172 221.402 41.1797 220.594 41.6133C219.797 42.0469 218.883 42.2637 217.852 42.2637ZM219.82 38.8359C220.195 38.8359 220.559 38.7422 220.91 38.5547C221.273 38.3555 221.578 38.1152 221.824 37.834V30.2578C221.59 30.3516 221.326 30.4629 221.033 30.5918C220.74 30.7207 220.424 30.8906 220.084 31.1016C219.768 31.3008 219.457 31.541 219.152 31.8223C218.848 32.1035 218.572 32.4375 218.326 32.8242C218.092 33.2109 217.898 33.6504 217.746 34.1426C217.605 34.623 217.535 35.1621 217.535 35.7598C217.535 36.6855 217.717 37.4297 218.08 37.9922C218.443 38.5547 219.023 38.8359 219.82 38.8359ZM229.805 36.9375C229.805 36.4102 229.852 35.9004 229.945 35.4082C230.051 34.916 230.15 34.5234 230.244 34.2305H233.373C233.373 35.1094 233.414 35.8477 233.496 36.4453C233.59 37.0312 233.736 37.5 233.936 37.8516C234.135 38.2031 234.398 38.4551 234.727 38.6074C235.066 38.7598 235.477 38.8359 235.957 38.8359C236.625 38.8359 237.111 38.6484 237.416 38.2734C237.721 37.8984 237.873 37.4648 237.873 36.9727C237.873 36.7148 237.838 36.4688 237.768 36.2344C237.697 36 237.598 35.7656 237.469 35.5312C237.34 35.2852 237.182 35.0391 236.994 34.793C236.807 34.5469 236.596 34.2773 236.361 33.9844L233.109 30.1523C232.688 29.625 232.277 29.0918 231.879 28.5527C231.492 28.002 231.146 27.4395 230.842 26.8652C230.549 26.2793 230.309 25.6699 230.121 25.0371C229.945 24.4043 229.857 23.7363 229.857 23.0332C229.857 22.0957 230.016 21.2812 230.332 20.5898C230.66 19.8984 231.094 19.3242 231.633 18.8672C232.184 18.4102 232.816 18.0703 233.531 17.8477C234.246 17.625 235.002 17.5137 235.799 17.5137C236.678 17.5137 237.469 17.6191 238.172 17.8301C238.875 18.041 239.479 18.3574 239.982 18.7793C240.486 19.2012 240.873 19.7285 241.143 20.3613C241.412 20.9824 241.547 21.709 241.547 22.541C241.547 23.1035 241.494 23.6484 241.389 24.1758C241.295 24.7031 241.201 25.1543 241.107 25.5293H238.031C238.02 24.7324 237.984 24.0352 237.926 23.4375C237.867 22.8398 237.756 22.3477 237.592 21.9609C237.439 21.5625 237.223 21.2637 236.941 21.0645C236.672 20.8652 236.314 20.7656 235.869 20.7656C235.482 20.7656 235.16 20.8301 234.902 20.959C234.645 21.0762 234.434 21.2344 234.27 21.4336C234.117 21.6328 234.006 21.8555 233.936 22.1016C233.877 22.3477 233.848 22.5996 233.848 22.8574C233.848 23.4199 233.982 23.9414 234.252 24.4219C234.521 24.9023 234.879 25.4238 235.324 25.9863L238.875 30.1523C239.133 30.4688 239.432 30.8555 239.771 31.3125C240.111 31.7578 240.434 32.2559 240.738 32.8066C241.043 33.3457 241.301 33.9375 241.512 34.582C241.723 35.2266 241.828 35.9004 241.828 36.6035C241.828 37.459 241.693 38.2383 241.424 38.9414C241.154 39.6328 240.756 40.2246 240.229 40.7168C239.701 41.209 239.051 41.5898 238.277 41.8594C237.516 42.1289 236.643 42.2637 235.658 42.2637C234.85 42.2637 234.088 42.1758 233.373 42C232.658 41.8125 232.037 41.5137 231.51 41.1035C230.982 40.6816 230.566 40.1309 230.262 39.4512C229.957 38.7715 229.805 37.9336 229.805 36.9375ZM253.043 17.7949H256.295L256.682 20.2559C257.174 19.3418 257.736 18.6562 258.369 18.1992C259.014 17.7422 259.67 17.5137 260.338 17.5137C261.615 17.5137 262.559 17.9062 263.168 18.6914C263.777 19.4766 264.082 20.6543 264.082 22.2246C264.082 22.4238 264.064 22.6641 264.029 22.9453C264.006 23.2148 263.965 23.502 263.906 23.8066C263.859 24.0996 263.795 24.3984 263.713 24.7031C263.643 24.9961 263.566 25.2656 263.484 25.5117H260.391V23.2617C260.391 22.7695 260.355 22.3652 260.285 22.0488C260.227 21.7324 260.145 21.4805 260.039 21.293C259.934 21.0938 259.811 20.959 259.67 20.8887C259.529 20.8066 259.377 20.7656 259.213 20.7656C258.861 20.7656 258.533 20.8828 258.229 21.1172C257.936 21.3398 257.689 21.6562 257.49 22.0664V42H253.043V17.7949ZM272.73 42.2637C271.688 42.2637 270.762 42.0703 269.953 41.6836C269.156 41.2969 268.482 40.6934 267.932 39.873C267.381 39.0527 266.965 38.0039 266.684 36.7266C266.402 35.4375 266.262 33.8906 266.262 32.0859V27.5156C266.262 25.9805 266.373 24.668 266.596 23.5781C266.83 22.4766 267.129 21.5566 267.492 20.8184C267.867 20.0684 268.295 19.4766 268.775 19.043C269.268 18.6094 269.771 18.2812 270.287 18.0586C270.803 17.8242 271.312 17.6777 271.816 17.6191C272.332 17.5488 272.807 17.5137 273.24 17.5137C274.037 17.5137 274.805 17.6367 275.543 17.8828C276.281 18.1172 276.932 18.5273 277.494 19.1133C278.057 19.6875 278.502 20.4609 278.83 21.4336C279.17 22.4062 279.34 23.6191 279.34 25.0723C279.34 25.5645 279.322 26.0625 279.287 26.5664C279.264 27.0703 279.229 27.5684 279.182 28.0605C279.135 28.541 279.07 29.0098 278.988 29.4668C278.918 29.9238 278.842 30.3457 278.76 30.7324H270.727V33.1934C270.727 34.248 270.768 35.1387 270.85 35.8652C270.932 36.5801 271.066 37.1602 271.254 37.6055C271.453 38.0391 271.717 38.3555 272.045 38.5547C272.385 38.7422 272.807 38.8359 273.311 38.8359C273.58 38.8359 273.844 38.7832 274.102 38.6777C274.359 38.5605 274.582 38.373 274.77 38.1152C274.969 37.8574 275.127 37.5176 275.244 37.0957C275.361 36.6621 275.42 36.1289 275.42 35.4961V34.7402H279.129V35.6719C279.129 37.9688 278.578 39.6445 277.477 40.6992C276.387 41.7422 274.805 42.2637 272.73 42.2637ZM275.191 27.7441C275.203 27.6152 275.215 27.4453 275.227 27.2344C275.238 27.0117 275.244 26.7832 275.244 26.5488C275.256 26.3145 275.262 26.0859 275.262 25.8633C275.262 25.6289 275.262 25.4297 275.262 25.2656C275.262 23.6719 275.074 22.5234 274.699 21.8203C274.324 21.1172 273.768 20.7656 273.029 20.7656C272.643 20.7656 272.303 20.8594 272.01 21.0469C271.717 21.2227 271.477 21.5273 271.289 21.9609C271.102 22.3828 270.961 22.9453 270.867 23.6484C270.773 24.3516 270.727 25.2246 270.727 26.2676V27.7441H275.191ZM283.102 17.7949H286.529L286.934 20.3789V20.3965C287.285 19.8457 287.66 19.3887 288.059 19.0254C288.469 18.6504 288.891 18.3516 289.324 18.1289C289.758 17.9062 290.197 17.748 290.643 17.6543C291.1 17.5605 291.551 17.5137 291.996 17.5137C293.414 17.5137 294.504 18.0117 295.266 19.0078C296.039 19.9922 296.426 21.4746 296.426 23.4551V42H291.979V23.6133C291.979 22.5469 291.814 21.8086 291.486 21.3984C291.158 20.9766 290.678 20.7656 290.045 20.7656C289.6 20.7656 289.154 20.9121 288.709 21.2051C288.275 21.498 287.889 21.9023 287.549 22.418V42H283.102V17.7949ZM307.131 42.2637C306.615 42.2637 306.088 42.2227 305.549 42.1406C305.021 42.0586 304.506 41.8887 304.002 41.6309C303.51 41.373 303.041 41.0039 302.596 40.5234C302.162 40.043 301.781 39.4102 301.453 38.625C301.125 37.8398 300.867 36.873 300.68 35.7246C300.492 34.5762 300.398 33.2051 300.398 31.6113V27.8145C300.398 26.2441 300.492 24.9023 300.68 23.7891C300.879 22.6641 301.143 21.7207 301.471 20.959C301.811 20.1973 302.203 19.5938 302.648 19.1484C303.094 18.6914 303.562 18.3457 304.055 18.1113C304.559 17.8652 305.074 17.707 305.602 17.6367C306.129 17.5547 306.645 17.5137 307.148 17.5137C307.629 17.5137 308.127 17.5488 308.643 17.6191C309.158 17.6895 309.662 17.8418 310.154 18.0762C310.646 18.2988 311.109 18.6387 311.543 19.0957C311.988 19.541 312.375 20.1445 312.703 20.9062C313.043 21.668 313.307 22.6172 313.494 23.7539C313.693 24.8789 313.793 26.2324 313.793 27.8145V31.6113C313.793 33.1816 313.693 34.5352 313.494 35.6719C313.295 36.8086 313.025 37.7695 312.686 38.5547C312.346 39.3398 311.953 39.9785 311.508 40.4707C311.062 40.9512 310.594 41.3262 310.102 41.5957C309.609 41.8652 309.105 42.041 308.59 42.123C308.086 42.2168 307.6 42.2637 307.131 42.2637ZM307.166 38.8359C307.564 38.8359 307.898 38.7363 308.168 38.5371C308.449 38.3262 308.672 37.9863 308.836 37.5176C309.012 37.0488 309.135 36.4336 309.205 35.6719C309.287 34.8984 309.328 33.9434 309.328 32.8066V26.8477C309.328 25.7109 309.287 24.7559 309.205 23.9824C309.135 23.209 309.012 22.5879 308.836 22.1191C308.672 21.6387 308.449 21.293 308.168 21.082C307.898 20.8711 307.564 20.7656 307.166 20.7656C306.744 20.7656 306.387 20.8711 306.094 21.082C305.812 21.293 305.578 21.6387 305.391 22.1191C305.203 22.5879 305.068 23.209 304.986 23.9824C304.904 24.7559 304.863 25.7109 304.863 26.8477V32.8066C304.863 33.9434 304.904 34.8984 304.986 35.6719C305.068 36.4336 305.203 37.0488 305.391 37.5176C305.578 37.9863 305.812 38.3262 306.094 38.5371C306.387 38.7363 306.744 38.8359 307.166 38.8359ZM315.727 17.7949H320.156L322.494 30.6621L323.074 35.8125H323.215L323.883 30.6621L326.203 17.7949H330.492L324.973 42H321.176L315.727 17.7949ZM336.434 42.2637C335.684 42.2637 335.016 42.1172 334.43 41.8242C333.855 41.5195 333.369 41.1094 332.971 40.5938C332.572 40.0781 332.268 39.4688 332.057 38.7656C331.857 38.0508 331.758 37.2773 331.758 36.4453C331.758 35.4492 331.881 34.5645 332.127 33.791C332.373 33.0176 332.73 32.3203 333.199 31.6992C333.68 31.0781 334.271 30.5156 334.975 30.0117C335.678 29.4961 336.492 29.0098 337.418 28.5527C337.863 28.3301 338.361 28.1074 338.912 27.8848C339.475 27.6504 339.973 27.4512 340.406 27.2871V24.0879C340.406 23.6191 340.389 23.1855 340.354 22.7871C340.318 22.377 340.23 22.0254 340.09 21.7324C339.961 21.4277 339.762 21.1934 339.492 21.0293C339.223 20.8535 338.854 20.7656 338.385 20.7656C338.068 20.7656 337.758 20.8242 337.453 20.9414C337.16 21.0586 336.896 21.2578 336.662 21.5391C336.439 21.8203 336.258 22.1953 336.117 22.6641C335.988 23.1328 335.924 23.7129 335.924 24.4043V25.459H332.531C332.426 25.002 332.344 24.5859 332.285 24.2109C332.238 23.8242 332.215 23.4434 332.215 23.0684C332.215 22.166 332.367 21.3691 332.672 20.6777C332.988 19.9863 333.422 19.4062 333.973 18.9375C334.535 18.4688 335.203 18.1172 335.977 17.8828C336.75 17.6367 337.6 17.5137 338.525 17.5137C339.732 17.5137 340.734 17.6484 341.531 17.918C342.328 18.1758 342.961 18.5684 343.43 19.0957C343.91 19.623 344.244 20.2852 344.432 21.082C344.631 21.8789 344.73 22.8105 344.73 23.877V42H341.426L341.109 39.9258C340.629 40.6172 339.984 41.1797 339.176 41.6133C338.379 42.0469 337.465 42.2637 336.434 42.2637ZM338.402 38.8359C338.777 38.8359 339.141 38.7422 339.492 38.5547C339.855 38.3555 340.16 38.1152 340.406 37.834V30.2578C340.172 30.3516 339.908 30.4629 339.615 30.5918C339.322 30.7207 339.006 30.8906 338.666 31.1016C338.35 31.3008 338.039 31.541 337.734 31.8223C337.43 32.1035 337.154 32.4375 336.908 32.8242C336.674 33.2109 336.48 33.6504 336.328 34.1426C336.188 34.623 336.117 35.1621 336.117 35.7598C336.117 36.6855 336.299 37.4297 336.662 37.9922C337.025 38.5547 337.605 38.8359 338.402 38.8359ZM349.336 10.0254H353.783V16.4766L353.643 19.6758L353.66 19.6934C353.859 19.4121 354.088 19.1426 354.346 18.8848C354.615 18.627 354.914 18.3984 355.242 18.1992C355.582 17.9883 355.951 17.8242 356.35 17.707C356.76 17.5898 357.205 17.5312 357.686 17.5312C357.932 17.5312 358.225 17.5547 358.564 17.6016C358.916 17.6484 359.273 17.7656 359.637 17.9531C360.012 18.1406 360.381 18.4219 360.744 18.7969C361.119 19.1602 361.447 19.6641 361.729 20.3086C362.021 20.9531 362.256 21.7559 362.432 22.7168C362.619 23.6777 362.713 24.8438 362.713 26.2148V33.5449C362.713 34.916 362.619 36.082 362.432 37.043C362.256 38.0039 362.021 38.8125 361.729 39.4688C361.436 40.1133 361.102 40.623 360.727 40.998C360.352 41.373 359.971 41.6543 359.584 41.8418C359.197 42.0293 358.822 42.1465 358.459 42.1934C358.096 42.252 357.779 42.2812 357.51 42.2812C356.947 42.2812 356.438 42.2109 355.98 42.0703C355.535 41.9297 355.137 41.7422 354.785 41.5078C354.445 41.2617 354.141 40.9863 353.871 40.6816C353.613 40.377 353.385 40.0664 353.186 39.75L352.816 42H349.336V10.0254ZM353.783 37.0957C353.877 37.3184 353.988 37.5352 354.117 37.7461C354.258 37.957 354.416 38.1445 354.592 38.3086C354.768 38.4609 354.973 38.5898 355.207 38.6953C355.441 38.7891 355.705 38.8359 355.998 38.8359C356.326 38.8359 356.625 38.7773 356.895 38.6602C357.164 38.5312 357.398 38.3086 357.598 37.9922C357.797 37.6641 357.949 37.2129 358.055 36.6387C358.172 36.0645 358.23 35.3262 358.23 34.4238V25.1602C358.23 24.2578 358.172 23.5254 358.055 22.9629C357.949 22.3887 357.797 21.9375 357.598 21.6094C357.41 21.2812 357.182 21.0586 356.912 20.9414C356.643 20.8242 356.344 20.7656 356.016 20.7656C355.465 20.7656 355.008 20.9297 354.645 21.2578C354.293 21.5742 354.006 21.9551 353.783 22.4004V37.0957ZM366.809 10.0254H371.256V42H366.809V10.0254ZM381.75 42.2637C380.707 42.2637 379.781 42.0703 378.973 41.6836C378.176 41.2969 377.502 40.6934 376.951 39.873C376.4 39.0527 375.984 38.0039 375.703 36.7266C375.422 35.4375 375.281 33.8906 375.281 32.0859V27.5156C375.281 25.9805 375.393 24.668 375.615 23.5781C375.85 22.4766 376.148 21.5566 376.512 20.8184C376.887 20.0684 377.314 19.4766 377.795 19.043C378.287 18.6094 378.791 18.2812 379.307 18.0586C379.822 17.8242 380.332 17.6777 380.836 17.6191C381.352 17.5488 381.826 17.5137 382.26 17.5137C383.057 17.5137 383.824 17.6367 384.562 17.8828C385.301 18.1172 385.951 18.5273 386.514 19.1133C387.076 19.6875 387.521 20.4609 387.85 21.4336C388.189 22.4062 388.359 23.6191 388.359 25.0723C388.359 25.5645 388.342 26.0625 388.307 26.5664C388.283 27.0703 388.248 27.5684 388.201 28.0605C388.154 28.541 388.09 29.0098 388.008 29.4668C387.938 29.9238 387.861 30.3457 387.779 30.7324H379.746V33.1934C379.746 34.248 379.787 35.1387 379.869 35.8652C379.951 36.5801 380.086 37.1602 380.273 37.6055C380.473 38.0391 380.736 38.3555 381.064 38.5547C381.404 38.7422 381.826 38.8359 382.33 38.8359C382.6 38.8359 382.863 38.7832 383.121 38.6777C383.379 38.5605 383.602 38.373 383.789 38.1152C383.988 37.8574 384.146 37.5176 384.264 37.0957C384.381 36.6621 384.439 36.1289 384.439 35.4961V34.7402H388.148V35.6719C388.148 37.9688 387.598 39.6445 386.496 40.6992C385.406 41.7422 383.824 42.2637 381.75 42.2637ZM384.211 27.7441C384.223 27.6152 384.234 27.4453 384.246 27.2344C384.258 27.0117 384.264 26.7832 384.264 26.5488C384.275 26.3145 384.281 26.0859 384.281 25.8633C384.281 25.6289 384.281 25.4297 384.281 25.2656C384.281 23.6719 384.094 22.5234 383.719 21.8203C383.344 21.1172 382.787 20.7656 382.049 20.7656C381.662 20.7656 381.322 20.8594 381.029 21.0469C380.736 21.2227 380.496 21.5273 380.309 21.9609C380.121 22.3828 379.98 22.9453 379.887 23.6484C379.793 24.3516 379.746 25.2246 379.746 26.2676V27.7441H384.211ZM391.172 36.9375C391.172 36.4102 391.219 35.9004 391.312 35.4082C391.418 34.916 391.518 34.5234 391.611 34.2305H394.74C394.74 35.1094 394.781 35.8477 394.863 36.4453C394.957 37.0312 395.104 37.5 395.303 37.8516C395.502 38.2031 395.766 38.4551 396.094 38.6074C396.434 38.7598 396.844 38.8359 397.324 38.8359C397.992 38.8359 398.479 38.6484 398.783 38.2734C399.088 37.8984 399.24 37.4648 399.24 36.9727C399.24 36.7148 399.205 36.4688 399.135 36.2344C399.064 36 398.965 35.7656 398.836 35.5312C398.707 35.2852 398.549 35.0391 398.361 34.793C398.174 34.5469 397.963 34.2773 397.729 33.9844L394.477 30.1523C394.055 29.625 393.645 29.0918 393.246 28.5527C392.859 28.002 392.514 27.4395 392.209 26.8652C391.916 26.2793 391.676 25.6699 391.488 25.0371C391.312 24.4043 391.225 23.7363 391.225 23.0332C391.225 22.0957 391.383 21.2812 391.699 20.5898C392.027 19.8984 392.461 19.3242 393 18.8672C393.551 18.4102 394.184 18.0703 394.898 17.8477C395.613 17.625 396.369 17.5137 397.166 17.5137C398.045 17.5137 398.836 17.6191 399.539 17.8301C400.242 18.041 400.846 18.3574 401.35 18.7793C401.854 19.2012 402.24 19.7285 402.51 20.3613C402.779 20.9824 402.914 21.709 402.914 22.541C402.914 23.1035 402.861 23.6484 402.756 24.1758C402.662 24.7031 402.568 25.1543 402.475 25.5293H399.398C399.387 24.7324 399.352 24.0352 399.293 23.4375C399.234 22.8398 399.123 22.3477 398.959 21.9609C398.807 21.5625 398.59 21.2637 398.309 21.0645C398.039 20.8652 397.682 20.7656 397.236 20.7656C396.85 20.7656 396.527 20.8301 396.27 20.959C396.012 21.0762 395.801 21.2344 395.637 21.4336C395.484 21.6328 395.373 21.8555 395.303 22.1016C395.244 22.3477 395.215 22.5996 395.215 22.8574C395.215 23.4199 395.35 23.9414 395.619 24.4219C395.889 24.9023 396.246 25.4238 396.691 25.9863L400.242 30.1523C400.5 30.4688 400.799 30.8555 401.139 31.3125C401.479 31.7578 401.801 32.2559 402.105 32.8066C402.41 33.3457 402.668 33.9375 402.879 34.582C403.09 35.2266 403.195 35.9004 403.195 36.6035C403.195 37.459 403.061 38.2383 402.791 38.9414C402.521 39.6328 402.123 40.2246 401.596 40.7168C401.068 41.209 400.418 41.5898 399.645 41.8594C398.883 42.1289 398.01 42.2637 397.025 42.2637C396.217 42.2637 395.455 42.1758 394.74 42C394.025 41.8125 393.404 41.5137 392.877 41.1035C392.35 40.6816 391.934 40.1309 391.629 39.4512C391.324 38.7715 391.172 37.9336 391.172 36.9375Z" fill="black"/>
<path d="M125.28 88V74H126.76V86.72H134.6V88H125.28ZM143.337 88V85.68L143.277 85.3V81.42C143.277 80.5267 143.024 79.84 142.517 79.36C142.024 78.88 141.284 78.64 140.297 78.64C139.617 78.64 138.971 78.7533 138.357 78.98C137.744 79.2067 137.224 79.5067 136.797 79.88L136.157 78.82C136.691 78.3667 137.331 78.02 138.077 77.78C138.824 77.5267 139.611 77.4 140.437 77.4C141.797 77.4 142.844 77.74 143.577 78.42C144.324 79.0867 144.697 80.1067 144.697 81.48V88H143.337ZM139.717 88.1C138.931 88.1 138.244 87.9733 137.657 87.72C137.084 87.4533 136.644 87.0933 136.337 86.64C136.031 86.1733 135.877 85.64 135.877 85.04C135.877 84.4933 136.004 84 136.257 83.56C136.524 83.1067 136.951 82.7467 137.537 82.48C138.137 82.2 138.937 82.06 139.937 82.06H143.557V83.12H139.977C138.964 83.12 138.257 83.3 137.857 83.66C137.471 84.02 137.277 84.4667 137.277 85C137.277 85.6 137.511 86.08 137.977 86.44C138.444 86.8 139.097 86.98 139.937 86.98C140.737 86.98 141.424 86.8 141.997 86.44C142.584 86.0667 143.011 85.5333 143.277 84.84L143.597 85.82C143.331 86.5133 142.864 87.0667 142.197 87.48C141.544 87.8933 140.717 88.1 139.717 88.1ZM158.249 88.1C157.155 88.1 156.195 87.8733 155.369 87.42C154.542 86.9533 153.895 86.32 153.429 85.52C152.962 84.7067 152.729 83.78 152.729 82.74C152.729 81.7 152.949 80.78 153.389 79.98C153.842 79.18 154.455 78.5533 155.229 78.1C156.015 77.6333 156.895 77.4 157.869 77.4C158.855 77.4 159.729 77.6267 160.489 78.08C161.262 78.52 161.869 79.1467 162.309 79.96C162.749 80.76 162.969 81.6867 162.969 82.74C162.969 82.8067 162.962 82.88 162.949 82.96C162.949 83.0267 162.949 83.1 162.949 83.18H153.809V82.12H162.189L161.629 82.54C161.629 81.78 161.462 81.1067 161.129 80.52C160.809 79.92 160.369 79.4533 159.809 79.12C159.249 78.7867 158.602 78.62 157.869 78.62C157.149 78.62 156.502 78.7867 155.929 79.12C155.355 79.4533 154.909 79.92 154.589 80.52C154.269 81.12 154.109 81.8067 154.109 82.58V82.8C154.109 83.6 154.282 84.3067 154.629 84.92C154.989 85.52 155.482 85.9933 156.109 86.34C156.749 86.6733 157.475 86.84 158.289 86.84C158.929 86.84 159.522 86.7267 160.069 86.5C160.629 86.2733 161.109 85.9267 161.509 85.46L162.309 86.38C161.842 86.94 161.255 87.3667 160.549 87.66C159.855 87.9533 159.089 88.1 158.249 88.1ZM165.859 88V73.16H167.279V88H165.859ZM175.69 88.1C174.597 88.1 173.637 87.8733 172.81 87.42C171.983 86.9533 171.337 86.32 170.87 85.52C170.403 84.7067 170.17 83.78 170.17 82.74C170.17 81.7 170.39 80.78 170.83 79.98C171.283 79.18 171.897 78.5533 172.67 78.1C173.457 77.6333 174.337 77.4 175.31 77.4C176.297 77.4 177.17 77.6267 177.93 78.08C178.703 78.52 179.31 79.1467 179.75 79.96C180.19 80.76 180.41 81.6867 180.41 82.74C180.41 82.8067 180.403 82.88 180.39 82.96C180.39 83.0267 180.39 83.1 180.39 83.18H171.25V82.12H179.63L179.07 82.54C179.07 81.78 178.903 81.1067 178.57 80.52C178.25 79.92 177.81 79.4533 177.25 79.12C176.69 78.7867 176.043 78.62 175.31 78.62C174.59 78.62 173.943 78.7867 173.37 79.12C172.797 79.4533 172.35 79.92 172.03 80.52C171.71 81.12 171.55 81.8067 171.55 82.58V82.8C171.55 83.6 171.723 84.3067 172.07 84.92C172.43 85.52 172.923 85.9933 173.55 86.34C174.19 86.6733 174.917 86.84 175.73 86.84C176.37 86.84 176.963 86.7267 177.51 86.5C178.07 86.2733 178.55 85.9267 178.95 85.46L179.75 86.38C179.283 86.94 178.697 87.3667 177.99 87.66C177.297 87.9533 176.53 88.1 175.69 88.1ZM187.66 88.1C186.62 88.1 185.687 87.8733 184.86 87.42C184.047 86.9533 183.407 86.32 182.94 85.52C182.474 84.7067 182.24 83.78 182.24 82.74C182.24 81.6867 182.474 80.76 182.94 79.96C183.407 79.16 184.047 78.5333 184.86 78.08C185.687 77.6267 186.62 77.4 187.66 77.4C188.554 77.4 189.36 77.5733 190.08 77.92C190.8 78.2667 191.367 78.7867 191.78 79.48L190.72 80.2C190.36 79.6667 189.914 79.2733 189.38 79.02C188.847 78.7667 188.267 78.64 187.64 78.64C186.894 78.64 186.22 78.8133 185.62 79.16C185.02 79.4933 184.547 79.9667 184.2 80.58C183.854 81.1933 183.68 81.9133 183.68 82.74C183.68 83.5667 183.854 84.2867 184.2 84.9C184.547 85.5133 185.02 85.9933 185.62 86.34C186.22 86.6733 186.894 86.84 187.64 86.84C188.267 86.84 188.847 86.7133 189.38 86.46C189.914 86.2067 190.36 85.82 190.72 85.3L191.78 86.02C191.367 86.7 190.8 87.22 190.08 87.58C189.36 87.9267 188.554 88.1 187.66 88.1ZM198.007 88.1C197.02 88.1 196.26 87.8333 195.727 87.3C195.194 86.7667 194.927 86.0133 194.927 85.04V75.18H196.347V84.96C196.347 85.5733 196.5 86.0467 196.807 86.38C197.127 86.7133 197.58 86.88 198.167 86.88C198.794 86.88 199.314 86.7 199.727 86.34L200.227 87.36C199.947 87.6133 199.607 87.8 199.207 87.92C198.82 88.04 198.42 88.1 198.007 88.1ZM193.047 78.68V77.5H199.547V78.68H193.047ZM202.812 88V77.5H204.172V80.36L204.032 79.86C204.325 79.06 204.819 78.4533 205.512 78.04C206.205 77.6133 207.065 77.4 208.092 77.4V78.78C208.039 78.78 207.985 78.78 207.932 78.78C207.879 78.7667 207.825 78.76 207.772 78.76C206.665 78.76 205.799 79.1 205.172 79.78C204.545 80.4467 204.232 81.4 204.232 82.64V88H202.812ZM210.683 88V77.5H212.103V88H210.683ZM211.403 75.18C211.11 75.18 210.863 75.08 210.663 74.88C210.463 74.68 210.363 74.44 210.363 74.16C210.363 73.88 210.463 73.6467 210.663 73.46C210.863 73.26 211.11 73.16 211.403 73.16C211.696 73.16 211.943 73.2533 212.143 73.44C212.343 73.6267 212.443 73.86 212.443 74.14C212.443 74.4333 212.343 74.68 212.143 74.88C211.956 75.08 211.71 75.18 211.403 75.18ZM220.414 88.1C219.374 88.1 218.441 87.8733 217.614 87.42C216.801 86.9533 216.161 86.32 215.694 85.52C215.228 84.7067 214.994 83.78 214.994 82.74C214.994 81.6867 215.228 80.76 215.694 79.96C216.161 79.16 216.801 78.5333 217.614 78.08C218.441 77.6267 219.374 77.4 220.414 77.4C221.308 77.4 222.114 77.5733 222.834 77.92C223.554 78.2667 224.121 78.7867 224.534 79.48L223.474 80.2C223.114 79.6667 222.668 79.2733 222.134 79.02C221.601 78.7667 221.021 78.64 220.394 78.64C219.648 78.64 218.974 78.8133 218.374 79.16C217.774 79.4933 217.301 79.9667 216.954 80.58C216.608 81.1933 216.434 81.9133 216.434 82.74C216.434 83.5667 216.608 84.2867 216.954 84.9C217.301 85.5133 217.774 85.9933 218.374 86.34C218.974 86.6733 219.648 86.84 220.394 86.84C221.021 86.84 221.601 86.7133 222.134 86.46C222.668 86.2067 223.114 85.82 223.474 85.3L224.534 86.02C224.121 86.7 223.554 87.22 222.834 87.58C222.114 87.9267 221.308 88.1 220.414 88.1ZM227.168 88V77.5H228.588V88H227.168ZM227.888 75.18C227.594 75.18 227.348 75.08 227.148 74.88C226.948 74.68 226.848 74.44 226.848 74.16C226.848 73.88 226.948 73.6467 227.148 73.46C227.348 73.26 227.594 73.16 227.888 73.16C228.181 73.16 228.428 73.2533 228.628 73.44C228.828 73.6267 228.928 73.86 228.928 74.14C228.928 74.4333 228.828 74.68 228.628 74.88C228.441 75.08 228.194 75.18 227.888 75.18ZM236.719 88.1C235.719 88.1 234.819 87.8733 234.019 87.42C233.232 86.9667 232.612 86.34 232.159 85.54C231.705 84.7267 231.479 83.7933 231.479 82.74C231.479 81.6733 231.705 80.74 232.159 79.94C232.612 79.14 233.232 78.52 234.019 78.08C234.819 77.6267 235.719 77.4 236.719 77.4C237.639 77.4 238.459 77.6067 239.179 78.02C239.912 78.4333 240.492 79.04 240.919 79.84C241.359 80.6267 241.579 81.5933 241.579 82.74C241.579 83.8733 241.365 84.84 240.939 85.64C240.512 86.44 239.932 87.0533 239.199 87.48C238.479 87.8933 237.652 88.1 236.719 88.1ZM236.819 86.84C237.565 86.84 238.232 86.6733 238.819 86.34C239.419 85.9933 239.885 85.5133 240.219 84.9C240.565 84.2733 240.739 83.5533 240.739 82.74C240.739 81.9133 240.565 81.1933 240.219 80.58C239.885 79.9667 239.419 79.4933 238.819 79.16C238.232 78.8133 237.565 78.64 236.819 78.64C236.085 78.64 235.425 78.8133 234.839 79.16C234.252 79.4933 233.785 79.9667 233.439 80.58C233.092 81.1933 232.919 81.9133 232.919 82.74C232.919 83.5533 233.092 84.2733 233.439 84.9C233.785 85.5133 234.252 85.9933 234.839 86.34C235.425 86.6733 236.085 86.84 236.819 86.84ZM240.779 88V84.84L240.919 82.72L240.719 80.6V73.16H242.139V88H240.779ZM252.673 88V85.68L252.613 85.3V81.42C252.613 80.5267 252.36 79.84 251.853 79.36C251.36 78.88 250.62 78.64 249.633 78.64C248.953 78.64 248.307 78.7533 247.693 78.98C247.08 79.2067 246.56 79.5067 246.133 79.88L245.493 78.82C246.027 78.3667 246.667 78.02 247.413 77.78C248.16 77.5267 248.947 77.4 249.773 77.4C251.133 77.4 252.18 77.74 252.913 78.42C253.66 79.0867 254.033 80.1067 254.033 81.48V88H252.673ZM249.053 88.1C248.267 88.1 247.58 87.9733 246.993 87.72C246.42 87.4533 245.98 87.0933 245.673 86.64C245.367 86.1733 245.213 85.64 245.213 85.04C245.213 84.4933 245.34 84 245.593 83.56C245.86 83.1067 246.287 82.7467 246.873 82.48C247.473 82.2 248.273 82.06 249.273 82.06H252.893V83.12H249.313C248.3 83.12 247.593 83.3 247.193 83.66C246.807 84.02 246.613 84.4667 246.613 85C246.613 85.6 246.847 86.08 247.313 86.44C247.78 86.8 248.433 86.98 249.273 86.98C250.073 86.98 250.76 86.8 251.333 86.44C251.92 86.0667 252.347 85.5333 252.613 84.84L252.933 85.82C252.667 86.5133 252.2 87.0667 251.533 87.48C250.88 87.8933 250.053 88.1 249.053 88.1ZM262.07 88.1C261.07 88.1 260.17 87.8733 259.37 87.42C258.583 86.9667 257.963 86.34 257.51 85.54C257.057 84.7267 256.83 83.7933 256.83 82.74C256.83 81.6733 257.057 80.74 257.51 79.94C257.963 79.14 258.583 78.52 259.37 78.08C260.17 77.6267 261.07 77.4 262.07 77.4C262.99 77.4 263.81 77.6067 264.53 78.02C265.263 78.4333 265.843 79.04 266.27 79.84C266.71 80.6267 266.93 81.5933 266.93 82.74C266.93 83.8733 266.717 84.84 266.29 85.64C265.863 86.44 265.283 87.0533 264.55 87.48C263.83 87.8933 263.003 88.1 262.07 88.1ZM262.17 86.84C262.917 86.84 263.583 86.6733 264.17 86.34C264.77 85.9933 265.237 85.5133 265.57 84.9C265.917 84.2733 266.09 83.5533 266.09 82.74C266.09 81.9133 265.917 81.1933 265.57 80.58C265.237 79.9667 264.77 79.4933 264.17 79.16C263.583 78.8133 262.917 78.64 262.17 78.64C261.437 78.64 260.777 78.8133 260.19 79.16C259.603 79.4933 259.137 79.9667 258.79 80.58C258.443 81.1933 258.27 81.9133 258.27 82.74C258.27 83.5533 258.443 84.2733 258.79 84.9C259.137 85.5133 259.603 85.9933 260.19 86.34C260.777 86.6733 261.437 86.84 262.17 86.84ZM266.13 88V84.84L266.27 82.72L266.07 80.6V73.16H267.49V88H266.13ZM280.959 88.1C279.946 88.1 279.033 87.8733 278.219 87.42C277.419 86.9533 276.786 86.32 276.319 85.52C275.853 84.7067 275.619 83.78 275.619 82.74C275.619 81.6867 275.853 80.76 276.319 79.96C276.786 79.16 277.419 78.5333 278.219 78.08C279.019 77.6267 279.933 77.4 280.959 77.4C281.999 77.4 282.919 77.6267 283.719 78.08C284.533 78.5333 285.166 79.16 285.619 79.96C286.086 80.76 286.319 81.6867 286.319 82.74C286.319 83.78 286.086 84.7067 285.619 85.52C285.166 86.32 284.533 86.9533 283.719 87.42C282.906 87.8733 281.986 88.1 280.959 88.1ZM280.959 86.84C281.719 86.84 282.393 86.6733 282.979 86.34C283.566 85.9933 284.026 85.5133 284.359 84.9C284.706 84.2733 284.879 83.5533 284.879 82.74C284.879 81.9133 284.706 81.1933 284.359 80.58C284.026 79.9667 283.566 79.4933 282.979 79.16C282.393 78.8133 281.726 78.64 280.979 78.64C280.233 78.64 279.566 78.8133 278.979 79.16C278.393 79.4933 277.926 79.9667 277.579 80.58C277.233 81.1933 277.059 81.9133 277.059 82.74C277.059 83.5533 277.233 84.2733 277.579 84.9C277.926 85.5133 278.393 85.9933 278.979 86.34C279.566 86.6733 280.226 86.84 280.959 86.84ZM294.638 88.1C293.718 88.1 292.892 87.8933 292.158 87.48C291.425 87.0533 290.845 86.44 290.418 85.64C289.992 84.84 289.778 83.8733 289.778 82.74C289.778 81.5933 289.992 80.6267 290.418 79.84C290.858 79.04 291.445 78.4333 292.178 78.02C292.912 77.6067 293.732 77.4 294.638 77.4C295.638 77.4 296.532 77.6267 297.318 78.08C298.118 78.52 298.745 79.14 299.198 79.94C299.652 80.74 299.878 81.6733 299.878 82.74C299.878 83.7933 299.652 84.7267 299.198 85.54C298.745 86.34 298.118 86.9667 297.318 87.42C296.532 87.8733 295.638 88.1 294.638 88.1ZM289.218 88V73.16H290.638V80.6L290.438 82.72L290.578 84.84V88H289.218ZM294.538 86.84C295.285 86.84 295.952 86.6733 296.538 86.34C297.125 85.9933 297.592 85.5133 297.938 84.9C298.285 84.2733 298.458 83.5533 298.458 82.74C298.458 81.9133 298.285 81.1933 297.938 80.58C297.592 79.9667 297.125 79.4933 296.538 79.16C295.952 78.8133 295.285 78.64 294.538 78.64C293.792 78.64 293.118 78.8133 292.518 79.16C291.932 79.4933 291.465 79.9667 291.118 80.58C290.785 81.1933 290.618 81.9133 290.618 82.74C290.618 83.5533 290.785 84.2733 291.118 84.9C291.465 85.5133 291.932 85.9933 292.518 86.34C293.118 86.6733 293.792 86.84 294.538 86.84ZM306.093 88.1C305.106 88.1 304.346 87.8333 303.813 87.3C303.28 86.7667 303.013 86.0133 303.013 85.04V75.18H304.433V84.96C304.433 85.5733 304.586 86.0467 304.893 86.38C305.213 86.7133 305.666 86.88 306.253 86.88C306.88 86.88 307.4 86.7 307.813 86.34L308.313 87.36C308.033 87.6133 307.693 87.8 307.293 87.92C306.906 88.04 306.506 88.1 306.093 88.1ZM301.133 78.68V77.5H307.633V78.68H301.133ZM314.987 88.1C313.894 88.1 312.934 87.8733 312.107 87.42C311.28 86.9533 310.634 86.32 310.167 85.52C309.7 84.7067 309.467 83.78 309.467 82.74C309.467 81.7 309.687 80.78 310.127 79.98C310.58 79.18 311.194 78.5533 311.967 78.1C312.754 77.6333 313.634 77.4 314.607 77.4C315.594 77.4 316.467 77.6267 317.227 78.08C318 78.52 318.607 79.1467 319.047 79.96C319.487 80.76 319.707 81.6867 319.707 82.74C319.707 82.8067 319.7 82.88 319.687 82.96C319.687 83.0267 319.687 83.1 319.687 83.18H310.547V82.12H318.927L318.367 82.54C318.367 81.78 318.2 81.1067 317.867 80.52C317.547 79.92 317.107 79.4533 316.547 79.12C315.987 78.7867 315.34 78.62 314.607 78.62C313.887 78.62 313.24 78.7867 312.667 79.12C312.094 79.4533 311.647 79.92 311.327 80.52C311.007 81.12 310.847 81.8067 310.847 82.58V82.8C310.847 83.6 311.02 84.3067 311.367 84.92C311.727 85.52 312.22 85.9933 312.847 86.34C313.487 86.6733 314.214 86.84 315.027 86.84C315.667 86.84 316.26 86.7267 316.807 86.5C317.367 86.2733 317.847 85.9267 318.247 85.46L319.047 86.38C318.58 86.94 317.994 87.3667 317.287 87.66C316.594 87.9533 315.827 88.1 314.987 88.1ZM327.957 77.4C328.811 77.4 329.557 77.5667 330.197 77.9C330.851 78.22 331.357 78.7133 331.717 79.38C332.091 80.0467 332.277 80.8867 332.277 81.9V88H330.857V82.04C330.857 80.9333 330.577 80.1 330.017 79.54C329.471 78.9667 328.697 78.68 327.697 78.68C326.951 78.68 326.297 78.8333 325.737 79.14C325.191 79.4333 324.764 79.8667 324.457 80.44C324.164 81 324.017 81.68 324.017 82.48V88H322.597V77.5H323.957V80.38L323.737 79.84C324.071 79.08 324.604 78.4867 325.337 78.06C326.071 77.62 326.944 77.4 327.957 77.4ZM336.113 88V77.5H337.533V88H336.113ZM336.833 75.18C336.539 75.18 336.293 75.08 336.093 74.88C335.893 74.68 335.793 74.44 335.793 74.16C335.793 73.88 335.893 73.6467 336.093 73.46C336.293 73.26 336.539 73.16 336.833 73.16C337.126 73.16 337.373 73.2533 337.573 73.44C337.773 73.6267 337.873 73.86 337.873 74.14C337.873 74.4333 337.773 74.68 337.573 74.88C337.386 75.08 337.139 75.18 336.833 75.18ZM345.664 88.1C344.664 88.1 343.764 87.8733 342.964 87.42C342.177 86.9667 341.557 86.34 341.104 85.54C340.651 84.7267 340.424 83.7933 340.424 82.74C340.424 81.6733 340.651 80.74 341.104 79.94C341.557 79.14 342.177 78.52 342.964 78.08C343.764 77.6267 344.664 77.4 345.664 77.4C346.584 77.4 347.404 77.6067 348.124 78.02C348.857 78.4333 349.437 79.04 349.864 79.84C350.304 80.6267 350.524 81.5933 350.524 82.74C350.524 83.8733 350.311 84.84 349.884 85.64C349.457 86.44 348.877 87.0533 348.144 87.48C347.424 87.8933 346.597 88.1 345.664 88.1ZM345.764 86.84C346.511 86.84 347.177 86.6733 347.764 86.34C348.364 85.9933 348.831 85.5133 349.164 84.9C349.511 84.2733 349.684 83.5533 349.684 82.74C349.684 81.9133 349.511 81.1933 349.164 80.58C348.831 79.9667 348.364 79.4933 347.764 79.16C347.177 78.8133 346.511 78.64 345.764 78.64C345.031 78.64 344.371 78.8133 343.784 79.16C343.197 79.4933 342.731 79.9667 342.384 80.58C342.037 81.1933 341.864 81.9133 341.864 82.74C341.864 83.5533 342.037 84.2733 342.384 84.9C342.731 85.5133 343.197 85.9933 343.784 86.34C344.371 86.6733 345.031 86.84 345.764 86.84ZM349.724 88V84.84L349.864 82.72L349.664 80.6V73.16H351.084V88H349.724ZM361.619 88V85.68L361.559 85.3V81.42C361.559 80.5267 361.305 79.84 360.799 79.36C360.305 78.88 359.565 78.64 358.579 78.64C357.899 78.64 357.252 78.7533 356.639 78.98C356.025 79.2067 355.505 79.5067 355.079 79.88L354.439 78.82C354.972 78.3667 355.612 78.02 356.359 77.78C357.105 77.5267 357.892 77.4 358.719 77.4C360.079 77.4 361.125 77.74 361.859 78.42C362.605 79.0867 362.979 80.1067 362.979 81.48V88H361.619ZM357.999 88.1C357.212 88.1 356.525 87.9733 355.939 87.72C355.365 87.4533 354.925 87.0933 354.619 86.64C354.312 86.1733 354.159 85.64 354.159 85.04C354.159 84.4933 354.285 84 354.539 83.56C354.805 83.1067 355.232 82.7467 355.819 82.48C356.419 82.2 357.219 82.06 358.219 82.06H361.839V83.12H358.259C357.245 83.12 356.539 83.3 356.139 83.66C355.752 84.02 355.559 84.4667 355.559 85C355.559 85.6 355.792 86.08 356.259 86.44C356.725 86.8 357.379 86.98 358.219 86.98C359.019 86.98 359.705 86.8 360.279 86.44C360.865 86.0667 361.292 85.5333 361.559 84.84L361.879 85.82C361.612 86.5133 361.145 87.0667 360.479 87.48C359.825 87.8933 358.999 88.1 357.999 88.1ZM385.19 77.4C386.043 77.4 386.783 77.5667 387.41 77.9C388.05 78.22 388.543 78.7133 388.89 79.38C389.25 80.0467 389.43 80.8867 389.43 81.9V88H388.01V82.04C388.01 80.9333 387.743 80.1 387.21 79.54C386.69 78.9667 385.95 78.68 384.99 78.68C384.27 78.68 383.643 78.8333 383.11 79.14C382.59 79.4333 382.183 79.8667 381.89 80.44C381.61 81 381.47 81.68 381.47 82.48V88H380.05V82.04C380.05 80.9333 379.783 80.1 379.25 79.54C378.717 78.9667 377.97 78.68 377.01 78.68C376.303 78.68 375.683 78.8333 375.15 79.14C374.617 79.4333 374.203 79.8667 373.91 80.44C373.63 81 373.49 81.68 373.49 82.48V88H372.07V77.5H373.43V80.34L373.21 79.84C373.53 79.08 374.043 78.4867 374.75 78.06C375.47 77.62 376.317 77.4 377.29 77.4C378.317 77.4 379.19 77.66 379.91 78.18C380.63 78.6867 381.097 79.4533 381.31 80.48L380.75 80.26C381.057 79.4067 381.597 78.72 382.37 78.2C383.157 77.6667 384.097 77.4 385.19 77.4ZM397.741 88.1C396.647 88.1 395.687 87.8733 394.861 87.42C394.034 86.9533 393.387 86.32 392.921 85.52C392.454 84.7067 392.221 83.78 392.221 82.74C392.221 81.7 392.441 80.78 392.881 79.98C393.334 79.18 393.947 78.5533 394.721 78.1C395.507 77.6333 396.387 77.4 397.361 77.4C398.347 77.4 399.221 77.6267 399.981 78.08C400.754 78.52 401.361 79.1467 401.801 79.96C402.241 80.76 402.461 81.6867 402.461 82.74C402.461 82.8067 402.454 82.88 402.441 82.96C402.441 83.0267 402.441 83.1 402.441 83.18H393.301V82.12H401.681L401.121 82.54C401.121 81.78 400.954 81.1067 400.621 80.52C400.301 79.92 399.861 79.4533 399.301 79.12C398.741 78.7867 398.094 78.62 397.361 78.62C396.641 78.62 395.994 78.7867 395.421 79.12C394.847 79.4533 394.401 79.92 394.081 80.52C393.761 81.12 393.601 81.8067 393.601 82.58V82.8C393.601 83.6 393.774 84.3067 394.121 84.92C394.481 85.52 394.974 85.9933 395.601 86.34C396.241 86.6733 396.967 86.84 397.781 86.84C398.421 86.84 399.014 86.7267 399.561 86.5C400.121 86.2733 400.601 85.9267 401.001 85.46L401.801 86.38C401.334 86.94 400.747 87.3667 400.041 87.66C399.347 87.9533 398.581 88.1 397.741 88.1ZM409.531 88.1C408.531 88.1 407.631 87.8733 406.831 87.42C406.044 86.9667 405.424 86.34 404.971 85.54C404.518 84.7267 404.291 83.7933 404.291 82.74C404.291 81.6733 404.518 80.74 404.971 79.94C405.424 79.14 406.044 78.52 406.831 78.08C407.631 77.6267 408.531 77.4 409.531 77.4C410.451 77.4 411.271 77.6067 411.991 78.02C412.724 78.4333 413.304 79.04 413.731 79.84C414.171 80.6267 414.391 81.5933 414.391 82.74C414.391 83.8733 414.178 84.84 413.751 85.64C413.324 86.44 412.744 87.0533 412.011 87.48C411.291 87.8933 410.464 88.1 409.531 88.1ZM409.631 86.84C410.378 86.84 411.044 86.6733 411.631 86.34C412.231 85.9933 412.698 85.5133 413.031 84.9C413.378 84.2733 413.551 83.5533 413.551 82.74C413.551 81.9133 413.378 81.1933 413.031 80.58C412.698 79.9667 412.231 79.4933 411.631 79.16C411.044 78.8133 410.378 78.64 409.631 78.64C408.898 78.64 408.238 78.8133 407.651 79.16C407.064 79.4933 406.598 79.9667 406.251 80.58C405.904 81.1933 405.731 81.9133 405.731 82.74C405.731 83.5533 405.904 84.2733 406.251 84.9C406.598 85.5133 407.064 85.9933 407.651 86.34C408.238 86.6733 408.898 86.84 409.631 86.84ZM413.591 88V84.84L413.731 82.72L413.531 80.6V73.16H414.951V88H413.591ZM418.906 88V77.5H420.326V88H418.906ZM419.626 75.18C419.332 75.18 419.086 75.08 418.886 74.88C418.686 74.68 418.586 74.44 418.586 74.16C418.586 73.88 418.686 73.6467 418.886 73.46C419.086 73.26 419.332 73.16 419.626 73.16C419.919 73.16 420.166 73.2533 420.366 73.44C420.566 73.6267 420.666 73.86 420.666 74.14C420.666 74.4333 420.566 74.68 420.366 74.88C420.179 75.08 419.932 75.18 419.626 75.18ZM430.857 88V85.68L430.797 85.3V81.42C430.797 80.5267 430.544 79.84 430.037 79.36C429.544 78.88 428.804 78.64 427.817 78.64C427.137 78.64 426.49 78.7533 425.877 78.98C425.264 79.2067 424.744 79.5067 424.317 79.88L423.677 78.82C424.21 78.3667 424.85 78.02 425.597 77.78C426.344 77.5267 427.13 77.4 427.957 77.4C429.317 77.4 430.364 77.74 431.097 78.42C431.844 79.0867 432.217 80.1067 432.217 81.48V88H430.857ZM427.237 88.1C426.45 88.1 425.764 87.9733 425.177 87.72C424.604 87.4533 424.164 87.0933 423.857 86.64C423.55 86.1733 423.397 85.64 423.397 85.04C423.397 84.4933 423.524 84 423.777 83.56C424.044 83.1067 424.47 82.7467 425.057 82.48C425.657 82.2 426.457 82.06 427.457 82.06H431.077V83.12H427.497C426.484 83.12 425.777 83.3 425.377 83.66C424.99 84.02 424.797 84.4667 424.797 85C424.797 85.6 425.03 86.08 425.497 86.44C425.964 86.8 426.617 86.98 427.457 86.98C428.257 86.98 428.944 86.8 429.517 86.44C430.104 86.0667 430.53 85.5333 430.797 84.84L431.117 85.82C430.85 86.5133 430.384 87.0667 429.717 87.48C429.064 87.8933 428.237 88.1 427.237 88.1ZM441.434 77.4C442.287 77.4 443.034 77.5667 443.674 77.9C444.327 78.22 444.834 78.7133 445.194 79.38C445.567 80.0467 445.754 80.8867 445.754 81.9V88H444.334V82.04C444.334 80.9333 444.054 80.1 443.494 79.54C442.947 78.9667 442.174 78.68 441.174 78.68C440.427 78.68 439.774 78.8333 439.214 79.14C438.667 79.4333 438.24 79.8667 437.934 80.44C437.64 81 437.494 81.68 437.494 82.48V88H436.074V77.5H437.434V80.38L437.214 79.84C437.547 79.08 438.08 78.4867 438.814 78.06C439.547 77.62 440.42 77.4 441.434 77.4ZM452.909 88.1C451.923 88.1 451.163 87.8333 450.629 87.3C450.096 86.7667 449.829 86.0133 449.829 85.04V75.18H451.249V84.96C451.249 85.5733 451.403 86.0467 451.709 86.38C452.029 86.7133 452.483 86.88 453.069 86.88C453.696 86.88 454.216 86.7 454.629 86.34L455.129 87.36C454.849 87.6133 454.509 87.8 454.109 87.92C453.723 88.04 453.323 88.1 452.909 88.1ZM447.949 78.68V77.5H454.449V78.68H447.949ZM461.803 88.1C460.71 88.1 459.75 87.8733 458.923 87.42C458.097 86.9533 457.45 86.32 456.983 85.52C456.517 84.7067 456.283 83.78 456.283 82.74C456.283 81.7 456.503 80.78 456.943 79.98C457.397 79.18 458.01 78.5533 458.783 78.1C459.57 77.6333 460.45 77.4 461.423 77.4C462.41 77.4 463.283 77.6267 464.043 78.08C464.817 78.52 465.423 79.1467 465.863 79.96C466.303 80.76 466.523 81.6867 466.523 82.74C466.523 82.8067 466.517 82.88 466.503 82.96C466.503 83.0267 466.503 83.1 466.503 83.18H457.363V82.12H465.743L465.183 82.54C465.183 81.78 465.017 81.1067 464.683 80.52C464.363 79.92 463.923 79.4533 463.363 79.12C462.803 78.7867 462.157 78.62 461.423 78.62C460.703 78.62 460.057 78.7867 459.483 79.12C458.91 79.4533 458.463 79.92 458.143 80.52C457.823 81.12 457.663 81.8067 457.663 82.58V82.8C457.663 83.6 457.837 84.3067 458.183 84.92C458.543 85.52 459.037 85.9933 459.663 86.34C460.303 86.6733 461.03 86.84 461.843 86.84C462.483 86.84 463.077 86.7267 463.623 86.5C464.183 86.2733 464.663 85.9267 465.063 85.46L465.863 86.38C465.397 86.94 464.81 87.3667 464.103 87.66C463.41 87.9533 462.643 88.1 461.803 88.1ZM129.44 112.1C128.347 112.1 127.387 111.873 126.56 111.42C125.733 110.953 125.087 110.32 124.62 109.52C124.153 108.707 123.92 107.78 123.92 106.74C123.92 105.7 124.14 104.78 124.58 103.98C125.033 103.18 125.647 102.553 126.42 102.1C127.207 101.633 128.087 101.4 129.06 101.4C130.047 101.4 130.92 101.627 131.68 102.08C132.453 102.52 133.06 103.147 133.5 103.96C133.94 104.76 134.16 105.687 134.16 106.74C134.16 106.807 134.153 106.88 134.14 106.96C134.14 107.027 134.14 107.1 134.14 107.18H125V106.12H133.38L132.82 106.54C132.82 105.78 132.653 105.107 132.32 104.52C132 103.92 131.56 103.453 131 103.12C130.44 102.787 129.793 102.62 129.06 102.62C128.34 102.62 127.693 102.787 127.12 103.12C126.547 103.453 126.1 103.92 125.78 104.52C125.46 105.12 125.3 105.807 125.3 106.58V106.8C125.3 107.6 125.473 108.307 125.82 108.92C126.18 109.52 126.673 109.993 127.3 110.34C127.94 110.673 128.667 110.84 129.48 110.84C130.12 110.84 130.713 110.727 131.26 110.5C131.82 110.273 132.3 109.927 132.7 109.46L133.5 110.38C133.033 110.94 132.447 111.367 131.74 111.66C131.047 111.953 130.28 112.1 129.44 112.1ZM142.41 101.4C143.264 101.4 144.01 101.567 144.65 101.9C145.304 102.22 145.81 102.713 146.17 103.38C146.544 104.047 146.73 104.887 146.73 105.9V112H145.31V106.04C145.31 104.933 145.03 104.1 144.47 103.54C143.924 102.967 143.15 102.68 142.15 102.68C141.404 102.68 140.75 102.833 140.19 103.14C139.644 103.433 139.217 103.867 138.91 104.44C138.617 105 138.47 105.68 138.47 106.48V112H137.05V101.5H138.41V104.38L138.19 103.84C138.524 103.08 139.057 102.487 139.79 102.06C140.524 101.62 141.397 101.4 142.41 101.4ZM155.026 112.1C153.933 112.1 152.973 111.873 152.146 111.42C151.319 110.953 150.673 110.32 150.206 109.52C149.739 108.707 149.506 107.78 149.506 106.74C149.506 105.7 149.726 104.78 150.166 103.98C150.619 103.18 151.233 102.553 152.006 102.1C152.793 101.633 153.673 101.4 154.646 101.4C155.633 101.4 156.506 101.627 157.266 102.08C158.039 102.52 158.646 103.147 159.086 103.96C159.526 104.76 159.746 105.687 159.746 106.74C159.746 106.807 159.739 106.88 159.726 106.96C159.726 107.027 159.726 107.1 159.726 107.18H150.586V106.12H158.966L158.406 106.54C158.406 105.78 158.239 105.107 157.906 104.52C157.586 103.92 157.146 103.453 156.586 103.12C156.026 102.787 155.379 102.62 154.646 102.62C153.926 102.62 153.279 102.787 152.706 103.12C152.133 103.453 151.686 103.92 151.366 104.52C151.046 105.12 150.886 105.807 150.886 106.58V106.8C150.886 107.6 151.059 108.307 151.406 108.92C151.766 109.52 152.259 109.993 152.886 110.34C153.526 110.673 154.253 110.84 155.066 110.84C155.706 110.84 156.299 110.727 156.846 110.5C157.406 110.273 157.886 109.927 158.286 109.46L159.086 110.38C158.619 110.94 158.033 111.367 157.326 111.66C156.633 111.953 155.866 112.1 155.026 112.1ZM162.636 112V101.5H163.996V104.36L163.856 103.86C164.15 103.06 164.643 102.453 165.336 102.04C166.03 101.613 166.89 101.4 167.916 101.4V102.78C167.863 102.78 167.81 102.78 167.756 102.78C167.703 102.767 167.65 102.76 167.596 102.76C166.49 102.76 165.623 103.1 164.996 103.78C164.37 104.447 164.056 105.4 164.056 106.64V112H162.636ZM174.89 115.98C173.93 115.98 173.01 115.84 172.13 115.56C171.25 115.28 170.536 114.88 169.99 114.36L170.71 113.28C171.203 113.72 171.81 114.067 172.53 114.32C173.263 114.587 174.036 114.72 174.85 114.72C176.183 114.72 177.163 114.407 177.79 113.78C178.416 113.167 178.73 112.207 178.73 110.9V108.28L178.93 106.48L178.79 104.68V101.5H180.15V110.72C180.15 112.533 179.703 113.86 178.81 114.7C177.93 115.553 176.623 115.98 174.89 115.98ZM174.63 111.6C173.63 111.6 172.73 111.387 171.93 110.96C171.13 110.52 170.496 109.913 170.03 109.14C169.576 108.367 169.35 107.48 169.35 106.48C169.35 105.48 169.576 104.6 170.03 103.84C170.496 103.067 171.13 102.467 171.93 102.04C172.73 101.613 173.63 101.4 174.63 101.4C175.563 101.4 176.403 101.593 177.15 101.98C177.896 102.367 178.49 102.94 178.93 103.7C179.37 104.46 179.59 105.387 179.59 106.48C179.59 107.573 179.37 108.5 178.93 109.26C178.49 110.02 177.896 110.6 177.15 111C176.403 111.4 175.563 111.6 174.63 111.6ZM174.77 110.34C175.543 110.34 176.23 110.18 176.83 109.86C177.43 109.527 177.903 109.073 178.25 108.5C178.596 107.913 178.77 107.24 178.77 106.48C178.77 105.72 178.596 105.053 178.25 104.48C177.903 103.907 177.43 103.46 176.83 103.14C176.23 102.807 175.543 102.64 174.77 102.64C174.01 102.64 173.323 102.807 172.71 103.14C172.11 103.46 171.636 103.907 171.29 104.48C170.956 105.053 170.79 105.72 170.79 106.48C170.79 107.24 170.956 107.913 171.29 108.5C171.636 109.073 172.11 109.527 172.71 109.86C173.323 110.18 174.01 110.34 174.77 110.34ZM184.101 112V101.5H185.521V112H184.101ZM183.521 99.86L186.261 97.38H188.161L184.921 99.86H183.521ZM196.052 112V109.68L195.992 109.3V105.42C195.992 104.527 195.739 103.84 195.232 103.36C194.739 102.88 193.999 102.64 193.012 102.64C192.332 102.64 191.686 102.753 191.072 102.98C190.459 103.207 189.939 103.507 189.512 103.88L188.872 102.82C189.406 102.367 190.046 102.02 190.792 101.78C191.539 101.527 192.326 101.4 193.152 101.4C194.512 101.4 195.559 101.74 196.292 102.42C197.039 103.087 197.412 104.107 197.412 105.48V112H196.052ZM192.432 112.1C191.646 112.1 190.959 111.973 190.372 111.72C189.799 111.453 189.359 111.093 189.052 110.64C188.746 110.173 188.592 109.64 188.592 109.04C188.592 108.493 188.719 108 188.972 107.56C189.239 107.107 189.666 106.747 190.252 106.48C190.852 106.2 191.652 106.06 192.652 106.06H196.272V107.12H192.692C191.679 107.12 190.972 107.3 190.572 107.66C190.186 108.02 189.992 108.467 189.992 109C189.992 109.6 190.226 110.08 190.692 110.44C191.159 110.8 191.812 110.98 192.652 110.98C193.452 110.98 194.139 110.8 194.712 110.44C195.299 110.067 195.726 109.533 195.992 108.84L196.312 109.82C196.046 110.513 195.579 111.067 194.912 111.48C194.259 111.893 193.432 112.1 192.432 112.1ZM204.089 112.1C203.222 112.1 202.402 111.98 201.629 111.74C200.856 111.487 200.249 111.173 199.809 110.8L200.449 109.68C200.876 110 201.422 110.28 202.089 110.52C202.756 110.747 203.456 110.86 204.189 110.86C205.189 110.86 205.909 110.707 206.349 110.4C206.789 110.08 207.009 109.66 207.009 109.14C207.009 108.753 206.882 108.453 206.629 108.24C206.389 108.013 206.069 107.847 205.669 107.74C205.269 107.62 204.822 107.52 204.329 107.44C203.836 107.36 203.342 107.267 202.849 107.16C202.369 107.053 201.929 106.9 201.529 106.7C201.129 106.487 200.802 106.2 200.549 105.84C200.309 105.48 200.189 105 200.189 104.4C200.189 103.827 200.349 103.313 200.669 102.86C200.989 102.407 201.456 102.053 202.069 101.8C202.696 101.533 203.456 101.4 204.349 101.4C205.029 101.4 205.709 101.493 206.389 101.68C207.069 101.853 207.629 102.087 208.069 102.38L207.449 103.52C206.982 103.2 206.482 102.973 205.949 102.84C205.416 102.693 204.882 102.62 204.349 102.62C203.402 102.62 202.702 102.787 202.249 103.12C201.809 103.44 201.589 103.853 201.589 104.36C201.589 104.76 201.709 105.073 201.949 105.3C202.202 105.527 202.529 105.707 202.929 105.84C203.342 105.96 203.789 106.06 204.269 106.14C204.762 106.22 205.249 106.32 205.729 106.44C206.222 106.547 206.669 106.7 207.069 106.9C207.482 107.087 207.809 107.36 208.049 107.72C208.302 108.067 208.429 108.527 208.429 109.1C208.429 109.713 208.256 110.247 207.909 110.7C207.576 111.14 207.082 111.487 206.429 111.74C205.789 111.98 205.009 112.1 204.089 112.1ZM216.269 112V97.16H217.689V112H216.269ZM221.64 112V101.5H223.06V112H221.64ZM222.36 99.18C222.067 99.18 221.82 99.08 221.62 98.88C221.42 98.68 221.32 98.44 221.32 98.16C221.32 97.88 221.42 97.6467 221.62 97.46C221.82 97.26 222.067 97.16 222.36 97.16C222.653 97.16 222.9 97.2533 223.1 97.44C223.3 97.6267 223.4 97.86 223.4 98.14C223.4 98.4333 223.3 98.68 223.1 98.88C222.913 99.08 222.667 99.18 222.36 99.18ZM240.131 101.4C240.985 101.4 241.725 101.567 242.351 101.9C242.991 102.22 243.485 102.713 243.831 103.38C244.191 104.047 244.371 104.887 244.371 105.9V112H242.951V106.04C242.951 104.933 242.685 104.1 242.151 103.54C241.631 102.967 240.891 102.68 239.931 102.68C239.211 102.68 238.585 102.833 238.051 103.14C237.531 103.433 237.125 103.867 236.831 104.44C236.551 105 236.411 105.68 236.411 106.48V112H234.991V106.04C234.991 104.933 234.725 104.1 234.191 103.54C233.658 102.967 232.911 102.68 231.951 102.68C231.245 102.68 230.625 102.833 230.091 103.14C229.558 103.433 229.145 103.867 228.851 104.44C228.571 105 228.431 105.68 228.431 106.48V112H227.011V101.5H228.371V104.34L228.151 103.84C228.471 103.08 228.985 102.487 229.691 102.06C230.411 101.62 231.258 101.4 232.231 101.4C233.258 101.4 234.131 101.66 234.851 102.18C235.571 102.687 236.038 103.453 236.251 104.48L235.691 104.26C235.998 103.407 236.538 102.72 237.311 102.2C238.098 101.667 239.038 101.4 240.131 101.4ZM253.642 112.1C252.736 112.1 251.916 111.893 251.182 111.48C250.449 111.053 249.862 110.447 249.422 109.66C248.996 108.86 248.782 107.887 248.782 106.74C248.782 105.593 248.996 104.627 249.422 103.84C249.849 103.04 250.429 102.433 251.162 102.02C251.896 101.607 252.722 101.4 253.642 101.4C254.642 101.4 255.536 101.627 256.322 102.08C257.122 102.52 257.749 103.147 258.202 103.96C258.656 104.76 258.882 105.687 258.882 106.74C258.882 107.807 258.656 108.74 258.202 109.54C257.749 110.34 257.122 110.967 256.322 111.42C255.536 111.873 254.642 112.1 253.642 112.1ZM248.222 115.88V101.5H249.582V104.66L249.442 106.76L249.642 108.88V115.88H248.222ZM253.542 110.84C254.289 110.84 254.956 110.673 255.542 110.34C256.129 109.993 256.596 109.513 256.942 108.9C257.289 108.273 257.462 107.553 257.462 106.74C257.462 105.927 257.289 105.213 256.942 104.6C256.596 103.987 256.129 103.507 255.542 103.16C254.956 102.813 254.289 102.64 253.542 102.64C252.796 102.64 252.122 102.813 251.522 103.16C250.936 103.507 250.469 103.987 250.122 104.6C249.789 105.213 249.622 105.927 249.622 106.74C249.622 107.553 249.789 108.273 250.122 108.9C250.469 109.513 250.936 109.993 251.522 110.34C252.122 110.673 252.796 110.84 253.542 110.84ZM261.777 112V101.5H263.197V112H261.777ZM262.497 99.18C262.204 99.18 261.957 99.08 261.757 98.88C261.557 98.68 261.457 98.44 261.457 98.16C261.457 97.88 261.557 97.6467 261.757 97.46C261.957 97.26 262.204 97.16 262.497 97.16C262.79 97.16 263.037 97.2533 263.237 97.44C263.437 97.6267 263.537 97.86 263.537 98.14C263.537 98.4333 263.437 98.68 263.237 98.88C263.05 99.08 262.804 99.18 262.497 99.18ZM273.728 112V109.68L273.668 109.3V105.42C273.668 104.527 273.415 103.84 272.908 103.36C272.415 102.88 271.675 102.64 270.688 102.64C270.008 102.64 269.361 102.753 268.748 102.98C268.135 103.207 267.615 103.507 267.188 103.88L266.548 102.82C267.081 102.367 267.721 102.02 268.468 101.78C269.215 101.527 270.001 101.4 270.828 101.4C272.188 101.4 273.235 101.74 273.968 102.42C274.715 103.087 275.088 104.107 275.088 105.48V112H273.728ZM270.108 112.1C269.321 112.1 268.635 111.973 268.048 111.72C267.475 111.453 267.035 111.093 266.728 110.64C266.421 110.173 266.268 109.64 266.268 109.04C266.268 108.493 266.395 108 266.648 107.56C266.915 107.107 267.341 106.747 267.928 106.48C268.528 106.2 269.328 106.06 270.328 106.06H273.948V107.12H270.368C269.355 107.12 268.648 107.3 268.248 107.66C267.861 108.02 267.668 108.467 267.668 109C267.668 109.6 267.901 110.08 268.368 110.44C268.835 110.8 269.488 110.98 270.328 110.98C271.128 110.98 271.815 110.8 272.388 110.44C272.975 110.067 273.401 109.533 273.668 108.84L273.988 109.82C273.721 110.513 273.255 111.067 272.588 111.48C271.935 111.893 271.108 112.1 270.108 112.1ZM281.765 112.1C280.898 112.1 280.078 111.98 279.305 111.74C278.532 111.487 277.925 111.173 277.485 110.8L278.125 109.68C278.552 110 279.098 110.28 279.765 110.52C280.432 110.747 281.132 110.86 281.865 110.86C282.865 110.86 283.585 110.707 284.025 110.4C284.465 110.08 284.685 109.66 284.685 109.14C284.685 108.753 284.558 108.453 284.305 108.24C284.065 108.013 283.745 107.847 283.345 107.74C282.945 107.62 282.498 107.52 282.005 107.44C281.512 107.36 281.018 107.267 280.525 107.16C280.045 107.053 279.605 106.9 279.205 106.7C278.805 106.487 278.478 106.2 278.225 105.84C277.985 105.48 277.865 105 277.865 104.4C277.865 103.827 278.025 103.313 278.345 102.86C278.665 102.407 279.132 102.053 279.745 101.8C280.372 101.533 281.132 101.4 282.025 101.4C282.705 101.4 283.385 101.493 284.065 101.68C284.745 101.853 285.305 102.087 285.745 102.38L285.125 103.52C284.658 103.2 284.158 102.973 283.625 102.84C283.092 102.693 282.558 102.62 282.025 102.62C281.078 102.62 280.378 102.787 279.925 103.12C279.485 103.44 279.265 103.853 279.265 104.36C279.265 104.76 279.385 105.073 279.625 105.3C279.878 105.527 280.205 105.707 280.605 105.84C281.018 105.96 281.465 106.06 281.945 106.14C282.438 106.22 282.925 106.32 283.405 106.44C283.898 106.547 284.345 106.7 284.745 106.9C285.158 107.087 285.485 107.36 285.725 107.72C285.978 108.067 286.105 108.527 286.105 109.1C286.105 109.713 285.932 110.247 285.585 110.7C285.252 111.14 284.758 111.487 284.105 111.74C283.465 111.98 282.685 112.1 281.765 112.1ZM296.765 112.1C295.898 112.1 295.078 111.98 294.305 111.74C293.532 111.487 292.925 111.173 292.485 110.8L293.125 109.68C293.552 110 294.098 110.28 294.765 110.52C295.432 110.747 296.132 110.86 296.865 110.86C297.865 110.86 298.585 110.707 299.025 110.4C299.465 110.08 299.685 109.66 299.685 109.14C299.685 108.753 299.558 108.453 299.305 108.24C299.065 108.013 298.745 107.847 298.345 107.74C297.945 107.62 297.498 107.52 297.005 107.44C296.512 107.36 296.018 107.267 295.525 107.16C295.045 107.053 294.605 106.9 294.205 106.7C293.805 106.487 293.478 106.2 293.225 105.84C292.985 105.48 292.865 105 292.865 104.4C292.865 103.827 293.025 103.313 293.345 102.86C293.665 102.407 294.132 102.053 294.745 101.8C295.372 101.533 296.132 101.4 297.025 101.4C297.705 101.4 298.385 101.493 299.065 101.68C299.745 101.853 300.305 102.087 300.745 102.38L300.125 103.52C299.658 103.2 299.158 102.973 298.625 102.84C298.092 102.693 297.558 102.62 297.025 102.62C296.078 102.62 295.378 102.787 294.925 103.12C294.485 103.44 294.265 103.853 294.265 104.36C294.265 104.76 294.385 105.073 294.625 105.3C294.878 105.527 295.205 105.707 295.605 105.84C296.018 105.96 296.465 106.06 296.945 106.14C297.438 106.22 297.925 106.32 298.405 106.44C298.898 106.547 299.345 106.7 299.745 106.9C300.158 107.087 300.485 107.36 300.725 107.72C300.978 108.067 301.105 108.527 301.105 109.1C301.105 109.713 300.932 110.247 300.585 110.7C300.252 111.14 299.758 111.487 299.105 111.74C298.465 111.98 297.685 112.1 296.765 112.1ZM308.17 112.1C307.077 112.1 306.117 111.873 305.29 111.42C304.464 110.953 303.817 110.32 303.35 109.52C302.884 108.707 302.65 107.78 302.65 106.74C302.65 105.7 302.87 104.78 303.31 103.98C303.764 103.18 304.377 102.553 305.15 102.1C305.937 101.633 306.817 101.4 307.79 101.4C308.777 101.4 309.65 101.627 310.41 102.08C311.184 102.52 311.79 103.147 312.23 103.96C312.67 104.76 312.89 105.687 312.89 106.74C312.89 106.807 312.884 106.88 312.87 106.96C312.87 107.027 312.87 107.1 312.87 107.18H303.73V106.12H312.11L311.55 106.54C311.55 105.78 311.384 105.107 311.05 104.52C310.73 103.92 310.29 103.453 309.73 103.12C309.17 102.787 308.524 102.62 307.79 102.62C307.07 102.62 306.424 102.787 305.85 103.12C305.277 103.453 304.83 103.92 304.51 104.52C304.19 105.12 304.03 105.807 304.03 106.58V106.8C304.03 107.6 304.204 108.307 304.55 108.92C304.91 109.52 305.404 109.993 306.03 110.34C306.67 110.673 307.397 110.84 308.21 110.84C308.85 110.84 309.444 110.727 309.99 110.5C310.55 110.273 311.03 109.927 311.43 109.46L312.23 110.38C311.764 110.94 311.177 111.367 310.47 111.66C309.777 111.953 309.01 112.1 308.17 112.1ZM325.475 112.1C324.382 112.1 323.422 111.873 322.595 111.42C321.768 110.953 321.122 110.32 320.655 109.52C320.188 108.707 319.955 107.78 319.955 106.74C319.955 105.7 320.175 104.78 320.615 103.98C321.068 103.18 321.682 102.553 322.455 102.1C323.242 101.633 324.122 101.4 325.095 101.4C326.082 101.4 326.955 101.627 327.715 102.08C328.488 102.52 329.095 103.147 329.535 103.96C329.975 104.76 330.195 105.687 330.195 106.74C330.195 106.807 330.188 106.88 330.175 106.96C330.175 107.027 330.175 107.1 330.175 107.18H321.035V106.12H329.415L328.855 106.54C328.855 105.78 328.688 105.107 328.355 104.52C328.035 103.92 327.595 103.453 327.035 103.12C326.475 102.787 325.828 102.62 325.095 102.62C324.375 102.62 323.728 102.787 323.155 103.12C322.582 103.453 322.135 103.92 321.815 104.52C321.495 105.12 321.335 105.807 321.335 106.58V106.8C321.335 107.6 321.508 108.307 321.855 108.92C322.215 109.52 322.708 109.993 323.335 110.34C323.975 110.673 324.702 110.84 325.515 110.84C326.155 110.84 326.748 110.727 327.295 110.5C327.855 110.273 328.335 109.927 328.735 109.46L329.535 110.38C329.068 110.94 328.482 111.367 327.775 111.66C327.082 111.953 326.315 112.1 325.475 112.1ZM346.205 101.4C347.059 101.4 347.799 101.567 348.425 101.9C349.065 102.22 349.559 102.713 349.905 103.38C350.265 104.047 350.445 104.887 350.445 105.9V112H349.025V106.04C349.025 104.933 348.759 104.1 348.225 103.54C347.705 102.967 346.965 102.68 346.005 102.68C345.285 102.68 344.659 102.833 344.125 103.14C343.605 103.433 343.199 103.867 342.905 104.44C342.625 105 342.485 105.68 342.485 106.48V112H341.065V106.04C341.065 104.933 340.799 104.1 340.265 103.54C339.732 102.967 338.985 102.68 338.025 102.68C337.319 102.68 336.699 102.833 336.165 103.14C335.632 103.433 335.219 103.867 334.925 104.44C334.645 105 334.505 105.68 334.505 106.48V112H333.085V101.5H334.445V104.34L334.225 103.84C334.545 103.08 335.059 102.487 335.765 102.06C336.485 101.62 337.332 101.4 338.305 101.4C339.332 101.4 340.205 101.66 340.925 102.18C341.645 102.687 342.112 103.453 342.325 104.48L341.765 104.26C342.072 103.407 342.612 102.72 343.385 102.2C344.172 101.667 345.112 101.4 346.205 101.4ZM359.716 112.1C358.81 112.1 357.99 111.893 357.256 111.48C356.523 111.053 355.936 110.447 355.496 109.66C355.07 108.86 354.856 107.887 354.856 106.74C354.856 105.593 355.07 104.627 355.496 103.84C355.923 103.04 356.503 102.433 357.236 102.02C357.97 101.607 358.796 101.4 359.716 101.4C360.716 101.4 361.61 101.627 362.396 102.08C363.196 102.52 363.823 103.147 364.276 103.96C364.73 104.76 364.956 105.687 364.956 106.74C364.956 107.807 364.73 108.74 364.276 109.54C363.823 110.34 363.196 110.967 362.396 111.42C361.61 111.873 360.716 112.1 359.716 112.1ZM354.296 115.88V101.5H355.656V104.66L355.516 106.76L355.716 108.88V115.88H354.296ZM359.616 110.84C360.363 110.84 361.03 110.673 361.616 110.34C362.203 109.993 362.67 109.513 363.016 108.9C363.363 108.273 363.536 107.553 363.536 106.74C363.536 105.927 363.363 105.213 363.016 104.6C362.67 103.987 362.203 103.507 361.616 103.16C361.03 102.813 360.363 102.64 359.616 102.64C358.87 102.64 358.196 102.813 357.596 103.16C357.01 103.507 356.543 103.987 356.196 104.6C355.863 105.213 355.696 105.927 355.696 106.74C355.696 107.553 355.863 108.273 356.196 108.9C356.543 109.513 357.01 109.993 357.596 110.34C358.196 110.673 358.87 110.84 359.616 110.84ZM367.851 112V97.16H369.271V112H367.851ZM377.682 112.1C376.589 112.1 375.629 111.873 374.802 111.42C373.976 110.953 373.329 110.32 372.862 109.52C372.396 108.707 372.162 107.78 372.162 106.74C372.162 105.7 372.382 104.78 372.822 103.98C373.276 103.18 373.889 102.553 374.662 102.1C375.449 101.633 376.329 101.4 377.302 101.4C378.289 101.4 379.162 101.627 379.922 102.08C380.696 102.52 381.302 103.147 381.742 103.96C382.182 104.76 382.402 105.687 382.402 106.74C382.402 106.807 382.396 106.88 382.382 106.96C382.382 107.027 382.382 107.1 382.382 107.18H373.242V106.12H381.622L381.062 106.54C381.062 105.78 380.896 105.107 380.562 104.52C380.242 103.92 379.802 103.453 379.242 103.12C378.682 102.787 378.036 102.62 377.302 102.62C376.582 102.62 375.936 102.787 375.362 103.12C374.789 103.453 374.342 103.92 374.022 104.52C373.702 105.12 373.542 105.807 373.542 106.58V106.8C373.542 107.6 373.716 108.307 374.062 108.92C374.422 109.52 374.916 109.993 375.542 110.34C376.182 110.673 376.909 110.84 377.722 110.84C378.362 110.84 378.956 110.727 379.502 110.5C380.062 110.273 380.542 109.927 380.942 109.46L381.742 110.38C381.276 110.94 380.689 111.367 379.982 111.66C379.289 111.953 378.522 112.1 377.682 112.1ZM391.58 112V109.68L391.52 109.3V105.42C391.52 104.527 391.266 103.84 390.76 103.36C390.266 102.88 389.526 102.64 388.54 102.64C387.86 102.64 387.213 102.753 386.6 102.98C385.986 103.207 385.466 103.507 385.04 103.88L384.4 102.82C384.933 102.367 385.573 102.02 386.32 101.78C387.066 101.527 387.853 101.4 388.68 101.4C390.04 101.4 391.086 101.74 391.82 102.42C392.566 103.087 392.94 104.107 392.94 105.48V112H391.58ZM387.96 112.1C387.173 112.1 386.486 111.973 385.9 111.72C385.326 111.453 384.886 111.093 384.58 110.64C384.273 110.173 384.12 109.64 384.12 109.04C384.12 108.493 384.246 108 384.5 107.56C384.766 107.107 385.193 106.747 385.78 106.48C386.38 106.2 387.18 106.06 388.18 106.06H391.8V107.12H388.22C387.206 107.12 386.5 107.3 386.1 107.66C385.713 108.02 385.52 108.467 385.52 109C385.52 109.6 385.753 110.08 386.22 110.44C386.686 110.8 387.34 110.98 388.18 110.98C388.98 110.98 389.666 110.8 390.24 110.44C390.826 110.067 391.253 109.533 391.52 108.84L391.84 109.82C391.573 110.513 391.106 111.067 390.44 111.48C389.786 111.893 388.96 112.1 387.96 112.1ZM407.451 112.1C406.544 112.1 405.724 111.893 404.991 111.48C404.257 111.053 403.671 110.447 403.231 109.66C402.804 108.86 402.591 107.887 402.591 106.74C402.591 105.593 402.804 104.627 403.231 103.84C403.657 103.04 404.237 102.433 404.971 102.02C405.704 101.607 406.531 101.4 407.451 101.4C408.451 101.4 409.344 101.627 410.131 102.08C410.931 102.52 411.557 103.147 412.011 103.96C412.464 104.76 412.691 105.687 412.691 106.74C412.691 107.807 412.464 108.74 412.011 109.54C411.557 110.34 410.931 110.967 410.131 111.42C409.344 111.873 408.451 112.1 407.451 112.1ZM402.031 115.88V101.5H403.391V104.66L403.251 106.76L403.451 108.88V115.88H402.031ZM407.351 110.84C408.097 110.84 408.764 110.673 409.351 110.34C409.937 109.993 410.404 109.513 410.751 108.9C411.097 108.273 411.271 107.553 411.271 106.74C411.271 105.927 411.097 105.213 410.751 104.6C410.404 103.987 409.937 103.507 409.351 103.16C408.764 102.813 408.097 102.64 407.351 102.64C406.604 102.64 405.931 102.813 405.331 103.16C404.744 103.507 404.277 103.987 403.931 104.6C403.597 105.213 403.431 105.927 403.431 106.74C403.431 107.553 403.597 108.273 403.931 108.9C404.277 109.513 404.744 109.993 405.331 110.34C405.931 110.673 406.604 110.84 407.351 110.84ZM422.107 112V109.68L422.047 109.3V105.42C422.047 104.527 421.794 103.84 421.287 103.36C420.794 102.88 420.054 102.64 419.067 102.64C418.387 102.64 417.74 102.753 417.127 102.98C416.514 103.207 415.994 103.507 415.567 103.88L414.927 102.82C415.46 102.367 416.1 102.02 416.847 101.78C417.594 101.527 418.38 101.4 419.207 101.4C420.567 101.4 421.614 101.74 422.347 102.42C423.094 103.087 423.467 104.107 423.467 105.48V112H422.107ZM418.487 112.1C417.7 112.1 417.014 111.973 416.427 111.72C415.854 111.453 415.414 111.093 415.107 110.64C414.8 110.173 414.647 109.64 414.647 109.04C414.647 108.493 414.774 108 415.027 107.56C415.294 107.107 415.72 106.747 416.307 106.48C416.907 106.2 417.707 106.06 418.707 106.06H422.327V107.12H418.747C417.734 107.12 417.027 107.3 416.627 107.66C416.24 108.02 416.047 108.467 416.047 109C416.047 109.6 416.28 110.08 416.747 110.44C417.214 110.8 417.867 110.98 418.707 110.98C419.507 110.98 420.194 110.8 420.767 110.44C421.354 110.067 421.78 109.533 422.047 108.84L422.367 109.82C422.1 110.513 421.634 111.067 420.967 111.48C420.314 111.893 419.487 112.1 418.487 112.1ZM427.324 112V101.5H428.684V104.36L428.544 103.86C428.837 103.06 429.33 102.453 430.024 102.04C430.717 101.613 431.577 101.4 432.604 101.4V102.78C432.55 102.78 432.497 102.78 432.444 102.78C432.39 102.767 432.337 102.76 432.284 102.76C431.177 102.76 430.31 103.1 429.684 103.78C429.057 104.447 428.744 105.4 428.744 106.64V112H427.324ZM440.994 112V109.68L440.934 109.3V105.42C440.934 104.527 440.68 103.84 440.174 103.36C439.68 102.88 438.94 102.64 437.954 102.64C437.274 102.64 436.627 102.753 436.014 102.98C435.4 103.207 434.88 103.507 434.454 103.88L433.814 102.82C434.347 102.367 434.987 102.02 435.734 101.78C436.48 101.527 437.267 101.4 438.094 101.4C439.454 101.4 440.5 101.74 441.234 102.42C441.98 103.087 442.354 104.107 442.354 105.48V112H440.994ZM437.374 112.1C436.587 112.1 435.9 111.973 435.314 111.72C434.74 111.453 434.3 111.093 433.994 110.64C433.687 110.173 433.534 109.64 433.534 109.04C433.534 108.493 433.66 108 433.914 107.56C434.18 107.107 434.607 106.747 435.194 106.48C435.794 106.2 436.594 106.06 437.594 106.06H441.214V107.12H437.634C436.62 107.12 435.914 107.3 435.514 107.66C435.127 108.02 434.934 108.467 434.934 109C434.934 109.6 435.167 110.08 435.634 110.44C436.1 110.8 436.754 110.98 437.594 110.98C438.394 110.98 439.08 110.8 439.654 110.44C440.24 110.067 440.667 109.533 440.934 108.84L441.254 109.82C440.987 110.513 440.52 111.067 439.854 111.48C439.2 111.893 438.374 112.1 437.374 112.1ZM129.16 136.1C128.16 136.1 127.26 135.873 126.46 135.42C125.673 134.967 125.053 134.34 124.6 133.54C124.147 132.727 123.92 131.793 123.92 130.74C123.92 129.673 124.147 128.74 124.6 127.94C125.053 127.14 125.673 126.52 126.46 126.08C127.26 125.627 128.16 125.4 129.16 125.4C130.08 125.4 130.9 125.607 131.62 126.02C132.353 126.433 132.933 127.04 133.36 127.84C133.8 128.627 134.02 129.593 134.02 130.74C134.02 131.873 133.807 132.84 133.38 133.64C132.953 134.44 132.373 135.053 131.64 135.48C130.92 135.893 130.093 136.1 129.16 136.1ZM129.26 134.84C130.007 134.84 130.673 134.673 131.26 134.34C131.86 133.993 132.327 133.513 132.66 132.9C133.007 132.273 133.18 131.553 133.18 130.74C133.18 129.913 133.007 129.193 132.66 128.58C132.327 127.967 131.86 127.493 131.26 127.16C130.673 126.813 130.007 126.64 129.26 126.64C128.527 126.64 127.867 126.813 127.28 127.16C126.693 127.493 126.227 127.967 125.88 128.58C125.533 129.193 125.36 129.913 125.36 130.74C125.36 131.553 125.533 132.273 125.88 132.9C126.227 133.513 126.693 133.993 127.28 134.34C127.867 134.673 128.527 134.84 129.26 134.84ZM133.22 136V132.84L133.36 130.72L133.16 128.6V121.16H134.58V136H133.22ZM142.995 136.1C141.901 136.1 140.941 135.873 140.115 135.42C139.288 134.953 138.641 134.32 138.175 133.52C137.708 132.707 137.475 131.78 137.475 130.74C137.475 129.7 137.695 128.78 138.135 127.98C138.588 127.18 139.201 126.553 139.975 126.1C140.761 125.633 141.641 125.4 142.615 125.4C143.601 125.4 144.475 125.627 145.235 126.08C146.008 126.52 146.615 127.147 147.055 127.96C147.495 128.76 147.715 129.687 147.715 130.74C147.715 130.807 147.708 130.88 147.695 130.96C147.695 131.027 147.695 131.1 147.695 131.18H138.555V130.12H146.935L146.375 130.54C146.375 129.78 146.208 129.107 145.875 128.52C145.555 127.92 145.115 127.453 144.555 127.12C143.995 126.787 143.348 126.62 142.615 126.62C141.895 126.62 141.248 126.787 140.675 127.12C140.101 127.453 139.655 127.92 139.335 128.52C139.015 129.12 138.855 129.807 138.855 130.58V130.8C138.855 131.6 139.028 132.307 139.375 132.92C139.735 133.52 140.228 133.993 140.855 134.34C141.495 134.673 142.221 134.84 143.035 134.84C143.675 134.84 144.268 134.727 144.815 134.5C145.375 134.273 145.855 133.927 146.255 133.46L147.055 134.38C146.588 134.94 146.001 135.367 145.295 135.66C144.601 135.953 143.835 136.1 142.995 136.1ZM153.425 136.1C152.558 136.1 151.738 135.98 150.965 135.74C150.192 135.487 149.585 135.173 149.145 134.8L149.785 133.68C150.212 134 150.758 134.28 151.425 134.52C152.092 134.747 152.792 134.86 153.525 134.86C154.525 134.86 155.245 134.707 155.685 134.4C156.125 134.08 156.345 133.66 156.345 133.14C156.345 132.753 156.218 132.453 155.965 132.24C155.725 132.013 155.405 131.847 155.005 131.74C154.605 131.62 154.158 131.52 153.665 131.44C153.172 131.36 152.678 131.267 152.185 131.16C151.705 131.053 151.265 130.9 150.865 130.7C150.465 130.487 150.138 130.2 149.885 129.84C149.645 129.48 149.525 129 149.525 128.4C149.525 127.827 149.685 127.313 150.005 126.86C150.325 126.407 150.792 126.053 151.405 125.8C152.032 125.533 152.792 125.4 153.685 125.4C154.365 125.4 155.045 125.493 155.725 125.68C156.405 125.853 156.965 126.087 157.405 126.38L156.785 127.52C156.318 127.2 155.818 126.973 155.285 126.84C154.752 126.693 154.218 126.62 153.685 126.62C152.738 126.62 152.038 126.787 151.585 127.12C151.145 127.44 150.925 127.853 150.925 128.36C150.925 128.76 151.045 129.073 151.285 129.3C151.538 129.527 151.865 129.707 152.265 129.84C152.678 129.96 153.125 130.06 153.605 130.14C154.098 130.22 154.585 130.32 155.065 130.44C155.558 130.547 156.005 130.7 156.405 130.9C156.818 131.087 157.145 131.36 157.385 131.72C157.638 132.067 157.765 132.527 157.765 133.1C157.765 133.713 157.592 134.247 157.245 134.7C156.912 135.14 156.418 135.487 155.765 135.74C155.125 135.98 154.345 136.1 153.425 136.1ZM164.731 136.1C163.691 136.1 162.757 135.873 161.931 135.42C161.117 134.953 160.477 134.32 160.011 133.52C159.544 132.707 159.311 131.78 159.311 130.74C159.311 129.687 159.544 128.76 160.011 127.96C160.477 127.16 161.117 126.533 161.931 126.08C162.757 125.627 163.691 125.4 164.731 125.4C165.624 125.4 166.431 125.573 167.151 125.92C167.871 126.267 168.437 126.787 168.851 127.48L167.791 128.2C167.431 127.667 166.984 127.273 166.451 127.02C165.917 126.767 165.337 126.64 164.711 126.64C163.964 126.64 163.291 126.813 162.691 127.16C162.091 127.493 161.617 127.967 161.271 128.58C160.924 129.193 160.751 129.913 160.751 130.74C160.751 131.567 160.924 132.287 161.271 132.9C161.617 133.513 162.091 133.993 162.691 134.34C163.291 134.673 163.964 134.84 164.711 134.84C165.337 134.84 165.917 134.713 166.451 134.46C166.984 134.207 167.431 133.82 167.791 133.3L168.851 134.02C168.437 134.7 167.871 135.22 167.151 135.58C166.431 135.927 165.624 136.1 164.731 136.1ZM175.744 136.1C174.731 136.1 173.818 135.873 173.004 135.42C172.204 134.953 171.571 134.32 171.104 133.52C170.638 132.707 170.404 131.78 170.404 130.74C170.404 129.687 170.638 128.76 171.104 127.96C171.571 127.16 172.204 126.533 173.004 126.08C173.804 125.627 174.718 125.4 175.744 125.4C176.784 125.4 177.704 125.627 178.504 126.08C179.318 126.533 179.951 127.16 180.404 127.96C180.871 128.76 181.104 129.687 181.104 130.74C181.104 131.78 180.871 132.707 180.404 133.52C179.951 134.32 179.318 134.953 178.504 135.42C177.691 135.873 176.771 136.1 175.744 136.1ZM175.744 134.84C176.504 134.84 177.178 134.673 177.764 134.34C178.351 133.993 178.811 133.513 179.144 132.9C179.491 132.273 179.664 131.553 179.664 130.74C179.664 129.913 179.491 129.193 179.144 128.58C178.811 127.967 178.351 127.493 177.764 127.16C177.178 126.813 176.511 126.64 175.764 126.64C175.018 126.64 174.351 126.813 173.764 127.16C173.178 127.493 172.711 127.967 172.364 128.58C172.018 129.193 171.844 129.913 171.844 130.74C171.844 131.553 172.018 132.273 172.364 132.9C172.711 133.513 173.178 133.993 173.764 134.34C174.351 134.673 175.011 134.84 175.744 134.84ZM197.123 125.4C197.977 125.4 198.717 125.567 199.343 125.9C199.983 126.22 200.477 126.713 200.823 127.38C201.183 128.047 201.363 128.887 201.363 129.9V136H199.943V130.04C199.943 128.933 199.677 128.1 199.143 127.54C198.623 126.967 197.883 126.68 196.923 126.68C196.203 126.68 195.577 126.833 195.043 127.14C194.523 127.433 194.117 127.867 193.823 128.44C193.543 129 193.403 129.68 193.403 130.48V136H191.983V130.04C191.983 128.933 191.717 128.1 191.183 127.54C190.65 126.967 189.903 126.68 188.943 126.68C188.237 126.68 187.617 126.833 187.083 127.14C186.55 127.433 186.137 127.867 185.843 128.44C185.563 129 185.423 129.68 185.423 130.48V136H184.003V125.5H185.363V128.34L185.143 127.84C185.463 127.08 185.977 126.487 186.683 126.06C187.403 125.62 188.25 125.4 189.223 125.4C190.25 125.4 191.123 125.66 191.843 126.18C192.563 126.687 193.03 127.453 193.243 128.48L192.683 128.26C192.99 127.407 193.53 126.72 194.303 126.2C195.09 125.667 196.03 125.4 197.123 125.4ZM210.634 136.1C209.728 136.1 208.908 135.893 208.174 135.48C207.441 135.053 206.854 134.447 206.414 133.66C205.988 132.86 205.774 131.887 205.774 130.74C205.774 129.593 205.988 128.627 206.414 127.84C206.841 127.04 207.421 126.433 208.154 126.02C208.888 125.607 209.714 125.4 210.634 125.4C211.634 125.4 212.528 125.627 213.314 126.08C214.114 126.52 214.741 127.147 215.194 127.96C215.648 128.76 215.874 129.687 215.874 130.74C215.874 131.807 215.648 132.74 215.194 133.54C214.741 134.34 214.114 134.967 213.314 135.42C212.528 135.873 211.634 136.1 210.634 136.1ZM205.214 139.88V125.5H206.574V128.66L206.434 130.76L206.634 132.88V139.88H205.214ZM210.534 134.84C211.281 134.84 211.948 134.673 212.534 134.34C213.121 133.993 213.588 133.513 213.934 132.9C214.281 132.273 214.454 131.553 214.454 130.74C214.454 129.927 214.281 129.213 213.934 128.6C213.588 127.987 213.121 127.507 212.534 127.16C211.948 126.813 211.281 126.64 210.534 126.64C209.788 126.64 209.114 126.813 208.514 127.16C207.928 127.507 207.461 127.987 207.114 128.6C206.781 129.213 206.614 129.927 206.614 130.74C206.614 131.553 206.781 132.273 207.114 132.9C207.461 133.513 207.928 133.993 208.514 134.34C209.114 134.673 209.788 134.84 210.534 134.84ZM223.049 136.1C222.036 136.1 221.122 135.873 220.309 135.42C219.509 134.953 218.876 134.32 218.409 133.52C217.942 132.707 217.709 131.78 217.709 130.74C217.709 129.687 217.942 128.76 218.409 127.96C218.876 127.16 219.509 126.533 220.309 126.08C221.109 125.627 222.022 125.4 223.049 125.4C224.089 125.4 225.009 125.627 225.809 126.08C226.622 126.533 227.256 127.16 227.709 127.96C228.176 128.76 228.409 129.687 228.409 130.74C228.409 131.78 228.176 132.707 227.709 133.52C227.256 134.32 226.622 134.953 225.809 135.42C224.996 135.873 224.076 136.1 223.049 136.1ZM223.049 134.84C223.809 134.84 224.482 134.673 225.069 134.34C225.656 133.993 226.116 133.513 226.449 132.9C226.796 132.273 226.969 131.553 226.969 130.74C226.969 129.913 226.796 129.193 226.449 128.58C226.116 127.967 225.656 127.493 225.069 127.16C224.482 126.813 223.816 126.64 223.069 126.64C222.322 126.64 221.656 126.813 221.069 127.16C220.482 127.493 220.016 127.967 219.669 128.58C219.322 129.193 219.149 129.913 219.149 130.74C219.149 131.553 219.322 132.273 219.669 132.9C220.016 133.513 220.482 133.993 221.069 134.34C221.656 134.673 222.316 134.84 223.049 134.84ZM236.668 125.4C237.521 125.4 238.268 125.567 238.908 125.9C239.561 126.22 240.068 126.713 240.428 127.38C240.801 128.047 240.988 128.887 240.988 129.9V136H239.568V130.04C239.568 128.933 239.288 128.1 238.728 127.54C238.181 126.967 237.408 126.68 236.408 126.68C235.661 126.68 235.008 126.833 234.448 127.14C233.901 127.433 233.475 127.867 233.168 128.44C232.875 129 232.728 129.68 232.728 130.48V136H231.308V125.5H232.668V128.38L232.448 127.84C232.781 127.08 233.315 126.487 234.048 126.06C234.781 125.62 235.655 125.4 236.668 125.4ZM249.284 136.1C248.19 136.1 247.23 135.873 246.404 135.42C245.577 134.953 244.93 134.32 244.464 133.52C243.997 132.707 243.764 131.78 243.764 130.74C243.764 129.7 243.984 128.78 244.424 127.98C244.877 127.18 245.49 126.553 246.264 126.1C247.05 125.633 247.93 125.4 248.904 125.4C249.89 125.4 250.764 125.627 251.524 126.08C252.297 126.52 252.904 127.147 253.344 127.96C253.784 128.76 254.004 129.687 254.004 130.74C254.004 130.807 253.997 130.88 253.984 130.96C253.984 131.027 253.984 131.1 253.984 131.18H244.844V130.12H253.224L252.664 130.54C252.664 129.78 252.497 129.107 252.164 128.52C251.844 127.92 251.404 127.453 250.844 127.12C250.284 126.787 249.637 126.62 248.904 126.62C248.184 126.62 247.537 126.787 246.964 127.12C246.39 127.453 245.944 127.92 245.624 128.52C245.304 129.12 245.144 129.807 245.144 130.58V130.8C245.144 131.6 245.317 132.307 245.664 132.92C246.024 133.52 246.517 133.993 247.144 134.34C247.784 134.673 248.51 134.84 249.324 134.84C249.964 134.84 250.557 134.727 251.104 134.5C251.664 134.273 252.144 133.927 252.544 133.46L253.344 134.38C252.877 134.94 252.29 135.367 251.584 135.66C250.89 135.953 250.124 136.1 249.284 136.1ZM256.894 136V125.5H258.254V128.36L258.114 127.86C258.407 127.06 258.901 126.453 259.594 126.04C260.287 125.613 261.147 125.4 262.174 125.4V126.78C262.121 126.78 262.067 126.78 262.014 126.78C261.961 126.767 261.907 126.76 261.854 126.76C260.747 126.76 259.881 127.1 259.254 127.78C258.627 128.447 258.314 129.4 258.314 130.64V136H256.894ZM270.156 136V121.16H271.576V136H270.156ZM282.107 136V133.68L282.047 133.3V129.42C282.047 128.527 281.794 127.84 281.287 127.36C280.794 126.88 280.054 126.64 279.067 126.64C278.387 126.64 277.74 126.753 277.127 126.98C276.514 127.207 275.994 127.507 275.567 127.88L274.927 126.82C275.46 126.367 276.1 126.02 276.847 125.78C277.594 125.527 278.38 125.4 279.207 125.4C280.567 125.4 281.614 125.74 282.347 126.42C283.094 127.087 283.467 128.107 283.467 129.48V136H282.107ZM278.487 136.1C277.7 136.1 277.014 135.973 276.427 135.72C275.854 135.453 275.414 135.093 275.107 134.64C274.8 134.173 274.647 133.64 274.647 133.04C274.647 132.493 274.774 132 275.027 131.56C275.294 131.107 275.72 130.747 276.307 130.48C276.907 130.2 277.707 130.06 278.707 130.06H282.327V131.12H278.747C277.734 131.12 277.027 131.3 276.627 131.66C276.24 132.02 276.047 132.467 276.047 133C276.047 133.6 276.28 134.08 276.747 134.44C277.214 134.8 277.867 134.98 278.707 134.98C279.507 134.98 280.194 134.8 280.767 134.44C281.354 134.067 281.78 133.533 282.047 132.84L282.367 133.82C282.1 134.513 281.634 135.067 280.967 135.48C280.314 135.893 279.487 136.1 278.487 136.1ZM305.678 125.4C306.531 125.4 307.271 125.567 307.898 125.9C308.538 126.22 309.031 126.713 309.378 127.38C309.738 128.047 309.918 128.887 309.918 129.9V136H308.498V130.04C308.498 128.933 308.231 128.1 307.698 127.54C307.178 126.967 306.438 126.68 305.478 126.68C304.758 126.68 304.131 126.833 303.598 127.14C303.078 127.433 302.671 127.867 302.378 128.44C302.098 129 301.958 129.68 301.958 130.48V136H300.538V130.04C300.538 128.933 300.271 128.1 299.738 127.54C299.205 126.967 298.458 126.68 297.498 126.68C296.791 126.68 296.171 126.833 295.638 127.14C295.105 127.433 294.691 127.867 294.398 128.44C294.118 129 293.978 129.68 293.978 130.48V136H292.558V125.5H293.918V128.34L293.698 127.84C294.018 127.08 294.531 126.487 295.238 126.06C295.958 125.62 296.805 125.4 297.778 125.4C298.805 125.4 299.678 125.66 300.398 126.18C301.118 126.687 301.585 127.453 301.798 128.48L301.238 128.26C301.545 127.407 302.085 126.72 302.858 126.2C303.645 125.667 304.585 125.4 305.678 125.4ZM318.049 136.1C317.036 136.1 316.122 135.873 315.309 135.42C314.509 134.953 313.876 134.32 313.409 133.52C312.942 132.707 312.709 131.78 312.709 130.74C312.709 129.687 312.942 128.76 313.409 127.96C313.876 127.16 314.509 126.533 315.309 126.08C316.109 125.627 317.022 125.4 318.049 125.4C319.089 125.4 320.009 125.627 320.809 126.08C321.622 126.533 322.256 127.16 322.709 127.96C323.176 128.76 323.409 129.687 323.409 130.74C323.409 131.78 323.176 132.707 322.709 133.52C322.256 134.32 321.622 134.953 320.809 135.42C319.996 135.873 319.076 136.1 318.049 136.1ZM318.049 134.84C318.809 134.84 319.482 134.673 320.069 134.34C320.656 133.993 321.116 133.513 321.449 132.9C321.796 132.273 321.969 131.553 321.969 130.74C321.969 129.913 321.796 129.193 321.449 128.58C321.116 127.967 320.656 127.493 320.069 127.16C319.482 126.813 318.816 126.64 318.069 126.64C317.322 126.64 316.656 126.813 316.069 127.16C315.482 127.493 315.016 127.967 314.669 128.58C314.322 129.193 314.149 129.913 314.149 130.74C314.149 131.553 314.322 132.273 314.669 132.9C315.016 133.513 315.482 133.993 316.069 134.34C316.656 134.673 317.316 134.84 318.049 134.84ZM326.308 136V121.16H327.728V136H326.308ZM336.139 136.1C335.046 136.1 334.086 135.873 333.259 135.42C332.433 134.953 331.786 134.32 331.319 133.52C330.853 132.707 330.619 131.78 330.619 130.74C330.619 129.7 330.839 128.78 331.279 127.98C331.733 127.18 332.346 126.553 333.119 126.1C333.906 125.633 334.786 125.4 335.759 125.4C336.746 125.4 337.619 125.627 338.379 126.08C339.153 126.52 339.759 127.147 340.199 127.96C340.639 128.76 340.859 129.687 340.859 130.74C340.859 130.807 340.853 130.88 340.839 130.96C340.839 131.027 340.839 131.1 340.839 131.18H331.699V130.12H340.079L339.519 130.54C339.519 129.78 339.353 129.107 339.019 128.52C338.699 127.92 338.259 127.453 337.699 127.12C337.139 126.787 336.493 126.62 335.759 126.62C335.039 126.62 334.393 126.787 333.819 127.12C333.246 127.453 332.799 127.92 332.479 128.52C332.159 129.12 331.999 129.807 331.999 130.58V130.8C331.999 131.6 332.173 132.307 332.519 132.92C332.879 133.52 333.373 133.993 333.999 134.34C334.639 134.673 335.366 134.84 336.179 134.84C336.819 134.84 337.413 134.727 337.959 134.5C338.519 134.273 338.999 133.927 339.399 133.46L340.199 134.38C339.733 134.94 339.146 135.367 338.439 135.66C337.746 135.953 336.979 136.1 336.139 136.1ZM334.439 123.86L337.179 121.38H339.079L335.839 123.86H334.439ZM348.11 136.1C347.07 136.1 346.136 135.873 345.31 135.42C344.496 134.953 343.856 134.32 343.39 133.52C342.923 132.707 342.69 131.78 342.69 130.74C342.69 129.687 342.923 128.76 343.39 127.96C343.856 127.16 344.496 126.533 345.31 126.08C346.136 125.627 347.07 125.4 348.11 125.4C349.003 125.4 349.81 125.573 350.53 125.92C351.25 126.267 351.816 126.787 352.23 127.48L351.17 128.2C350.81 127.667 350.363 127.273 349.83 127.02C349.296 126.767 348.716 126.64 348.09 126.64C347.343 126.64 346.67 126.813 346.07 127.16C345.47 127.493 344.996 127.967 344.65 128.58C344.303 129.193 344.13 129.913 344.13 130.74C344.13 131.567 344.303 132.287 344.65 132.9C344.996 133.513 345.47 133.993 346.07 134.34C346.67 134.673 347.343 134.84 348.09 134.84C348.716 134.84 349.296 134.713 349.83 134.46C350.363 134.207 350.81 133.82 351.17 133.3L352.23 134.02C351.816 134.7 351.25 135.22 350.53 135.58C349.81 135.927 349.003 136.1 348.11 136.1ZM359.359 136.1C358.466 136.1 357.686 135.933 357.019 135.6C356.352 135.267 355.832 134.767 355.459 134.1C355.099 133.433 354.919 132.6 354.919 131.6V125.5H356.339V131.44C356.339 132.56 356.612 133.407 357.159 133.98C357.719 134.54 358.499 134.82 359.499 134.82C360.232 134.82 360.866 134.673 361.399 134.38C361.946 134.073 362.359 133.633 362.639 133.06C362.932 132.487 363.079 131.8 363.079 131V125.5H364.499V136H363.139V133.12L363.359 133.64C363.026 134.413 362.506 135.02 361.799 135.46C361.106 135.887 360.292 136.1 359.359 136.1ZM368.457 136V121.16H369.877V136H368.457ZM380.408 136V133.68L380.348 133.3V129.42C380.348 128.527 380.094 127.84 379.588 127.36C379.094 126.88 378.354 126.64 377.368 126.64C376.688 126.64 376.041 126.753 375.428 126.98C374.814 127.207 374.294 127.507 373.868 127.88L373.228 126.82C373.761 126.367 374.401 126.02 375.148 125.78C375.894 125.527 376.681 125.4 377.508 125.4C378.868 125.4 379.914 125.74 380.648 126.42C381.394 127.087 381.768 128.107 381.768 129.48V136H380.408ZM376.788 136.1C376.001 136.1 375.314 135.973 374.728 135.72C374.154 135.453 373.714 135.093 373.408 134.64C373.101 134.173 372.948 133.64 372.948 133.04C372.948 132.493 373.074 132 373.328 131.56C373.594 131.107 374.021 130.747 374.608 130.48C375.208 130.2 376.008 130.06 377.008 130.06H380.628V131.12H377.048C376.034 131.12 375.328 131.3 374.928 131.66C374.541 132.02 374.348 132.467 374.348 133C374.348 133.6 374.581 134.08 375.048 134.44C375.514 134.8 376.168 134.98 377.008 134.98C377.808 134.98 378.494 134.8 379.068 134.44C379.654 134.067 380.081 133.533 380.348 132.84L380.668 133.82C380.401 134.513 379.934 135.067 379.268 135.48C378.614 135.893 377.788 136.1 376.788 136.1ZM395.039 136.1C394.039 136.1 393.139 135.873 392.339 135.42C391.552 134.967 390.932 134.34 390.479 133.54C390.026 132.727 389.799 131.793 389.799 130.74C389.799 129.673 390.026 128.74 390.479 127.94C390.932 127.14 391.552 126.52 392.339 126.08C393.139 125.627 394.039 125.4 395.039 125.4C395.959 125.4 396.779 125.607 397.499 126.02C398.232 126.433 398.812 127.04 399.239 127.84C399.679 128.627 399.899 129.593 399.899 130.74C399.899 131.873 399.686 132.84 399.259 133.64C398.832 134.44 398.252 135.053 397.519 135.48C396.799 135.893 395.972 136.1 395.039 136.1ZM395.139 134.84C395.886 134.84 396.552 134.673 397.139 134.34C397.739 133.993 398.206 133.513 398.539 132.9C398.886 132.273 399.059 131.553 399.059 130.74C399.059 129.913 398.886 129.193 398.539 128.58C398.206 127.967 397.739 127.493 397.139 127.16C396.552 126.813 395.886 126.64 395.139 126.64C394.406 126.64 393.746 126.813 393.159 127.16C392.572 127.493 392.106 127.967 391.759 128.58C391.412 129.193 391.239 129.913 391.239 130.74C391.239 131.553 391.412 132.273 391.759 132.9C392.106 133.513 392.572 133.993 393.159 134.34C393.746 134.673 394.406 134.84 395.139 134.84ZM399.099 136V132.84L399.239 130.72L399.039 128.6V121.16H400.459V136H399.099ZM408.874 136.1C407.78 136.1 406.82 135.873 405.994 135.42C405.167 134.953 404.52 134.32 404.054 133.52C403.587 132.707 403.354 131.78 403.354 130.74C403.354 129.7 403.574 128.78 404.014 127.98C404.467 127.18 405.08 126.553 405.854 126.1C406.64 125.633 407.52 125.4 408.494 125.4C409.48 125.4 410.354 125.627 411.114 126.08C411.887 126.52 412.494 127.147 412.934 127.96C413.374 128.76 413.594 129.687 413.594 130.74C413.594 130.807 413.587 130.88 413.574 130.96C413.574 131.027 413.574 131.1 413.574 131.18H404.434V130.12H412.814L412.254 130.54C412.254 129.78 412.087 129.107 411.754 128.52C411.434 127.92 410.994 127.453 410.434 127.12C409.874 126.787 409.227 126.62 408.494 126.62C407.774 126.62 407.127 126.787 406.554 127.12C405.98 127.453 405.534 127.92 405.214 128.52C404.894 129.12 404.734 129.807 404.734 130.58V130.8C404.734 131.6 404.907 132.307 405.254 132.92C405.614 133.52 406.107 133.993 406.734 134.34C407.374 134.673 408.1 134.84 408.914 134.84C409.554 134.84 410.147 134.727 410.694 134.5C411.254 134.273 411.734 133.927 412.134 133.46L412.934 134.38C412.467 134.94 411.88 135.367 411.174 135.66C410.48 135.953 409.714 136.1 408.874 136.1ZM428.298 136V133.68L428.238 133.3V129.42C428.238 128.527 427.985 127.84 427.478 127.36C426.985 126.88 426.245 126.64 425.258 126.64C424.578 126.64 423.932 126.753 423.318 126.98C422.705 127.207 422.185 127.507 421.758 127.88L421.118 126.82C421.652 126.367 422.292 126.02 423.038 125.78C423.785 125.527 424.572 125.4 425.398 125.4C426.758 125.4 427.805 125.74 428.538 126.42C429.285 127.087 429.658 128.107 429.658 129.48V136H428.298ZM424.678 136.1C423.892 136.1 423.205 135.973 422.618 135.72C422.045 135.453 421.605 135.093 421.298 134.64C420.992 134.173 420.838 133.64 420.838 133.04C420.838 132.493 420.965 132 421.218 131.56C421.485 131.107 421.912 130.747 422.498 130.48C423.098 130.2 423.898 130.06 424.898 130.06H428.518V131.12H424.938C423.925 131.12 423.218 131.3 422.818 131.66C422.432 132.02 422.238 132.467 422.238 133C422.238 133.6 422.472 134.08 422.938 134.44C423.405 134.8 424.058 134.98 424.898 134.98C425.698 134.98 426.385 134.8 426.958 134.44C427.545 134.067 427.972 133.533 428.238 132.84L428.558 133.82C428.292 134.513 427.825 135.067 427.158 135.48C426.505 135.893 425.678 136.1 424.678 136.1ZM437.995 139.98C437.035 139.98 436.115 139.84 435.235 139.56C434.355 139.28 433.642 138.88 433.095 138.36L433.815 137.28C434.308 137.72 434.915 138.067 435.635 138.32C436.368 138.587 437.142 138.72 437.955 138.72C439.288 138.72 440.268 138.407 440.895 137.78C441.522 137.167 441.835 136.207 441.835 134.9V132.28L442.035 130.48L441.895 128.68V125.5H443.255V134.72C443.255 136.533 442.808 137.86 441.915 138.7C441.035 139.553 439.728 139.98 437.995 139.98ZM437.735 135.6C436.735 135.6 435.835 135.387 435.035 134.96C434.235 134.52 433.602 133.913 433.135 133.14C432.682 132.367 432.455 131.48 432.455 130.48C432.455 129.48 432.682 128.6 433.135 127.84C433.602 127.067 434.235 126.467 435.035 126.04C435.835 125.613 436.735 125.4 437.735 125.4C438.668 125.4 439.508 125.593 440.255 125.98C441.002 126.367 441.595 126.94 442.035 127.7C442.475 128.46 442.695 129.387 442.695 130.48C442.695 131.573 442.475 132.5 442.035 133.26C441.595 134.02 441.002 134.6 440.255 135C439.508 135.4 438.668 135.6 437.735 135.6ZM437.875 134.34C438.648 134.34 439.335 134.18 439.935 133.86C440.535 133.527 441.008 133.073 441.355 132.5C441.702 131.913 441.875 131.24 441.875 130.48C441.875 129.72 441.702 129.053 441.355 128.48C441.008 127.907 440.535 127.46 439.935 127.14C439.335 126.807 438.648 126.64 437.875 126.64C437.115 126.64 436.428 126.807 435.815 127.14C435.215 127.46 434.742 127.907 434.395 128.48C434.062 129.053 433.895 129.72 433.895 130.48C433.895 131.24 434.062 131.913 434.395 132.5C434.742 133.073 435.215 133.527 435.815 133.86C436.428 134.18 437.115 134.34 437.875 134.34ZM451.547 136.1C450.653 136.1 449.873 135.933 449.207 135.6C448.54 135.267 448.02 134.767 447.647 134.1C447.287 133.433 447.107 132.6 447.107 131.6V125.5H448.527V131.44C448.527 132.56 448.8 133.407 449.347 133.98C449.907 134.54 450.687 134.82 451.687 134.82C452.42 134.82 453.053 134.673 453.587 134.38C454.133 134.073 454.547 133.633 454.827 133.06C455.12 132.487 455.267 131.8 455.267 131V125.5H456.687V136H455.327V133.12L455.547 133.64C455.213 134.413 454.693 135.02 453.987 135.46C453.293 135.887 452.48 136.1 451.547 136.1ZM467.224 136V133.68L467.164 133.3V129.42C467.164 128.527 466.911 127.84 466.404 127.36C465.911 126.88 465.171 126.64 464.184 126.64C463.504 126.64 462.857 126.753 462.244 126.98C461.631 127.207 461.111 127.507 460.684 127.88L460.044 126.82C460.577 126.367 461.217 126.02 461.964 125.78C462.711 125.527 463.497 125.4 464.324 125.4C465.684 125.4 466.731 125.74 467.464 126.42C468.211 127.087 468.584 128.107 468.584 129.48V136H467.224ZM463.604 136.1C462.817 136.1 462.131 135.973 461.544 135.72C460.971 135.453 460.531 135.093 460.224 134.64C459.917 134.173 459.764 133.64 459.764 133.04C459.764 132.493 459.891 132 460.144 131.56C460.411 131.107 460.837 130.747 461.424 130.48C462.024 130.2 462.824 130.06 463.824 130.06H467.444V131.12H463.864C462.851 131.12 462.144 131.3 461.744 131.66C461.357 132.02 461.164 132.467 461.164 133C461.164 133.6 461.397 134.08 461.864 134.44C462.331 134.8 462.984 134.98 463.824 134.98C464.624 134.98 465.311 134.8 465.884 134.44C466.471 134.067 466.897 133.533 467.164 132.84L467.484 133.82C467.217 134.513 466.751 135.067 466.084 135.48C465.431 135.893 464.604 136.1 463.604 136.1Z" fill="black"/>
<circle cx="574" cy="53" r="53" fill="#034638"/>
<path d="M567.14 65.8113L575.048 50.5813C575.776 49.1968 576.363 47.987 576.811 46.9521C577.272 45.9172 577.629 45.0151 577.88 44.2459C578.146 43.4628 578.328 42.7845 578.426 42.2111C578.524 41.6377 578.573 41.1202 578.573 40.6587C578.573 39.9315 578.503 39.3231 578.363 38.8336C578.237 38.3302 578.041 37.9316 577.776 37.6379C577.524 37.3302 577.202 37.1134 576.811 36.9876C576.433 36.8617 575.992 36.7988 575.489 36.7988C574.258 36.7988 573.363 37.3092 572.804 38.3302C572.258 39.3371 571.986 40.7916 571.986 42.6936V44.7284H567.79C567.636 43.9453 567.503 43.232 567.391 42.5887C567.28 41.9314 567.224 41.2181 567.224 40.4489C567.224 39.5399 567.378 38.6378 567.685 37.7428C568.007 36.8337 568.503 36.0156 569.175 35.2883C569.846 34.5611 570.699 33.9737 571.734 33.5262C572.783 33.0787 574.035 32.8549 575.489 32.8549C577.055 32.8549 578.391 33.0367 579.496 33.4003C580.615 33.7639 581.531 34.2954 582.244 34.9946C582.957 35.6939 583.475 36.547 583.796 37.554C584.132 38.5609 584.3 39.7007 584.3 40.9734C584.3 41.7006 584.23 42.4209 584.09 43.1341C583.964 43.8334 583.747 44.5886 583.44 45.3997C583.132 46.1969 582.733 47.071 582.244 48.022C581.754 48.973 581.153 50.0639 580.44 51.2946L573.37 64.7205H583.838V69H567.14V65.8113Z" fill="white"/>
<path d="M574 80V187H-2.96235e-05" stroke="#034638" stroke-width="7"/>
</svg>
