<svg width="629" height="215" viewBox="0 0 629 215" fill="none" xmlns="http://www.w3.org/2000/svg">
<circle cx="53" cy="53" r="53" fill="#034638"/>
<path d="M46.0978 61.6997C46.0978 61.0983 46.1398 60.441 46.2237 59.7277C46.3076 59.0005 46.4404 58.2523 46.6223 57.4831H50.8598V59.3082C50.8598 60.427 50.9507 61.364 51.1325 62.1192C51.3283 62.8744 51.587 63.4828 51.9087 63.9443C52.2304 64.4058 52.615 64.7345 53.0625 64.9303C53.51 65.1261 53.9995 65.224 54.531 65.224C55.0484 65.224 55.5169 65.154 55.9365 65.0142C56.356 64.8603 56.7127 64.6156 57.0064 64.2799C57.3001 63.9443 57.5238 63.5177 57.6777 63.0003C57.8315 62.4688 57.9084 61.8255 57.9084 61.0703V57.1055C57.9084 56.3503 57.8385 55.679 57.6986 55.0916C57.5728 54.5042 57.363 54.0147 57.0693 53.6231C56.7756 53.2175 56.391 52.9099 55.9155 52.7001C55.44 52.4903 54.8526 52.3854 54.1534 52.3854H51.8668V48.5045H54.1534C54.6009 48.5045 55.0204 48.4346 55.412 48.2947C55.8036 48.1409 56.1463 47.9031 56.44 47.5815C56.7337 47.2458 56.9644 46.8193 57.1322 46.3018C57.3001 45.7843 57.384 45.155 57.384 44.4138V40.6587C57.384 39.3301 57.1252 38.3581 56.6078 37.7428C56.0903 37.1134 55.3211 36.7988 54.3002 36.7988C53.1674 36.7988 52.2933 37.3092 51.678 38.3302C51.0766 39.3371 50.7759 40.7916 50.7759 42.6936V44.7284H46.5803C46.4265 44.0292 46.2936 43.3369 46.1817 42.6516C46.0698 41.9524 46.0139 41.2181 46.0139 40.4489C46.0139 39.5399 46.1817 38.6378 46.5174 37.7428C46.853 36.8337 47.3565 36.0156 48.0278 35.2883C48.7131 34.5611 49.5732 33.9737 50.6081 33.5262C51.657 33.0787 52.8877 32.8549 54.3002 32.8549C55.8246 32.8549 57.1322 33.0297 58.2231 33.3793C59.3139 33.729 60.202 34.2464 60.8873 34.9317C61.5866 35.603 62.097 36.4351 62.4187 37.4281C62.7543 38.4071 62.9222 39.5259 62.9222 40.7846V42.9873C62.9222 44.0082 62.7893 44.9172 62.5236 45.7144C62.2718 46.4976 61.9362 47.1829 61.5166 47.7703C61.1111 48.3576 60.6426 48.8611 60.1111 49.2807C59.5937 49.6862 59.0622 50.0149 58.5168 50.2666V50.4345C59.216 50.6722 59.8664 50.9869 60.4677 51.3785C61.0691 51.7561 61.5866 52.2456 62.0201 52.8469C62.4676 53.4483 62.8173 54.1755 63.069 55.0286C63.3207 55.8818 63.4466 56.8957 63.4466 58.0705V60.441C63.4466 62.0912 63.2089 63.4828 62.7334 64.6156C62.2579 65.7484 61.6145 66.6644 60.8034 67.3637C59.9922 68.049 59.0412 68.5455 57.9504 68.8532C56.8735 69.1608 55.7337 69.3147 54.531 69.3147C51.7898 69.3147 49.699 68.6504 48.2585 67.3218C46.818 65.9932 46.0978 64.1191 46.0978 61.6997Z" fill="white"/>
<path d="M55 104V211H629" stroke="#034638" stroke-width="7"/>
<path d="M145.566 52.9766H156.693V56.5625H150.119V65.5449H155.199V69.1309H150.119V79.4141H156.869V83H145.566V52.9766ZM159.945 51.0254H164.393V83H159.945V51.0254ZM174.887 83.2637C173.844 83.2637 172.918 83.0703 172.109 82.6836C171.312 82.2969 170.639 81.6934 170.088 80.873C169.537 80.0527 169.121 79.0039 168.84 77.7266C168.559 76.4375 168.418 74.8906 168.418 73.0859V68.5156C168.418 66.9805 168.529 65.668 168.752 64.5781C168.986 63.4766 169.285 62.5566 169.648 61.8184C170.023 61.0684 170.451 60.4766 170.932 60.043C171.424 59.6094 171.928 59.2812 172.443 59.0586C172.959 58.8242 173.469 58.6777 173.973 58.6191C174.488 58.5488 174.963 58.5137 175.396 58.5137C176.193 58.5137 176.961 58.6367 177.699 58.8828C178.438 59.1172 179.088 59.5273 179.65 60.1133C180.213 60.6875 180.658 61.4609 180.986 62.4336C181.326 63.4062 181.496 64.6191 181.496 66.0723C181.496 66.5645 181.479 67.0625 181.443 67.5664C181.42 68.0703 181.385 68.5684 181.338 69.0605C181.291 69.541 181.227 70.0098 181.145 70.4668C181.074 70.9238 180.998 71.3457 180.916 71.7324H172.883V74.1934C172.883 75.248 172.924 76.1387 173.006 76.8652C173.088 77.5801 173.223 78.1602 173.41 78.6055C173.609 79.0391 173.873 79.3555 174.201 79.5547C174.541 79.7422 174.963 79.8359 175.467 79.8359C175.736 79.8359 176 79.7832 176.258 79.6777C176.516 79.5605 176.738 79.373 176.926 79.1152C177.125 78.8574 177.283 78.5176 177.4 78.0957C177.518 77.6621 177.576 77.1289 177.576 76.4961V75.7402H181.285V76.6719C181.285 78.9688 180.734 80.6445 179.633 81.6992C178.543 82.7422 176.961 83.2637 174.887 83.2637ZM177.348 68.7441C177.359 68.6152 177.371 68.4453 177.383 68.2344C177.395 68.0117 177.4 67.7832 177.4 67.5488C177.412 67.3145 177.418 67.0859 177.418 66.8633C177.418 66.6289 177.418 66.4297 177.418 66.2656C177.418 64.6719 177.23 63.5234 176.855 62.8203C176.48 62.1172 175.924 61.7656 175.186 61.7656C174.799 61.7656 174.459 61.8594 174.166 62.0469C173.873 62.2227 173.633 62.5273 173.445 62.9609C173.258 63.3828 173.117 63.9453 173.023 64.6484C172.93 65.3516 172.883 66.2246 172.883 67.2676V68.7441H177.348ZM190.9 83.2637C188.861 83.2637 187.303 82.4258 186.225 80.75C185.158 79.0742 184.625 76.5195 184.625 73.0859V68.5156C184.625 66.9805 184.736 65.668 184.959 64.5781C185.182 63.4766 185.475 62.5566 185.838 61.8184C186.213 61.0684 186.635 60.4766 187.104 60.043C187.584 59.6094 188.076 59.2812 188.58 59.0586C189.084 58.8242 189.582 58.6777 190.074 58.6191C190.566 58.5488 191.018 58.5137 191.428 58.5137C192.248 58.5137 192.998 58.625 193.678 58.8477C194.357 59.0586 194.943 59.3867 195.436 59.832C195.928 60.2656 196.309 60.8164 196.578 61.4844C196.848 62.1523 196.982 62.9375 196.982 63.8398C196.982 64.4023 196.953 64.8887 196.895 65.2988C196.848 65.6973 196.777 66.084 196.684 66.459H193.133V65.6504C193.133 64.4316 192.986 63.4824 192.693 62.8027C192.412 62.1113 191.943 61.7656 191.287 61.7656C190.924 61.7656 190.607 61.8535 190.338 62.0293C190.068 62.1934 189.84 62.4805 189.652 62.8906C189.477 63.3008 189.342 63.8516 189.248 64.543C189.166 65.2344 189.125 66.1016 189.125 67.1445V74.0176C189.125 75.0723 189.16 75.9688 189.23 76.707C189.301 77.4453 189.424 78.0488 189.6 78.5176C189.775 78.9746 190.01 79.3086 190.303 79.5195C190.596 79.7305 190.959 79.8359 191.393 79.8359C191.615 79.8359 191.832 79.7832 192.043 79.6777C192.254 79.5605 192.436 79.373 192.588 79.1152C192.752 78.8574 192.881 78.5176 192.975 78.0957C193.08 77.6621 193.133 77.1289 193.133 76.4961V75.7402H196.965V76.6719C196.965 78.9688 196.455 80.6445 195.436 81.6992C194.428 82.7422 192.916 83.2637 190.9 83.2637ZM201.096 61.959H199.215V58.7949H201.482L202.379 52.5195H205.543V58.7949H209.41V61.959H205.543V77.3574C205.543 77.8848 205.59 78.3125 205.684 78.6406C205.789 78.957 205.93 79.209 206.105 79.3965C206.281 79.5723 206.486 79.6895 206.721 79.748C206.955 79.8066 207.201 79.8359 207.459 79.8359C207.893 79.8359 208.273 79.7832 208.602 79.6777C208.941 79.5723 209.264 79.4258 209.568 79.2383V81.6992C209.311 82.0156 209.029 82.2734 208.725 82.4727C208.432 82.6719 208.127 82.8359 207.811 82.9648C207.494 83.082 207.172 83.1641 206.844 83.2109C206.516 83.2578 206.193 83.2812 205.877 83.2812C205.256 83.2812 204.658 83.1992 204.084 83.0352C203.51 82.8711 203 82.5605 202.555 82.1035C202.109 81.6348 201.752 80.9902 201.482 80.1699C201.225 79.3496 201.096 78.2832 201.096 76.9707V61.959ZM212.469 58.7949H215.721L216.107 61.2559C216.6 60.3418 217.162 59.6562 217.795 59.1992C218.439 58.7422 219.096 58.5137 219.764 58.5137C221.041 58.5137 221.984 58.9062 222.594 59.6914C223.203 60.4766 223.508 61.6543 223.508 63.2246C223.508 63.4238 223.49 63.6641 223.455 63.9453C223.432 64.2148 223.391 64.502 223.332 64.8066C223.285 65.0996 223.221 65.3984 223.139 65.7031C223.068 65.9961 222.992 66.2656 222.91 66.5117H219.816V64.2617C219.816 63.7695 219.781 63.3652 219.711 63.0488C219.652 62.7324 219.57 62.4805 219.465 62.293C219.359 62.0938 219.236 61.959 219.096 61.8887C218.955 61.8066 218.803 61.7656 218.639 61.7656C218.287 61.7656 217.959 61.8828 217.654 62.1172C217.361 62.3398 217.115 62.6562 216.916 63.0664V83H212.469V58.7949ZM232.49 83.2637C231.975 83.2637 231.447 83.2227 230.908 83.1406C230.381 83.0586 229.865 82.8887 229.361 82.6309C228.869 82.373 228.4 82.0039 227.955 81.5234C227.521 81.043 227.141 80.4102 226.812 79.625C226.484 78.8398 226.227 77.873 226.039 76.7246C225.852 75.5762 225.758 74.2051 225.758 72.6113V68.8145C225.758 67.2441 225.852 65.9023 226.039 64.7891C226.238 63.6641 226.502 62.7207 226.83 61.959C227.17 61.1973 227.562 60.5938 228.008 60.1484C228.453 59.6914 228.922 59.3457 229.414 59.1113C229.918 58.8652 230.434 58.707 230.961 58.6367C231.488 58.5547 232.004 58.5137 232.508 58.5137C232.988 58.5137 233.486 58.5488 234.002 58.6191C234.518 58.6895 235.021 58.8418 235.514 59.0762C236.006 59.2988 236.469 59.6387 236.902 60.0957C237.348 60.541 237.734 61.1445 238.062 61.9062C238.402 62.668 238.666 63.6172 238.854 64.7539C239.053 65.8789 239.152 67.2324 239.152 68.8145V72.6113C239.152 74.1816 239.053 75.5352 238.854 76.6719C238.654 77.8086 238.385 78.7695 238.045 79.5547C237.705 80.3398 237.312 80.9785 236.867 81.4707C236.422 81.9512 235.953 82.3262 235.461 82.5957C234.969 82.8652 234.465 83.041 233.949 83.123C233.445 83.2168 232.959 83.2637 232.49 83.2637ZM232.525 79.8359C232.924 79.8359 233.258 79.7363 233.527 79.5371C233.809 79.3262 234.031 78.9863 234.195 78.5176C234.371 78.0488 234.494 77.4336 234.564 76.6719C234.646 75.8984 234.688 74.9434 234.688 73.8066V67.8477C234.688 66.7109 234.646 65.7559 234.564 64.9824C234.494 64.209 234.371 63.5879 234.195 63.1191C234.031 62.6387 233.809 62.293 233.527 62.082C233.258 61.8711 232.924 61.7656 232.525 61.7656C232.104 61.7656 231.746 61.8711 231.453 62.082C231.172 62.293 230.938 62.6387 230.75 63.1191C230.562 63.5879 230.428 64.209 230.346 64.9824C230.264 65.7559 230.223 66.7109 230.223 67.8477V73.8066C230.223 74.9434 230.264 75.8984 230.346 76.6719C230.428 77.4336 230.562 78.0488 230.75 78.5176C230.938 78.9863 231.172 79.3262 231.453 79.5371C231.746 79.7363 232.104 79.8359 232.525 79.8359ZM230.24 55.4551L235.338 48.1426L238.309 50.5508L232.438 57.3008L230.24 55.4551ZM243.23 51.0254H247.678V83H243.23V51.0254ZM254.709 55.332C253.889 55.332 253.238 55.0859 252.758 54.5938C252.289 54.1016 252.055 53.3809 252.055 52.4316C252.055 51.9043 252.113 51.4648 252.23 51.1133C252.359 50.75 252.535 50.4629 252.758 50.252C252.992 50.0293 253.273 49.8711 253.602 49.7773C253.93 49.6719 254.305 49.6191 254.727 49.6191C255.605 49.6191 256.273 49.8418 256.73 50.2871C257.188 50.7324 257.416 51.4473 257.416 52.4316C257.416 53.3457 257.182 54.0605 256.713 54.5762C256.256 55.0801 255.588 55.332 254.709 55.332ZM252.406 58.7949H256.854V83H252.406V58.7949ZM260.562 77.9375C260.562 77.4102 260.609 76.9004 260.703 76.4082C260.809 75.916 260.908 75.5234 261.002 75.2305H264.131C264.131 76.1094 264.172 76.8477 264.254 77.4453C264.348 78.0312 264.494 78.5 264.693 78.8516C264.893 79.2031 265.156 79.4551 265.484 79.6074C265.824 79.7598 266.234 79.8359 266.715 79.8359C267.383 79.8359 267.869 79.6484 268.174 79.2734C268.479 78.8984 268.631 78.4648 268.631 77.9727C268.631 77.7148 268.596 77.4688 268.525 77.2344C268.455 77 268.355 76.7656 268.227 76.5312C268.098 76.2852 267.939 76.0391 267.752 75.793C267.564 75.5469 267.354 75.2773 267.119 74.9844L263.867 71.1523C263.445 70.625 263.035 70.0918 262.637 69.5527C262.25 69.002 261.904 68.4395 261.6 67.8652C261.307 67.2793 261.066 66.6699 260.879 66.0371C260.703 65.4043 260.615 64.7363 260.615 64.0332C260.615 63.0957 260.773 62.2812 261.09 61.5898C261.418 60.8984 261.852 60.3242 262.391 59.8672C262.941 59.4102 263.574 59.0703 264.289 58.8477C265.004 58.625 265.76 58.5137 266.557 58.5137C267.436 58.5137 268.227 58.6191 268.93 58.8301C269.633 59.041 270.236 59.3574 270.74 59.7793C271.244 60.2012 271.631 60.7285 271.9 61.3613C272.17 61.9824 272.305 62.709 272.305 63.541C272.305 64.1035 272.252 64.6484 272.146 65.1758C272.053 65.7031 271.959 66.1543 271.865 66.5293H268.789C268.777 65.7324 268.742 65.0352 268.684 64.4375C268.625 63.8398 268.514 63.3477 268.35 62.9609C268.197 62.5625 267.98 62.2637 267.699 62.0645C267.43 61.8652 267.072 61.7656 266.627 61.7656C266.24 61.7656 265.918 61.8301 265.66 61.959C265.402 62.0762 265.191 62.2344 265.027 62.4336C264.875 62.6328 264.764 62.8555 264.693 63.1016C264.635 63.3477 264.605 63.5996 264.605 63.8574C264.605 64.4199 264.74 64.9414 265.01 65.4219C265.279 65.9023 265.637 66.4238 266.082 66.9863L269.633 71.1523C269.891 71.4688 270.189 71.8555 270.529 72.3125C270.869 72.7578 271.191 73.2559 271.496 73.8066C271.801 74.3457 272.059 74.9375 272.27 75.582C272.48 76.2266 272.586 76.9004 272.586 77.6035C272.586 78.459 272.451 79.2383 272.182 79.9414C271.912 80.6328 271.514 81.2246 270.986 81.7168C270.459 82.209 269.809 82.5898 269.035 82.8594C268.273 83.1289 267.4 83.2637 266.416 83.2637C265.607 83.2637 264.846 83.1758 264.131 83C263.416 82.8125 262.795 82.5137 262.268 82.1035C261.74 81.6816 261.324 81.1309 261.02 80.4512C260.715 79.7715 260.562 78.9336 260.562 77.9375ZM278.475 55.332C277.654 55.332 277.004 55.0859 276.523 54.5938C276.055 54.1016 275.82 53.3809 275.82 52.4316C275.82 51.9043 275.879 51.4648 275.996 51.1133C276.125 50.75 276.301 50.4629 276.523 50.252C276.758 50.0293 277.039 49.8711 277.367 49.7773C277.695 49.6719 278.07 49.6191 278.492 49.6191C279.371 49.6191 280.039 49.8418 280.496 50.2871C280.953 50.7324 281.182 51.4473 281.182 52.4316C281.182 53.3457 280.947 54.0605 280.479 54.5762C280.021 55.0801 279.354 55.332 278.475 55.332ZM276.172 58.7949H280.619V83H276.172V58.7949ZM284.328 77.9375C284.328 77.4102 284.375 76.9004 284.469 76.4082C284.574 75.916 284.674 75.5234 284.768 75.2305H287.896C287.896 76.1094 287.938 76.8477 288.02 77.4453C288.113 78.0312 288.26 78.5 288.459 78.8516C288.658 79.2031 288.922 79.4551 289.25 79.6074C289.59 79.7598 290 79.8359 290.48 79.8359C291.148 79.8359 291.635 79.6484 291.939 79.2734C292.244 78.8984 292.396 78.4648 292.396 77.9727C292.396 77.7148 292.361 77.4688 292.291 77.2344C292.221 77 292.121 76.7656 291.992 76.5312C291.863 76.2852 291.705 76.0391 291.518 75.793C291.33 75.5469 291.119 75.2773 290.885 74.9844L287.633 71.1523C287.211 70.625 286.801 70.0918 286.402 69.5527C286.016 69.002 285.67 68.4395 285.365 67.8652C285.072 67.2793 284.832 66.6699 284.645 66.0371C284.469 65.4043 284.381 64.7363 284.381 64.0332C284.381 63.0957 284.539 62.2812 284.855 61.5898C285.184 60.8984 285.617 60.3242 286.156 59.8672C286.707 59.4102 287.34 59.0703 288.055 58.8477C288.77 58.625 289.525 58.5137 290.322 58.5137C291.201 58.5137 291.992 58.6191 292.695 58.8301C293.398 59.041 294.002 59.3574 294.506 59.7793C295.01 60.2012 295.396 60.7285 295.666 61.3613C295.936 61.9824 296.07 62.709 296.07 63.541C296.07 64.1035 296.018 64.6484 295.912 65.1758C295.818 65.7031 295.725 66.1543 295.631 66.5293H292.555C292.543 65.7324 292.508 65.0352 292.449 64.4375C292.391 63.8398 292.279 63.3477 292.115 62.9609C291.963 62.5625 291.746 62.2637 291.465 62.0645C291.195 61.8652 290.838 61.7656 290.393 61.7656C290.006 61.7656 289.684 61.8301 289.426 61.959C289.168 62.0762 288.957 62.2344 288.793 62.4336C288.641 62.6328 288.529 62.8555 288.459 63.1016C288.4 63.3477 288.371 63.5996 288.371 63.8574C288.371 64.4199 288.506 64.9414 288.775 65.4219C289.045 65.9023 289.402 66.4238 289.848 66.9863L293.398 71.1523C293.656 71.4688 293.955 71.8555 294.295 72.3125C294.635 72.7578 294.957 73.2559 295.262 73.8066C295.566 74.3457 295.824 74.9375 296.035 75.582C296.246 76.2266 296.352 76.9004 296.352 77.6035C296.352 78.459 296.217 79.2383 295.947 79.9414C295.678 80.6328 295.279 81.2246 294.752 81.7168C294.225 82.209 293.574 82.5898 292.801 82.8594C292.039 83.1289 291.166 83.2637 290.182 83.2637C289.373 83.2637 288.611 83.1758 287.896 83C287.182 82.8125 286.561 82.5137 286.033 82.1035C285.506 81.6816 285.09 81.1309 284.785 80.4512C284.48 79.7715 284.328 78.9336 284.328 77.9375Z" fill="black"/>
<path d="M145.28 129V115H146.76V127.72H154.6V129H145.28ZM160.881 129.1C159.868 129.1 158.954 128.873 158.141 128.42C157.341 127.953 156.708 127.32 156.241 126.52C155.774 125.707 155.541 124.78 155.541 123.74C155.541 122.687 155.774 121.76 156.241 120.96C156.708 120.16 157.341 119.533 158.141 119.08C158.941 118.627 159.854 118.4 160.881 118.4C161.921 118.4 162.841 118.627 163.641 119.08C164.454 119.533 165.088 120.16 165.541 120.96C166.008 121.76 166.241 122.687 166.241 123.74C166.241 124.78 166.008 125.707 165.541 126.52C165.088 127.32 164.454 127.953 163.641 128.42C162.828 128.873 161.908 129.1 160.881 129.1ZM160.881 127.84C161.641 127.84 162.314 127.673 162.901 127.34C163.488 126.993 163.948 126.513 164.281 125.9C164.628 125.273 164.801 124.553 164.801 123.74C164.801 122.913 164.628 122.193 164.281 121.58C163.948 120.967 163.488 120.493 162.901 120.16C162.314 119.813 161.648 119.64 160.901 119.64C160.154 119.64 159.488 119.813 158.901 120.16C158.314 120.493 157.848 120.967 157.501 121.58C157.154 122.193 156.981 122.913 156.981 123.74C156.981 124.553 157.154 125.273 157.501 125.9C157.848 126.513 158.314 126.993 158.901 127.34C159.488 127.673 160.148 127.84 160.881 127.84ZM171.96 129.1C171.093 129.1 170.273 128.98 169.5 128.74C168.727 128.487 168.12 128.173 167.68 127.8L168.32 126.68C168.747 127 169.293 127.28 169.96 127.52C170.627 127.747 171.327 127.86 172.06 127.86C173.06 127.86 173.78 127.707 174.22 127.4C174.66 127.08 174.88 126.66 174.88 126.14C174.88 125.753 174.753 125.453 174.5 125.24C174.26 125.013 173.94 124.847 173.54 124.74C173.14 124.62 172.693 124.52 172.2 124.44C171.707 124.36 171.213 124.267 170.72 124.16C170.24 124.053 169.8 123.9 169.4 123.7C169 123.487 168.673 123.2 168.42 122.84C168.18 122.48 168.06 122 168.06 121.4C168.06 120.827 168.22 120.313 168.54 119.86C168.86 119.407 169.327 119.053 169.94 118.8C170.567 118.533 171.327 118.4 172.22 118.4C172.9 118.4 173.58 118.493 174.26 118.68C174.94 118.853 175.5 119.087 175.94 119.38L175.32 120.52C174.853 120.2 174.353 119.973 173.82 119.84C173.287 119.693 172.753 119.62 172.22 119.62C171.273 119.62 170.573 119.787 170.12 120.12C169.68 120.44 169.46 120.853 169.46 121.36C169.46 121.76 169.58 122.073 169.82 122.3C170.073 122.527 170.4 122.707 170.8 122.84C171.213 122.96 171.66 123.06 172.14 123.14C172.633 123.22 173.12 123.32 173.6 123.44C174.093 123.547 174.54 123.7 174.94 123.9C175.353 124.087 175.68 124.36 175.92 124.72C176.173 125.067 176.3 125.527 176.3 126.1C176.3 126.713 176.127 127.247 175.78 127.7C175.447 128.14 174.953 128.487 174.3 128.74C173.66 128.98 172.88 129.1 171.96 129.1ZM188.5 129.1C187.46 129.1 186.527 128.873 185.7 128.42C184.887 127.953 184.247 127.32 183.78 126.52C183.313 125.707 183.08 124.78 183.08 123.74C183.08 122.687 183.313 121.76 183.78 120.96C184.247 120.16 184.887 119.533 185.7 119.08C186.527 118.627 187.46 118.4 188.5 118.4C189.393 118.4 190.2 118.573 190.92 118.92C191.64 119.267 192.207 119.787 192.62 120.48L191.56 121.2C191.2 120.667 190.753 120.273 190.22 120.02C189.687 119.767 189.107 119.64 188.48 119.64C187.733 119.64 187.06 119.813 186.46 120.16C185.86 120.493 185.387 120.967 185.04 121.58C184.693 122.193 184.52 122.913 184.52 123.74C184.52 124.567 184.693 125.287 185.04 125.9C185.387 126.513 185.86 126.993 186.46 127.34C187.06 127.673 187.733 127.84 188.48 127.84C189.107 127.84 189.687 127.713 190.22 127.46C190.753 127.207 191.2 126.82 191.56 126.3L192.62 127.02C192.207 127.7 191.64 128.22 190.92 128.58C190.2 128.927 189.393 129.1 188.5 129.1ZM199.514 129.1C198.501 129.1 197.587 128.873 196.774 128.42C195.974 127.953 195.341 127.32 194.874 126.52C194.407 125.707 194.174 124.78 194.174 123.74C194.174 122.687 194.407 121.76 194.874 120.96C195.341 120.16 195.974 119.533 196.774 119.08C197.574 118.627 198.487 118.4 199.514 118.4C200.554 118.4 201.474 118.627 202.274 119.08C203.087 119.533 203.721 120.16 204.174 120.96C204.641 121.76 204.874 122.687 204.874 123.74C204.874 124.78 204.641 125.707 204.174 126.52C203.721 127.32 203.087 127.953 202.274 128.42C201.461 128.873 200.541 129.1 199.514 129.1ZM199.514 127.84C200.274 127.84 200.947 127.673 201.534 127.34C202.121 126.993 202.581 126.513 202.914 125.9C203.261 125.273 203.434 124.553 203.434 123.74C203.434 122.913 203.261 122.193 202.914 121.58C202.581 120.967 202.121 120.493 201.534 120.16C200.947 119.813 200.281 119.64 199.534 119.64C198.787 119.64 198.121 119.813 197.534 120.16C196.947 120.493 196.481 120.967 196.134 121.58C195.787 122.193 195.614 122.913 195.614 123.74C195.614 124.553 195.787 125.273 196.134 125.9C196.481 126.513 196.947 126.993 197.534 127.34C198.121 127.673 198.781 127.84 199.514 127.84ZM220.893 118.4C221.746 118.4 222.486 118.567 223.113 118.9C223.753 119.22 224.246 119.713 224.593 120.38C224.953 121.047 225.133 121.887 225.133 122.9V129H223.713V123.04C223.713 121.933 223.446 121.1 222.913 120.54C222.393 119.967 221.653 119.68 220.693 119.68C219.973 119.68 219.346 119.833 218.813 120.14C218.293 120.433 217.886 120.867 217.593 121.44C217.313 122 217.173 122.68 217.173 123.48V129H215.753V123.04C215.753 121.933 215.486 121.1 214.953 120.54C214.42 119.967 213.673 119.68 212.713 119.68C212.006 119.68 211.386 119.833 210.853 120.14C210.32 120.433 209.906 120.867 209.613 121.44C209.333 122 209.193 122.68 209.193 123.48V129H207.773V118.5H209.133V121.34L208.913 120.84C209.233 120.08 209.746 119.487 210.453 119.06C211.173 118.62 212.02 118.4 212.993 118.4C214.02 118.4 214.893 118.66 215.613 119.18C216.333 119.687 216.8 120.453 217.013 121.48L216.453 121.26C216.76 120.407 217.3 119.72 218.073 119.2C218.86 118.667 219.8 118.4 220.893 118.4ZM234.404 129.1C233.497 129.1 232.677 128.893 231.944 128.48C231.211 128.053 230.624 127.447 230.184 126.66C229.757 125.86 229.544 124.887 229.544 123.74C229.544 122.593 229.757 121.627 230.184 120.84C230.611 120.04 231.191 119.433 231.924 119.02C232.657 118.607 233.484 118.4 234.404 118.4C235.404 118.4 236.297 118.627 237.084 119.08C237.884 119.52 238.511 120.147 238.964 120.96C239.417 121.76 239.644 122.687 239.644 123.74C239.644 124.807 239.417 125.74 238.964 126.54C238.511 127.34 237.884 127.967 237.084 128.42C236.297 128.873 235.404 129.1 234.404 129.1ZM228.984 132.88V118.5H230.344V121.66L230.204 123.76L230.404 125.88V132.88H228.984ZM234.304 127.84C235.051 127.84 235.717 127.673 236.304 127.34C236.891 126.993 237.357 126.513 237.704 125.9C238.051 125.273 238.224 124.553 238.224 123.74C238.224 122.927 238.051 122.213 237.704 121.6C237.357 120.987 236.891 120.507 236.304 120.16C235.717 119.813 235.051 119.64 234.304 119.64C233.557 119.64 232.884 119.813 232.284 120.16C231.697 120.507 231.231 120.987 230.884 121.6C230.551 122.213 230.384 122.927 230.384 123.74C230.384 124.553 230.551 125.273 230.884 125.9C231.231 126.513 231.697 126.993 232.284 127.34C232.884 127.673 233.557 127.84 234.304 127.84ZM246.819 129.1C245.805 129.1 244.892 128.873 244.079 128.42C243.279 127.953 242.645 127.32 242.179 126.52C241.712 125.707 241.479 124.78 241.479 123.74C241.479 122.687 241.712 121.76 242.179 120.96C242.645 120.16 243.279 119.533 244.079 119.08C244.879 118.627 245.792 118.4 246.819 118.4C247.859 118.4 248.779 118.627 249.579 119.08C250.392 119.533 251.025 120.16 251.479 120.96C251.945 121.76 252.179 122.687 252.179 123.74C252.179 124.78 251.945 125.707 251.479 126.52C251.025 127.32 250.392 127.953 249.579 128.42C248.765 128.873 247.845 129.1 246.819 129.1ZM246.819 127.84C247.579 127.84 248.252 127.673 248.839 127.34C249.425 126.993 249.885 126.513 250.219 125.9C250.565 125.273 250.739 124.553 250.739 123.74C250.739 122.913 250.565 122.193 250.219 121.58C249.885 120.967 249.425 120.493 248.839 120.16C248.252 119.813 247.585 119.64 246.839 119.64C246.092 119.64 245.425 119.813 244.839 120.16C244.252 120.493 243.785 120.967 243.439 121.58C243.092 122.193 242.919 122.913 242.919 123.74C242.919 124.553 243.092 125.273 243.439 125.9C243.785 126.513 244.252 126.993 244.839 127.34C245.425 127.673 246.085 127.84 246.819 127.84ZM260.438 118.4C261.291 118.4 262.038 118.567 262.678 118.9C263.331 119.22 263.838 119.713 264.198 120.38C264.571 121.047 264.758 121.887 264.758 122.9V129H263.338V123.04C263.338 121.933 263.058 121.1 262.498 120.54C261.951 119.967 261.178 119.68 260.178 119.68C259.431 119.68 258.778 119.833 258.218 120.14C257.671 120.433 257.244 120.867 256.938 121.44C256.644 122 256.498 122.68 256.498 123.48V129H255.078V118.5H256.438V121.38L256.218 120.84C256.551 120.08 257.084 119.487 257.818 119.06C258.551 118.62 259.424 118.4 260.438 118.4ZM273.053 129.1C271.96 129.1 271 128.873 270.173 128.42C269.347 127.953 268.7 127.32 268.233 126.52C267.767 125.707 267.533 124.78 267.533 123.74C267.533 122.7 267.753 121.78 268.193 120.98C268.647 120.18 269.26 119.553 270.033 119.1C270.82 118.633 271.7 118.4 272.673 118.4C273.66 118.4 274.533 118.627 275.293 119.08C276.067 119.52 276.673 120.147 277.113 120.96C277.553 121.76 277.773 122.687 277.773 123.74C277.773 123.807 277.767 123.88 277.753 123.96C277.753 124.027 277.753 124.1 277.753 124.18H268.613V123.12H276.993L276.433 123.54C276.433 122.78 276.267 122.107 275.933 121.52C275.613 120.92 275.173 120.453 274.613 120.12C274.053 119.787 273.407 119.62 272.673 119.62C271.953 119.62 271.307 119.787 270.733 120.12C270.16 120.453 269.713 120.92 269.393 121.52C269.073 122.12 268.913 122.807 268.913 123.58V123.8C268.913 124.6 269.087 125.307 269.433 125.92C269.793 126.52 270.287 126.993 270.913 127.34C271.553 127.673 272.28 127.84 273.093 127.84C273.733 127.84 274.327 127.727 274.873 127.5C275.433 127.273 275.913 126.927 276.313 126.46L277.113 127.38C276.647 127.94 276.06 128.367 275.353 128.66C274.66 128.953 273.893 129.1 273.053 129.1ZM286.024 118.4C286.877 118.4 287.624 118.567 288.264 118.9C288.917 119.22 289.424 119.713 289.784 120.38C290.157 121.047 290.344 121.887 290.344 122.9V129H288.924V123.04C288.924 121.933 288.644 121.1 288.084 120.54C287.537 119.967 286.764 119.68 285.764 119.68C285.017 119.68 284.364 119.833 283.804 120.14C283.257 120.433 282.83 120.867 282.524 121.44C282.23 122 282.084 122.68 282.084 123.48V129H280.664V118.5H282.024V121.38L281.804 120.84C282.137 120.08 282.67 119.487 283.404 119.06C284.137 118.62 285.01 118.4 286.024 118.4ZM297.499 129.1C296.513 129.1 295.753 128.833 295.219 128.3C294.686 127.767 294.419 127.013 294.419 126.04V116.18H295.839V125.96C295.839 126.573 295.993 127.047 296.299 127.38C296.619 127.713 297.073 127.88 297.659 127.88C298.286 127.88 298.806 127.7 299.219 127.34L299.719 128.36C299.439 128.613 299.099 128.8 298.699 128.92C298.313 129.04 297.913 129.1 297.499 129.1ZM292.539 119.68V118.5H299.039V119.68H292.539ZM306.393 129.1C305.3 129.1 304.34 128.873 303.513 128.42C302.686 127.953 302.04 127.32 301.573 126.52C301.106 125.707 300.873 124.78 300.873 123.74C300.873 122.7 301.093 121.78 301.533 120.98C301.986 120.18 302.6 119.553 303.373 119.1C304.16 118.633 305.04 118.4 306.013 118.4C307 118.4 307.873 118.627 308.633 119.08C309.406 119.52 310.013 120.147 310.453 120.96C310.893 121.76 311.113 122.687 311.113 123.74C311.113 123.807 311.106 123.88 311.093 123.96C311.093 124.027 311.093 124.1 311.093 124.18H301.953V123.12H310.333L309.773 123.54C309.773 122.78 309.606 122.107 309.273 121.52C308.953 120.92 308.513 120.453 307.953 120.12C307.393 119.787 306.746 119.62 306.013 119.62C305.293 119.62 304.646 119.787 304.073 120.12C303.5 120.453 303.053 120.92 302.733 121.52C302.413 122.12 302.253 122.807 302.253 123.58V123.8C302.253 124.6 302.426 125.307 302.773 125.92C303.133 126.52 303.626 126.993 304.253 127.34C304.893 127.673 305.62 127.84 306.433 127.84C307.073 127.84 307.666 127.727 308.213 127.5C308.773 127.273 309.253 126.927 309.653 126.46L310.453 127.38C309.986 127.94 309.4 128.367 308.693 128.66C308 128.953 307.233 129.1 306.393 129.1ZM316.823 129.1C315.957 129.1 315.137 128.98 314.363 128.74C313.59 128.487 312.983 128.173 312.543 127.8L313.183 126.68C313.61 127 314.157 127.28 314.823 127.52C315.49 127.747 316.19 127.86 316.923 127.86C317.923 127.86 318.643 127.707 319.083 127.4C319.523 127.08 319.743 126.66 319.743 126.14C319.743 125.753 319.617 125.453 319.363 125.24C319.123 125.013 318.803 124.847 318.403 124.74C318.003 124.62 317.557 124.52 317.063 124.44C316.57 124.36 316.077 124.267 315.583 124.16C315.103 124.053 314.663 123.9 314.263 123.7C313.863 123.487 313.537 123.2 313.283 122.84C313.043 122.48 312.923 122 312.923 121.4C312.923 120.827 313.083 120.313 313.403 119.86C313.723 119.407 314.19 119.053 314.803 118.8C315.43 118.533 316.19 118.4 317.083 118.4C317.763 118.4 318.443 118.493 319.123 118.68C319.803 118.853 320.363 119.087 320.803 119.38L320.183 120.52C319.717 120.2 319.217 119.973 318.683 119.84C318.15 119.693 317.617 119.62 317.083 119.62C316.137 119.62 315.437 119.787 314.983 120.12C314.543 120.44 314.323 120.853 314.323 121.36C314.323 121.76 314.443 122.073 314.683 122.3C314.937 122.527 315.263 122.707 315.663 122.84C316.077 122.96 316.523 123.06 317.003 123.14C317.497 123.22 317.983 123.32 318.463 123.44C318.957 123.547 319.403 123.7 319.803 123.9C320.217 124.087 320.543 124.36 320.783 124.72C321.037 125.067 321.163 125.527 321.163 126.1C321.163 126.713 320.99 127.247 320.643 127.7C320.31 128.14 319.817 128.487 319.163 128.74C318.523 128.98 317.743 129.1 316.823 129.1ZM342.123 118.4C342.977 118.4 343.717 118.567 344.343 118.9C344.983 119.22 345.477 119.713 345.823 120.38C346.183 121.047 346.363 121.887 346.363 122.9V129H344.943V123.04C344.943 121.933 344.677 121.1 344.143 120.54C343.623 119.967 342.883 119.68 341.923 119.68C341.203 119.68 340.577 119.833 340.043 120.14C339.523 120.433 339.117 120.867 338.823 121.44C338.543 122 338.403 122.68 338.403 123.48V129H336.983V123.04C336.983 121.933 336.717 121.1 336.183 120.54C335.65 119.967 334.903 119.68 333.943 119.68C333.237 119.68 332.617 119.833 332.083 120.14C331.55 120.433 331.137 120.867 330.843 121.44C330.563 122 330.423 122.68 330.423 123.48V129H329.003V118.5H330.363V121.34L330.143 120.84C330.463 120.08 330.977 119.487 331.683 119.06C332.403 118.62 333.25 118.4 334.223 118.4C335.25 118.4 336.123 118.66 336.843 119.18C337.563 119.687 338.03 120.453 338.243 121.48L337.683 121.26C337.99 120.407 338.53 119.72 339.303 119.2C340.09 118.667 341.03 118.4 342.123 118.4ZM354.494 129.1C353.481 129.1 352.568 128.873 351.754 128.42C350.954 127.953 350.321 127.32 349.854 126.52C349.388 125.707 349.154 124.78 349.154 123.74C349.154 122.687 349.388 121.76 349.854 120.96C350.321 120.16 350.954 119.533 351.754 119.08C352.554 118.627 353.468 118.4 354.494 118.4C355.534 118.4 356.454 118.627 357.254 119.08C358.068 119.533 358.701 120.16 359.154 120.96C359.621 121.76 359.854 122.687 359.854 123.74C359.854 124.78 359.621 125.707 359.154 126.52C358.701 127.32 358.068 127.953 357.254 128.42C356.441 128.873 355.521 129.1 354.494 129.1ZM354.494 127.84C355.254 127.84 355.928 127.673 356.514 127.34C357.101 126.993 357.561 126.513 357.894 125.9C358.241 125.273 358.414 124.553 358.414 123.74C358.414 122.913 358.241 122.193 357.894 121.58C357.561 120.967 357.101 120.493 356.514 120.16C355.928 119.813 355.261 119.64 354.514 119.64C353.768 119.64 353.101 119.813 352.514 120.16C351.928 120.493 351.461 120.967 351.114 121.58C350.768 122.193 350.594 122.913 350.594 123.74C350.594 124.553 350.768 125.273 351.114 125.9C351.461 126.513 351.928 126.993 352.514 127.34C353.101 127.673 353.761 127.84 354.494 127.84ZM362.753 129V114.16H364.173V129H362.753ZM372.585 129.1C371.491 129.1 370.531 128.873 369.705 128.42C368.878 127.953 368.231 127.32 367.765 126.52C367.298 125.707 367.065 124.78 367.065 123.74C367.065 122.7 367.285 121.78 367.725 120.98C368.178 120.18 368.791 119.553 369.565 119.1C370.351 118.633 371.231 118.4 372.205 118.4C373.191 118.4 374.065 118.627 374.825 119.08C375.598 119.52 376.205 120.147 376.645 120.96C377.085 121.76 377.305 122.687 377.305 123.74C377.305 123.807 377.298 123.88 377.285 123.96C377.285 124.027 377.285 124.1 377.285 124.18H368.145V123.12H376.525L375.965 123.54C375.965 122.78 375.798 122.107 375.465 121.52C375.145 120.92 374.705 120.453 374.145 120.12C373.585 119.787 372.938 119.62 372.205 119.62C371.485 119.62 370.838 119.787 370.265 120.12C369.691 120.453 369.245 120.92 368.925 121.52C368.605 122.12 368.445 122.807 368.445 123.58V123.8C368.445 124.6 368.618 125.307 368.965 125.92C369.325 126.52 369.818 126.993 370.445 127.34C371.085 127.673 371.811 127.84 372.625 127.84C373.265 127.84 373.858 127.727 374.405 127.5C374.965 127.273 375.445 126.927 375.845 126.46L376.645 127.38C376.178 127.94 375.591 128.367 374.885 128.66C374.191 128.953 373.425 129.1 372.585 129.1ZM384.555 129.1C383.515 129.1 382.582 128.873 381.755 128.42C380.942 127.953 380.302 127.32 379.835 126.52C379.368 125.707 379.135 124.78 379.135 123.74C379.135 122.687 379.368 121.76 379.835 120.96C380.302 120.16 380.942 119.533 381.755 119.08C382.582 118.627 383.515 118.4 384.555 118.4C385.448 118.4 386.255 118.573 386.975 118.92C387.695 119.267 388.262 119.787 388.675 120.48L387.615 121.2C387.255 120.667 386.808 120.273 386.275 120.02C385.742 119.767 385.162 119.64 384.535 119.64C383.788 119.64 383.115 119.813 382.515 120.16C381.915 120.493 381.442 120.967 381.095 121.58C380.748 122.193 380.575 122.913 380.575 123.74C380.575 124.567 380.748 125.287 381.095 125.9C381.442 126.513 381.915 126.993 382.515 127.34C383.115 127.673 383.788 127.84 384.535 127.84C385.162 127.84 385.742 127.713 386.275 127.46C386.808 127.207 387.255 126.82 387.615 126.3L388.675 127.02C388.262 127.7 387.695 128.22 386.975 128.58C386.255 128.927 385.448 129.1 384.555 129.1ZM395.804 129.1C394.911 129.1 394.131 128.933 393.464 128.6C392.798 128.267 392.278 127.767 391.904 127.1C391.544 126.433 391.364 125.6 391.364 124.6V118.5H392.784V124.44C392.784 125.56 393.058 126.407 393.604 126.98C394.164 127.54 394.944 127.82 395.944 127.82C396.678 127.82 397.311 127.673 397.844 127.38C398.391 127.073 398.804 126.633 399.084 126.06C399.378 125.487 399.524 124.8 399.524 124V118.5H400.944V129H399.584V126.12L399.804 126.64C399.471 127.413 398.951 128.02 398.244 128.46C397.551 128.887 396.738 129.1 395.804 129.1ZM404.902 129V114.16H406.322V129H404.902ZM416.853 129V126.68L416.793 126.3V122.42C416.793 121.527 416.54 120.84 416.033 120.36C415.54 119.88 414.8 119.64 413.813 119.64C413.133 119.64 412.486 119.753 411.873 119.98C411.26 120.207 410.74 120.507 410.313 120.88L409.673 119.82C410.206 119.367 410.846 119.02 411.593 118.78C412.34 118.527 413.126 118.4 413.953 118.4C415.313 118.4 416.36 118.74 417.093 119.42C417.84 120.087 418.213 121.107 418.213 122.48V129H416.853ZM413.233 129.1C412.446 129.1 411.76 128.973 411.173 128.72C410.6 128.453 410.16 128.093 409.853 127.64C409.546 127.173 409.393 126.64 409.393 126.04C409.393 125.493 409.52 125 409.773 124.56C410.04 124.107 410.466 123.747 411.053 123.48C411.653 123.2 412.453 123.06 413.453 123.06H417.073V124.12H413.493C412.48 124.12 411.773 124.3 411.373 124.66C410.986 125.02 410.793 125.467 410.793 126C410.793 126.6 411.026 127.08 411.493 127.44C411.96 127.8 412.613 127.98 413.453 127.98C414.253 127.98 414.94 127.8 415.513 127.44C416.1 127.067 416.526 126.533 416.793 125.84L417.113 126.82C416.846 127.513 416.38 128.067 415.713 128.48C415.06 128.893 414.233 129.1 413.233 129.1ZM422.07 129V118.5H423.43V121.36L423.29 120.86C423.583 120.06 424.077 119.453 424.77 119.04C425.463 118.613 426.323 118.4 427.35 118.4V119.78C427.297 119.78 427.243 119.78 427.19 119.78C427.137 119.767 427.083 119.76 427.03 119.76C425.923 119.76 425.057 120.1 424.43 120.78C423.803 121.447 423.49 122.4 423.49 123.64V129H422.07ZM434.303 129.1C433.21 129.1 432.25 128.873 431.423 128.42C430.597 127.953 429.95 127.32 429.483 126.52C429.017 125.707 428.783 124.78 428.783 123.74C428.783 122.7 429.003 121.78 429.443 120.98C429.897 120.18 430.51 119.553 431.283 119.1C432.07 118.633 432.95 118.4 433.923 118.4C434.91 118.4 435.783 118.627 436.543 119.08C437.317 119.52 437.923 120.147 438.363 120.96C438.803 121.76 439.023 122.687 439.023 123.74C439.023 123.807 439.017 123.88 439.003 123.96C439.003 124.027 439.003 124.1 439.003 124.18H429.863V123.12H438.243L437.683 123.54C437.683 122.78 437.517 122.107 437.183 121.52C436.863 120.92 436.423 120.453 435.863 120.12C435.303 119.787 434.657 119.62 433.923 119.62C433.203 119.62 432.557 119.787 431.983 120.12C431.41 120.453 430.963 120.92 430.643 121.52C430.323 122.12 430.163 122.807 430.163 123.58V123.8C430.163 124.6 430.337 125.307 430.683 125.92C431.043 126.52 431.537 126.993 432.163 127.34C432.803 127.673 433.53 127.84 434.343 127.84C434.983 127.84 435.577 127.727 436.123 127.5C436.683 127.273 437.163 126.927 437.563 126.46L438.363 127.38C437.897 127.94 437.31 128.367 436.603 128.66C435.91 128.953 435.143 129.1 434.303 129.1ZM444.734 129.1C443.867 129.1 443.047 128.98 442.274 128.74C441.5 128.487 440.894 128.173 440.454 127.8L441.094 126.68C441.52 127 442.067 127.28 442.734 127.52C443.4 127.747 444.1 127.86 444.834 127.86C445.834 127.86 446.554 127.707 446.994 127.4C447.434 127.08 447.654 126.66 447.654 126.14C447.654 125.753 447.527 125.453 447.274 125.24C447.034 125.013 446.714 124.847 446.314 124.74C445.914 124.62 445.467 124.52 444.974 124.44C444.48 124.36 443.987 124.267 443.494 124.16C443.014 124.053 442.574 123.9 442.174 123.7C441.774 123.487 441.447 123.2 441.194 122.84C440.954 122.48 440.834 122 440.834 121.4C440.834 120.827 440.994 120.313 441.314 119.86C441.634 119.407 442.1 119.053 442.714 118.8C443.34 118.533 444.1 118.4 444.994 118.4C445.674 118.4 446.354 118.493 447.034 118.68C447.714 118.853 448.274 119.087 448.714 119.38L448.094 120.52C447.627 120.2 447.127 119.973 446.594 119.84C446.06 119.693 445.527 119.62 444.994 119.62C444.047 119.62 443.347 119.787 442.894 120.12C442.454 120.44 442.234 120.853 442.234 121.36C442.234 121.76 442.354 122.073 442.594 122.3C442.847 122.527 443.174 122.707 443.574 122.84C443.987 122.96 444.434 123.06 444.914 123.14C445.407 123.22 445.894 123.32 446.374 123.44C446.867 123.547 447.314 123.7 447.714 123.9C448.127 124.087 448.454 124.36 448.694 124.72C448.947 125.067 449.074 125.527 449.074 126.1C449.074 126.713 448.9 127.247 448.554 127.7C448.22 128.14 447.727 128.487 447.074 128.74C446.434 128.98 445.654 129.1 444.734 129.1ZM459.734 129.1C458.867 129.1 458.047 128.98 457.274 128.74C456.5 128.487 455.894 128.173 455.454 127.8L456.094 126.68C456.52 127 457.067 127.28 457.734 127.52C458.4 127.747 459.1 127.86 459.834 127.86C460.834 127.86 461.554 127.707 461.994 127.4C462.434 127.08 462.654 126.66 462.654 126.14C462.654 125.753 462.527 125.453 462.274 125.24C462.034 125.013 461.714 124.847 461.314 124.74C460.914 124.62 460.467 124.52 459.974 124.44C459.48 124.36 458.987 124.267 458.494 124.16C458.014 124.053 457.574 123.9 457.174 123.7C456.774 123.487 456.447 123.2 456.194 122.84C455.954 122.48 455.834 122 455.834 121.4C455.834 120.827 455.994 120.313 456.314 119.86C456.634 119.407 457.1 119.053 457.714 118.8C458.34 118.533 459.1 118.4 459.994 118.4C460.674 118.4 461.354 118.493 462.034 118.68C462.714 118.853 463.274 119.087 463.714 119.38L463.094 120.52C462.627 120.2 462.127 119.973 461.594 119.84C461.06 119.693 460.527 119.62 459.994 119.62C459.047 119.62 458.347 119.787 457.894 120.12C457.454 120.44 457.234 120.853 457.234 121.36C457.234 121.76 457.354 122.073 457.594 122.3C457.847 122.527 458.174 122.707 458.574 122.84C458.987 122.96 459.434 123.06 459.914 123.14C460.407 123.22 460.894 123.32 461.374 123.44C461.867 123.547 462.314 123.7 462.714 123.9C463.127 124.087 463.454 124.36 463.694 124.72C463.947 125.067 464.074 125.527 464.074 126.1C464.074 126.713 463.9 127.247 463.554 127.7C463.22 128.14 462.727 128.487 462.074 128.74C461.434 128.98 460.654 129.1 459.734 129.1ZM471.139 129.1C470.046 129.1 469.086 128.873 468.259 128.42C467.433 127.953 466.786 127.32 466.319 126.52C465.853 125.707 465.619 124.78 465.619 123.74C465.619 122.7 465.839 121.78 466.279 120.98C466.733 120.18 467.346 119.553 468.119 119.1C468.906 118.633 469.786 118.4 470.759 118.4C471.746 118.4 472.619 118.627 473.379 119.08C474.153 119.52 474.759 120.147 475.199 120.96C475.639 121.76 475.859 122.687 475.859 123.74C475.859 123.807 475.853 123.88 475.839 123.96C475.839 124.027 475.839 124.1 475.839 124.18H466.699V123.12H475.079L474.519 123.54C474.519 122.78 474.353 122.107 474.019 121.52C473.699 120.92 473.259 120.453 472.699 120.12C472.139 119.787 471.493 119.62 470.759 119.62C470.039 119.62 469.393 119.787 468.819 120.12C468.246 120.453 467.799 120.92 467.479 121.52C467.159 122.12 466.999 122.807 466.999 123.58V123.8C466.999 124.6 467.173 125.307 467.519 125.92C467.879 126.52 468.373 126.993 468.999 127.34C469.639 127.673 470.366 127.84 471.179 127.84C471.819 127.84 472.413 127.727 472.959 127.5C473.519 127.273 473.999 126.927 474.399 126.46L475.199 127.38C474.733 127.94 474.146 128.367 473.439 128.66C472.746 128.953 471.979 129.1 471.139 129.1ZM147.8 153.1C146.933 153.1 146.113 152.98 145.34 152.74C144.567 152.487 143.96 152.173 143.52 151.8L144.16 150.68C144.587 151 145.133 151.28 145.8 151.52C146.467 151.747 147.167 151.86 147.9 151.86C148.9 151.86 149.62 151.707 150.06 151.4C150.5 151.08 150.72 150.66 150.72 150.14C150.72 149.753 150.593 149.453 150.34 149.24C150.1 149.013 149.78 148.847 149.38 148.74C148.98 148.62 148.533 148.52 148.04 148.44C147.547 148.36 147.053 148.267 146.56 148.16C146.08 148.053 145.64 147.9 145.24 147.7C144.84 147.487 144.513 147.2 144.26 146.84C144.02 146.48 143.9 146 143.9 145.4C143.9 144.827 144.06 144.313 144.38 143.86C144.7 143.407 145.167 143.053 145.78 142.8C146.407 142.533 147.167 142.4 148.06 142.4C148.74 142.4 149.42 142.493 150.1 142.68C150.78 142.853 151.34 143.087 151.78 143.38L151.16 144.52C150.693 144.2 150.193 143.973 149.66 143.84C149.127 143.693 148.593 143.62 148.06 143.62C147.113 143.62 146.413 143.787 145.96 144.12C145.52 144.44 145.3 144.853 145.3 145.36C145.3 145.76 145.42 146.073 145.66 146.3C145.913 146.527 146.24 146.707 146.64 146.84C147.053 146.96 147.5 147.06 147.98 147.14C148.473 147.22 148.96 147.32 149.44 147.44C149.933 147.547 150.38 147.7 150.78 147.9C151.193 148.087 151.52 148.36 151.76 148.72C152.013 149.067 152.14 149.527 152.14 150.1C152.14 150.713 151.967 151.247 151.62 151.7C151.287 152.14 150.793 152.487 150.14 152.74C149.5 152.98 148.72 153.1 147.8 153.1ZM159.206 153.1C158.112 153.1 157.152 152.873 156.326 152.42C155.499 151.953 154.852 151.32 154.386 150.52C153.919 149.707 153.686 148.78 153.686 147.74C153.686 146.7 153.906 145.78 154.346 144.98C154.799 144.18 155.412 143.553 156.186 143.1C156.972 142.633 157.852 142.4 158.826 142.4C159.812 142.4 160.686 142.627 161.446 143.08C162.219 143.52 162.826 144.147 163.266 144.96C163.706 145.76 163.926 146.687 163.926 147.74C163.926 147.807 163.919 147.88 163.906 147.96C163.906 148.027 163.906 148.1 163.906 148.18H154.766V147.12H163.146L162.586 147.54C162.586 146.78 162.419 146.107 162.086 145.52C161.766 144.92 161.326 144.453 160.766 144.12C160.206 143.787 159.559 143.62 158.826 143.62C158.106 143.62 157.459 143.787 156.886 144.12C156.312 144.453 155.866 144.92 155.546 145.52C155.226 146.12 155.066 146.807 155.066 147.58V147.8C155.066 148.6 155.239 149.307 155.586 149.92C155.946 150.52 156.439 150.993 157.066 151.34C157.706 151.673 158.432 151.84 159.246 151.84C159.886 151.84 160.479 151.727 161.026 151.5C161.586 151.273 162.066 150.927 162.466 150.46L163.266 151.38C162.799 151.94 162.212 152.367 161.506 152.66C160.812 152.953 160.046 153.1 159.206 153.1ZM172.236 153.1C171.329 153.1 170.509 152.893 169.776 152.48C169.043 152.053 168.456 151.447 168.016 150.66C167.589 149.86 167.376 148.887 167.376 147.74C167.376 146.593 167.589 145.627 168.016 144.84C168.443 144.04 169.023 143.433 169.756 143.02C170.489 142.607 171.316 142.4 172.236 142.4C173.236 142.4 174.129 142.627 174.916 143.08C175.716 143.52 176.343 144.147 176.796 144.96C177.249 145.76 177.476 146.687 177.476 147.74C177.476 148.807 177.249 149.74 176.796 150.54C176.343 151.34 175.716 151.967 174.916 152.42C174.129 152.873 173.236 153.1 172.236 153.1ZM166.816 156.88V142.5H168.176V145.66L168.036 147.76L168.236 149.88V156.88H166.816ZM172.136 151.84C172.883 151.84 173.549 151.673 174.136 151.34C174.723 150.993 175.189 150.513 175.536 149.9C175.883 149.273 176.056 148.553 176.056 147.74C176.056 146.927 175.883 146.213 175.536 145.6C175.189 144.987 174.723 144.507 174.136 144.16C173.549 143.813 172.883 143.64 172.136 143.64C171.389 143.64 170.716 143.813 170.116 144.16C169.529 144.507 169.063 144.987 168.716 145.6C168.383 146.213 168.216 146.927 168.216 147.74C168.216 148.553 168.383 149.273 168.716 149.9C169.063 150.513 169.529 150.993 170.116 151.34C170.716 151.673 171.389 151.84 172.136 151.84ZM186.892 153V150.68L186.832 150.3V146.42C186.832 145.527 186.579 144.84 186.072 144.36C185.579 143.88 184.839 143.64 183.852 143.64C183.172 143.64 182.525 143.753 181.912 143.98C181.299 144.207 180.779 144.507 180.352 144.88L179.712 143.82C180.245 143.367 180.885 143.02 181.632 142.78C182.379 142.527 183.165 142.4 183.992 142.4C185.352 142.4 186.399 142.74 187.132 143.42C187.879 144.087 188.252 145.107 188.252 146.48V153H186.892ZM183.272 153.1C182.485 153.1 181.799 152.973 181.212 152.72C180.639 152.453 180.199 152.093 179.892 151.64C179.585 151.173 179.432 150.64 179.432 150.04C179.432 149.493 179.559 149 179.812 148.56C180.079 148.107 180.505 147.747 181.092 147.48C181.692 147.2 182.492 147.06 183.492 147.06H187.112V148.12H183.532C182.519 148.12 181.812 148.3 181.412 148.66C181.025 149.02 180.832 149.467 180.832 150C180.832 150.6 181.065 151.08 181.532 151.44C181.999 151.8 182.652 151.98 183.492 151.98C184.292 151.98 184.979 151.8 185.552 151.44C186.139 151.067 186.565 150.533 186.832 149.84L187.152 150.82C186.885 151.513 186.419 152.067 185.752 152.48C185.099 152.893 184.272 153.1 183.272 153.1ZM192.109 153V142.5H193.469V145.36L193.329 144.86C193.622 144.06 194.116 143.453 194.809 143.04C195.502 142.613 196.362 142.4 197.389 142.4V143.78C197.336 143.78 197.282 143.78 197.229 143.78C197.176 143.767 197.122 143.76 197.069 143.76C195.962 143.76 195.096 144.1 194.469 144.78C193.842 145.447 193.529 146.4 193.529 147.64V153H192.109ZM205.779 153V150.68L205.719 150.3V146.42C205.719 145.527 205.465 144.84 204.959 144.36C204.465 143.88 203.725 143.64 202.739 143.64C202.059 143.64 201.412 143.753 200.799 143.98C200.185 144.207 199.665 144.507 199.239 144.88L198.599 143.82C199.132 143.367 199.772 143.02 200.519 142.78C201.265 142.527 202.052 142.4 202.879 142.4C204.239 142.4 205.285 142.74 206.019 143.42C206.765 144.087 207.139 145.107 207.139 146.48V153H205.779ZM202.159 153.1C201.372 153.1 200.685 152.973 200.099 152.72C199.525 152.453 199.085 152.093 198.779 151.64C198.472 151.173 198.319 150.64 198.319 150.04C198.319 149.493 198.445 149 198.699 148.56C198.965 148.107 199.392 147.747 199.979 147.48C200.579 147.2 201.379 147.06 202.379 147.06H205.999V148.12H202.419C201.405 148.12 200.699 148.3 200.299 148.66C199.912 149.02 199.719 149.467 199.719 150C199.719 150.6 199.952 151.08 200.419 151.44C200.885 151.8 201.539 151.98 202.379 151.98C203.179 151.98 203.865 151.8 204.439 151.44C205.025 151.067 205.452 150.533 205.719 149.84L206.039 150.82C205.772 151.513 205.305 152.067 204.639 152.48C203.985 152.893 203.159 153.1 202.159 153.1ZM216.356 142.4C217.209 142.4 217.956 142.567 218.596 142.9C219.249 143.22 219.756 143.713 220.116 144.38C220.489 145.047 220.676 145.887 220.676 146.9V153H219.256V147.04C219.256 145.933 218.976 145.1 218.416 144.54C217.869 143.967 217.096 143.68 216.096 143.68C215.349 143.68 214.696 143.833 214.136 144.14C213.589 144.433 213.162 144.867 212.856 145.44C212.562 146 212.416 146.68 212.416 147.48V153H210.996V142.5H212.356V145.38L212.136 144.84C212.469 144.08 213.002 143.487 213.736 143.06C214.469 142.62 215.342 142.4 216.356 142.4ZM242.866 142.4C243.719 142.4 244.459 142.567 245.086 142.9C245.726 143.22 246.219 143.713 246.566 144.38C246.926 145.047 247.106 145.887 247.106 146.9V153H245.686V147.04C245.686 145.933 245.419 145.1 244.886 144.54C244.366 143.967 243.626 143.68 242.666 143.68C241.946 143.68 241.319 143.833 240.786 144.14C240.266 144.433 239.859 144.867 239.566 145.44C239.286 146 239.146 146.68 239.146 147.48V153H237.726V147.04C237.726 145.933 237.459 145.1 236.926 144.54C236.392 143.967 235.646 143.68 234.686 143.68C233.979 143.68 233.359 143.833 232.826 144.14C232.292 144.433 231.879 144.867 231.586 145.44C231.306 146 231.166 146.68 231.166 147.48V153H229.746V142.5H231.106V145.34L230.886 144.84C231.206 144.08 231.719 143.487 232.426 143.06C233.146 142.62 233.992 142.4 234.966 142.4C235.992 142.4 236.866 142.66 237.586 143.18C238.306 143.687 238.772 144.453 238.986 145.48L238.426 145.26C238.732 144.407 239.272 143.72 240.046 143.2C240.832 142.667 241.772 142.4 242.866 142.4ZM255.417 153.1C254.323 153.1 253.363 152.873 252.537 152.42C251.71 151.953 251.063 151.32 250.597 150.52C250.13 149.707 249.897 148.78 249.897 147.74C249.897 146.7 250.117 145.78 250.557 144.98C251.01 144.18 251.623 143.553 252.397 143.1C253.183 142.633 254.063 142.4 255.037 142.4C256.023 142.4 256.897 142.627 257.657 143.08C258.43 143.52 259.037 144.147 259.477 144.96C259.917 145.76 260.137 146.687 260.137 147.74C260.137 147.807 260.13 147.88 260.117 147.96C260.117 148.027 260.117 148.1 260.117 148.18H250.977V147.12H259.357L258.797 147.54C258.797 146.78 258.63 146.107 258.297 145.52C257.977 144.92 257.537 144.453 256.977 144.12C256.417 143.787 255.77 143.62 255.037 143.62C254.317 143.62 253.67 143.787 253.097 144.12C252.523 144.453 252.077 144.92 251.757 145.52C251.437 146.12 251.277 146.807 251.277 147.58V147.8C251.277 148.6 251.45 149.307 251.797 149.92C252.157 150.52 252.65 150.993 253.277 151.34C253.917 151.673 254.643 151.84 255.457 151.84C256.097 151.84 256.69 151.727 257.237 151.5C257.797 151.273 258.277 150.927 258.677 150.46L259.477 151.38C259.01 151.94 258.423 152.367 257.717 152.66C257.023 152.953 256.257 153.1 255.417 153.1ZM267.207 153.1C266.207 153.1 265.307 152.873 264.507 152.42C263.72 151.967 263.1 151.34 262.647 150.54C262.194 149.727 261.967 148.793 261.967 147.74C261.967 146.673 262.194 145.74 262.647 144.94C263.1 144.14 263.72 143.52 264.507 143.08C265.307 142.627 266.207 142.4 267.207 142.4C268.127 142.4 268.947 142.607 269.667 143.02C270.4 143.433 270.98 144.04 271.407 144.84C271.847 145.627 272.067 146.593 272.067 147.74C272.067 148.873 271.854 149.84 271.427 150.64C271 151.44 270.42 152.053 269.687 152.48C268.967 152.893 268.14 153.1 267.207 153.1ZM267.307 151.84C268.054 151.84 268.72 151.673 269.307 151.34C269.907 150.993 270.374 150.513 270.707 149.9C271.054 149.273 271.227 148.553 271.227 147.74C271.227 146.913 271.054 146.193 270.707 145.58C270.374 144.967 269.907 144.493 269.307 144.16C268.72 143.813 268.054 143.64 267.307 143.64C266.574 143.64 265.914 143.813 265.327 144.16C264.74 144.493 264.274 144.967 263.927 145.58C263.58 146.193 263.407 146.913 263.407 147.74C263.407 148.553 263.58 149.273 263.927 149.9C264.274 150.513 264.74 150.993 265.327 151.34C265.914 151.673 266.574 151.84 267.307 151.84ZM271.267 153V149.84L271.407 147.72L271.207 145.6V138.16H272.627V153H271.267ZM276.582 153V142.5H278.002V153H276.582ZM277.302 140.18C277.008 140.18 276.762 140.08 276.562 139.88C276.362 139.68 276.262 139.44 276.262 139.16C276.262 138.88 276.362 138.647 276.562 138.46C276.762 138.26 277.008 138.16 277.302 138.16C277.595 138.16 277.842 138.253 278.042 138.44C278.242 138.627 278.342 138.86 278.342 139.14C278.342 139.433 278.242 139.68 278.042 139.88C277.855 140.08 277.608 140.18 277.302 140.18ZM288.533 153V150.68L288.473 150.3V146.42C288.473 145.527 288.219 144.84 287.713 144.36C287.219 143.88 286.479 143.64 285.493 143.64C284.813 143.64 284.166 143.753 283.553 143.98C282.939 144.207 282.419 144.507 281.993 144.88L281.353 143.82C281.886 143.367 282.526 143.02 283.273 142.78C284.019 142.527 284.806 142.4 285.633 142.4C286.993 142.4 288.039 142.74 288.773 143.42C289.519 144.087 289.893 145.107 289.893 146.48V153H288.533ZM284.913 153.1C284.126 153.1 283.439 152.973 282.853 152.72C282.279 152.453 281.839 152.093 281.533 151.64C281.226 151.173 281.073 150.64 281.073 150.04C281.073 149.493 281.199 149 281.453 148.56C281.719 148.107 282.146 147.747 282.733 147.48C283.333 147.2 284.133 147.06 285.133 147.06H288.753V148.12H285.173C284.159 148.12 283.453 148.3 283.053 148.66C282.666 149.02 282.473 149.467 282.473 150C282.473 150.6 282.706 151.08 283.173 151.44C283.639 151.8 284.293 151.98 285.133 151.98C285.933 151.98 286.619 151.8 287.193 151.44C287.779 151.067 288.206 150.533 288.473 149.84L288.793 150.82C288.526 151.513 288.059 152.067 287.393 152.48C286.739 152.893 285.913 153.1 284.913 153.1ZM299.11 142.4C299.963 142.4 300.71 142.567 301.35 142.9C302.003 143.22 302.51 143.713 302.87 144.38C303.243 145.047 303.43 145.887 303.43 146.9V153H302.01V147.04C302.01 145.933 301.73 145.1 301.17 144.54C300.623 143.967 299.85 143.68 298.85 143.68C298.103 143.68 297.45 143.833 296.89 144.14C296.343 144.433 295.916 144.867 295.61 145.44C295.316 146 295.17 146.68 295.17 147.48V153H293.75V142.5H295.11V145.38L294.89 144.84C295.223 144.08 295.756 143.487 296.49 143.06C297.223 142.62 298.096 142.4 299.11 142.4ZM310.585 153.1C309.598 153.1 308.838 152.833 308.305 152.3C307.772 151.767 307.505 151.013 307.505 150.04V140.18H308.925V149.96C308.925 150.573 309.078 151.047 309.385 151.38C309.705 151.713 310.158 151.88 310.745 151.88C311.372 151.88 311.892 151.7 312.305 151.34L312.805 152.36C312.525 152.613 312.185 152.8 311.785 152.92C311.398 153.04 310.998 153.1 310.585 153.1ZM305.625 143.68V142.5H312.125V143.68H305.625ZM319.479 153.1C318.386 153.1 317.426 152.873 316.599 152.42C315.772 151.953 315.126 151.32 314.659 150.52C314.192 149.707 313.959 148.78 313.959 147.74C313.959 146.7 314.179 145.78 314.619 144.98C315.072 144.18 315.686 143.553 316.459 143.1C317.246 142.633 318.126 142.4 319.099 142.4C320.086 142.4 320.959 142.627 321.719 143.08C322.492 143.52 323.099 144.147 323.539 144.96C323.979 145.76 324.199 146.687 324.199 147.74C324.199 147.807 324.192 147.88 324.179 147.96C324.179 148.027 324.179 148.1 324.179 148.18H315.039V147.12H323.419L322.859 147.54C322.859 146.78 322.692 146.107 322.359 145.52C322.039 144.92 321.599 144.453 321.039 144.12C320.479 143.787 319.832 143.62 319.099 143.62C318.379 143.62 317.732 143.787 317.159 144.12C316.586 144.453 316.139 144.92 315.819 145.52C315.499 146.12 315.339 146.807 315.339 147.58V147.8C315.339 148.6 315.512 149.307 315.859 149.92C316.219 150.52 316.712 150.993 317.339 151.34C317.979 151.673 318.706 151.84 319.519 151.84C320.159 151.84 320.752 151.727 321.299 151.5C321.859 151.273 322.339 150.927 322.739 150.46L323.539 151.38C323.072 151.94 322.486 152.367 321.779 152.66C321.086 152.953 320.319 153.1 319.479 153.1ZM336.784 153.1C335.69 153.1 334.73 152.873 333.904 152.42C333.077 151.953 332.43 151.32 331.964 150.52C331.497 149.707 331.264 148.78 331.264 147.74C331.264 146.7 331.484 145.78 331.924 144.98C332.377 144.18 332.99 143.553 333.764 143.1C334.55 142.633 335.43 142.4 336.404 142.4C337.39 142.4 338.264 142.627 339.024 143.08C339.797 143.52 340.404 144.147 340.844 144.96C341.284 145.76 341.504 146.687 341.504 147.74C341.504 147.807 341.497 147.88 341.484 147.96C341.484 148.027 341.484 148.1 341.484 148.18H332.344V147.12H340.724L340.164 147.54C340.164 146.78 339.997 146.107 339.664 145.52C339.344 144.92 338.904 144.453 338.344 144.12C337.784 143.787 337.137 143.62 336.404 143.62C335.684 143.62 335.037 143.787 334.464 144.12C333.89 144.453 333.444 144.92 333.124 145.52C332.804 146.12 332.644 146.807 332.644 147.58V147.8C332.644 148.6 332.817 149.307 333.164 149.92C333.524 150.52 334.017 150.993 334.644 151.34C335.284 151.673 336.01 151.84 336.824 151.84C337.464 151.84 338.057 151.727 338.604 151.5C339.164 151.273 339.644 150.927 340.044 150.46L340.844 151.38C340.377 151.94 339.79 152.367 339.084 152.66C338.39 152.953 337.624 153.1 336.784 153.1ZM344.394 153V138.16H345.814V153H344.394ZM360.42 153.1C359.513 153.1 358.693 152.893 357.96 152.48C357.226 152.053 356.64 151.447 356.2 150.66C355.773 149.86 355.56 148.887 355.56 147.74C355.56 146.593 355.773 145.627 356.2 144.84C356.626 144.04 357.206 143.433 357.94 143.02C358.673 142.607 359.5 142.4 360.42 142.4C361.42 142.4 362.313 142.627 363.1 143.08C363.9 143.52 364.526 144.147 364.98 144.96C365.433 145.76 365.66 146.687 365.66 147.74C365.66 148.807 365.433 149.74 364.98 150.54C364.526 151.34 363.9 151.967 363.1 152.42C362.313 152.873 361.42 153.1 360.42 153.1ZM355 156.88V142.5H356.36V145.66L356.22 147.76L356.42 149.88V156.88H355ZM360.32 151.84C361.066 151.84 361.733 151.673 362.32 151.34C362.906 150.993 363.373 150.513 363.72 149.9C364.066 149.273 364.24 148.553 364.24 147.74C364.24 146.927 364.066 146.213 363.72 145.6C363.373 144.987 362.906 144.507 362.32 144.16C361.733 143.813 361.066 143.64 360.32 143.64C359.573 143.64 358.9 143.813 358.3 144.16C357.713 144.507 357.246 144.987 356.9 145.6C356.566 146.213 356.4 146.927 356.4 147.74C356.4 148.553 356.566 149.273 356.9 149.9C357.246 150.513 357.713 150.993 358.3 151.34C358.9 151.673 359.573 151.84 360.32 151.84ZM368.554 153V142.5H369.914V145.36L369.774 144.86C370.068 144.06 370.561 143.453 371.254 143.04C371.948 142.613 372.808 142.4 373.834 142.4V143.78C373.781 143.78 373.728 143.78 373.674 143.78C373.621 143.767 373.568 143.76 373.514 143.76C372.408 143.76 371.541 144.1 370.914 144.78C370.288 145.447 369.974 146.4 369.974 147.64V153H368.554ZM380.608 153.1C379.594 153.1 378.681 152.873 377.868 152.42C377.068 151.953 376.434 151.32 375.968 150.52C375.501 149.707 375.268 148.78 375.268 147.74C375.268 146.687 375.501 145.76 375.968 144.96C376.434 144.16 377.068 143.533 377.868 143.08C378.668 142.627 379.581 142.4 380.608 142.4C381.648 142.4 382.568 142.627 383.368 143.08C384.181 143.533 384.814 144.16 385.268 144.96C385.734 145.76 385.968 146.687 385.968 147.74C385.968 148.78 385.734 149.707 385.268 150.52C384.814 151.32 384.181 151.953 383.368 152.42C382.554 152.873 381.634 153.1 380.608 153.1ZM380.608 151.84C381.368 151.84 382.041 151.673 382.628 151.34C383.214 150.993 383.674 150.513 384.008 149.9C384.354 149.273 384.528 148.553 384.528 147.74C384.528 146.913 384.354 146.193 384.008 145.58C383.674 144.967 383.214 144.493 382.628 144.16C382.041 143.813 381.374 143.64 380.628 143.64C379.881 143.64 379.214 143.813 378.628 144.16C378.041 144.493 377.574 144.967 377.228 145.58C376.881 146.193 376.708 146.913 376.708 147.74C376.708 148.553 376.881 149.273 377.228 149.9C377.574 150.513 378.041 150.993 378.628 151.34C379.214 151.673 379.874 151.84 380.608 151.84ZM393.227 153.1C392.187 153.1 391.253 152.873 390.427 152.42C389.613 151.953 388.973 151.32 388.507 150.52C388.04 149.707 387.807 148.78 387.807 147.74C387.807 146.687 388.04 145.76 388.507 144.96C388.973 144.16 389.613 143.533 390.427 143.08C391.253 142.627 392.187 142.4 393.227 142.4C394.12 142.4 394.927 142.573 395.647 142.92C396.367 143.267 396.933 143.787 397.347 144.48L396.287 145.2C395.927 144.667 395.48 144.273 394.947 144.02C394.413 143.767 393.833 143.64 393.207 143.64C392.46 143.64 391.787 143.813 391.187 144.16C390.587 144.493 390.113 144.967 389.767 145.58C389.42 146.193 389.247 146.913 389.247 147.74C389.247 148.567 389.42 149.287 389.767 149.9C390.113 150.513 390.587 150.993 391.187 151.34C391.787 151.673 392.46 151.84 393.207 151.84C393.833 151.84 394.413 151.713 394.947 151.46C395.48 151.207 395.927 150.82 396.287 150.3L397.347 151.02C396.933 151.7 396.367 152.22 395.647 152.58C394.927 152.927 394.12 153.1 393.227 153.1ZM404.42 153.1C403.327 153.1 402.367 152.873 401.54 152.42C400.714 151.953 400.067 151.32 399.6 150.52C399.134 149.707 398.9 148.78 398.9 147.74C398.9 146.7 399.12 145.78 399.56 144.98C400.014 144.18 400.627 143.553 401.4 143.1C402.187 142.633 403.067 142.4 404.04 142.4C405.027 142.4 405.9 142.627 406.66 143.08C407.434 143.52 408.04 144.147 408.48 144.96C408.92 145.76 409.14 146.687 409.14 147.74C409.14 147.807 409.134 147.88 409.12 147.96C409.12 148.027 409.12 148.1 409.12 148.18H399.98V147.12H408.36L407.8 147.54C407.8 146.78 407.634 146.107 407.3 145.52C406.98 144.92 406.54 144.453 405.98 144.12C405.42 143.787 404.774 143.62 404.04 143.62C403.32 143.62 402.674 143.787 402.1 144.12C401.527 144.453 401.08 144.92 400.76 145.52C400.44 146.12 400.28 146.807 400.28 147.58V147.8C400.28 148.6 400.454 149.307 400.8 149.92C401.16 150.52 401.654 150.993 402.28 151.34C402.92 151.673 403.647 151.84 404.46 151.84C405.1 151.84 405.694 151.727 406.24 151.5C406.8 151.273 407.28 150.927 407.68 150.46L408.48 151.38C408.014 151.94 407.427 152.367 406.72 152.66C406.027 152.953 405.26 153.1 404.42 153.1ZM414.851 153.1C413.984 153.1 413.164 152.98 412.391 152.74C411.617 152.487 411.011 152.173 410.571 151.8L411.211 150.68C411.637 151 412.184 151.28 412.851 151.52C413.517 151.747 414.217 151.86 414.951 151.86C415.951 151.86 416.671 151.707 417.111 151.4C417.551 151.08 417.771 150.66 417.771 150.14C417.771 149.753 417.644 149.453 417.391 149.24C417.151 149.013 416.831 148.847 416.431 148.74C416.031 148.62 415.584 148.52 415.091 148.44C414.597 148.36 414.104 148.267 413.611 148.16C413.131 148.053 412.691 147.9 412.291 147.7C411.891 147.487 411.564 147.2 411.311 146.84C411.071 146.48 410.951 146 410.951 145.4C410.951 144.827 411.111 144.313 411.431 143.86C411.751 143.407 412.217 143.053 412.831 142.8C413.457 142.533 414.217 142.4 415.111 142.4C415.791 142.4 416.471 142.493 417.151 142.68C417.831 142.853 418.391 143.087 418.831 143.38L418.211 144.52C417.744 144.2 417.244 143.973 416.711 143.84C416.177 143.693 415.644 143.62 415.111 143.62C414.164 143.62 413.464 143.787 413.011 144.12C412.571 144.44 412.351 144.853 412.351 145.36C412.351 145.76 412.471 146.073 412.711 146.3C412.964 146.527 413.291 146.707 413.691 146.84C414.104 146.96 414.551 147.06 415.031 147.14C415.524 147.22 416.011 147.32 416.491 147.44C416.984 147.547 417.431 147.7 417.831 147.9C418.244 148.087 418.571 148.36 418.811 148.72C419.064 149.067 419.191 149.527 419.191 150.1C419.191 150.713 419.017 151.247 418.671 151.7C418.337 152.14 417.844 152.487 417.191 152.74C416.551 152.98 415.771 153.1 414.851 153.1ZM426.076 153.1C425.063 153.1 424.15 152.873 423.336 152.42C422.536 151.953 421.903 151.32 421.436 150.52C420.97 149.707 420.736 148.78 420.736 147.74C420.736 146.687 420.97 145.76 421.436 144.96C421.903 144.16 422.536 143.533 423.336 143.08C424.136 142.627 425.05 142.4 426.076 142.4C427.116 142.4 428.036 142.627 428.836 143.08C429.65 143.533 430.283 144.16 430.736 144.96C431.203 145.76 431.436 146.687 431.436 147.74C431.436 148.78 431.203 149.707 430.736 150.52C430.283 151.32 429.65 151.953 428.836 152.42C428.023 152.873 427.103 153.1 426.076 153.1ZM426.076 151.84C426.836 151.84 427.51 151.673 428.096 151.34C428.683 150.993 429.143 150.513 429.476 149.9C429.823 149.273 429.996 148.553 429.996 147.74C429.996 146.913 429.823 146.193 429.476 145.58C429.143 144.967 428.683 144.493 428.096 144.16C427.51 143.813 426.843 143.64 426.096 143.64C425.35 143.64 424.683 143.813 424.096 144.16C423.51 144.493 423.043 144.967 422.696 145.58C422.35 146.193 422.176 146.913 422.176 147.74C422.176 148.553 422.35 149.273 422.696 149.9C423.043 150.513 423.51 150.993 424.096 151.34C424.683 151.673 425.343 151.84 426.076 151.84ZM443.75 153.1C442.75 153.1 441.85 152.873 441.05 152.42C440.263 151.967 439.643 151.34 439.19 150.54C438.737 149.727 438.51 148.793 438.51 147.74C438.51 146.673 438.737 145.74 439.19 144.94C439.643 144.14 440.263 143.52 441.05 143.08C441.85 142.627 442.75 142.4 443.75 142.4C444.67 142.4 445.49 142.607 446.21 143.02C446.943 143.433 447.523 144.04 447.95 144.84C448.39 145.627 448.61 146.593 448.61 147.74C448.61 148.873 448.397 149.84 447.97 150.64C447.543 151.44 446.963 152.053 446.23 152.48C445.51 152.893 444.683 153.1 443.75 153.1ZM443.85 151.84C444.597 151.84 445.263 151.673 445.85 151.34C446.45 150.993 446.917 150.513 447.25 149.9C447.597 149.273 447.77 148.553 447.77 147.74C447.77 146.913 447.597 146.193 447.25 145.58C446.917 144.967 446.45 144.493 445.85 144.16C445.263 143.813 444.597 143.64 443.85 143.64C443.117 143.64 442.457 143.813 441.87 144.16C441.283 144.493 440.817 144.967 440.47 145.58C440.123 146.193 439.95 146.913 439.95 147.74C439.95 148.553 440.123 149.273 440.47 149.9C440.817 150.513 441.283 150.993 441.87 151.34C442.457 151.673 443.117 151.84 443.85 151.84ZM447.81 153V149.84L447.95 147.72L447.75 145.6V138.16H449.17V153H447.81ZM457.585 153.1C456.491 153.1 455.531 152.873 454.705 152.42C453.878 151.953 453.231 151.32 452.765 150.52C452.298 149.707 452.065 148.78 452.065 147.74C452.065 146.7 452.285 145.78 452.725 144.98C453.178 144.18 453.791 143.553 454.565 143.1C455.351 142.633 456.231 142.4 457.205 142.4C458.191 142.4 459.065 142.627 459.825 143.08C460.598 143.52 461.205 144.147 461.645 144.96C462.085 145.76 462.305 146.687 462.305 147.74C462.305 147.807 462.298 147.88 462.285 147.96C462.285 148.027 462.285 148.1 462.285 148.18H453.145V147.12H461.525L460.965 147.54C460.965 146.78 460.798 146.107 460.465 145.52C460.145 144.92 459.705 144.453 459.145 144.12C458.585 143.787 457.938 143.62 457.205 143.62C456.485 143.62 455.838 143.787 455.265 144.12C454.691 144.453 454.245 144.92 453.925 145.52C453.605 146.12 453.445 146.807 453.445 147.58V147.8C453.445 148.6 453.618 149.307 453.965 149.92C454.325 150.52 454.818 150.993 455.445 151.34C456.085 151.673 456.811 151.84 457.625 151.84C458.265 151.84 458.858 151.727 459.405 151.5C459.965 151.273 460.445 150.927 460.845 150.46L461.645 151.38C461.178 151.94 460.591 152.367 459.885 152.66C459.191 152.953 458.425 153.1 457.585 153.1ZM149.44 177.1C148.347 177.1 147.387 176.873 146.56 176.42C145.733 175.953 145.087 175.32 144.62 174.52C144.153 173.707 143.92 172.78 143.92 171.74C143.92 170.7 144.14 169.78 144.58 168.98C145.033 168.18 145.647 167.553 146.42 167.1C147.207 166.633 148.087 166.4 149.06 166.4C150.047 166.4 150.92 166.627 151.68 167.08C152.453 167.52 153.06 168.147 153.5 168.96C153.94 169.76 154.16 170.687 154.16 171.74C154.16 171.807 154.153 171.88 154.14 171.96C154.14 172.027 154.14 172.1 154.14 172.18H145V171.12H153.38L152.82 171.54C152.82 170.78 152.653 170.107 152.32 169.52C152 168.92 151.56 168.453 151 168.12C150.44 167.787 149.793 167.62 149.06 167.62C148.34 167.62 147.693 167.787 147.12 168.12C146.547 168.453 146.1 168.92 145.78 169.52C145.46 170.12 145.3 170.807 145.3 171.58V171.8C145.3 172.6 145.473 173.307 145.82 173.92C146.18 174.52 146.673 174.993 147.3 175.34C147.94 175.673 148.667 175.84 149.48 175.84C150.12 175.84 150.713 175.727 151.26 175.5C151.82 175.273 152.3 174.927 152.7 174.46L153.5 175.38C153.033 175.94 152.447 176.367 151.74 176.66C151.047 176.953 150.28 177.1 149.44 177.1ZM157.05 177V162.16H158.47V177H157.05ZM166.881 177.1C165.788 177.1 164.828 176.873 164.001 176.42C163.175 175.953 162.528 175.32 162.061 174.52C161.595 173.707 161.361 172.78 161.361 171.74C161.361 170.7 161.581 169.78 162.021 168.98C162.475 168.18 163.088 167.553 163.861 167.1C164.648 166.633 165.528 166.4 166.501 166.4C167.488 166.4 168.361 166.627 169.121 167.08C169.895 167.52 170.501 168.147 170.941 168.96C171.381 169.76 171.601 170.687 171.601 171.74C171.601 171.807 171.595 171.88 171.581 171.96C171.581 172.027 171.581 172.1 171.581 172.18H162.441V171.12H170.821L170.261 171.54C170.261 170.78 170.095 170.107 169.761 169.52C169.441 168.92 169.001 168.453 168.441 168.12C167.881 167.787 167.235 167.62 166.501 167.62C165.781 167.62 165.135 167.787 164.561 168.12C163.988 168.453 163.541 168.92 163.221 169.52C162.901 170.12 162.741 170.807 162.741 171.58V171.8C162.741 172.6 162.915 173.307 163.261 173.92C163.621 174.52 164.115 174.993 164.741 175.34C165.381 175.673 166.108 175.84 166.921 175.84C167.561 175.84 168.155 175.727 168.701 175.5C169.261 175.273 169.741 174.927 170.141 174.46L170.941 175.38C170.475 175.94 169.888 176.367 169.181 176.66C168.488 176.953 167.721 177.1 166.881 177.1ZM178.852 177.1C177.812 177.1 176.878 176.873 176.052 176.42C175.238 175.953 174.598 175.32 174.132 174.52C173.665 173.707 173.432 172.78 173.432 171.74C173.432 170.687 173.665 169.76 174.132 168.96C174.598 168.16 175.238 167.533 176.052 167.08C176.878 166.627 177.812 166.4 178.852 166.4C179.745 166.4 180.552 166.573 181.272 166.92C181.992 167.267 182.558 167.787 182.972 168.48L181.912 169.2C181.552 168.667 181.105 168.273 180.572 168.02C180.038 167.767 179.458 167.64 178.832 167.64C178.085 167.64 177.412 167.813 176.812 168.16C176.212 168.493 175.738 168.967 175.392 169.58C175.045 170.193 174.872 170.913 174.872 171.74C174.872 172.567 175.045 173.287 175.392 173.9C175.738 174.513 176.212 174.993 176.812 175.34C177.412 175.673 178.085 175.84 178.832 175.84C179.458 175.84 180.038 175.713 180.572 175.46C181.105 175.207 181.552 174.82 181.912 174.3L182.972 175.02C182.558 175.7 181.992 176.22 181.272 176.58C180.552 176.927 179.745 177.1 178.852 177.1ZM189.198 177.1C188.212 177.1 187.452 176.833 186.918 176.3C186.385 175.767 186.118 175.013 186.118 174.04V164.18H187.538V173.96C187.538 174.573 187.692 175.047 187.998 175.38C188.318 175.713 188.772 175.88 189.358 175.88C189.985 175.88 190.505 175.7 190.918 175.34L191.418 176.36C191.138 176.613 190.798 176.8 190.398 176.92C190.012 177.04 189.612 177.1 189.198 177.1ZM184.238 167.68V166.5H190.738V167.68H184.238ZM194.003 177V166.5H195.363V169.36L195.223 168.86C195.517 168.06 196.01 167.453 196.703 167.04C197.397 166.613 198.257 166.4 199.283 166.4V167.78C199.23 167.78 199.177 167.78 199.123 167.78C199.07 167.767 199.017 167.76 198.963 167.76C197.857 167.76 196.99 168.1 196.363 168.78C195.737 169.447 195.423 170.4 195.423 171.64V177H194.003ZM206.057 177.1C205.044 177.1 204.13 176.873 203.317 176.42C202.517 175.953 201.884 175.32 201.417 174.52C200.95 173.707 200.717 172.78 200.717 171.74C200.717 170.687 200.95 169.76 201.417 168.96C201.884 168.16 202.517 167.533 203.317 167.08C204.117 166.627 205.03 166.4 206.057 166.4C207.097 166.4 208.017 166.627 208.817 167.08C209.63 167.533 210.264 168.16 210.717 168.96C211.184 169.76 211.417 170.687 211.417 171.74C211.417 172.78 211.184 173.707 210.717 174.52C210.264 175.32 209.63 175.953 208.817 176.42C208.004 176.873 207.084 177.1 206.057 177.1ZM206.057 175.84C206.817 175.84 207.49 175.673 208.077 175.34C208.664 174.993 209.124 174.513 209.457 173.9C209.804 173.273 209.977 172.553 209.977 171.74C209.977 170.913 209.804 170.193 209.457 169.58C209.124 168.967 208.664 168.493 208.077 168.16C207.49 167.813 206.824 167.64 206.077 167.64C205.33 167.64 204.664 167.813 204.077 168.16C203.49 168.493 203.024 168.967 202.677 169.58C202.33 170.193 202.157 170.913 202.157 171.74C202.157 172.553 202.33 173.273 202.677 173.9C203.024 174.513 203.49 174.993 204.077 175.34C204.664 175.673 205.324 175.84 206.057 175.84ZM204.757 164.86L207.497 162.38H209.397L206.157 164.86H204.757ZM214.316 177V162.16H215.736V177H214.316ZM219.687 177V166.5H221.107V177H219.687ZM220.407 164.18C220.114 164.18 219.867 164.08 219.667 163.88C219.467 163.68 219.367 163.44 219.367 163.16C219.367 162.88 219.467 162.647 219.667 162.46C219.867 162.26 220.114 162.16 220.407 162.16C220.7 162.16 220.947 162.253 221.147 162.44C221.347 162.627 221.447 162.86 221.447 163.14C221.447 163.433 221.347 163.68 221.147 163.88C220.96 164.08 220.714 164.18 220.407 164.18ZM227.878 177.1C227.011 177.1 226.191 176.98 225.418 176.74C224.645 176.487 224.038 176.173 223.598 175.8L224.238 174.68C224.665 175 225.211 175.28 225.878 175.52C226.545 175.747 227.245 175.86 227.978 175.86C228.978 175.86 229.698 175.707 230.138 175.4C230.578 175.08 230.798 174.66 230.798 174.14C230.798 173.753 230.671 173.453 230.418 173.24C230.178 173.013 229.858 172.847 229.458 172.74C229.058 172.62 228.611 172.52 228.118 172.44C227.625 172.36 227.131 172.267 226.638 172.16C226.158 172.053 225.718 171.9 225.318 171.7C224.918 171.487 224.591 171.2 224.338 170.84C224.098 170.48 223.978 170 223.978 169.4C223.978 168.827 224.138 168.313 224.458 167.86C224.778 167.407 225.245 167.053 225.858 166.8C226.485 166.533 227.245 166.4 228.138 166.4C228.818 166.4 229.498 166.493 230.178 166.68C230.858 166.853 231.418 167.087 231.858 167.38L231.238 168.52C230.771 168.2 230.271 167.973 229.738 167.84C229.205 167.693 228.671 167.62 228.138 167.62C227.191 167.62 226.491 167.787 226.038 168.12C225.598 168.44 225.378 168.853 225.378 169.36C225.378 169.76 225.498 170.073 225.738 170.3C225.991 170.527 226.318 170.707 226.718 170.84C227.131 170.96 227.578 171.06 228.058 171.14C228.551 171.22 229.038 171.32 229.518 171.44C230.011 171.547 230.458 171.7 230.858 171.9C231.271 172.087 231.598 172.36 231.838 172.72C232.091 173.067 232.218 173.527 232.218 174.1C232.218 174.713 232.045 175.247 231.698 175.7C231.365 176.14 230.871 176.487 230.218 176.74C229.578 176.98 228.798 177.1 227.878 177.1ZM234.824 177V166.5H236.244V177H234.824ZM235.544 164.18C235.25 164.18 235.004 164.08 234.804 163.88C234.604 163.68 234.504 163.44 234.504 163.16C234.504 162.88 234.604 162.647 234.804 162.46C235.004 162.26 235.25 162.16 235.544 162.16C235.837 162.16 236.084 162.253 236.284 162.44C236.484 162.627 236.584 162.86 236.584 163.14C236.584 163.433 236.484 163.68 236.284 163.88C236.097 164.08 235.85 164.18 235.544 164.18ZM243.015 177.1C242.148 177.1 241.328 176.98 240.555 176.74C239.782 176.487 239.175 176.173 238.735 175.8L239.375 174.68C239.802 175 240.348 175.28 241.015 175.52C241.682 175.747 242.382 175.86 243.115 175.86C244.115 175.86 244.835 175.707 245.275 175.4C245.715 175.08 245.935 174.66 245.935 174.14C245.935 173.753 245.808 173.453 245.555 173.24C245.315 173.013 244.995 172.847 244.595 172.74C244.195 172.62 243.748 172.52 243.255 172.44C242.762 172.36 242.268 172.267 241.775 172.16C241.295 172.053 240.855 171.9 240.455 171.7C240.055 171.487 239.728 171.2 239.475 170.84C239.235 170.48 239.115 170 239.115 169.4C239.115 168.827 239.275 168.313 239.595 167.86C239.915 167.407 240.382 167.053 240.995 166.8C241.622 166.533 242.382 166.4 243.275 166.4C243.955 166.4 244.635 166.493 245.315 166.68C245.995 166.853 246.555 167.087 246.995 167.38L246.375 168.52C245.908 168.2 245.408 167.973 244.875 167.84C244.342 167.693 243.808 167.62 243.275 167.62C242.328 167.62 241.628 167.787 241.175 168.12C240.735 168.44 240.515 168.853 240.515 169.36C240.515 169.76 240.635 170.073 240.875 170.3C241.128 170.527 241.455 170.707 241.855 170.84C242.268 170.96 242.715 171.06 243.195 171.14C243.688 171.22 244.175 171.32 244.655 171.44C245.148 171.547 245.595 171.7 245.995 171.9C246.408 172.087 246.735 172.36 246.975 172.72C247.228 173.067 247.355 173.527 247.355 174.1C247.355 174.713 247.182 175.247 246.835 175.7C246.502 176.14 246.008 176.487 245.355 176.74C244.715 176.98 243.935 177.1 243.015 177.1Z" fill="black"/>
</svg>
