<svg width="627" height="191" viewBox="0 0 627 191" fill="none" xmlns="http://www.w3.org/2000/svg">
<path d="M83.8711 11.9766H89.1094L94.6641 42H90.0586L89.2324 36.6211H83.748L82.957 42H78.334L83.8711 11.9766ZM88.7051 33.1934L86.5957 18.2344H86.4023L84.2754 33.1934H88.7051ZM97.3711 10.0254H101.818V42H97.3711V10.0254ZM106.477 17.7949H109.922L110.309 20.3789V20.3965C110.66 19.8457 111.035 19.3887 111.434 19.0254C111.832 18.6504 112.242 18.3516 112.664 18.1289C113.098 17.9062 113.537 17.748 113.982 17.6543C114.439 17.5605 114.891 17.5137 115.336 17.5137C116.285 17.5137 117.088 17.7422 117.744 18.1992C118.4 18.6562 118.898 19.3418 119.238 20.2559C119.59 19.7285 119.959 19.2891 120.346 18.9375C120.744 18.5859 121.154 18.3047 121.576 18.0938C121.998 17.8828 122.426 17.7363 122.859 17.6543C123.293 17.5605 123.732 17.5137 124.178 17.5137C125.584 17.5137 126.668 18.0117 127.43 19.0078C128.203 19.9922 128.59 21.4746 128.59 23.4551V42H124.143V23.6133C124.143 23.0859 124.102 22.6406 124.02 22.2773C123.938 21.9141 123.814 21.6211 123.65 21.3984C123.486 21.1758 123.275 21.0176 123.018 20.9238C122.76 20.8184 122.449 20.7656 122.086 20.7656C121.676 20.7656 121.266 20.918 120.855 21.2227C120.445 21.5156 120.07 21.9258 119.73 22.4531C119.742 22.5586 119.748 22.6641 119.748 22.7695C119.748 22.875 119.748 22.9805 119.748 23.0859V42H115.301V23.6133C115.301 23.0859 115.26 22.6406 115.178 22.2773C115.096 21.9141 114.973 21.6211 114.809 21.3984C114.645 21.1758 114.434 21.0176 114.176 20.9238C113.918 20.8184 113.607 20.7656 113.244 20.7656C112.846 20.7656 112.441 20.9121 112.031 21.2051C111.621 21.498 111.252 21.9023 110.924 22.418V42H106.477V17.7949ZM136.535 42.2637C135.785 42.2637 135.117 42.1172 134.531 41.8242C133.957 41.5195 133.471 41.1094 133.072 40.5938C132.674 40.0781 132.369 39.4688 132.158 38.7656C131.959 38.0508 131.859 37.2773 131.859 36.4453C131.859 35.4492 131.982 34.5645 132.229 33.791C132.475 33.0176 132.832 32.3203 133.301 31.6992C133.781 31.0781 134.373 30.5156 135.076 30.0117C135.779 29.4961 136.594 29.0098 137.52 28.5527C137.965 28.3301 138.463 28.1074 139.014 27.8848C139.576 27.6504 140.074 27.4512 140.508 27.2871V24.0879C140.508 23.6191 140.49 23.1855 140.455 22.7871C140.42 22.377 140.332 22.0254 140.191 21.7324C140.062 21.4277 139.863 21.1934 139.594 21.0293C139.324 20.8535 138.955 20.7656 138.486 20.7656C138.17 20.7656 137.859 20.8242 137.555 20.9414C137.262 21.0586 136.998 21.2578 136.764 21.5391C136.541 21.8203 136.359 22.1953 136.219 22.6641C136.09 23.1328 136.025 23.7129 136.025 24.4043V25.459H132.633C132.527 25.002 132.445 24.5859 132.387 24.2109C132.34 23.8242 132.316 23.4434 132.316 23.0684C132.316 22.166 132.469 21.3691 132.773 20.6777C133.09 19.9863 133.523 19.4062 134.074 18.9375C134.637 18.4688 135.305 18.1172 136.078 17.8828C136.852 17.6367 137.701 17.5137 138.627 17.5137C139.834 17.5137 140.836 17.6484 141.633 17.918C142.43 18.1758 143.062 18.5684 143.531 19.0957C144.012 19.623 144.346 20.2852 144.533 21.082C144.732 21.8789 144.832 22.8105 144.832 23.877V42H141.527L141.211 39.9258C140.73 40.6172 140.086 41.1797 139.277 41.6133C138.48 42.0469 137.566 42.2637 136.535 42.2637ZM138.504 38.8359C138.879 38.8359 139.242 38.7422 139.594 38.5547C139.957 38.3555 140.262 38.1152 140.508 37.834V30.2578C140.273 30.3516 140.01 30.4629 139.717 30.5918C139.424 30.7207 139.107 30.8906 138.768 31.1016C138.451 31.3008 138.141 31.541 137.836 31.8223C137.531 32.1035 137.256 32.4375 137.01 32.8242C136.775 33.2109 136.582 33.6504 136.43 34.1426C136.289 34.623 136.219 35.1621 136.219 35.7598C136.219 36.6855 136.4 37.4297 136.764 37.9922C137.127 38.5547 137.707 38.8359 138.504 38.8359ZM155.08 42.2637C153.041 42.2637 151.482 41.4258 150.404 39.75C149.338 38.0742 148.805 35.5195 148.805 32.0859V27.5156C148.805 25.9805 148.916 24.668 149.139 23.5781C149.361 22.4766 149.654 21.5566 150.018 20.8184C150.393 20.0684 150.814 19.4766 151.283 19.043C151.764 18.6094 152.256 18.2812 152.76 18.0586C153.264 17.8242 153.762 17.6777 154.254 17.6191C154.746 17.5488 155.197 17.5137 155.607 17.5137C156.428 17.5137 157.178 17.625 157.857 17.8477C158.537 18.0586 159.123 18.3867 159.615 18.832C160.107 19.2656 160.488 19.8164 160.758 20.4844C161.027 21.1523 161.162 21.9375 161.162 22.8398C161.162 23.4023 161.133 23.8887 161.074 24.2988C161.027 24.6973 160.957 25.084 160.863 25.459H157.312V24.6504C157.312 23.4316 157.166 22.4824 156.873 21.8027C156.592 21.1113 156.123 20.7656 155.467 20.7656C155.104 20.7656 154.787 20.8535 154.518 21.0293C154.248 21.1934 154.02 21.4805 153.832 21.8906C153.656 22.3008 153.521 22.8516 153.428 23.543C153.346 24.2344 153.305 25.1016 153.305 26.1445V33.0176C153.305 34.0723 153.34 34.9688 153.41 35.707C153.48 36.4453 153.604 37.0488 153.779 37.5176C153.955 37.9746 154.189 38.3086 154.482 38.5195C154.775 38.7305 155.139 38.8359 155.572 38.8359C155.795 38.8359 156.012 38.7832 156.223 38.6777C156.434 38.5605 156.615 38.373 156.768 38.1152C156.932 37.8574 157.061 37.5176 157.154 37.0957C157.26 36.6621 157.312 36.1289 157.312 35.4961V34.7402H161.145V35.6719C161.145 37.9688 160.635 39.6445 159.615 40.6992C158.607 41.7422 157.096 42.2637 155.08 42.2637ZM170.602 42.2637C169.559 42.2637 168.633 42.0703 167.824 41.6836C167.027 41.2969 166.354 40.6934 165.803 39.873C165.252 39.0527 164.836 38.0039 164.555 36.7266C164.273 35.4375 164.133 33.8906 164.133 32.0859V27.5156C164.133 25.9805 164.244 24.668 164.467 23.5781C164.701 22.4766 165 21.5566 165.363 20.8184C165.738 20.0684 166.166 19.4766 166.646 19.043C167.139 18.6094 167.643 18.2812 168.158 18.0586C168.674 17.8242 169.184 17.6777 169.688 17.6191C170.203 17.5488 170.678 17.5137 171.111 17.5137C171.908 17.5137 172.676 17.6367 173.414 17.8828C174.152 18.1172 174.803 18.5273 175.365 19.1133C175.928 19.6875 176.373 20.4609 176.701 21.4336C177.041 22.4062 177.211 23.6191 177.211 25.0723C177.211 25.5645 177.193 26.0625 177.158 26.5664C177.135 27.0703 177.1 27.5684 177.053 28.0605C177.006 28.541 176.941 29.0098 176.859 29.4668C176.789 29.9238 176.713 30.3457 176.631 30.7324H168.598V33.1934C168.598 34.248 168.639 35.1387 168.721 35.8652C168.803 36.5801 168.938 37.1602 169.125 37.6055C169.324 38.0391 169.588 38.3555 169.916 38.5547C170.256 38.7422 170.678 38.8359 171.182 38.8359C171.451 38.8359 171.715 38.7832 171.973 38.6777C172.23 38.5605 172.453 38.373 172.641 38.1152C172.84 37.8574 172.998 37.5176 173.115 37.0957C173.232 36.6621 173.291 36.1289 173.291 35.4961V34.7402H177V35.6719C177 37.9688 176.449 39.6445 175.348 40.6992C174.258 41.7422 172.676 42.2637 170.602 42.2637ZM173.062 27.7441C173.074 27.6152 173.086 27.4453 173.098 27.2344C173.109 27.0117 173.115 26.7832 173.115 26.5488C173.127 26.3145 173.133 26.0859 173.133 25.8633C173.133 25.6289 173.133 25.4297 173.133 25.2656C173.133 23.6719 172.945 22.5234 172.57 21.8203C172.195 21.1172 171.639 20.7656 170.9 20.7656C170.514 20.7656 170.174 20.8594 169.881 21.0469C169.588 21.2227 169.348 21.5273 169.16 21.9609C168.973 22.3828 168.832 22.9453 168.738 23.6484C168.645 24.3516 168.598 25.2246 168.598 26.2676V27.7441H173.062ZM180.973 17.7949H184.4L184.805 20.3789V20.3965C185.156 19.8457 185.531 19.3887 185.93 19.0254C186.34 18.6504 186.762 18.3516 187.195 18.1289C187.629 17.9062 188.068 17.748 188.514 17.6543C188.971 17.5605 189.422 17.5137 189.867 17.5137C191.285 17.5137 192.375 18.0117 193.137 19.0078C193.91 19.9922 194.297 21.4746 194.297 23.4551V42H189.85V23.6133C189.85 22.5469 189.686 21.8086 189.357 21.3984C189.029 20.9766 188.549 20.7656 187.916 20.7656C187.471 20.7656 187.025 20.9121 186.58 21.2051C186.146 21.498 185.76 21.9023 185.42 22.418V42H180.973V17.7949ZM202.242 42.2637C201.492 42.2637 200.824 42.1172 200.238 41.8242C199.664 41.5195 199.178 41.1094 198.779 40.5938C198.381 40.0781 198.076 39.4688 197.865 38.7656C197.666 38.0508 197.566 37.2773 197.566 36.4453C197.566 35.4492 197.689 34.5645 197.936 33.791C198.182 33.0176 198.539 32.3203 199.008 31.6992C199.488 31.0781 200.08 30.5156 200.783 30.0117C201.486 29.4961 202.301 29.0098 203.227 28.5527C203.672 28.3301 204.17 28.1074 204.721 27.8848C205.283 27.6504 205.781 27.4512 206.215 27.2871V24.0879C206.215 23.6191 206.197 23.1855 206.162 22.7871C206.127 22.377 206.039 22.0254 205.898 21.7324C205.77 21.4277 205.57 21.1934 205.301 21.0293C205.031 20.8535 204.662 20.7656 204.193 20.7656C203.877 20.7656 203.566 20.8242 203.262 20.9414C202.969 21.0586 202.705 21.2578 202.471 21.5391C202.248 21.8203 202.066 22.1953 201.926 22.6641C201.797 23.1328 201.732 23.7129 201.732 24.4043V25.459H198.34C198.234 25.002 198.152 24.5859 198.094 24.2109C198.047 23.8242 198.023 23.4434 198.023 23.0684C198.023 22.166 198.176 21.3691 198.48 20.6777C198.797 19.9863 199.23 19.4062 199.781 18.9375C200.344 18.4688 201.012 18.1172 201.785 17.8828C202.559 17.6367 203.408 17.5137 204.334 17.5137C205.541 17.5137 206.543 17.6484 207.34 17.918C208.137 18.1758 208.77 18.5684 209.238 19.0957C209.719 19.623 210.053 20.2852 210.24 21.082C210.439 21.8789 210.539 22.8105 210.539 23.877V42H207.234L206.918 39.9258C206.438 40.6172 205.793 41.1797 204.984 41.6133C204.188 42.0469 203.273 42.2637 202.242 42.2637ZM204.211 38.8359C204.586 38.8359 204.949 38.7422 205.301 38.5547C205.664 38.3555 205.969 38.1152 206.215 37.834V30.2578C205.98 30.3516 205.717 30.4629 205.424 30.5918C205.131 30.7207 204.814 30.8906 204.475 31.1016C204.158 31.3008 203.848 31.541 203.543 31.8223C203.238 32.1035 202.963 32.4375 202.717 32.8242C202.482 33.2109 202.289 33.6504 202.137 34.1426C201.996 34.623 201.926 35.1621 201.926 35.7598C201.926 36.6855 202.107 37.4297 202.471 37.9922C202.834 38.5547 203.414 38.8359 204.211 38.8359ZM215.145 17.7949H218.59L218.977 20.3789V20.3965C219.328 19.8457 219.703 19.3887 220.102 19.0254C220.5 18.6504 220.91 18.3516 221.332 18.1289C221.766 17.9062 222.205 17.748 222.65 17.6543C223.107 17.5605 223.559 17.5137 224.004 17.5137C224.953 17.5137 225.756 17.7422 226.412 18.1992C227.068 18.6562 227.566 19.3418 227.906 20.2559C228.258 19.7285 228.627 19.2891 229.014 18.9375C229.412 18.5859 229.822 18.3047 230.244 18.0938C230.666 17.8828 231.094 17.7363 231.527 17.6543C231.961 17.5605 232.4 17.5137 232.846 17.5137C234.252 17.5137 235.336 18.0117 236.098 19.0078C236.871 19.9922 237.258 21.4746 237.258 23.4551V42H232.811V23.6133C232.811 23.0859 232.77 22.6406 232.688 22.2773C232.605 21.9141 232.482 21.6211 232.318 21.3984C232.154 21.1758 231.943 21.0176 231.686 20.9238C231.428 20.8184 231.117 20.7656 230.754 20.7656C230.344 20.7656 229.934 20.918 229.523 21.2227C229.113 21.5156 228.738 21.9258 228.398 22.4531C228.41 22.5586 228.416 22.6641 228.416 22.7695C228.416 22.875 228.416 22.9805 228.416 23.0859V42H223.969V23.6133C223.969 23.0859 223.928 22.6406 223.846 22.2773C223.764 21.9141 223.641 21.6211 223.477 21.3984C223.312 21.1758 223.102 21.0176 222.844 20.9238C222.586 20.8184 222.275 20.7656 221.912 20.7656C221.514 20.7656 221.109 20.9121 220.699 21.2051C220.289 21.498 219.92 21.9023 219.592 22.418V42H215.145V17.7949ZM244.236 14.332C243.416 14.332 242.766 14.0859 242.285 13.5938C241.816 13.1016 241.582 12.3809 241.582 11.4316C241.582 10.9043 241.641 10.4648 241.758 10.1133C241.887 9.75 242.062 9.46289 242.285 9.25195C242.52 9.0293 242.801 8.87109 243.129 8.77734C243.457 8.67188 243.832 8.61914 244.254 8.61914C245.133 8.61914 245.801 8.8418 246.258 9.28711C246.715 9.73242 246.943 10.4473 246.943 11.4316C246.943 12.3457 246.709 13.0605 246.24 13.5762C245.783 14.0801 245.115 14.332 244.236 14.332ZM241.934 17.7949H246.381V42H241.934V17.7949ZM256.875 42.2637C255.832 42.2637 254.906 42.0703 254.098 41.6836C253.301 41.2969 252.627 40.6934 252.076 39.873C251.525 39.0527 251.109 38.0039 250.828 36.7266C250.547 35.4375 250.406 33.8906 250.406 32.0859V27.5156C250.406 25.9805 250.518 24.668 250.74 23.5781C250.975 22.4766 251.273 21.5566 251.637 20.8184C252.012 20.0684 252.439 19.4766 252.92 19.043C253.412 18.6094 253.916 18.2812 254.432 18.0586C254.947 17.8242 255.457 17.6777 255.961 17.6191C256.477 17.5488 256.951 17.5137 257.385 17.5137C258.182 17.5137 258.949 17.6367 259.688 17.8828C260.426 18.1172 261.076 18.5273 261.639 19.1133C262.201 19.6875 262.646 20.4609 262.975 21.4336C263.314 22.4062 263.484 23.6191 263.484 25.0723C263.484 25.5645 263.467 26.0625 263.432 26.5664C263.408 27.0703 263.373 27.5684 263.326 28.0605C263.279 28.541 263.215 29.0098 263.133 29.4668C263.062 29.9238 262.986 30.3457 262.904 30.7324H254.871V33.1934C254.871 34.248 254.912 35.1387 254.994 35.8652C255.076 36.5801 255.211 37.1602 255.398 37.6055C255.598 38.0391 255.861 38.3555 256.189 38.5547C256.529 38.7422 256.951 38.8359 257.455 38.8359C257.725 38.8359 257.988 38.7832 258.246 38.6777C258.504 38.5605 258.727 38.373 258.914 38.1152C259.113 37.8574 259.271 37.5176 259.389 37.0957C259.506 36.6621 259.564 36.1289 259.564 35.4961V34.7402H263.273V35.6719C263.273 37.9688 262.723 39.6445 261.621 40.6992C260.531 41.7422 258.949 42.2637 256.875 42.2637ZM259.336 27.7441C259.348 27.6152 259.359 27.4453 259.371 27.2344C259.383 27.0117 259.389 26.7832 259.389 26.5488C259.4 26.3145 259.406 26.0859 259.406 25.8633C259.406 25.6289 259.406 25.4297 259.406 25.2656C259.406 23.6719 259.219 22.5234 258.844 21.8203C258.469 21.1172 257.912 20.7656 257.174 20.7656C256.787 20.7656 256.447 20.8594 256.154 21.0469C255.861 21.2227 255.621 21.5273 255.434 21.9609C255.246 22.3828 255.105 22.9453 255.012 23.6484C254.918 24.3516 254.871 25.2246 254.871 26.2676V27.7441H259.336ZM267.246 17.7949H270.674L271.078 20.3789V20.3965C271.43 19.8457 271.805 19.3887 272.203 19.0254C272.613 18.6504 273.035 18.3516 273.469 18.1289C273.902 17.9062 274.342 17.748 274.787 17.6543C275.244 17.5605 275.695 17.5137 276.141 17.5137C277.559 17.5137 278.648 18.0117 279.41 19.0078C280.184 19.9922 280.57 21.4746 280.57 23.4551V42H276.123V23.6133C276.123 22.5469 275.959 21.8086 275.631 21.3984C275.303 20.9766 274.822 20.7656 274.189 20.7656C273.744 20.7656 273.299 20.9121 272.854 21.2051C272.42 21.498 272.033 21.9023 271.693 22.418V42H267.246V17.7949ZM285.686 20.959H283.805V17.7949H286.072L286.969 11.5195H290.133V17.7949H294V20.959H290.133V36.3574C290.133 36.8848 290.18 37.3125 290.273 37.6406C290.379 37.957 290.52 38.209 290.695 38.3965C290.871 38.5723 291.076 38.6895 291.311 38.748C291.545 38.8066 291.791 38.8359 292.049 38.8359C292.482 38.8359 292.863 38.7832 293.191 38.6777C293.531 38.5723 293.854 38.4258 294.158 38.2383V40.6992C293.9 41.0156 293.619 41.2734 293.314 41.4727C293.021 41.6719 292.717 41.8359 292.4 41.9648C292.084 42.082 291.762 42.1641 291.434 42.2109C291.105 42.2578 290.783 42.2812 290.467 42.2812C289.846 42.2812 289.248 42.1992 288.674 42.0352C288.1 41.8711 287.59 41.5605 287.145 41.1035C286.699 40.6348 286.342 39.9902 286.072 39.1699C285.814 38.3496 285.686 37.2832 285.686 35.9707V20.959ZM303.158 42.2637C302.643 42.2637 302.115 42.2227 301.576 42.1406C301.049 42.0586 300.533 41.8887 300.029 41.6309C299.537 41.373 299.068 41.0039 298.623 40.5234C298.189 40.043 297.809 39.4102 297.48 38.625C297.152 37.8398 296.895 36.873 296.707 35.7246C296.52 34.5762 296.426 33.2051 296.426 31.6113V27.8145C296.426 26.2441 296.52 24.9023 296.707 23.7891C296.906 22.6641 297.17 21.7207 297.498 20.959C297.838 20.1973 298.23 19.5938 298.676 19.1484C299.121 18.6914 299.59 18.3457 300.082 18.1113C300.586 17.8652 301.102 17.707 301.629 17.6367C302.156 17.5547 302.672 17.5137 303.176 17.5137C303.656 17.5137 304.154 17.5488 304.67 17.6191C305.186 17.6895 305.689 17.8418 306.182 18.0762C306.674 18.2988 307.137 18.6387 307.57 19.0957C308.016 19.541 308.402 20.1445 308.73 20.9062C309.07 21.668 309.334 22.6172 309.521 23.7539C309.721 24.8789 309.82 26.2324 309.82 27.8145V31.6113C309.82 33.1816 309.721 34.5352 309.521 35.6719C309.322 36.8086 309.053 37.7695 308.713 38.5547C308.373 39.3398 307.98 39.9785 307.535 40.4707C307.09 40.9512 306.621 41.3262 306.129 41.5957C305.637 41.8652 305.133 42.041 304.617 42.123C304.113 42.2168 303.627 42.2637 303.158 42.2637ZM303.193 38.8359C303.592 38.8359 303.926 38.7363 304.195 38.5371C304.477 38.3262 304.699 37.9863 304.863 37.5176C305.039 37.0488 305.162 36.4336 305.232 35.6719C305.314 34.8984 305.355 33.9434 305.355 32.8066V26.8477C305.355 25.7109 305.314 24.7559 305.232 23.9824C305.162 23.209 305.039 22.5879 304.863 22.1191C304.699 21.6387 304.477 21.293 304.195 21.082C303.926 20.8711 303.592 20.7656 303.193 20.7656C302.771 20.7656 302.414 20.8711 302.121 21.082C301.84 21.293 301.605 21.6387 301.418 22.1191C301.23 22.5879 301.096 23.209 301.014 23.9824C300.932 24.7559 300.891 25.7109 300.891 26.8477V32.8066C300.891 33.9434 300.932 34.8984 301.014 35.6719C301.096 36.4336 301.23 37.0488 301.418 37.5176C301.605 37.9863 301.84 38.3262 302.121 38.5371C302.414 38.7363 302.771 38.8359 303.193 38.8359Z" fill="black"/>
<path d="M81.6 80.26H89V81.52H81.6V80.26ZM81.76 86.72H90.18V88H80.28V74H89.88V75.28H81.76V86.72ZM93.3589 88V73.16H94.7789V88H93.3589ZM109.324 77.4C110.178 77.4 110.924 77.5667 111.564 77.9C112.218 78.22 112.724 78.7133 113.084 79.38C113.458 80.0467 113.644 80.8867 113.644 81.9V88H112.224V82.04C112.224 80.9333 111.944 80.1 111.384 79.54C110.838 78.9667 110.064 78.68 109.064 78.68C108.318 78.68 107.664 78.8333 107.104 79.14C106.558 79.4333 106.131 79.8667 105.824 80.44C105.531 81 105.384 81.68 105.384 82.48V88H103.964V73.16H105.384V80.38L105.104 79.84C105.438 79.08 105.971 78.4867 106.704 78.06C107.438 77.62 108.311 77.4 109.324 77.4ZM117.48 88V77.5H118.9V88H117.48ZM118.2 75.18C117.907 75.18 117.66 75.08 117.46 74.88C117.26 74.68 117.16 74.44 117.16 74.16C117.16 73.88 117.26 73.6467 117.46 73.46C117.66 73.26 117.907 73.16 118.2 73.16C118.493 73.16 118.74 73.2533 118.94 73.44C119.14 73.6267 119.24 73.86 119.24 74.14C119.24 74.4333 119.14 74.68 118.94 74.88C118.753 75.08 118.507 75.18 118.2 75.18ZM127.031 88.1C126.031 88.1 125.131 87.8733 124.331 87.42C123.544 86.9667 122.924 86.34 122.471 85.54C122.018 84.7267 121.791 83.7933 121.791 82.74C121.791 81.6733 122.018 80.74 122.471 79.94C122.924 79.14 123.544 78.52 124.331 78.08C125.131 77.6267 126.031 77.4 127.031 77.4C127.951 77.4 128.771 77.6067 129.491 78.02C130.224 78.4333 130.804 79.04 131.231 79.84C131.671 80.6267 131.891 81.5933 131.891 82.74C131.891 83.8733 131.678 84.84 131.251 85.64C130.824 86.44 130.244 87.0533 129.511 87.48C128.791 87.8933 127.964 88.1 127.031 88.1ZM127.131 86.84C127.878 86.84 128.544 86.6733 129.131 86.34C129.731 85.9933 130.198 85.5133 130.531 84.9C130.878 84.2733 131.051 83.5533 131.051 82.74C131.051 81.9133 130.878 81.1933 130.531 80.58C130.198 79.9667 129.731 79.4933 129.131 79.16C128.544 78.8133 127.878 78.64 127.131 78.64C126.398 78.64 125.738 78.8133 125.151 79.16C124.564 79.4933 124.098 79.9667 123.751 80.58C123.404 81.1933 123.231 81.9133 123.231 82.74C123.231 83.5533 123.404 84.2733 123.751 84.9C124.098 85.5133 124.564 85.9933 125.151 86.34C125.738 86.6733 126.398 86.84 127.131 86.84ZM131.091 88V84.84L131.231 82.72L131.031 80.6V73.16H132.451V88H131.091ZM136.406 88V77.5H137.766V80.36L137.626 79.86C137.919 79.06 138.412 78.4533 139.106 78.04C139.799 77.6133 140.659 77.4 141.686 77.4V78.78C141.632 78.78 141.579 78.78 141.526 78.78C141.472 78.7667 141.419 78.76 141.366 78.76C140.259 78.76 139.392 79.1 138.766 79.78C138.139 80.4467 137.826 81.4 137.826 82.64V88H136.406ZM148.459 88.1C147.446 88.1 146.533 87.8733 145.719 87.42C144.919 86.9533 144.286 86.32 143.819 85.52C143.353 84.7067 143.119 83.78 143.119 82.74C143.119 81.6867 143.353 80.76 143.819 79.96C144.286 79.16 144.919 78.5333 145.719 78.08C146.519 77.6267 147.433 77.4 148.459 77.4C149.499 77.4 150.419 77.6267 151.219 78.08C152.033 78.5333 152.666 79.16 153.119 79.96C153.586 80.76 153.819 81.6867 153.819 82.74C153.819 83.78 153.586 84.7067 153.119 85.52C152.666 86.32 152.033 86.9533 151.219 87.42C150.406 87.8733 149.486 88.1 148.459 88.1ZM148.459 86.84C149.219 86.84 149.893 86.6733 150.479 86.34C151.066 85.9933 151.526 85.5133 151.859 84.9C152.206 84.2733 152.379 83.5533 152.379 82.74C152.379 81.9133 152.206 81.1933 151.859 80.58C151.526 79.9667 151.066 79.4933 150.479 79.16C149.893 78.8133 149.226 78.64 148.479 78.64C147.733 78.64 147.066 78.8133 146.479 79.16C145.893 79.4933 145.426 79.9667 145.079 80.58C144.733 81.1933 144.559 81.9133 144.559 82.74C144.559 83.5533 144.733 84.2733 145.079 84.9C145.426 85.5133 145.893 85.9933 146.479 86.34C147.066 86.6733 147.726 86.84 148.459 86.84ZM147.159 75.86L149.899 73.38H151.799L148.559 75.86H147.159ZM161.198 91.98C160.238 91.98 159.318 91.84 158.438 91.56C157.558 91.28 156.845 90.88 156.298 90.36L157.018 89.28C157.512 89.72 158.118 90.0667 158.838 90.32C159.572 90.5867 160.345 90.72 161.158 90.72C162.492 90.72 163.472 90.4067 164.098 89.78C164.725 89.1667 165.038 88.2067 165.038 86.9V84.28L165.238 82.48L165.098 80.68V77.5H166.458V86.72C166.458 88.5333 166.012 89.86 165.118 90.7C164.238 91.5533 162.932 91.98 161.198 91.98ZM160.938 87.6C159.938 87.6 159.038 87.3867 158.238 86.96C157.438 86.52 156.805 85.9133 156.338 85.14C155.885 84.3667 155.658 83.48 155.658 82.48C155.658 81.48 155.885 80.6 156.338 79.84C156.805 79.0667 157.438 78.4667 158.238 78.04C159.038 77.6133 159.938 77.4 160.938 77.4C161.872 77.4 162.712 77.5933 163.458 77.98C164.205 78.3667 164.798 78.94 165.238 79.7C165.678 80.46 165.898 81.3867 165.898 82.48C165.898 83.5733 165.678 84.5 165.238 85.26C164.798 86.02 164.205 86.6 163.458 87C162.712 87.4 161.872 87.6 160.938 87.6ZM161.078 86.34C161.852 86.34 162.538 86.18 163.138 85.86C163.738 85.5267 164.212 85.0733 164.558 84.5C164.905 83.9133 165.078 83.24 165.078 82.48C165.078 81.72 164.905 81.0533 164.558 80.48C164.212 79.9067 163.738 79.46 163.138 79.14C162.538 78.8067 161.852 78.64 161.078 78.64C160.318 78.64 159.632 78.8067 159.018 79.14C158.418 79.46 157.945 79.9067 157.598 80.48C157.265 81.0533 157.098 81.72 157.098 82.48C157.098 83.24 157.265 83.9133 157.598 84.5C157.945 85.0733 158.418 85.5267 159.018 85.86C159.632 86.18 160.318 86.34 161.078 86.34ZM174.87 88.1C173.776 88.1 172.816 87.8733 171.99 87.42C171.163 86.9533 170.516 86.32 170.05 85.52C169.583 84.7067 169.35 83.78 169.35 82.74C169.35 81.7 169.57 80.78 170.01 79.98C170.463 79.18 171.076 78.5533 171.85 78.1C172.636 77.6333 173.516 77.4 174.49 77.4C175.476 77.4 176.35 77.6267 177.11 78.08C177.883 78.52 178.49 79.1467 178.93 79.96C179.37 80.76 179.59 81.6867 179.59 82.74C179.59 82.8067 179.583 82.88 179.57 82.96C179.57 83.0267 179.57 83.1 179.57 83.18H170.43V82.12H178.81L178.25 82.54C178.25 81.78 178.083 81.1067 177.75 80.52C177.43 79.92 176.99 79.4533 176.43 79.12C175.87 78.7867 175.223 78.62 174.49 78.62C173.77 78.62 173.123 78.7867 172.55 79.12C171.976 79.4533 171.53 79.92 171.21 80.52C170.89 81.12 170.73 81.8067 170.73 82.58V82.8C170.73 83.6 170.903 84.3067 171.25 84.92C171.61 85.52 172.103 85.9933 172.73 86.34C173.37 86.6733 174.096 86.84 174.91 86.84C175.55 86.84 176.143 86.7267 176.69 86.5C177.25 86.2733 177.73 85.9267 178.13 85.46L178.93 86.38C178.463 86.94 177.876 87.3667 177.17 87.66C176.476 87.9533 175.71 88.1 174.87 88.1ZM187.84 77.4C188.693 77.4 189.44 77.5667 190.08 77.9C190.733 78.22 191.24 78.7133 191.6 79.38C191.973 80.0467 192.16 80.8867 192.16 81.9V88H190.74V82.04C190.74 80.9333 190.46 80.1 189.9 79.54C189.353 78.9667 188.58 78.68 187.58 78.68C186.833 78.68 186.18 78.8333 185.62 79.14C185.073 79.4333 184.647 79.8667 184.34 80.44C184.047 81 183.9 81.68 183.9 82.48V88H182.48V77.5H183.84V80.38L183.62 79.84C183.953 79.08 184.487 78.4867 185.22 78.06C185.953 77.62 186.827 77.4 187.84 77.4ZM200.276 88.1C199.262 88.1 198.349 87.8733 197.536 87.42C196.736 86.9533 196.102 86.32 195.636 85.52C195.169 84.7067 194.936 83.78 194.936 82.74C194.936 81.6867 195.169 80.76 195.636 79.96C196.102 79.16 196.736 78.5333 197.536 78.08C198.336 77.6267 199.249 77.4 200.276 77.4C201.316 77.4 202.236 77.6267 203.036 78.08C203.849 78.5333 204.482 79.16 204.936 79.96C205.402 80.76 205.636 81.6867 205.636 82.74C205.636 83.78 205.402 84.7067 204.936 85.52C204.482 86.32 203.849 86.9533 203.036 87.42C202.222 87.8733 201.302 88.1 200.276 88.1ZM200.276 86.84C201.036 86.84 201.709 86.6733 202.296 86.34C202.882 85.9933 203.342 85.5133 203.676 84.9C204.022 84.2733 204.196 83.5533 204.196 82.74C204.196 81.9133 204.022 81.1933 203.676 80.58C203.342 79.9667 202.882 79.4933 202.296 79.16C201.709 78.8133 201.042 78.64 200.296 78.64C199.549 78.64 198.882 78.8133 198.296 79.16C197.709 79.4933 197.242 79.9667 196.896 80.58C196.549 81.1933 196.376 81.9133 196.376 82.74C196.376 83.5533 196.549 84.2733 196.896 84.9C197.242 85.5133 197.709 85.9933 198.296 86.34C198.882 86.6733 199.542 86.84 200.276 86.84ZM216.589 88.1C215.722 88.1 214.902 87.98 214.129 87.74C213.356 87.4867 212.749 87.1733 212.309 86.8L212.949 85.68C213.376 86 213.922 86.28 214.589 86.52C215.256 86.7467 215.956 86.86 216.689 86.86C217.689 86.86 218.409 86.7067 218.849 86.4C219.289 86.08 219.509 85.66 219.509 85.14C219.509 84.7533 219.382 84.4533 219.129 84.24C218.889 84.0133 218.569 83.8467 218.169 83.74C217.769 83.62 217.322 83.52 216.829 83.44C216.336 83.36 215.842 83.2667 215.349 83.16C214.869 83.0533 214.429 82.9 214.029 82.7C213.629 82.4867 213.302 82.2 213.049 81.84C212.809 81.48 212.689 81 212.689 80.4C212.689 79.8267 212.849 79.3133 213.169 78.86C213.489 78.4067 213.956 78.0533 214.569 77.8C215.196 77.5333 215.956 77.4 216.849 77.4C217.529 77.4 218.209 77.4933 218.889 77.68C219.569 77.8533 220.129 78.0867 220.569 78.38L219.949 79.52C219.482 79.2 218.982 78.9733 218.449 78.84C217.916 78.6933 217.382 78.62 216.849 78.62C215.902 78.62 215.202 78.7867 214.749 79.12C214.309 79.44 214.089 79.8533 214.089 80.36C214.089 80.76 214.209 81.0733 214.449 81.3C214.702 81.5267 215.029 81.7067 215.429 81.84C215.842 81.96 216.289 82.06 216.769 82.14C217.262 82.22 217.749 82.32 218.229 82.44C218.722 82.5467 219.169 82.7 219.569 82.9C219.982 83.0867 220.309 83.36 220.549 83.72C220.802 84.0667 220.929 84.5267 220.929 85.1C220.929 85.7133 220.756 86.2467 220.409 86.7C220.076 87.14 219.582 87.4867 218.929 87.74C218.289 87.98 217.509 88.1 216.589 88.1ZM227.995 88.1C226.901 88.1 225.941 87.8733 225.115 87.42C224.288 86.9533 223.641 86.32 223.175 85.52C222.708 84.7067 222.475 83.78 222.475 82.74C222.475 81.7 222.695 80.78 223.135 79.98C223.588 79.18 224.201 78.5533 224.975 78.1C225.761 77.6333 226.641 77.4 227.615 77.4C228.601 77.4 229.475 77.6267 230.235 78.08C231.008 78.52 231.615 79.1467 232.055 79.96C232.495 80.76 232.715 81.6867 232.715 82.74C232.715 82.8067 232.708 82.88 232.695 82.96C232.695 83.0267 232.695 83.1 232.695 83.18H223.555V82.12H231.935L231.375 82.54C231.375 81.78 231.208 81.1067 230.875 80.52C230.555 79.92 230.115 79.4533 229.555 79.12C228.995 78.7867 228.348 78.62 227.615 78.62C226.895 78.62 226.248 78.7867 225.675 79.12C225.101 79.4533 224.655 79.92 224.335 80.52C224.015 81.12 223.855 81.8067 223.855 82.58V82.8C223.855 83.6 224.028 84.3067 224.375 84.92C224.735 85.52 225.228 85.9933 225.855 86.34C226.495 86.6733 227.221 86.84 228.035 86.84C228.675 86.84 229.268 86.7267 229.815 86.5C230.375 86.2733 230.855 85.9267 231.255 85.46L232.055 86.38C231.588 86.94 231.001 87.3667 230.295 87.66C229.601 87.9533 228.835 88.1 227.995 88.1ZM247.419 88V85.68L247.359 85.3V81.42C247.359 80.5267 247.106 79.84 246.599 79.36C246.106 78.88 245.366 78.64 244.379 78.64C243.699 78.64 243.053 78.7533 242.439 78.98C241.826 79.2067 241.306 79.5067 240.879 79.88L240.239 78.82C240.773 78.3667 241.413 78.02 242.159 77.78C242.906 77.5267 243.693 77.4 244.519 77.4C245.879 77.4 246.926 77.74 247.659 78.42C248.406 79.0867 248.779 80.1067 248.779 81.48V88H247.419ZM243.799 88.1C243.013 88.1 242.326 87.9733 241.739 87.72C241.166 87.4533 240.726 87.0933 240.419 86.64C240.113 86.1733 239.959 85.64 239.959 85.04C239.959 84.4933 240.086 84 240.339 83.56C240.606 83.1067 241.033 82.7467 241.619 82.48C242.219 82.2 243.019 82.06 244.019 82.06H247.639V83.12H244.059C243.046 83.12 242.339 83.3 241.939 83.66C241.553 84.02 241.359 84.4667 241.359 85C241.359 85.6 241.593 86.08 242.059 86.44C242.526 86.8 243.179 86.98 244.019 86.98C244.819 86.98 245.506 86.8 246.079 86.44C246.666 86.0667 247.093 85.5333 247.359 84.84L247.679 85.82C247.413 86.5133 246.946 87.0667 246.279 87.48C245.626 87.8933 244.799 88.1 243.799 88.1ZM252.636 88V73.16H254.056V88H252.636ZM271.127 77.4C271.981 77.4 272.721 77.5667 273.347 77.9C273.987 78.22 274.481 78.7133 274.827 79.38C275.187 80.0467 275.367 80.8867 275.367 81.9V88H273.947V82.04C273.947 80.9333 273.681 80.1 273.147 79.54C272.627 78.9667 271.887 78.68 270.927 78.68C270.207 78.68 269.581 78.8333 269.047 79.14C268.527 79.4333 268.121 79.8667 267.827 80.44C267.547 81 267.407 81.68 267.407 82.48V88H265.987V82.04C265.987 80.9333 265.721 80.1 265.187 79.54C264.654 78.9667 263.907 78.68 262.947 78.68C262.241 78.68 261.621 78.8333 261.087 79.14C260.554 79.4333 260.141 79.8667 259.847 80.44C259.567 81 259.427 81.68 259.427 82.48V88H258.007V77.5H259.367V80.34L259.147 79.84C259.467 79.08 259.981 78.4867 260.687 78.06C261.407 77.62 262.254 77.4 263.227 77.4C264.254 77.4 265.127 77.66 265.847 78.18C266.567 78.6867 267.034 79.4533 267.247 80.48L266.687 80.26C266.994 79.4067 267.534 78.72 268.307 78.2C269.094 77.6667 270.034 77.4 271.127 77.4ZM285.798 88V85.68L285.738 85.3V81.42C285.738 80.5267 285.485 79.84 284.978 79.36C284.485 78.88 283.745 78.64 282.758 78.64C282.078 78.64 281.432 78.7533 280.818 78.98C280.205 79.2067 279.685 79.5067 279.258 79.88L278.618 78.82C279.152 78.3667 279.792 78.02 280.538 77.78C281.285 77.5267 282.072 77.4 282.898 77.4C284.258 77.4 285.305 77.74 286.038 78.42C286.785 79.0867 287.158 80.1067 287.158 81.48V88H285.798ZM282.178 88.1C281.392 88.1 280.705 87.9733 280.118 87.72C279.545 87.4533 279.105 87.0933 278.798 86.64C278.492 86.1733 278.338 85.64 278.338 85.04C278.338 84.4933 278.465 84 278.718 83.56C278.985 83.1067 279.412 82.7467 279.998 82.48C280.598 82.2 281.398 82.06 282.398 82.06H286.018V83.12H282.438C281.425 83.12 280.718 83.3 280.318 83.66C279.932 84.02 279.738 84.4667 279.738 85C279.738 85.6 279.972 86.08 280.438 86.44C280.905 86.8 281.558 86.98 282.398 86.98C283.198 86.98 283.885 86.8 284.458 86.44C285.045 86.0667 285.472 85.5333 285.738 84.84L286.058 85.82C285.792 86.5133 285.325 87.0667 284.658 87.48C284.005 87.8933 283.178 88.1 282.178 88.1ZM295.375 88.1C294.335 88.1 293.402 87.8733 292.575 87.42C291.762 86.9533 291.122 86.32 290.655 85.52C290.188 84.7067 289.955 83.78 289.955 82.74C289.955 81.6867 290.188 80.76 290.655 79.96C291.122 79.16 291.762 78.5333 292.575 78.08C293.402 77.6267 294.335 77.4 295.375 77.4C296.268 77.4 297.075 77.5733 297.795 77.92C298.515 78.2667 299.082 78.7867 299.495 79.48L298.435 80.2C298.075 79.6667 297.628 79.2733 297.095 79.02C296.562 78.7667 295.982 78.64 295.355 78.64C294.608 78.64 293.935 78.8133 293.335 79.16C292.735 79.4933 292.262 79.9667 291.915 80.58C291.568 81.1933 291.395 81.9133 291.395 82.74C291.395 83.5667 291.568 84.2867 291.915 84.9C292.262 85.5133 292.735 85.9933 293.335 86.34C293.935 86.6733 294.608 86.84 295.355 86.84C295.982 86.84 296.562 86.7133 297.095 86.46C297.628 86.2067 298.075 85.82 298.435 85.3L299.495 86.02C299.082 86.7 298.515 87.22 297.795 87.58C297.075 87.9267 296.268 88.1 295.375 88.1ZM306.569 88.1C305.476 88.1 304.516 87.8733 303.689 87.42C302.862 86.9533 302.216 86.32 301.749 85.52C301.282 84.7067 301.049 83.78 301.049 82.74C301.049 81.7 301.269 80.78 301.709 79.98C302.162 79.18 302.776 78.5533 303.549 78.1C304.336 77.6333 305.216 77.4 306.189 77.4C307.176 77.4 308.049 77.6267 308.809 78.08C309.582 78.52 310.189 79.1467 310.629 79.96C311.069 80.76 311.289 81.6867 311.289 82.74C311.289 82.8067 311.282 82.88 311.269 82.96C311.269 83.0267 311.269 83.1 311.269 83.18H302.129V82.12H310.509L309.949 82.54C309.949 81.78 309.782 81.1067 309.449 80.52C309.129 79.92 308.689 79.4533 308.129 79.12C307.569 78.7867 306.922 78.62 306.189 78.62C305.469 78.62 304.822 78.7867 304.249 79.12C303.676 79.4533 303.229 79.92 302.909 80.52C302.589 81.12 302.429 81.8067 302.429 82.58V82.8C302.429 83.6 302.602 84.3067 302.949 84.92C303.309 85.52 303.802 85.9933 304.429 86.34C305.069 86.6733 305.796 86.84 306.609 86.84C307.249 86.84 307.842 86.7267 308.389 86.5C308.949 86.2733 309.429 85.9267 309.829 85.46L310.629 86.38C310.162 86.94 309.576 87.3667 308.869 87.66C308.176 87.9533 307.409 88.1 306.569 88.1ZM319.539 77.4C320.393 77.4 321.139 77.5667 321.779 77.9C322.433 78.22 322.939 78.7133 323.299 79.38C323.673 80.0467 323.859 80.8867 323.859 81.9V88H322.439V82.04C322.439 80.9333 322.159 80.1 321.599 79.54C321.053 78.9667 320.279 78.68 319.279 78.68C318.533 78.68 317.879 78.8333 317.319 79.14C316.773 79.4333 316.346 79.8667 316.039 80.44C315.746 81 315.599 81.68 315.599 82.48V88H314.179V77.5H315.539V80.38L315.319 79.84C315.653 79.08 316.186 78.4867 316.919 78.06C317.653 77.62 318.526 77.4 319.539 77.4ZM334.275 88V85.68L334.215 85.3V81.42C334.215 80.5267 333.962 79.84 333.455 79.36C332.962 78.88 332.222 78.64 331.235 78.64C330.555 78.64 329.908 78.7533 329.295 78.98C328.682 79.2067 328.162 79.5067 327.735 79.88L327.095 78.82C327.628 78.3667 328.268 78.02 329.015 77.78C329.762 77.5267 330.548 77.4 331.375 77.4C332.735 77.4 333.782 77.74 334.515 78.42C335.262 79.0867 335.635 80.1067 335.635 81.48V88H334.275ZM330.655 88.1C329.868 88.1 329.182 87.9733 328.595 87.72C328.022 87.4533 327.582 87.0933 327.275 86.64C326.968 86.1733 326.815 85.64 326.815 85.04C326.815 84.4933 326.942 84 327.195 83.56C327.462 83.1067 327.888 82.7467 328.475 82.48C329.075 82.2 329.875 82.06 330.875 82.06H334.495V83.12H330.915C329.902 83.12 329.195 83.3 328.795 83.66C328.408 84.02 328.215 84.4667 328.215 85C328.215 85.6 328.448 86.08 328.915 86.44C329.382 86.8 330.035 86.98 330.875 86.98C331.675 86.98 332.362 86.8 332.935 86.44C333.522 86.0667 333.948 85.5333 334.215 84.84L334.535 85.82C334.268 86.5133 333.802 87.0667 333.135 87.48C332.482 87.8933 331.655 88.1 330.655 88.1ZM350.146 88.1C349.239 88.1 348.419 87.8933 347.686 87.48C346.953 87.0533 346.366 86.4467 345.926 85.66C345.499 84.86 345.286 83.8867 345.286 82.74C345.286 81.5933 345.499 80.6267 345.926 79.84C346.353 79.04 346.933 78.4333 347.666 78.02C348.399 77.6067 349.226 77.4 350.146 77.4C351.146 77.4 352.039 77.6267 352.826 78.08C353.626 78.52 354.253 79.1467 354.706 79.96C355.159 80.76 355.386 81.6867 355.386 82.74C355.386 83.8067 355.159 84.74 354.706 85.54C354.253 86.34 353.626 86.9667 352.826 87.42C352.039 87.8733 351.146 88.1 350.146 88.1ZM344.726 91.88V77.5H346.086V80.66L345.946 82.76L346.146 84.88V91.88H344.726ZM350.046 86.84C350.793 86.84 351.459 86.6733 352.046 86.34C352.633 85.9933 353.099 85.5133 353.446 84.9C353.793 84.2733 353.966 83.5533 353.966 82.74C353.966 81.9267 353.793 81.2133 353.446 80.6C353.099 79.9867 352.633 79.5067 352.046 79.16C351.459 78.8133 350.793 78.64 350.046 78.64C349.299 78.64 348.626 78.8133 348.026 79.16C347.439 79.5067 346.973 79.9867 346.626 80.6C346.293 81.2133 346.126 81.9267 346.126 82.74C346.126 83.5533 346.293 84.2733 346.626 84.9C346.973 85.5133 347.439 85.9933 348.026 86.34C348.626 86.6733 349.299 86.84 350.046 86.84ZM362.561 88.1C361.547 88.1 360.634 87.8733 359.821 87.42C359.021 86.9533 358.387 86.32 357.921 85.52C357.454 84.7067 357.221 83.78 357.221 82.74C357.221 81.6867 357.454 80.76 357.921 79.96C358.387 79.16 359.021 78.5333 359.821 78.08C360.621 77.6267 361.534 77.4 362.561 77.4C363.601 77.4 364.521 77.6267 365.321 78.08C366.134 78.5333 366.767 79.16 367.221 79.96C367.687 80.76 367.921 81.6867 367.921 82.74C367.921 83.78 367.687 84.7067 367.221 85.52C366.767 86.32 366.134 86.9533 365.321 87.42C364.507 87.8733 363.587 88.1 362.561 88.1ZM362.561 86.84C363.321 86.84 363.994 86.6733 364.581 86.34C365.167 85.9933 365.627 85.5133 365.961 84.9C366.307 84.2733 366.481 83.5533 366.481 82.74C366.481 81.9133 366.307 81.1933 365.961 80.58C365.627 79.9667 365.167 79.4933 364.581 79.16C363.994 78.8133 363.327 78.64 362.581 78.64C361.834 78.64 361.167 78.8133 360.581 79.16C359.994 79.4933 359.527 79.9667 359.181 80.58C358.834 81.1933 358.661 81.9133 358.661 82.74C358.661 83.5533 358.834 84.2733 359.181 84.9C359.527 85.5133 359.994 85.9933 360.581 86.34C361.167 86.6733 361.827 86.84 362.561 86.84ZM373.64 88.1C372.773 88.1 371.953 87.98 371.18 87.74C370.407 87.4867 369.8 87.1733 369.36 86.8L370 85.68C370.427 86 370.973 86.28 371.64 86.52C372.307 86.7467 373.007 86.86 373.74 86.86C374.74 86.86 375.46 86.7067 375.9 86.4C376.34 86.08 376.56 85.66 376.56 85.14C376.56 84.7533 376.433 84.4533 376.18 84.24C375.94 84.0133 375.62 83.8467 375.22 83.74C374.82 83.62 374.373 83.52 373.88 83.44C373.387 83.36 372.893 83.2667 372.4 83.16C371.92 83.0533 371.48 82.9 371.08 82.7C370.68 82.4867 370.353 82.2 370.1 81.84C369.86 81.48 369.74 81 369.74 80.4C369.74 79.8267 369.9 79.3133 370.22 78.86C370.54 78.4067 371.007 78.0533 371.62 77.8C372.247 77.5333 373.007 77.4 373.9 77.4C374.58 77.4 375.26 77.4933 375.94 77.68C376.62 77.8533 377.18 78.0867 377.62 78.38L377 79.52C376.533 79.2 376.033 78.9733 375.5 78.84C374.967 78.6933 374.433 78.62 373.9 78.62C372.953 78.62 372.253 78.7867 371.8 79.12C371.36 79.44 371.14 79.8533 371.14 80.36C371.14 80.76 371.26 81.0733 371.5 81.3C371.753 81.5267 372.08 81.7067 372.48 81.84C372.893 81.96 373.34 82.06 373.82 82.14C374.313 82.22 374.8 82.32 375.28 82.44C375.773 82.5467 376.22 82.7 376.62 82.9C377.033 83.0867 377.36 83.36 377.6 83.72C377.853 84.0667 377.98 84.5267 377.98 85.1C377.98 85.7133 377.807 86.2467 377.46 86.7C377.127 87.14 376.633 87.4867 375.98 87.74C375.34 87.98 374.56 88.1 373.64 88.1ZM383.905 88.1C382.919 88.1 382.159 87.8333 381.625 87.3C381.092 86.7667 380.825 86.0133 380.825 85.04V75.18H382.245V84.96C382.245 85.5733 382.399 86.0467 382.705 86.38C383.025 86.7133 383.479 86.88 384.065 86.88C384.692 86.88 385.212 86.7 385.625 86.34L386.125 87.36C385.845 87.6133 385.505 87.8 385.105 87.92C384.719 88.04 384.319 88.1 383.905 88.1ZM378.945 78.68V77.5H385.445V78.68H378.945ZM392.799 88.1C391.706 88.1 390.746 87.8733 389.919 87.42C389.093 86.9533 388.446 86.32 387.979 85.52C387.513 84.7067 387.279 83.78 387.279 82.74C387.279 81.7 387.499 80.78 387.939 79.98C388.393 79.18 389.006 78.5533 389.779 78.1C390.566 77.6333 391.446 77.4 392.419 77.4C393.406 77.4 394.279 77.6267 395.039 78.08C395.813 78.52 396.419 79.1467 396.859 79.96C397.299 80.76 397.519 81.6867 397.519 82.74C397.519 82.8067 397.513 82.88 397.499 82.96C397.499 83.0267 397.499 83.1 397.499 83.18H388.359V82.12H396.739L396.179 82.54C396.179 81.78 396.013 81.1067 395.679 80.52C395.359 79.92 394.919 79.4533 394.359 79.12C393.799 78.7867 393.153 78.62 392.419 78.62C391.699 78.62 391.053 78.7867 390.479 79.12C389.906 79.4533 389.459 79.92 389.139 80.52C388.819 81.12 388.659 81.8067 388.659 82.58V82.8C388.659 83.6 388.833 84.3067 389.179 84.92C389.539 85.52 390.033 85.9933 390.659 86.34C391.299 86.6733 392.026 86.84 392.839 86.84C393.479 86.84 394.073 86.7267 394.619 86.5C395.179 86.2733 395.659 85.9267 396.059 85.46L396.859 86.38C396.393 86.94 395.806 87.3667 395.099 87.66C394.406 87.9533 393.639 88.1 392.799 88.1ZM400.41 88V77.5H401.77V80.36L401.63 79.86C401.923 79.06 402.416 78.4533 403.11 78.04C403.803 77.6133 404.663 77.4 405.69 77.4V78.78C405.636 78.78 405.583 78.78 405.53 78.78C405.476 78.7667 405.423 78.76 405.37 78.76C404.263 78.76 403.396 79.1 402.77 79.78C402.143 80.4467 401.83 81.4 401.83 82.64V88H400.41ZM408.281 88V77.5H409.701V88H408.281ZM409.001 75.18C408.707 75.18 408.461 75.08 408.261 74.88C408.061 74.68 407.961 74.44 407.961 74.16C407.961 73.88 408.061 73.6467 408.261 73.46C408.461 73.26 408.707 73.16 409.001 73.16C409.294 73.16 409.541 73.2533 409.741 73.44C409.941 73.6267 410.041 73.86 410.041 74.14C410.041 74.4333 409.941 74.68 409.741 74.88C409.554 75.08 409.307 75.18 409.001 75.18ZM417.932 88.1C416.919 88.1 416.005 87.8733 415.192 87.42C414.392 86.9533 413.759 86.32 413.292 85.52C412.825 84.7067 412.592 83.78 412.592 82.74C412.592 81.6867 412.825 80.76 413.292 79.96C413.759 79.16 414.392 78.5333 415.192 78.08C415.992 77.6267 416.905 77.4 417.932 77.4C418.972 77.4 419.892 77.6267 420.692 78.08C421.505 78.5333 422.139 79.16 422.592 79.96C423.059 80.76 423.292 81.6867 423.292 82.74C423.292 83.78 423.059 84.7067 422.592 85.52C422.139 86.32 421.505 86.9533 420.692 87.42C419.879 87.8733 418.959 88.1 417.932 88.1ZM417.932 86.84C418.692 86.84 419.365 86.6733 419.952 86.34C420.539 85.9933 420.999 85.5133 421.332 84.9C421.679 84.2733 421.852 83.5533 421.852 82.74C421.852 81.9133 421.679 81.1933 421.332 80.58C420.999 79.9667 420.539 79.4933 419.952 79.16C419.365 78.8133 418.699 78.64 417.952 78.64C417.205 78.64 416.539 78.8133 415.952 79.16C415.365 79.4933 414.899 79.9667 414.552 80.58C414.205 81.1933 414.032 81.9133 414.032 82.74C414.032 83.5533 414.205 84.2733 414.552 84.9C414.899 85.5133 415.365 85.9933 415.952 86.34C416.539 86.6733 417.199 86.84 417.932 86.84ZM426.191 88V77.5H427.551V80.36L427.411 79.86C427.704 79.06 428.198 78.4533 428.891 78.04C429.584 77.6133 430.444 77.4 431.471 77.4V78.78C431.418 78.78 431.364 78.78 431.311 78.78C431.258 78.7667 431.204 78.76 431.151 78.76C430.044 78.76 429.178 79.1 428.551 79.78C427.924 80.4467 427.611 81.4 427.611 82.64V88H426.191ZM447.182 77.4C448.035 77.4 448.775 77.5667 449.402 77.9C450.042 78.22 450.535 78.7133 450.882 79.38C451.242 80.0467 451.422 80.8867 451.422 81.9V88H450.002V82.04C450.002 80.9333 449.735 80.1 449.202 79.54C448.682 78.9667 447.942 78.68 446.982 78.68C446.262 78.68 445.635 78.8333 445.102 79.14C444.582 79.4333 444.175 79.8667 443.882 80.44C443.602 81 443.462 81.68 443.462 82.48V88H442.042V82.04C442.042 80.9333 441.775 80.1 441.242 79.54C440.709 78.9667 439.962 78.68 439.002 78.68C438.295 78.68 437.675 78.8333 437.142 79.14C436.609 79.4333 436.195 79.8667 435.902 80.44C435.622 81 435.482 81.68 435.482 82.48V88H434.062V77.5H435.422V80.34L435.202 79.84C435.522 79.08 436.035 78.4867 436.742 78.06C437.462 77.62 438.309 77.4 439.282 77.4C440.309 77.4 441.182 77.66 441.902 78.18C442.622 78.6867 443.089 79.4533 443.302 80.48L442.742 80.26C443.049 79.4067 443.589 78.72 444.362 78.2C445.149 77.6667 446.089 77.4 447.182 77.4ZM459.733 88.1C458.64 88.1 457.68 87.8733 456.853 87.42C456.026 86.9533 455.38 86.32 454.913 85.52C454.446 84.7067 454.213 83.78 454.213 82.74C454.213 81.7 454.433 80.78 454.873 79.98C455.326 79.18 455.94 78.5533 456.713 78.1C457.5 77.6333 458.38 77.4 459.353 77.4C460.34 77.4 461.213 77.6267 461.973 78.08C462.746 78.52 463.353 79.1467 463.793 79.96C464.233 80.76 464.453 81.6867 464.453 82.74C464.453 82.8067 464.446 82.88 464.433 82.96C464.433 83.0267 464.433 83.1 464.433 83.18H455.293V82.12H463.673L463.113 82.54C463.113 81.78 462.946 81.1067 462.613 80.52C462.293 79.92 461.853 79.4533 461.293 79.12C460.733 78.7867 460.086 78.62 459.353 78.62C458.633 78.62 457.986 78.7867 457.413 79.12C456.84 79.4533 456.393 79.92 456.073 80.52C455.753 81.12 455.593 81.8067 455.593 82.58V82.8C455.593 83.6 455.766 84.3067 456.113 84.92C456.473 85.52 456.966 85.9933 457.593 86.34C458.233 86.6733 458.96 86.84 459.773 86.84C460.413 86.84 461.006 86.7267 461.553 86.5C462.113 86.2733 462.593 85.9267 462.993 85.46L463.793 86.38C463.326 86.94 462.74 87.3667 462.033 87.66C461.34 87.9533 460.573 88.1 459.733 88.1ZM472.703 77.4C473.557 77.4 474.303 77.5667 474.943 77.9C475.597 78.22 476.103 78.7133 476.463 79.38C476.837 80.0467 477.023 80.8867 477.023 81.9V88H475.603V82.04C475.603 80.9333 475.323 80.1 474.763 79.54C474.217 78.9667 473.443 78.68 472.443 78.68C471.697 78.68 471.043 78.8333 470.483 79.14C469.937 79.4333 469.51 79.8667 469.203 80.44C468.91 81 468.763 81.68 468.763 82.48V88H467.343V77.5H468.703V80.38L468.483 79.84C468.817 79.08 469.35 78.4867 470.083 78.06C470.817 77.62 471.69 77.4 472.703 77.4ZM484.179 88.1C483.192 88.1 482.432 87.8333 481.899 87.3C481.366 86.7667 481.099 86.0133 481.099 85.04V75.18H482.519V84.96C482.519 85.5733 482.672 86.0467 482.979 86.38C483.299 86.7133 483.752 86.88 484.339 86.88C484.966 86.88 485.486 86.7 485.899 86.34L486.399 87.36C486.119 87.6133 485.779 87.8 485.379 87.92C484.992 88.04 484.592 88.1 484.179 88.1ZM479.219 78.68V77.5H485.719V78.68H479.219ZM493.073 88.1C491.979 88.1 491.019 87.8733 490.193 87.42C489.366 86.9533 488.719 86.32 488.253 85.52C487.786 84.7067 487.553 83.78 487.553 82.74C487.553 81.7 487.773 80.78 488.213 79.98C488.666 79.18 489.279 78.5533 490.053 78.1C490.839 77.6333 491.719 77.4 492.693 77.4C493.679 77.4 494.553 77.6267 495.313 78.08C496.086 78.52 496.693 79.1467 497.133 79.96C497.573 80.76 497.793 81.6867 497.793 82.74C497.793 82.8067 497.786 82.88 497.773 82.96C497.773 83.0267 497.773 83.1 497.773 83.18H488.633V82.12H497.013L496.453 82.54C496.453 81.78 496.286 81.1067 495.953 80.52C495.633 79.92 495.193 79.4533 494.633 79.12C494.073 78.7867 493.426 78.62 492.693 78.62C491.973 78.62 491.326 78.7867 490.753 79.12C490.179 79.4533 489.733 79.92 489.413 80.52C489.093 81.12 488.933 81.8067 488.933 82.58V82.8C488.933 83.6 489.106 84.3067 489.453 84.92C489.813 85.52 490.306 85.9933 490.933 86.34C491.573 86.6733 492.299 86.84 493.113 86.84C493.753 86.84 494.346 86.7267 494.893 86.5C495.453 86.2733 495.933 85.9267 496.333 85.46L497.133 86.38C496.666 86.94 496.079 87.3667 495.373 87.66C494.679 87.9533 493.913 88.1 493.073 88.1ZM84.44 112.1C83.3467 112.1 82.3867 111.873 81.56 111.42C80.7333 110.953 80.0867 110.32 79.62 109.52C79.1533 108.707 78.92 107.78 78.92 106.74C78.92 105.7 79.14 104.78 79.58 103.98C80.0333 103.18 80.6467 102.553 81.42 102.1C82.2067 101.633 83.0867 101.4 84.06 101.4C85.0467 101.4 85.92 101.627 86.68 102.08C87.4533 102.52 88.06 103.147 88.5 103.96C88.94 104.76 89.16 105.687 89.16 106.74C89.16 106.807 89.1533 106.88 89.14 106.96C89.14 107.027 89.14 107.1 89.14 107.18H80V106.12H88.38L87.82 106.54C87.82 105.78 87.6533 105.107 87.32 104.52C87 103.92 86.56 103.453 86 103.12C85.44 102.787 84.7933 102.62 84.06 102.62C83.34 102.62 82.6933 102.787 82.12 103.12C81.5467 103.453 81.1 103.92 80.78 104.52C80.46 105.12 80.3 105.807 80.3 106.58V106.8C80.3 107.6 80.4733 108.307 80.82 108.92C81.18 109.52 81.6733 109.993 82.3 110.34C82.94 110.673 83.6667 110.84 84.48 110.84C85.12 110.84 85.7133 110.727 86.26 110.5C86.82 110.273 87.3 109.927 87.7 109.46L88.5 110.38C88.0333 110.94 87.4467 111.367 86.74 111.66C86.0467 111.953 85.28 112.1 84.44 112.1ZM97.4103 101.4C98.2636 101.4 99.0103 101.567 99.6503 101.9C100.304 102.22 100.81 102.713 101.17 103.38C101.544 104.047 101.73 104.887 101.73 105.9V112H100.31V106.04C100.31 104.933 100.03 104.1 99.4703 103.54C98.9236 102.967 98.1503 102.68 97.1503 102.68C96.4036 102.68 95.7503 102.833 95.1903 103.14C94.6436 103.433 94.217 103.867 93.9103 104.44C93.617 105 93.4703 105.68 93.4703 106.48V112H92.0503V101.5H93.4103V104.38L93.1903 103.84C93.5236 103.08 94.057 102.487 94.7903 102.06C95.5236 101.62 96.397 101.4 97.4103 101.4ZM110.8 112V101.5H112.16V104.36L112.02 103.86C112.314 103.06 112.807 102.453 113.5 102.04C114.194 101.613 115.054 101.4 116.08 101.4V102.78C116.027 102.78 115.974 102.78 115.92 102.78C115.867 102.767 115.814 102.76 115.76 102.76C114.654 102.76 113.787 103.1 113.16 103.78C112.534 104.447 112.22 105.4 112.22 106.64V112H110.8ZM123.034 112.1C121.94 112.1 120.98 111.873 120.154 111.42C119.327 110.953 118.68 110.32 118.214 109.52C117.747 108.707 117.514 107.78 117.514 106.74C117.514 105.7 117.734 104.78 118.174 103.98C118.627 103.18 119.24 102.553 120.014 102.1C120.8 101.633 121.68 101.4 122.654 101.4C123.64 101.4 124.514 101.627 125.274 102.08C126.047 102.52 126.654 103.147 127.094 103.96C127.534 104.76 127.754 105.687 127.754 106.74C127.754 106.807 127.747 106.88 127.734 106.96C127.734 107.027 127.734 107.1 127.734 107.18H118.594V106.12H126.974L126.414 106.54C126.414 105.78 126.247 105.107 125.914 104.52C125.594 103.92 125.154 103.453 124.594 103.12C124.034 102.787 123.387 102.62 122.654 102.62C121.934 102.62 121.287 102.787 120.714 103.12C120.14 103.453 119.694 103.92 119.374 104.52C119.054 105.12 118.894 105.807 118.894 106.58V106.8C118.894 107.6 119.067 108.307 119.414 108.92C119.774 109.52 120.267 109.993 120.894 110.34C121.534 110.673 122.26 110.84 123.074 110.84C123.714 110.84 124.307 110.727 124.854 110.5C125.414 110.273 125.894 109.927 126.294 109.46L127.094 110.38C126.627 110.94 126.04 111.367 125.334 111.66C124.64 111.953 123.874 112.1 123.034 112.1ZM135.004 112.1C133.964 112.1 133.031 111.873 132.204 111.42C131.391 110.953 130.751 110.32 130.284 109.52C129.817 108.707 129.584 107.78 129.584 106.74C129.584 105.687 129.817 104.76 130.284 103.96C130.751 103.16 131.391 102.533 132.204 102.08C133.031 101.627 133.964 101.4 135.004 101.4C135.897 101.4 136.704 101.573 137.424 101.92C138.144 102.267 138.711 102.787 139.124 103.48L138.064 104.2C137.704 103.667 137.257 103.273 136.724 103.02C136.191 102.767 135.611 102.64 134.984 102.64C134.237 102.64 133.564 102.813 132.964 103.16C132.364 103.493 131.891 103.967 131.544 104.58C131.197 105.193 131.024 105.913 131.024 106.74C131.024 107.567 131.197 108.287 131.544 108.9C131.891 109.513 132.364 109.993 132.964 110.34C133.564 110.673 134.237 110.84 134.984 110.84C135.611 110.84 136.191 110.713 136.724 110.46C137.257 110.207 137.704 109.82 138.064 109.3L139.124 110.02C138.711 110.7 138.144 111.22 137.424 111.58C136.704 111.927 135.897 112.1 135.004 112.1ZM141.757 112V101.5H143.177V112H141.757ZM142.477 99.18C142.184 99.18 141.937 99.08 141.737 98.88C141.537 98.68 141.437 98.44 141.437 98.16C141.437 97.88 141.537 97.6467 141.737 97.46C141.937 97.26 142.184 97.16 142.477 97.16C142.771 97.16 143.017 97.2533 143.217 97.44C143.417 97.6267 143.517 97.86 143.517 98.14C143.517 98.4333 143.417 98.68 143.217 98.88C143.031 99.08 142.784 99.18 142.477 99.18ZM152.488 101.4C153.342 101.4 154.088 101.567 154.728 101.9C155.382 102.22 155.888 102.713 156.248 103.38C156.622 104.047 156.808 104.887 156.808 105.9V112H155.388V106.04C155.388 104.933 155.108 104.1 154.548 103.54C154.002 102.967 153.228 102.68 152.228 102.68C151.482 102.68 150.828 102.833 150.268 103.14C149.722 103.433 149.295 103.867 148.988 104.44C148.695 105 148.548 105.68 148.548 106.48V112H147.128V101.5H148.488V104.38L148.268 103.84C148.602 103.08 149.135 102.487 149.868 102.06C150.602 101.62 151.475 101.4 152.488 101.4ZM163.964 112.1C162.977 112.1 162.217 111.833 161.684 111.3C161.151 110.767 160.884 110.013 160.884 109.04V99.18H162.304V108.96C162.304 109.573 162.457 110.047 162.764 110.38C163.084 110.713 163.537 110.88 164.124 110.88C164.751 110.88 165.271 110.7 165.684 110.34L166.184 111.36C165.904 111.613 165.564 111.8 165.164 111.92C164.777 112.04 164.377 112.1 163.964 112.1ZM159.004 102.68V101.5H165.504V102.68H159.004ZM172.678 112.1C171.665 112.1 170.751 111.873 169.938 111.42C169.138 110.953 168.505 110.32 168.038 109.52C167.571 108.707 167.338 107.78 167.338 106.74C167.338 105.687 167.571 104.76 168.038 103.96C168.505 103.16 169.138 102.533 169.938 102.08C170.738 101.627 171.651 101.4 172.678 101.4C173.718 101.4 174.638 101.627 175.438 102.08C176.251 102.533 176.885 103.16 177.338 103.96C177.805 104.76 178.038 105.687 178.038 106.74C178.038 107.78 177.805 108.707 177.338 109.52C176.885 110.32 176.251 110.953 175.438 111.42C174.625 111.873 173.705 112.1 172.678 112.1ZM172.678 110.84C173.438 110.84 174.111 110.673 174.698 110.34C175.285 109.993 175.745 109.513 176.078 108.9C176.425 108.273 176.598 107.553 176.598 106.74C176.598 105.913 176.425 105.193 176.078 104.58C175.745 103.967 175.285 103.493 174.698 103.16C174.111 102.813 173.445 102.64 172.698 102.64C171.951 102.64 171.285 102.813 170.698 103.16C170.111 103.493 169.645 103.967 169.298 104.58C168.951 105.193 168.778 105.913 168.778 106.74C168.778 107.553 168.951 108.273 169.298 108.9C169.645 109.513 170.111 109.993 170.698 110.34C171.285 110.673 171.945 110.84 172.678 110.84ZM183.757 112.1C182.89 112.1 182.07 111.98 181.297 111.74C180.524 111.487 179.917 111.173 179.477 110.8L180.117 109.68C180.544 110 181.09 110.28 181.757 110.52C182.424 110.747 183.124 110.86 183.857 110.86C184.857 110.86 185.577 110.707 186.017 110.4C186.457 110.08 186.677 109.66 186.677 109.14C186.677 108.753 186.55 108.453 186.297 108.24C186.057 108.013 185.737 107.847 185.337 107.74C184.937 107.62 184.49 107.52 183.997 107.44C183.504 107.36 183.01 107.267 182.517 107.16C182.037 107.053 181.597 106.9 181.197 106.7C180.797 106.487 180.47 106.2 180.217 105.84C179.977 105.48 179.857 105 179.857 104.4C179.857 103.827 180.017 103.313 180.337 102.86C180.657 102.407 181.124 102.053 181.737 101.8C182.364 101.533 183.124 101.4 184.017 101.4C184.697 101.4 185.377 101.493 186.057 101.68C186.737 101.853 187.297 102.087 187.737 102.38L187.117 103.52C186.65 103.2 186.15 102.973 185.617 102.84C185.084 102.693 184.55 102.62 184.017 102.62C183.07 102.62 182.37 102.787 181.917 103.12C181.477 103.44 181.257 103.853 181.257 104.36C181.257 104.76 181.377 105.073 181.617 105.3C181.87 105.527 182.197 105.707 182.597 105.84C183.01 105.96 183.457 106.06 183.937 106.14C184.43 106.22 184.917 106.32 185.397 106.44C185.89 106.547 186.337 106.7 186.737 106.9C187.15 107.087 187.477 107.36 187.717 107.72C187.97 108.067 188.097 108.527 188.097 109.1C188.097 109.713 187.924 110.247 187.577 110.7C187.244 111.14 186.75 111.487 186.097 111.74C185.457 111.98 184.677 112.1 183.757 112.1ZM196.017 115.98C195.524 115.98 195.05 115.9 194.597 115.74C194.157 115.58 193.777 115.34 193.457 115.02L194.117 113.96C194.384 114.213 194.67 114.407 194.977 114.54C195.297 114.687 195.65 114.76 196.037 114.76C196.504 114.76 196.904 114.627 197.237 114.36C197.584 114.107 197.91 113.653 198.217 113L198.897 111.46L199.057 111.24L203.377 101.5H204.777L199.517 113.26C199.224 113.94 198.897 114.48 198.537 114.88C198.19 115.28 197.81 115.56 197.397 115.72C196.984 115.893 196.524 115.98 196.017 115.98ZM198.817 112.3L193.977 101.5H195.457L199.737 111.14L198.817 112.3ZM212.011 112V101.5H213.371V104.36L213.231 103.86C213.525 103.06 214.018 102.453 214.711 102.04C215.405 101.613 216.265 101.4 217.291 101.4V102.78C217.238 102.78 217.185 102.78 217.131 102.78C217.078 102.767 217.025 102.76 216.971 102.76C215.865 102.76 214.998 103.1 214.371 103.78C213.745 104.447 213.431 105.4 213.431 106.64V112H212.011ZM224.245 112.1C223.151 112.1 222.191 111.873 221.365 111.42C220.538 110.953 219.891 110.32 219.425 109.52C218.958 108.707 218.725 107.78 218.725 106.74C218.725 105.7 218.945 104.78 219.385 103.98C219.838 103.18 220.451 102.553 221.225 102.1C222.011 101.633 222.891 101.4 223.865 101.4C224.851 101.4 225.725 101.627 226.485 102.08C227.258 102.52 227.865 103.147 228.305 103.96C228.745 104.76 228.965 105.687 228.965 106.74C228.965 106.807 228.958 106.88 228.945 106.96C228.945 107.027 228.945 107.1 228.945 107.18H219.805V106.12H228.185L227.625 106.54C227.625 105.78 227.458 105.107 227.125 104.52C226.805 103.92 226.365 103.453 225.805 103.12C225.245 102.787 224.598 102.62 223.865 102.62C223.145 102.62 222.498 102.787 221.925 103.12C221.351 103.453 220.905 103.92 220.585 104.52C220.265 105.12 220.105 105.807 220.105 106.58V106.8C220.105 107.6 220.278 108.307 220.625 108.92C220.985 109.52 221.478 109.993 222.105 110.34C222.745 110.673 223.471 110.84 224.285 110.84C224.925 110.84 225.518 110.727 226.065 110.5C226.625 110.273 227.105 109.927 227.505 109.46L228.305 110.38C227.838 110.94 227.251 111.367 226.545 111.66C225.851 111.953 225.085 112.1 224.245 112.1ZM236.215 112.1C235.175 112.1 234.242 111.873 233.415 111.42C232.602 110.953 231.962 110.32 231.495 109.52C231.028 108.707 230.795 107.78 230.795 106.74C230.795 105.687 231.028 104.76 231.495 103.96C231.962 103.16 232.602 102.533 233.415 102.08C234.242 101.627 235.175 101.4 236.215 101.4C237.108 101.4 237.915 101.573 238.635 101.92C239.355 102.267 239.922 102.787 240.335 103.48L239.275 104.2C238.915 103.667 238.468 103.273 237.935 103.02C237.402 102.767 236.822 102.64 236.195 102.64C235.448 102.64 234.775 102.813 234.175 103.16C233.575 103.493 233.102 103.967 232.755 104.58C232.408 105.193 232.235 105.913 232.235 106.74C232.235 107.567 232.408 108.287 232.755 108.9C233.102 109.513 233.575 109.993 234.175 110.34C234.775 110.673 235.448 110.84 236.195 110.84C236.822 110.84 237.402 110.713 237.935 110.46C238.468 110.207 238.915 109.82 239.275 109.3L240.335 110.02C239.922 110.7 239.355 111.22 238.635 111.58C237.915 111.927 237.108 112.1 236.215 112.1ZM242.968 112V101.5H244.388V112H242.968ZM243.688 99.18C243.395 99.18 243.148 99.08 242.948 98.88C242.748 98.68 242.648 98.44 242.648 98.16C242.648 97.88 242.748 97.6467 242.948 97.46C243.148 97.26 243.395 97.16 243.688 97.16C243.982 97.16 244.228 97.2533 244.428 97.44C244.628 97.6267 244.728 97.86 244.728 98.14C244.728 98.4333 244.628 98.68 244.428 98.88C244.242 99.08 243.995 99.18 243.688 99.18ZM253.759 112.1C252.853 112.1 252.033 111.893 251.299 111.48C250.566 111.053 249.979 110.447 249.539 109.66C249.113 108.86 248.899 107.887 248.899 106.74C248.899 105.593 249.113 104.627 249.539 103.84C249.966 103.04 250.546 102.433 251.279 102.02C252.013 101.607 252.839 101.4 253.759 101.4C254.759 101.4 255.653 101.627 256.439 102.08C257.239 102.52 257.866 103.147 258.319 103.96C258.773 104.76 258.999 105.687 258.999 106.74C258.999 107.807 258.773 108.74 258.319 109.54C257.866 110.34 257.239 110.967 256.439 111.42C255.653 111.873 254.759 112.1 253.759 112.1ZM248.339 115.88V101.5H249.699V104.66L249.559 106.76L249.759 108.88V115.88H248.339ZM253.659 110.84C254.406 110.84 255.073 110.673 255.659 110.34C256.246 109.993 256.713 109.513 257.059 108.9C257.406 108.273 257.579 107.553 257.579 106.74C257.579 105.927 257.406 105.213 257.059 104.6C256.713 103.987 256.246 103.507 255.659 103.16C255.073 102.813 254.406 102.64 253.659 102.64C252.913 102.64 252.239 102.813 251.639 103.16C251.053 103.507 250.586 103.987 250.239 104.6C249.906 105.213 249.739 105.927 249.739 106.74C249.739 107.553 249.906 108.273 250.239 108.9C250.586 109.513 251.053 109.993 251.639 110.34C252.239 110.673 252.913 110.84 253.659 110.84ZM261.894 112V101.5H263.314V112H261.894ZM262.614 99.18C262.321 99.18 262.074 99.08 261.874 98.88C261.674 98.68 261.574 98.44 261.574 98.16C261.574 97.88 261.674 97.6467 261.874 97.46C262.074 97.26 262.321 97.16 262.614 97.16C262.907 97.16 263.154 97.2533 263.354 97.44C263.554 97.6267 263.654 97.86 263.654 98.14C263.654 98.4333 263.554 98.68 263.354 98.88C263.167 99.08 262.921 99.18 262.614 99.18ZM271.725 112.1C270.632 112.1 269.672 111.873 268.845 111.42C268.018 110.953 267.372 110.32 266.905 109.52C266.438 108.707 266.205 107.78 266.205 106.74C266.205 105.7 266.425 104.78 266.865 103.98C267.318 103.18 267.932 102.553 268.705 102.1C269.492 101.633 270.372 101.4 271.345 101.4C272.332 101.4 273.205 101.627 273.965 102.08C274.738 102.52 275.345 103.147 275.785 103.96C276.225 104.76 276.445 105.687 276.445 106.74C276.445 106.807 276.438 106.88 276.425 106.96C276.425 107.027 276.425 107.1 276.425 107.18H267.285V106.12H275.665L275.105 106.54C275.105 105.78 274.938 105.107 274.605 104.52C274.285 103.92 273.845 103.453 273.285 103.12C272.725 102.787 272.078 102.62 271.345 102.62C270.625 102.62 269.978 102.787 269.405 103.12C268.832 103.453 268.385 103.92 268.065 104.52C267.745 105.12 267.585 105.807 267.585 106.58V106.8C267.585 107.6 267.758 108.307 268.105 108.92C268.465 109.52 268.958 109.993 269.585 110.34C270.225 110.673 270.952 110.84 271.765 110.84C272.405 110.84 272.998 110.727 273.545 110.5C274.105 110.273 274.585 109.927 274.985 109.46L275.785 110.38C275.318 110.94 274.732 111.367 274.025 111.66C273.332 111.953 272.565 112.1 271.725 112.1ZM284.695 101.4C285.549 101.4 286.295 101.567 286.935 101.9C287.589 102.22 288.095 102.713 288.455 103.38C288.829 104.047 289.015 104.887 289.015 105.9V112H287.595V106.04C287.595 104.933 287.315 104.1 286.755 103.54C286.209 102.967 285.435 102.68 284.435 102.68C283.689 102.68 283.035 102.833 282.475 103.14C281.929 103.433 281.502 103.867 281.195 104.44C280.902 105 280.755 105.68 280.755 106.48V112H279.335V101.5H280.695V104.38L280.475 103.84C280.809 103.08 281.342 102.487 282.075 102.06C282.809 101.62 283.682 101.4 284.695 101.4ZM296.171 112.1C295.184 112.1 294.424 111.833 293.891 111.3C293.358 110.767 293.091 110.013 293.091 109.04V99.18H294.511V108.96C294.511 109.573 294.664 110.047 294.971 110.38C295.291 110.713 295.744 110.88 296.331 110.88C296.958 110.88 297.478 110.7 297.891 110.34L298.391 111.36C298.111 111.613 297.771 111.8 297.371 111.92C296.984 112.04 296.584 112.1 296.171 112.1ZM291.211 102.68V101.5H297.711V102.68H291.211ZM305.065 112.1C303.972 112.1 303.012 111.873 302.185 111.42C301.358 110.953 300.712 110.32 300.245 109.52C299.778 108.707 299.545 107.78 299.545 106.74C299.545 105.7 299.765 104.78 300.205 103.98C300.658 103.18 301.272 102.553 302.045 102.1C302.832 101.633 303.712 101.4 304.685 101.4C305.672 101.4 306.545 101.627 307.305 102.08C308.078 102.52 308.685 103.147 309.125 103.96C309.565 104.76 309.785 105.687 309.785 106.74C309.785 106.807 309.778 106.88 309.765 106.96C309.765 107.027 309.765 107.1 309.765 107.18H300.625V106.12H309.005L308.445 106.54C308.445 105.78 308.278 105.107 307.945 104.52C307.625 103.92 307.185 103.453 306.625 103.12C306.065 102.787 305.418 102.62 304.685 102.62C303.965 102.62 303.318 102.787 302.745 103.12C302.172 103.453 301.725 103.92 301.405 104.52C301.085 105.12 300.925 105.807 300.925 106.58V106.8C300.925 107.6 301.098 108.307 301.445 108.92C301.805 109.52 302.298 109.993 302.925 110.34C303.565 110.673 304.292 110.84 305.105 110.84C305.745 110.84 306.338 110.727 306.885 110.5C307.445 110.273 307.925 109.927 308.325 109.46L309.125 110.38C308.658 110.94 308.072 111.367 307.365 111.66C306.672 111.953 305.905 112.1 305.065 112.1ZM315.495 112.1C314.629 112.1 313.809 111.98 313.035 111.74C312.262 111.487 311.655 111.173 311.215 110.8L311.855 109.68C312.282 110 312.829 110.28 313.495 110.52C314.162 110.747 314.862 110.86 315.595 110.86C316.595 110.86 317.315 110.707 317.755 110.4C318.195 110.08 318.415 109.66 318.415 109.14C318.415 108.753 318.289 108.453 318.035 108.24C317.795 108.013 317.475 107.847 317.075 107.74C316.675 107.62 316.229 107.52 315.735 107.44C315.242 107.36 314.749 107.267 314.255 107.16C313.775 107.053 313.335 106.9 312.935 106.7C312.535 106.487 312.209 106.2 311.955 105.84C311.715 105.48 311.595 105 311.595 104.4C311.595 103.827 311.755 103.313 312.075 102.86C312.395 102.407 312.862 102.053 313.475 101.8C314.102 101.533 314.862 101.4 315.755 101.4C316.435 101.4 317.115 101.493 317.795 101.68C318.475 101.853 319.035 102.087 319.475 102.38L318.855 103.52C318.389 103.2 317.889 102.973 317.355 102.84C316.822 102.693 316.289 102.62 315.755 102.62C314.809 102.62 314.109 102.787 313.655 103.12C313.215 103.44 312.995 103.853 312.995 104.36C312.995 104.76 313.115 105.073 313.355 105.3C313.609 105.527 313.935 105.707 314.335 105.84C314.749 105.96 315.195 106.06 315.675 106.14C316.169 106.22 316.655 106.32 317.135 106.44C317.629 106.547 318.075 106.7 318.475 106.9C318.889 107.087 319.215 107.36 319.455 107.72C319.709 108.067 319.835 108.527 319.835 109.1C319.835 109.713 319.662 110.247 319.315 110.7C318.982 111.14 318.489 111.487 317.835 111.74C317.195 111.98 316.415 112.1 315.495 112.1ZM332.135 112.1C331.042 112.1 330.082 111.873 329.255 111.42C328.429 110.953 327.782 110.32 327.315 109.52C326.849 108.707 326.615 107.78 326.615 106.74C326.615 105.7 326.835 104.78 327.275 103.98C327.729 103.18 328.342 102.553 329.115 102.1C329.902 101.633 330.782 101.4 331.755 101.4C332.742 101.4 333.615 101.627 334.375 102.08C335.149 102.52 335.755 103.147 336.195 103.96C336.635 104.76 336.855 105.687 336.855 106.74C336.855 106.807 336.849 106.88 336.835 106.96C336.835 107.027 336.835 107.1 336.835 107.18H327.695V106.12H336.075L335.515 106.54C335.515 105.78 335.349 105.107 335.015 104.52C334.695 103.92 334.255 103.453 333.695 103.12C333.135 102.787 332.489 102.62 331.755 102.62C331.035 102.62 330.389 102.787 329.815 103.12C329.242 103.453 328.795 103.92 328.475 104.52C328.155 105.12 327.995 105.807 327.995 106.58V106.8C327.995 107.6 328.169 108.307 328.515 108.92C328.875 109.52 329.369 109.993 329.995 110.34C330.635 110.673 331.362 110.84 332.175 110.84C332.815 110.84 333.409 110.727 333.955 110.5C334.515 110.273 334.995 109.927 335.395 109.46L336.195 110.38C335.729 110.94 335.142 111.367 334.435 111.66C333.742 111.953 332.975 112.1 332.135 112.1ZM342.566 112.1C341.699 112.1 340.879 111.98 340.106 111.74C339.332 111.487 338.726 111.173 338.286 110.8L338.926 109.68C339.352 110 339.899 110.28 340.566 110.52C341.232 110.747 341.932 110.86 342.666 110.86C343.666 110.86 344.386 110.707 344.826 110.4C345.266 110.08 345.486 109.66 345.486 109.14C345.486 108.753 345.359 108.453 345.106 108.24C344.866 108.013 344.546 107.847 344.146 107.74C343.746 107.62 343.299 107.52 342.806 107.44C342.312 107.36 341.819 107.267 341.326 107.16C340.846 107.053 340.406 106.9 340.006 106.7C339.606 106.487 339.279 106.2 339.026 105.84C338.786 105.48 338.666 105 338.666 104.4C338.666 103.827 338.826 103.313 339.146 102.86C339.466 102.407 339.932 102.053 340.546 101.8C341.172 101.533 341.932 101.4 342.826 101.4C343.506 101.4 344.186 101.493 344.866 101.68C345.546 101.853 346.106 102.087 346.546 102.38L345.926 103.52C345.459 103.2 344.959 102.973 344.426 102.84C343.892 102.693 343.359 102.62 342.826 102.62C341.879 102.62 341.179 102.787 340.726 103.12C340.286 103.44 340.066 103.853 340.066 104.36C340.066 104.76 340.186 105.073 340.426 105.3C340.679 105.527 341.006 105.707 341.406 105.84C341.819 105.96 342.266 106.06 342.746 106.14C343.239 106.22 343.726 106.32 344.206 106.44C344.699 106.547 345.146 106.7 345.546 106.9C345.959 107.087 346.286 107.36 346.526 107.72C346.779 108.067 346.906 108.527 346.906 109.1C346.906 109.713 346.732 110.247 346.386 110.7C346.052 111.14 345.559 111.487 344.906 111.74C344.266 111.98 343.486 112.1 342.566 112.1ZM354.931 112.1C354.025 112.1 353.205 111.893 352.471 111.48C351.738 111.053 351.151 110.447 350.711 109.66C350.285 108.86 350.071 107.887 350.071 106.74C350.071 105.593 350.285 104.627 350.711 103.84C351.138 103.04 351.718 102.433 352.451 102.02C353.185 101.607 354.011 101.4 354.931 101.4C355.931 101.4 356.825 101.627 357.611 102.08C358.411 102.52 359.038 103.147 359.491 103.96C359.945 104.76 360.171 105.687 360.171 106.74C360.171 107.807 359.945 108.74 359.491 109.54C359.038 110.34 358.411 110.967 357.611 111.42C356.825 111.873 355.931 112.1 354.931 112.1ZM349.511 115.88V101.5H350.871V104.66L350.731 106.76L350.931 108.88V115.88H349.511ZM354.831 110.84C355.578 110.84 356.245 110.673 356.831 110.34C357.418 109.993 357.885 109.513 358.231 108.9C358.578 108.273 358.751 107.553 358.751 106.74C358.751 105.927 358.578 105.213 358.231 104.6C357.885 103.987 357.418 103.507 356.831 103.16C356.245 102.813 355.578 102.64 354.831 102.64C354.085 102.64 353.411 102.813 352.811 103.16C352.225 103.507 351.758 103.987 351.411 104.6C351.078 105.213 350.911 105.927 350.911 106.74C350.911 107.553 351.078 108.273 351.411 108.9C351.758 109.513 352.225 109.993 352.811 110.34C353.411 110.673 354.085 110.84 354.831 110.84ZM367.526 112.1C366.433 112.1 365.473 111.873 364.646 111.42C363.819 110.953 363.173 110.32 362.706 109.52C362.239 108.707 362.006 107.78 362.006 106.74C362.006 105.7 362.226 104.78 362.666 103.98C363.119 103.18 363.733 102.553 364.506 102.1C365.293 101.633 366.173 101.4 367.146 101.4C368.133 101.4 369.006 101.627 369.766 102.08C370.539 102.52 371.146 103.147 371.586 103.96C372.026 104.76 372.246 105.687 372.246 106.74C372.246 106.807 372.239 106.88 372.226 106.96C372.226 107.027 372.226 107.1 372.226 107.18H363.086V106.12H371.466L370.906 106.54C370.906 105.78 370.739 105.107 370.406 104.52C370.086 103.92 369.646 103.453 369.086 103.12C368.526 102.787 367.879 102.62 367.146 102.62C366.426 102.62 365.779 102.787 365.206 103.12C364.633 103.453 364.186 103.92 363.866 104.52C363.546 105.12 363.386 105.807 363.386 106.58V106.8C363.386 107.6 363.559 108.307 363.906 108.92C364.266 109.52 364.759 109.993 365.386 110.34C366.026 110.673 366.753 110.84 367.566 110.84C368.206 110.84 368.799 110.727 369.346 110.5C369.906 110.273 370.386 109.927 370.786 109.46L371.586 110.38C371.119 110.94 370.533 111.367 369.826 111.66C369.133 111.953 368.366 112.1 367.526 112.1ZM379.496 112.1C378.456 112.1 377.523 111.873 376.696 111.42C375.883 110.953 375.243 110.32 374.776 109.52C374.31 108.707 374.076 107.78 374.076 106.74C374.076 105.687 374.31 104.76 374.776 103.96C375.243 103.16 375.883 102.533 376.696 102.08C377.523 101.627 378.456 101.4 379.496 101.4C380.39 101.4 381.196 101.573 381.916 101.92C382.636 102.267 383.203 102.787 383.616 103.48L382.556 104.2C382.196 103.667 381.75 103.273 381.216 103.02C380.683 102.767 380.103 102.64 379.476 102.64C378.73 102.64 378.056 102.813 377.456 103.16C376.856 103.493 376.383 103.967 376.036 104.58C375.69 105.193 375.516 105.913 375.516 106.74C375.516 107.567 375.69 108.287 376.036 108.9C376.383 109.513 376.856 109.993 377.456 110.34C378.056 110.673 378.73 110.84 379.476 110.84C380.103 110.84 380.683 110.713 381.216 110.46C381.75 110.207 382.196 109.82 382.556 109.3L383.616 110.02C383.203 110.7 382.636 111.22 381.916 111.58C381.196 111.927 380.39 112.1 379.496 112.1ZM386.25 112V101.5H387.67V112H386.25ZM386.97 99.18C386.676 99.18 386.43 99.08 386.23 98.88C386.03 98.68 385.93 98.44 385.93 98.16C385.93 97.88 386.03 97.6467 386.23 97.46C386.43 97.26 386.676 97.16 386.97 97.16C387.263 97.16 387.51 97.2533 387.71 97.44C387.91 97.6267 388.01 97.86 388.01 98.14C388.01 98.4333 387.91 98.68 387.71 98.88C387.523 99.08 387.276 99.18 386.97 99.18ZM398.201 112V109.68L398.141 109.3V105.42C398.141 104.527 397.887 103.84 397.381 103.36C396.887 102.88 396.147 102.64 395.161 102.64C394.481 102.64 393.834 102.753 393.221 102.98C392.607 103.207 392.087 103.507 391.661 103.88L391.021 102.82C391.554 102.367 392.194 102.02 392.941 101.78C393.687 101.527 394.474 101.4 395.301 101.4C396.661 101.4 397.707 101.74 398.441 102.42C399.187 103.087 399.561 104.107 399.561 105.48V112H398.201ZM394.581 112.1C393.794 112.1 393.107 111.973 392.521 111.72C391.947 111.453 391.507 111.093 391.201 110.64C390.894 110.173 390.741 109.64 390.741 109.04C390.741 108.493 390.867 108 391.121 107.56C391.387 107.107 391.814 106.747 392.401 106.48C393.001 106.2 393.801 106.06 394.801 106.06H398.421V107.12H394.841C393.827 107.12 393.121 107.3 392.721 107.66C392.334 108.02 392.141 108.467 392.141 109C392.141 109.6 392.374 110.08 392.841 110.44C393.307 110.8 393.961 110.98 394.801 110.98C395.601 110.98 396.287 110.8 396.861 110.44C397.447 110.067 397.874 109.533 398.141 108.84L398.461 109.82C398.194 110.513 397.727 111.067 397.061 111.48C396.407 111.893 395.581 112.1 394.581 112.1ZM403.418 112V97.16H404.838V112H403.418ZM413.249 112.1C412.155 112.1 411.195 111.873 410.369 111.42C409.542 110.953 408.895 110.32 408.429 109.52C407.962 108.707 407.729 107.78 407.729 106.74C407.729 105.7 407.949 104.78 408.389 103.98C408.842 103.18 409.455 102.553 410.229 102.1C411.015 101.633 411.895 101.4 412.869 101.4C413.855 101.4 414.729 101.627 415.489 102.08C416.262 102.52 416.869 103.147 417.309 103.96C417.749 104.76 417.969 105.687 417.969 106.74C417.969 106.807 417.962 106.88 417.949 106.96C417.949 107.027 417.949 107.1 417.949 107.18H408.809V106.12H417.189L416.629 106.54C416.629 105.78 416.462 105.107 416.129 104.52C415.809 103.92 415.369 103.453 414.809 103.12C414.249 102.787 413.602 102.62 412.869 102.62C412.149 102.62 411.502 102.787 410.929 103.12C410.355 103.453 409.909 103.92 409.589 104.52C409.269 105.12 409.109 105.807 409.109 106.58V106.8C409.109 107.6 409.282 108.307 409.629 108.92C409.989 109.52 410.482 109.993 411.109 110.34C411.749 110.673 412.475 110.84 413.289 110.84C413.929 110.84 414.522 110.727 415.069 110.5C415.629 110.273 416.109 109.927 416.509 109.46L417.309 110.38C416.842 110.94 416.255 111.367 415.549 111.66C414.855 111.953 414.089 112.1 413.249 112.1ZM423.679 112.1C422.812 112.1 421.992 111.98 421.219 111.74C420.446 111.487 419.839 111.173 419.399 110.8L420.039 109.68C420.466 110 421.012 110.28 421.679 110.52C422.346 110.747 423.046 110.86 423.779 110.86C424.779 110.86 425.499 110.707 425.939 110.4C426.379 110.08 426.599 109.66 426.599 109.14C426.599 108.753 426.472 108.453 426.219 108.24C425.979 108.013 425.659 107.847 425.259 107.74C424.859 107.62 424.412 107.52 423.919 107.44C423.426 107.36 422.932 107.267 422.439 107.16C421.959 107.053 421.519 106.9 421.119 106.7C420.719 106.487 420.392 106.2 420.139 105.84C419.899 105.48 419.779 105 419.779 104.4C419.779 103.827 419.939 103.313 420.259 102.86C420.579 102.407 421.046 102.053 421.659 101.8C422.286 101.533 423.046 101.4 423.939 101.4C424.619 101.4 425.299 101.493 425.979 101.68C426.659 101.853 427.219 102.087 427.659 102.38L427.039 103.52C426.572 103.2 426.072 102.973 425.539 102.84C425.006 102.693 424.472 102.62 423.939 102.62C422.992 102.62 422.292 102.787 421.839 103.12C421.399 103.44 421.179 103.853 421.179 104.36C421.179 104.76 421.299 105.073 421.539 105.3C421.792 105.527 422.119 105.707 422.519 105.84C422.932 105.96 423.379 106.06 423.859 106.14C424.352 106.22 424.839 106.32 425.319 106.44C425.812 106.547 426.259 106.7 426.659 106.9C427.072 107.087 427.399 107.36 427.639 107.72C427.892 108.067 428.019 108.527 428.019 109.1C428.019 109.713 427.846 110.247 427.499 110.7C427.166 111.14 426.672 111.487 426.019 111.74C425.379 111.98 424.599 112.1 423.679 112.1ZM440.219 112.1C439.179 112.1 438.246 111.873 437.419 111.42C436.606 110.953 435.966 110.32 435.499 109.52C435.032 108.707 434.799 107.78 434.799 106.74C434.799 105.687 435.032 104.76 435.499 103.96C435.966 103.16 436.606 102.533 437.419 102.08C438.246 101.627 439.179 101.4 440.219 101.4C441.112 101.4 441.919 101.573 442.639 101.92C443.359 102.267 443.926 102.787 444.339 103.48L443.279 104.2C442.919 103.667 442.472 103.273 441.939 103.02C441.406 102.767 440.826 102.64 440.199 102.64C439.452 102.64 438.779 102.813 438.179 103.16C437.579 103.493 437.106 103.967 436.759 104.58C436.412 105.193 436.239 105.913 436.239 106.74C436.239 107.567 436.412 108.287 436.759 108.9C437.106 109.513 437.579 109.993 438.179 110.34C438.779 110.673 439.452 110.84 440.199 110.84C440.826 110.84 441.406 110.713 441.939 110.46C442.472 110.207 442.919 109.82 443.279 109.3L444.339 110.02C443.926 110.7 443.359 111.22 442.639 111.58C441.919 111.927 441.112 112.1 440.219 112.1ZM451.233 112.1C450.219 112.1 449.306 111.873 448.493 111.42C447.693 110.953 447.059 110.32 446.593 109.52C446.126 108.707 445.893 107.78 445.893 106.74C445.893 105.687 446.126 104.76 446.593 103.96C447.059 103.16 447.693 102.533 448.493 102.08C449.293 101.627 450.206 101.4 451.233 101.4C452.273 101.4 453.193 101.627 453.993 102.08C454.806 102.533 455.439 103.16 455.893 103.96C456.359 104.76 456.593 105.687 456.593 106.74C456.593 107.78 456.359 108.707 455.893 109.52C455.439 110.32 454.806 110.953 453.993 111.42C453.179 111.873 452.259 112.1 451.233 112.1ZM451.233 110.84C451.993 110.84 452.666 110.673 453.253 110.34C453.839 109.993 454.299 109.513 454.633 108.9C454.979 108.273 455.153 107.553 455.153 106.74C455.153 105.913 454.979 105.193 454.633 104.58C454.299 103.967 453.839 103.493 453.253 103.16C452.666 102.813 451.999 102.64 451.253 102.64C450.506 102.64 449.839 102.813 449.253 103.16C448.666 103.493 448.199 103.967 447.853 104.58C447.506 105.193 447.333 105.913 447.333 106.74C447.333 107.553 447.506 108.273 447.853 108.9C448.199 109.513 448.666 109.993 449.253 110.34C449.839 110.673 450.499 110.84 451.233 110.84ZM472.612 101.4C473.465 101.4 474.205 101.567 474.832 101.9C475.472 102.22 475.965 102.713 476.312 103.38C476.672 104.047 476.852 104.887 476.852 105.9V112H475.432V106.04C475.432 104.933 475.165 104.1 474.632 103.54C474.112 102.967 473.372 102.68 472.412 102.68C471.692 102.68 471.065 102.833 470.532 103.14C470.012 103.433 469.605 103.867 469.312 104.44C469.032 105 468.892 105.68 468.892 106.48V112H467.472V106.04C467.472 104.933 467.205 104.1 466.672 103.54C466.138 102.967 465.392 102.68 464.432 102.68C463.725 102.68 463.105 102.833 462.572 103.14C462.038 103.433 461.625 103.867 461.332 104.44C461.052 105 460.912 105.68 460.912 106.48V112H459.492V101.5H460.852V104.34L460.632 103.84C460.952 103.08 461.465 102.487 462.172 102.06C462.892 101.62 463.738 101.4 464.712 101.4C465.738 101.4 466.612 101.66 467.332 102.18C468.052 102.687 468.518 103.453 468.732 104.48L468.172 104.26C468.478 103.407 469.018 102.72 469.792 102.2C470.578 101.667 471.518 101.4 472.612 101.4ZM484.983 112.1C483.969 112.1 483.056 111.873 482.243 111.42C481.443 110.953 480.809 110.32 480.343 109.52C479.876 108.707 479.643 107.78 479.643 106.74C479.643 105.687 479.876 104.76 480.343 103.96C480.809 103.16 481.443 102.533 482.243 102.08C483.043 101.627 483.956 101.4 484.983 101.4C486.023 101.4 486.943 101.627 487.743 102.08C488.556 102.533 489.189 103.16 489.643 103.96C490.109 104.76 490.343 105.687 490.343 106.74C490.343 107.78 490.109 108.707 489.643 109.52C489.189 110.32 488.556 110.953 487.743 111.42C486.929 111.873 486.009 112.1 484.983 112.1ZM484.983 110.84C485.743 110.84 486.416 110.673 487.003 110.34C487.589 109.993 488.049 109.513 488.383 108.9C488.729 108.273 488.903 107.553 488.903 106.74C488.903 105.913 488.729 105.193 488.383 104.58C488.049 103.967 487.589 103.493 487.003 103.16C486.416 102.813 485.749 102.64 485.003 102.64C484.256 102.64 483.589 102.813 483.003 103.16C482.416 103.493 481.949 103.967 481.603 104.58C481.256 105.193 481.083 105.913 481.083 106.74C481.083 107.553 481.256 108.273 481.603 108.9C481.949 109.513 482.416 109.993 483.003 110.34C483.589 110.673 484.249 110.84 484.983 110.84ZM84.44 136.1C83.3467 136.1 82.3867 135.873 81.56 135.42C80.7333 134.953 80.0867 134.32 79.62 133.52C79.1533 132.707 78.92 131.78 78.92 130.74C78.92 129.7 79.14 128.78 79.58 127.98C80.0333 127.18 80.6467 126.553 81.42 126.1C82.2067 125.633 83.0867 125.4 84.06 125.4C85.0467 125.4 85.92 125.627 86.68 126.08C87.4533 126.52 88.06 127.147 88.5 127.96C88.94 128.76 89.16 129.687 89.16 130.74C89.16 130.807 89.1533 130.88 89.14 130.96C89.14 131.027 89.14 131.1 89.14 131.18H80V130.12H88.38L87.82 130.54C87.82 129.78 87.6533 129.107 87.32 128.52C87 127.92 86.56 127.453 86 127.12C85.44 126.787 84.7933 126.62 84.06 126.62C83.34 126.62 82.6933 126.787 82.12 127.12C81.5467 127.453 81.1 127.92 80.78 128.52C80.46 129.12 80.3 129.807 80.3 130.58V130.8C80.3 131.6 80.4733 132.307 80.82 132.92C81.18 133.52 81.6733 133.993 82.3 134.34C82.94 134.673 83.6667 134.84 84.48 134.84C85.12 134.84 85.7133 134.727 86.26 134.5C86.82 134.273 87.3 133.927 87.7 133.46L88.5 134.38C88.0333 134.94 87.4467 135.367 86.74 135.66C86.0467 135.953 85.28 136.1 84.44 136.1ZM92.0503 136V121.16H93.4703V136H92.0503ZM107.136 139.98C106.176 139.98 105.256 139.84 104.376 139.56C103.496 139.28 102.782 138.88 102.236 138.36L102.956 137.28C103.449 137.72 104.056 138.067 104.776 138.32C105.509 138.587 106.282 138.72 107.096 138.72C108.429 138.72 109.409 138.407 110.036 137.78C110.662 137.167 110.976 136.207 110.976 134.9V132.28L111.176 130.48L111.036 128.68V125.5H112.396V134.72C112.396 136.533 111.949 137.86 111.056 138.7C110.176 139.553 108.869 139.98 107.136 139.98ZM106.876 135.6C105.876 135.6 104.976 135.387 104.176 134.96C103.376 134.52 102.742 133.913 102.276 133.14C101.822 132.367 101.596 131.48 101.596 130.48C101.596 129.48 101.822 128.6 102.276 127.84C102.742 127.067 103.376 126.467 104.176 126.04C104.976 125.613 105.876 125.4 106.876 125.4C107.809 125.4 108.649 125.593 109.396 125.98C110.142 126.367 110.736 126.94 111.176 127.7C111.616 128.46 111.836 129.387 111.836 130.48C111.836 131.573 111.616 132.5 111.176 133.26C110.736 134.02 110.142 134.6 109.396 135C108.649 135.4 107.809 135.6 106.876 135.6ZM107.016 134.34C107.789 134.34 108.476 134.18 109.076 133.86C109.676 133.527 110.149 133.073 110.496 132.5C110.842 131.913 111.016 131.24 111.016 130.48C111.016 129.72 110.842 129.053 110.496 128.48C110.149 127.907 109.676 127.46 109.076 127.14C108.476 126.807 107.789 126.64 107.016 126.64C106.256 126.64 105.569 126.807 104.956 127.14C104.356 127.46 103.882 127.907 103.536 128.48C103.202 129.053 103.036 129.72 103.036 130.48C103.036 131.24 103.202 131.913 103.536 132.5C103.882 133.073 104.356 133.527 104.956 133.86C105.569 134.18 106.256 134.34 107.016 134.34ZM122.927 136V133.68L122.867 133.3V129.42C122.867 128.527 122.614 127.84 122.107 127.36C121.614 126.88 120.874 126.64 119.887 126.64C119.207 126.64 118.561 126.753 117.947 126.98C117.334 127.207 116.814 127.507 116.387 127.88L115.747 126.82C116.281 126.367 116.921 126.02 117.667 125.78C118.414 125.527 119.201 125.4 120.027 125.4C121.387 125.4 122.434 125.74 123.167 126.42C123.914 127.087 124.287 128.107 124.287 129.48V136H122.927ZM119.307 136.1C118.521 136.1 117.834 135.973 117.247 135.72C116.674 135.453 116.234 135.093 115.927 134.64C115.621 134.173 115.467 133.64 115.467 133.04C115.467 132.493 115.594 132 115.847 131.56C116.114 131.107 116.541 130.747 117.127 130.48C117.727 130.2 118.527 130.06 119.527 130.06H123.147V131.12H119.567C118.554 131.12 117.847 131.3 117.447 131.66C117.061 132.02 116.867 132.467 116.867 133C116.867 133.6 117.101 134.08 117.567 134.44C118.034 134.8 118.687 134.98 119.527 134.98C120.327 134.98 121.014 134.8 121.587 134.44C122.174 134.067 122.601 133.533 122.867 132.84L123.187 133.82C122.921 134.513 122.454 135.067 121.787 135.48C121.134 135.893 120.307 136.1 119.307 136.1ZM130.964 136.1C130.097 136.1 129.277 135.98 128.504 135.74C127.731 135.487 127.124 135.173 126.684 134.8L127.324 133.68C127.751 134 128.297 134.28 128.964 134.52C129.631 134.747 130.331 134.86 131.064 134.86C132.064 134.86 132.784 134.707 133.224 134.4C133.664 134.08 133.884 133.66 133.884 133.14C133.884 132.753 133.757 132.453 133.504 132.24C133.264 132.013 132.944 131.847 132.544 131.74C132.144 131.62 131.697 131.52 131.204 131.44C130.711 131.36 130.217 131.267 129.724 131.16C129.244 131.053 128.804 130.9 128.404 130.7C128.004 130.487 127.677 130.2 127.424 129.84C127.184 129.48 127.064 129 127.064 128.4C127.064 127.827 127.224 127.313 127.544 126.86C127.864 126.407 128.331 126.053 128.944 125.8C129.571 125.533 130.331 125.4 131.224 125.4C131.904 125.4 132.584 125.493 133.264 125.68C133.944 125.853 134.504 126.087 134.944 126.38L134.324 127.52C133.857 127.2 133.357 126.973 132.824 126.84C132.291 126.693 131.757 126.62 131.224 126.62C130.277 126.62 129.577 126.787 129.124 127.12C128.684 127.44 128.464 127.853 128.464 128.36C128.464 128.76 128.584 129.073 128.824 129.3C129.077 129.527 129.404 129.707 129.804 129.84C130.217 129.96 130.664 130.06 131.144 130.14C131.637 130.22 132.124 130.32 132.604 130.44C133.097 130.547 133.544 130.7 133.944 130.9C134.357 131.087 134.684 131.36 134.924 131.72C135.177 132.067 135.304 132.527 135.304 133.1C135.304 133.713 135.131 134.247 134.784 134.7C134.451 135.14 133.957 135.487 133.304 135.74C132.664 135.98 131.884 136.1 130.964 136.1Z" fill="black"/>
<circle cx="574" cy="53" r="53" fill="#034638"/>
<path d="M566.699 59.7277L577.146 33.1696H583.628V58.3222H586.943V62.5807H583.628V69H578.573V62.5807H566.699V59.7277ZM578.573 58.3222V53.0357L579.076 39.5259H578.447L572.237 58.3222H578.573Z" fill="white"/>
<path d="M574 80V187H-2.96235e-05" stroke="#034638" stroke-width="7"/>
</svg>
