<svg width="358" height="662" viewBox="0 0 358 662" fill="none" xmlns="http://www.w3.org/2000/svg">
<path d="M3.28125 609.969H9.39844V639.312C9.39844 640.562 9.46094 641.602 9.58594 642.43C9.71094 643.258 9.90625 643.922 10.1719 644.422C10.4531 644.906 10.8047 645.258 11.2266 645.477C11.6641 645.68 12.1797 645.781 12.7734 645.781C13.3672 645.781 13.8828 645.68 14.3203 645.477C14.7734 645.258 15.1406 644.906 15.4219 644.422C15.7188 643.922 15.9375 643.258 16.0781 642.43C16.2344 641.602 16.3125 640.562 16.3125 639.312V609.969H22.3594V637.695C22.3594 639.648 22.2031 641.32 21.8906 642.711C21.5781 644.102 21.1641 645.266 20.6484 646.203C20.1328 647.141 19.5391 647.883 18.8672 648.43C18.2109 648.977 17.5234 649.398 16.8047 649.695C16.1016 649.977 15.3984 650.156 14.6953 650.234C13.9922 650.312 13.3516 650.352 12.7734 650.352C12.1953 650.352 11.5547 650.312 10.8516 650.234C10.1641 650.156 9.46875 649.977 8.76562 649.695C8.0625 649.398 7.38281 648.977 6.72656 648.43C6.07031 647.883 5.48438 647.141 4.96875 646.203C4.45312 645.266 4.03906 644.109 3.72656 642.734C3.42969 641.344 3.28125 639.664 3.28125 637.695V609.969ZM27.4219 643.25C27.4219 642.547 27.4844 641.867 27.6094 641.211C27.75 640.555 27.8828 640.031 28.0078 639.641H32.1797C32.1797 640.812 32.2344 641.797 32.3438 642.594C32.4688 643.375 32.6641 644 32.9297 644.469C33.1953 644.938 33.5469 645.273 33.9844 645.477C34.4375 645.68 34.9844 645.781 35.625 645.781C36.5156 645.781 37.1641 645.531 37.5703 645.031C37.9766 644.531 38.1797 643.953 38.1797 643.297C38.1797 642.953 38.1328 642.625 38.0391 642.312C37.9453 642 37.8125 641.688 37.6406 641.375C37.4688 641.047 37.2578 640.719 37.0078 640.391C36.7578 640.062 36.4766 639.703 36.1641 639.312L31.8281 634.203C31.2656 633.5 30.7188 632.789 30.1875 632.07C29.6719 631.336 29.2109 630.586 28.8047 629.82C28.4141 629.039 28.0938 628.227 27.8438 627.383C27.6094 626.539 27.4922 625.648 27.4922 624.711C27.4922 623.461 27.7031 622.375 28.125 621.453C28.5625 620.531 29.1406 619.766 29.8594 619.156C30.5938 618.547 31.4375 618.094 32.3906 617.797C33.3438 617.5 34.3516 617.352 35.4141 617.352C36.5859 617.352 37.6406 617.492 38.5781 617.773C39.5156 618.055 40.3203 618.477 40.9922 619.039C41.6641 619.602 42.1797 620.305 42.5391 621.148C42.8984 621.977 43.0781 622.945 43.0781 624.055C43.0781 624.805 43.0078 625.531 42.8672 626.234C42.7422 626.938 42.6172 627.539 42.4922 628.039H38.3906C38.375 626.977 38.3281 626.047 38.25 625.25C38.1719 624.453 38.0234 623.797 37.8047 623.281C37.6016 622.75 37.3125 622.352 36.9375 622.086C36.5781 621.82 36.1016 621.688 35.5078 621.688C34.9922 621.688 34.5625 621.773 34.2188 621.945C33.875 622.102 33.5938 622.312 33.375 622.578C33.1719 622.844 33.0234 623.141 32.9297 623.469C32.8516 623.797 32.8125 624.133 32.8125 624.477C32.8125 625.227 32.9922 625.922 33.3516 626.562C33.7109 627.203 34.1875 627.898 34.7812 628.648L39.5156 634.203C39.8594 634.625 40.2578 635.141 40.7109 635.75C41.1641 636.344 41.5938 637.008 42 637.742C42.4062 638.461 42.75 639.25 43.0312 640.109C43.3125 640.969 43.4531 641.867 43.4531 642.805C43.4531 643.945 43.2734 644.984 42.9141 645.922C42.5547 646.844 42.0234 647.633 41.3203 648.289C40.6172 648.945 39.75 649.453 38.7188 649.812C37.7031 650.172 36.5391 650.352 35.2266 650.352C34.1484 650.352 33.1328 650.234 32.1797 650C31.2266 649.75 30.3984 649.352 29.6953 648.805C28.9922 648.242 28.4375 647.508 28.0312 646.602C27.625 645.695 27.4219 644.578 27.4219 643.25ZM56.2734 650.352C55.5859 650.352 54.8828 650.297 54.1641 650.188C53.4609 650.078 52.7734 649.852 52.1016 649.508C51.4453 649.164 50.8203 648.672 50.2266 648.031C49.6484 647.391 49.1406 646.547 48.7031 645.5C48.2656 644.453 47.9219 643.164 47.6719 641.633C47.4219 640.102 47.2969 638.273 47.2969 636.148V631.086C47.2969 628.992 47.4219 627.203 47.6719 625.719C47.9375 624.219 48.2891 622.961 48.7266 621.945C49.1797 620.93 49.7031 620.125 50.2969 619.531C50.8906 618.922 51.5156 618.461 52.1719 618.148C52.8438 617.82 53.5312 617.609 54.2344 617.516C54.9375 617.406 55.625 617.352 56.2969 617.352C56.9375 617.352 57.6016 617.398 58.2891 617.492C58.9766 617.586 59.6484 617.789 60.3047 618.102C60.9609 618.398 61.5781 618.852 62.1562 619.461C62.75 620.055 63.2656 620.859 63.7031 621.875C64.1562 622.891 64.5078 624.156 64.7578 625.672C65.0234 627.172 65.1562 628.977 65.1562 631.086V636.148C65.1562 638.242 65.0234 640.047 64.7578 641.562C64.4922 643.078 64.1328 644.359 63.6797 645.406C63.2266 646.453 62.7031 647.305 62.1094 647.961C61.5156 648.602 60.8906 649.102 60.2344 649.461C59.5781 649.82 58.9062 650.055 58.2188 650.164C57.5469 650.289 56.8984 650.352 56.2734 650.352ZM56.3203 645.781C56.8516 645.781 57.2969 645.648 57.6562 645.383C58.0312 645.102 58.3281 644.648 58.5469 644.023C58.7812 643.398 58.9453 642.578 59.0391 641.562C59.1484 640.531 59.2031 639.258 59.2031 637.742V629.797C59.2031 628.281 59.1484 627.008 59.0391 625.977C58.9453 624.945 58.7812 624.117 58.5469 623.492C58.3281 622.852 58.0312 622.391 57.6562 622.109C57.2969 621.828 56.8516 621.688 56.3203 621.688C55.7578 621.688 55.2812 621.828 54.8906 622.109C54.5156 622.391 54.2031 622.852 53.9531 623.492C53.7031 624.117 53.5234 624.945 53.4141 625.977C53.3047 627.008 53.25 628.281 53.25 629.797V637.742C53.25 639.258 53.3047 640.531 53.4141 641.562C53.5234 642.578 53.7031 643.398 53.9531 644.023C54.2031 644.648 54.5156 645.102 54.8906 645.383C55.2812 645.648 55.7578 645.781 56.3203 645.781ZM69.1406 643.25C69.1406 642.547 69.2031 641.867 69.3281 641.211C69.4688 640.555 69.6016 640.031 69.7266 639.641H73.8984C73.8984 640.812 73.9531 641.797 74.0625 642.594C74.1875 643.375 74.3828 644 74.6484 644.469C74.9141 644.938 75.2656 645.273 75.7031 645.477C76.1562 645.68 76.7031 645.781 77.3438 645.781C78.2344 645.781 78.8828 645.531 79.2891 645.031C79.6953 644.531 79.8984 643.953 79.8984 643.297C79.8984 642.953 79.8516 642.625 79.7578 642.312C79.6641 642 79.5312 641.688 79.3594 641.375C79.1875 641.047 78.9766 640.719 78.7266 640.391C78.4766 640.062 78.1953 639.703 77.8828 639.312L73.5469 634.203C72.9844 633.5 72.4375 632.789 71.9062 632.07C71.3906 631.336 70.9297 630.586 70.5234 629.82C70.1328 629.039 69.8125 628.227 69.5625 627.383C69.3281 626.539 69.2109 625.648 69.2109 624.711C69.2109 623.461 69.4219 622.375 69.8438 621.453C70.2812 620.531 70.8594 619.766 71.5781 619.156C72.3125 618.547 73.1562 618.094 74.1094 617.797C75.0625 617.5 76.0703 617.352 77.1328 617.352C78.3047 617.352 79.3594 617.492 80.2969 617.773C81.2344 618.055 82.0391 618.477 82.7109 619.039C83.3828 619.602 83.8984 620.305 84.2578 621.148C84.6172 621.977 84.7969 622.945 84.7969 624.055C84.7969 624.805 84.7266 625.531 84.5859 626.234C84.4609 626.938 84.3359 627.539 84.2109 628.039H80.1094C80.0938 626.977 80.0469 626.047 79.9688 625.25C79.8906 624.453 79.7422 623.797 79.5234 623.281C79.3203 622.75 79.0312 622.352 78.6562 622.086C78.2969 621.82 77.8203 621.688 77.2266 621.688C76.7109 621.688 76.2812 621.773 75.9375 621.945C75.5938 622.102 75.3125 622.312 75.0938 622.578C74.8906 622.844 74.7422 623.141 74.6484 623.469C74.5703 623.797 74.5312 624.133 74.5312 624.477C74.5312 625.227 74.7109 625.922 75.0703 626.562C75.4297 627.203 75.9062 627.898 76.5 628.648L81.2344 634.203C81.5781 634.625 81.9766 635.141 82.4297 635.75C82.8828 636.344 83.3125 637.008 83.7188 637.742C84.125 638.461 84.4688 639.25 84.75 640.109C85.0312 640.969 85.1719 641.867 85.1719 642.805C85.1719 643.945 84.9922 644.984 84.6328 645.922C84.2734 646.844 83.7422 647.633 83.0391 648.289C82.3359 648.945 81.4688 649.453 80.4375 649.812C79.4219 650.172 78.2578 650.352 76.9453 650.352C75.8672 650.352 74.8516 650.234 73.8984 650C72.9453 649.75 72.1172 649.352 71.4141 648.805C70.7109 648.242 70.1562 647.508 69.75 646.602C69.3438 645.695 69.1406 644.578 69.1406 643.25ZM106.312 650.375C105.953 650.375 105.531 650.336 105.047 650.258C104.562 650.195 104.062 650.039 103.547 649.789C103.031 649.539 102.523 649.164 102.023 648.664C101.523 648.164 101.078 647.484 100.688 646.625C100.297 645.75 99.9766 644.672 99.7266 643.391C99.4922 642.109 99.375 640.555 99.375 638.727V628.484C99.375 626.672 99.5 625.141 99.75 623.891C100.016 622.641 100.359 621.609 100.781 620.797C101.203 619.969 101.672 619.328 102.188 618.875C102.719 618.406 103.242 618.062 103.758 617.844C104.289 617.625 104.789 617.492 105.258 617.445C105.742 617.398 106.141 617.375 106.453 617.375C107.031 617.375 107.578 617.453 108.094 617.609C108.609 617.766 109.078 617.977 109.5 618.242C109.922 618.492 110.297 618.781 110.625 619.109C110.953 619.422 111.227 619.742 111.445 620.07L111.469 620.047L111.281 615.969V607.367H117.188V650H112.57L112.055 647C111.789 647.422 111.484 647.836 111.141 648.242C110.797 648.648 110.391 649.016 109.922 649.344C109.453 649.656 108.922 649.906 108.328 650.094C107.734 650.281 107.062 650.375 106.312 650.375ZM108.328 645.781C108.719 645.781 109.062 645.719 109.359 645.594C109.672 645.453 109.945 645.281 110.18 645.078C110.43 644.859 110.641 644.609 110.812 644.328C111 644.047 111.156 643.758 111.281 643.461V624.055C110.984 623.398 110.586 622.844 110.086 622.391C109.602 621.922 109.008 621.688 108.305 621.688C107.867 621.688 107.469 621.766 107.109 621.922C106.75 622.078 106.438 622.375 106.172 622.812C105.906 623.234 105.695 623.828 105.539 624.594C105.398 625.344 105.328 626.32 105.328 627.523V639.898C105.328 641.102 105.398 642.086 105.539 642.852C105.695 643.617 105.906 644.219 106.172 644.656C106.438 645.078 106.75 645.375 107.109 645.547C107.484 645.703 107.891 645.781 108.328 645.781ZM131.062 650.352C129.672 650.352 128.438 650.094 127.359 649.578C126.297 649.062 125.398 648.258 124.664 647.164C123.93 646.07 123.375 644.672 123 642.969C122.625 641.25 122.438 639.188 122.438 636.781V630.688C122.438 628.641 122.586 626.891 122.883 625.438C123.195 623.969 123.594 622.742 124.078 621.758C124.578 620.758 125.148 619.969 125.789 619.391C126.445 618.812 127.117 618.375 127.805 618.078C128.492 617.766 129.172 617.57 129.844 617.492C130.531 617.398 131.164 617.352 131.742 617.352C132.805 617.352 133.828 617.516 134.812 617.844C135.797 618.156 136.664 618.703 137.414 619.484C138.164 620.25 138.758 621.281 139.195 622.578C139.648 623.875 139.875 625.492 139.875 627.43C139.875 628.086 139.852 628.75 139.805 629.422C139.773 630.094 139.727 630.758 139.664 631.414C139.602 632.055 139.516 632.68 139.406 633.289C139.312 633.898 139.211 634.461 139.102 634.977H128.391V638.258C128.391 639.664 128.445 640.852 128.555 641.82C128.664 642.773 128.844 643.547 129.094 644.141C129.359 644.719 129.711 645.141 130.148 645.406C130.602 645.656 131.164 645.781 131.836 645.781C132.195 645.781 132.547 645.711 132.891 645.57C133.234 645.414 133.531 645.164 133.781 644.82C134.047 644.477 134.258 644.023 134.414 643.461C134.57 642.883 134.648 642.172 134.648 641.328V640.32H139.594V641.562C139.594 644.625 138.859 646.859 137.391 648.266C135.938 649.656 133.828 650.352 131.062 650.352ZM134.344 630.992C134.359 630.82 134.375 630.594 134.391 630.312C134.406 630.016 134.414 629.711 134.414 629.398C134.43 629.086 134.438 628.781 134.438 628.484C134.438 628.172 134.438 627.906 134.438 627.688C134.438 625.562 134.188 624.031 133.688 623.094C133.188 622.156 132.445 621.688 131.461 621.688C130.945 621.688 130.492 621.812 130.102 622.062C129.711 622.297 129.391 622.703 129.141 623.281C128.891 623.844 128.703 624.594 128.578 625.531C128.453 626.469 128.391 627.633 128.391 629.023V630.992H134.344ZM144.984 607.367H150.914V650H144.984V607.367ZM167.766 609.969H173.836V626.727H181.031V609.969H187.102V650H181.031V631.508H173.836V650H167.766V609.969ZM196.805 613.109C195.711 613.109 194.844 612.781 194.203 612.125C193.578 611.469 193.266 610.508 193.266 609.242C193.266 608.539 193.344 607.953 193.5 607.484C193.672 607 193.906 606.617 194.203 606.336C194.516 606.039 194.891 605.828 195.328 605.703C195.766 605.562 196.266 605.492 196.828 605.492C198 605.492 198.891 605.789 199.5 606.383C200.109 606.977 200.414 607.93 200.414 609.242C200.414 610.461 200.102 611.414 199.477 612.102C198.867 612.773 197.977 613.109 196.805 613.109ZM193.734 617.727H199.664V650H193.734V617.727ZM212.062 650.375C211.703 650.375 211.281 650.336 210.797 650.258C210.312 650.195 209.812 650.039 209.297 649.789C208.781 649.539 208.273 649.164 207.773 648.664C207.273 648.164 206.828 647.484 206.438 646.625C206.047 645.75 205.727 644.672 205.477 643.391C205.242 642.109 205.125 640.555 205.125 638.727V628.484C205.125 626.672 205.25 625.141 205.5 623.891C205.766 622.641 206.109 621.609 206.531 620.797C206.953 619.969 207.422 619.328 207.938 618.875C208.469 618.406 208.992 618.062 209.508 617.844C210.039 617.625 210.539 617.492 211.008 617.445C211.492 617.398 211.891 617.375 212.203 617.375C212.781 617.375 213.328 617.453 213.844 617.609C214.359 617.766 214.828 617.977 215.25 618.242C215.672 618.492 216.047 618.781 216.375 619.109C216.703 619.422 216.977 619.742 217.195 620.07L217.219 620.047L217.031 615.969V607.367H222.938V650H218.32L217.805 647C217.539 647.422 217.234 647.836 216.891 648.242C216.547 648.648 216.141 649.016 215.672 649.344C215.203 649.656 214.672 649.906 214.078 650.094C213.484 650.281 212.812 650.375 212.062 650.375ZM214.078 645.781C214.469 645.781 214.812 645.719 215.109 645.594C215.422 645.453 215.695 645.281 215.93 645.078C216.18 644.859 216.391 644.609 216.562 644.328C216.75 644.047 216.906 643.758 217.031 643.461V624.055C216.734 623.398 216.336 622.844 215.836 622.391C215.352 621.922 214.758 621.688 214.055 621.688C213.617 621.688 213.219 621.766 212.859 621.922C212.5 622.078 212.188 622.375 211.922 622.812C211.656 623.234 211.445 623.828 211.289 624.594C211.148 625.344 211.078 626.32 211.078 627.523V639.898C211.078 641.102 211.148 642.086 211.289 642.852C211.445 643.617 211.656 644.219 211.922 644.656C212.188 645.078 212.5 645.375 212.859 645.547C213.234 645.703 213.641 645.781 214.078 645.781ZM229.031 617.727H233.367L233.883 621.008C234.539 619.789 235.289 618.875 236.133 618.266C236.992 617.656 237.867 617.352 238.758 617.352C240.461 617.352 241.719 617.875 242.531 618.922C243.344 619.969 243.75 621.539 243.75 623.633C243.75 623.898 243.727 624.219 243.68 624.594C243.648 624.953 243.594 625.336 243.516 625.742C243.453 626.133 243.367 626.531 243.258 626.938C243.164 627.328 243.062 627.688 242.953 628.016H238.828V625.016C238.828 624.359 238.781 623.82 238.688 623.398C238.609 622.977 238.5 622.641 238.359 622.391C238.219 622.125 238.055 621.945 237.867 621.852C237.68 621.742 237.477 621.688 237.258 621.688C236.789 621.688 236.352 621.844 235.945 622.156C235.555 622.453 235.227 622.875 234.961 623.422V650H229.031V617.727ZM255.727 650.352C255.039 650.352 254.336 650.297 253.617 650.188C252.914 650.078 252.227 649.852 251.555 649.508C250.898 649.164 250.273 648.672 249.68 648.031C249.102 647.391 248.594 646.547 248.156 645.5C247.719 644.453 247.375 643.164 247.125 641.633C246.875 640.102 246.75 638.273 246.75 636.148V631.086C246.75 628.992 246.875 627.203 247.125 625.719C247.391 624.219 247.742 622.961 248.18 621.945C248.633 620.93 249.156 620.125 249.75 619.531C250.344 618.922 250.969 618.461 251.625 618.148C252.297 617.82 252.984 617.609 253.688 617.516C254.391 617.406 255.078 617.352 255.75 617.352C256.391 617.352 257.055 617.398 257.742 617.492C258.43 617.586 259.102 617.789 259.758 618.102C260.414 618.398 261.031 618.852 261.609 619.461C262.203 620.055 262.719 620.859 263.156 621.875C263.609 622.891 263.961 624.156 264.211 625.672C264.477 627.172 264.609 628.977 264.609 631.086V636.148C264.609 638.242 264.477 640.047 264.211 641.562C263.945 643.078 263.586 644.359 263.133 645.406C262.68 646.453 262.156 647.305 261.562 647.961C260.969 648.602 260.344 649.102 259.688 649.461C259.031 649.82 258.359 650.055 257.672 650.164C257 650.289 256.352 650.352 255.727 650.352ZM255.773 645.781C256.305 645.781 256.75 645.648 257.109 645.383C257.484 645.102 257.781 644.648 258 644.023C258.234 643.398 258.398 642.578 258.492 641.562C258.602 640.531 258.656 639.258 258.656 637.742V629.797C258.656 628.281 258.602 627.008 258.492 625.977C258.398 624.945 258.234 624.117 258 623.492C257.781 622.852 257.484 622.391 257.109 622.109C256.75 621.828 256.305 621.688 255.773 621.688C255.211 621.688 254.734 621.828 254.344 622.109C253.969 622.391 253.656 622.852 253.406 623.492C253.156 624.117 252.977 624.945 252.867 625.977C252.758 627.008 252.703 628.281 252.703 629.797V637.742C252.703 639.258 252.758 640.531 252.867 641.562C252.977 642.578 253.156 643.398 253.406 644.023C253.656 644.648 253.969 645.102 254.344 645.383C254.734 645.648 255.211 645.781 255.773 645.781ZM252.727 613.273L259.523 603.523L263.484 606.734L255.656 615.734L252.727 613.273ZM274.781 652.203C274.781 653.594 275.039 654.578 275.555 655.156C276.07 655.734 276.867 656.023 277.945 656.023C278.383 656.023 278.805 655.953 279.211 655.812C279.617 655.688 279.969 655.445 280.266 655.086C280.578 654.742 280.828 654.258 281.016 653.633C281.203 653.008 281.297 652.203 281.297 651.219V646.133C280.766 646.82 280.078 647.414 279.234 647.914C278.406 648.398 277.375 648.641 276.141 648.641C275.781 648.641 275.359 648.609 274.875 648.547C274.391 648.469 273.891 648.305 273.375 648.055C272.859 647.805 272.352 647.43 271.852 646.93C271.352 646.414 270.906 645.727 270.516 644.867C270.125 644.008 269.805 642.938 269.555 641.656C269.32 640.359 269.203 638.797 269.203 636.969V628.484C269.203 626.734 269.32 625.25 269.555 624.031C269.805 622.797 270.125 621.766 270.516 620.938C270.906 620.109 271.352 619.461 271.852 618.992C272.367 618.523 272.883 618.172 273.398 617.938C273.93 617.688 274.445 617.531 274.945 617.469C275.445 617.406 275.891 617.375 276.281 617.375C277.062 617.375 277.75 617.477 278.344 617.68C278.953 617.883 279.477 618.156 279.914 618.5C280.367 618.828 280.75 619.203 281.062 619.625C281.375 620.047 281.641 620.469 281.859 620.891L282.398 617.703H287.016V648.688C287.016 650.484 286.844 652.102 286.5 653.539C286.156 654.992 285.617 656.227 284.883 657.242C284.148 658.273 283.211 659.062 282.07 659.609C280.945 660.156 279.594 660.43 278.016 660.43C276.953 660.43 275.953 660.336 275.016 660.148C274.078 659.961 273.258 659.625 272.555 659.141C271.852 658.672 271.297 658.023 270.891 657.195C270.484 656.383 270.281 655.344 270.281 654.078C270.281 653.859 270.305 653.586 270.352 653.258C270.398 652.93 270.477 652.578 270.586 652.203H274.781ZM278.156 644.047C278.547 644.047 278.891 643.984 279.188 643.859C279.5 643.719 279.773 643.539 280.008 643.32C280.258 643.102 280.469 642.852 280.641 642.57C280.828 642.289 280.984 642 281.109 641.703V624.055C280.812 623.398 280.414 622.844 279.914 622.391C279.43 621.922 278.836 621.688 278.133 621.688C277.695 621.688 277.297 621.766 276.938 621.922C276.578 622.078 276.266 622.375 276 622.812C275.734 623.234 275.523 623.828 275.367 624.594C275.227 625.344 275.156 626.32 275.156 627.523V638.141C275.156 639.344 275.227 640.328 275.367 641.094C275.523 641.859 275.734 642.461 276 642.898C276.266 643.336 276.578 643.641 276.938 643.812C277.312 643.969 277.719 644.047 278.156 644.047ZM301.031 650.352C299.641 650.352 298.406 650.094 297.328 649.578C296.266 649.062 295.367 648.258 294.633 647.164C293.898 646.07 293.344 644.672 292.969 642.969C292.594 641.25 292.406 639.188 292.406 636.781V630.688C292.406 628.641 292.555 626.891 292.852 625.438C293.164 623.969 293.562 622.742 294.047 621.758C294.547 620.758 295.117 619.969 295.758 619.391C296.414 618.812 297.086 618.375 297.773 618.078C298.461 617.766 299.141 617.57 299.812 617.492C300.5 617.398 301.133 617.352 301.711 617.352C302.773 617.352 303.797 617.516 304.781 617.844C305.766 618.156 306.633 618.703 307.383 619.484C308.133 620.25 308.727 621.281 309.164 622.578C309.617 623.875 309.844 625.492 309.844 627.43C309.844 628.086 309.82 628.75 309.773 629.422C309.742 630.094 309.695 630.758 309.633 631.414C309.57 632.055 309.484 632.68 309.375 633.289C309.281 633.898 309.18 634.461 309.07 634.977H298.359V638.258C298.359 639.664 298.414 640.852 298.523 641.82C298.633 642.773 298.812 643.547 299.062 644.141C299.328 644.719 299.68 645.141 300.117 645.406C300.57 645.656 301.133 645.781 301.805 645.781C302.164 645.781 302.516 645.711 302.859 645.57C303.203 645.414 303.5 645.164 303.75 644.82C304.016 644.477 304.227 644.023 304.383 643.461C304.539 642.883 304.617 642.172 304.617 641.328V640.32H309.562V641.562C309.562 644.625 308.828 646.859 307.359 648.266C305.906 649.656 303.797 650.352 301.031 650.352ZM304.312 630.992C304.328 630.82 304.344 630.594 304.359 630.312C304.375 630.016 304.383 629.711 304.383 629.398C304.398 629.086 304.406 628.781 304.406 628.484C304.406 628.172 304.406 627.906 304.406 627.688C304.406 625.562 304.156 624.031 303.656 623.094C303.156 622.156 302.414 621.688 301.43 621.688C300.914 621.688 300.461 621.812 300.07 622.062C299.68 622.297 299.359 622.703 299.109 623.281C298.859 623.844 298.672 624.594 298.547 625.531C298.422 626.469 298.359 627.633 298.359 629.023V630.992H304.312ZM314.859 617.727H319.43L319.969 621.172V621.195C320.438 620.461 320.938 619.852 321.469 619.367C322.016 618.867 322.578 618.469 323.156 618.172C323.734 617.875 324.32 617.664 324.914 617.539C325.523 617.414 326.125 617.352 326.719 617.352C328.609 617.352 330.062 618.016 331.078 619.344C332.109 620.656 332.625 622.633 332.625 625.273V650H326.695V625.484C326.695 624.062 326.477 623.078 326.039 622.531C325.602 621.969 324.961 621.688 324.117 621.688C323.523 621.688 322.93 621.883 322.336 622.273C321.758 622.664 321.242 623.203 320.789 623.891V650H314.859V617.727ZM346.898 650.352C346.211 650.352 345.508 650.297 344.789 650.188C344.086 650.078 343.398 649.852 342.727 649.508C342.07 649.164 341.445 648.672 340.852 648.031C340.273 647.391 339.766 646.547 339.328 645.5C338.891 644.453 338.547 643.164 338.297 641.633C338.047 640.102 337.922 638.273 337.922 636.148V631.086C337.922 628.992 338.047 627.203 338.297 625.719C338.562 624.219 338.914 622.961 339.352 621.945C339.805 620.93 340.328 620.125 340.922 619.531C341.516 618.922 342.141 618.461 342.797 618.148C343.469 617.82 344.156 617.609 344.859 617.516C345.562 617.406 346.25 617.352 346.922 617.352C347.562 617.352 348.227 617.398 348.914 617.492C349.602 617.586 350.273 617.789 350.93 618.102C351.586 618.398 352.203 618.852 352.781 619.461C353.375 620.055 353.891 620.859 354.328 621.875C354.781 622.891 355.133 624.156 355.383 625.672C355.648 627.172 355.781 628.977 355.781 631.086V636.148C355.781 638.242 355.648 640.047 355.383 641.562C355.117 643.078 354.758 644.359 354.305 645.406C353.852 646.453 353.328 647.305 352.734 647.961C352.141 648.602 351.516 649.102 350.859 649.461C350.203 649.82 349.531 650.055 348.844 650.164C348.172 650.289 347.523 650.352 346.898 650.352ZM346.945 645.781C347.477 645.781 347.922 645.648 348.281 645.383C348.656 645.102 348.953 644.648 349.172 644.023C349.406 643.398 349.57 642.578 349.664 641.562C349.773 640.531 349.828 639.258 349.828 637.742V629.797C349.828 628.281 349.773 627.008 349.664 625.977C349.57 624.945 349.406 624.117 349.172 623.492C348.953 622.852 348.656 622.391 348.281 622.109C347.922 621.828 347.477 621.688 346.945 621.688C346.383 621.688 345.906 621.828 345.516 622.109C345.141 622.391 344.828 622.852 344.578 623.492C344.328 624.117 344.148 624.945 344.039 625.977C343.93 627.008 343.875 628.281 343.875 629.797V637.742C343.875 639.258 343.93 640.531 344.039 641.562C344.148 642.578 344.328 643.398 344.578 644.023C344.828 644.648 345.141 645.102 345.516 645.383C345.906 645.648 346.383 645.781 346.945 645.781Z" fill="black"/>
<circle cx="178.5" cy="462.5" r="88.5" fill="#034638"/>
<path d="M163.414 477.705C163.414 475.58 163.706 473.268 164.289 470.769H171.365V475.673C171.365 478.522 171.774 480.577 172.591 481.838C173.432 483.076 174.798 483.695 176.69 483.695C178.605 483.695 179.959 483.006 180.753 481.628C181.547 480.25 181.944 478.265 181.944 475.673V464.113C181.944 462.619 181.816 461.416 181.559 460.505C181.302 459.571 180.952 458.847 180.508 458.333C180.064 457.796 179.539 457.434 178.932 457.248C178.348 457.061 177.706 456.967 177.005 456.967C175.697 456.967 174.576 457.341 173.642 458.088C172.708 458.812 171.937 459.688 171.33 460.715H164.64V430.17H190.351V438.192H172.206V452.974C173.187 451.853 174.413 450.977 175.884 450.347C177.379 449.716 178.932 449.401 180.543 449.401C184.256 449.401 186.977 450.65 188.705 453.149C190.433 455.648 191.297 459.326 191.297 464.183V474.342C191.297 477.424 190.9 480.005 190.106 482.083C189.312 484.138 188.261 485.796 186.953 487.058C185.646 488.295 184.128 489.183 182.4 489.72C180.695 490.257 178.932 490.525 177.11 490.525C174.892 490.525 172.93 490.234 171.225 489.65C169.52 489.043 168.084 488.178 166.917 487.058C165.772 485.937 164.897 484.594 164.289 483.029C163.706 481.441 163.414 479.666 163.414 477.705Z" fill="white"/>
<path d="M179 383L179 -1.5974e-05" stroke="#034638" stroke-width="7"/>
</svg>
