<svg width="200" height="92" viewBox="0 0 200 92" fill="none" xmlns="http://www.w3.org/2000/svg">
<g filter="url(#filter0_d_294_69)">
<path d="M26.7236 78L26.7236 70.8H28.4356L28.4356 78H26.7236ZM23.8916 75.2L23.8916 73.6H31.2676L31.2676 75.2H23.8916ZM46.0869 68.8L48.1669 68.8V80H46.0869V68.8ZM40.2949 80H38.2149V68.8H40.2949V80ZM46.2469 75.2H40.1189V73.424H46.2469V75.2ZM50.9761 80V71.456H52.9761V80H50.9761ZM51.9841 70.048C51.6107 70.048 51.3014 69.9307 51.0561 69.696C50.8214 69.4613 50.7041 69.1787 50.7041 68.848C50.7041 68.5067 50.8214 68.224 51.0561 68C51.3014 67.7653 51.6107 67.648 51.9841 67.648C52.3574 67.648 52.6614 67.76 52.8961 67.984C53.1414 68.1973 53.2641 68.4693 53.2641 68.8C53.2641 69.152 53.1467 69.4507 52.9121 69.696C52.6774 69.9307 52.3681 70.048 51.9841 70.048ZM59.2171 80.112C58.3957 80.112 57.6544 79.9307 56.9931 79.568C56.3424 79.1947 55.8304 78.6827 55.4571 78.032C55.0837 77.3813 54.8971 76.6133 54.8971 75.728C54.8971 74.8427 55.0837 74.0747 55.4571 73.424C55.8304 72.7733 56.3424 72.2667 56.9931 71.904C57.6544 71.5413 58.3957 71.36 59.2171 71.36C59.9317 71.36 60.5717 71.52 61.1371 71.84C61.7024 72.1493 62.1504 72.624 62.4811 73.264C62.8117 73.904 62.9771 74.7253 62.9771 75.728C62.9771 76.72 62.8171 77.5413 62.4971 78.192C62.1771 78.832 61.7344 79.312 61.1691 79.632C60.6037 79.952 59.9531 80.112 59.2171 80.112ZM59.4571 78.4C59.9371 78.4 60.3637 78.2933 60.7371 78.08C61.1211 77.8667 61.4251 77.5573 61.6491 77.152C61.8837 76.7467 62.0011 76.272 62.0011 75.728C62.0011 75.1733 61.8837 74.6987 61.6491 74.304C61.4251 73.8987 61.1211 73.5893 60.7371 73.376C60.3637 73.1627 59.9371 73.056 59.4571 73.056C58.9771 73.056 58.5451 73.1627 58.1611 73.376C57.7877 73.5893 57.4837 73.8987 57.2491 74.304C57.0251 74.6987 56.9131 75.1733 56.9131 75.728C56.9131 76.272 57.0251 76.7467 57.2491 77.152C57.4837 77.5573 57.7877 77.8667 58.1611 78.08C58.5451 78.2933 58.9771 78.4 59.4571 78.4ZM62.0491 80V77.984L62.1291 75.712L61.9691 73.44V68.128H63.9531V80H62.0491ZM66.5854 80V71.456H68.4894V73.808L68.2654 73.12C68.5214 72.544 68.9214 72.1067 69.4654 71.808C70.0201 71.5093 70.7081 71.36 71.5294 71.36V73.264C71.4441 73.2427 71.3641 73.232 71.2894 73.232C71.2148 73.2213 71.1401 73.216 71.0654 73.216C70.3081 73.216 69.7054 73.44 69.2574 73.888C68.8094 74.3253 68.5854 74.9813 68.5854 75.856V80H66.5854ZM76.9879 80.112C76.1133 80.112 75.3346 79.9253 74.6519 79.552C73.9693 79.168 73.4306 78.6453 73.0359 77.984C72.6413 77.3227 72.4439 76.5707 72.4439 75.728C72.4439 74.8747 72.6413 74.1227 73.0359 73.472C73.4306 72.8107 73.9693 72.2933 74.6519 71.92C75.3346 71.5467 76.1133 71.36 76.9879 71.36C77.8733 71.36 78.6573 71.5467 79.3399 71.92C80.0333 72.2933 80.5719 72.8053 80.9559 73.456C81.3506 74.1067 81.5479 74.864 81.5479 75.728C81.5479 76.5707 81.3506 77.3227 80.9559 77.984C80.5719 78.6453 80.0333 79.168 79.3399 79.552C78.6573 79.9253 77.8733 80.112 76.9879 80.112ZM76.9879 78.4C77.4786 78.4 77.9159 78.2933 78.2999 78.08C78.6839 77.8667 78.9826 77.5573 79.1959 77.152C79.4199 76.7467 79.5319 76.272 79.5319 75.728C79.5319 75.1733 79.4199 74.6987 79.1959 74.304C78.9826 73.8987 78.6839 73.5893 78.2999 73.376C77.9159 73.1627 77.4839 73.056 77.0039 73.056C76.5133 73.056 76.0759 73.1627 75.6919 73.376C75.3186 73.5893 75.0199 73.8987 74.7959 74.304C74.5719 74.6987 74.4599 75.1733 74.4599 75.728C74.4599 76.272 74.5719 76.7467 74.7959 77.152C75.0199 77.5573 75.3186 77.8667 75.6919 78.08C76.0759 78.2933 76.5079 78.4 76.9879 78.4ZM75.6279 70.288L77.7879 68.096H80.1399L77.3559 70.288H75.6279ZM87.3324 83.216C86.5431 83.216 85.7698 83.1093 85.0124 82.896C84.2658 82.6933 83.6524 82.3947 83.1724 82L84.0684 80.496C84.4418 80.8053 84.9111 81.0507 85.4764 81.232C86.0524 81.424 86.6338 81.52 87.2204 81.52C88.1591 81.52 88.8471 81.3013 89.2844 80.864C89.7218 80.4373 89.9404 79.792 89.9404 78.928V77.408L90.1004 75.472L90.0364 73.536V71.456H91.9404V78.704C91.9404 80.2507 91.5458 81.3867 90.7564 82.112C89.9671 82.848 88.8258 83.216 87.3324 83.216ZM87.0764 79.616C86.2658 79.616 85.5298 79.4453 84.8684 79.104C84.2178 78.752 83.7004 78.2667 83.3164 77.648C82.9431 77.0293 82.7564 76.304 82.7564 75.472C82.7564 74.6507 82.9431 73.9307 83.3164 73.312C83.7004 72.6933 84.2178 72.2133 84.8684 71.872C85.5298 71.5307 86.2658 71.36 87.0764 71.36C87.8018 71.36 88.4524 71.504 89.0284 71.792C89.6044 72.08 90.0631 72.528 90.4044 73.136C90.7564 73.744 90.9324 74.5227 90.9324 75.472C90.9324 76.4213 90.7564 77.2053 90.4044 77.824C90.0631 78.432 89.6044 78.8853 89.0284 79.184C88.4524 79.472 87.8018 79.616 87.0764 79.616ZM87.3804 77.92C87.8818 77.92 88.3298 77.8187 88.7244 77.616C89.1191 77.4027 89.4231 77.1147 89.6364 76.752C89.8604 76.3787 89.9724 75.952 89.9724 75.472C89.9724 74.992 89.8604 74.5707 89.6364 74.208C89.4231 73.8347 89.1191 73.552 88.7244 73.36C88.3298 73.1573 87.8818 73.056 87.3804 73.056C86.8791 73.056 86.4258 73.1573 86.0204 73.36C85.6258 73.552 85.3164 73.8347 85.0924 74.208C84.8791 74.5707 84.7724 74.992 84.7724 75.472C84.7724 75.952 84.8791 76.3787 85.0924 76.752C85.3164 77.1147 85.6258 77.4027 86.0204 77.616C86.4258 77.8187 86.8791 77.92 87.3804 77.92ZM98.5858 80.112C97.6365 80.112 96.8045 79.9253 96.0898 79.552C95.3858 79.168 94.8365 78.6453 94.4418 77.984C94.0578 77.3227 93.8658 76.5707 93.8658 75.728C93.8658 74.8747 94.0525 74.1227 94.4258 73.472C94.8098 72.8107 95.3325 72.2933 95.9938 71.92C96.6658 71.5467 97.4285 71.36 98.2818 71.36C99.1138 71.36 99.8551 71.5413 100.506 71.904C101.156 72.2667 101.668 72.7787 102.042 73.44C102.415 74.1013 102.602 74.88 102.602 75.776C102.602 75.8613 102.596 75.9573 102.586 76.064C102.586 76.1707 102.58 76.272 102.57 76.368H95.4498V75.04H101.514L100.73 75.456C100.74 74.9653 100.639 74.5333 100.426 74.16C100.212 73.7867 99.9191 73.4933 99.5458 73.28C99.1831 73.0667 98.7618 72.96 98.2818 72.96C97.7911 72.96 97.3591 73.0667 96.9858 73.28C96.6231 73.4933 96.3351 73.792 96.1218 74.176C95.9191 74.5493 95.8178 74.992 95.8178 75.504V75.824C95.8178 76.336 95.9351 76.7893 96.1698 77.184C96.4045 77.5787 96.7351 77.8827 97.1618 78.096C97.5885 78.3093 98.0791 78.416 98.6338 78.416C99.1138 78.416 99.5458 78.3413 99.9298 78.192C100.314 78.0427 100.655 77.808 100.954 77.488L102.026 78.72C101.642 79.168 101.156 79.5147 100.57 79.76C99.9938 79.9947 99.3325 80.112 98.5858 80.112ZM109.371 71.36C110.054 71.36 110.662 71.4933 111.195 71.76C111.739 72.0267 112.166 72.4373 112.475 72.992C112.784 73.536 112.939 74.24 112.939 75.104V80H110.939V75.36C110.939 74.6027 110.758 74.0373 110.395 73.664C110.043 73.2907 109.547 73.104 108.907 73.104C108.438 73.104 108.022 73.2 107.659 73.392C107.296 73.584 107.014 73.872 106.811 74.256C106.619 74.6293 106.523 75.104 106.523 75.68V80H104.523V71.456H106.427V73.76L106.091 73.056C106.39 72.512 106.822 72.096 107.387 71.808C107.963 71.5093 108.624 71.36 109.371 71.36ZM119.332 80.112C118.457 80.112 117.678 79.9253 116.996 79.552C116.313 79.168 115.774 78.6453 115.38 77.984C114.985 77.3227 114.788 76.5707 114.788 75.728C114.788 74.8747 114.985 74.1227 115.38 73.472C115.774 72.8107 116.313 72.2933 116.996 71.92C117.678 71.5467 118.457 71.36 119.332 71.36C120.217 71.36 121.001 71.5467 121.684 71.92C122.377 72.2933 122.916 72.8053 123.3 73.456C123.694 74.1067 123.892 74.864 123.892 75.728C123.892 76.5707 123.694 77.3227 123.3 77.984C122.916 78.6453 122.377 79.168 121.684 79.552C121.001 79.9253 120.217 80.112 119.332 80.112ZM119.332 78.4C119.822 78.4 120.26 78.2933 120.644 78.08C121.028 77.8667 121.326 77.5573 121.54 77.152C121.764 76.7467 121.876 76.272 121.876 75.728C121.876 75.1733 121.764 74.6987 121.54 74.304C121.326 73.8987 121.028 73.5893 120.644 73.376C120.26 73.1627 119.828 73.056 119.348 73.056C118.857 73.056 118.42 73.1627 118.036 73.376C117.662 73.5893 117.364 73.8987 117.14 74.304C116.916 74.6987 116.804 75.1733 116.804 75.728C116.804 76.272 116.916 76.7467 117.14 77.152C117.364 77.5573 117.662 77.8667 118.036 78.08C118.42 78.2933 118.852 78.4 119.332 78.4ZM133.73 80L128.834 68.8L131.09 68.8L135.458 78.928H134.162L138.578 68.8H140.658L135.778 80H133.73ZM145.023 80.112C144.074 80.112 143.242 79.9253 142.527 79.552C141.823 79.168 141.274 78.6453 140.879 77.984C140.495 77.3227 140.303 76.5707 140.303 75.728C140.303 74.8747 140.49 74.1227 140.863 73.472C141.247 72.8107 141.77 72.2933 142.431 71.92C143.103 71.5467 143.866 71.36 144.719 71.36C145.551 71.36 146.293 71.5413 146.943 71.904C147.594 72.2667 148.106 72.7787 148.479 73.44C148.853 74.1013 149.039 74.88 149.039 75.776C149.039 75.8613 149.034 75.9573 149.023 76.064C149.023 76.1707 149.018 76.272 149.007 76.368H141.887V75.04H147.951L147.167 75.456C147.178 74.9653 147.077 74.5333 146.863 74.16C146.65 73.7867 146.357 73.4933 145.983 73.28C145.621 73.0667 145.199 72.96 144.719 72.96C144.229 72.96 143.797 73.0667 143.423 73.28C143.061 73.4933 142.773 73.792 142.559 74.176C142.357 74.5493 142.255 74.992 142.255 75.504V75.824C142.255 76.336 142.373 76.7893 142.607 77.184C142.842 77.5787 143.173 77.8827 143.599 78.096C144.026 78.3093 144.517 78.416 145.071 78.416C145.551 78.416 145.983 78.3413 146.367 78.192C146.751 78.0427 147.093 77.808 147.391 77.488L148.463 78.72C148.079 79.168 147.594 79.5147 147.007 79.76C146.431 79.9947 145.77 80.112 145.023 80.112ZM150.96 80V71.456H152.864V73.808L152.64 73.12C152.896 72.544 153.296 72.1067 153.84 71.808C154.395 71.5093 155.083 71.36 155.904 71.36V73.264C155.819 73.2427 155.739 73.232 155.664 73.232C155.59 73.2213 155.515 73.216 155.44 73.216C154.683 73.216 154.08 73.44 153.632 73.888C153.184 74.3253 152.96 74.9813 152.96 75.856V80H150.96ZM161.139 80.112C160.318 80.112 159.576 79.9307 158.915 79.568C158.264 79.1947 157.752 78.6827 157.379 78.032C157.006 77.3813 156.819 76.6133 156.819 75.728C156.819 74.8427 157.006 74.0747 157.379 73.424C157.752 72.7733 158.264 72.2667 158.915 71.904C159.576 71.5413 160.318 71.36 161.139 71.36C161.854 71.36 162.494 71.52 163.059 71.84C163.624 72.1493 164.072 72.624 164.403 73.264C164.734 73.904 164.899 74.7253 164.899 75.728C164.899 76.72 164.739 77.5413 164.419 78.192C164.099 78.832 163.656 79.312 163.091 79.632C162.526 79.952 161.875 80.112 161.139 80.112ZM161.379 78.4C161.859 78.4 162.286 78.2933 162.659 78.08C163.043 77.8667 163.347 77.5573 163.571 77.152C163.806 76.7467 163.923 76.272 163.923 75.728C163.923 75.1733 163.806 74.6987 163.571 74.304C163.347 73.8987 163.043 73.5893 162.659 73.376C162.286 73.1627 161.859 73.056 161.379 73.056C160.899 73.056 160.467 73.1627 160.083 73.376C159.71 73.5893 159.406 73.8987 159.171 74.304C158.947 74.6987 158.835 75.1733 158.835 75.728C158.835 76.272 158.947 76.7467 159.171 77.152C159.406 77.5573 159.71 77.8667 160.083 78.08C160.467 78.2933 160.899 78.4 161.379 78.4ZM163.971 80V77.984L164.051 75.712L163.891 73.44V68.128H165.875V80H163.971ZM172.523 80.112C171.574 80.112 170.742 79.9253 170.027 79.552C169.323 79.168 168.774 78.6453 168.379 77.984C167.995 77.3227 167.803 76.5707 167.803 75.728C167.803 74.8747 167.99 74.1227 168.363 73.472C168.747 72.8107 169.27 72.2933 169.931 71.92C170.603 71.5467 171.366 71.36 172.219 71.36C173.051 71.36 173.793 71.5413 174.443 71.904C175.094 72.2667 175.606 72.7787 175.979 73.44C176.353 74.1013 176.539 74.88 176.539 75.776C176.539 75.8613 176.534 75.9573 176.523 76.064C176.523 76.1707 176.518 76.272 176.507 76.368H169.387V75.04H175.451L174.667 75.456C174.678 74.9653 174.577 74.5333 174.363 74.16C174.15 73.7867 173.857 73.4933 173.483 73.28C173.121 73.0667 172.699 72.96 172.219 72.96C171.729 72.96 171.297 73.0667 170.923 73.28C170.561 73.4933 170.273 73.792 170.059 74.176C169.857 74.5493 169.755 74.992 169.755 75.504V75.824C169.755 76.336 169.873 76.7893 170.107 77.184C170.342 77.5787 170.673 77.8827 171.099 78.096C171.526 78.3093 172.017 78.416 172.571 78.416C173.051 78.416 173.483 78.3413 173.867 78.192C174.251 78.0427 174.593 77.808 174.891 77.488L175.963 78.72C175.579 79.168 175.094 79.5147 174.507 79.76C173.931 79.9947 173.27 80.112 172.523 80.112Z" fill="white"/>
</g>
<g clip-path="url(#clip0_294_69)" filter="url(#filter1_d_294_69)">
<path d="M98.8749 28.4212C99.487 28.4168 100.09 28.3367 100.687 28.2119C101.596 28.022 102.472 27.7335 103.297 27.302C103.916 26.9784 104.484 26.5827 105.008 26.1183C105.799 25.4157 106.394 24.5684 106.894 23.6444C107.405 22.6989 107.811 21.7091 108.165 20.6961C108.593 19.4725 108.948 18.227 109.292 16.9782C109.807 15.1092 110.219 13.2159 110.592 11.3146C110.829 10.1102 111.044 8.90158 111.256 7.69261C111.32 7.3314 111.261 7.00685 110.968 6.75951C110.711 6.54136 110.4 6.4944 110.079 6.53921C108.396 6.77471 106.729 7.10838 105.065 7.44949C104.099 7.64737 103.138 7.86946 102.182 8.107C100.618 8.49499 99.0636 8.91242 97.5398 9.43681C96.6341 9.74849 95.7413 10.0935 94.8714 10.4969C94.122 10.8444 93.3882 11.215 92.7363 11.7315C91.9133 12.3835 91.232 13.1589 90.6924 14.0578C90.132 14.9902 89.7586 15.9944 89.5411 17.0577C89.3722 17.8832 89.3241 18.7195 89.3664 19.5583C89.387 19.9648 89.4077 20.3762 89.5312 20.7712C89.6417 21.1245 89.8435 21.3813 90.2348 21.4328C90.434 21.459 90.621 21.3963 90.8066 21.3337C90.8962 21.3034 90.978 21.2492 91.076 21.2443L91.0812 21.2453C91.0741 21.1947 91.1047 21.1525 91.1301 21.1089C91.2433 20.9142 91.337 20.7133 91.3633 20.4848C91.3833 20.3105 91.333 20.1448 91.314 19.9758C91.2701 19.588 91.2245 19.2003 91.2363 18.8097C91.2873 17.1117 91.7926 15.5702 92.8662 14.2402C93.5873 13.347 94.4866 12.6797 95.5452 12.2246C96.5307 11.8008 97.5326 11.4212 98.5509 11.0859C99.5416 10.7586 100.543 10.4693 101.554 10.2069C103.333 9.74463 105.131 9.36146 106.932 8.99725C107.46 8.89063 107.987 8.7837 108.514 8.67645C108.594 8.66007 108.675 8.65399 108.754 8.64427C108.952 8.61998 109.085 8.738 109.096 8.93802C109.109 9.15976 109.045 9.37248 109.006 9.5867C108.748 11.0149 108.463 12.4383 108.135 13.8523C107.831 15.165 107.495 16.4699 107.116 17.7634C106.786 18.8928 106.415 20.0089 105.974 21.1005C105.726 21.714 105.474 22.3262 105.172 22.9162C104.954 23.3423 104.675 23.7258 104.36 24.0865C103.743 24.7939 102.998 25.3319 102.161 25.7423C101.329 26.1502 100.45 26.4003 99.5244 26.4927C98.6238 26.5808 97.7387 26.5155 96.8669 26.2761C96.4817 26.1702 96.0994 26.1495 95.7149 26.275C95.6744 26.2883 95.6309 26.3013 95.591 26.2844C95.5755 26.4024 95.4974 26.4932 95.4479 26.5959C95.1192 27.279 95.3242 27.7113 96.0101 27.963C96.4626 28.1289 96.9355 28.2256 97.411 28.3007C97.8955 28.3771 98.3828 28.4247 98.8749 28.4212Z" fill="white"/>
<path d="M123.986 40.6846C123.964 40.3195 123.955 39.954 123.891 39.5919C123.677 38.3698 123.305 37.1978 122.777 36.0758C122.244 34.9462 121.575 33.9031 120.769 32.9465C120.263 32.3483 119.716 31.7932 119.12 31.2871C118.385 30.6628 117.593 30.1192 116.745 29.6563C115.762 29.1182 114.727 28.7137 113.648 28.4157C112.753 28.1686 111.831 28.0935 110.918 27.9625C110.718 27.9338 110.705 27.9125 110.788 27.7318C111.052 27.1612 111.322 26.5935 111.571 26.0162C112.088 24.8124 112.524 23.5771 112.952 22.3394C113.385 21.0879 113.779 19.8237 114.148 18.5521C114.666 16.7685 115.127 14.9699 115.549 13.1612C115.944 11.4693 116.308 9.7706 116.639 8.06524C116.808 7.20123 116.972 6.33643 117.133 5.47084C117.36 4.23562 117.572 2.99775 117.784 1.75977C117.835 1.46505 117.9 1.17186 117.883 0.867981C117.859 0.416685 117.546 0.0648125 117.115 0.015817C117.055 0.00891472 116.992 0.0314802 116.933 0.000366211H116.676C116.632 0.0287622 116.583 0.0119887 116.537 0.0140987C116.28 0.025686 116.022 0.0284047 115.769 0.0693535C114.327 0.303817 112.89 0.568822 111.455 0.838261C110.468 1.02347 109.482 1.21745 108.498 1.4202C106.987 1.73227 105.48 2.05911 103.98 2.42114C103.04 2.64802 102.103 2.88543 101.168 3.13336C99.6772 3.53105 98.1922 3.95234 96.7253 4.43185C94.7557 5.07559 92.7837 5.71543 90.8977 6.58651C90.1356 6.93853 89.3931 7.32591 88.6868 7.781C87.9967 8.2255 87.351 8.72658 86.7423 9.27733C86.1867 9.77994 85.6655 10.3152 85.1946 10.8968C84.7235 11.4776 84.3 12.0955 83.9281 12.7444C83.4602 13.5619 83.0786 14.4171 82.7833 15.31C82.5464 16.0295 82.3609 16.7635 82.2368 17.5116C82.1544 18.0087 82.0756 18.5062 82.0555 19.0115C82.0417 19.3586 82.0271 19.7053 82.0278 20.0528C82.0278 20.1372 82.0229 20.2224 82.0001 20.3049V20.8196C82.0619 21.1057 82.0267 21.3971 82.0377 21.6855C82.053 22.0857 82.0851 22.4834 82.1479 22.8775C82.2967 23.81 82.5283 24.7217 82.8528 25.6106C83.2419 26.6761 83.7518 27.6798 84.3661 28.6314C84.7071 29.1596 85.0845 29.6617 85.4779 30.1526C85.7261 30.4622 85.7039 30.6485 85.411 30.9154C85.4003 30.925 85.3899 30.9347 85.3791 30.944C85.1242 31.1661 84.8696 31.3907 84.6411 31.6385C84.4019 31.898 84.1469 32.1411 83.9032 32.3956C83.7543 32.5512 83.6222 32.7177 83.5294 32.9147C83.3229 33.353 83.4217 33.7816 83.8048 34.1392C84.1279 34.4411 84.6477 34.4511 84.9904 34.2515C85.1347 34.1674 85.2709 34.0687 85.388 33.95C85.9001 33.4313 86.4368 32.9367 86.9234 32.3927C86.9741 32.336 87.0276 32.2813 87.0901 32.2366C87.2483 32.1237 87.3798 32.1232 87.5363 32.2371C87.6287 32.3043 87.7176 32.3765 87.8057 32.449C88.5992 33.1027 89.459 33.6564 90.372 34.126C91.1742 34.5386 92.0102 34.8697 92.8724 35.1377C94.0653 35.5085 95.2847 35.7248 96.5308 35.7867C96.7304 35.7963 96.9299 35.8055 97.1296 35.8123C97.2574 35.8167 97.2785 35.8514 97.2398 35.9758C97.2308 36.0029 97.22 36.0294 97.2076 36.0552C96.7919 36.9677 96.4628 37.9094 96.2306 38.8859C96.0297 39.7311 95.9137 40.5882 95.8763 41.4537C95.8429 42.2242 95.8811 42.9942 95.9816 43.7609C96.103 44.691 96.311 45.6077 96.6031 46.4991C96.8844 47.357 97.2557 48.1756 97.6924 48.9657C98.2574 49.9882 98.9545 50.9135 99.7526 51.7638C100.111 52.1459 100.502 52.4947 100.902 52.8331C101.706 53.5129 102.583 54.0826 103.516 54.5657C104.356 55.0006 105.232 55.3479 106.142 55.6077C106.563 55.7287 106.984 55.8485 107.423 55.8924C107.741 55.9242 108.05 56.0003 108.35 56.1091H111.498C111.735 56.042 111.973 55.9732 112.218 55.9427C112.905 55.8577 113.577 55.708 114.237 55.4992C115.25 55.1793 116.224 54.7455 117.14 54.2061C118.047 53.6724 118.88 53.0417 119.648 52.325C120.062 51.9383 120.445 51.5211 120.809 51.086C121.439 50.3338 121.989 49.518 122.45 48.6517C122.99 47.6393 123.406 46.5769 123.677 45.4608C123.809 44.9204 123.934 44.3794 123.963 43.8197C123.976 43.579 123.97 43.3369 124.001 43.097V40.9523C123.97 40.8644 123.991 40.7738 123.986 40.6846ZM96.6609 33.8585C96.4418 33.8508 96.2232 33.8349 96.0051 33.8106C95.9057 33.7995 95.806 33.7904 95.7066 33.7793C94.4859 33.6432 93.3089 33.3381 92.1758 32.8642C91.3324 32.5132 90.5357 32.0755 89.7788 31.5646C89.4704 31.3565 89.1717 31.1353 88.8781 30.9072C88.8291 30.8693 88.7835 30.8271 88.7419 30.7813C88.6856 30.719 88.6786 30.6449 88.7106 30.5678C88.7327 30.5148 88.7648 30.4666 88.8052 30.4259C88.8454 30.3851 88.8857 30.3446 88.9263 30.3043C89.9466 29.2955 90.9669 28.2867 91.9872 27.2778C92.7154 26.5567 93.4428 25.8348 94.1693 25.1119C94.2201 25.0615 94.2729 25.0132 94.3247 24.964C94.3636 24.9222 94.4013 24.8792 94.4416 24.8388C94.8214 24.457 95.2066 24.0803 95.5805 23.6929C96.044 23.2126 96.5197 22.7448 96.989 22.2706C97.4582 21.7964 97.9295 21.3241 98.4004 20.8511C98.666 20.5842 98.9318 20.3176 99.1979 20.0511C99.2955 19.9533 99.3921 19.8544 99.4916 19.7586C99.5982 19.6559 99.6969 19.5461 99.7934 19.4344C99.896 19.3149 99.9812 19.1815 100.046 19.0381C100.095 18.933 100.118 18.8213 100.132 18.7076C100.143 18.6159 100.121 18.5274 100.095 18.4405C100.059 18.3203 99.9983 18.2131 99.9196 18.1156C99.7984 17.9654 99.6552 17.8427 99.4816 17.7555C99.2525 17.6403 99.0226 17.6454 98.7916 17.7453C98.6369 17.8122 98.5019 17.9098 98.3777 18.0226C98.3213 18.0739 98.2676 18.1281 98.2137 18.182C97.0706 19.3239 95.9276 20.466 94.7848 21.6081C94.3566 22.036 93.9284 22.4638 93.5003 22.8917C93.3282 23.0635 93.1462 23.225 92.9552 23.3755V23.3755C92.9337 23.4008 92.9134 23.4274 92.8904 23.4513C92.8375 23.5063 92.7833 23.56 92.7296 23.6142C91.5146 24.8395 90.2997 26.065 89.0849 27.2906C88.5684 27.8123 88.0535 28.3355 87.5402 28.8602C87.4865 28.9146 87.4341 28.97 87.3781 29.0217C87.3434 29.0539 87.3056 29.0842 87.2648 29.1076C87.1798 29.1566 87.0998 29.1464 87.0284 29.0802C86.997 29.051 86.9681 29.0193 86.9418 28.9855C86.5248 28.4516 86.1328 27.9005 85.7872 27.3172C85.3389 26.5606 84.9632 25.7701 84.6723 24.9398C84.456 24.3238 84.2874 23.692 84.1681 23.05C84.1238 22.8111 84.0855 22.5715 84.0545 22.3305C84.0152 22.0233 83.9871 21.7153 83.9662 21.4062C83.9278 20.8394 83.9335 20.2726 83.9517 19.7058C83.9576 19.5203 83.9788 19.3353 83.9946 19.1502C84.0035 19.0459 84.0148 18.9416 84.0264 18.8375C84.1611 17.6317 84.4634 16.4695 84.9335 15.3508C85.2884 14.5089 85.7316 13.7158 86.255 12.9673C86.8362 12.1363 87.4999 11.3764 88.2368 10.6802C88.5214 10.4114 88.8269 10.1678 89.1452 9.93991C89.5836 9.6257 90.0445 9.34793 90.5203 9.09383C91.0379 8.81734 91.5698 8.57144 92.1091 8.34109C93.3674 7.80357 94.6432 7.31107 95.9364 6.8636C96.8054 6.56181 97.6802 6.27786 98.5608 6.01176C99.359 5.76981 100.161 5.54044 100.966 5.32364C101.849 5.08467 102.736 4.85817 103.625 4.64414C104.228 4.49913 104.831 4.35826 105.435 4.22153C106.025 4.08745 106.616 3.95856 107.208 3.83024C107.678 3.72817 108.149 3.62849 108.62 3.53119C109.017 3.44894 109.414 3.37051 109.811 3.29204C110.237 3.20807 110.662 3.12518 111.088 3.04338C111.458 2.97221 111.828 2.90319 112.197 2.83277C112.628 2.7508 113.059 2.66855 113.489 2.58601C113.859 2.51541 114.228 2.44481 114.598 2.37422C114.767 2.34203 114.935 2.30984 115.103 2.27544C115.183 2.2591 115.264 2.25627 115.345 2.25935C115.379 2.26022 115.411 2.26898 115.441 2.28492C115.483 2.30739 115.516 2.3454 115.531 2.39106C115.557 2.46498 115.559 2.5408 115.547 2.61698C115.53 2.72527 115.514 2.83356 115.494 2.94135C115.42 3.35382 115.345 3.76611 115.269 4.17822C115.19 4.6043 115.109 5.02999 115.028 5.45579C114.968 5.77398 114.907 6.0921 114.846 6.41013C114.773 6.78414 114.7 7.15798 114.626 7.53166C114.547 7.92865 114.467 8.32547 114.386 8.72211C114.307 9.10463 114.227 9.48684 114.145 9.86874C114.026 10.4228 113.905 10.9765 113.783 11.5298C113.687 11.9575 113.588 12.3843 113.488 12.811C113.283 13.6877 113.068 14.5618 112.842 15.4334C112.596 16.3882 112.336 17.3394 112.063 18.2868C111.811 19.1563 111.55 20.0229 111.272 20.8843C110.961 21.8457 110.632 22.8004 110.267 23.7428C110.058 24.2849 109.836 24.8224 109.604 25.3551C109.302 26.0453 108.973 26.7223 108.625 27.3903C108.575 27.4877 108.519 27.5818 108.454 27.6705C108.292 27.8917 108.083 28.0515 107.825 28.1477C107.7 28.1939 107.571 28.2293 107.44 28.2533C106.981 28.3391 106.526 28.446 106.077 28.5738C105.513 28.7342 104.959 28.929 104.419 29.1573C104.019 29.3266 103.629 29.5147 103.247 29.7218C102.537 30.1067 101.868 30.5534 101.24 31.0618C100.814 31.4062 100.408 31.7758 100.025 32.1685C99.7024 32.5 99.3941 32.8445 99.1051 33.2057C99.0335 33.295 98.9561 33.3794 98.8734 33.4585C98.6607 33.6624 98.4089 33.7871 98.1178 33.8356C98.0143 33.8525 97.9098 33.862 97.805 33.8642C97.4235 33.8741 97.0422 33.8722 96.6609 33.8585ZM122.019 42.7599C122.013 42.9263 121.991 43.092 121.978 43.2582C121.964 43.4293 121.94 43.599 121.917 43.7689C121.864 44.1416 121.794 44.5115 121.705 44.8771C121.548 45.5258 121.336 46.1599 121.071 46.7726C120.714 47.598 120.271 48.3742 119.741 49.1011C118.73 50.4824 117.485 51.6034 116.006 52.4643C115.115 52.9829 114.161 53.3837 113.167 53.6567C112.762 53.7682 112.352 53.8585 111.939 53.9273C111.685 53.9694 111.429 53.9999 111.173 54.0274C110.608 54.0882 110.041 54.0924 109.474 54.0767C109.254 54.0706 109.036 54.0517 108.818 54.0297C108.652 54.013 108.486 53.9927 108.321 53.9707C107.98 53.9253 107.643 53.8617 107.309 53.7847C106.589 53.6189 105.885 53.3861 105.208 53.0894C104.299 52.6915 103.442 52.1827 102.658 51.5747C101.527 50.6997 100.578 49.6589 99.811 48.4523C99.1468 47.4066 98.6558 46.285 98.3378 45.0874C98.2255 44.6638 98.1373 44.2341 98.0738 43.8004C98.0372 43.5505 98.007 43.3001 97.9865 43.0483C97.9563 42.6777 97.9364 42.3066 97.9422 41.9347C97.9467 41.6441 97.9608 41.3539 97.9846 41.0641C98.0023 40.8455 98.0258 40.6277 98.0552 40.4107C98.094 40.1227 98.1451 39.8366 98.2063 39.5523C98.3591 38.8392 98.5771 38.1416 98.8575 37.4683C99.3079 36.3891 99.9118 35.3807 100.65 34.4742C101.564 33.3557 102.641 32.4261 103.881 31.6853C104.642 31.2323 105.443 30.8679 106.284 30.5919C106.823 30.4142 107.373 30.2779 107.932 30.179C108.162 30.1385 108.393 30.1055 108.626 30.0799C108.863 30.0539 109.1 30.0354 109.338 30.0196C109.557 30.005 109.776 30.0022 110.063 30.0007C110.301 29.9911 110.605 30.015 110.91 30.0355C111.133 30.0507 111.355 30.0768 111.578 30.1063C112.742 30.2608 113.877 30.5876 114.944 31.0761C115.746 31.4414 116.498 31.8892 117.2 32.4197C118.441 33.3552 119.492 34.5184 120.297 35.8472C120.866 36.7862 121.298 37.7843 121.594 38.8414C121.719 39.2863 121.817 39.7383 121.889 40.1949C121.941 40.5293 121.979 40.8651 122.005 41.2024C122.044 41.7215 122.04 42.2405 122.019 42.7598V42.7599Z" fill="white"/>
<path d="M102.983 41.7222C102.983 41.4647 102.982 41.2075 102.983 40.9501C102.986 39.8826 102.99 38.8151 102.994 37.7475C102.994 37.6856 102.993 37.6234 102.998 37.5618C103.014 37.3583 103.075 37.1691 103.193 37.0017C103.37 36.7518 103.615 36.6239 103.92 36.6068C104.354 36.5823 104.748 36.8619 104.903 37.2751C104.946 37.3914 104.971 37.5138 104.976 37.6378C104.997 38.0854 105.003 38.5332 105.002 38.9813C105.001 39.2101 105 39.4388 104.997 39.6675C104.995 39.7866 104.989 39.9056 104.985 40.0247C104.983 40.1009 104.981 40.1771 104.98 40.2533C104.979 40.3255 104.991 40.3964 105.01 40.4651C105.044 40.5912 105.127 40.669 105.255 40.6976C105.334 40.7159 105.416 40.7205 105.497 40.7111C105.621 40.6963 105.744 40.7 105.868 40.7123C106.072 40.7326 106.276 40.7527 106.48 40.7695C106.623 40.7812 106.765 40.7817 106.908 40.7556C106.964 40.7457 107.019 40.7303 107.072 40.7098C107.232 40.6468 107.344 40.5361 107.405 40.3757C107.438 40.2911 107.457 40.2017 107.461 40.1111C107.468 39.9683 107.463 39.8251 107.447 39.683C107.425 39.489 107.405 39.2947 107.388 39.1001C107.381 39.0241 107.381 38.9477 107.387 38.8716C107.406 38.6334 107.4 38.3953 107.391 38.1572C107.384 37.9666 107.391 37.7758 107.41 37.586C107.438 37.3068 107.551 37.0639 107.758 36.8688C108.074 36.5705 108.529 36.5278 108.884 36.7255C109.021 36.8015 109.128 36.9072 109.21 37.0394C109.309 37.2004 109.369 37.3752 109.383 37.5638C109.392 37.6826 109.398 37.8017 109.399 37.9208C109.402 38.1591 109.402 38.3973 109.402 38.6356C109.402 39.9463 109.401 41.2569 109.401 42.5675C109.401 43.5302 109.4 44.493 109.4 45.4557C109.4 45.5891 109.393 45.7225 109.379 45.8552C109.36 46.0317 109.317 46.2024 109.234 46.3607C109.069 46.6768 108.806 46.8351 108.451 46.8462C108.33 46.85 108.213 46.8381 108.099 46.7976C107.898 46.7266 107.743 46.5987 107.625 46.4227C107.529 46.2778 107.471 46.1174 107.434 45.9484C107.413 45.8505 107.401 45.7508 107.399 45.6507C107.382 44.9884 107.379 44.326 107.387 43.6636C107.389 43.5111 107.396 43.3587 107.4 43.2063C107.402 43.1395 107.395 43.0728 107.38 43.0078C107.354 42.8963 107.286 42.8222 107.178 42.7865C107.124 42.7681 107.067 42.7571 107.01 42.7539C106.634 42.7346 106.258 42.7178 105.881 42.7279C105.752 42.7315 105.624 42.747 105.499 42.78C105.462 42.7897 105.426 42.8019 105.391 42.8165C105.262 42.8705 105.17 42.9627 105.113 43.0907C105.07 43.1874 105.048 43.2894 105.031 43.3932C105.008 43.5395 105 43.6869 104.999 43.8347C104.996 44.1493 104.995 44.4638 104.994 44.7783C104.994 44.9451 104.996 45.1119 104.998 45.2787C105.001 45.4693 104.994 45.66 104.975 45.8497C104.946 46.1345 104.838 46.3838 104.627 46.5821C104.442 46.7559 104.224 46.8466 103.968 46.8466C103.761 46.8466 103.572 46.792 103.405 46.6701C103.266 46.5697 103.165 46.4385 103.097 46.2827C103.035 46.1418 102.999 45.9942 102.995 45.8397C102.994 45.7872 102.993 45.7348 102.993 45.6823C102.991 44.8674 102.99 44.0524 102.988 43.2375C102.986 42.7323 102.983 42.2272 102.98 41.722L102.983 41.7222Z" fill="white"/>
<path d="M114.009 46.8649C113.6 46.8649 113.066 46.865 112.532 46.8649C112.384 46.8649 112.237 46.8495 112.093 46.814C112.024 46.7967 111.956 46.7726 111.891 46.7423C111.679 46.6436 111.529 46.4841 111.432 46.2722C111.383 46.1636 111.35 46.048 111.336 45.9295C111.317 45.7748 111.344 45.6259 111.404 45.4826C111.461 45.3493 111.541 45.2318 111.64 45.1269C111.689 45.075 111.74 45.0254 111.794 44.9778C112.259 44.5616 112.725 44.1457 113.191 43.73C113.602 43.3609 114.013 42.9906 114.422 42.6192C114.454 42.5906 114.484 42.5603 114.515 42.53C114.532 42.5127 114.521 42.4812 114.495 42.4755C114.355 42.4454 114.216 42.412 114.075 42.3883C114 42.3757 113.923 42.3776 113.847 42.378C113.722 42.3786 113.614 42.4247 113.524 42.5101C113.472 42.559 113.424 42.6119 113.38 42.6683C113.31 42.7588 113.246 42.8537 113.182 42.948C113.13 43.0229 113.074 43.0933 113.009 43.1573C112.884 43.2816 112.736 43.3619 112.564 43.4C112.46 43.423 112.355 43.4215 112.25 43.4118C112.087 43.3967 111.933 43.3497 111.791 43.2663C111.578 43.1414 111.45 42.9527 111.385 42.7179C111.348 42.5836 111.336 42.4455 111.341 42.3072C111.357 41.8145 111.546 41.3917 111.873 41.029C112.104 40.773 112.384 40.588 112.714 40.4807C112.805 40.4517 112.897 40.4294 112.992 40.4139C113.297 40.3619 113.605 40.3296 113.915 40.3132C114.192 40.2985 114.468 40.3093 114.743 40.3293C114.995 40.3475 115.245 40.3829 115.492 40.4397C115.741 40.4971 115.972 40.5949 116.18 40.7439C116.355 40.8688 116.507 41.0238 116.628 41.2016C116.81 41.4683 116.937 41.7598 117.001 42.0764C117.075 42.443 117.013 42.7867 116.809 43.1025C116.693 43.28 116.548 43.4305 116.391 43.5699C116.315 43.6362 116.237 43.6986 116.163 43.7658C115.962 43.948 115.761 44.131 115.561 44.3148C115.431 44.4341 115.302 44.5542 115.174 44.6752C115.153 44.6945 115.136 44.7173 115.117 44.7386C115.11 44.7468 115.12 44.7719 115.131 44.7734C115.154 44.7765 115.178 44.7806 115.202 44.7818C115.397 44.7929 115.592 44.8032 115.787 44.8142C115.93 44.8224 116.072 44.8388 116.211 44.8727C116.429 44.9258 116.62 45.0279 116.774 45.1935C116.937 45.368 117.025 45.5726 117.03 45.8128C117.035 46.1468 116.9 46.4129 116.641 46.6176C116.468 46.7543 116.268 46.8251 116.049 46.8465C115.835 46.8677 115.621 46.8721 115.406 46.8714C114.982 46.8703 114.558 46.8677 114.009 46.8649Z" fill="white"/>
<path d="M95.5545 26.2584C95.6042 26.2418 95.6537 26.2246 95.7037 26.2088C95.8221 26.1716 95.9423 26.1429 96.0668 26.1349C96.1048 26.1325 96.1423 26.1242 96.1803 26.1215C96.2278 26.1181 96.2759 26.1126 96.3229 26.1172C96.503 26.1349 96.6833 26.1534 96.8582 26.2034C97.1242 26.2794 97.3942 26.3376 97.6669 26.3826C97.7794 26.4012 97.8922 26.4228 98.0066 26.426C98.021 26.4258 98.0354 26.4269 98.0495 26.4293C98.1813 26.4564 98.3152 26.4518 98.4485 26.4567C98.5246 26.4596 98.6005 26.4675 98.6765 26.4705C98.7384 26.4731 98.8012 26.4791 98.8621 26.4715C98.9713 26.4579 99.0808 26.4572 99.1903 26.4546C99.2809 26.4523 99.3715 26.4524 99.4607 26.4331C99.4748 26.4304 99.489 26.4288 99.5034 26.4284C99.7372 26.4174 99.967 26.3748 100.196 26.3309C100.547 26.2636 100.893 26.1714 101.231 26.0551C101.76 25.873 102.265 25.639 102.743 25.3479C103.057 25.157 103.355 24.9425 103.636 24.7063C103.826 24.5469 104.009 24.379 104.177 24.1969C104.489 23.8602 104.767 23.4975 104.998 23.1005C105.108 22.9109 105.205 22.7139 105.294 22.514C105.417 22.24 105.537 21.9652 105.656 21.6895C105.797 21.3613 105.93 21.0298 106.06 20.6967C106.306 20.0614 106.53 19.4182 106.738 18.7695C106.826 18.4975 106.905 18.2229 106.987 17.9492C107.058 17.7119 107.128 17.4746 107.196 17.2363C107.294 16.8881 107.391 16.5396 107.485 16.1901C107.653 15.5647 107.809 14.9362 107.96 14.3063C108.068 13.8526 108.173 13.398 108.269 12.9415C108.328 12.6621 108.39 12.3833 108.449 12.1037C108.52 11.7636 108.59 11.4232 108.659 11.0825C108.707 10.8399 108.753 10.5966 108.799 10.3534C108.831 10.1803 108.862 10.0069 108.893 9.83355C108.935 9.5993 108.976 9.36484 109.02 9.13099C109.033 9.06465 109.039 8.99845 109.033 8.932C109.017 8.75851 108.935 8.69922 108.766 8.70773C108.652 8.71345 108.54 8.73809 108.428 8.76073C108.059 8.83526 107.69 8.90833 107.321 8.98296C107.027 9.04245 106.733 9.1027 106.44 9.16371C106.085 9.23667 105.73 9.30884 105.376 9.38344C105.12 9.43744 104.864 9.49431 104.608 9.55085C104.264 9.62695 103.92 9.70252 103.576 9.78087C102.977 9.91753 102.379 10.0601 101.785 10.2144C101.342 10.3292 100.902 10.4532 100.461 10.5736C100.033 10.6902 99.6097 10.8207 99.1866 10.952C98.9362 11.0297 98.6862 11.1083 98.4384 11.1933C97.9741 11.3523 97.511 11.5145 97.0518 11.688C96.5346 11.8835 96.0215 12.0887 95.5152 12.3107C95.1919 12.452 94.8795 12.6171 94.5806 12.8046C94.2771 12.9955 93.9916 13.2097 93.7213 13.444C93.5376 13.6033 93.3682 13.7781 93.2005 13.9543C92.9864 14.1791 92.7973 14.4243 92.6191 14.678C92.372 15.0299 92.1611 15.4029 91.9822 15.7938C91.8312 16.1235 91.7072 16.4631 91.606 16.8114C91.5474 17.0129 91.4976 17.2163 91.4567 17.4217C91.4268 17.5709 91.4054 17.7219 91.3828 17.8723C91.3657 17.9852 91.3519 18.0986 91.3383 18.2121C91.3326 18.2593 91.3298 18.307 91.3279 18.3545C91.3234 18.4687 91.3225 18.5829 91.3073 18.6967C91.2986 18.7624 91.3024 18.8299 91.3025 18.8966C91.3029 19.0204 91.2982 19.1443 91.319 19.2674C91.3253 19.3047 91.3232 19.3434 91.3245 19.3816C91.328 19.4862 91.3316 19.5905 91.3479 19.6947C91.3619 19.7838 91.3636 19.8746 91.3795 19.9641C91.3986 20.0717 91.4075 20.1812 91.4248 20.2892C91.4369 20.3655 91.4338 20.44 91.4255 20.5165C91.4014 20.7402 91.3118 20.9381 91.1966 21.1267C91.1645 21.1795 91.1273 21.2294 91.0925 21.2805C90.9992 21.3285 90.9028 21.3703 90.804 21.4055C90.6459 21.4611 90.4846 21.503 90.3155 21.5018C90.0163 21.4995 89.7835 21.3743 89.6197 21.1227C89.5542 21.022 89.506 20.9134 89.4701 20.7994C89.4257 20.6583 89.3974 20.5139 89.3775 20.367C89.3443 20.1213 89.3255 19.8744 89.3049 19.6276C89.2961 19.5233 89.2936 19.4182 89.2937 19.3134C89.2937 19.0416 89.293 18.7701 89.3002 18.4986C89.3049 18.3179 89.3228 18.1374 89.3422 17.9574C89.3596 17.7964 89.3801 17.6358 89.4038 17.4757C89.4454 17.1926 89.5024 16.9129 89.5693 16.6349C89.6886 16.139 89.8483 15.6537 90.0469 15.1839C90.415 14.3126 90.9025 13.5146 91.5226 12.7989C92.0727 12.1639 92.7017 11.6209 93.4153 11.1763C93.5812 11.073 93.7498 10.9741 93.9234 10.8844C94.4996 10.5866 95.0885 10.3162 95.6871 10.0666C96.6468 9.66633 97.627 9.32293 98.6196 9.01447C99.2432 8.82071 99.8709 8.64135 100.501 8.47087C101.334 8.24581 102.17 8.03288 103.01 7.83897C103.595 7.70404 104.18 7.5705 104.768 7.44536C105.355 7.32023 105.944 7.20407 106.533 7.08841C107.019 6.99304 107.506 6.90119 107.994 6.81285C108.429 6.73342 108.866 6.65907 109.303 6.58397C109.477 6.55411 109.651 6.52467 109.825 6.50193C110 6.47918 110.175 6.45719 110.353 6.46617C110.531 6.47532 110.702 6.51266 110.86 6.59906C111.109 6.73521 111.263 6.94303 111.322 7.21995C111.348 7.34154 111.357 7.46467 111.335 7.58906C111.309 7.73926 111.287 7.89004 111.261 8.04017C111.216 8.30296 111.169 8.56556 111.122 8.82796C111.072 9.10453 111.022 9.38098 110.971 9.65731C110.919 9.94299 110.866 10.2287 110.811 10.5139C110.72 10.9862 110.63 11.4586 110.535 11.9301C110.45 12.355 110.361 12.7792 110.271 13.2031C110.202 13.5292 110.13 13.8548 110.057 14.18C109.891 14.9142 109.714 15.6455 109.524 16.3738C109.385 16.9086 109.239 17.4414 109.085 17.9722C108.922 18.5351 108.758 19.0974 108.582 19.6563C108.387 20.2745 108.179 20.8881 107.946 21.493C107.688 22.1649 107.4 22.8243 107.067 23.463C106.847 23.8857 106.612 24.2999 106.341 24.6933C105.658 25.6858 104.805 26.4961 103.769 27.1145C103.169 27.4732 102.533 27.7524 101.868 27.9672C101.364 28.1302 100.851 28.2545 100.329 28.3466C100.094 28.3881 99.8585 28.4226 99.6216 28.4467C99.4607 28.4633 99.2984 28.4743 99.1366 28.4781C98.922 28.4831 98.7074 28.4848 98.4931 28.4765C98.3077 28.4693 98.122 28.4578 97.9372 28.4355C97.7811 28.4167 97.625 28.3986 97.4695 28.3753C97.1912 28.3337 96.9156 28.2788 96.6423 28.2125C96.5034 28.1789 96.3649 28.1434 96.2269 28.106C96.0517 28.0584 95.8826 27.9942 95.7227 27.9066C95.6132 27.8466 95.5136 27.774 95.4289 27.6816C95.2711 27.5097 95.2093 27.3069 95.2325 27.0763C95.2479 26.9228 95.2915 26.7771 95.3563 26.6381C95.4005 26.5432 95.4517 26.4516 95.5001 26.3587C95.5178 26.3251 95.5364 26.2919 95.5545 26.2584Z" fill="white"/>
</g>
<defs>
<filter id="filter0_d_294_69" x="19.8915" y="67.6479" width="160.648" height="23.568" filterUnits="userSpaceOnUse" color-interpolation-filters="sRGB">
<feFlood flood-opacity="0" result="BackgroundImageFix"/>
<feColorMatrix in="SourceAlpha" type="matrix" values="0 0 0 0 0 0 0 0 0 0 0 0 0 0 0 0 0 0 127 0" result="hardAlpha"/>
<feOffset dy="4"/>
<feGaussianBlur stdDeviation="2"/>
<feComposite in2="hardAlpha" operator="out"/>
<feColorMatrix type="matrix" values="0 0 0 0 0 0 0 0 0 0 0 0 0 0 0 0 0 0 0.25 0"/>
<feBlend mode="normal" in2="BackgroundImageFix" result="effect1_dropShadow_294_69"/>
<feBlend mode="normal" in="SourceGraphic" in2="effect1_dropShadow_294_69" result="shape"/>
</filter>
<filter id="filter1_d_294_69" x="78" y="0" width="50" height="64.1088" filterUnits="userSpaceOnUse" color-interpolation-filters="sRGB">
<feFlood flood-opacity="0" result="BackgroundImageFix"/>
<feColorMatrix in="SourceAlpha" type="matrix" values="0 0 0 0 0 0 0 0 0 0 0 0 0 0 0 0 0 0 127 0" result="hardAlpha"/>
<feOffset dy="4"/>
<feGaussianBlur stdDeviation="2"/>
<feComposite in2="hardAlpha" operator="out"/>
<feColorMatrix type="matrix" values="0 0 0 0 0 0 0 0 0 0 0 0 0 0 0 0 0 0 0.25 0"/>
<feBlend mode="normal" in2="BackgroundImageFix" result="effect1_dropShadow_294_69"/>
<feBlend mode="normal" in="SourceGraphic" in2="effect1_dropShadow_294_69" result="shape"/>
</filter>
<clipPath id="clip0_294_69">
<rect width="42" height="56.1088" fill="white" transform="translate(82)"/>
</clipPath>
</defs>
</svg>
