<svg width="1728" height="427" viewBox="0 0 1728 427" fill="none" xmlns="http://www.w3.org/2000/svg">
<rect width="1728" height="390" fill="url(#paint0_linear_485_9)"/>
<path d="M176.5 366.5C101.7 369.7 30 337.833 3.5 321.5L0 319V347C45.5 375.333 126 394.5 176.5 384C218.913 375.181 269.833 371.333 296.5 377.5C350.5 394.5 399 413.5 465 408.5C516.167 398.167 623 381.1 641 395.5C663.5 413.5 922.5 395.5 940.5 385C954.9 376.6 1070.5 359.833 1126.5 352.5C1178.67 352.5 1288.6 359 1311 385C1333.4 411 1472.67 407.833 1539.5 403C1578.17 397.667 1660.9 385.1 1682.5 377.5C1704.1 369.9 1722.83 386.333 1729.5 395.5V360C1718.3 348.8 1693.5 350.333 1682.5 352.5C1582.67 374 1375 406.9 1343 366.5C1303 316 1140.5 338.5 1116.5 334.5C1097.3 331.3 971.833 354.5 911.5 366.5C843.667 372.333 694.6 380.5 641 366.5C574 349 495 374 449 384C412.2 392 357 370 334 358C295.2 337.2 212.833 355 176.5 366.5Z" fill="#DCF0FA"/>
<path d="M174.5 384C99.7 387.2 28 355.333 1.5 339L-2 336.5V364.5C43.5 392.833 134.5 422.5 185 412C227.413 403.181 267.833 388.833 294.5 395C348.5 412 397 431 463 426C514.167 415.667 617.276 405.291 639 413C670 424 920.5 413 938.5 402.5C952.9 394.1 1068.5 377.333 1124.5 370C1176.67 370 1286.6 376.5 1309 402.5C1331.4 428.5 1470.67 425.333 1537.5 420.5C1576.17 415.167 1658.9 402.6 1680.5 395C1702.1 387.4 1720.83 403.833 1727.5 413V377.5C1716.3 366.3 1691.5 367.833 1680.5 370C1580.67 391.5 1373 424.4 1341 384C1301 333.5 1138.5 356 1114.5 352C1095.3 348.8 969.833 372 909.5 384C841.667 389.833 692.6 398 639 384C572 366.5 493 391.5 447 401.5C410.2 409.5 355 387.5 332 375.5C293.2 354.7 210.833 372.5 174.5 384Z" fill="#F3B678"/>
<defs>
<linearGradient id="paint0_linear_485_9" x1="864" y1="258.243" x2="844.741" y2="-268.39" gradientUnits="userSpaceOnUse">
<stop stop-color="#8DC9ED"/>
<stop offset="1" stop-color="#8DC9ED" stop-opacity="0"/>
</linearGradient>
</defs>
</svg>
