<svg width="82" height="82" viewBox="0 0 82 82" fill="none" xmlns="http://www.w3.org/2000/svg">
<path d="M2.86841 15.0166C5.97544 25.7861 10.4004 34.9096 15.5789 44.9934L19.993 43.6532C14.4937 35.2546 9.98415 28.2061 8.43608 19.1786L12.3168 20.1908C14.2991 32.2686 25.1213 41.5627 29.808 47.1867C30.5935 49.8113 29.9023 52.436 29.0206 54.6106C37.2873 58.631 45.7845 63.8292 55.1729 65.7464C58.6985 62.9898 62.262 61.3053 66.0837 66.9838L67.6585 62.4843L71.3704 62.3719L69.2894 57.8166C72.8724 59.1049 77.3508 55.2461 77.4445 54.1609C77.7128 51.0497 77.524 49.1381 79.1318 46.6246L70.1893 47.8618C69.9703 50.4665 70.4428 53.4306 67.7709 54.9482C53.6067 62.9935 49.3028 44.9564 50.561 37.4008C44.7384 34.8343 43.9952 31.8015 40.5501 26.49L36.9506 26.04L34.476 28.1773L28.0645 19.9661L2.86841 15.0166Z" fill="white"/>
</svg>
