<svg width="1185" height="296" viewBox="0 0 1185 296" fill="none" xmlns="http://www.w3.org/2000/svg">
<path d="M173 56C217.625 91.8828 314.95 163.006 347.25 160.435C379.55 157.864 391.875 175.074 394 184" stroke="#676767" stroke-width="9"/>
<path d="M664 226C696.833 236.833 767.1 254.6 785.5 239C803.9 223.4 817.5 196.167 822 184.5C831.5 167 847.6 165 882 167C916.4 169 932.667 147.167 936.5 136" stroke="#676767" stroke-width="9"/>
<g clip-path="url(#clip0_487_12)">
<path opacity="0.6" d="M106.225 104C164.891 104 212.449 99.2692 212.449 93.4333C212.449 87.5974 164.891 82.8665 106.225 82.8665C47.5584 82.8665 0 87.5974 0 93.4333C0 99.2692 47.5584 104 106.225 104Z" fill="#406F2A"/>
<path d="M186.31 37.8182L197.433 71.1872C197.433 71.1872 199.658 81.1979 191.872 81.1979H169.626V88.984H198.546C198.546 88.984 208.556 84.5348 204.107 70.0749C199.658 55.615 192.984 33.369 192.984 33.369L186.31 34.4813V37.8182Z" fill="#285C28"/>
<path d="M46.7167 3.89319L21.1338 81.7542L22.2461 85.091H160.171L185.754 7.23009V3.89319H46.7167Z" fill="#3C732E"/>
<path d="M167.957 97.3261C167.957 97.3261 196.877 19.4651 193.54 6.11753L186.866 0.55603C186.866 0.55603 191.315 2.78063 183.529 22.802C180.615 30.31 162.396 87.3154 162.396 87.3154L167.957 97.3261Z" fill="#3C732E"/>
<path d="M33.2355 34.0919C33.2355 34.0919 27.8075 31.7004 28.9198 22.802C30.0321 13.9036 33.369 12.7913 33.369 12.7913C33.369 12.7913 37.8182 10.5667 40.0428 12.7913C42.2674 15.0159 33.369 33.925 33.369 33.925" fill="#4E873F"/>
<path d="M44.2583 84.3124C44.2583 84.3124 166.845 89.5403 183.529 5.00549L186.866 3.89319L161.217 83.0778L159.059 86.2034L44.2583 84.3124Z" fill="#225226"/>
<path d="M187.423 1.1123L43.936 0L17.2408 85.647C17.2408 85.647 13.9039 88.9839 22.8023 88.9839L161.84 87.8716L180.749 32.2567L188.535 6.6738L187.423 1.1123ZM159.615 83.9341H22.8023V81.1979L31.7007 54.5027L39.4868 26.6952L46.1606 5.5615H184.931L159.615 83.9341Z" fill="#75A568"/>
<path d="M58.952 0.55603L30.0322 87.3154" stroke="#75A568" stroke-width="3.3369" stroke-miterlimit="10"/>
<path d="M82.433 1.43506L53.5132 88.1944" stroke="#75A568" stroke-width="3.3369" stroke-miterlimit="10"/>
<path d="M105.791 1.43506L76.8711 88.1944" stroke="#75A568" stroke-width="3.3369" stroke-miterlimit="10"/>
<path d="M129.027 1.66846L101.342 85.9696" stroke="#75A568" stroke-width="3.3369" stroke-miterlimit="10"/>
<path d="M154.109 2.6582L126.424 86.9594" stroke="#75A568" stroke-width="3.3369" stroke-miterlimit="10"/>
<path d="M176.355 2.6582L148.67 86.9594" stroke="#75A568" stroke-width="3.3369" stroke-miterlimit="10"/>
<path d="M38.0742 27.7518L180.193 28.3636" stroke="#75A568" stroke-width="3.3369" stroke-miterlimit="10"/>
<path d="M29.1646 55.6262L171.283 56.238" stroke="#75A568" stroke-width="3.3369" stroke-miterlimit="10"/>
<path d="M17.374 88.0942L23.3582 95.1016L167.957 96.2139L161.839 87.8717L17.374 88.0942Z" fill="#285C28"/>
<path d="M187.422 36.1497C192.03 36.1497 195.765 31.1697 195.765 25.0267C195.765 18.8836 192.03 13.9037 187.422 13.9037C182.815 13.9037 179.08 18.8836 179.08 25.0267C179.08 31.1697 182.815 36.1497 187.422 36.1497Z" fill="#569147"/>
<path d="M189.647 35.0375C194.254 35.0375 197.989 30.0576 197.989 23.9145C197.989 17.7714 194.254 12.7915 189.647 12.7915C185.04 12.7915 181.305 17.7714 181.305 23.9145C181.305 30.0576 185.04 35.0375 189.647 35.0375Z" fill="#4A833B"/>
</g>
<g clip-path="url(#clip1_487_12)">
<path opacity="0.6" d="M1038 190.922C1119.19 190.922 1185 184.375 1185 176.299C1185 168.222 1119.19 161.676 1038 161.676C956.814 161.676 891 168.222 891 176.299C891 184.375 956.814 190.922 1038 190.922Z" fill="#406F2A"/>
<path d="M1148.83 99.335L1164.22 145.513C1164.22 145.513 1167.3 159.366 1156.52 159.366H1125.74V170.141H1165.76C1165.76 170.141 1179.61 163.984 1173.46 143.974C1167.3 123.963 1158.06 93.178 1158.06 93.178L1148.83 94.7172V99.335Z" fill="#285C28"/>
<path d="M955.649 52.3876L920.246 160.136L921.785 164.754H1112.65L1148.06 57.0054V52.3876H955.649Z" fill="#3C732E"/>
<path d="M1123.43 181.686C1123.43 181.686 1163.45 73.9371 1158.83 55.4659L1149.6 47.7695C1149.6 47.7695 1155.75 50.8481 1144.98 78.5549C1140.95 88.9449 1115.73 167.832 1115.73 167.832L1123.43 181.686Z" fill="#3C732E"/>
<path d="M936.994 94.1783C936.994 94.1783 929.482 90.8689 931.021 78.5548C932.561 66.2406 937.178 64.7014 937.178 64.7014C937.178 64.7014 943.336 61.6228 946.414 64.7014C949.493 67.7799 937.178 93.9474 937.178 93.9474" fill="#4E873F"/>
<path d="M952.248 163.677C952.248 163.677 1121.89 170.911 1144.98 53.9268L1149.6 52.3876L1114.1 161.968L1111.12 166.293L952.248 163.677Z" fill="#225226"/>
<path d="M1150.37 48.5393L951.801 47L914.859 165.524C914.859 165.524 910.241 170.141 922.555 170.141L1114.96 168.602L1141.13 91.6387L1151.91 56.2356L1150.37 48.5393ZM1111.89 163.153H922.555V159.366L934.869 122.424L945.644 83.9424L954.88 54.6963H1146.92L1111.89 163.153Z" fill="#75A568"/>
<path d="M972.581 47.7695L932.56 167.832" stroke="#75A568" stroke-width="4.6178" stroke-miterlimit="10"/>
<path d="M1005.08 48.9858L965.054 169.049" stroke="#75A568" stroke-width="4.6178" stroke-miterlimit="10"/>
<path d="M1037.4 48.9858L997.379 169.049" stroke="#75A568" stroke-width="4.6178" stroke-miterlimit="10"/>
<path d="M1069.56 49.3088L1031.24 165.97" stroke="#75A568" stroke-width="4.6178" stroke-miterlimit="10"/>
<path d="M1104.26 50.6786L1065.95 167.34" stroke="#75A568" stroke-width="4.6178" stroke-miterlimit="10"/>
<path d="M1135.05 50.6786L1096.74 167.34" stroke="#75A568" stroke-width="4.6178" stroke-miterlimit="10"/>
<path d="M943.689 85.4047L1140.36 86.2513" stroke="#75A568" stroke-width="4.6178" stroke-miterlimit="10"/>
<path d="M931.359 123.979L1128.03 124.825" stroke="#75A568" stroke-width="4.6178" stroke-miterlimit="10"/>
<path d="M915.043 168.91L923.325 178.607L1123.43 180.147L1114.96 168.602L915.043 168.91Z" fill="#285C28"/>
<path d="M1150.37 97.0261C1156.74 97.0261 1161.91 90.1345 1161.91 81.6334C1161.91 73.1323 1156.74 66.2407 1150.37 66.2407C1143.99 66.2407 1138.82 73.1323 1138.82 81.6334C1138.82 90.1345 1143.99 97.0261 1150.37 97.0261Z" fill="#569147"/>
<path d="M1153.45 95.487C1159.82 95.487 1164.99 88.5955 1164.99 80.0943C1164.99 71.5932 1159.82 64.7017 1153.45 64.7017C1147.07 64.7017 1141.9 71.5932 1141.9 80.0943C1141.9 88.5955 1147.07 95.487 1153.45 95.487Z" fill="#4A833B"/>
</g>
<g clip-path="url(#clip2_487_12)">
<path opacity="0.6" d="M529.5 295.343C639.129 295.343 728 286.502 728 275.597C728 264.692 639.129 255.851 529.5 255.851C419.871 255.851 331 264.692 331 275.597C331 286.502 419.871 295.343 529.5 295.343Z" fill="#406F2A"/>
<path d="M679.155 171.67L699.94 234.026C699.94 234.026 704.097 252.733 689.547 252.733H647.977V267.283H702.018C702.018 267.283 720.725 258.969 712.411 231.948C704.097 204.927 691.626 163.356 691.626 163.356L679.155 165.434V171.67Z" fill="#285C28"/>
<path d="M418.298 108.275L370.492 253.772L372.571 260.008H630.309L678.115 114.511V108.275H418.298Z" fill="#3C732E"/>
<path d="M644.858 282.872C644.858 282.872 698.9 137.374 692.665 112.432L680.194 102.039C680.194 102.039 688.508 106.196 673.958 143.61C668.512 157.64 634.466 264.165 634.466 264.165L644.858 282.872Z" fill="#3C732E"/>
<path d="M393.107 164.707C393.107 164.707 382.963 160.238 385.042 143.61C387.121 126.981 393.356 124.903 393.356 124.903C393.356 124.903 401.67 120.746 405.827 124.903C409.984 129.06 393.356 164.395 393.356 164.395" fill="#4E873F"/>
<path d="M413.705 258.553C413.705 258.553 642.78 268.322 673.958 110.354L680.194 108.275L632.263 256.246L628.231 262.087L413.705 258.553Z" fill="#225226"/>
<path d="M681.233 103.079L413.102 101L363.217 261.047C363.217 261.047 356.981 267.283 373.61 267.283L633.427 265.204L668.762 161.277L683.311 113.471L681.233 103.079ZM629.269 257.846H373.61V252.733L390.238 202.848L404.788 150.885L417.259 111.393H676.577L629.269 257.846Z" fill="#75A568"/>
<path d="M441.162 102.039L387.12 264.165" stroke="#75A568" stroke-width="6.2356" stroke-miterlimit="10"/>
<path d="M485.04 103.682L430.999 265.807" stroke="#75A568" stroke-width="6.2356" stroke-miterlimit="10"/>
<path d="M528.69 103.682L474.648 265.807" stroke="#75A568" stroke-width="6.2356" stroke-miterlimit="10"/>
<path d="M572.11 104.118L520.375 261.65" stroke="#75A568" stroke-width="6.2356" stroke-miterlimit="10"/>
<path d="M618.98 105.967L567.246 263.5" stroke="#75A568" stroke-width="6.2356" stroke-miterlimit="10"/>
<path d="M660.552 105.967L608.817 263.5" stroke="#75A568" stroke-width="6.2356" stroke-miterlimit="10"/>
<path d="M402.148 152.859L667.723 154.002" stroke="#75A568" stroke-width="6.2356" stroke-miterlimit="10"/>
<path d="M385.499 204.948L651.073 206.091" stroke="#75A568" stroke-width="6.2356" stroke-miterlimit="10"/>
<path d="M363.467 265.62L374.649 278.715L644.859 280.793L633.427 265.204L363.467 265.62Z" fill="#285C28"/>
<path d="M681.233 168.552C689.843 168.552 696.822 159.246 696.822 147.767C696.822 136.287 689.843 126.981 681.233 126.981C672.623 126.981 665.644 136.287 665.644 147.767C665.644 159.246 672.623 168.552 681.233 168.552Z" fill="#569147"/>
<path d="M685.39 166.474C694 166.474 700.979 157.168 700.979 145.689C700.979 134.209 694 124.903 685.39 124.903C676.781 124.903 669.801 134.209 669.801 145.689C669.801 157.168 676.781 166.474 685.39 166.474Z" fill="#4A833B"/>
</g>
<defs>
<clipPath id="clip0_487_12">
<rect width="212.449" height="104" fill="white"/>
</clipPath>
<clipPath id="clip1_487_12">
<rect width="294" height="143.921" fill="white" transform="translate(891 47)"/>
</clipPath>
<clipPath id="clip2_487_12">
<rect width="397" height="194.343" fill="white" transform="translate(331 101)"/>
</clipPath>
</defs>
</svg>
