<svg width="48" height="48" viewBox="0 0 48 48" fill="none" xmlns="http://www.w3.org/2000/svg">
<path d="M40.72 30.2801C38.6023 30.0188 36.4995 29.6483 34.42 29.1701C33.9123 29.0004 33.3694 28.9647 32.8439 29.0663C32.3183 29.1679 31.8279 29.4034 31.42 29.7501C30.89 30.2901 29.36 31.8001 27.77 33.3601C22.0732 30.5597 17.4661 25.949 14.67 20.2501C16.22 18.6601 17.67 17.1401 18.26 16.6101C18.6067 16.2023 18.8422 15.7118 18.9438 15.1863C19.0454 14.6607 19.0097 14.1178 18.84 13.6101C18.3612 11.5274 17.9907 9.42123 17.73 7.30013C17.7021 7.03002 17.6194 6.76843 17.4871 6.5313C17.3548 6.29418 17.1756 6.08648 16.9604 5.92087C16.7452 5.75526 16.4985 5.6352 16.2354 5.56803C15.9723 5.50085 15.6983 5.48795 15.43 5.53013H6.91C6.55832 5.56188 6.22911 5.71668 5.98033 5.96728C5.73156 6.21789 5.57917 6.54822 5.55 6.90013C5 14.5901 9.29 22.8201 10.16 24.4001V24.4601L10.28 24.6901C13.3943 30.0916 17.8786 34.5758 23.28 37.6901L23.72 37.9401C25.72 39.0001 33.67 43.0001 41.1 42.4501C41.4555 42.4255 41.7906 42.2751 42.0452 42.0259C42.2999 41.7767 42.4576 41.445 42.49 41.0901V32.5801C42.5322 32.3119 42.5193 32.0378 42.4521 31.7747C42.3849 31.5116 42.2649 31.265 42.0993 31.0498C41.9336 30.8346 41.726 30.6553 41.4888 30.523C41.2517 30.3907 40.9901 30.3081 40.72 30.2801Z" fill="white" stroke="white" stroke-width="3" stroke-linecap="round" stroke-linejoin="round"/>
</svg>
