<svg width="145" height="145" viewBox="0 0 145 145" fill="none" xmlns="http://www.w3.org/2000/svg">
<path fill-rule="evenodd" clip-rule="evenodd" d="M54.3744 18.1252C54.3744 16.5228 55.011 14.9861 56.144 13.8531C57.277 12.72 58.8137 12.0835 60.4161 12.0835H84.5828C86.1851 12.0835 87.7218 12.72 88.8549 13.8531C89.9879 14.9861 90.6244 16.5228 90.6244 18.1252V30.2085H108.749C109.641 30.2088 110.521 30.4065 111.328 30.7873C112.134 31.1681 112.845 31.7226 113.412 32.4109C113.979 33.0993 114.386 33.9046 114.604 34.7689C114.823 35.6332 114.847 36.5352 114.676 37.4102L112.036 50.9314L104.019 49.1491L73.8105 42.4368C72.947 42.2449 72.0519 42.2449 71.1884 42.4368L40.98 49.1431L32.9628 50.9314L30.3225 37.4102C30.1514 36.5352 30.176 35.6332 30.3945 34.7689C30.6131 33.9046 31.0203 33.0993 31.5868 32.4109C32.1534 31.7226 32.8652 31.1681 33.6713 30.7873C34.4775 30.4065 35.3579 30.2088 36.2494 30.2085H54.3744V18.1252ZM17.5686 66.4343L16.8134 66.6035C15.9177 66.8031 15.0793 67.2042 14.3617 67.7762C13.6442 68.3482 13.0663 69.0762 12.6721 69.9049C12.2779 70.7335 12.0776 71.6411 12.0864 72.5587C12.0953 73.4763 12.313 74.3799 12.7232 75.2008L24.8065 99.3675C25.3731 100.501 26.2817 101.428 27.4039 102.016C28.5261 102.605 29.805 102.826 31.0596 102.648L72.4994 96.7272L113.939 102.648C115.194 102.826 116.473 102.605 117.595 102.016C118.717 101.428 119.626 100.501 120.192 99.3675L132.276 75.2008C132.686 74.3799 132.904 73.4763 132.912 72.5587C132.921 71.6411 132.721 70.7335 132.327 69.9049C131.933 69.0762 131.355 68.3482 130.637 67.7762C129.92 67.2042 129.081 66.8031 128.185 66.6035L127.43 66.4343C126.805 66.4912 126.176 66.4505 125.563 66.3135L101.397 60.9425L72.4994 54.5202L43.6021 60.9425L19.4355 66.3195C18.8229 66.4545 18.1931 66.4932 17.5686 66.4343V66.4343ZM55.9936 112.405C58.0526 110.052 60.5908 108.167 63.438 106.875C66.2853 105.583 69.3758 104.915 72.5024 104.915C75.6291 104.915 78.7196 105.583 81.5668 106.875C84.4141 108.167 86.9523 110.052 89.0113 112.405L89.2228 112.647C90.7379 114.38 92.8318 115.504 95.114 115.807C97.3961 116.11 99.7108 115.574 101.626 114.296C104.537 112.357 107.875 111.155 111.354 110.792C114.832 110.43 118.347 110.92 121.594 112.218L129.116 115.221C130.579 115.832 131.743 116.995 132.357 118.457C132.971 119.919 132.985 121.564 132.397 123.037C131.808 124.51 130.664 125.692 129.212 126.329C127.759 126.965 126.115 127.005 124.633 126.44L117.111 123.431C115.682 122.86 114.136 122.646 112.605 122.806C111.075 122.966 109.606 123.496 108.327 124.35C103.972 127.252 98.7109 128.473 93.5233 127.783C88.3357 127.094 83.5757 124.543 80.13 120.604L79.9186 120.362C78.9937 119.304 77.8532 118.456 76.5735 117.875C75.2939 117.294 73.9048 116.993 72.4994 116.993C71.0941 116.993 69.7049 117.294 68.4253 117.875C67.1457 118.456 66.0052 119.304 65.0803 120.362L64.8688 120.604C61.4232 124.543 56.6631 127.094 51.4755 127.783C46.288 128.473 41.0268 127.252 36.6723 124.35C35.3924 123.496 33.9239 122.966 32.3935 122.806C30.863 122.646 29.3167 122.86 27.8878 123.431L20.3659 126.44C19.6265 126.749 18.833 126.908 18.0316 126.907C17.2302 126.907 16.4369 126.747 15.698 126.437C14.9591 126.126 14.2892 125.672 13.7275 125.101C13.1657 124.529 12.7233 123.852 12.4259 123.107C12.1286 122.363 11.9822 121.567 11.9955 120.766C12.0087 119.965 12.1812 119.174 12.5029 118.44C12.8246 117.706 13.2892 117.044 13.8695 116.491C14.4497 115.938 15.1342 115.506 15.883 115.221L23.4048 112.218C26.6522 110.92 30.1667 110.43 33.6452 110.792C37.1238 111.155 40.4621 112.357 43.3725 114.296C45.2881 115.574 47.6027 116.11 49.8849 115.807C52.167 115.504 54.2609 114.38 55.7761 112.647L55.9875 112.405H55.9936Z" fill="#034638"/>
</svg>
