<svg width="58" height="58" viewBox="0 0 58 58" fill="none" xmlns="http://www.w3.org/2000/svg">
<path d="M29 4.8335C15.6745 4.8335 4.83331 15.6747 4.83331 29.0002V39.0124C4.83331 41.4871 7.00106 43.5002 9.66665 43.5002H12.0833C12.7243 43.5002 13.3389 43.2455 13.7922 42.7923C14.2454 42.3391 14.5 41.7244 14.5 41.0835V28.6546C14.5 28.0136 14.2454 27.3989 13.7922 26.9457C13.3389 26.4925 12.7243 26.2379 12.0833 26.2379H9.88898C11.2326 16.8854 19.2801 9.66683 29 9.66683C38.7198 9.66683 46.7673 16.8854 48.111 26.2379H45.9166C45.2757 26.2379 44.661 26.4925 44.2078 26.9457C43.7546 27.3989 43.5 28.0136 43.5 28.6546V43.5002C43.5 46.1657 41.3322 48.3335 38.6666 48.3335H33.8333V45.9168H24.1666V53.1668H38.6666C43.9978 53.1668 48.3333 48.8313 48.3333 43.5002C50.9989 43.5002 53.1666 41.4871 53.1666 39.0124V29.0002C53.1666 15.6747 42.3255 4.8335 29 4.8335Z" fill="white"/>
</svg>
