<svg width="539" height="1117" viewBox="0 0 539 1117" fill="none" xmlns="http://www.w3.org/2000/svg">
<path d="M257 0L257 284" stroke="#49BDCF" stroke-width="7"/>
<path d="M284 0L284 284" stroke="#96C13E" stroke-width="7"/>
<path d="M145.5 528C152.333 467.833 183.6 340.9 254 314.5" stroke="#49BDCF" stroke-width="7"/>
<path d="M393.5 528C386.667 467.833 355.4 340.9 285 314.5" stroke="#96C13E" stroke-width="7"/>
<path d="M301.96 351.96H244C237.4 351.96 232 346.56 232 339.96V282C232 275.4 237.4 270 244 270H301.96C308.56 270 313.96 275.4 313.96 282V339.96C313.96 346.56 308.56 351.96 301.96 351.96Z" fill="#BED786"/>
<path d="M273.4 337.68C288.643 337.68 301 325.323 301 310.08C301 294.837 288.643 282.48 273.4 282.48C258.157 282.48 245.8 294.837 245.8 310.08C245.8 325.323 258.157 337.68 273.4 337.68Z" fill="#96C13E"/>
<path d="M261.52 316.2C264.9 316.2 267.64 313.46 267.64 310.08C267.64 306.7 264.9 303.96 261.52 303.96C258.14 303.96 255.4 306.7 255.4 310.08C255.4 313.46 258.14 316.2 261.52 316.2Z" fill="#4D5A2A"/>
<path d="M284.32 316.2C287.7 316.2 290.44 313.46 290.44 310.08C290.44 306.7 287.7 303.96 284.32 303.96C280.94 303.96 278.2 306.7 278.2 310.08C278.2 313.46 280.94 316.2 284.32 316.2Z" fill="#4D5A2A"/>
<path d="M142.886 703.451C136.637 703.451 131.521 698.335 131.521 692.086V533.082C131.521 526.833 136.637 521.717 142.886 521.717C149.134 521.717 154.251 526.833 154.251 533.082V692.086C154.251 698.335 149.134 703.451 142.886 703.451Z" fill="#616262"/>
<path d="M394.455 700.734C388.207 700.734 383.09 695.618 383.09 689.369V530.365C383.09 524.117 388.207 519 394.455 519C400.704 519 405.82 524.117 405.82 530.365V689.369C405.82 695.618 400.704 700.734 394.455 700.734Z" fill="#616262"/>
<path d="M143.111 589.711C154.664 589.711 164.03 580.345 164.03 568.792C164.03 557.239 154.664 547.873 143.111 547.873C131.558 547.873 122.192 557.239 122.192 568.792C122.192 580.345 131.558 589.711 143.111 589.711Z" fill="#454445"/>
<path d="M394.455 589.711C406.008 589.711 415.374 580.345 415.374 568.792C415.374 557.239 406.008 547.873 394.455 547.873C382.902 547.873 373.536 557.239 373.536 568.792C373.536 580.345 382.902 589.711 394.455 589.711Z" fill="#454445"/>
<path d="M268.353 1054.27C266.165 1054.27 264.369 1052.48 264.369 1050.29V631.82C264.369 629.632 266.165 627.836 268.353 627.836C270.542 627.836 272.338 629.632 272.338 631.82V1050.29C272.338 1052.48 270.542 1054.27 268.353 1054.27Z" fill="#616160"/>
<path d="M149.42 1000.66H138.447C128.486 1000.66 120.336 992.512 120.336 982.55V699.285C120.336 689.324 128.486 681.174 138.447 681.174H149.42C159.381 681.174 167.532 689.324 167.532 699.285V982.55C167.532 992.512 159.381 1000.66 149.42 1000.66Z" fill="#454445"/>
<path d="M399.481 1000.66H388.508C378.547 1000.66 370.396 992.512 370.396 982.55V699.285C370.396 689.324 378.547 681.174 388.508 681.174H399.481C409.442 681.174 417.592 689.324 417.592 699.285V982.55C417.592 992.512 409.442 1000.66 399.481 1000.66Z" fill="#454445"/>
<path d="M77.8798 822.444C83.2813 822.444 87.6601 818.066 87.6601 812.664C87.6601 807.263 83.2813 802.884 77.8798 802.884C72.4784 802.884 68.0996 807.263 68.0996 812.664C68.0996 818.066 72.4784 822.444 77.8798 822.444Z" fill="#079FC3"/>
<path d="M201.582 802.883C206.483 802.883 210.456 798.91 210.456 794.009C210.456 789.107 206.483 785.134 201.582 785.134C196.68 785.134 192.707 789.107 192.707 794.009C192.707 798.91 196.68 802.883 201.582 802.883Z" fill="#079FC3"/>
<path d="M189.085 903.221C196.687 903.221 202.85 897.059 202.85 889.457C202.85 881.855 196.687 875.692 189.085 875.692C181.483 875.692 175.32 881.855 175.32 889.457C175.32 897.059 181.483 903.221 189.085 903.221Z" fill="#079FC3"/>
<path d="M170.249 939.083C177.451 939.083 183.289 933.244 183.289 926.042C183.289 918.84 177.451 913.002 170.249 913.002C163.047 913.002 157.208 918.84 157.208 926.042C157.208 933.244 163.047 939.083 170.249 939.083Z" fill="#079FC3"/>
<path d="M115.733 968.061C121.035 968.061 125.333 963.763 125.333 958.462C125.333 953.16 121.035 948.863 115.733 948.863C110.432 948.863 106.134 953.16 106.134 958.462C106.134 963.763 110.432 968.061 115.733 968.061Z" fill="#079FC3"/>
<path d="M92.0975 954.477C99.9496 954.477 106.315 948.112 106.315 940.26C106.315 932.407 99.9496 926.042 92.0975 926.042C84.2453 926.042 77.8799 932.407 77.8799 940.26C77.8799 948.112 84.2453 954.477 92.0975 954.477Z" fill="#079FC3"/>
<path d="M107.764 913.002C121.368 913.002 132.396 901.974 132.396 888.37C132.396 874.766 121.368 863.738 107.764 863.738C94.1603 863.738 83.1323 874.766 83.1323 888.37C83.1323 901.974 94.1603 913.002 107.764 913.002Z" fill="#079FC3"/>
<path d="M55.2403 889.457C59.0413 889.457 62.1227 886.375 62.1227 882.574C62.1227 878.773 59.0413 875.692 55.2403 875.692C51.4393 875.692 48.3579 878.773 48.3579 882.574C48.3579 886.375 51.4393 889.457 55.2403 889.457Z" fill="#079FC3"/>
<path d="M227.527 786.855C234.653 786.855 240.431 781.077 240.431 773.95C240.431 766.823 234.653 761.046 227.527 761.046C220.4 761.046 214.622 766.823 214.622 773.95C214.622 781.077 220.4 786.855 227.527 786.855Z" fill="#079FC3"/>
<path d="M240.703 840.918C246.405 840.918 251.027 836.296 251.027 830.594C251.027 824.893 246.405 820.271 240.703 820.271C235.001 820.271 230.379 824.893 230.379 830.594C230.379 836.296 235.001 840.918 240.703 840.918Z" fill="#079FC3"/>
<path d="M223.18 927.581C227.906 927.581 231.737 923.75 231.737 919.024C231.737 914.298 227.906 910.466 223.18 910.466C218.453 910.466 214.622 914.298 214.622 919.024C214.622 923.75 218.453 927.581 223.18 927.581Z" fill="#079FC3"/>
<path d="M226.032 993.055C231.134 993.055 235.269 988.919 235.269 983.818C235.269 978.717 231.134 974.581 226.032 974.581C220.931 974.581 216.795 978.717 216.795 983.818C216.795 988.919 220.931 993.055 226.032 993.055Z" fill="#079FC3"/>
<path d="M198.398 1019.12C200.607 1019.12 202.397 1017.33 202.397 1015.12C202.397 1012.91 200.607 1011.12 198.398 1011.12C196.189 1011.12 194.398 1012.91 194.398 1015.12C194.398 1017.33 196.189 1019.12 198.398 1019.12Z" fill="#079FC3"/>
<path d="M62.9078 926.057C64.85 926.057 66.4244 924.483 66.4244 922.541C66.4244 920.598 64.85 919.024 62.9078 919.024C60.9656 919.024 59.3911 920.598 59.3911 922.541C59.3911 924.483 60.9656 926.057 62.9078 926.057Z" fill="#079FC3"/>
<path d="M430.195 819.999C432.821 819.999 434.949 817.87 434.949 815.245C434.949 812.619 432.821 810.49 430.195 810.49C427.569 810.49 425.441 812.619 425.441 815.245C425.441 817.87 427.569 819.999 430.195 819.999Z" fill="#EC6625"/>
<path d="M448.397 803.427C453.123 803.427 456.954 799.596 456.954 794.869C456.954 790.143 453.123 786.312 448.397 786.312C443.67 786.312 439.839 790.143 439.839 794.869C439.839 799.596 443.67 803.427 448.397 803.427Z" fill="#EC6625"/>
<path d="M459.264 843.091C465.266 843.091 470.131 838.226 470.131 832.224C470.131 826.222 465.266 821.357 459.264 821.357C453.263 821.357 448.397 826.222 448.397 832.224C448.397 838.226 453.263 843.091 459.264 843.091Z" fill="#EC6625"/>
<path d="M365.054 794.069C369.522 794.069 373.144 790.447 373.144 785.98C373.144 781.512 369.522 777.89 365.054 777.89C360.586 777.89 356.964 781.512 356.964 785.98C356.964 790.447 360.586 794.069 365.054 794.069Z" fill="#EC6625"/>
<path d="M306.176 789.028C310.828 789.028 314.598 785.258 314.598 780.606C314.598 775.955 310.828 772.185 306.176 772.185C301.525 772.185 297.754 775.955 297.754 780.606C297.754 785.258 301.525 789.028 306.176 789.028Z" fill="#EC6625"/>
<path d="M321.526 821.357C324.151 821.357 326.28 819.229 326.28 816.603C326.28 813.977 324.151 811.849 321.526 811.849C318.9 811.849 316.771 813.977 316.771 816.603C316.771 819.229 318.9 821.357 321.526 821.357Z" fill="#EC6625"/>
<path d="M331.17 855.588C337.622 855.588 342.852 850.358 342.852 843.906C342.852 837.455 337.622 832.224 331.17 832.224C324.719 832.224 319.488 837.455 319.488 843.906C319.488 850.358 324.719 855.588 331.17 855.588Z" fill="#EC6625"/>
<path d="M385.474 860.69C392.285 860.69 397.805 855.169 397.805 848.359C397.805 841.549 392.285 836.028 385.474 836.028C378.664 836.028 373.144 841.549 373.144 848.359C373.144 855.169 378.664 860.69 385.474 860.69Z" fill="#EC6625"/>
<path d="M359.968 895.524C365.669 895.524 370.291 890.902 370.291 885.201C370.291 879.499 365.669 874.877 359.968 874.877C354.266 874.877 349.644 879.499 349.644 885.201C349.644 890.902 354.266 895.524 359.968 895.524Z" fill="#EC6625"/>
<path d="M326.551 919.431C333.153 919.431 338.505 914.08 338.505 907.478C338.505 900.876 333.153 895.524 326.551 895.524C319.949 895.524 314.598 900.876 314.598 907.478C314.598 914.08 319.949 919.431 326.551 919.431Z" fill="#EC6625"/>
<path d="M478.342 896.218C481.91 896.218 484.802 893.326 484.802 889.759C484.802 886.191 481.91 883.299 478.342 883.299C474.774 883.299 471.882 886.191 471.882 889.759C471.882 893.326 474.774 896.218 478.342 896.218Z" fill="#EC6625"/>
<path d="M456.954 949.587C463.406 949.587 468.636 944.357 468.636 937.905C468.636 931.454 463.406 926.223 456.954 926.223C450.503 926.223 445.272 931.454 445.272 937.905C445.272 944.357 450.503 949.587 456.954 949.587Z" fill="#EC6625"/>
<path d="M464.093 976.09C467.436 976.09 470.146 973.38 470.146 970.038C470.146 966.695 467.436 963.986 464.093 963.986C460.751 963.986 458.041 966.695 458.041 970.038C458.041 973.38 460.751 976.09 464.093 976.09Z" fill="#EC6625"/>
<path d="M355.274 978.535C359.292 978.535 362.549 975.278 362.549 971.26C362.549 967.243 359.292 963.986 355.274 963.986C351.256 963.986 347.999 967.243 347.999 971.26C347.999 975.278 351.256 978.535 355.274 978.535Z" fill="#EC6625"/>
<path d="M326.008 959.911C328.859 959.911 331.17 957.6 331.17 954.749C331.17 951.898 328.859 949.587 326.008 949.587C323.157 949.587 320.846 951.898 320.846 954.749C320.846 957.6 323.157 959.911 326.008 959.911Z" fill="#EC6625"/>
<path d="M434.165 910.194C447.835 910.194 458.917 899.112 458.917 885.442C458.917 871.771 447.835 860.689 434.165 860.689C420.494 860.689 409.412 871.771 409.412 885.442C409.412 899.112 420.494 910.194 434.165 910.194Z" fill="#EC6625"/>
<path d="M321.767 1022.26C329.736 1022.26 336.196 1015.8 336.196 1007.83C336.196 999.862 329.736 993.402 321.767 993.402C313.798 993.402 307.338 999.862 307.338 1007.83C307.338 1015.8 313.798 1022.26 321.767 1022.26Z" fill="#EC6625"/>
<path d="M111.206 1009.54L68.4623 1000.66L71.9035 1009.54L48.7207 1007.73L95.8108 1024.75L88.0228 1010.44L111.206 1009.54Z" fill="#E2DE00"/>
<path d="M124.064 1023.12L88.0224 1048.48L98.8893 1050.65L78.061 1070.03L124.064 1043.41L112.111 1042.32L124.064 1023.12Z" fill="#E2DE00"/>
<path d="M142.9 1024.75L134.388 1071.48L143.926 1063.51L142.176 1089.41L157.208 1040.33L145.798 1048.48L142.9 1024.75Z" fill="#E2DE00"/>
<path d="M425.079 1009.72L469.995 1000.66L464.018 1010.8L490.099 1008.27L440.292 1025.84L450.435 1011.17L425.079 1009.72Z" fill="#E2DE00"/>
<path d="M413.125 1022.21L451.34 1049.93L435.583 1048.11L460.758 1069.49L412.219 1042.5L426.708 1043.59L413.125 1022.21Z" fill="#E2DE00"/>
<path d="M394.002 1025.84L402.801 1069.49L391.753 1062.97L394.002 1089.05L379.618 1041.23L389.942 1047.93L394.002 1025.84Z" fill="#E2DE00"/>
<g opacity="0.25">
<path d="M177.448 735.69C177.538 736.384 177.614 737.093 177.614 737.818C177.614 737.093 177.674 736.384 177.78 735.69H177.448Z" fill="#079FC3"/>
<path d="M146.356 735.69C146.447 736.384 146.522 737.093 146.522 737.818C146.522 737.093 146.582 736.384 146.688 735.69H146.356Z" fill="#079FC3"/>
<path d="M239.631 735.69C239.721 736.384 239.797 737.093 239.797 737.818C239.797 737.093 239.857 736.384 239.963 735.69H239.631Z" fill="#079FC3"/>
<path d="M53.082 735.69C53.1726 736.384 53.2481 737.093 53.2481 737.818C53.2481 737.093 53.3084 736.384 53.4141 735.69H53.082Z" fill="#079FC3"/>
<path d="M115.265 735.69C115.356 736.384 115.431 737.093 115.431 737.818C115.431 737.093 115.492 736.384 115.597 735.69H115.265Z" fill="#079FC3"/>
<path d="M301.014 735.69C301.105 736.384 301.18 737.093 301.18 737.818C301.18 737.093 301.241 736.384 301.346 735.69H301.014Z" fill="#079FC3"/>
<path d="M84.1733 735.69C84.2639 736.384 84.3394 737.093 84.3394 737.818C84.3394 737.093 84.3997 736.384 84.5054 735.69H84.1733Z" fill="#079FC3"/>
<path d="M208.54 735.69C208.63 736.384 208.706 737.093 208.706 737.818C208.706 737.093 208.766 736.384 208.872 735.69H208.54Z" fill="#079FC3"/>
<path d="M487.563 735.69C487.654 736.384 487.729 737.093 487.729 737.818C487.729 737.093 487.789 736.384 487.895 735.69H487.563Z" fill="#079FC3"/>
<path d="M518.655 735.69C518.745 736.384 518.821 737.093 518.821 737.818C518.821 746.406 511.863 753.364 503.275 753.364C494.687 753.364 487.729 746.406 487.729 737.818C487.729 746.406 480.771 753.364 472.183 753.364C463.595 753.364 456.638 746.406 456.638 737.818C456.638 746.406 449.68 753.364 441.092 753.364C432.504 753.364 425.546 746.406 425.546 737.818C425.546 746.406 418.588 753.364 410 753.364C401.412 753.364 394.454 746.406 394.454 737.818C394.454 746.406 387.497 753.364 378.909 753.364C370.321 753.364 363.363 746.406 363.363 737.818C363.363 746.406 356.405 753.364 347.817 753.364C339.229 753.364 332.271 746.406 332.271 737.818C332.271 746.406 325.314 753.364 316.726 753.364C308.138 753.364 301.18 746.406 301.18 737.818C301.18 746.406 294.222 753.364 285.634 753.364C278.239 753.364 272.066 748.202 270.496 741.289C268.926 748.202 262.738 753.364 255.358 753.364C246.77 753.364 239.812 746.406 239.812 737.818C239.812 746.406 232.854 753.364 224.266 753.364C215.678 753.364 208.72 746.406 208.72 737.818C208.72 746.406 201.763 753.364 193.175 753.364C184.587 753.364 177.629 746.406 177.629 737.818C177.629 746.406 170.671 753.364 162.083 753.364C153.495 753.364 146.537 746.406 146.537 737.818C146.537 746.406 139.58 753.364 130.992 753.364C122.404 753.364 115.446 746.406 115.446 737.818C115.446 746.406 108.488 753.364 99.9002 753.364C91.3123 753.364 84.3544 746.406 84.3544 737.818C84.3544 746.406 77.3966 753.364 68.8087 753.364C60.2208 753.364 53.2629 746.406 53.2629 737.818C53.2629 746.406 46.3051 753.364 37.7172 753.364C29.1293 753.364 22.1714 746.406 22.1714 737.818C22.1714 737.093 22.2318 736.384 22.3374 735.69H20.6621V983.305C20.6621 1051.83 80.0831 1107.88 152.695 1107.88H388.508C461.12 1107.88 520.541 1051.83 520.541 983.305V735.69H518.655Z" fill="#079FC3"/>
<path d="M456.472 735.69C456.562 736.384 456.638 737.093 456.638 737.818C456.638 737.093 456.698 736.384 456.804 735.69H456.472Z" fill="#079FC3"/>
<path d="M425.38 735.69C425.47 736.384 425.546 737.093 425.546 737.818C425.546 737.093 425.606 736.384 425.712 735.69H425.38Z" fill="#079FC3"/>
<path d="M363.197 735.69C363.288 736.384 363.363 737.093 363.363 737.818C363.363 737.093 363.424 736.384 363.529 735.69H363.197Z" fill="#079FC3"/>
<path d="M332.105 735.69C332.196 736.384 332.271 737.093 332.271 737.818C332.271 737.093 332.332 736.384 332.438 735.69H332.105Z" fill="#079FC3"/>
<path d="M394.288 735.69C394.379 736.384 394.454 737.093 394.454 737.818C394.454 737.093 394.514 736.384 394.62 735.69H394.288Z" fill="#079FC3"/>
</g>
<path d="M505.313 627.926V1005.73C505.313 1055.15 464.894 1095.57 415.479 1095.57H126.781C77.3668 1095.57 36.9479 1055.15 36.9479 1005.73V627.926H12.6784C12.0746 627.926 11.4558 627.896 10.8672 627.836V1011.53C10.8672 1069.5 58.3044 1116.94 116.276 1116.94H422.724C480.696 1116.94 528.133 1069.5 528.133 1011.53V627.926H505.313Z" fill="#BCBCBB"/>
<path d="M520.888 632.635H18.1116C8.1502 632.635 0 624.485 0 614.524V585.545C0 575.584 8.1502 567.433 18.1116 567.433H520.888C530.85 567.433 539 575.584 539 585.545V614.524C539 624.485 530.85 632.635 520.888 632.635Z" fill="#079FC3"/>
</svg>
