<svg width="1312" height="993" viewBox="0 0 1312 993" fill="none" xmlns="http://www.w3.org/2000/svg">
<path d="M122 570.5C141.667 399.833 221.1 52 381.5 26" stroke="#079FC3" stroke-opacity="0.8" stroke-width="7" stroke-dasharray="14 14"/>
<path d="M1191 567C1167.58 390.535 1073 30.8834 882 4" stroke="#F08E1D" stroke-opacity="0.8" stroke-width="7" stroke-dasharray="14 14"/>
<path d="M481 576.5L505.5 89" stroke="#F08E1D" stroke-opacity="0.8" stroke-width="7" stroke-dasharray="14 14"/>
<path d="M828.792 577.375L807 73" stroke="#F08E1D" stroke-opacity="0.8" stroke-width="7" stroke-dasharray="14 14"/>
<g clip-path="url(#clip0_491_15)">
<path d="M1190.65 623.522C1206.57 623.522 1219.48 610.869 1219.48 595.261C1219.48 579.653 1206.57 567 1190.65 567C1174.73 567 1161.83 579.653 1161.83 595.261C1161.83 610.869 1174.73 623.522 1190.65 623.522Z" fill="#ACAEB0"/>
<path opacity="0.7" d="M1189.52 983C1256.64 983 1311.04 973.131 1311.04 960.957C1311.04 948.782 1256.64 938.913 1189.52 938.913C1122.41 938.913 1068 948.782 1068 960.957C1068 973.131 1122.41 983 1189.52 983Z" fill="black" fill-opacity="0.8"/>
<path d="M1101.85 644.864L1099.78 863.242C1099.66 874.477 1103.14 885.455 1109.71 894.566C1111.72 897.342 1113.9 899.985 1116.25 902.479C1121.08 907.555 1126.88 911.605 1133.31 914.388C1139.74 917.171 1146.66 918.63 1153.66 918.678L1227.29 919.549C1239.36 919.77 1251.13 915.772 1260.57 908.244C1270.86 899.913 1280.48 885.975 1279.39 863.151C1277.4 821.427 1278.04 681.072 1278.26 647.645C1278.34 639.865 1276.67 632.167 1273.36 625.127C1266.73 611.381 1256.78 594.13 1219.48 596.188C1217.59 596.29 1215.7 596.335 1213.83 596.278L1155.17 594.289C1146.09 593.961 1137.08 596.007 1129.03 600.226C1120.99 604.445 1114.18 610.69 1109.28 618.344C1104.42 626.336 1101.85 635.51 1101.85 644.864Z" fill="#F08E1D"/>
<path d="M1084.96 655.739H1294.09" stroke="#EC6724" stroke-width="13.5652" stroke-miterlimit="10" stroke-linecap="round"/>
<path d="M1108.13 852.435V950.783" stroke="#AAADAE" stroke-width="16.9565" stroke-miterlimit="10" stroke-linecap="round"/>
<path d="M1270.91 854.696V953.043" stroke="#AAADAE" stroke-width="16.9565" stroke-miterlimit="10" stroke-linecap="round"/>
<path d="M1186.13 854.696V967.174" stroke="#AAADAE" stroke-width="16.9565" stroke-miterlimit="10" stroke-linecap="round"/>
<path d="M1082.7 847.348H1291.83" stroke="#EC6724" stroke-width="13.5652" stroke-miterlimit="10" stroke-linecap="round"/>
<path d="M1202.34 770.768H1185.9V742.677H1161.62V770.768H1145.17V707.006H1161.62V730.344H1185.9V707.006H1202.34V770.768Z" fill="white"/>
<path d="M1234.88 786.507H1211.8V781.65C1213.57 780.373 1215.33 779.017 1217.1 777.583C1218.87 776.148 1220.29 774.911 1221.36 773.871C1222.95 772.331 1224.08 770.988 1224.76 769.843C1225.43 768.698 1225.76 767.566 1225.76 766.447C1225.76 765.104 1225.33 764.071 1224.46 763.347C1223.6 762.61 1222.37 762.241 1220.75 762.241C1219.54 762.241 1218.26 762.492 1216.92 762.992C1215.59 763.492 1214.35 764.13 1213.21 764.907H1212.57V758.372C1213.51 757.964 1214.88 757.556 1216.7 757.148C1218.53 756.74 1220.36 756.535 1222.19 756.535C1225.87 756.535 1228.69 757.312 1230.62 758.865C1232.55 760.405 1233.52 762.59 1233.52 765.42C1233.52 767.276 1233.06 769.04 1232.12 770.712C1231.2 772.383 1229.78 774.108 1227.88 775.885C1226.68 776.99 1225.47 778.01 1224.26 778.945C1223.05 779.866 1222.19 780.511 1221.68 780.88H1234.88V786.507Z" fill="white"/>
</g>
<g clip-path="url(#clip1_491_15)">
<path d="M480.652 632.522C496.572 632.522 509.478 619.869 509.478 604.261C509.478 588.653 496.572 576 480.652 576C464.732 576 451.826 588.653 451.826 604.261C451.826 619.869 464.732 632.522 480.652 632.522Z" fill="#ACAEB0"/>
<path opacity="0.7" d="M479.522 992C546.636 992 601.043 982.131 601.043 969.957C601.043 957.782 546.636 947.913 479.522 947.913C412.407 947.913 358 957.782 358 969.957C358 982.131 412.407 992 479.522 992Z" fill="black" fill-opacity="0.8"/>
<path d="M391.846 653.864L389.777 872.242C389.656 883.477 393.139 894.455 399.713 903.566C401.719 906.342 403.901 908.985 406.247 911.479C411.076 916.555 416.878 920.605 423.307 923.388C429.736 926.171 436.659 927.63 443.665 927.678L517.29 928.549C529.361 928.77 541.131 924.772 550.57 917.244C560.857 908.913 570.477 894.975 569.392 872.151C567.402 830.427 568.035 690.072 568.261 656.645C568.344 648.865 566.667 641.167 563.355 634.127C556.731 620.381 546.783 603.13 509.479 605.188C507.591 605.29 505.703 605.335 503.827 605.278L445.168 603.289C436.088 602.961 427.08 605.007 419.033 609.226C410.986 613.445 404.179 619.69 399.284 627.344C394.423 635.336 391.85 644.51 391.846 653.864Z" fill="#F08E1D"/>
<path d="M374.957 664.739H584.087" stroke="#EC6724" stroke-width="13.5652" stroke-miterlimit="10" stroke-linecap="round"/>
<path d="M398.13 861.435V959.783" stroke="#AAADAE" stroke-width="16.9565" stroke-miterlimit="10" stroke-linecap="round"/>
<path d="M560.913 863.696V962.043" stroke="#AAADAE" stroke-width="16.9565" stroke-miterlimit="10" stroke-linecap="round"/>
<path d="M476.13 863.696V976.174" stroke="#AAADAE" stroke-width="16.9565" stroke-miterlimit="10" stroke-linecap="round"/>
<path d="M372.696 856.348H581.826" stroke="#EC6724" stroke-width="13.5652" stroke-miterlimit="10" stroke-linecap="round"/>
<path d="M492.339 779.768H475.895V751.677H451.615V779.768H435.172V716.006H451.615V739.344H475.895V716.006H492.339V779.768Z" fill="white"/>
<path d="M524.885 795.507H501.804V790.65C503.568 789.373 505.332 788.017 507.095 786.583C508.872 785.148 510.294 783.911 511.36 782.871C512.953 781.331 514.085 779.988 514.756 778.843C515.427 777.698 515.763 776.566 515.763 775.447C515.763 774.104 515.329 773.071 514.46 772.347C513.604 771.61 512.367 771.241 510.748 771.241C509.537 771.241 508.26 771.492 506.918 771.992C505.588 772.492 504.351 773.13 503.206 773.907H502.574V767.372C503.509 766.964 504.884 766.556 506.701 766.148C508.53 765.74 510.36 765.535 512.189 765.535C515.875 765.535 518.685 766.312 520.62 767.865C522.555 769.405 523.522 771.59 523.522 774.42C523.522 776.276 523.055 778.04 522.121 779.712C521.199 781.383 519.784 783.108 517.876 784.885C516.678 785.99 515.473 787.01 514.262 787.945C513.051 788.866 512.189 789.511 511.676 789.88H524.885V795.507Z" fill="white"/>
</g>
<g clip-path="url(#clip2_491_15)">
<path d="M835.652 629.522C851.572 629.522 864.478 616.869 864.478 601.261C864.478 585.653 851.572 573 835.652 573C819.732 573 806.826 585.653 806.826 601.261C806.826 616.869 819.732 629.522 835.652 629.522Z" fill="#ACAEB0"/>
<path opacity="0.7" d="M834.522 989C901.636 989 956.043 979.131 956.043 966.957C956.043 954.782 901.636 944.913 834.522 944.913C767.407 944.913 713 954.782 713 966.957C713 979.131 767.407 989 834.522 989Z" fill="black" fill-opacity="0.8"/>
<path d="M746.846 650.864L744.777 869.242C744.656 880.477 748.139 891.455 754.713 900.566C756.719 903.342 758.901 905.985 761.247 908.479C766.076 913.555 771.878 917.605 778.307 920.388C784.736 923.171 791.659 924.63 798.665 924.678L872.29 925.549C884.361 925.77 896.131 921.772 905.57 914.244C915.857 905.913 925.477 891.975 924.392 869.151C922.402 827.427 923.035 687.072 923.261 653.645C923.344 645.865 921.667 638.167 918.355 631.127C911.731 617.381 901.783 600.13 864.479 602.188C862.591 602.29 860.703 602.335 858.827 602.278L800.168 600.289C791.088 599.961 782.08 602.007 774.033 606.226C765.986 610.445 759.179 616.69 754.284 624.344C749.423 632.336 746.85 641.51 746.846 650.864Z" fill="#F08E1D"/>
<path d="M729.957 661.739H939.087" stroke="#EC6724" stroke-width="13.5652" stroke-miterlimit="10" stroke-linecap="round"/>
<path d="M753.13 858.435V956.783" stroke="#AAADAE" stroke-width="16.9565" stroke-miterlimit="10" stroke-linecap="round"/>
<path d="M915.913 860.696V959.043" stroke="#AAADAE" stroke-width="16.9565" stroke-miterlimit="10" stroke-linecap="round"/>
<path d="M831.13 860.696V973.174" stroke="#AAADAE" stroke-width="16.9565" stroke-miterlimit="10" stroke-linecap="round"/>
<path d="M727.696 853.348H936.826" stroke="#EC6724" stroke-width="13.5652" stroke-miterlimit="10" stroke-linecap="round"/>
<path d="M847.339 776.768H830.895V748.677H806.615V776.768H790.172V713.006H806.615V736.344H830.895V713.006H847.339V776.768Z" fill="white"/>
<path d="M879.885 792.507H856.804V787.65C858.568 786.373 860.332 785.017 862.095 783.583C863.872 782.148 865.294 780.911 866.36 779.871C867.953 778.331 869.085 776.988 869.756 775.843C870.427 774.698 870.763 773.566 870.763 772.447C870.763 771.104 870.329 770.071 869.46 769.347C868.604 768.61 867.367 768.241 865.748 768.241C864.537 768.241 863.26 768.492 861.918 768.992C860.588 769.492 859.351 770.13 858.206 770.907H857.574V764.372C858.509 763.964 859.884 763.556 861.701 763.148C863.53 762.74 865.36 762.535 867.189 762.535C870.875 762.535 873.685 763.312 875.62 764.865C877.555 766.405 878.522 768.59 878.522 771.42C878.522 773.276 878.055 775.04 877.121 776.712C876.199 778.383 874.784 780.108 872.876 781.885C871.678 782.99 870.473 784.01 869.262 784.945C868.051 785.866 867.189 786.511 866.676 786.88H879.885V792.507Z" fill="white"/>
</g>
<g clip-path="url(#clip3_491_15)">
<path d="M124.144 628.209C140.258 628.209 153.321 615.403 153.321 599.605C153.321 583.807 140.258 571 124.144 571C108.03 571 94.9673 583.807 94.9673 599.605C94.9673 615.403 108.03 628.209 124.144 628.209Z" fill="#ACAEB0"/>
<path opacity="0.7" d="M123 992.06C190.931 992.06 246 982.071 246 969.749C246 957.426 190.931 947.437 123 947.437C55.069 947.437 0 957.426 0 969.749C0 982.071 55.069 992.06 123 992.06Z" fill="black" fill-opacity="0.8"/>
<path d="M34.2568 649.812L32.163 870.845C32.0408 882.217 35.5656 893.329 42.2204 902.551C44.2499 905.36 46.459 908.036 48.8338 910.56C53.7211 915.697 59.5937 919.797 66.1007 922.614C72.6078 925.431 79.6158 926.908 86.7063 926.956L161.227 927.837C173.445 928.061 185.358 924.015 194.912 916.395C205.324 907.963 215.061 893.855 213.963 870.754C211.949 828.522 212.59 686.46 212.819 652.626C212.903 644.752 211.205 636.96 207.853 629.834C201.148 615.921 191.079 598.46 153.321 600.543C151.41 600.646 149.499 600.692 147.6 600.634L88.2281 598.621C79.0378 598.289 69.9198 600.36 61.7749 604.63C53.63 608.9 46.74 615.221 41.7856 622.969C36.8652 631.058 34.2609 640.343 34.2568 649.812Z" fill="#45BECF"/>
<path d="M17.1626 660.819H228.837" stroke="#5A9EC0" stroke-width="13.7302" stroke-miterlimit="10" stroke-linecap="round"/>
<path d="M40.6184 859.907V959.451" stroke="#AAADAE" stroke-width="17.1628" stroke-miterlimit="10" stroke-linecap="round"/>
<path d="M205.381 862.195V961.739" stroke="#AAADAE" stroke-width="17.1628" stroke-miterlimit="10" stroke-linecap="round"/>
<path d="M119.567 862.195V976.042" stroke="#AAADAE" stroke-width="17.1628" stroke-miterlimit="10" stroke-linecap="round"/>
<path d="M14.8743 854.758H226.549" stroke="#5A9EC0" stroke-width="13.7302" stroke-miterlimit="10" stroke-linecap="round"/>
<path d="M140.871 744.929C140.871 755.216 137.924 763.393 132.029 769.461C126.134 775.5 117.986 778.52 107.584 778.52C97.2103 778.52 89.0763 775.5 83.1817 769.461C77.2871 763.393 74.3398 755.216 74.3398 744.929C74.3398 734.556 77.2871 726.364 83.1817 720.354C89.0763 714.315 97.2103 711.295 107.584 711.295C117.928 711.295 126.062 714.315 131.986 720.354C137.909 726.364 140.871 734.556 140.871 744.929ZM118.809 761.269C120.428 759.304 121.627 756.993 122.407 754.334C123.187 751.647 123.577 748.498 123.577 744.886C123.577 741.014 123.129 737.72 122.234 735.004C121.338 732.287 120.168 730.091 118.723 728.415C117.249 726.682 115.544 725.425 113.608 724.645C111.701 723.864 109.707 723.474 107.627 723.474C105.518 723.474 103.524 723.85 101.646 724.601C99.7964 725.353 98.0916 726.595 96.5313 728.329C95.0865 729.947 93.9018 732.186 92.9772 735.047C92.0814 737.879 91.6336 741.173 91.6336 744.929C91.6336 748.772 92.067 752.052 92.9338 754.768C93.8296 757.455 94.9998 759.651 96.4446 761.356C97.8894 763.061 99.5797 764.318 101.516 765.127C103.452 765.936 105.489 766.34 107.627 766.34C109.765 766.34 111.802 765.936 113.738 765.127C115.674 764.289 117.365 763.003 118.809 761.269Z" fill="white"/>
<path d="M168.914 792.678H145.553V787.762C147.338 786.47 149.124 785.098 150.909 783.645C152.707 782.193 154.146 780.941 155.225 779.888C156.837 778.33 157.983 776.971 158.663 775.812C159.342 774.653 159.682 773.507 159.682 772.374C159.682 771.015 159.242 769.97 158.363 769.237C157.497 768.491 156.245 768.118 154.606 768.118C153.38 768.118 152.088 768.371 150.729 768.877C149.383 769.383 148.131 770.03 146.972 770.816H146.332V764.201C147.278 763.788 148.671 763.375 150.509 762.962C152.361 762.549 154.213 762.342 156.065 762.342C159.795 762.342 162.639 763.128 164.598 764.7C166.556 766.259 167.536 768.471 167.536 771.335C167.536 773.214 167.063 774.999 166.117 776.691C165.184 778.383 163.752 780.128 161.82 781.927C160.608 783.046 159.389 784.078 158.163 785.024C156.937 785.957 156.065 786.61 155.545 786.983H168.914V792.678Z" fill="white"/>
</g>
<defs>
<clipPath id="clip0_491_15">
<rect width="243.043" height="416" fill="white" transform="translate(1068 567)"/>
</clipPath>
<clipPath id="clip1_491_15">
<rect width="243.043" height="416" fill="white" transform="translate(358 576)"/>
</clipPath>
<clipPath id="clip2_491_15">
<rect width="243.043" height="416" fill="white" transform="translate(713 573)"/>
</clipPath>
<clipPath id="clip3_491_15">
<rect width="246" height="421.06" fill="white" transform="translate(0 571)"/>
</clipPath>
</defs>
</svg>
