<svg width="1728" height="1134" viewBox="0 0 1728 1134" fill="none" xmlns="http://www.w3.org/2000/svg">
<rect width="1728" height="390" fill="url(#paint0_linear_486_11)"/>
<rect y="390" width="1728" height="744" fill="url(#paint1_linear_486_11)"/>
<path d="M0 351V395.24V443H1726V396.749L1390.29 401.776L1328.85 391.721L1290.38 369.601L1212.95 361.557H1127.52L1057.58 369.601L928.193 401.776H301.238L0 351Z" fill="#6AB144"/>
<path d="M176.5 366.5C101.7 369.7 30 337.833 3.5 321.5L0 319V347C45.5 375.333 126 394.5 176.5 384C218.913 375.181 269.833 371.333 296.5 377.5C350.5 394.5 399 413.5 465 408.5C516.167 398.167 623 381.1 641 395.5C663.5 413.5 922.5 395.5 940.5 385C954.9 376.6 1070.5 359.833 1126.5 352.5C1178.67 352.5 1288.6 359 1311 385C1333.4 411 1472.67 407.833 1539.5 403C1578.17 397.667 1660.9 385.1 1682.5 377.5C1704.1 369.9 1722.83 386.333 1729.5 395.5V360C1718.3 348.8 1693.5 350.333 1682.5 352.5C1582.67 374 1375 406.9 1343 366.5C1303 316 1140.5 338.5 1116.5 334.5C1097.3 331.3 971.833 354.5 911.5 366.5C843.667 372.333 694.6 380.5 641 366.5C574 349 495 374 449 384C412.2 392 357 370 334 358C295.2 337.2 212.833 355 176.5 366.5Z" fill="#DCF0FA"/>
<path d="M174.5 384C99.7 387.2 28 355.333 1.5 339L-2 336.5V364.5C43.5 392.833 134.5 422.5 185 412C227.413 403.181 267.833 388.833 294.5 395C348.5 412 397 431 463 426C514.167 415.667 617.276 405.291 639 413C670 424 920.5 413 938.5 402.5C952.9 394.1 1068.5 377.333 1124.5 370C1176.67 370 1286.6 376.5 1309 402.5C1331.4 428.5 1470.67 425.333 1537.5 420.5C1576.17 415.167 1658.9 402.6 1680.5 395C1702.1 387.4 1720.83 403.833 1727.5 413V377.5C1716.3 366.3 1691.5 367.833 1680.5 370C1580.67 391.5 1373 424.4 1341 384C1301 333.5 1138.5 356 1114.5 352C1095.3 348.8 969.833 372 909.5 384C841.667 389.833 692.6 398 639 384C572 366.5 493 391.5 447 401.5C410.2 409.5 355 387.5 332 375.5C293.2 354.7 210.833 372.5 174.5 384Z" fill="#F3B678"/>
<path d="M535.5 422C535.5 422 538.838 421.773 540.203 433.605C541.417 434.894 544.754 436.336 543.995 444.527C546.119 445.968 551.504 447.789 548.091 458.256C551.125 462.2 553.401 465.006 546.953 471.15C542.771 473.669 541.341 475.397 537.245 476.838C533.149 478.28 522.72 469.633 521.506 468.495C520.52 467.244 518.131 461.1 522.72 458.256C522.094 454.937 520.103 447.372 527.271 444.243C527.043 441 526.19 437.075 531.025 433.378C531.879 429.964 531.101 427.803 535.5 422Z" fill="#295D29"/>
<path d="M541.409 445.32C542.033 438.69 539.225 436.35 537.82 434.479C538.999 429.035 537.118 424.805 535.338 422.218C531.125 427.856 531.867 430.009 531.025 433.377C526.19 437.075 527.043 441 527.271 444.243C520.103 447.371 522.094 454.937 522.72 458.256C519.116 460.49 519.816 464.758 520.76 467.094C525.721 471.558 530.374 472.66 533.843 472.932C545.231 470.982 544.684 461.778 543.826 457.955C547.258 449.064 542.734 446.335 541.409 445.32Z" fill="#3D732F"/>
<path d="M105.256 751.001C105.256 751.001 119.091 750.058 124.75 799.108C129.781 804.454 143.616 810.428 140.471 844.385C149.275 850.36 171.599 857.906 157.45 901.296C170.027 917.646 179.46 929.28 152.734 954.749C135.395 965.19 129.467 972.356 112.488 978.33C95.5086 984.305 52.2752 948.46 47.2444 943.744C43.1569 938.556 33.2525 913.087 52.2752 901.296C49.6812 887.54 41.4276 856.176 71.1407 843.206C70.1974 829.765 66.6602 813.493 86.7048 798.165C90.242 784.016 87.0192 775.055 105.256 751.001Z" fill="#295D29"/>
<path d="M129.748 847.674C132.336 820.188 120.695 810.486 114.872 802.731C119.759 780.164 111.963 762.628 104.581 751.905C87.1173 775.277 90.196 784.199 86.7046 798.165C66.66 813.493 70.1973 829.765 71.1406 843.206C41.4274 856.176 49.6811 887.54 52.2751 901.296C37.3334 910.559 40.2352 928.252 44.1524 937.933C64.7145 956.439 84.0058 961.011 98.3842 962.138C145.594 954.054 143.327 915.897 139.77 900.052C153.998 863.192 135.244 851.879 129.748 847.674Z" fill="#3D732F"/>
<path d="M333.256 871.001C333.256 871.001 347.091 870.058 352.75 919.108C357.781 924.454 371.616 930.428 368.471 964.385C377.275 970.36 399.599 977.906 385.45 1021.3C398.027 1037.65 407.46 1049.28 380.734 1074.75C363.395 1085.19 357.467 1092.36 340.488 1098.33C323.509 1104.3 280.275 1068.46 275.244 1063.74C271.157 1058.56 261.253 1033.09 280.275 1021.3C277.681 1007.54 269.428 976.176 299.141 963.206C298.197 949.765 294.66 933.493 314.705 918.165C318.242 904.016 315.019 895.055 333.256 871.001Z" fill="#295D29"/>
<path d="M357.748 967.674C360.336 940.188 348.695 930.486 342.872 922.731C347.759 900.164 339.963 882.628 332.581 871.905C315.117 895.277 318.196 904.199 314.705 918.165C294.66 933.493 298.197 949.765 299.141 963.206C269.427 976.176 277.681 1007.54 280.275 1021.3C265.333 1030.56 268.235 1048.25 272.152 1057.93C292.715 1076.44 312.006 1081.01 326.384 1082.14C373.594 1074.05 371.327 1035.9 367.77 1020.05C381.998 983.192 363.244 971.879 357.748 967.674Z" fill="#3D732F"/>
<path d="M1623.63 786.001C1623.63 786.001 1609.79 785.058 1604.13 834.108C1599.1 839.454 1585.27 845.428 1588.41 879.385C1579.61 885.36 1557.28 892.906 1571.43 936.296C1558.86 952.646 1549.42 964.28 1576.15 989.749C1593.49 1000.19 1599.42 1007.36 1616.4 1013.33C1633.37 1019.3 1676.61 983.46 1681.64 978.744C1685.73 973.556 1695.63 948.087 1676.61 936.296C1679.2 922.54 1687.46 891.176 1657.74 878.206C1658.69 864.765 1662.22 848.493 1642.18 833.165C1638.64 819.016 1641.86 810.055 1623.63 786.001Z" fill="#295D29"/>
<path d="M1599.13 882.674C1596.55 855.188 1608.19 845.486 1614.01 837.731C1609.12 815.164 1616.92 797.628 1624.3 786.905C1641.77 810.277 1638.69 819.199 1642.18 833.165C1662.22 848.493 1658.69 864.765 1657.74 878.206C1687.46 891.176 1679.2 922.54 1676.61 936.296C1691.55 945.559 1688.65 963.252 1684.73 972.933C1664.17 991.439 1644.88 996.011 1630.5 997.138C1583.29 989.054 1585.56 950.897 1589.11 935.052C1574.88 898.192 1593.64 886.879 1599.13 882.674Z" fill="#3D732F"/>
<path d="M1395.63 906.001C1395.63 906.001 1381.79 905.058 1376.13 954.108C1371.1 959.454 1357.27 965.428 1360.41 999.385C1351.61 1005.36 1329.28 1012.91 1343.43 1056.3C1330.86 1072.65 1321.42 1084.28 1348.15 1109.75C1365.49 1120.19 1371.42 1127.36 1388.4 1133.33C1405.37 1139.3 1448.61 1103.46 1453.64 1098.74C1457.73 1093.56 1467.63 1068.09 1448.61 1056.3C1451.2 1042.54 1459.46 1011.18 1429.74 998.206C1430.69 984.765 1434.22 968.493 1414.18 953.165C1410.64 939.016 1413.86 930.055 1395.63 906.001Z" fill="#295D29"/>
<path d="M1371.13 1002.67C1368.55 975.188 1380.19 965.486 1386.01 957.731C1381.12 935.164 1388.92 917.628 1396.3 906.905C1413.77 930.277 1410.69 939.199 1414.18 953.165C1434.22 968.493 1430.69 984.765 1429.74 998.206C1459.46 1011.18 1451.2 1042.54 1448.61 1056.3C1463.55 1065.56 1460.65 1083.25 1456.73 1092.93C1436.17 1111.44 1416.88 1116.01 1402.5 1117.14C1355.29 1109.05 1357.56 1070.9 1361.11 1055.05C1346.88 1018.19 1365.64 1006.88 1371.13 1002.67Z" fill="#3D732F"/>
<path d="M1598.46 397.001C1598.46 397.001 1604.59 396.583 1607.1 418.311C1609.33 420.679 1615.46 423.325 1614.06 438.368C1617.96 441.015 1627.85 444.357 1621.59 463.579C1627.16 470.821 1631.34 475.975 1619.5 487.257C1611.82 491.882 1609.19 495.057 1601.67 497.703C1594.15 500.35 1574.99 484.471 1572.77 482.382C1570.96 480.084 1566.57 468.802 1574.99 463.579C1573.85 457.485 1570.19 443.591 1583.35 437.846C1582.93 431.891 1581.37 424.683 1590.25 417.893C1591.81 411.625 1590.39 407.656 1598.46 397.001Z" fill="#295D29"/>
<path d="M1609.31 439.825C1610.46 427.649 1605.3 423.351 1602.72 419.916C1604.89 409.919 1601.44 402.151 1598.17 397.401C1590.43 407.754 1591.79 411.707 1590.25 417.893C1581.37 424.683 1582.93 431.891 1583.35 437.846C1570.19 443.591 1573.85 457.485 1574.99 463.579C1568.38 467.682 1569.66 475.519 1571.4 479.808C1580.51 488.006 1589.05 490.031 1595.42 490.53C1616.33 486.949 1615.33 470.047 1613.75 463.027C1620.06 446.699 1611.75 441.688 1609.31 439.825Z" fill="#3D732F"/>
<path d="M92.4642 498.001C92.4642 498.001 98.5927 497.583 101.1 519.311C103.328 521.679 109.457 524.325 108.064 539.368C111.964 542.015 121.853 545.357 115.585 564.579C121.157 571.821 125.335 576.975 113.496 588.257C105.815 592.882 103.189 596.057 95.6677 598.703C88.1464 601.35 68.9947 585.471 66.7661 583.382C64.9554 581.084 60.568 569.802 68.9947 564.579C67.8456 558.485 64.1894 544.591 77.3518 538.846C76.9339 532.891 75.367 525.683 84.2464 518.893C85.8133 512.625 84.3857 508.656 92.4642 498.001Z" fill="#295D29"/>
<path d="M103.314 540.825C104.46 528.649 99.3036 524.351 96.7239 520.916C98.8886 510.919 95.4355 503.151 92.1653 498.401C84.4292 508.754 85.793 512.707 84.2463 518.893C75.3669 525.683 76.9339 532.891 77.3517 538.846C64.1893 544.591 67.8456 558.485 68.9947 564.579C62.3757 568.682 63.6612 576.519 65.3965 580.808C74.5051 589.006 83.0508 591.031 89.4202 591.53C110.333 587.949 109.329 571.047 107.754 564.027C114.056 547.699 105.748 542.688 103.314 540.825Z" fill="#3D732F"/>
<path d="M54.6004 434C54.6004 434 58.6051 433.727 60.2435 447.926C61.6997 449.473 65.7045 451.203 64.7944 461.033C67.3428 462.762 73.8051 464.946 69.7093 477.507C73.35 482.24 76.0806 485.607 68.344 492.98C63.3248 496.002 61.6087 498.077 56.6938 499.806C51.7788 501.536 39.2639 491.16 37.8076 489.794C36.6244 488.292 33.7573 480.92 39.2639 477.507C38.513 473.525 36.1238 464.446 44.7249 460.691C44.4519 456.8 43.4279 452.09 49.2303 447.653C50.2543 443.557 49.3213 440.963 54.6004 434Z" fill="#295D29"/>
<path d="M61.6902 461.985C62.4392 454.028 59.0697 451.22 57.384 448.975C58.7985 442.442 56.542 437.366 54.405 434.262C49.3497 441.028 50.241 443.61 49.2303 447.653C43.4279 452.09 44.4519 456.8 44.7249 460.691C36.1237 464.446 38.5129 473.525 39.2638 477.507C34.9386 480.188 35.7786 485.31 36.9126 488.112C42.8647 493.469 48.449 494.793 52.6112 495.119C66.2771 492.779 65.6211 481.733 64.5914 477.147C68.71 466.477 63.2811 463.202 61.6902 461.985Z" fill="#3D732F"/>
<path d="M1082.42 433C1082.42 433 1087.03 432.686 1088.92 449.036C1090.59 450.818 1095.21 452.809 1094.16 464.128C1097.09 466.12 1104.53 468.635 1099.82 483.099C1104.01 488.549 1107.15 492.427 1098.25 500.916C1092.47 504.397 1090.49 506.785 1084.83 508.777C1079.17 510.768 1064.76 498.82 1063.08 497.248C1061.72 495.519 1058.42 487.029 1064.76 483.099C1063.89 478.513 1061.14 468.059 1071.05 463.735C1070.73 459.255 1069.55 453.831 1076.24 448.722C1077.41 444.005 1076.34 441.018 1082.42 433Z" fill="#295D29"/>
<path d="M1090.58 465.225C1091.45 456.063 1087.57 452.829 1085.62 450.244C1087.25 442.721 1084.65 436.876 1082.19 433.302C1076.37 441.092 1077.4 444.066 1076.23 448.722C1069.55 453.831 1070.73 459.255 1071.05 463.735C1061.14 468.059 1063.89 478.513 1064.76 483.099C1059.78 486.186 1060.75 492.084 1062.05 495.311C1068.9 501.479 1075.34 503.004 1080.13 503.379C1095.86 500.685 1095.11 487.966 1093.92 482.684C1098.67 470.397 1092.41 466.626 1090.58 465.225Z" fill="#3D732F"/>
<path d="M1127.37 403C1127.37 403 1130.71 402.773 1132.07 414.605C1133.29 415.894 1136.62 417.336 1135.87 425.527C1137.99 426.968 1143.38 428.789 1139.96 439.256C1143 443.2 1145.27 446.006 1138.82 452.15C1134.64 454.669 1133.21 456.397 1129.12 457.838C1125.02 459.28 1114.59 450.633 1113.38 449.495C1112.39 448.244 1110 442.1 1114.59 439.256C1113.97 435.937 1111.97 428.372 1119.14 425.243C1118.91 422 1118.06 418.075 1122.9 414.378C1123.75 410.964 1122.97 408.803 1127.37 403Z" fill="#295D29"/>
<path d="M1133.28 426.32C1133.9 419.69 1131.1 417.35 1129.69 415.479C1130.87 410.035 1128.99 405.805 1127.21 403.218C1123 408.856 1123.74 411.009 1122.9 414.377C1118.06 418.075 1118.91 422 1119.14 425.243C1111.97 428.371 1113.97 435.937 1114.59 439.256C1110.99 441.49 1111.69 445.758 1112.63 448.094C1117.59 452.558 1122.25 453.66 1125.71 453.932C1137.1 451.982 1136.56 442.778 1135.7 438.955C1139.13 430.064 1134.61 427.335 1133.28 426.32Z" fill="#3D732F"/>
<defs>
<linearGradient id="paint0_linear_486_11" x1="864" y1="258.243" x2="844.741" y2="-268.39" gradientUnits="userSpaceOnUse">
<stop stop-color="#8DC9ED"/>
<stop offset="1" stop-color="#8DC9ED" stop-opacity="0"/>
</linearGradient>
<linearGradient id="paint1_linear_486_11" x1="864" y1="390" x2="864" y2="1134" gradientUnits="userSpaceOnUse">
<stop offset="0.779167" stop-color="#6AB144"/>
<stop offset="1" stop-color="#6AB144" stop-opacity="0"/>
</linearGradient>
</defs>
</svg>
