<svg width="942" height="544" viewBox="0 0 942 544" fill="none" xmlns="http://www.w3.org/2000/svg">
<path d="M111.675 121.055C111.675 122.494 111.639 123.753 111.567 124.832C111.496 125.876 111.334 126.883 111.082 127.855C110.866 128.826 110.524 129.815 110.056 130.823C109.589 131.794 108.959 132.91 108.168 134.169L101.799 144.207C100.432 146.437 99.3529 148.74 98.5614 151.114C97.7699 153.489 97.3742 155.684 97.3742 157.698C97.3742 159.173 97.572 160.523 97.9678 161.746C98.3636 162.969 98.9212 164.012 99.6408 164.876C100.36 165.739 101.242 166.405 102.285 166.873C103.364 167.376 104.552 167.628 105.847 167.628C108.761 167.628 110.902 166.333 112.269 163.743C113.636 161.152 114.32 157.411 114.32 152.518V148.092H125.329C125.725 150.107 126.067 151.96 126.354 153.651C126.642 155.306 126.786 157.123 126.786 159.101C126.786 161.836 126.372 164.39 125.545 166.765C124.717 169.139 123.422 171.208 121.659 172.971C119.896 174.734 117.666 176.119 114.967 177.126C112.269 178.134 109.049 178.638 105.307 178.638C101.602 178.638 98.3456 178.134 95.5393 177.126C92.769 176.155 90.4484 174.752 88.5775 172.917C86.7067 171.082 85.3035 168.87 84.3681 166.279C83.4687 163.725 83.0189 160.864 83.0189 157.698C83.0189 155.899 83.1808 154.19 83.5046 152.571C83.8284 150.916 84.3321 149.279 85.0157 147.66C85.6993 146.005 86.5448 144.333 87.5522 142.642C88.5595 140.915 89.7648 139.116 91.168 137.245L95.4853 131.416C96.5287 130.013 97.3382 128.808 97.9138 127.801C98.4895 126.793 98.9032 125.804 99.1551 124.832C99.4429 123.861 99.6228 122.836 99.6947 121.756C99.7667 120.677 99.8027 119.382 99.8027 117.871V110.099H111.729L111.675 121.055ZM113.402 89.592C113.402 93.3697 112.647 96.086 111.136 97.741C109.625 99.36 107.574 100.17 104.984 100.17C102.285 100.17 100.198 99.306 98.7233 97.5791C97.2482 95.8522 96.5107 93.1898 96.5107 89.592C96.5107 86.318 97.2482 83.7815 98.7233 81.9826C100.234 80.1837 102.339 79.2843 105.037 79.2843C107.592 79.2843 109.625 80.1657 111.136 81.9287C112.647 83.6556 113.402 86.2101 113.402 89.592ZM161.109 155.81C159.67 155.81 158.105 155.684 156.414 155.432C154.759 155.216 153.086 154.73 151.395 153.975C149.74 153.219 148.139 152.158 146.592 150.791C145.081 149.387 143.732 147.553 142.545 145.286C141.393 143.019 140.458 140.231 139.738 136.921C139.055 133.575 138.713 129.6 138.713 124.994V92.3443C138.713 87.7031 139.073 83.7456 139.792 80.4716C140.512 77.1616 141.465 74.3913 142.652 72.1606C143.84 69.894 145.207 68.0951 146.754 66.7639C148.301 65.4328 149.902 64.4254 151.557 63.7418C153.212 63.0222 154.849 62.5545 156.468 62.3386C158.123 62.1228 159.652 62.0148 161.055 62.0148C164.725 62.0148 167.783 62.5365 170.23 63.5799C172.712 64.5873 174.691 65.9904 176.166 67.7893C177.677 69.5522 178.738 71.621 179.35 73.9955C179.998 76.3701 180.321 78.8885 180.321 81.5509C180.321 83.5297 180.214 85.3646 179.998 87.0555C179.818 88.7105 179.53 90.5454 179.134 92.5602H167.801V87.865C167.801 82.7921 167.243 78.9965 166.128 76.478C165.013 73.9595 163.376 72.7003 161.217 72.7003C159.922 72.7003 158.789 72.9522 157.817 73.4558C156.846 73.9595 156.036 74.823 155.389 76.0463C154.741 77.2335 154.237 78.8166 153.878 80.7954C153.554 82.7742 153.392 85.2386 153.392 88.1888V130.283C153.392 133.161 153.518 135.554 153.77 137.461C154.058 139.368 154.507 140.897 155.119 142.048C155.73 143.199 156.522 144.027 157.493 144.53C158.501 144.998 159.706 145.232 161.109 145.232C162.009 145.232 162.872 145.034 163.7 144.638C164.527 144.207 165.247 143.559 165.858 142.696C166.506 141.796 167.01 140.681 167.369 139.35C167.765 137.982 167.963 136.381 167.963 134.547V125.534H180.753V134.061C180.753 141.472 179.062 146.941 175.68 150.467C172.298 153.993 167.441 155.774 161.109 155.81ZM212.864 155.81C211.388 155.81 209.787 155.684 208.06 155.432C206.334 155.216 204.625 154.73 202.934 153.975C201.243 153.219 199.606 152.158 198.023 150.791C196.476 149.387 195.09 147.553 193.867 145.286C192.68 143.019 191.726 140.231 191.007 136.921C190.287 133.575 189.928 129.6 189.928 124.994V92.3443C189.928 87.7031 190.287 83.7456 191.007 80.4716C191.762 77.1616 192.752 74.3913 193.975 72.1606C195.198 69.894 196.584 68.0951 198.131 66.7639C199.714 65.4328 201.351 64.4254 203.042 63.7418C204.769 63.0222 206.477 62.5545 208.168 62.3386C209.859 62.1228 211.424 62.0148 212.864 62.0148C214.231 62.0148 215.742 62.1228 217.397 62.3386C219.088 62.5185 220.761 62.9503 222.416 63.6339C224.107 64.2815 225.744 65.2709 227.327 66.602C228.91 67.8972 230.313 69.6782 231.536 71.9448C232.759 74.1754 233.731 76.9637 234.45 80.3097C235.206 83.6196 235.584 87.6312 235.584 92.3443V124.994C235.584 129.564 235.206 133.503 234.45 136.813C233.695 140.087 232.705 142.875 231.482 145.178C230.259 147.445 228.838 149.279 227.219 150.683C225.636 152.05 223.999 153.129 222.308 153.921C220.653 154.676 218.998 155.18 217.343 155.432C215.688 155.684 214.195 155.81 212.864 155.81ZM212.864 145.286C214.231 145.286 215.418 145.052 216.425 144.584C217.469 144.117 218.314 143.307 218.962 142.156C219.645 141.005 220.149 139.493 220.473 137.623C220.833 135.716 221.013 133.323 221.013 130.445V88.5126C221.013 85.5624 220.833 83.098 220.473 81.1192C220.149 79.1404 219.645 77.5573 218.962 76.3701C218.314 75.1468 217.469 74.2833 216.425 73.7796C215.418 73.276 214.231 73.0241 212.864 73.0241C211.46 73.0241 210.237 73.276 209.194 73.7796C208.15 74.2833 207.287 75.1468 206.603 76.3701C205.92 77.5573 205.398 79.1404 205.038 81.1192C204.715 83.098 204.553 85.5624 204.553 88.5126V130.445C204.553 133.323 204.715 135.716 205.038 137.623C205.398 139.493 205.92 141.005 206.603 142.156C207.287 143.307 208.15 144.117 209.194 144.584C210.237 145.052 211.46 145.286 212.864 145.286ZM206.927 55.161L224.251 43.5042L231.212 52.5166L212.594 61.4752L206.927 55.161ZM249.507 62.8243H267.748L276.599 98.4965C277.534 102.454 278.272 106.232 278.811 109.83C279.351 113.391 279.873 116.755 280.376 119.921H280.808C281.312 116.755 281.833 113.391 282.373 109.83C282.913 106.232 283.65 102.454 284.586 98.4965L293.706 62.8243H311.569V155H298.509V124.509C298.509 119.831 298.545 115.334 298.617 111.017C298.725 106.7 298.851 102.742 298.995 99.1441C299.139 95.5104 299.301 92.3083 299.481 89.538C299.661 86.7677 299.822 84.5731 299.966 82.954H298.941L285.017 143.127H276.167L262.135 82.954H261.11C261.254 84.5731 261.416 86.7677 261.596 89.538C261.776 92.3083 261.938 95.5104 262.081 99.1441C262.225 102.742 262.333 106.7 262.405 111.017C262.513 115.334 262.567 119.831 262.567 124.509V155H249.507V62.8243ZM347.727 155.81C346.252 155.81 344.651 155.684 342.924 155.432C341.197 155.216 339.488 154.73 337.797 153.975C336.106 153.219 334.469 152.158 332.886 150.791C331.339 149.387 329.954 147.553 328.731 145.286C327.543 143.019 326.59 140.231 325.87 136.921C325.151 133.575 324.791 129.6 324.791 124.994V92.3443C324.791 87.7031 325.151 83.7456 325.87 80.4716C326.626 77.1616 327.615 74.3913 328.839 72.1606C330.062 69.894 331.447 68.0951 332.994 66.7639C334.577 65.4328 336.214 64.4254 337.905 63.7418C339.632 63.0222 341.341 62.5545 343.032 62.3386C344.723 62.1228 346.288 62.0148 347.727 62.0148C349.094 62.0148 350.605 62.1228 352.26 62.3386C353.951 62.5185 355.624 62.9503 357.279 63.6339C358.97 64.2815 360.607 65.2709 362.19 66.602C363.773 67.8972 365.176 69.6782 366.4 71.9448C367.623 74.1754 368.594 76.9637 369.314 80.3097C370.069 83.6196 370.447 87.6312 370.447 92.3443V124.994C370.447 129.564 370.069 133.503 369.314 136.813C368.558 140.087 367.569 142.875 366.346 145.178C365.122 147.445 363.701 149.279 362.082 150.683C360.499 152.05 358.862 153.129 357.171 153.921C355.516 154.676 353.861 155.18 352.206 155.432C350.551 155.684 349.058 155.81 347.727 155.81ZM347.727 145.286C349.094 145.286 350.282 145.052 351.289 144.584C352.332 144.117 353.178 143.307 353.825 142.156C354.509 141.005 355.013 139.493 355.336 137.623C355.696 135.716 355.876 133.323 355.876 130.445V88.5126C355.876 85.5624 355.696 83.098 355.336 81.1192C355.013 79.1404 354.509 77.5573 353.825 76.3701C353.178 75.1468 352.332 74.2833 351.289 73.7796C350.282 73.276 349.094 73.0241 347.727 73.0241C346.324 73.0241 345.101 73.276 344.057 73.7796C343.014 74.2833 342.151 75.1468 341.467 76.3701C340.783 77.5573 340.262 79.1404 339.902 81.1192C339.578 83.098 339.416 85.5624 339.416 88.5126V130.445C339.416 133.323 339.578 135.716 339.902 137.623C340.262 139.493 340.783 141.005 341.467 142.156C342.151 143.307 343.014 144.117 344.057 144.584C345.101 145.052 346.324 145.286 347.727 145.286ZM403.745 136.327C403.745 134.349 403.853 132.532 404.069 130.877C404.321 129.186 404.68 127.369 405.148 125.426H415.995V129.905C415.995 132.388 416.139 134.582 416.427 136.489C416.751 138.396 417.255 140.015 417.938 141.346C418.658 142.642 419.593 143.631 420.744 144.315C421.932 144.962 423.371 145.286 425.062 145.286C427.724 145.286 429.757 144.566 431.16 143.127C432.563 141.652 433.265 139.511 433.265 136.705C433.265 135.266 433.157 133.953 432.941 132.766C432.761 131.542 432.419 130.337 431.916 129.15C431.448 127.963 430.8 126.721 429.973 125.426C429.145 124.095 428.084 122.62 426.789 121.001L412.218 103.677C409.627 100.367 407.631 97.0394 406.227 93.6935C404.824 90.3115 404.123 86.7137 404.123 82.9001C404.123 79.8419 404.59 77.0357 405.526 74.4812C406.497 71.9268 407.882 69.7321 409.681 67.8972C411.48 66.0264 413.693 64.5873 416.319 63.5799C418.982 62.5365 421.986 62.0148 425.332 62.0148C429.397 62.0148 432.779 62.5905 435.477 63.7418C438.212 64.8931 440.388 66.4042 442.007 68.275C443.627 70.1459 444.76 72.2506 445.407 74.5892C446.091 76.8917 446.433 79.2123 446.433 81.5509C446.433 83.5297 446.271 85.3646 445.947 87.0555C445.659 88.7105 445.317 90.5454 444.922 92.5602H434.128V88.1888C434.128 83.2958 433.427 79.5541 432.024 76.9637C430.62 74.3373 428.336 73.0241 425.17 73.0241C422.543 73.0241 420.583 73.7617 419.287 75.2368C417.992 76.6759 417.345 78.6187 417.345 81.0652C417.345 82.3604 417.435 83.5297 417.614 84.5731C417.83 85.6164 418.118 86.5878 418.478 87.4873C418.874 88.3507 419.341 89.1962 419.881 90.0237C420.421 90.8512 421.032 91.7147 421.716 92.6141L437.96 112.258C440.91 116.108 443.177 119.814 444.76 123.375C446.343 126.901 447.134 130.643 447.134 134.6C447.134 137.874 446.613 140.825 445.569 143.451C444.562 146.077 443.105 148.308 441.198 150.143C439.291 151.978 436.989 153.399 434.29 154.406C431.592 155.378 428.552 155.863 425.17 155.863C420.996 155.863 417.524 155.306 414.754 154.19C412.02 153.075 409.825 151.6 408.17 149.765C406.551 147.93 405.4 145.844 404.716 143.505C404.069 141.166 403.745 138.774 403.745 136.327ZM458.899 62.8243H493.06V73.8336H472.877V101.411H488.473V112.42H472.877V143.991H493.6V155H458.899V62.8243ZM527.329 62.8243H541.307C543.07 62.8243 544.995 62.9143 547.081 63.0942C549.204 63.2381 551.309 63.6159 553.395 64.2275C555.518 64.8031 557.551 65.7026 559.494 66.9258C561.472 68.1491 563.217 69.8221 564.728 71.9448C566.24 74.0315 567.445 76.6579 568.344 79.824C569.28 82.99 569.747 86.8397 569.747 91.3729V94.6109C569.747 99.5399 569.316 103.767 568.452 107.293C567.625 110.783 566.509 113.733 565.106 116.144C563.703 118.518 562.066 120.425 560.195 121.864C558.36 123.303 556.436 124.401 554.421 125.156C552.442 125.876 550.427 126.362 548.376 126.613C546.362 126.829 544.455 126.937 542.656 126.937H541.307V155H527.329V62.8243ZM542.008 116.683C544.527 116.683 546.65 116.324 548.376 115.604C550.103 114.849 551.471 113.697 552.478 112.15C553.521 110.567 554.259 108.552 554.691 106.106C555.158 103.623 555.392 100.655 555.392 97.2013V88.8904C555.392 86.1561 555.194 83.7995 554.799 81.8207C554.403 79.806 553.683 78.151 552.64 76.8558C551.632 75.5606 550.265 74.6071 548.538 73.9955C546.811 73.3479 544.635 73.0241 542.008 73.0241H541.307V116.683H542.008ZM580.325 62.8243H595.49C597.217 62.8243 599.105 62.8963 601.156 63.0402C603.243 63.1841 605.312 63.5439 607.362 64.1196C609.449 64.6592 611.446 65.4867 613.353 66.602C615.296 67.7174 617.005 69.2464 618.48 71.1892C619.991 73.132 621.196 75.5785 622.095 78.5287C622.995 81.443 623.445 84.9868 623.445 89.1602V91.4808C623.445 98.4965 622.437 104.217 620.422 108.642C618.408 113.032 615.439 116.198 611.518 118.141L626.305 155H611.518L599.267 120.515H594.033V155H580.325V62.8243ZM596.137 110.423C598.584 110.423 600.652 110.153 602.343 109.614C604.034 109.074 605.402 108.175 606.445 106.915C607.488 105.62 608.244 103.929 608.712 101.842C609.179 99.7198 609.413 97.1114 609.413 94.0173V86.7317C609.413 84.3572 609.197 82.3064 608.766 80.5795C608.334 78.8525 607.596 77.4314 606.553 76.3161C605.546 75.2008 604.196 74.3733 602.505 73.8336C600.814 73.2939 598.692 73.0241 596.137 73.0241H594.033V110.423H596.137ZM657.282 155.81C655.807 155.81 654.206 155.684 652.479 155.432C650.752 155.216 649.043 154.73 647.352 153.975C645.661 153.219 644.024 152.158 642.441 150.791C640.894 149.387 639.509 147.553 638.285 145.286C637.098 143.019 636.145 140.231 635.425 136.921C634.706 133.575 634.346 129.6 634.346 124.994V92.3443C634.346 87.7031 634.706 83.7456 635.425 80.4716C636.181 77.1616 637.17 74.3913 638.393 72.1606C639.617 69.894 641.002 68.0951 642.549 66.7639C644.132 65.4328 645.769 64.4254 647.46 63.7418C649.187 63.0222 650.896 62.5545 652.587 62.3386C654.278 62.1228 655.843 62.0148 657.282 62.0148C658.649 62.0148 660.16 62.1228 661.815 62.3386C663.506 62.5185 665.179 62.9503 666.834 63.6339C668.525 64.2815 670.162 65.2709 671.745 66.602C673.328 67.8972 674.731 69.6782 675.954 71.9448C677.178 74.1754 678.149 76.9637 678.869 80.3097C679.624 83.6196 680.002 87.6312 680.002 92.3443V124.994C680.002 129.564 679.624 133.503 678.869 136.813C678.113 140.087 677.124 142.875 675.901 145.178C674.677 147.445 673.256 149.279 671.637 150.683C670.054 152.05 668.417 153.129 666.726 153.921C665.071 154.676 663.416 155.18 661.761 155.432C660.106 155.684 658.613 155.81 657.282 155.81ZM657.282 145.286C658.649 145.286 659.836 145.052 660.844 144.584C661.887 144.117 662.733 143.307 663.38 142.156C664.064 141.005 664.567 139.493 664.891 137.623C665.251 135.716 665.431 133.323 665.431 130.445V88.5126C665.431 85.5624 665.251 83.098 664.891 81.1192C664.567 79.1404 664.064 77.5573 663.38 76.3701C662.733 75.1468 661.887 74.2833 660.844 73.7796C659.836 73.276 658.649 73.0241 657.282 73.0241C655.879 73.0241 654.655 73.276 653.612 73.7796C652.569 74.2833 651.705 75.1468 651.022 76.3701C650.338 77.5573 649.816 79.1404 649.457 81.1192C649.133 83.098 648.971 85.5624 648.971 88.5126V130.445C648.971 133.323 649.133 135.716 649.457 137.623C649.816 139.493 650.338 141.005 651.022 142.156C651.705 143.307 652.569 144.117 653.612 144.584C654.655 145.052 655.879 145.286 657.282 145.286ZM693.224 62.8243H707.741C709.936 62.8243 712.202 62.8963 714.541 63.0402C716.915 63.1481 719.218 63.5259 721.449 64.1735C723.715 64.8211 725.838 65.8285 727.817 67.1957C729.832 68.5269 731.594 70.4157 733.106 72.8622C734.617 75.2727 735.804 78.3309 736.667 82.0366C737.567 85.7064 738.017 90.2036 738.017 95.5284V122.296C738.017 127.621 737.567 132.136 736.667 135.842C735.804 139.547 734.617 142.606 733.106 145.016C731.594 147.427 729.832 149.315 727.817 150.683C725.838 152.014 723.715 153.003 721.449 153.651C719.218 154.298 716.915 154.694 714.541 154.838C712.202 154.946 709.936 155 707.741 155H693.224V62.8243ZM710.763 145.232C713.282 145.232 715.35 144.908 716.969 144.261C718.624 143.613 719.92 142.48 720.855 140.861C721.826 139.206 722.492 136.975 722.852 134.169C723.212 131.326 723.391 127.747 723.391 123.429V94.8268C723.391 90.5094 723.212 86.9476 722.852 84.1413C722.492 81.2991 721.826 79.0684 720.855 77.4494C719.92 75.7944 718.624 74.6431 716.969 73.9955C715.35 73.3479 713.282 73.0241 710.763 73.0241H707.201V145.232H710.763ZM750.213 62.8243H764.298V130.391C764.298 133.269 764.442 135.662 764.73 137.569C765.018 139.475 765.468 141.005 766.079 142.156C766.727 143.271 767.537 144.081 768.508 144.584C769.515 145.052 770.703 145.286 772.07 145.286C773.437 145.286 774.624 145.052 775.632 144.584C776.675 144.081 777.52 143.271 778.168 142.156C778.852 141.005 779.355 139.475 779.679 137.569C780.039 135.662 780.219 133.269 780.219 130.391V62.8243H794.142V126.667C794.142 131.165 793.782 135.014 793.063 138.216C792.343 141.418 791.39 144.099 790.203 146.257C789.015 148.416 787.648 150.125 786.101 151.384C784.59 152.643 783.007 153.615 781.352 154.298C779.733 154.946 778.114 155.36 776.495 155.54C774.876 155.72 773.401 155.81 772.07 155.81C770.739 155.81 769.263 155.72 767.644 155.54C766.061 155.36 764.46 154.946 762.841 154.298C761.222 153.615 759.657 152.643 758.146 151.384C756.635 150.125 755.286 148.416 754.099 146.257C752.911 144.099 751.958 141.436 751.238 138.27C750.555 135.068 750.213 131.201 750.213 126.667V62.8243ZM829.437 155.81C827.998 155.81 826.433 155.684 824.742 155.432C823.087 155.216 821.414 154.73 819.723 153.975C818.068 153.219 816.467 152.158 814.92 150.791C813.408 149.387 812.059 147.553 810.872 145.286C809.721 143.019 808.785 140.231 808.066 136.921C807.382 133.575 807.04 129.6 807.04 124.994V92.3443C807.04 87.7031 807.4 83.7456 808.12 80.4716C808.839 77.1616 809.793 74.3913 810.98 72.1606C812.167 69.894 813.534 68.0951 815.081 66.7639C816.629 65.4328 818.23 64.4254 819.885 63.7418C821.54 63.0222 823.177 62.5545 824.796 62.3386C826.451 62.1228 827.98 62.0148 829.383 62.0148C833.052 62.0148 836.111 62.5365 838.557 63.5799C841.04 64.5873 843.018 65.9904 844.493 67.7893C846.005 69.5522 847.066 71.621 847.678 73.9955C848.325 76.3701 848.649 78.8885 848.649 81.5509C848.649 83.5297 848.541 85.3646 848.325 87.0555C848.145 88.7105 847.857 90.5454 847.462 92.5602H836.129V87.865C836.129 82.7921 835.571 78.9965 834.456 76.478C833.34 73.9595 831.703 72.7003 829.545 72.7003C828.249 72.7003 827.116 72.9522 826.145 73.4558C825.173 73.9595 824.364 74.823 823.716 76.0463C823.069 77.2335 822.565 78.8166 822.205 80.7954C821.881 82.7742 821.719 85.2386 821.719 88.1888V130.283C821.719 133.161 821.845 135.554 822.097 137.461C822.385 139.368 822.835 140.897 823.446 142.048C824.058 143.199 824.849 144.027 825.821 144.53C826.828 144.998 828.034 145.232 829.437 145.232C830.336 145.232 831.2 145.034 832.027 144.638C832.855 144.207 833.574 143.559 834.186 142.696C834.833 141.796 835.337 140.681 835.697 139.35C836.093 137.982 836.29 136.381 836.29 134.547V125.534H849.081V134.061C849.081 141.472 847.39 146.941 844.008 150.467C840.626 153.993 835.769 155.774 829.437 155.81ZM860.09 62.8243H894.251V73.8336H874.067V101.411H889.664V112.42H874.067V143.991H894.791V155H860.09V62.8243ZM85.8792 201.824H120.04V212.834H99.8566V240.411H115.453V251.42H99.8566V282.991H120.58V294H85.8792V201.824ZM130.672 201.824H144.649V282.991H163.7V294H130.672V201.824ZM196.188 201.824H210.165V240.411H226.733V201.824H240.711V294H226.733V251.42H210.165V294H196.188V201.824ZM256.631 201.824H270.608V294H256.631V201.824ZM286.421 201.824H300.938C303.132 201.824 305.399 201.896 307.738 202.04C310.112 202.148 312.415 202.526 314.645 203.174C316.912 203.821 319.035 204.829 321.013 206.196C323.028 207.527 324.791 209.416 326.302 211.862C327.813 214.273 329.001 217.331 329.864 221.037C330.763 224.706 331.213 229.204 331.213 234.528V261.296C331.213 266.621 330.763 271.136 329.864 274.842C329.001 278.547 327.813 281.606 326.302 284.016C324.791 286.427 323.028 288.315 321.013 289.683C319.035 291.014 316.912 292.003 314.645 292.651C312.415 293.298 310.112 293.694 307.738 293.838C305.399 293.946 303.132 294 300.938 294H286.421V201.824ZM303.96 284.232C306.478 284.232 308.547 283.908 310.166 283.261C311.821 282.613 313.116 281.48 314.052 279.861C315.023 278.206 315.689 275.975 316.048 273.169C316.408 270.326 316.588 266.747 316.588 262.429V233.827C316.588 229.509 316.408 225.948 316.048 223.141C315.689 220.299 315.023 218.068 314.052 216.449C313.116 214.794 311.821 213.643 310.166 212.996C308.547 212.348 306.478 212.024 303.96 212.024H300.398V284.232H303.96ZM343.734 201.824H358.898C360.625 201.824 362.514 201.896 364.565 202.04C366.652 202.184 368.72 202.544 370.771 203.12C372.858 203.659 374.855 204.487 376.761 205.602C378.704 206.717 380.413 208.246 381.888 210.189C383.399 212.132 384.605 214.579 385.504 217.529C386.403 220.443 386.853 223.987 386.853 228.16V230.481C386.853 237.497 385.846 243.217 383.831 247.642C381.816 252.032 378.848 255.198 374.926 257.141L389.713 294H374.926L362.676 259.515H357.441V294H343.734V201.824ZM359.546 249.423C361.992 249.423 364.061 249.153 365.752 248.614C367.443 248.074 368.81 247.175 369.854 245.915C370.897 244.62 371.652 242.929 372.12 240.842C372.588 238.72 372.822 236.111 372.822 233.017V225.732C372.822 223.357 372.606 221.306 372.174 219.579C371.742 217.853 371.005 216.431 369.962 215.316C368.954 214.201 367.605 213.373 365.914 212.834C364.223 212.294 362.1 212.024 359.546 212.024H357.441V249.423H359.546ZM420.691 294.81C419.215 294.81 417.614 294.684 415.887 294.432C414.161 294.216 412.452 293.73 410.761 292.975C409.07 292.219 407.433 291.158 405.85 289.791C404.303 288.387 402.917 286.553 401.694 284.286C400.507 282.019 399.553 279.231 398.834 275.921C398.114 272.575 397.755 268.6 397.755 263.994V231.344C397.755 226.703 398.114 222.746 398.834 219.472C399.589 216.162 400.579 213.391 401.802 211.161C403.025 208.894 404.41 207.095 405.958 205.764C407.541 204.433 409.178 203.425 410.869 202.742C412.595 202.022 414.304 201.555 415.995 201.339C417.686 201.123 419.251 201.015 420.691 201.015C422.058 201.015 423.569 201.123 425.224 201.339C426.915 201.519 428.588 201.95 430.243 202.634C431.934 203.281 433.571 204.271 435.154 205.602C436.737 206.897 438.14 208.678 439.363 210.945C440.586 213.175 441.558 215.964 442.277 219.31C443.033 222.62 443.411 226.631 443.411 231.344V263.994C443.411 268.564 443.033 272.503 442.277 275.813C441.522 279.087 440.532 281.875 439.309 284.178C438.086 286.445 436.665 288.279 435.046 289.683C433.463 291.05 431.826 292.129 430.135 292.921C428.48 293.676 426.825 294.18 425.17 294.432C423.515 294.684 422.022 294.81 420.691 294.81ZM420.691 284.286C422.058 284.286 423.245 284.052 424.252 283.584C425.296 283.117 426.141 282.307 426.789 281.156C427.472 280.005 427.976 278.493 428.3 276.623C428.66 274.716 428.84 272.323 428.84 269.445V227.513C428.84 224.562 428.66 222.098 428.3 220.119C427.976 218.14 427.472 216.557 426.789 215.37C426.141 214.147 425.296 213.283 424.252 212.78C423.245 212.276 422.058 212.024 420.691 212.024C419.287 212.024 418.064 212.276 417.021 212.78C415.977 213.283 415.114 214.147 414.43 215.37C413.747 216.557 413.225 218.14 412.865 220.119C412.541 222.098 412.38 224.562 412.38 227.513V269.445C412.38 272.323 412.541 274.716 412.865 276.623C413.225 278.493 413.747 280.005 414.43 281.156C415.114 282.307 415.977 283.117 417.021 283.584C418.064 284.052 419.287 284.286 420.691 284.286ZM475.251 294.863C474.172 294.863 472.913 294.738 471.473 294.486C470.034 294.27 468.541 293.784 466.994 293.029C465.483 292.273 463.99 291.212 462.515 289.845C461.04 288.441 459.709 286.607 458.521 284.34C457.37 282.037 456.435 279.231 455.715 275.921C454.996 272.575 454.636 268.6 454.636 263.994V231.344C454.636 226.703 455.014 222.746 455.769 219.472C456.525 216.162 457.532 213.391 458.791 211.161C460.05 208.894 461.49 207.095 463.109 205.764C464.764 204.433 466.473 203.425 468.235 202.742C469.998 202.022 471.743 201.555 473.47 201.339C475.197 201.123 476.798 201.015 478.273 201.015C482.015 201.015 485.163 201.537 487.718 202.58C490.308 203.587 492.395 204.99 493.978 206.789C495.597 208.552 496.748 210.621 497.432 212.996C498.151 215.37 498.511 217.889 498.511 220.551C498.511 222.53 498.385 224.365 498.133 226.056C497.917 227.711 497.611 229.545 497.216 231.56H486.045V227.189C486.045 217.079 483.328 212.024 477.896 212.024C476.42 212.024 475.143 212.276 474.064 212.78C472.985 213.283 472.085 214.147 471.366 215.37C470.646 216.557 470.106 218.14 469.747 220.119C469.423 222.098 469.261 224.562 469.261 227.513V269.283C469.261 272.161 469.423 274.554 469.747 276.461C470.106 278.368 470.628 279.897 471.312 281.048C472.031 282.199 472.913 283.027 473.956 283.53C475.035 283.998 476.313 284.232 477.788 284.232C479.335 284.232 480.666 283.836 481.781 283.045C482.896 282.217 483.814 281.102 484.533 279.699C485.253 278.296 485.775 276.641 486.099 274.734C486.458 272.827 486.638 270.758 486.638 268.528V256.493H479.461V247.319H500.238V294H490.956L489.444 285.257C487.682 288.675 485.649 291.14 483.346 292.651C481.08 294.126 478.381 294.863 475.251 294.863ZM513.19 201.824H547.351V212.834H527.167V240.411H542.764V251.42H527.167V282.991H547.891V294H513.19V201.824ZM557.983 201.824H569.316L591.658 263.509H591.982C591.874 262.07 591.73 260.468 591.55 258.706C591.37 256.943 591.208 254.946 591.064 252.715C590.92 250.449 590.795 247.894 590.687 245.052C590.579 242.21 590.525 239.008 590.525 235.446V201.824H603.045V294H591.604L569.37 233.935H568.938C569.046 235.554 569.19 237.317 569.37 239.223C569.55 241.094 569.711 243.307 569.855 245.861C569.999 248.416 570.125 251.402 570.233 254.82C570.341 258.202 570.395 262.231 570.395 266.909V294H557.983V201.824ZM639.257 294.81C637.782 294.81 636.181 294.684 634.454 294.432C632.727 294.216 631.018 293.73 629.327 292.975C627.636 292.219 625.999 291.158 624.416 289.791C622.869 288.387 621.484 286.553 620.261 284.286C619.073 282.019 618.12 279.231 617.4 275.921C616.681 272.575 616.321 268.6 616.321 263.994V231.344C616.321 226.703 616.681 222.746 617.4 219.472C618.156 216.162 619.145 213.391 620.368 211.161C621.592 208.894 622.977 207.095 624.524 205.764C626.107 204.433 627.744 203.425 629.435 202.742C631.162 202.022 632.871 201.555 634.562 201.339C636.253 201.123 637.818 201.015 639.257 201.015C640.624 201.015 642.135 201.123 643.79 201.339C645.481 201.519 647.154 201.95 648.809 202.634C650.5 203.281 652.137 204.271 653.72 205.602C655.303 206.897 656.706 208.678 657.93 210.945C659.153 213.175 660.124 215.964 660.844 219.31C661.599 222.62 661.977 226.631 661.977 231.344V263.994C661.977 268.564 661.599 272.503 660.844 275.813C660.088 279.087 659.099 281.875 657.876 284.178C656.652 286.445 655.231 288.279 653.612 289.683C652.029 291.05 650.392 292.129 648.701 292.921C647.046 293.676 645.391 294.18 643.736 294.432C642.081 294.684 640.588 294.81 639.257 294.81ZM639.257 284.286C640.624 284.286 641.811 284.052 642.819 283.584C643.862 283.117 644.708 282.307 645.355 281.156C646.039 280.005 646.542 278.493 646.866 276.623C647.226 274.716 647.406 272.323 647.406 269.445V227.513C647.406 224.562 647.226 222.098 646.866 220.119C646.542 218.14 646.039 216.557 645.355 215.37C644.708 214.147 643.862 213.283 642.819 212.78C641.811 212.276 640.624 212.024 639.257 212.024C637.854 212.024 636.631 212.276 635.587 212.78C634.544 213.283 633.68 214.147 632.997 215.37C632.313 216.557 631.791 218.14 631.432 220.119C631.108 222.098 630.946 224.562 630.946 227.513V269.445C630.946 272.323 631.108 274.716 631.432 276.623C631.791 278.493 632.313 280.005 632.997 281.156C633.68 282.307 634.544 283.117 635.587 283.584C636.631 284.052 637.854 284.286 639.257 284.286ZM79.0254 340.824H93.3266L103.472 413.842H104.066L114.266 340.824H128.513L111.729 433H95.7551L79.0254 340.824ZM137.472 340.824H171.633V351.834H151.449V379.411H167.046V390.42H151.449V421.991H172.172V433H137.472V340.824ZM182.264 340.824H197.429C199.156 340.824 201.045 340.896 203.096 341.04C205.182 341.184 207.251 341.544 209.302 342.12C211.388 342.659 213.385 343.487 215.292 344.602C217.235 345.717 218.944 347.246 220.419 349.189C221.93 351.132 223.135 353.579 224.035 356.529C224.934 359.443 225.384 362.987 225.384 367.16V369.481C225.384 376.497 224.377 382.217 222.362 386.642C220.347 391.032 217.379 394.198 213.457 396.141L228.244 433H213.457L201.207 398.515H195.972V433H182.264V340.824ZM198.077 388.423C200.523 388.423 202.592 388.153 204.283 387.614C205.974 387.074 207.341 386.175 208.384 384.915C209.428 383.62 210.183 381.929 210.651 379.842C211.119 377.72 211.352 375.111 211.352 372.017V364.732C211.352 362.357 211.137 360.306 210.705 358.579C210.273 356.853 209.536 355.431 208.492 354.316C207.485 353.201 206.136 352.373 204.445 351.834C202.754 351.294 200.631 351.024 198.077 351.024H195.972V388.423H198.077ZM238.822 340.824H253.339C255.533 340.824 257.8 340.896 260.139 341.04C262.513 341.148 264.816 341.526 267.046 342.174C269.313 342.821 271.436 343.829 273.415 345.196C275.429 346.527 277.192 348.416 278.703 350.862C280.214 353.273 281.402 356.331 282.265 360.037C283.165 363.706 283.614 368.204 283.614 373.528V400.296C283.614 405.621 283.165 410.136 282.265 413.842C281.402 417.547 280.214 420.606 278.703 423.016C277.192 425.427 275.429 427.315 273.415 428.683C271.436 430.014 269.313 431.003 267.046 431.651C264.816 432.298 262.513 432.694 260.139 432.838C257.8 432.946 255.533 433 253.339 433H238.822V340.824ZM256.361 423.232C258.879 423.232 260.948 422.908 262.567 422.261C264.222 421.613 265.517 420.48 266.453 418.861C267.424 417.206 268.09 414.975 268.45 412.169C268.809 409.326 268.989 405.747 268.989 401.429V372.827C268.989 368.509 268.809 364.948 268.45 362.141C268.09 359.299 267.424 357.068 266.453 355.449C265.517 353.794 264.222 352.643 262.567 351.996C260.948 351.348 258.879 351.024 256.361 351.024H252.799V423.232H256.361ZM296.135 340.824H330.296V351.834H310.112V379.411H325.709V390.42H310.112V421.991H330.835V433H296.135V340.824ZM354.203 391.985C354.203 390.546 354.239 389.305 354.311 388.261C354.383 387.182 354.527 386.157 354.743 385.185C354.995 384.214 355.354 383.242 355.822 382.271C356.29 381.264 356.92 380.13 357.711 378.871L364.079 368.833C365.446 366.603 366.526 364.3 367.317 361.925C368.109 359.551 368.504 357.356 368.504 355.341C368.504 353.866 368.307 352.517 367.911 351.294C367.515 350.071 366.957 349.027 366.238 348.164C365.518 347.3 364.619 346.635 363.539 346.167C362.496 345.663 361.327 345.412 360.032 345.412C357.117 345.412 354.977 346.707 353.61 349.297C352.242 351.888 351.559 355.629 351.559 360.522V364.948H340.55C340.154 362.933 339.812 361.098 339.524 359.443C339.236 357.752 339.092 355.917 339.092 353.938C339.092 351.204 339.506 348.65 340.334 346.275C341.161 343.9 342.456 341.832 344.219 340.069C345.982 338.306 348.213 336.921 350.911 335.913C353.61 334.906 356.83 334.402 360.571 334.402C364.277 334.402 367.515 334.906 370.285 335.913C373.092 336.885 375.43 338.288 377.301 340.123C379.172 341.958 380.557 344.17 381.457 346.761C382.392 349.315 382.86 352.175 382.86 355.341C382.86 357.14 382.698 358.867 382.374 360.522C382.05 362.141 381.546 363.778 380.863 365.433C380.179 367.052 379.334 368.725 378.326 370.452C377.319 372.143 376.114 373.924 374.711 375.795L370.393 381.623C369.35 383.027 368.54 384.232 367.965 385.239C367.389 386.247 366.957 387.236 366.67 388.207C366.418 389.179 366.256 390.204 366.184 391.284C366.112 392.363 366.076 393.658 366.076 395.169V402.94H354.149L354.203 391.985ZM352.476 423.448C352.476 419.67 353.232 416.972 354.743 415.353C356.254 413.698 358.305 412.87 360.895 412.87C363.593 412.87 365.68 413.734 367.155 415.461C368.63 417.188 369.368 419.85 369.368 423.448C369.368 426.722 368.612 429.258 367.101 431.057C365.626 432.856 363.539 433.756 360.841 433.756C358.287 433.756 356.254 432.892 354.743 431.165C353.232 429.402 352.476 426.83 352.476 423.448Z" fill="white"/>
<path d="M9.17122 482.172C10.1092 481.715 11.1555 481.368 12.8032 480.966C16.7987 480.003 19.6308 479.656 22.0327 479.831C24.2204 479.987 28.4331 480.73 29.4801 481.145C30.6406 481.604 34.4182 483.952 35.5256 484.904C36.0426 485.353 36.1799 485.631 35.9705 485.803C35.6281 486.06 34.5685 485.956 24.2604 484.651C19.428 484.046 18.1452 483.921 17.9459 484.048C17.802 484.14 17.9266 484.177 18.8323 484.332C20.9603 484.712 28.3339 486.228 31.2196 486.873C35.1978 487.772 35.1978 487.772 32.7164 488.207C30.6314 488.569 28.0991 488.85 27.0303 488.83C25.0726 488.792 21.492 488.239 17.3449 487.331C14.5386 486.713 14.4321 486.679 13.8163 486.332C12.3789 485.497 9.17955 483.154 8.78025 482.646L8.62677 482.44L9.17122 482.172Z" fill="white"/>
<path d="M14.3622 509.803C15.0609 507.57 15.9772 505.681 17.0829 504.177C18.0666 502.836 19.5685 501.344 20.6335 500.659C21.1892 500.298 23.3147 499.202 24.0673 498.895C25.1339 498.457 26.74 498.283 27.0241 498.585C27.1716 498.732 27.0707 498.928 23.6641 504.649C18.5883 513.203 18.4028 513.524 17.8799 514.673C17.3489 515.858 17.3731 515.835 19.5179 512.954C20.7566 511.28 21.4128 510.342 24.8122 505.334C28.2851 500.209 28.3506 500.128 28.8481 500.24C29.1557 500.308 29.1587 500.338 28.9164 502.016C28.2456 506.673 27.7259 508.869 26.8885 510.491C26.1782 511.883 24.1519 514.828 23.0557 516.077C21.8346 517.461 18.6787 520.105 16.7288 521.392C15.7614 522.023 13.3976 523.122 12.3413 523.428L11.6692 523.63L11.7731 522.911C12.269 519.376 13.808 511.601 14.3622 509.803Z" fill="white"/>
<path d="M25.7842 466.241C26.5481 465.84 28.2947 465.25 29.7704 464.895C32.6926 464.187 35.8329 464.119 39.688 464.676C43.8387 465.271 48.2645 467.184 52.2994 470.123C54.1934 471.508 55.4524 472.589 55.0724 472.504C54.991 472.486 54.1055 472.326 53.1073 472.16C52.1112 471.984 49.0302 471.448 46.27 470.964C39.9996 469.866 34.5524 468.953 33.8195 468.875L33.2606 468.826L33.9599 469.097C34.3438 469.249 35.2211 469.531 35.9054 469.741C37.1606 470.117 37.8219 470.303 44.3073 472.096C50.3554 473.762 53.8657 474.842 54.1378 475.112C54.2944 475.262 53.7076 475.549 52.8979 475.73C51.9564 475.948 48.9725 476.251 47.3858 476.296C45.0981 476.375 42.3617 476.039 38.9042 475.275C36.4869 474.744 35.8427 474.524 33.9279 473.573C32.5958 472.903 31.5461 472.288 30.3561 471.451C29.1088 470.572 27.3878 469.179 26.7415 468.501C26.1413 467.872 25.2334 466.707 25.2577 466.599C25.2678 466.553 25.5024 466.396 25.7842 466.241Z" fill="white"/>
<path d="M30.2644 494.969C30.3642 494.82 30.6624 494.506 30.9263 494.26C31.1902 494.015 32.0766 493.109 32.9147 492.249C36.0253 489.042 36.5892 488.559 40.5054 485.827C41.7105 484.983 43.0123 484.046 43.3808 483.758C44.7663 482.659 44.9304 482.562 45.8257 482.296C46.875 481.979 49.0658 480.974 51.8817 479.51C53.9781 478.417 56.2855 477.401 58.8704 476.418C61.2479 475.512 61.879 475.196 65.7732 472.945C67.0927 472.184 68.681 471.282 69.305 470.956C70.5439 470.3 72.2533 469.112 74.2742 467.507C74.9982 466.946 76.0664 466.119 76.6514 465.669C78.0006 464.648 79.5165 463.178 81.5334 460.954C84.312 457.873 84.716 457.383 87.496 453.531C89.9584 450.122 91.6016 447.148 93.7863 442.135C95.8176 437.469 96.7312 434.827 98.5405 428.35C99.353 425.438 99.9211 423.747 100.387 422.852C100.84 421.973 100.955 421.884 101.623 421.957C102.412 422.039 102.762 422.212 102.833 422.533C103.131 423.96 100.43 433.493 97.8663 440.03C96.7108 442.989 95.0295 446.516 93.019 450.197C91.1296 453.677 88.0273 457.866 84.338 461.962C82.5971 463.886 82.1932 464.291 80.7833 465.498C80.1821 466.021 79.2163 466.899 78.6382 467.446C77.2603 468.765 76.6159 469.268 74.0628 471.087C72.8869 471.928 71.4724 472.944 70.9247 473.355C70.3769 473.765 69.629 474.264 69.2606 474.467C66.1376 476.158 63.9627 477.261 62.6163 477.846C61.9975 478.107 60.7527 478.704 59.8489 479.178C58.9471 479.643 57.5242 480.314 56.685 480.669C55.8458 481.024 54.7821 481.491 54.3152 481.71C53.8482 481.929 52.9024 482.336 52.2121 482.62C49.295 483.814 47.1514 484.905 43.4714 487.09C40.49 488.87 40.0783 489.139 38.5507 490.406C36.2428 492.318 34.9705 493.632 33.3015 495.829C32.7412 496.551 32.2393 497.181 32.184 497.216C32.0179 497.322 30.7672 496.671 30.425 496.29C29.9262 495.759 29.8945 495.476 30.2644 494.969Z" fill="white"/>
<path d="M43.3396 448.94C43.8224 448.82 44.9151 448.436 45.7794 448.096C47.9981 447.221 49.0444 446.875 51.1096 446.347C53.0652 445.842 54.61 445.644 56.443 445.645C59.7561 445.653 64.8122 446.574 67.0768 447.575C70.7902 449.234 73.2472 450.649 75.4743 452.413C77.1602 453.752 77.5694 454.3 76.991 454.466C76.6067 454.57 73.4219 454.201 67.306 453.347C59.1745 452.205 58.1974 452.072 52.3205 451.338C51.6822 451.262 51.1051 451.209 51.0357 451.223C50.9643 451.245 55.0981 452.255 60.224 453.458C78.2492 457.717 78.0773 457.678 77.9404 457.781C77.6182 458.033 72.6816 459.508 70.9072 459.882C70.1981 460.038 69.1048 460.212 68.4833 460.273C66.2265 460.511 61.6791 460.246 58.936 459.728C57.2232 459.402 56.5569 459.196 54.0671 458.182C50.6026 456.77 49.0035 455.851 45.7771 453.416C42.9745 451.295 42.7637 451.048 42.545 449.648L42.4724 449.165L43.3396 448.94Z" fill="white"/>
<path d="M37.4025 495.585C37.7916 494.482 38.6504 492.723 38.786 492.753C38.8675 492.771 39.333 495.064 39.5655 496.658C39.6599 497.298 39.9183 499.583 40.1488 501.738C40.5681 505.725 40.697 506.763 41.0501 508.964L41.249 510.199L41.4132 509.464C41.6341 508.476 41.6495 507.728 41.5212 504.054C41.3647 499.317 41.3085 493.536 41.4192 493.465C41.5652 493.365 42.095 493.969 42.6013 494.805C43.7733 496.743 44.6044 498.718 45.1596 500.908C45.9395 504.004 45.9393 505.831 45.1566 510.606C44.7115 513.276 43.577 518.01 43.0316 519.43C42.5538 520.675 42.6424 520.619 41.7923 520.257C41.1151 519.973 40.9696 519.816 40.6725 518.979C40.4943 518.501 40.3018 518.173 40.067 517.949C39.0842 517.034 37.7968 513.786 36.8215 509.78C36.1407 506.962 35.9589 505.142 36.0802 502.475C36.1307 501.23 36.2029 500.78 36.65 498.653C36.9369 497.327 37.2742 495.946 37.4025 495.585Z" fill="white"/>
<path d="M52.8232 427.551C52.9129 427.447 53.1918 427.262 53.4564 427.14C53.7211 427.019 54.6359 426.538 55.4904 426.072C58.4907 424.421 59.6278 423.923 62.3562 423.105C65.7696 422.07 68.6612 421.669 71.3043 421.87C72.94 421.988 75.1756 422.355 78.3609 423.019L81.8105 423.734L82.7076 424.182C85.7435 425.727 87.649 426.848 89.9487 428.456C91.0996 429.256 91.5264 429.599 91.4237 429.633C91.3412 429.662 90.6021 429.697 89.7796 429.723C87.5613 429.788 84.7381 429.671 73.6476 429.019C68.7623 428.735 63.33 428.52 63.1971 428.604C63.1639 428.626 63.4534 428.69 63.8324 428.737C64.2114 428.784 65.8258 429.04 67.413 429.29C69.0002 429.54 70.9011 429.832 71.6349 429.949C78.767 431.058 92.2992 433.237 92.3273 433.281C92.3624 433.336 89.7356 434.719 88.8873 435.072C86.9976 435.878 83.547 436.867 81.8765 437.074C79.9596 437.321 77.4718 437.403 75.647 437.28C72.833 437.079 67.2592 436.137 65.6192 435.571C64.56 435.21 62.1329 434.001 59.49 432.525C57.4649 431.387 56.9165 431.036 54.3335 429.25C52.5188 427.978 52.4957 427.953 52.8232 427.551Z" fill="white"/>
<path d="M55.6623 489.531C56.428 486.999 57.9787 484.014 59.0281 483.059L59.2789 482.83L59.2904 483.118C59.3188 483.543 59.4392 488.824 59.4721 490.716C59.5974 498.949 59.7517 503.228 59.9413 503.528C60.0255 503.661 60.2525 502.645 60.4187 501.35C60.594 499.971 60.6991 498.567 61.0623 492.737C61.3809 487.659 61.5835 485.096 61.7254 484.462C61.8146 484.063 62.0435 483.676 62.1701 483.704C62.2244 483.717 62.4863 484.032 62.7652 484.399C63.042 484.775 63.4404 485.245 63.6592 485.456C63.9403 485.728 64.0696 485.957 64.1354 486.257C64.1772 486.495 64.4265 487.122 64.6759 487.663C65.3351 489.048 65.8758 491.472 66.0109 493.587C66.2221 496.975 65.5445 501.449 64.313 504.791C63.4926 507.015 62.2711 509.76 61.5035 511.111C61.1001 511.811 60.2118 513.192 60.1303 513.259C59.9601 513.383 58.0319 509.773 57.1247 507.628C56.2866 505.642 55.3372 502.327 55.024 500.286C54.4613 496.686 54.6974 492.742 55.6623 489.531Z" fill="white"/>
<path d="M82.2605 471.254C83.0576 468.539 84.4164 465.435 84.5713 465.974C84.6004 466.057 84.9137 469.116 85.2803 472.786C87.0213 490.232 87.0915 490.895 87.2453 490.929C87.3267 490.947 87.5612 487.945 87.6245 486.303C87.6375 485.734 87.6284 484.076 87.5907 482.63C87.4012 474.897 87.4329 467.195 87.6518 466.216C87.7207 465.907 87.7207 465.907 87.9366 466.089C88.5289 466.583 91.697 471.318 92.269 472.54C92.908 473.93 93.3231 475.726 93.8338 479.22C94.2649 482.219 94.1941 484.193 93.5299 487.928C92.6394 492.887 91.2362 496.571 88.9196 499.965C88.5355 500.536 88.1807 501.018 88.1344 501.056C88.0901 501.084 87.3269 499.952 86.4466 498.537C84.721 495.762 83.9856 494.293 82.5037 490.726C81.5956 488.543 81.3488 487.65 80.955 485.163C80.4607 482.064 80.4136 480.236 80.7717 477.869C81.0107 476.333 81.783 472.88 82.2605 471.254Z" fill="white"/>
<path d="M101.384 438.827C101.486 438.584 101.631 438.274 101.716 438.15C101.861 437.925 101.87 437.927 102.014 438.131C102.268 438.483 102.575 439.36 103.408 442.05C103.834 443.459 104.443 445.365 104.738 446.297C105.042 447.232 105.667 449.237 106.118 450.746C106.576 452.267 107.143 454.021 107.379 454.664C107.617 455.298 108.305 457.403 108.899 459.335C110.059 463.069 110.163 463.368 110.711 464.528L111.066 465.274L111.122 464.81C111.15 464.559 111.112 463.923 111.027 463.409C110.844 462.273 109.798 457.48 108.988 454.053C107.832 449.197 105.756 439.491 105.658 438.489C105.592 437.846 105.603 437.715 105.74 437.612C105.936 437.456 106.399 437.636 107.082 438.15C107.82 438.715 108.496 439.428 109.766 441.016C110.935 442.457 111.161 442.803 111.387 443.406C111.471 443.625 111.634 443.832 111.803 443.927C112.006 444.039 112.085 444.152 112.083 444.371C112.093 444.582 112.17 444.704 112.389 444.829C112.59 444.95 112.698 445.107 112.755 445.358C112.807 445.551 113.222 446.5 113.691 447.462C114.851 449.834 115.068 450.435 115.661 452.88C116.385 455.888 116.751 458.33 116.726 460.01C116.7 461.698 116.26 464.645 115.284 469.691C114.615 473.149 114.183 474.994 114.039 475.085C113.882 475.193 113.287 474.67 112.141 473.424C111.452 472.68 110.589 471.782 110.205 471.42C109.516 470.762 109.311 470.449 109.375 470.159C109.396 470.069 109.232 469.823 108.96 469.552C108.395 468.979 105.237 463.989 104.87 463.079C104.669 462.577 104.52 462.354 104.31 462.23C104.091 462.105 103.976 461.937 103.887 461.613C103.809 461.367 103.624 460.878 103.465 460.528C103.306 460.178 102.809 459.087 102.364 458.102C100.541 454.106 99.959 450.721 100.209 445.523C100.319 443.291 100.881 440.057 101.384 438.827Z" fill="white"/>
<path d="M681.928 406.186C681.854 406.137 682.05 404.49 682.345 402.548C682.64 400.631 682.96 397.706 683.083 396.084C683.304 392.741 683.869 390.897 686.205 385.686L687.581 382.663L687.016 381.434C686.696 380.77 686.352 380.303 686.254 380.401C686.18 380.524 685.393 382.712 684.558 385.268C683.23 389.349 678.167 402.671 677.995 402.524C677.97 402.475 678.388 400.754 678.929 398.665C679.445 396.575 680.109 393.921 680.354 392.765C680.674 391.315 681.608 388.98 683.427 385.071L686.008 379.442L685.197 377.82C684.386 376.222 684.361 376.198 684.091 376.788C683.943 377.132 682.788 380.032 681.51 383.228C679.519 388.193 673.546 401.319 673.005 401.934C672.906 402.032 673.595 399.599 674.504 396.526C675.438 393.453 676.249 390.455 676.348 389.889C676.446 389.201 677.773 386.522 680.158 382.196C682.173 378.533 683.82 375.436 683.82 375.338C683.82 374.797 682.37 372.044 682.272 372.363C680.281 378.435 679.814 379.59 677.036 385.022C674.111 390.799 672.636 394.019 671.53 397.141C671.21 397.976 670.94 398.64 670.891 398.591C670.842 398.542 671.432 396.182 672.243 393.355C673.029 390.528 674.037 386.94 674.455 385.391C675.119 382.982 675.709 381.679 678.413 376.591C680.182 373.297 681.608 370.544 681.608 370.446C681.608 370.004 679.764 365.997 679.642 366.169C679.543 366.267 678.953 367.668 678.29 369.291C676.495 373.789 674.676 377.181 671.505 381.925C668.261 386.817 666.417 390.037 664.352 394.486C663.566 396.182 662.927 397.46 662.927 397.362C662.927 397.239 663.689 395.027 664.623 392.446C665.557 389.84 666.86 386.006 667.548 383.916C668.236 381.827 668.998 379.615 669.269 379C669.539 378.386 671.8 374.821 674.332 371.06C676.839 367.275 678.904 364.104 678.904 363.981C678.904 363.662 677.429 359.975 677.208 359.753C677.085 359.63 676.028 361.351 674.848 363.563C673.668 365.776 672.022 368.676 671.21 370.028C669.539 372.781 657.814 390.307 657.617 390.307C657.544 390.307 657.544 390.209 657.617 390.111C657.691 389.988 659.092 386.743 660.739 382.908C665.336 372.167 665.286 372.24 671.997 363.76L676.618 357.934L675.512 354.936L674.406 351.912L673.988 352.625C673.767 352.994 672.39 355.378 670.965 357.91C667.4 364.202 665.213 367.57 659.264 375.903C656.462 379.836 653.242 384.383 652.111 386.006C649.063 390.381 649.088 390.43 651.865 384.285C652.849 382.122 654.643 378.14 655.847 375.436C659.313 367.644 659.854 366.808 668.777 356.165L673.816 350.167L673.152 348.102C672.784 346.971 672.39 346.062 672.292 346.111C672.169 346.16 670.719 347.856 669.072 349.872C663.959 356.091 661.378 358.868 655.331 364.67C652.136 367.742 647.638 372.093 645.351 374.33C643.041 376.567 640.902 378.631 640.583 378.877L639.993 379.369L640.607 378.386C640.952 377.845 642.992 374.723 645.13 371.454C647.293 368.185 649.555 364.694 650.194 363.711C651.693 361.351 654.864 357.91 657.765 355.476C659.51 354.026 671.21 344.587 671.727 344.194C671.874 344.095 670.448 339.917 670.276 339.917C669.858 339.917 658.625 351.199 655.823 354.419C654.127 356.386 650.956 359.803 648.793 362.039C645.819 365.137 644.147 367.128 641.935 370.225C640.337 372.486 638.985 374.33 638.936 374.33C638.543 374.33 641.812 368.086 645.794 361.253C651.595 351.273 653.635 349.135 666.048 340.187C667.99 338.811 669.563 337.532 669.563 337.385C669.563 336.869 667.966 331.559 667.818 331.559C667.72 331.559 667.376 331.977 667.032 332.493C664.524 336.328 659.24 342.104 656.782 343.727C654.397 345.3 630.578 357.074 630.308 356.804C630.284 356.755 631.709 355.919 633.504 354.911C637.928 352.453 643.778 348.938 645.696 347.586C646.556 346.996 649.309 344.661 651.841 342.399C657.666 337.213 657.765 337.115 663.05 333.526C666.614 331.117 667.45 330.429 667.4 330.035C667.376 329.74 667.056 328.585 666.712 327.454L666.098 325.414L660.518 330.797C651.841 339.179 648.989 341.514 645.106 343.53C638.493 346.947 635.47 348.962 632.029 352.256C630.505 353.731 629.202 354.911 629.104 354.911C629.03 354.911 630.456 353.338 632.25 351.396C635.937 347.438 640.116 342.768 643.459 338.909C644.688 337.459 646.286 335.763 646.998 335.124C648.522 333.747 652.037 331.363 656.044 328.978C658.404 327.577 665.016 323.521 665.36 323.276C665.508 323.177 664.844 320.99 664.623 320.867C664.524 320.793 662.116 322.44 659.264 324.529C649.776 331.535 647.048 333.182 641.861 335.148C636.453 337.213 633.135 338.86 629.989 341.121C626.67 343.481 627.211 342.965 632.717 338.442C634.929 336.623 638.567 333.526 640.804 331.559C643.041 329.617 645.401 327.651 646.089 327.209C647.76 326.102 651.472 324.21 654.446 322.956C660.223 320.523 663.91 318.728 663.91 318.31C663.885 317.843 662.361 312.706 662.165 312.509C662.091 312.436 661.009 313.493 659.78 314.82C656.044 318.851 654.471 319.982 648.178 323.03L642.648 325.709L637.166 331.141C634.167 334.14 631.709 336.5 631.709 336.402C631.709 336.18 638.395 327.086 640.312 324.677C642.353 322.145 646.089 319.22 651.374 316.073C654.913 313.96 661.452 309.904 661.452 309.83C661.452 309.781 661.354 309.437 661.231 309.043C661.083 308.65 660.764 307.544 660.469 306.561L659.952 304.791L654.373 309.289C644.737 317.057 642.451 318.605 637.707 320.645C632.201 323.03 629.054 324.775 626.179 327.036C621.68 330.601 621.803 330.404 627.53 325.267C629.62 323.399 633.454 319.834 636.06 317.352C638.764 314.795 641.64 312.337 642.721 311.624C643.754 310.936 647.908 308.724 651.915 306.708C655.946 304.693 659.24 302.898 659.24 302.726C659.24 302.382 658.527 299.85 658.428 299.85C658.404 299.85 656.782 300.194 654.815 300.588C651.595 301.251 650.784 301.325 646.581 301.325C644 301.325 641.197 301.423 640.312 301.546C639.059 301.718 629.325 304.57 627.211 305.381C626.99 305.479 626.793 305.479 626.793 305.405C626.793 305.307 629.472 303.906 632.742 302.284C639.231 299.088 639.55 298.99 645.524 298.252C647.736 297.982 649.702 297.933 653.266 298.056C657.298 298.179 658.011 298.154 657.912 297.859C657.47 296.63 653.34 282.275 653.34 281.98C653.34 281.587 655.036 278.858 655.184 279.006C655.233 279.055 655.454 279.964 655.675 281.046C656.339 284.291 658.551 293.312 658.748 293.533C658.846 293.631 660.985 293.336 663.517 292.845C666.393 292.304 668.851 291.984 670.129 291.984C673.128 291.984 676.2 291.222 679.224 289.772L680.256 289.256L679.519 289.821C678.634 290.485 678.216 290.927 676.495 292.918C674.922 294.737 674.357 295.057 671.579 295.672C669.047 296.237 664.107 296.311 661.132 295.819C660.1 295.647 659.24 295.573 659.24 295.647C659.24 295.721 659.338 296.188 659.461 296.655C659.608 297.122 659.805 297.958 659.952 298.498L660.198 299.482L664.574 299.482C668.457 299.482 669.195 299.555 671.161 300.071C672.857 300.538 673.988 300.686 675.954 300.686C679.15 300.686 679.838 300.44 685.049 297.368C687.139 296.139 689.253 294.909 689.72 294.639L690.58 294.147L689.843 294.811C688.245 296.212 683.181 299.899 681.19 301.104C677.798 303.169 677.085 303.365 673.005 303.488C669.49 303.586 669.367 303.562 665.409 302.579C663.197 302.013 661.255 301.571 661.083 301.571C660.837 301.571 660.862 301.89 661.157 303.021C661.624 304.766 661.599 304.766 666.147 304.766C671.456 304.766 685.762 305.479 688.122 305.872C693.874 306.807 695.619 306.979 699.847 307.003C705.181 307.028 704.886 307.2 697.831 308.085C689.326 309.142 684.853 309.437 677.38 309.437L670.301 309.437L667.99 308.699C666.712 308.281 664.893 307.642 663.934 307.224C662.976 306.831 662.189 306.536 662.189 306.561C662.189 306.733 663.394 310.985 663.467 311.034C663.517 311.084 665.975 311.182 668.949 311.28C679.986 311.575 683.869 312.19 691.662 314.869C695.054 316.049 698.913 317.155 700.904 317.548C702.575 317.892 711.129 320.449 711.351 320.67C711.424 320.744 711.179 320.744 710.834 320.67C709.556 320.351 702.526 319.269 698.569 318.777C696.332 318.482 691.686 318.163 688.245 318.04C681.338 317.794 679.74 317.573 673.128 315.951C670.694 315.361 667.72 314.648 666.54 314.377L664.352 313.91L664.524 314.771C664.893 316.737 664.869 316.713 667.646 317.057C679.273 318.433 684.361 319.539 689.818 321.973C696.307 324.849 700.56 326.004 705.697 326.274C707.246 326.348 708.917 326.52 709.384 326.643C709.925 326.791 706.533 326.84 700.166 326.766C689.228 326.668 688.859 326.643 680.895 325.021C676.249 324.087 674.603 323.546 669.49 321.26C667.622 320.449 666.073 319.761 666.024 319.761C665.975 319.761 666.221 320.768 666.589 322.022L667.253 324.283L672.267 325.193C683.55 327.258 686.647 328.339 692.448 332.223C695.398 334.189 700.437 336.205 708.524 338.663C710.269 339.204 711.596 339.646 711.449 339.671C711.326 339.671 708.376 339.056 704.935 338.319C701.518 337.582 696.75 336.648 694.39 336.23C688.441 335.173 688.491 335.197 677.921 331.191C672.734 329.249 668.433 327.676 668.384 327.725C668.285 327.848 669.342 331.608 669.539 331.854C669.613 331.928 671.751 332.248 674.283 332.518C682.518 333.452 683.402 333.673 692.055 337.041C697.979 339.327 702.231 340.703 706.754 341.785C711.154 342.842 711.203 342.866 711.08 342.965C711.031 342.989 707.393 342.768 702.993 342.473C692.473 341.711 689.769 341.22 683.501 338.909C672.095 334.681 670.424 334.091 670.35 334.263C670.301 334.386 670.67 335.738 671.161 337.287L672.071 340.089L677.282 340.236C682.837 340.384 684.853 340.703 686.647 341.736C689.228 343.211 691.244 343.727 696.111 344.194C700.437 344.612 702.305 345.103 705.009 346.603C707.737 348.127 712.948 352.404 712.555 352.797C712.506 352.871 711.4 352.207 710.122 351.322C707.442 349.503 704.075 347.807 701.666 347.07C700.289 346.652 698.864 346.504 693.923 346.308C690.605 346.16 686.942 345.865 685.787 345.669C683.525 345.251 678.953 344.046 675.217 342.866C673.939 342.473 672.882 342.178 672.833 342.227C672.784 342.252 673.054 343.137 673.398 344.169C673.988 345.914 674.086 346.062 674.799 346.185C688.466 348.52 691.465 349.429 696.578 352.797C697.979 353.707 700.191 354.862 701.494 355.378C703.903 356.337 710.761 358.623 712.727 359.114C713.342 359.286 713.784 359.434 713.735 359.483C713.686 359.557 711.277 359.09 708.376 358.5C705.476 357.885 702.059 357.222 700.781 357C694.095 355.894 693.112 355.599 684.558 352.453C679.887 350.732 675.832 349.233 675.537 349.159C674.996 348.987 674.996 348.987 675.684 350.904C676.077 351.961 676.544 352.895 676.716 352.994C676.913 353.092 679.052 353.51 681.485 353.952C687.532 355.009 690.408 355.747 693.087 356.877C695.299 357.836 697.93 359.311 699.454 360.466C699.871 360.786 701.346 361.548 702.772 362.162C705.82 363.514 708.401 364.891 710.736 366.464C711.67 367.103 713.268 368.086 714.227 368.676C715.21 369.242 716.021 369.758 716.021 369.807C716.021 369.905 715.406 369.635 710.49 367.447C702.895 364.055 701.346 363.514 697.585 362.875C694.144 362.261 693.751 362.138 685.811 358.844C681.288 356.951 677.528 355.452 677.478 355.525C677.405 355.575 677.749 356.656 678.191 357.91L679.027 360.171L685.049 362.064C691.514 364.08 695.004 365.358 703.854 368.996C706.951 370.274 710.589 371.749 711.891 372.265C713.219 372.781 714.251 373.248 714.202 373.297C714.153 373.346 712.85 373.076 711.326 372.732C709.777 372.388 706.041 371.552 702.993 370.888C695.152 369.168 693.603 368.627 686.598 365.161C684.336 364.03 681.829 362.826 681.067 362.457L679.666 361.818L680.281 363.465C680.625 364.375 681.018 365.382 681.141 365.726C681.338 366.292 681.78 366.464 685.492 367.447C687.753 368.037 692.251 369.438 695.496 370.544C702.01 372.757 715.284 377.599 715.161 377.722C714.964 377.943 698.347 374.428 696.111 373.691C694.685 373.224 690.973 371.7 687.876 370.298C684.754 368.897 682.173 367.791 682.124 367.84C682.001 367.963 683.599 371.945 683.919 372.265C684.066 372.437 686.008 372.855 688.245 373.224C692.669 373.936 697.487 374.969 701.518 376.05C702.944 376.444 706.533 377.378 709.507 378.14C712.481 378.902 714.964 379.59 715.013 379.639C715.161 379.787 714.964 379.762 710.957 379.393C708.942 379.197 705.795 378.902 703.976 378.754C699.208 378.361 696.479 377.746 690.26 375.657C687.237 374.625 684.705 373.863 684.631 373.912C684.582 373.986 684.754 374.576 685.049 375.264L685.566 376.468L687.163 376.64C691.637 377.107 696.455 378.459 699.921 380.254C701.273 380.942 703.485 381.901 704.812 382.368C707.885 383.425 710.49 384.752 712.703 386.35C713.637 387.038 714.35 387.603 714.276 387.603C714.202 387.603 712.875 387.013 711.326 386.276C706.385 383.941 704.271 383.277 699.65 382.589C694.98 381.901 693.825 381.581 689.523 379.664C687.876 378.926 686.524 378.435 686.524 378.607C686.573 379.664 687.237 380.057 691.465 381.581C693.825 382.417 696.725 383.547 697.954 384.088C703.559 386.546 709.827 389.447 709.753 389.521C709.605 389.693 698.888 386.89 697.241 386.276C696.356 385.932 693.923 384.703 691.834 383.547C689.744 382.392 687.974 381.458 687.901 381.458C687.827 381.458 688.171 382.269 688.663 383.277L689.548 385.071L691.416 385.514C692.448 385.735 694.046 386.202 695.004 386.522C697.561 387.382 705.894 391.02 705.328 391.045C704.468 391.045 700.486 390.332 697.856 389.693C695.25 389.054 693.21 388.169 691.268 386.841C690.678 386.423 690.211 386.202 690.211 386.35C690.211 386.915 691.563 388.119 692.866 388.709C695.324 389.84 697.733 391.487 699.208 393.085C700.756 394.732 705.795 401.123 705.648 401.246C705.476 401.393 697.069 395.371 695.25 393.798C694.169 392.839 693.284 392.077 693.259 392.102C693.235 392.126 693.53 393.085 693.898 394.24C694.783 396.846 695.127 398.96 695.103 401.491C695.078 404.343 694.783 405.154 694.562 402.966C694.439 401.713 694.193 400.852 693.603 399.771C691.367 395.592 691.391 395.666 691.194 391.733C691.072 389.004 690.924 387.972 690.605 387.48C690.383 387.136 690.162 386.866 690.138 386.866C690.088 386.866 690.162 387.726 690.285 388.783C690.654 392.003 690.359 396.157 689.474 400.262C689.031 402.303 688.663 403.974 688.638 403.999C688.589 404.048 688.589 402.106 688.589 399.697C688.589 397.313 688.564 394.142 688.515 392.642C688.441 390.504 688.54 389.496 688.958 387.775L689.474 385.637L688.761 384.482L688.048 383.351L687.262 386.768C685.762 393.208 685.271 395.1 683.648 400.68C682.739 403.777 681.977 406.235 681.928 406.186Z" fill="white"/>
<path d="M904.954 76.0677C906.386 76.0626 909.009 75.5053 910.65 74.8403C912.492 74.1204 916.555 71.7865 918.773 70.1871C922.201 67.7296 925.252 64.7043 927.184 61.8462C927.884 60.8044 929.529 57.6826 930.25 55.9779L930.539 55.3084L929.465 55.4252C924.642 55.8908 921.985 55.8789 919.208 55.3838C915.214 54.6715 912.998 53.362 914.104 52.3672C914.76 51.7804 915.604 51.6488 920.821 51.3976C926.041 51.1318 930.744 50.0116 932.353 48.6535C933.196 47.9459 933.477 47.3055 933.663 45.5662C933.896 43.5907 933.908 39.1911 933.7 38.3419C933.641 38.155 933.195 38.2532 931.678 38.749C928.789 39.7174 927.462 39.9065 924.898 39.7795C922.458 39.6547 921.085 39.38 920.888 38.9539C920.642 38.4212 920.935 37.9085 921.707 37.5241C922.692 37.0413 924.162 36.7198 927.183 36.3623C930.109 36.0105 932.014 35.6343 932.482 35.3396C932.656 35.215 933.09 34.7557 933.433 34.2876C933.936 33.629 934.088 33.2962 934.201 32.6419C934.403 31.4825 934.099 29.3631 933.314 26.4301C932.196 22.2411 932.002 21.2245 931.731 17.8226C931.586 16.0413 931.369 14.4119 931.256 14.1949C930.937 13.6427 929.611 13.3653 926.323 13.1532C922.176 12.8975 921.467 12.7544 917.585 11.4497C912.76 9.83024 910.412 9.48089 908.51 10.0759C907.542 10.3767 906.879 10.9926 906.102 12.3246C904.868 14.4363 904.11 16.9716 903.893 19.6982C903.768 21.2672 903.819 21.9497 904.336 25.651C904.738 28.45 904.885 30.7453 904.722 31.355C904.694 31.4566 904.516 31.6577 904.324 31.793C903.996 32.0317 903.934 32.0307 903.443 31.7126C902.304 30.9717 900.782 27.4211 900.142 24.0604C899.011 18.0632 898.733 15.7328 898.966 14.224C899.119 13.1294 899.982 11.2447 901.018 9.70197C901.437 9.06745 901.733 8.54024 901.661 8.5208C901.385 8.4469 897.793 8.96242 896.648 9.23112C890.773 10.6597 888 12.997 887.377 17.0619C886.815 20.7851 887.671 24.4995 890.196 29.1276C893.693 35.5875 894.899 38.6333 894.526 40.0268C894.358 40.651 893.936 40.8334 893.138 40.6195C891.773 40.2539 890.412 38.4266 888.686 34.5883C888.103 33.2808 887.124 31.2449 886.524 30.0574C884.849 26.7303 884.369 25.5594 884.068 23.954C883.82 22.674 883.565 19.3854 883.594 18.1173C883.613 17.8734 883.572 17.6759 883.514 17.6603C883.311 17.6059 879.719 21.1397 877.917 23.1616C873.024 28.6492 870.202 33.4936 869.163 38.2405C868.59 40.9028 868.609 43.2106 869.214 45.4261C869.509 46.47 872.135 53.1011 873.203 55.503C874.176 57.6774 875.131 59.2244 875.861 59.809C876.641 60.4382 878.731 61.2316 879.943 61.354C881.85 61.5538 884.689 61.1787 887.816 60.3054C890.256 59.621 890.282 59.5814 888.533 59.5483C886.631 59.5054 884.164 59.0155 883.007 58.4565C882.001 57.9694 879.181 56.1868 879.31 56.1124C879.346 56.0912 879.9 56.3484 880.525 56.6869C882.262 57.6348 884.231 58.2402 886.127 58.4216C887.612 58.5705 890.065 58.5899 890.563 58.4743C890.698 58.4328 889.901 57.7523 888.425 56.6412C883.439 52.8939 881.49 51.1114 879.141 48.1484C877.745 46.3898 875.195 42.8438 875.23 42.7132C875.242 42.6696 875.321 42.722 875.399 42.8363C876.597 44.464 880.189 48.4759 881.543 49.6943C881.895 50.0064 883.683 51.4035 885.533 52.8015C887.373 54.1812 889.568 55.8585 890.392 56.4994C891.486 57.3525 891.951 57.6483 892.088 57.5449C892.567 57.2067 894.343 54.9911 894.444 54.6137C894.604 54.0185 894.156 53.3075 891.558 49.9976C886.616 43.7103 884.977 40.7666 883.532 35.6499C883.002 33.7965 882.837 32.7876 883.291 34.1695C884.459 37.7651 887.06 42.3982 890.756 47.4179C892.203 49.3924 894.186 51.7442 895.167 52.6137L895.781 53.1671L896.655 52.1101C897.154 51.528 898.362 50.0939 899.363 48.9151L901.192 46.7915L900.213 44.7556C898.219 40.643 896.641 36.2531 895.818 32.5321C895.443 30.7979 894.519 23.5029 894.631 23.1439C894.657 23.1042 895.131 25.2847 895.708 28.0065C896.286 30.7283 896.914 33.4946 897.129 34.1435C897.654 35.84 898.882 38.9227 899.735 40.6758C900.52 42.333 902.149 45.3677 902.251 45.395C902.352 45.4222 910.692 36.3619 910.746 36.1587C910.77 36.0716 910.551 35.204 910.261 34.255C909.162 30.6934 908.502 27.4052 908.518 25.6047C908.52 25.0762 908.673 23.9815 908.862 23.1609C909.209 21.5738 909.213 21.5593 909.036 24.0788C908.941 25.3603 909.64 28.27 911.185 33.0713L911.666 34.5848L912.04 34.2339C912.233 34.0367 915.334 30.8227 918.937 27.074C922.521 23.336 925.548 20.2265 925.644 20.1589C925.75 20.1096 925.686 20.2325 925.494 20.4297C925.218 20.7605 918.27 29.4468 917.882 29.9652C917.778 30.1238 917.977 30.1928 919.143 30.4275C919.91 30.5862 920.815 30.6889 921.166 30.6584C921.867 30.5972 923.735 30.0709 925.462 29.4293L926.585 29.0144L925.82 29.4316C924.749 30.0005 923.369 30.5642 922.19 30.9016C921.179 31.1908 918.766 31.3689 917.573 31.2358C917.227 31.1899 916.87 31.1876 916.768 31.2223C916.482 31.3013 907.355 41.8465 907.44 41.9938C907.834 42.6748 912.171 44.1949 914.793 44.5707C915.6 44.6937 916.284 44.8145 916.301 44.8658C916.322 44.9026 915.691 44.9358 914.9 44.9261C913.585 44.9003 913.156 44.8166 909.919 43.9492L906.363 42.9963L903.038 47.1616C899.809 51.1972 899.712 51.3268 899.986 51.5246C900.793 52.1141 903.037 53.26 904.598 53.8805C905.568 54.265 907.627 54.9412 909.18 55.3573C912.468 56.2693 911.685 56.2306 907.49 55.2779C905.232 54.766 904.731 54.6008 903.335 53.9467C900.909 52.7832 899.533 52.2278 899.099 52.2205C898.804 52.2192 898.49 52.4618 897.815 53.1831C896.868 54.2207 895.029 56.4972 894.974 56.7004C894.959 56.7584 895.117 56.8632 895.321 56.9176C895.814 57.0499 897.424 58.4148 898.304 59.4283C898.693 59.8906 899.689 61.1685 900.498 62.2721C902.947 65.5575 903.764 66.1655 907.109 67.0929C908.655 67.5381 908.796 67.5916 908.032 67.4803C907.538 67.41 906.288 67.1375 905.254 66.8758C903.392 66.3925 903.392 66.3925 902.556 65.6239C902.107 65.208 901.274 64.2536 900.696 63.5075C898.328 60.3838 897.452 59.589 895.303 58.6087C894.03 58.0186 893.836 58.0445 893.622 58.8429C893.323 59.9606 894.066 62.1821 895.515 64.4374C896.42 65.8779 897.371 66.8015 899.603 68.4576C901.511 69.8712 901.162 69.8398 899.148 68.4135C895.816 66.0427 894.205 64.1018 893.222 61.2092C892.892 60.234 892.835 60.1565 892.666 60.438C892.291 61.0842 891.718 63.6845 891.629 65.061C891.539 66.7326 891.836 68.1811 892.489 69.2273C892.951 69.9423 895.201 72.0543 896.645 73.1102C897.506 73.7297 898.696 74.4533 899.568 74.858C900.563 75.3268 903.878 76.0751 904.954 76.0677Z" fill="white"/>
</svg>
