<svg width="145" height="116" viewBox="0 0 145 116" fill="none" xmlns="http://www.w3.org/2000/svg">
<g clip-path="url(#clip0_283_12)">
<path d="M141.375 79.75H137.75V55.2586C137.75 52.3812 136.595 49.6172 134.555 47.5781L111.922 24.9445C109.883 22.9055 107.119 21.75 104.241 21.75H94.25V10.875C94.25 4.87109 89.3789 0 83.375 0H10.875C4.87109 0 0 4.87109 0 10.875V83.375C0 89.3789 4.87109 94.25 10.875 94.25H14.5C14.5 106.258 24.2422 116 36.25 116C48.2578 116 58 106.258 58 94.25H87C87 106.258 96.7422 116 108.75 116C120.758 116 130.5 106.258 130.5 94.25H141.375C143.369 94.25 145 92.6188 145 90.625V83.375C145 81.3812 143.369 79.75 141.375 79.75ZM36.25 105.125C30.2461 105.125 25.375 100.254 25.375 94.25C25.375 88.2461 30.2461 83.375 36.25 83.375C42.2539 83.375 47.125 88.2461 47.125 94.25C47.125 100.254 42.2539 105.125 36.25 105.125ZM108.75 105.125C102.746 105.125 97.875 100.254 97.875 94.25C97.875 88.2461 102.746 83.375 108.75 83.375C114.754 83.375 119.625 88.2461 119.625 94.25C119.625 100.254 114.754 105.125 108.75 105.125ZM126.875 58H94.25V32.625H104.241L126.875 55.2586V58Z" fill="#034638"/>
</g>
<defs>
<clipPath id="clip0_283_12">
<rect width="145" height="116" fill="white"/>
</clipPath>
</defs>
</svg>
